<?xml version="1.0" encoding="UTF-8" standalone="no"?>
<!-- Created with Inkscape (http://www.inkscape.org/) -->

<svg
   xmlns:ns0="http://www.iki.fi/pav/software/textext/"
   xmlns:dc="http://purl.org/dc/elements/1.1/"
   xmlns:cc="http://creativecommons.org/ns#"
   xmlns:rdf="http://www.w3.org/1999/02/22-rdf-syntax-ns#"
   xmlns:svg="http://www.w3.org/2000/svg"
   xmlns="http://www.w3.org/2000/svg"
   xmlns:sodipodi="http://sodipodi.sourceforge.net/DTD/sodipodi-0.dtd"
   xmlns:inkscape="http://www.inkscape.org/namespaces/inkscape"
   sodipodi:docname="3DCoMwithoutfootVHIP.svg"
   inkscape:version="0.92.3 (2405546, 2018-03-11)"
   id="svg8"
   version="1.1"
   viewBox="0 0 270.72638 204.99976"
   height="204.99977mm"
   width="270.72638mm">
  <sodipodi:namedview
     inkscape:snap-global="true"
     inkscape:snap-object-midpoints="true"
     inkscape:snap-grids="true"
     inkscape:snap-to-guides="true"
     inkscape:window-maximized="1"
     inkscape:window-y="-8"
     inkscape:window-x="-8"
     inkscape:window-height="1137"
     inkscape:window-width="1920"
     showgrid="false"
     inkscape:current-layer="g9561"
     inkscape:document-units="mm"
     inkscape:cy="536.50997"
     inkscape:cx="253.15777"
     inkscape:zoom="0.70710678"
     inkscape:pageshadow="2"
     inkscape:pageopacity="0.0"
     borderopacity="1.0"
     bordercolor="#666666"
     pagecolor="#ffffff"
     id="base"
     fit-margin-top="0"
     fit-margin-left="0"
     fit-margin-right="0"
     fit-margin-bottom="0" />
  <defs
     id="defs2">
    <marker
       inkscape:stockid="Arrow1Lend"
       orient="auto"
       refY="0"
       refX="0"
       id="marker3635"
       style="overflow:visible"
       inkscape:isstock="true">
      <path
         inkscape:connector-curvature="0"
         id="path1383"
         d="M 0,0 5,-5 -12.5,0 5,5 Z"
         style="fill:#000000;fill-opacity:1;fill-rule:evenodd;stroke:#000000;stroke-width:1.00000003pt;stroke-opacity:1"
         transform="matrix(-0.8,0,0,-0.8,-10,0)" />
    </marker>
    <marker
       inkscape:stockid="Arrow1Mend"
       orient="auto"
       refY="0"
       refX="0"
       id="marker3234"
       style="overflow:visible"
       inkscape:isstock="true">
      <path
         inkscape:connector-curvature="0"
         id="path3232"
         d="M 0,0 5,-5 -12.5,0 5,5 Z"
         style="fill:#000000;fill-opacity:1;fill-rule:evenodd;stroke:#000000;stroke-width:1.00000003pt;stroke-opacity:1"
         transform="matrix(-0.4,0,0,-0.4,-4,0)" />
    </marker>
    <marker
       inkscape:stockid="Arrow2Mstart"
       orient="auto"
       refY="0"
       refX="0"
       id="marker3226"
       style="overflow:visible"
       inkscape:isstock="true">
      <path
         inkscape:connector-curvature="0"
         id="path3224"
         style="fill:#000000;fill-opacity:1;fill-rule:evenodd;stroke:#000000;stroke-width:0.625;stroke-linejoin:round;stroke-opacity:1"
         d="M 8.7185878,4.0337352 -2.2072895,0.01601326 8.7185884,-4.0017078 c -1.7454984,2.3720609 -1.7354408,5.6174519 -6e-7,8.035443 z"
         transform="scale(0.6)" />
    </marker>
    <marker
       inkscape:stockid="Arrow1Mend"
       orient="auto"
       refY="0"
       refX="0"
       id="marker3218"
       style="overflow:visible"
       inkscape:isstock="true">
      <path
         inkscape:connector-curvature="0"
         id="path3216"
         d="M 0,0 5,-5 -12.5,0 5,5 Z"
         style="fill:#000000;fill-opacity:1;fill-rule:evenodd;stroke:#000000;stroke-width:1.00000003pt;stroke-opacity:1"
         transform="matrix(-0.4,0,0,-0.4,-4,0)" />
    </marker>
    <marker
       inkscape:stockid="Arrow1Mend"
       orient="auto"
       refY="0"
       refX="0"
       id="marker3210"
       style="overflow:visible"
       inkscape:isstock="true">
      <path
         inkscape:connector-curvature="0"
         id="path3208"
         d="M 0,0 5,-5 -12.5,0 5,5 Z"
         style="fill:#000000;fill-opacity:1;fill-rule:evenodd;stroke:#000000;stroke-width:1.00000003pt;stroke-opacity:1"
         transform="matrix(-0.4,0,0,-0.4,-4,0)" />
    </marker>
    <marker
       inkscape:isstock="true"
       style="overflow:visible"
       id="marker3202"
       refX="0"
       refY="0"
       orient="auto"
       inkscape:stockid="Arrow1Lend">
      <path
         inkscape:connector-curvature="0"
         transform="matrix(-0.8,0,0,-0.8,-10,0)"
         style="fill:#000000;fill-opacity:1;fill-rule:evenodd;stroke:#000000;stroke-width:1.00000003pt;stroke-opacity:1"
         d="M 0,0 5,-5 -12.5,0 5,5 Z"
         id="path3200" />
    </marker>
    <marker
       inkscape:isstock="true"
       style="overflow:visible"
       id="marker2642"
       refX="0"
       refY="0"
       orient="auto"
       inkscape:stockid="Arrow1Lstart">
      <path
         inkscape:connector-curvature="0"
         transform="matrix(0.8,0,0,0.8,10,0)"
         style="fill:#000000;fill-opacity:1;fill-rule:evenodd;stroke:#000000;stroke-width:1.00000003pt;stroke-opacity:1"
         d="M 0,0 5,-5 -12.5,0 5,5 Z"
         id="path2640" />
    </marker>
    <marker
       inkscape:stockid="Arrow1Mstart"
       orient="auto"
       refY="0"
       refX="0"
       id="Arrow1Mstart"
       style="overflow:visible"
       inkscape:isstock="true">
      <path
         inkscape:connector-curvature="0"
         id="path1386"
         d="M 0,0 5,-5 -12.5,0 5,5 Z"
         style="fill:#000000;fill-opacity:1;fill-rule:evenodd;stroke:#000000;stroke-width:1.00000003pt;stroke-opacity:1"
         transform="matrix(0.4,0,0,0.4,4,0)" />
    </marker>
    <marker
       inkscape:stockid="Arrow1Mend"
       orient="auto"
       refY="0"
       refX="0"
       id="marker1898"
       style="overflow:visible"
       inkscape:isstock="true">
      <path
         inkscape:connector-curvature="0"
         id="path1896"
         d="M 0,0 5,-5 -12.5,0 5,5 Z"
         style="fill:#000000;fill-opacity:1;fill-rule:evenodd;stroke:#070707;stroke-width:1.00000003pt;stroke-opacity:1"
         transform="matrix(-0.4,0,0,-0.4,-4,0)" />
    </marker>
    <marker
       inkscape:stockid="TriangleOutL"
       orient="auto"
       refY="0"
       refX="0"
       id="TriangleOutL"
       style="overflow:visible"
       inkscape:isstock="true">
      <path
         inkscape:connector-curvature="0"
         id="path1522"
         d="M 5.77,0 -2.88,5 V -5 Z"
         style="fill:#000000;fill-opacity:1;fill-rule:evenodd;stroke:#070707;stroke-width:1.00000003pt;stroke-opacity:1"
         transform="scale(0.8)" />
    </marker>
    <marker
       inkscape:stockid="Arrow2Lend"
       orient="auto"
       refY="0"
       refX="0"
       id="Arrow2Lend"
       style="overflow:visible"
       inkscape:isstock="true">
      <path
         inkscape:connector-curvature="0"
         id="path1401"
         style="fill:#000000;fill-opacity:1;fill-rule:evenodd;stroke:#070707;stroke-width:0.625;stroke-linejoin:round;stroke-opacity:1"
         d="M 8.7185878,4.0337352 -2.2072895,0.01601326 8.7185884,-4.0017078 c -1.7454984,2.3720609 -1.7354408,5.6174519 -6e-7,8.035443 z"
         transform="matrix(-1.1,0,0,-1.1,-1.1,0)" />
    </marker>
    <marker
       inkscape:stockid="Arrow1Mend"
       orient="auto"
       refY="0"
       refX="0"
       id="Arrow1Mend"
       style="overflow:visible"
       inkscape:isstock="true">
      <path
         inkscape:connector-curvature="0"
         id="path1389"
         d="M 0,0 5,-5 -12.5,0 5,5 Z"
         style="fill:#000000;fill-opacity:1;fill-rule:evenodd;stroke:#070707;stroke-width:1.00000003pt;stroke-opacity:1"
         transform="matrix(-0.4,0,0,-0.4,-4,0)" />
    </marker>
    <marker
       inkscape:stockid="Arrow2Mstart"
       orient="auto"
       refY="0"
       refX="0"
       id="Arrow2Mstart"
       style="overflow:visible"
       inkscape:isstock="true">
      <path
         inkscape:connector-curvature="0"
         id="path1404"
         style="fill:#000000;fill-opacity:1;fill-rule:evenodd;stroke:#070707;stroke-width:0.625;stroke-linejoin:round;stroke-opacity:1"
         d="M 8.7185878,4.0337352 -2.2072895,0.01601326 8.7185884,-4.0017078 c -1.7454984,2.3720609 -1.7354408,5.6174519 -6e-7,8.035443 z"
         transform="scale(0.6)" />
    </marker>
    <marker
       inkscape:isstock="true"
       style="overflow:visible"
       id="marker1350"
       refX="0"
       refY="0"
       orient="auto"
       inkscape:stockid="Arrow1Lend">
      <path
         inkscape:connector-curvature="0"
         transform="matrix(-0.8,0,0,-0.8,-10,0)"
         style="fill:#000000;fill-opacity:1;fill-rule:evenodd;stroke:#070707;stroke-width:1.00000003pt;stroke-opacity:1"
         d="M 0,0 5,-5 -12.5,0 5,5 Z"
         id="path1348" />
    </marker>
    <marker
       inkscape:isstock="true"
       style="overflow:visible"
       id="marker1336"
       refX="0"
       refY="0"
       orient="auto"
       inkscape:stockid="Arrow1Lstart">
      <path
         inkscape:connector-curvature="0"
         transform="matrix(0.8,0,0,0.8,10,0)"
         style="fill:#7e062c;fill-opacity:1;fill-rule:evenodd;stroke:#070707;stroke-width:1.00000003pt;stroke-opacity:1"
         d="M 0,0 5,-5 -12.5,0 5,5 Z"
         id="path1334" />
    </marker>
    <marker
       inkscape:isstock="true"
       style="overflow:visible"
       id="marker1278"
       refX="0"
       refY="0"
       orient="auto"
       inkscape:stockid="Arrow1Lstart">
      <path
         inkscape:connector-curvature="0"
         transform="matrix(0.8,0,0,0.8,10,0)"
         style="fill:#000000;fill-opacity:1;fill-rule:evenodd;stroke:#000000;stroke-width:1.00000003pt;stroke-opacity:1"
         d="M 0,0 5,-5 -12.5,0 5,5 Z"
         id="path1276" />
    </marker>
    <marker
       inkscape:stockid="DiamondM"
       orient="auto"
       refY="0"
       refX="0"
       id="DiamondM"
       style="overflow:visible"
       inkscape:isstock="true">
      <path
         inkscape:connector-curvature="0"
         id="path2026"
         d="M 0,-7.0710768 -7.0710894,0 0,7.0710589 7.0710462,0 Z"
         style="fill:#000000;fill-opacity:1;fill-rule:evenodd;stroke:#000000;stroke-width:1.00000003pt;stroke-opacity:1"
         transform="scale(0.4)" />
    </marker>
    <marker
       inkscape:stockid="Arrow1Lend"
       orient="auto"
       refY="0"
       refX="0"
       id="marker2214"
       style="overflow:visible"
       inkscape:isstock="true">
      <path
         inkscape:connector-curvature="0"
         id="path1947"
         d="M 0,0 5,-5 -12.5,0 5,5 Z"
         style="fill:#000000;fill-opacity:1;fill-rule:evenodd;stroke:#000000;stroke-width:1.00000003pt;stroke-opacity:1"
         transform="matrix(-0.8,0,0,-0.8,-10,0)" />
    </marker>
    <marker
       inkscape:stockid="Arrow1Lend"
       orient="auto"
       refY="0"
       refX="0"
       id="Arrow1Lend"
       style="overflow:visible"
       inkscape:isstock="true"
       inkscape:collect="always">
      <path
         inkscape:connector-curvature="0"
         id="path5616"
         d="M 0,0 5,-5 -12.5,0 5,5 Z"
         style="fill:#000000;fill-opacity:1;fill-rule:evenodd;stroke:#000000;stroke-width:1.00000003pt;stroke-opacity:1"
         transform="matrix(-0.8,0,0,-0.8,-10,0)" />
    </marker>
    <marker
       inkscape:stockid="Arrow1Lstart"
       orient="auto"
       refY="0"
       refX="0"
       id="Arrow1Lstart"
       style="overflow:visible"
       inkscape:isstock="true"
       inkscape:collect="always">
      <path
         inkscape:connector-curvature="0"
         id="path5613"
         d="M 0,0 5,-5 -12.5,0 5,5 Z"
         style="fill:#000000;fill-opacity:1;fill-rule:evenodd;stroke:#000000;stroke-width:1.00000003pt;stroke-opacity:1"
         transform="matrix(0.8,0,0,0.8,10,0)" />
    </marker>
    <inkscape:perspective
       sodipodi:type="inkscape:persp3d"
       inkscape:vp_x="40.36378 : 173.65597 : 1"
       inkscape:vp_y="-344.94352 : 375.57638 : 0"
       inkscape:vp_z="181.69137 : 215.43546 : 1"
       inkscape:persp3d-origin="128.10227 : 175.95471 : 1"
       id="perspective5431" />
    <marker
       inkscape:stockid="Arrow1Lend"
       orient="auto"
       refY="0"
       refX="0"
       id="marker2214-0"
       style="overflow:visible"
       inkscape:isstock="true">
      <path
         inkscape:connector-curvature="0"
         id="path1947-3"
         d="M 0,0 5,-5 -12.5,0 5,5 Z"
         style="fill:#000000;fill-opacity:1;fill-rule:evenodd;stroke:#000000;stroke-width:1.00000003pt;stroke-opacity:1"
         transform="matrix(-0.8,0,0,-0.8,-10,0)" />
    </marker>
    <marker
       inkscape:stockid="Arrow1Lstart"
       orient="auto"
       refY="0"
       refX="0"
       id="Arrow1Lstart-7"
       style="overflow:visible"
       inkscape:isstock="true">
      <path
         inkscape:connector-curvature="0"
         id="path5613-7"
         d="M 0,0 5,-5 -12.5,0 5,5 Z"
         style="fill:#000000;fill-opacity:1;fill-rule:evenodd;stroke:#000000;stroke-width:1.00000003pt;stroke-opacity:1"
         transform="matrix(0.8,0,0,0.8,10,0)" />
    </marker>
    <marker
       inkscape:stockid="Arrow1Lend"
       orient="auto"
       refY="0"
       refX="0"
       id="Arrow1Lend-3"
       style="overflow:visible"
       inkscape:isstock="true">
      <path
         inkscape:connector-curvature="0"
         id="path5616-0"
         d="M 0,0 5,-5 -12.5,0 5,5 Z"
         style="fill:#000000;fill-opacity:1;fill-rule:evenodd;stroke:#000000;stroke-width:1.00000003pt;stroke-opacity:1"
         transform="matrix(-0.8,0,0,-0.8,-10,0)" />
    </marker>
    <marker
       inkscape:stockid="Arrow1Lstart"
       orient="auto"
       refY="0"
       refX="0"
       id="Arrow1Lstart-4"
       style="overflow:visible"
       inkscape:isstock="true">
      <path
         inkscape:connector-curvature="0"
         id="path5613-9"
         d="M 0,0 5,-5 -12.5,0 5,5 Z"
         style="fill:#000000;fill-opacity:1;fill-rule:evenodd;stroke:#000000;stroke-width:1.00000003pt;stroke-opacity:1"
         transform="matrix(0.8,0,0,0.8,10,0)" />
    </marker>
    <marker
       inkscape:stockid="Arrow1Lend"
       orient="auto"
       refY="0"
       refX="0"
       id="Arrow1Lend-1"
       style="overflow:visible"
       inkscape:isstock="true">
      <path
         inkscape:connector-curvature="0"
         id="path5616-2"
         d="M 0,0 5,-5 -12.5,0 5,5 Z"
         style="fill:#000000;fill-opacity:1;fill-rule:evenodd;stroke:#000000;stroke-width:1.00000003pt;stroke-opacity:1"
         transform="matrix(-0.8,0,0,-0.8,-10,0)" />
    </marker>
    <marker
       inkscape:isstock="true"
       style="overflow:visible"
       id="marker2642-7"
       refX="0"
       refY="0"
       orient="auto"
       inkscape:stockid="Arrow1Lstart">
      <path
         inkscape:connector-curvature="0"
         transform="matrix(0.8,0,0,0.8,10,0)"
         style="fill:#000000;fill-opacity:1;fill-rule:evenodd;stroke:#000000;stroke-width:1.00000003pt;stroke-opacity:1"
         d="M 0,0 5,-5 -12.5,0 5,5 Z"
         id="path2640-8" />
    </marker>
  </defs>
  <metadata
     id="metadata5">
    <rdf:RDF>
      <cc:Work
         rdf:about="">
        <dc:format>image/svg+xml</dc:format>
        <dc:type
           rdf:resource="http://purl.org/dc/dcmitype/StillImage" />
        <dc:title></dc:title>
      </cc:Work>
    </rdf:RDF>
  </metadata>
  <g
     transform="translate(13.852063,-16.486559)"
     inkscape:label="Layer 1"
     inkscape:groupmode="layer"
     id="layer1" />
  <g
     transform="translate(59.266667,44.877981)"
     id="g9561">
    <path
       style="fill:#ac9d93;fill-opacity:1;stroke:#9f9f9f;stroke-width:0.4108941;stroke-linecap:butt;stroke-linejoin:miter;stroke-miterlimit:4;stroke-dasharray:none;stroke-opacity:1"
       d="m 139.8459,120.62136 -21.03099,15.8661 -28.079281,21.18349"
       id="path4565-40-5"
       inkscape:connector-curvature="0"
       sodipodi:nodetypes="ccc" />
    <path
       style="fill:#ac9d93;fill-opacity:1;stroke:#9f9f9f;stroke-width:0.4108941;stroke-linecap:butt;stroke-linejoin:miter;stroke-miterlimit:4;stroke-dasharray:none;stroke-opacity:1"
       d="M 100.98692,118.33451 51.876667,155.38407"
       id="path4565-7-3-3"
       inkscape:connector-curvature="0" />
    <path
       style="fill:#ac9d93;fill-opacity:1;stroke:#9f9f9f;stroke-width:0.4108941;stroke-linecap:butt;stroke-linejoin:miter;stroke-miterlimit:4;stroke-dasharray:none;stroke-opacity:1"
       d="M 62.127916,116.04766 13.017659,153.09722"
       id="path4565-2-2-0"
       inkscape:connector-curvature="0" />
    <path
       style="fill:#ac9d93;fill-opacity:1;stroke:#9f9f9f;stroke-width:0.4108941;stroke-linecap:butt;stroke-linejoin:miter;stroke-miterlimit:4;stroke-dasharray:none;stroke-opacity:1"
       d="m 23.268939,113.76081 -49.110284,37.04956"
       id="path4565-8-51-0"
       inkscape:connector-curvature="0" />
    <path
       style="fill:#ac9d93;fill-opacity:1;stroke:#9f9f9f;stroke-width:0.4108941;stroke-linecap:butt;stroke-linejoin:miter;stroke-miterlimit:4;stroke-dasharray:none;stroke-opacity:1"
       d="m 178.70491,122.90822 -49.11026,37.04956"
       id="path4565-9-9-0"
       inkscape:connector-curvature="0" />
    <path
       style="fill:#ac9d93;fill-opacity:1;stroke:#9f9f9f;stroke-width:0.51361763;stroke-linecap:butt;stroke-linejoin:miter;stroke-miterlimit:4;stroke-dasharray:none;stroke-opacity:1"
       d="m -35.13894,123.85792 237.22666,14.03936"
       id="path4565-4-1-7"
       inkscape:connector-curvature="0" />
    <path
       style="fill:#ac9d93;fill-opacity:1;stroke:#9f9f9f;stroke-width:0.51361763;stroke-linecap:butt;stroke-linejoin:miter;stroke-miterlimit:4;stroke-dasharray:none;stroke-opacity:1"
       d="M -43.103788,129.92889 194.12287,143.96825"
       id="path4565-7-5-8-8"
       inkscape:connector-curvature="0" />
    <path
       style="fill:#ac9d93;fill-opacity:1;stroke:#9f9f9f;stroke-width:0.51361763;stroke-linecap:butt;stroke-linejoin:miter;stroke-miterlimit:4;stroke-dasharray:none;stroke-opacity:1"
       d="M -51.068642,135.99986 186.15801,150.03921"
       id="path4565-2-8-2-4"
       inkscape:connector-curvature="0" />
    <path
       style="fill:#ac9d93;fill-opacity:1;stroke:#9f9f9f;stroke-width:0.51361763;stroke-linecap:butt;stroke-linejoin:miter;stroke-miterlimit:4;stroke-dasharray:none;stroke-opacity:1"
       d="M -59.033491,142.07083 178.19318,156.11016"
       id="path4565-8-5-1-5"
       inkscape:connector-curvature="0" />
    <path
       style="fill:#ac9d93;fill-opacity:1;stroke:#9f9f9f;stroke-width:0.51361763;stroke-linecap:butt;stroke-linejoin:miter;stroke-miterlimit:4;stroke-dasharray:none;stroke-opacity:1"
       d="M -27.174085,117.78695 210.05257,131.82631"
       id="path4565-9-3-1-1"
       inkscape:connector-curvature="0" />
    <path
       inkscape:connector-curvature="0"
       id="path5611"
       d="M 209.37309,-16.935238 V 124.00769"
       style="fill:none;stroke:#000000;stroke-width:0.4108941;stroke-linecap:butt;stroke-linejoin:miter;stroke-miterlimit:4;stroke-dasharray:none;stroke-opacity:1;marker-start:url(#Arrow1Lstart);marker-end:url(#Arrow1Lend)" />
    <g
       id="g1343"
       transform="matrix(5.1361767,0,0,5.1361767,-292.52409,-360.0571)">
      <g
         id="g1306">
        <g
           id="g1270">
          <g
             id="g1235">
            <g
               id="g1201">
              <path
                 style="opacity:1;vector-effect:none;fill:#757575;fill-opacity:1;stroke:#7c7c7c;stroke-width:0.0883497;stroke-linecap:butt;stroke-linejoin:miter;stroke-miterlimit:4;stroke-dasharray:none;stroke-dashoffset:0;stroke-opacity:1"
                 d="m 80.966734,67.869117 -8.698731,9.884352 7.3e-5,7e-6 6.8e-5,1.2e-5 -0.474823,0.538934 -1.287852,1.463389 -1.634501,1.857268 -0.0014,-4.94e-4 c 0,0 -2.01e-4,2.33e-4 -2.01e-4,2.33e-4 l 0.0014,4.4e-4 a 0.45283341,2.0180946 43.33587 0 1 -0.177298,0.199273 c -2.7e-5,3.1e-5 -0.0014,0.0018 -0.0014,0.0018 -5.38e-4,7.18e-4 -0.0014,0.0015 -0.002,0.0023 a 0.45283341,2.0180946 43.33587 0 1 -0.03784,0.04159 c -5.5e-4,6.88e-4 -0.01248,0.01425 -0.01294,0.01477 -0.0084,0.009 -0.01852,0.01852 -0.02691,0.02794 -0.02718,0.02954 -0.0459,0.0492 -0.06609,0.06957 -0.01288,0.01353 -0.02503,0.0258 -0.03777,0.04011 a 0.45283341,2.0180946 43.33587 0 1 -0.05476,0.05472 c -0.01355,0.01298 -0.0261,0.02703 -0.03952,0.03983 a 0.45283341,2.0180946 43.33587 0 1 -0.105895,0.104099 c -0.0204,0.01956 -0.0408,0.0391 -0.06093,0.05833 a 0.45283341,2.0180946 43.33587 0 1 -0.06287,0.05892 c -0.01046,0.0095 -0.02107,0.01923 -0.03154,0.02876 -0.0046,0.0043 -0.0092,0.0081 -0.01336,0.01273 -0.0014,8.7e-4 -0.002,0.0013 -0.0027,0.0025 a 0.45283341,2.0180946 43.33587 0 1 -0.0027,0.0025 c -0.002,0.0013 -0.0033,0.0032 -0.0046,0.0048 a 0.45283341,2.0180946 43.33587 0 1 -5.51e-4,5.82e-4 0.45283341,2.0180946 43.33587 0 1 -0.01838,0.01728 c -0.004,0.0035 -0.008,0.0067 -0.01127,0.01039 -0.0014,9.17e-4 -0.002,0.0016 -0.0027,0.0025 a 0.45283341,2.0180946 43.33587 0 1 -0.05039,0.04459 c -0.0046,0.004 -0.0086,0.0075 -0.01275,0.01099 -0.01697,0.01462 -0.03328,0.02961 -0.0502,0.04356 a 0.45283341,2.0180946 43.33587 0 1 -0.208507,0.172029 c -0.006,0.0044 -0.0116,0.0086 -0.01745,0.01297 a 0.45283341,2.0180946 43.33587 0 1 -0.02765,0.02112 c -0.006,0.0045 -0.01181,0.0099 -0.01825,0.01389 a 0.45283341,2.0180946 43.33587 0 1 -0.0791,0.05897 c -0.006,0.0047 -0.01288,0.009 -0.01845,0.01413 l -2.75e-4,2.16e-4 c -0.0098,0.0066 -0.01859,0.01317 -0.02811,0.01966 a 0.45283341,2.0180946 43.33587 0 1 -0.05671,0.0397 c -0.01282,0.0089 -0.02536,0.0168 -0.03804,0.02509 -0.01013,0.007 -0.0204,0.013 -0.0302,0.01961 0,0 -2.68e-4,2.22e-4 -2.68e-4,2.22e-4 a 0.45283341,2.0180946 43.33587 0 1 -0.007,0.0046 0.45283341,2.0180946 43.33587 0 1 -0.0053,0.0037 c -0.002,0.0011 -0.0033,0.0014 -0.0046,0.003 a 0.45283341,2.0180946 43.33587 0 1 -0.01906,0.01265 0.45283341,2.0180946 43.33587 0 1 -0.05516,0.03201 L 55.348549,96.620648 54.924756,96.55523 66.848311,83.006499 a 0.45283341,2.0180946 43.33587 0 1 -0.0027,-0.014 c -6.7e-4,-0.0077 -6.7e-4,-0.01585 -6.7e-4,-0.02408 -7e-6,-2.24e-4 -1.41e-4,-3.14e-4 -1.48e-4,-5.09e-4 7e-6,-1.7e-4 -1.4e-5,-3.37e-4 -1.4e-5,-5.01e-4 -1.95e-4,-0.002 -1.95e-4,-0.0041 3.22e-4,-0.0057 a 0.45283341,2.0180946 43.33587 0 1 0.0027,-0.03889 c 0.0014,-0.01414 0.004,-0.02912 0.0071,-0.04481 a 0.45283341,2.0180946 43.33587 0 1 0.0014,-0.01047 0.45283341,2.0180946 43.33587 0 1 0.0053,-0.01969 c 0.002,-0.0091 0.0046,-0.01822 0.0076,-0.02771 a 0.45283341,2.0180946 43.33587 0 1 0.0093,-0.02847 c 0.0077,-0.0228 0.01658,-0.04655 0.02684,-0.07138 a 0.45283341,2.0180946 43.33587 0 1 0.006,-0.01524 c 4.16e-4,-0.0013 0.0014,-0.002 0.0014,-0.0034 0.004,-0.0086 0.0093,-0.01905 0.01336,-0.02834 0.0027,-0.0049 0.0046,-0.0099 0.0069,-0.01531 0.0014,-0.0025 0.0027,-0.0049 0.004,-0.0077 a 0.45283341,2.0180946 43.33587 0 1 0.05328,-0.106534 c 0.002,-0.0032 0.0033,-0.0057 0.0046,-0.0097 0.002,-0.0048 0.0053,-0.0093 0.0078,-0.01415 a 0.45283341,2.0180946 43.33587 0 1 0.03724,-0.06619 c 0.0067,-0.01164 0.01389,-0.02321 0.02087,-0.03494 a 0.45283341,2.0180946 43.33587 0 1 0.01583,-0.02643 c 0.0014,-0.004 0.004,-0.0069 0.0068,-0.01082 3.1e-4,-4.87e-4 5.11e-4,-8.7e-4 0.0014,-0.0014 1.94e-4,-3.13e-4 4.09e-4,-6.43e-4 4.76e-4,-8.7e-4 a 0.45283341,2.0180946 43.33587 0 1 0.04469,-0.07048 c 0.0027,-0.0052 0.0067,-0.0094 0.0095,-0.01491 0.0053,-0.0079 0.0098,-0.01632 0.0149,-0.02428 0.0027,-0.0052 0.0071,-0.01013 0.01047,-0.01501 a 0.45283341,2.0180946 43.33587 0 1 0.06093,-0.08931 c 0.0027,-0.0038 0.0046,-0.0077 0.0077,-0.01084 5.18e-4,-7.38e-4 0.0014,-0.0014 0.0014,-0.0023 4.83e-4,-6.66e-4 0.0014,-0.0014 6.71e-4,-0.0017 0.0067,-0.0094 0.01275,-0.01865 0.01933,-0.02816 a 0.45283341,2.0180946 43.33587 0 1 0.08626,-0.118215 c 0.006,-0.0093 0.01349,-0.01725 0.01986,-0.02657 a 0.45283341,2.0180946 43.33587 0 1 0.08796,-0.113797 c 0.004,-0.0052 0.0074,-0.01046 0.01174,-0.0153 0.0053,-0.007 0.01081,-0.01428 0.01671,-0.02085 a 0.45283341,2.0180946 43.33587 0 1 0.0561,-0.06935 c 0.0046,-0.006 0.0099,-0.01202 0.01464,-0.01856 0.0033,-0.0039 0.01068,-0.01239 0.01415,-0.01663 a 0.45283341,2.0180946 43.33587 0 1 0.0078,-0.0094 c 0.006,-0.0071 0.01094,-0.01444 0.01704,-0.02124 5.37e-4,-7.16e-4 0.006,-0.0065 0.0067,-0.0075 a 0.45283341,2.0180946 43.33587 0 1 0.165857,-0.19322 l 6.31e-4,1.74e-4 2.01e-4,-2.26e-4 c 0,4e-6 -4.75e-4,-6.9e-5 -4.7e-4,-6.9e-5 l -8.7e-5,-2.72e-4 0.0192,-0.02178 0.0192,-0.02179 -2.01e-4,-3.4e-5 12.095605,-13.744221 z M 67.927213,81.478711 c -0.0046,0.0049 -0.01181,0.01293 -0.01577,0.01796 -0.004,0.0048 -4.1e-5,9.16e-4 0.0088,-0.009 0.0088,-0.0099 0.01188,-0.01384 0.0071,-0.0089 z"
                 id="path5505"
                 inkscape:connector-curvature="0" />
              <g
                 id="g5305"
                 transform="matrix(0.222445,0,0,0.20517031,40.914476,38.791332)">
                <g
                   style="stroke:#000000;stroke-opacity:1"
                   transform="translate(65.200893,54.428571)"
                   id="g5266">
                  <g
                     style="stroke:#000000;stroke-opacity:1"
                     id="g5135"
                     transform="matrix(0.26803232,0,0,0.26803232,76.247951,37.460362)">
                    <g
                       style="stroke:#000000;stroke-width:0.1;stroke-miterlimit:4;stroke-dasharray:none;stroke-opacity:1"
                       id="g5113">
                      <g
                         id="g5030"
                         transform="matrix(1.0864894,0,0,1.1136684,-30.148905,-49.73245)"
                         style="stroke:#000000;stroke-width:0.09090951;stroke-miterlimit:4;stroke-dasharray:none;stroke-opacity:1">
                        <path
                           transform="rotate(-2.3016554)"
                           d="m 204.2521,183.96526 a 40.017067,42.598808 0 0 1 -39.99335,42.5988 40.017067,42.598808 0 0 1 -40.04076,-42.54831 40.017067,42.598808 0 0 1 39.9459,-42.64924 40.017067,42.598808 0 0 1 40.0881,42.49777"
                           sodipodi:open="true"
                           sodipodi:end="6.2808148"
                           sodipodi:start="0"
                           sodipodi:ry="42.598808"
                           sodipodi:rx="40.017067"
                           sodipodi:cy="183.96526"
                           sodipodi:cx="164.23503"
                           sodipodi:type="arc"
                           id="path4802"
                           style="fill:#ffffff;fill-opacity:1;fill-rule:evenodd;stroke:#000000;stroke-width:0.09090951;stroke-miterlimit:4;stroke-dasharray:none;stroke-opacity:1" />
                        <path
                           transform="matrix(0.99711855,-0.07585901,0.02122973,0.99977462,0,0)"
                           sodipodi:nodetypes="csssc"
                           inkscape:connector-curvature="0"
                           id="path4802-2"
                           d="m 194.11473,193.26629 c 0,23.50313 -14.71147,39.23938 -26.407,39.25331 -11.69553,0.0139 -21.18419,-19.02045 -21.19805,-42.52357 -0.0139,-23.50312 9.45232,-42.58265 21.14783,-42.62443 11.69551,-0.0418 26.4295,22.39162 26.45722,45.89469"
                           style="fill:#ffffff;fill-opacity:1;fill-rule:evenodd;stroke:#000000;stroke-width:0.09097757;stroke-miterlimit:4;stroke-dasharray:none;stroke-opacity:1" />
                        <path
                           inkscape:connector-curvature="0"
                           id="path5025"
                           d="m 131.53332,177.24969 -0.11186,-8.1e-4 v 0 a 18.750328,40.08395 89.827737 0 0 -0.0195,0.78547 18.750328,40.08395 89.827737 0 0 41.56659,17.92129 l 0.0948,-0.003 a 18.750328,40.08395 89.827737 0 0 38.41292,-18.11971 v 0"
                           style="fill:none;fill-opacity:1;fill-rule:evenodd;stroke:#000000;stroke-width:0.09090951;stroke-miterlimit:4;stroke-dasharray:none;stroke-opacity:1" />
                      </g>
                    </g>
                    <path
                       transform="scale(0.26458333)"
                       inkscape:connector-curvature="0"
                       id="path5121"
                       d="m 503.39149,624.87544 c -17.76966,-5.2786 -35.88832,-13.43304 -47.75926,-21.49445 -7.39182,-5.01969 -15.92705,-12.92343 -20.43195,-18.92029 -3.10368,-4.13157 -7.06825,-12.34791 -8.11839,-16.82489 -0.74443,-3.17368 -0.8223,-5.37513 -0.55382,-15.65736 0.50774,-19.44554 3.25374,-36.15772 8.77103,-53.38071 20.53405,-64.09988 72.78875,-110.11944 134.17701,-118.16674 7.56582,-0.99179 7.7743,-0.96927 4.10638,0.44356 -17.64943,6.79828 -32.51409,22.5395 -45.11001,47.77011 -13.76944,27.58125 -21.70979,58.95924 -25.43462,100.51018 -1.00761,11.24008 -0.84315,46.77919 0.27113,58.58885 1.2637,13.39324 3.83307,31.76289 5.21009,37.24937 0.35688,1.42195 0.03,1.41445 -5.12759,-0.11763 z"
                       style="opacity:1;vector-effect:none;fill:#000000;fill-opacity:1;stroke:#000000;stroke-width:0.92976379;stroke-linecap:butt;stroke-linejoin:miter;stroke-miterlimit:4;stroke-dasharray:none;stroke-dashoffset:0;stroke-opacity:1" />
                    <path
                       inkscape:connector-curvature="0"
                       id="path5123"
                       d="m 581.79642,735.9414 c -18.67847,-3.37691 -36.94148,-20.28061 -51.08514,-47.28285 -8.10246,-15.46872 -15.47042,-36.39923 -19.92239,-56.59441 -0.53584,-2.43068 -0.79746,-4.41942 -0.58137,-4.41942 0.21608,0 3.65748,0.78284 7.64756,1.73965 12.36388,2.9648 25.6543,5.07037 42.10496,6.67058 12.88485,1.25336 45.74475,1.26075 58.58884,0.0132 25.07067,-2.43517 45.99258,-6.66197 65.64421,-13.26194 3.80232,-1.27701 7.00556,-2.22957 7.11832,-2.11681 0.33386,0.33386 -3.16974,12.73247 -5.6763,20.08733 -11.34963,33.30268 -30.76458,61.99379 -53.55634,79.14475 -17.67211,13.29838 -34.92754,18.79596 -50.28235,16.01994 z"
                       style="opacity:1;vector-effect:none;fill:#000000;fill-opacity:1;stroke:#000000;stroke-width:0.92976379;stroke-linecap:butt;stroke-linejoin:miter;stroke-miterlimit:4;stroke-dasharray:none;stroke-dashoffset:0;stroke-opacity:1"
                       transform="scale(0.26458333)" />
                    <path
                       transform="scale(0.26458333)"
                       inkscape:connector-curvature="0"
                       id="path5125"
                       d="m 692.74512,618.18145 c 1.54308,-4.99797 4.04564,-22.78156 4.88745,-34.7309 0.72467,-10.28645 0.34852,-29.60448 -0.78184,-40.15356 -5.7679,-53.82879 -28.67348,-107.05062 -59.85615,-139.07762 -11.64145,-11.95666 -23.48383,-20.0964 -34.3556,-23.61397 -2.72525,-0.88176 -2.7425,-0.89932 -0.90975,-0.92596 1.02749,-0.0149 4.5504,0.32221 7.82868,0.74922 27.18848,3.54143 54.87125,15.58728 77.69034,33.80609 7.16795,5.7229 20.42075,19.09853 26.43038,26.67534 24.85556,31.33731 38.87586,69.84524 40.31211,110.72065 0.23305,6.63262 0.12546,9.50959 -0.47285,12.64409 -4.02955,21.11036 -25.25724,40.60665 -58.61245,53.83182 -2.2844,0.90575 -2.41829,0.91039 -2.16032,0.0748 z"
                       style="opacity:1;vector-effect:none;fill:#000000;fill-opacity:1;stroke:#000000;stroke-width:0.92976379;stroke-linecap:butt;stroke-linejoin:miter;stroke-miterlimit:4;stroke-dasharray:none;stroke-dashoffset:0;stroke-opacity:1" />
                  </g>
                </g>
                <path
                   transform="scale(0.26458333)"
                   inkscape:connector-curvature="0"
                   id="path5286"
                   d="m 686.95294,517.75551 c -4.25145,-0.29241 -8.07233,-0.79945 -11.83035,-1.56994 -1.44655,-0.29658 -3.86283,-0.87478 -3.92754,-0.93984 -0.0642,-0.0645 -0.59825,-3.14733 -0.84835,-4.8967 -0.30104,-2.10573 -0.472,-3.57911 -0.67861,-5.84822 -0.19162,-2.10444 -0.28182,-11.43072 -0.13367,-13.82017 0.83223,-13.42275 4.23891,-25.19285 9.56723,-33.05483 1.06396,-1.56987 1.7979,-2.47354 3.07171,-3.78208 1.64668,-1.69157 3.06058,-2.76599 4.76737,-3.62273 1.94068,-0.97413 3.3929,-1.33098 5.414,-1.33036 2.02922,6.2e-4 3.55506,0.38727 5.73095,1.45221 6.56038,3.21086 13.2488,11.47702 17.7108,21.88864 2.79363,6.51864 4.6786,13.7299 5.39139,20.62563 0.26479,2.56167 0.34092,4.62824 0.29243,7.93834 -0.062,4.23418 -0.36178,7.15435 -1.12134,10.92385 l -0.32566,1.61616 -1.65179,0.56668 c -5.63197,1.93218 -11.26844,3.06776 -18.52678,3.73261 -1.84364,0.16887 -10.96136,0.2542 -12.90179,0.12075 z"
                   style="opacity:1;vector-effect:none;fill:#ffffff;fill-opacity:1;stroke:#000000;stroke-width:0.70766699;stroke-linecap:butt;stroke-linejoin:miter;stroke-miterlimit:4;stroke-dasharray:none;stroke-dashoffset:0;stroke-opacity:1" />
                <path
                   transform="scale(0.26458333)"
                   inkscape:connector-curvature="0"
                   id="path5288"
                   d="m 689.05116,544.62745 c -18.95259,-1.93242 -34.68283,-16.84995 -39.01628,-37.00047 -0.4992,-2.3213 -1.03052,-6.03954 -1.02721,-7.18855 0.001,-0.39297 0.01,-0.38107 0.37974,0.5356 0.71713,1.7759 1.72367,3.26225 3.31782,4.89935 2.93032,3.00928 6.79257,5.40059 12.06021,7.46705 1.49327,0.58581 4.54775,1.6055 5.63199,1.88015 l 0.63198,0.1601 0.2879,1.30114 c 1.17728,5.3207 2.89354,10.32256 4.97155,14.48901 0.96469,1.93423 1.38709,2.67096 2.51177,4.3809 3.07341,4.67273 6.68445,7.74059 10.4291,8.86032 0.44196,0.13216 0.84375,0.25324 0.89286,0.26908 0.14539,0.0469 -0.30755,0.0242 -1.07143,-0.0537 z"
                   style="opacity:1;vector-effect:none;fill:#ffffff;fill-opacity:1;stroke:#000000;stroke-width:0.70766699;stroke-linecap:butt;stroke-linejoin:miter;stroke-miterlimit:4;stroke-dasharray:none;stroke-dashoffset:0;stroke-opacity:1" />
                <path
                   transform="scale(0.26458333)"
                   inkscape:connector-curvature="0"
                   id="path5290"
                   d="m 696.22388,544.45225 c 7.08595,-1.85195 14.23629,-8.50178 19.10096,-17.76394 1.75005,-3.33202 3.35478,-7.47267 4.3081,-11.11607 0.62505,-2.38884 0.40779,-2.05695 1.695,-2.58934 3.4629,-1.43225 6.24084,-2.96892 8.70536,-4.81553 1.23507,-0.92541 3.52619,-3.1632 4.25672,-4.15763 1.08278,-1.47392 1.84743,-2.97985 2.2668,-4.46428 l 0.21441,-0.75893 -0.041,0.66964 c -0.10974,1.79019 -0.15579,2.36402 -0.27584,3.4375 -0.89,7.95845 -3.63188,15.60498 -7.93994,22.14286 -3.42717,5.20105 -7.95,9.73149 -12.99003,13.01187 -5.52977,3.59915 -11.72636,5.826 -18.18811,6.53621 -0.69765,0.0767 -1.46104,0.13778 -1.69643,0.13577 -0.38488,-0.003 -0.3261,-0.0303 0.58405,-0.26813 z"
                   style="opacity:1;vector-effect:none;fill:#ffffff;fill-opacity:1;stroke:#000000;stroke-width:0.70766699;stroke-linecap:butt;stroke-linejoin:miter;stroke-miterlimit:4;stroke-dasharray:none;stroke-dashoffset:0;stroke-opacity:1" />
              </g>
              <path
                 inkscape:connector-curvature="0"
                 id="path5286-4"
                 d="m 81.345326,66.897566 c -0.25023,-0.01587 -0.4751,-0.0434 -0.69628,-0.08522 -0.0851,-0.0161 -0.22735,-0.04749 -0.23116,-0.05102 -0.004,-0.0035 -0.03521,-0.170852 -0.04993,-0.265815 -0.01772,-0.114309 -0.02778,-0.194291 -0.03994,-0.317469 -0.01128,-0.114239 -0.01659,-0.620513 -0.0079,-0.750223 0.04898,-0.728649 0.249479,-1.367585 0.563079,-1.79437 0.0626,-0.08522 0.10582,-0.134275 0.18079,-0.205309 0.0969,-0.09183 0.18013,-0.15015 0.28058,-0.196658 0.11422,-0.05288 0.19969,-0.07225 0.31865,-0.07222 0.11943,3.3e-5 0.20923,0.02102 0.33729,0.07883 0.38611,0.174301 0.77976,0.623026 1.04238,1.188217 0.16441,0.353863 0.27536,0.745323 0.31731,1.119655 0.0156,0.13906 0.0201,0.251243 0.0172,0.43093 -0.004,0.229851 -0.0213,0.388372 -0.066,0.592998 l -0.0192,0.08773 -0.0972,0.03076 c -0.33147,0.104887 -0.66321,0.166532 -1.0904,0.202623 -0.10851,0.0092 -0.64513,0.0138 -0.75934,0.0065 z"
                 style="opacity:1;vector-effect:none;fill:#ffffff;fill-opacity:1;stroke:#000000;stroke-width:0.04;stroke-linecap:butt;stroke-linejoin:miter;stroke-miterlimit:4;stroke-dasharray:none;stroke-dashoffset:0;stroke-opacity:1" />
              <path
                 style="fill:none;stroke:#a0a0a0;stroke-width:0.16500001;stroke-linecap:butt;stroke-linejoin:miter;stroke-miterlimit:4;stroke-dasharray:none;stroke-opacity:1"
                 d="M 55.136684,96.623599 67.27858,82.761914"
                 id="path5591"
                 inkscape:connector-curvature="0" />
              <path
                 style="fill:#7e062c;fill-opacity:1;stroke:#9a9a9a;stroke-width:0.26458332px;stroke-linecap:butt;stroke-linejoin:miter;stroke-opacity:1"
                 d="M 67.27858,82.761912 80.22596,67.980083"
                 id="path5593"
                 inkscape:connector-curvature="0" />
            </g>
          </g>
        </g>
      </g>
    </g>
    <path
       style="opacity:1;vector-effect:none;fill:#000000;fill-opacity:1;stroke:#000000;stroke-width:0.07234871;stroke-linecap:butt;stroke-linejoin:miter;stroke-miterlimit:4;stroke-dasharray:none;stroke-dashoffset:0;stroke-opacity:1"
       d="m 120.0144,-17.288458 c -1.43978,-0.394458 -2.90781,-1.003871 -3.86965,-1.606314 -0.59891,-0.375146 -1.29046,-0.96579 -1.65547,-1.413942 -0.25146,-0.308736 -0.57269,-0.922781 -0.65778,-1.257352 -0.0603,-0.237189 -0.0666,-0.4017 -0.0447,-1.170098 0.0411,-1.453199 0.26364,-2.702122 0.71066,-3.989227 1.66374,-4.790281 5.89762,-8.229399 10.87152,-8.830783 0.61301,-0.07411 0.62991,-0.07242 0.33272,0.03338 -1.43003,0.508071 -2.63441,1.68441 -3.65498,3.569935 -1.11566,2.061189 -1.75902,4.406116 -2.06081,7.511285 -0.0817,0.839985 -0.0684,3.495881 0.022,4.378436 0.10242,1.000896 0.31058,2.373689 0.42213,2.783699 0.0288,0.106263 0.003,0.1057 -0.41546,-0.0087 z"
       id="path5121-4"
       inkscape:connector-curvature="0" />
    <path
       style="opacity:1;vector-effect:none;fill:#000000;fill-opacity:1;stroke:#000000;stroke-width:0.07234871;stroke-linecap:butt;stroke-linejoin:miter;stroke-miterlimit:4;stroke-dasharray:none;stroke-dashoffset:0;stroke-opacity:1"
       d="m 135.35621,-17.788568 c 0.12496,-0.373502 0.32779,-1.702503 0.396,-2.595494 0.0588,-0.768722 0.0283,-2.212388 -0.0634,-3.00074 -0.46734,-4.022709 -2.32324,-8.000062 -4.84977,-10.39349 -0.94323,-0.89354 -1.90274,-1.501833 -2.78362,-1.764708 -0.2208,-0.0659 -0.22219,-0.06718 -0.0737,-0.06918 0.0832,-0.0011 0.36866,0.02414 0.6343,0.05598 2.20291,0.264667 4.44588,1.164859 6.29476,2.526378 0.58078,0.427689 1.65456,1.427266 2.14149,1.993493 2.01389,2.341886 3.14987,5.219645 3.26623,8.274324 0.0191,0.495641 0.0102,0.710667 -0.0385,0.944914 -0.3265,1.577612 -2.04643,3.034601 -4.749,4.022941 -0.1851,0.0677 -0.19594,0.06806 -0.17504,0.0056 z"
       id="path5125-6"
       inkscape:connector-curvature="0" />
    <path
       style="fill:#000000;fill-opacity:1;stroke:#070707;stroke-width:1.02723527;stroke-linecap:butt;stroke-linejoin:miter;stroke-miterlimit:4;stroke-dasharray:none;stroke-opacity:1;marker-end:url(#marker1898)"
       d="M 34.203735,65.459879 52.911951,44.10099"
       id="path5593-8"
       inkscape:connector-curvature="0" />
    <path
       inkscape:connector-curvature="0"
       id="path2630"
       d="M 135.10554,63.93106 V 41.896051"
       style="fill:none;stroke:#000000;stroke-width:0.50651813px;stroke-linecap:butt;stroke-linejoin:miter;stroke-opacity:1;marker-start:url(#marker2642)" />
    <path
       inkscape:connector-curvature="0"
       id="path2630-7"
       d="M -9.3323368,136.21878 V 114.18376"
       style="fill:none;stroke:#000000;stroke-width:0.77042651;stroke-linecap:butt;stroke-linejoin:miter;stroke-miterlimit:4;stroke-dasharray:none;stroke-opacity:1;marker-end:url(#marker3218)" />
    <path
       inkscape:connector-curvature="0"
       id="path2630-7-4"
       d="m -9.3148176,136.17416 -12.9084704,9.98568"
       style="fill:none;stroke:#000000;stroke-width:0.82178819;stroke-linecap:butt;stroke-linejoin:miter;stroke-miterlimit:4;stroke-dasharray:none;stroke-opacity:1;marker-end:url(#marker3234)" />
    <path
       inkscape:connector-curvature="0"
       id="path3192"
       d="m -9.3275601,136.22543 21.2906791,1.27818"
       style="fill:none;stroke:#000000;stroke-width:0.71906471;stroke-linecap:butt;stroke-linejoin:miter;stroke-miterlimit:4;stroke-dasharray:none;stroke-opacity:1;marker-end:url(#marker3210)" />
    <path
       inkscape:connector-curvature="0"
       id="path3608-3"
       d="m 139.01598,-22.605987 38.13514,-1.2037"
       style="fill:none;stroke:#000000;stroke-width:0.51361763;stroke-linecap:butt;stroke-linejoin:miter;stroke-miterlimit:4;stroke-dasharray:none;stroke-dashoffset:0;stroke-opacity:1;marker-end:url(#marker3635)" />
    <path
       sodipodi:open="true"
       d="m -7.6904299,136.13685 a 1.6248161,1.6248161 0 0 1 -1.5848778,1.66165 1.6248161,1.6248161 0 0 1 -1.6637903,-1.58263 1.6248161,1.6248161 0 0 1 1.5803843,-1.66593 1.6248161,1.6248161 0 0 1 1.6680585,1.57813"
       sodipodi:end="6.2548156"
       sodipodi:start="6.2602168"
       sodipodi:ry="1.6248161"
       sodipodi:rx="1.6248161"
       sodipodi:cy="136.17416"
       sodipodi:cx="-9.3148174"
       sodipodi:type="arc"
       id="path3645-7"
       style="fill:#000000;fill-opacity:1;fill-rule:evenodd;stroke:#000000;stroke-width:0.03202561;stroke-opacity:1" />
    <g
       ns0:jacobian_sqrt="0.246944"
       inkscapeversion="0.92.3"
       ns0:alignment="middle center"
       ns0:scale="0.7"
       ns0:preamble="C:\\Users\\shadylady\\AppData\\Roaming\\inkscape\\extensions\\default_packages.tex"
       ns0:text="$x$"
       ns0:pdfconverter="pstoedit"
       ns0:texconverter="pdflatex"
       ns0:version="0.8.0"
       word-spacing="normal"
       letter-spacing="normal"
       font-size-adjust="none"
       font-stretch="normal"
       font-weight="normal"
       font-variant="normal"
       font-style="normal"
       stroke-miterlimit="10.433"
       xml:space="preserve"
       transform="matrix(1.268348,0,0,-1.268348,-217.33624,975.95861)"
       id="g5831"
       style="font-style:normal;font-variant:normal;font-weight:normal;font-stretch:normal;letter-spacing:normal;word-spacing:normal;text-anchor:start;fill:none;fill-opacity:1;fill-rule:evenodd;stroke:#000000;stroke-linecap:butt;stroke-linejoin:miter;stroke-miterlimit:10.43299961;stroke-dasharray:none;stroke-dashoffset:0;stroke-opacity:1">
<path
   id="path5829"
   d="m 152.04,660.23 0.01,0.03 0.01,0.03 v 0.03 l 0.01,0.04 0.01,0.04 0.02,0.04 0.01,0.04 0.01,0.05 0.02,0.04 0.02,0.05 0.02,0.05 0.02,0.05 0.02,0.05 0.02,0.05 0.03,0.05 0.03,0.05 0.03,0.05 0.03,0.04 0.03,0.05 0.04,0.04 0.03,0.05 0.04,0.04 0.05,0.04 0.04,0.03 0.05,0.03 0.04,0.03 0.03,0.01 0.03,0.02 0.02,0.01 0.03,0.01 0.03,0.01 h 0.03 l 0.02,0.01 0.03,0.01 h 0.03 0.04 l 0.03,0.01 h 0.03 c 0.05,0 0.29,0 0.5,-0.13 -0.28,-0.05 -0.48,-0.3 -0.48,-0.54 0,-0.16 0.11,-0.35 0.38,-0.35 0.22,0 0.54,0.18 0.54,0.58 0,0.52 -0.59,0.66 -0.93,0.66 -0.58,0 -0.93,-0.53 -1.05,-0.76 -0.25,0.66 -0.78,0.76 -1.07,0.76 -1.04,0 -1.61,-1.29 -1.61,-1.53 0,-0.1 0.1,-0.1 0.12,-0.1 0.08,0 0.11,0.02 0.13,0.11 0.34,1.05 1,1.3 1.34,1.3 0.19,0 0.53,-0.09 0.53,-0.67 0,-0.31 -0.17,-0.97 -0.53,-2.36 -0.16,-0.62 -0.51,-1.04 -0.95,-1.04 -0.06,0 -0.29,0 -0.5,0.13 0.25,0.05 0.47,0.26 0.47,0.54 0,0.27 -0.22,0.35 -0.37,0.35 -0.3,0 -0.55,-0.26 -0.55,-0.58 0,-0.46 0.5,-0.65 0.94,-0.65 0.66,0 1.02,0.69 1.05,0.75 0.11,-0.37 0.47,-0.75 1.07,-0.75 1.03,0 1.6,1.28 1.6,1.53 0,0.1 -0.09,0.1 -0.12,0.1 -0.09,0 -0.11,-0.04 -0.13,-0.11 -0.33,-1.07 -1.01,-1.31 -1.33,-1.31 -0.39,0 -0.55,0.32 -0.55,0.66 0,0.22 0.06,0.44 0.17,0.87 z"
   inkscape:connector-curvature="0"
   style="fill:#000000;stroke-width:0" />
</g>    <g
       id="g8675"
       transform="matrix(1.268348,0,0,-1.268348,-213.53,967.89522)"
       xml:space="preserve"
       stroke-miterlimit="10.433"
       font-style="normal"
       font-variant="normal"
       font-weight="normal"
       font-stretch="normal"
       font-size-adjust="none"
       letter-spacing="normal"
       word-spacing="normal"
       ns0:version="0.8.0"
       ns0:texconverter="pdflatex"
       ns0:pdfconverter="pstoedit"
       ns0:text="$\\boldsymbol{O}$"
       ns0:preamble="C:\\Users\\shadylady\\AppData\\Roaming\\inkscape\\extensions\\default_packages.tex"
       ns0:scale="0.7"
       ns0:alignment="middle center"
       inkscapeversion="0.92.3"
       ns0:jacobian_sqrt="0.246944"
       style="font-style:normal;font-variant:normal;font-weight:normal;font-stretch:normal;letter-spacing:normal;word-spacing:normal;text-anchor:start;fill:none;fill-opacity:1;fill-rule:evenodd;stroke:#000000;stroke-linecap:butt;stroke-linejoin:miter;stroke-miterlimit:10.43299961;stroke-dasharray:none;stroke-dashoffset:0;stroke-opacity:1">
<path
   d="m 156.84,661.66 v 0.15 l -0.01,0.15 -0.02,0.15 -0.02,0.14 -0.03,0.14 -0.04,0.13 -0.04,0.13 -0.05,0.12 -0.06,0.12 -0.06,0.11 -0.06,0.11 -0.07,0.1 -0.08,0.1 -0.08,0.09 -0.09,0.09 -0.09,0.08 -0.1,0.08 -0.11,0.07 -0.1,0.07 -0.12,0.06 -0.11,0.06 -0.13,0.05 -0.12,0.05 -0.13,0.05 -0.14,0.03 -0.13,0.04 -0.15,0.03 -0.14,0.02 -0.15,0.02 -0.16,0.01 -0.15,0.01 h -0.16 l -0.1,-0.4 c 0.82,0 1.64,-0.45 1.64,-1.71 0,-0.64 -0.36,-2.38 -1,-3.32 -0.75,-1.09 -1.66,-1.31 -2.23,-1.31 v 0 c -0.33,0 -0.79,0.07 -1.16,0.46 -0.44,0.44 -0.44,1.1 -0.44,1.33 0,0.63 0.3,2.49 1.11,3.51 0.67,0.81 1.5,1.04 2.08,1.04 l 0.1,0.4 c -3.08,0 -4.7,-2.63 -4.7,-4.62 0,-1.74 1.25,-2.53 2.91,-2.53 3.06,0 4.69,2.54 4.69,4.59 z"
   style="fill:#000000;fill-opacity:1;stroke:#000000;stroke-width:0;stroke-opacity:1"
   id="path8673"
   inkscape:connector-curvature="0" />
</g>    <g
       style="font-style:normal;font-variant:normal;font-weight:normal;font-stretch:normal;letter-spacing:normal;word-spacing:normal;text-anchor:start;fill:none;fill-opacity:1;fill-rule:evenodd;stroke:#000000;stroke-linecap:butt;stroke-linejoin:miter;stroke-miterlimit:10.43299961;stroke-dasharray:none;stroke-dashoffset:0;stroke-opacity:1"
       id="g9243"
       transform="matrix(1.449542,0,0,-1.449542,-114.50967,924.82156)"
       xml:space="preserve"
       stroke-miterlimit="10.433"
       font-style="normal"
       font-variant="normal"
       font-weight="normal"
       font-stretch="normal"
       font-size-adjust="none"
       letter-spacing="normal"
       word-spacing="normal"
       ns0:version="0.8.0"
       ns0:texconverter="pdflatex"
       ns0:pdfconverter="pstoedit"
       ns0:text="$m$"
       ns0:preamble="C:\\Users\\shadylady\\AppData\\Roaming\\inkscape\\extensions\\default_packages.tex"
       ns0:scale="0.8"
       ns0:alignment="middle center"
       inkscapeversion="0.92.3"
       ns0:jacobian_sqrt="0.282222">
<path
   style="fill:#000000;stroke-width:0"
   inkscape:connector-curvature="0"
   d="m 149.59,657.82 v -0.01 l -0.01,-0.02 v -0.01 -0.02 l -0.01,-0.03 -0.01,-0.03 v -0.03 l -0.01,-0.04 -0.01,-0.03 -0.01,-0.03 v -0.01 -0.02 l -0.01,-0.01 v -0.02 -0.01 l -0.01,-0.01 v -0.02 -0.01 -0.01 -0.01 l -0.01,-0.01 v -0.01 -0.01 0 -0.01 -0.01 c 0,-0.17 0.14,-0.26 0.29,-0.26 0.12,0 0.3,0.08 0.37,0.27 0.01,0.02 0.13,0.49 0.19,0.74 l 0.22,0.89 c 0.06,0.22 0.12,0.44 0.17,0.67 0.04,0.17 0.12,0.46 0.13,0.5 0.15,0.3 0.67,1.21 1.62,1.21 0.45,0 0.54,-0.37 0.54,-0.7 0,-0.25 -0.07,-0.53 -0.15,-0.82 l -0.28,-1.16 -0.2,-0.75 c -0.04,-0.2 -0.13,-0.54 -0.13,-0.59 0,-0.17 0.14,-0.26 0.29,-0.26 0.31,0 0.37,0.24 0.45,0.56 0.14,0.56 0.51,2.01 0.6,2.4 0.03,0.13 0.56,1.32 1.64,1.32 0.43,0 0.54,-0.34 0.54,-0.7 0,-0.56 -0.42,-1.7 -0.62,-2.22 -0.09,-0.24 -0.13,-0.35 -0.13,-0.55 0,-0.47 0.35,-0.81 0.82,-0.81 0.94,0 1.31,1.45 1.31,1.53 0,0.1 -0.09,0.1 -0.12,0.1 -0.1,0 -0.1,-0.04 -0.15,-0.18 -0.15,-0.53 -0.47,-1.24 -1.02,-1.24 -0.17,0 -0.24,0.1 -0.24,0.33 0,0.25 0.09,0.49 0.18,0.71 0.19,0.51 0.61,1.62 0.61,2.18 0,0.65 -0.4,1.07 -1.15,1.07 -0.74,0 -1.25,-0.44 -1.62,-0.97 -0.01,0.13 -0.04,0.47 -0.32,0.71 -0.25,0.21 -0.57,0.26 -0.82,0.26 -0.9,0 -1.39,-0.64 -1.55,-0.87 -0.05,0.57 -0.47,0.87 -0.92,0.87 -0.46,0 -0.65,-0.39 -0.74,-0.57 -0.18,-0.35 -0.31,-0.93 -0.31,-0.96 0,-0.1 0.1,-0.1 0.12,-0.1 0.1,0 0.11,0.01 0.17,0.22 0.17,0.71 0.37,1.19 0.73,1.19 0.16,0 0.31,-0.08 0.31,-0.46 0,-0.21 -0.03,-0.32 -0.16,-0.83 z"
   id="path9241" />
</g>    <g
       id="g6362"
       transform="matrix(1.268348,0,0,-1.268348,-182.23116,965.55343)"
       xml:space="preserve"
       stroke-miterlimit="10.433"
       font-style="normal"
       font-variant="normal"
       font-weight="normal"
       font-stretch="normal"
       font-size-adjust="none"
       letter-spacing="normal"
       word-spacing="normal"
       ns0:version="0.8.0"
       ns0:texconverter="pdflatex"
       ns0:pdfconverter="pstoedit"
       ns0:text="$y$"
       ns0:preamble="C:\\Users\\shadylady\\AppData\\Roaming\\inkscape\\extensions\\default_packages.tex"
       ns0:scale="0.7"
       ns0:alignment="middle center"
       inkscapeversion="0.92.3"
       ns0:jacobian_sqrt="0.246944"
       style="font-style:normal;font-variant:normal;font-weight:normal;font-stretch:normal;letter-spacing:normal;word-spacing:normal;text-anchor:start;fill:none;fill-opacity:1;fill-rule:evenodd;stroke:#000000;stroke-linecap:butt;stroke-linejoin:miter;stroke-miterlimit:10.43299961;stroke-dasharray:none;stroke-dashoffset:0;stroke-opacity:1">
<path
   d="m 153.56,661.02 v 0.01 0 0.01 h 0.01 v 0.02 0.01 0.01 l 0.01,0.01 v 0.01 0 0.01 l 0.01,0.01 v 0.01 0.01 0 0.01 0 0.01 0.01 0 l 0.01,0.01 v 0 0.01 0.01 0.01 0.01 0.01 0.01 0 0.01 c 0,0.18 -0.14,0.27 -0.29,0.27 -0.1,0 -0.26,-0.06 -0.35,-0.21 -0.02,-0.05 -0.1,-0.36 -0.14,-0.54 -0.07,-0.26 -0.14,-0.53 -0.2,-0.79 l -0.45,-1.79 c -0.04,-0.15 -0.47,-0.85 -1.13,-0.85 -0.5,0 -0.61,0.44 -0.61,0.81 0,0.46 0.17,1.07 0.51,1.95 0.16,0.4 0.19,0.51 0.19,0.71 0,0.45 -0.31,0.82 -0.81,0.82 -0.95,0 -1.32,-1.45 -1.32,-1.53 0,-0.1 0.1,-0.1 0.12,-0.1 0.1,0 0.11,0.02 0.16,0.17 0.27,0.94 0.67,1.24 1.01,1.24 0.08,0 0.25,0 0.25,-0.32 0,-0.25 -0.1,-0.51 -0.17,-0.7 -0.4,-1.05 -0.58,-1.61 -0.58,-2.08 0,-0.89 0.63,-1.18 1.22,-1.18 0.39,0 0.72,0.16 1,0.44 -0.13,-0.51 -0.25,-1 -0.64,-1.53 -0.27,-0.33 -0.64,-0.62 -1.1,-0.62 -0.14,0 -0.59,0.03 -0.76,0.41 0.16,0 0.29,0 0.43,0.12 0.1,0.09 0.2,0.22 0.2,0.41 0,0.31 -0.27,0.35 -0.37,0.35 -0.23,0 -0.56,-0.16 -0.56,-0.65 0,-0.49 0.44,-0.86 1.06,-0.86 1.02,0 2.05,0.9 2.33,2.02 z"
   id="path6360"
   inkscape:connector-curvature="0"
   style="fill:#000000;stroke-width:0" />
</g>    <g
       ns0:jacobian_sqrt="0.246944"
       inkscapeversion="0.92.3"
       ns0:alignment="middle center"
       ns0:scale="0.7"
       ns0:preamble="C:\\Users\\shadylady\\AppData\\Roaming\\inkscape\\extensions\\default_packages.tex"
       ns0:text="$z$"
       ns0:pdfconverter="pstoedit"
       ns0:texconverter="pdflatex"
       ns0:version="0.8.0"
       word-spacing="normal"
       letter-spacing="normal"
       font-size-adjust="none"
       font-stretch="normal"
       font-weight="normal"
       font-variant="normal"
       font-style="normal"
       stroke-miterlimit="10.433"
       xml:space="preserve"
       transform="matrix(1.268348,0,0,-1.268348,-193.44314,951.52998)"
       id="g6632"
       style="font-style:normal;font-variant:normal;font-weight:normal;font-stretch:normal;letter-spacing:normal;word-spacing:normal;text-anchor:start;fill:none;fill-opacity:1;fill-rule:evenodd;stroke:#000000;stroke-linecap:butt;stroke-linejoin:miter;stroke-miterlimit:10.43299961;stroke-dasharray:none;stroke-dashoffset:0;stroke-opacity:1">
<path
   id="path6630"
   d="m 150.04,658.06 0.05,0.05 0.05,0.05 0.04,0.05 0.05,0.05 0.04,0.05 0.05,0.04 0.04,0.04 0.04,0.05 0.04,0.04 0.04,0.04 0.04,0.03 0.04,0.04 0.03,0.04 0.04,0.03 0.07,0.07 0.07,0.06 0.06,0.06 0.07,0.06 0.06,0.06 0.13,0.11 0.07,0.05 0.07,0.06 c 0,0.01 0.61,0.54 0.97,0.9 0.95,0.92 1.17,1.4 1.17,1.44 0,0.1 -0.09,0.1 -0.11,0.1 -0.07,0 -0.1,-0.02 -0.15,-0.11 -0.3,-0.48 -0.51,-0.64 -0.75,-0.64 -0.24,0 -0.36,0.15 -0.51,0.32 -0.19,0.23 -0.36,0.43 -0.69,0.43 -0.74,0 -1.2,-0.93 -1.2,-1.14 0,-0.05 0.03,-0.11 0.12,-0.11 0.09,0 0.11,0.05 0.13,0.11 0.19,0.46 0.77,0.47 0.84,0.47 0.21,0 0.4,-0.07 0.63,-0.15 0.4,-0.15 0.51,-0.15 0.77,-0.15 -0.36,-0.43 -1.19,-1.14 -1.38,-1.3 l -0.9,-0.83 c -0.68,-0.67 -1.03,-1.24 -1.03,-1.31 0,-0.09 0.1,-0.09 0.12,-0.09 0.08,0 0.1,0.02 0.16,0.13 0.23,0.34 0.53,0.61 0.85,0.61 0.23,0 0.33,-0.09 0.58,-0.38 0.17,-0.21 0.35,-0.36 0.63,-0.36 0.99,0 1.57,1.26 1.57,1.53 0,0.05 -0.04,0.1 -0.12,0.1 -0.09,0 -0.11,-0.06 -0.14,-0.13 -0.23,-0.65 -0.87,-0.84 -1.2,-0.84 -0.19,0 -0.38,0.06 -0.58,0.13 -0.34,0.13 -0.49,0.17 -0.7,0.17 -0.02,0 -0.18,0 -0.27,-0.03 z"
   inkscape:connector-curvature="0"
   style="fill:#000000;stroke-width:0" />
</g>    <g
       style="font-style:normal;font-variant:normal;font-weight:normal;font-stretch:normal;letter-spacing:normal;word-spacing:normal;text-anchor:start;fill:none;fill-opacity:1;fill-rule:evenodd;stroke:#000000;stroke-linecap:butt;stroke-linejoin:miter;stroke-miterlimit:10.43299961;stroke-dasharray:none;stroke-dashoffset:0;stroke-opacity:1"
       id="g4410"
       transform="matrix(1.3292981,0,0,-1.3292981,-177.3384,924.41648)"
       xml:space="preserve"
       stroke-miterlimit="10.433"
       font-style="normal"
       font-variant="normal"
       font-weight="normal"
       font-stretch="normal"
       font-size-adjust="none"
       letter-spacing="normal"
       word-spacing="normal"
       ns0:version="0.8.0"
       ns0:texconverter="pdflatex"
       ns0:pdfconverter="pstoedit"
       ns0:text="$\\mathbf{F}_{gr}$"
       ns0:preamble="C:\\Users\\shadylady\\AppData\\Roaming\\inkscape\\extensions\\default_packages.tex"
       ns0:scale="0.7"
       ns0:alignment="middle center"
       inkscapeversion="0.92.3"
       ns0:jacobian_sqrt="0.246944">
<path
   style="fill:#000000;stroke-width:0"
   inkscape:connector-curvature="0"
   d="m 155.13,663.99 h -6.03 v -0.47 h 1.08 v -5.82 h -1.08 v -0.47 c 0.38,0.04 1.39,0.04 1.83,0.04 0.48,0 1.57,0 2.01,-0.04 v 0.47 h -1.35 v 2.68 h 0.5 c 0.96,0 1.05,-0.42 1.05,-1.16 h 0.47 v 2.79 h -0.47 c 0,-0.73 -0.08,-1.16 -1.05,-1.16 h -0.5 v 2.67 h 1.4 c 1.61,0 1.83,-0.76 1.99,-1.92 h 0.46 z"
   id="path8286" />
<path
   style="fill:#000000;stroke-width:0"
   inkscape:connector-curvature="0"
   d="m 159.64,658.31 v 0.01 l 0.01,0.01 v 0 0.01 0.01 0.01 l 0.01,0.01 v 0 0.01 0.01 0 0.01 0 0.01 0 l 0.01,0.01 v 0 0 0.01 0 0 0.01 0 0 0 0.01 0 0 0 0 0 0 c 0,0.16 -0.13,0.22 -0.24,0.22 -0.16,0 -0.29,-0.13 -0.32,-0.26 -0.12,0.19 -0.36,0.4 -0.72,0.4 v -0.2 c 0.49,0 0.62,-0.52 0.62,-0.59 0,-0.01 0,-0.03 -0.02,-0.1 l -0.31,-1.25 c -0.03,-0.11 -0.03,-0.12 -0.15,-0.26 -0.25,-0.29 -0.58,-0.47 -0.85,-0.47 -0.35,0 -0.52,0.29 -0.52,0.66 0,0.3 0.19,1.08 0.37,1.39 0.29,0.48 0.62,0.62 0.86,0.62 v 0.2 c -0.88,0 -1.79,-0.93 -1.79,-1.93 0,-0.72 0.49,-1.14 1.06,-1.14 0.32,0 0.63,0.16 0.88,0.38 l -0.16,-0.63 c -0.08,-0.29 -0.12,-0.48 -0.39,-0.72 -0.31,-0.25 -0.61,-0.25 -0.78,-0.25 -0.32,0 -0.42,0.02 -0.54,0.05 0.17,0.08 0.22,0.25 0.22,0.34 0,0.17 -0.13,0.26 -0.27,0.26 -0.2,0 -0.4,-0.16 -0.4,-0.42 0,-0.42 0.6,-0.43 0.99,-0.43 1.1,0 1.57,0.56 1.67,0.96 z"
   id="path8288" />
<path
   style="fill:#000000;stroke-width:0"
   inkscape:connector-curvature="0"
   d="m 161.7,657.15 v 0 0 0.01 h 0.01 v 0.01 0 0.01 0.01 0 l 0.01,0.01 v 0.01 0.01 0.01 l 0.01,0.01 v 0.03 l 0.01,0.02 v 0.03 l 0.01,0.03 0.01,0.03 0.01,0.03 v 0.03 l 0.02,0.06 0.02,0.06 v 0.03 l 0.01,0.03 0.01,0.03 0.01,0.03 v 0.02 l 0.01,0.03 0.01,0.02 v 0.01 0.01 0.01 l 0.01,0.01 v 0.01 0.01 0.01 h 0.01 v 0.01 0 0.01 0 0.01 0 c 0.02,0.05 0.22,0.4 0.44,0.57 0.08,0.05 0.27,0.19 0.57,0.19 0.07,0 0.24,0 0.38,-0.09 -0.22,-0.07 -0.3,-0.26 -0.3,-0.39 0,-0.15 0.12,-0.25 0.28,-0.25 0.16,0 0.39,0.13 0.39,0.42 0,0.36 -0.39,0.51 -0.74,0.51 -0.37,0 -0.68,-0.15 -0.99,-0.5 -0.12,0.43 -0.55,0.5 -0.72,0.5 -0.26,0 -0.43,-0.16 -0.54,-0.36 -0.16,-0.27 -0.26,-0.67 -0.26,-0.71 0,-0.09 0.1,-0.09 0.12,-0.09 0.09,0 0.1,0.02 0.15,0.21 0.1,0.43 0.24,0.75 0.51,0.75 0.18,0 0.23,-0.15 0.23,-0.34 0,-0.13 -0.06,-0.39 -0.11,-0.57 -0.05,-0.19 -0.12,-0.48 -0.16,-0.63 l -0.22,-0.89 c -0.03,-0.09 -0.07,-0.27 -0.07,-0.29 0,-0.15 0.13,-0.22 0.24,-0.22 0.1,0 0.24,0.06 0.3,0.2 0.01,0.04 0.09,0.35 0.13,0.53 z"
   id="path8290" />
</g>    <g
       style="stroke:#000000;stroke-opacity:1;fill-opacity:1"
       ns0:jacobian_sqrt="1.268348"
       inkscapeversion="0.92.3"
       ns0:alignment="middle center"
       ns0:scale="3.59532363613"
       ns0:preamble="C:\\Users\\shadylady\\AppData\\Roaming\\inkscape\\extensions\\default_packages.tex"
       ns0:text="$z$"
       ns0:pdfconverter="pstoedit"
       ns0:texconverter="pdflatex"
       ns0:version="0.8.0"
       text-anchor="start"
       word-spacing="normal"
       letter-spacing="normal"
       font-size-adjust="none"
       font-stretch="normal"
       font-weight="normal"
       font-variant="normal"
       font-style="normal"
       fill-opacity="1"
       fill-rule="evenodd"
       fill="none"
       stroke-opacity="1"
       stroke-dashoffset="0"
       stroke-dasharray="none"
       stroke-miterlimit="10.433"
       stroke-linejoin="miter"
       stroke-linecap="butt"
       stroke="black"
       xml:space="preserve"
       transform="matrix(1.268348,0.000000,0.000000,-1.268348,-1.245624,886.442661)"
       id="content">
<path
   id="path1244"
   style="stroke:#000000;stroke-opacity:1;fill-opacity:1"
   fill="black"
   stroke-width="0"
   d="M150.04,658.06 L150.09,658.11 L150.14,658.16 L150.18,658.21 L150.23,658.26 L150.27,658.31 L150.32,658.35 L150.36,658.39 L150.4,658.44 L150.44,658.48 L150.48,658.52 L150.52,658.55 L150.56,658.59 L150.59,658.63 L150.63,658.66 L150.7,658.73 L150.77,658.79 L150.83,658.85 L150.9,658.91 L150.96,658.97 L151.09,659.08 L151.16,659.13 L151.23,659.19 C151.23,659.2,151.84,659.73,152.2,660.09 C153.15,661.01,153.37,661.49,153.37,661.53 C153.37,661.63,153.28,661.63,153.26,661.63 C153.19,661.63,153.16,661.61,153.11,661.52 C152.81,661.04,152.6,660.88,152.36,660.88 C152.12,660.88,152,661.03,151.85,661.2 C151.66,661.43,151.49,661.63,151.16,661.63 C150.42,661.63,149.96,660.7,149.96,660.49 C149.96,660.44,149.99,660.38,150.08,660.38 C150.17,660.38,150.19,660.43,150.21,660.49 C150.4,660.95,150.98,660.96,151.05,660.96 C151.26,660.96,151.45,660.89,151.68,660.81 C152.08,660.66,152.19,660.66,152.45,660.66 C152.09,660.23,151.26,659.52,151.07,659.36 L150.17,658.53 C149.49,657.86,149.14,657.29,149.14,657.22 C149.14,657.13,149.24,657.13,149.26,657.13 C149.34,657.13,149.36,657.15,149.42,657.26 C149.65,657.6,149.95,657.87,150.27,657.87 C150.5,657.87,150.6,657.78,150.85,657.49 C151.02,657.28,151.2,657.13,151.48,657.13 C152.47,657.13,153.05,658.39,153.05,658.66 C153.05,658.71,153.01,658.76,152.93,658.76 C152.84,658.76,152.82,658.7,152.79,658.63 C152.56,657.98,151.92,657.79,151.59,657.79 C151.4,657.79,151.21,657.85,151.01,657.92 C150.67,658.05,150.52,658.09,150.31,658.09 C150.29,658.09,150.13,658.09,150.04,658.06 Z " />
</g>    <g
       id="g1787"
       transform="matrix(1.3445354,0,0,-1.3445354,-58.129834,936.53682)"
       xml:space="preserve"
       stroke-miterlimit="10.433"
       font-style="normal"
       font-variant="normal"
       font-weight="normal"
       font-stretch="normal"
       font-size-adjust="none"
       letter-spacing="normal"
       word-spacing="normal"
       ns0:version="0.8.0"
       ns0:texconverter="pdflatex"
       ns0:pdfconverter="pstoedit"
       ns0:text="$\\mathbf{g}$"
       ns0:preamble="C:\\Users\\shadylady\\AppData\\Roaming\\inkscape\\extensions\\default_packages.tex"
       ns0:scale="8.61590769567"
       ns0:alignment="middle center"
       inkscapeversion="0.92.3"
       ns0:jacobian_sqrt="3.039495"
       style="font-style:normal;font-variant:normal;font-weight:normal;font-stretch:normal;letter-spacing:normal;word-spacing:normal;text-anchor:start;fill:none;fill-opacity:1;fill-rule:evenodd;stroke:#000000;stroke-linecap:butt;stroke-linejoin:miter;stroke-miterlimit:10.43299961;stroke-dasharray:none;stroke-dashoffset:0;stroke-opacity:1">
<path
   inkscape:connector-curvature="0"
   d="m 150.04,659.02 0.04,-0.02 0.04,-0.02 0.05,-0.02 0.04,-0.02 0.05,-0.01 0.04,-0.02 0.04,-0.01 0.05,-0.02 0.04,-0.01 0.04,-0.01 0.05,-0.01 0.04,-0.01 0.08,-0.02 0.09,-0.02 h 0.04 l 0.03,-0.01 h 0.04 l 0.04,-0.01 h 0.04 0.03 l 0.04,-0.01 h 0.03 0.04 0.03 0.03 0.03 0.03 0.03 0.02 0.03 v 0.35 c -0.88,0 -0.88,0.67 -0.88,1.11 0,0.45 0,1.12 0.88,1.12 0.87,0 0.87,-0.67 0.87,-1.12 0,-0.44 0,-1.11 -0.87,-1.11 v 0 -0.35 c 1.43,0 1.98,0.77 1.98,1.46 0,0.47 -0.25,0.8 -0.4,0.96 0.3,0.16 0.51,0.18 0.62,0.19 -0.02,-0.05 -0.04,-0.14 -0.04,-0.2 0,-0.25 0.17,-0.43 0.43,-0.43 0.26,0 0.43,0.19 0.43,0.43 0,0.23 -0.17,0.58 -0.63,0.58 -0.15,0 -0.62,-0.04 -1.06,-0.38 -0.18,0.12 -0.6,0.33 -1.33,0.33 -1.44,0 -1.99,-0.78 -1.99,-1.48 0,-0.4 0.2,-0.81 0.52,-1.04 -0.28,-0.35 -0.34,-0.67 -0.34,-0.88 0,-0.15 0.04,-0.64 0.44,-0.96 -0.13,-0.03 -0.86,-0.23 -0.86,-0.86 0,-0.51 0.55,-1.25 2.54,-1.25 v 0.36 c -1.19,0 -1.68,0.45 -1.68,0.91 0,0.6 0.63,0.6 0.77,0.6 v 0 h 1.16 c 0.31,0 1.44,0 1.44,-0.62 0,-0.36 -0.39,-0.89 -1.69,-0.89 v -0.36 c 1.77,0 2.55,0.58 2.55,1.28 0,0.3 -0.08,0.92 -0.75,1.26 -0.56,0.28 -1.16,0.28 -2.11,0.28 -0.26,0 -0.72,0 -0.77,0.01 -0.44,0.07 -0.55,0.45 -0.55,0.63 0,0.09 0.04,0.24 0.1,0.32 z"
   style="fill:#000000;fill-opacity:1;stroke:#000000;stroke-width:0;stroke-opacity:1"
   id="path1785" />
</g>    <g
       style="stroke:#000000;stroke-opacity:1;fill-opacity:1"
       ns0:jacobian_sqrt="1.268348"
       inkscapeversion="0.92.3"
       ns0:alignment="middle center"
       ns0:scale="3.59532363613"
       ns0:preamble="C:\\Users\\shadylady\\AppData\\Roaming\\inkscape\\extensions\\default_packages.tex"
       ns0:text="$\\ddot{\\mathbf{c}}$"
       ns0:pdfconverter="pstoedit"
       ns0:texconverter="pdflatex"
       ns0:version="0.8.0"
       text-anchor="start"
       word-spacing="normal"
       letter-spacing="normal"
       font-size-adjust="none"
       font-stretch="normal"
       font-weight="normal"
       font-variant="normal"
       font-style="normal"
       fill-opacity="1"
       fill-rule="evenodd"
       fill="none"
       stroke-opacity="1"
       stroke-dashoffset="0"
       stroke-dasharray="none"
       stroke-miterlimit="10.433"
       stroke-linejoin="miter"
       stroke-linecap="butt"
       stroke="black"
       xml:space="preserve"
       transform="matrix(1.268348,0.000000,0.000000,-1.268348,-39.653847,806.597665)"
       id="g1211">
<path
   id="path1205"
   style="stroke:#000000;stroke-opacity:1;fill-opacity:1"
   fill="black"
   stroke-width="0"
   d="M150.79,663.52 L150.79,663.55 L150.79,663.57 L150.79,663.59 L150.78,663.61 L150.78,663.64 L150.77,663.66 L150.76,663.68 L150.76,663.7 L150.75,663.72 L150.74,663.74 L150.73,663.76 L150.71,663.78 L150.7,663.8 L150.69,663.82 L150.67,663.84 L150.66,663.86 L150.64,663.88 L150.62,663.89 L150.6,663.91 L150.58,663.93 L150.56,663.94 L150.54,663.95 L150.52,663.96 L150.5,663.98 L150.47,663.99 L150.45,663.99 L150.43,664 L150.4,664.01 L150.38,664.01 L150.35,664.02 L150.32,664.02 L150.29,664.02 C150.01,664.02,149.79,663.8,149.79,663.52 C149.79,663.24,150.01,663.03,150.29,663.03 C150.59,663.03,150.79,663.28,150.79,663.52 Z " />
<path
   id="path1207"
   style="stroke:#000000;stroke-opacity:1;fill-opacity:1"
   fill="black"
   stroke-width="0"
   d="M152.72,663.52 L152.72,663.55 L152.71,663.57 L152.71,663.6 L152.71,663.62 L152.7,663.65 L152.69,663.67 L152.69,663.7 L152.68,663.72 L152.67,663.74 L152.66,663.76 L152.65,663.78 L152.63,663.8 L152.62,663.82 L152.6,663.84 L152.59,663.86 L152.57,663.88 L152.56,663.89 L152.54,663.91 L152.52,663.92 L152.5,663.94 L152.48,663.95 L152.46,663.96 L152.44,663.97 L152.41,663.98 L152.39,663.99 L152.37,664 L152.34,664 L152.32,664.01 L152.3,664.01 L152.27,664.02 L152.24,664.02 L152.22,664.02 C151.92,664.02,151.72,663.76,151.72,663.52 C151.72,663.28,151.92,663.03,152.22,663.03 C152.5,663.03,152.72,663.24,152.72,663.52 Z " />
<path
   id="path1209"
   style="stroke:#000000;stroke-opacity:1;fill-opacity:1"
   fill="black"
   stroke-width="0"
   d="M152.3,661.28 L152.29,661.26 L152.27,661.25 L152.26,661.23 L152.24,661.22 L152.23,661.2 L152.22,661.18 L152.21,661.17 L152.19,661.15 L152.18,661.14 L152.18,661.12 L152.17,661.1 L152.16,661.09 L152.15,661.07 L152.15,661.06 L152.14,661.04 L152.13,661.02 L152.13,661.01 L152.13,660.99 L152.12,660.98 L152.12,660.96 L152.11,660.95 L152.11,660.93 L152.11,660.92 L152.11,660.91 L152.11,660.9 L152.11,660.88 L152.1,660.87 L152.1,660.86 L152.1,660.85 L152.1,660.84 L152.1,660.83 L152.1,660.82 C152.1,660.38,152.45,660.2,152.72,660.2 C153.03,660.2,153.35,660.4,153.35,660.82 C153.35,661.68,152.19,661.73,151.61,661.73 C149.83,661.73,149.09,660.59,149.09,659.44 C149.09,658.12,150.03,657.17,151.56,657.17 C153.18,657.17,153.48,658.33,153.48,658.4 C153.48,658.54,153.34,658.54,153.24,658.54 C153.06,658.54,153.05,658.52,153,658.39 C152.74,657.76,152.26,657.57,151.75,657.57 C150.37,657.57,150.37,659.03,150.37,659.49 C150.37,660.05,150.37,661.34,151.65,661.34 C152,661.34,152.17,661.31,152.3,661.28 Z " />
</g>  </g>
</svg>
