<?xml version="1.0" encoding="UTF-8" standalone="no"?>
<!-- Created with Inkscape (http://www.inkscape.org/) -->

<svg
   xmlns:ns0="http://www.iki.fi/pav/software/textext/"
   xmlns:dc="http://purl.org/dc/elements/1.1/"
   xmlns:cc="http://creativecommons.org/ns#"
   xmlns:rdf="http://www.w3.org/1999/02/22-rdf-syntax-ns#"
   xmlns:svg="http://www.w3.org/2000/svg"
   xmlns="http://www.w3.org/2000/svg"
   xmlns:sodipodi="http://sodipodi.sourceforge.net/DTD/sodipodi-0.dtd"
   xmlns:inkscape="http://www.inkscape.org/namespaces/inkscape"
   width="212.93866mm"
   height="158.14403mm"
   viewBox="0 0 212.93866 158.14403"
   version="1.1"
   id="svg1408"
   sodipodi:docname="impulsecompare3.svg"
   inkscape:version="0.92.3 (2405546, 2018-03-11)">
  <defs
     id="defs1402" />
  <sodipodi:namedview
     id="base"
     pagecolor="#ffffff"
     bordercolor="#666666"
     borderopacity="1.0"
     inkscape:pageopacity="0.0"
     inkscape:pageshadow="2"
     inkscape:zoom="0.7"
     inkscape:cx="290.08808"
     inkscape:cy="163.49092"
     inkscape:document-units="mm"
     inkscape:current-layer="layer1"
     showgrid="false"
     fit-margin-top="0"
     fit-margin-left="0"
     fit-margin-right="0"
     fit-margin-bottom="0"
     inkscape:window-width="1920"
     inkscape:window-height="1137"
     inkscape:window-x="1912"
     inkscape:window-y="-8"
     inkscape:window-maximized="1" />
  <metadata
     id="metadata1405">
    <rdf:RDF>
      <cc:Work
         rdf:about="">
        <dc:format>image/svg+xml</dc:format>
        <dc:type
           rdf:resource="http://purl.org/dc/dcmitype/StillImage" />
        <dc:title></dc:title>
      </cc:Work>
    </rdf:RDF>
  </metadata>
  <g
     inkscape:label="Layer 1"
     inkscape:groupmode="layer"
     id="layer1"
     transform="translate(64.389066,3.8690405)">
    <g
       transform="matrix(0.35810221,0,0,-0.35810221,-32.921766,87.090314)"
       inkscape:label="ink_ext_XXXXXX"
       id="g1317">
      <g
         transform="scale(0.1)"
         id="g1319">
        <g
           transform="matrix(28.182746,0,0,28.182746,-636.39591,-3090.6126)"
           inkscape:label="ink_ext_XXXXXX"
           id="g1637">
          <g
             transform="scale(0.1)"
             id="g1639">
            <g
               transform="matrix(12.747959,0,0,12.747959,-209.2404,-489.08114)"
               inkscape:label="ink_ext_XXXXXX"
               id="g1914">
              <g
                 transform="matrix(0.1,0,0,0.1,34.161685,1.6869968)"
                 id="g1916">
                <path
                   inkscape:connector-curvature="0"
                   id="path1924"
                   style="fill:none;stroke:#444041;stroke-width:8.04883575;stroke-linecap:square;stroke-linejoin:round;stroke-miterlimit:10;stroke-dasharray:none;stroke-opacity:1"
                   d="M 35.067394,951.90464 H 1406.4456" />
                <path
                   inkscape:connector-curvature="0"
                   id="path1926"
                   style="fill:none;stroke:#444041;stroke-width:8.04883575;stroke-linecap:square;stroke-linejoin:round;stroke-miterlimit:10;stroke-dasharray:none;stroke-opacity:1"
                   d="M 35.067394,1873.0997 H 1406.4456" />
                <path
                   inkscape:connector-curvature="0"
                   id="path1928"
                   style="fill:none;stroke:#444041;stroke-width:8.04883575;stroke-linecap:square;stroke-linejoin:round;stroke-miterlimit:10;stroke-dasharray:none;stroke-opacity:1"
                   d="m 35.067394,951.90464 v 13.45898" />
                <path
                   inkscape:connector-curvature="0"
                   id="path1930"
                   style="fill:none;stroke:#444041;stroke-width:8.04883575;stroke-linecap:square;stroke-linejoin:round;stroke-miterlimit:10;stroke-dasharray:none;stroke-opacity:1"
                   d="m 426.89153,951.90464 v 13.45898" />
                <path
                   inkscape:connector-curvature="0"
                   id="path1932"
                   style="fill:none;stroke:#444041;stroke-width:8.04883575;stroke-linecap:square;stroke-linejoin:round;stroke-miterlimit:10;stroke-dasharray:none;stroke-opacity:1"
                   d="m 818.70758,951.90464 v 13.45898" />
                <path
                   inkscape:connector-curvature="0"
                   id="path1934"
                   style="fill:none;stroke:#444041;stroke-width:8.04883575;stroke-linecap:square;stroke-linejoin:round;stroke-miterlimit:10;stroke-dasharray:none;stroke-opacity:1"
                   d="m 1210.5357,951.90464 v 13.45898" />
                <path
                   inkscape:connector-curvature="0"
                   id="path1936"
                   style="fill:none;stroke:#444041;stroke-width:8.04883575;stroke-linecap:square;stroke-linejoin:round;stroke-miterlimit:10;stroke-dasharray:none;stroke-opacity:1"
                   d="m 35.067394,1873.0997 v -13.4551" />
                <path
                   inkscape:connector-curvature="0"
                   id="path1938"
                   style="fill:none;stroke:#444041;stroke-width:8.04883575;stroke-linecap:square;stroke-linejoin:round;stroke-miterlimit:10;stroke-dasharray:none;stroke-opacity:1"
                   d="m 426.89153,1873.0997 v -13.4551" />
                <path
                   inkscape:connector-curvature="0"
                   id="path1940"
                   style="fill:none;stroke:#444041;stroke-width:8.04883575;stroke-linecap:square;stroke-linejoin:round;stroke-miterlimit:10;stroke-dasharray:none;stroke-opacity:1"
                   d="m 818.70758,1873.0997 v -13.4551" />
                <path
                   inkscape:connector-curvature="0"
                   id="path1942"
                   style="fill:none;stroke:#444041;stroke-width:8.04883575;stroke-linecap:square;stroke-linejoin:round;stroke-miterlimit:10;stroke-dasharray:none;stroke-opacity:1"
                   d="m 1210.5357,1873.0997 v -13.4551" />
                <path
                   inkscape:connector-curvature="0"
                   id="path1944"
                   style="fill:#444041;fill-opacity:1;fill-rule:nonzero;stroke:none;stroke-width:0.80508476"
                   d="m 34.562726,851.32369 c -6.479413,0 -10.875946,2.6169 -13.190428,7.85056 -2.320176,5.23435 -3.482285,11.43706 -3.482285,18.60328 0,4.54542 0.412834,8.79484 1.2385,12.75164 0.828109,3.95988 2.481895,7.32724 4.954843,10.09715 2.476202,2.77321 5.968236,4.15934 10.47937,4.15934 3.48878,0 6.346127,-0.82545 8.567959,-2.47719 2.221835,-1.65103 3.904882,-3.80048 5.047492,-6.44921 1.14261,-2.64788 1.93659,-5.48323 2.383552,-8.50529 0.441281,-3.02515 0.663948,-6.21545 0.663948,-9.57644 0,-4.42732 -0.42909,-8.58665 -1.285645,-12.47804 -0.857355,-3.89762 -2.507889,-7.19968 -4.949147,-9.91372 -2.447755,-2.70695 -5.923544,-4.06208 -10.428159,-4.06208 z m 0,1.96285 c 2.917481,0 5.107614,1.47951 6.56798,4.43921 1.460369,2.95982 2.349425,6.24668 2.663114,9.86361 0.317757,3.61376 0.476223,7.44289 0.476223,11.48978 0,3.86662 -0.158466,7.44936 -0.476223,10.75214 -0.313689,3.29958 -1.187302,6.2904 -2.612727,8.9726 -1.431108,2.67914 -3.637497,4.01905 -6.618367,4.01905 -2.987379,0 -5.209211,-1.35512 -6.669579,-4.06927 -1.457113,-2.70695 -2.349423,-5.69779 -2.669609,-8.97261 -0.317756,-3.26775 -0.476234,-6.83529 -0.476234,-10.70191 0,-2.92541 0.06661,-5.66667 0.196674,-8.22451 0.126778,-2.55146 0.504669,-5.18425 1.139357,-7.89522 0.635514,-2.71333 1.631836,-4.9999 3.000368,-6.86618 1.364477,-1.87278 3.190546,-2.80669 5.479023,-2.80669" />
                <path
                   inkscape:connector-curvature="0"
                   id="path1946"
                   style="fill:#444041;fill-opacity:1;fill-rule:nonzero;stroke:none;stroke-width:0.80508476"
                   d="m 394.77486,851.32369 c -6.4729,0 -10.86945,2.6169 -13.18961,7.85056 -2.31448,5.23435 -3.47334,11.43706 -3.47334,18.60328 0,4.54542 0.41283,8.79484 1.2385,12.75164 0.82161,3.95988 2.4754,7.32724 4.95484,10.09715 2.47296,2.77321 5.96499,4.15934 10.46961,4.15934 3.49529,0 6.35182,-0.82545 8.57772,-2.47719 2.22184,-1.65103 3.90406,-3.80048 5.04423,-6.44921 1.14262,-2.64788 1.9366,-5.48323 2.37788,-8.50529 0.44696,-3.02515 0.66964,-6.21545 0.66964,-9.57644 0,-4.42732 -0.42909,-8.58665 -1.28565,-12.47804 -0.85736,-3.89762 -2.50791,-7.19968 -4.95565,-9.91372 -2.44127,-2.70695 -5.91705,-4.06208 -10.42817,-4.06208 z m 0,1.96285 c 2.92073,0 5.11413,1.47951 6.57774,4.43921 1.45712,2.95982 2.34537,6.24668 2.66312,9.86361 0.31775,3.61376 0.47622,7.44289 0.47622,11.48978 0,3.86662 -0.15847,7.44936 -0.47622,10.75214 -0.31775,3.29958 -1.19056,6.2904 -2.62168,8.9726 -1.42541,2.67914 -3.63182,4.01905 -6.61918,4.01905 -2.98087,0 -5.20269,-1.35512 -6.65982,-4.06927 -1.46362,-2.70695 -2.35593,-5.69779 -2.66961,-8.97261 -0.31776,-3.26775 -0.47623,-6.83529 -0.47623,-10.70191 0,-2.92541 0.0635,-5.66667 0.18692,-8.22451 0.13003,-2.55146 0.51442,-5.18425 1.14587,-7.89522 0.63468,-2.71333 1.63508,-4.9999 3.00037,-6.86618 1.36446,-1.87278 3.18971,-2.80669 5.4725,-2.80669" />
                <path
                   inkscape:connector-curvature="0"
                   id="path1948"
                   style="fill:#444041;fill-opacity:1;fill-rule:nonzero;stroke:none;stroke-width:0.80508476"
                   d="m 422.26907,857.30547 c 0,1.1868 0.44453,2.18377 1.33683,2.99095 0.885,0.80955 1.90084,1.2146 3.04751,1.2146 0.69808,0 1.39292,-0.18661 2.08857,-0.56067 0.69808,-0.37724 1.24093,-0.90361 1.62209,-1.5856 0.38113,-0.68587 0.57129,-1.37092 0.57129,-2.05928 0,-1.11899 -0.42827,-2.11598 -1.28563,-2.99082 -0.85737,-0.87261 -1.85695,-1.30891 -2.99632,-1.30891 -1.14667,0 -2.16251,0.4363 -3.04751,1.30891 -0.8923,0.87484 -1.33683,1.87183 -1.33683,2.99082" />
                <path
                   inkscape:connector-curvature="0"
                   id="path1950"
                   style="fill:#444041;fill-opacity:1;fill-rule:nonzero;stroke:none;stroke-width:0.80508476"
                   d="m 445.50976,853.00574 v 2.71012 c 6.60294,0 9.904,0.8415 9.904,2.52435 v 40.75359 c -2.72976,-1.24902 -6.19009,-1.87195 -10.38021,-1.87195 v 2.71013 c 6.4786,0 11.36761,1.65104 14.66622,4.95368 h 1.14586 c 0.18692,0 0.36164,-0.0625 0.52336,-0.18661 0.15929,-0.12521 0.23813,-0.2807 0.23813,-0.46731 v -45.89153 c 0,-1.68285 3.30186,-2.52435 9.9048,-2.52435 v -2.71012 h -26.00216" />
                <path
                   inkscape:connector-curvature="0"
                   id="path1952"
                   style="fill:#444041;fill-opacity:1;fill-rule:nonzero;stroke:none;stroke-width:0.80508476"
                   d="m 786.599,851.32369 c -6.47691,0 -10.87345,2.6169 -13.18961,7.85056 -2.31615,5.23435 -3.47818,11.43706 -3.47818,18.60328 0,4.54542 0.41438,8.79484 1.24337,12.75164 0.82074,3.95988 2.47047,7.32724 4.94908,10.09715 2.47872,2.77321 5.96504,4.15934 10.47534,4.15934 3.49445,0 6.35501,-0.82545 8.57368,-2.47719 2.21854,-1.65103 3.90895,-3.80048 5.04668,-6.44921 1.14588,-2.64788 1.93409,-5.48323 2.38112,-8.50529 0.43878,-3.02515 0.66631,-6.21545 0.66631,-9.57644 0,-4.42732 -0.43065,-8.58665 -1.28393,-12.47804 -0.86141,-3.89762 -2.51114,-7.19968 -4.95733,-9.91372 -2.43805,-2.70695 -5.91624,-4.06208 -10.42653,-4.06208 z m 0,1.96285 c 2.91751,0 5.11164,1.47951 6.57452,4.43921 1.46276,2.95982 2.34858,6.24668 2.66558,9.86361 0.31688,3.61376 0.47132,7.44289 0.47132,11.48978 0,3.86662 -0.15444,7.44936 -0.47132,10.75214 -0.317,3.29958 -1.19468,6.2904 -2.62502,8.9726 -1.42209,2.67914 -3.63262,4.01905 -6.61508,4.01905 -2.98247,0 -5.20112,-1.35512 -6.66389,-4.06927 -1.46276,-2.70695 -2.34857,-5.69779 -2.66557,-8.97261 -0.32503,-3.26775 -0.47945,-6.83529 -0.47945,-10.70191 0,-2.92541 0.0649,-5.66667 0.18696,-8.22451 0.13004,-2.55146 0.51187,-5.18425 1.14576,-7.89522 0.64202,-2.71333 1.63347,-4.9999 3.00698,-6.86618 1.35713,-1.87278 3.18559,-2.80669 5.46921,-2.80669" />
                <path
                   inkscape:connector-curvature="0"
                   id="path1954"
                   style="fill:#444041;fill-opacity:1;fill-rule:nonzero;stroke:none;stroke-width:0.80508476"
                   d="m 814.09154,857.30547 c 0,1.1868 0.44704,2.18377 1.33284,2.99095 0.88583,0.80955 1.90167,1.2146 3.04743,1.2146 0.69896,0 1.3978,-0.18661 2.09676,-0.56067 0.69885,-0.37724 1.23524,-0.90361 1.6172,-1.5856 0.38196,-0.68587 0.57694,-1.37092 0.57694,-2.05928 0,-1.11899 -0.43064,-2.11598 -1.29205,-2.99082 -0.85339,-0.87261 -1.85297,-1.30891 -2.99885,-1.30891 -1.14576,0 -2.1616,0.4363 -3.04743,1.30891 -0.8858,0.87484 -1.33284,1.87183 -1.33284,2.99082" />
                <path
                   inkscape:connector-curvature="0"
                   id="path1956"
                   style="fill:#444041;fill-opacity:1;fill-rule:nonzero;stroke:none;stroke-width:0.80508476"
                   d="m 833.90447,853.00574 v 2.0562 c 0,0.12438 0.0566,0.28069 0.18686,0.46732 l 12.28763,13.36571 c 1.90155,1.99398 3.42938,3.66092 4.56713,5.00001 1.14587,1.33992 2.29175,2.88237 3.43762,4.62984 1.13775,1.74192 2.03982,3.51733 2.70614,5.32467 0.66642,1.80405 0.99957,3.70393 0.99957,5.69778 0,2.12235 -0.41438,4.16571 -1.23523,6.12537 -0.82074,1.96285 -2.03169,3.5205 -3.61635,4.67298 -1.58466,1.15331 -3.49445,1.7292 -5.71311,1.7292 -2.29164,0 -4.35586,-0.68517 -6.19245,-2.05939 -1.84484,-1.36704 -3.14504,-3.11215 -3.90082,-5.23366 0.25193,0.0648 0.53627,0.0966 0.85328,0.0966 1.2027,0 2.21855,-0.38914 3.04754,-1.1652 0.82074,-0.7816 1.23523,-1.79462 1.23523,-3.04034 0,-1.18443 -0.41449,-2.1965 -1.23523,-3.03799 -0.82899,-0.84137 -1.84484,-1.26176 -3.04754,-1.26176 -1.21083,0 -2.24295,0.42039 -3.09622,1.26176 -0.86153,0.84149 -1.28405,1.85356 -1.28405,3.03799 0,1.93089 0.38197,3.75416 1.14588,5.46731 0.75579,1.71635 1.83659,3.22779 3.23439,4.53341 1.39781,1.30796 2.98247,2.32098 4.76223,3.04035 1.77162,0.71381 3.64888,1.07196 5.6155,1.07196 3.04753,0 5.87568,-0.62294 8.47618,-1.86948 2.60864,-1.24585 4.67287,-3.02207 6.19256,-5.32786 1.52785,-2.30496 2.2835,-4.9848 2.2835,-8.04106 0,-2.23965 -0.50385,-4.37389 -1.51957,-6.39898 -1.01585,-2.02497 -2.29989,-3.86345 -3.86027,-5.51436 -1.55211,-1.65104 -3.56753,-3.53642 -6.04625,-5.65476 -2.47862,-2.11515 -4.09582,-3.51733 -4.85973,-4.20567 l -8.94751,-8.5053 h 7.61479 c 3.74637,0 6.87514,0.0306 9.38627,0.0966 2.50302,0.0589 3.81959,0.18343 3.94962,0.37087 0.63389,0.62293 1.26766,2.99095 1.90154,7.10644 h 2.38111 l -2.2835,-13.83634 h -29.42674" />
                <path
                   inkscape:connector-curvature="0"
                   id="path1958"
                   style="fill:#444041;fill-opacity:1;fill-rule:nonzero;stroke:none;stroke-width:0.80508476"
                   d="m 1178.4191,851.32369 c -6.4688,0 -10.8654,2.6169 -13.1897,7.85056 -2.316,5.23435 -3.47,11.43706 -3.47,18.60328 0,4.54542 0.4064,8.79484 1.2353,12.75164 0.8288,3.95988 2.4785,7.32724 4.9572,10.09715 2.4705,2.77321 5.965,4.15934 10.4672,4.15934 3.4946,0 6.3552,-0.82545 8.5734,-2.47719 2.2268,-1.65103 3.909,-3.80048 5.0468,-6.44921 1.1459,-2.64788 1.9342,-5.48323 2.3811,-8.50529 0.4469,-3.02515 0.6665,-6.21545 0.6665,-9.57644 0,-4.42732 -0.4309,-8.58665 -1.2841,-12.47804 -0.8533,-3.89762 -2.5111,-7.19968 -4.9574,-9.91372 -2.4379,-2.70695 -5.916,-4.06208 -10.4263,-4.06208 z m 0,1.96285 c 2.9257,0 5.1117,1.47951 6.5745,4.43921 1.4626,2.95982 2.3485,6.24668 2.6654,9.86361 0.3169,3.61376 0.4795,7.44289 0.4795,11.48978 0,3.86662 -0.1626,7.44936 -0.4795,10.75214 -0.3169,3.29958 -1.1865,6.2904 -2.6248,8.9726 -1.4221,2.67914 -3.6244,4.01905 -6.6151,4.01905 -2.9825,0 -5.201,-1.35512 -6.664,-4.06927 -1.4627,-2.70695 -2.3485,-5.69779 -2.6654,-8.97261 -0.317,-3.26775 -0.4796,-6.83529 -0.4796,-10.70191 0,-2.92541 0.064,-5.66667 0.1869,-8.22451 0.1301,-2.55146 0.5202,-5.18425 1.1459,-7.89522 0.6421,-2.71333 1.6417,-4.9999 3.007,-6.86618 1.3653,-1.87278 3.1855,-2.80669 5.4692,-2.80669" />
                <path
                   inkscape:connector-curvature="0"
                   id="path1960"
                   style="fill:#444041;fill-opacity:1;fill-rule:nonzero;stroke:none;stroke-width:0.80508476"
                   d="m 1205.9116,857.30547 c 0,1.1868 0.4469,2.18377 1.3409,2.99095 0.8858,0.80955 1.9017,1.2146 3.0475,1.2146 0.6989,0 1.3978,-0.18661 2.0885,-0.56067 0.699,-0.37724 1.2353,-0.90361 1.6172,-1.5856 0.382,-0.68587 0.577,-1.37092 0.577,-2.05928 0,-1.11899 -0.4307,-2.11598 -1.2921,-2.99082 -0.8533,-0.87261 -1.8528,-1.30891 -2.9906,-1.30891 -1.1458,0 -2.1617,0.4363 -3.0475,1.30891 -0.894,0.87484 -1.3409,1.87183 -1.3409,2.99082" />
                <path
                   inkscape:connector-curvature="0"
                   id="path1962"
                   style="fill:#444041;fill-opacity:1;fill-rule:nonzero;stroke:none;stroke-width:0.80508476"
                   d="m 1229.3408,858.9875 c 1.2759,-1.7418 2.9581,-3.04988 5.0548,-3.92556 2.0885,-0.87262 4.3152,-1.30809 6.6639,-1.30809 3.1125,0 5.2986,1.29288 6.5663,3.87547 1.276,2.58895 1.9099,5.50161 1.9099,8.73895 0,1.49541 -0.13,2.97811 -0.382,4.4457 -0.2519,1.46428 -0.7153,2.81624 -1.3816,4.06279 -0.6664,1.24585 -1.5521,2.25875 -2.6655,3.03716 -1.1052,0.77605 -2.4543,1.16522 -4.0471,1.16522 h -5.3312 c -0.4469,0 -0.6663,0.22173 -0.6663,0.65805 v 0.74729 c 0,0.37725 0.2194,0.56386 0.6663,0.56386 l 4.3804,0.37088 c 1.8366,0 3.3807,0.68517 4.6159,2.05621 1.2353,1.37423 2.1455,3.04117 2.7143,5.00389 0.5771,1.95967 0.8614,3.81323 0.8614,5.55432 0,2.4924 -0.585,4.53659 -1.7635,6.12537 -1.1783,1.58879 -2.9988,2.38312 -5.4773,2.38312 -1.9667,0 -3.8683,-0.37324 -5.7131,-1.12135 -1.8447,-0.7473 -3.3075,-1.86948 -4.3803,-3.36502 0.1219,0 0.2195,0.0165 0.2845,0.0472 0.064,0.0306 0.1544,0.0471 0.2844,0.0471 1.1459,0 2.113,-0.40506 2.9013,-1.21543 0.7963,-0.80718 1.1863,-1.80416 1.1863,-2.99095 0,-1.11817 -0.39,-2.08722 -1.1863,-2.90076 -0.7883,-0.80954 -1.7554,-1.21142 -2.9013,-1.21142 -1.2028,0 -2.2187,0.40188 -3.0474,1.21142 -0.8289,0.81354 -1.2435,1.78259 -1.2435,2.90076 0,2.24366 0.6826,4.18728 2.048,5.83831 1.3734,1.65174 3.1288,2.89759 5.2904,3.73896 2.1617,0.84148 4.3153,1.26494 6.477,1.26494 1.6497,0 3.3644,-0.23366 5.1442,-0.70109 1.7715,-0.46731 3.3807,-1.13726 4.8029,-2.00987 1.4302,-0.87485 2.6086,-1.99385 3.527,-3.3609 0.9263,-1.37421 1.3815,-2.93188 1.3815,-4.68016 0,-2.17741 -0.4876,-4.1841 -1.479,-6.02176 -0.9835,-1.83834 -2.3488,-3.42713 -4.0878,-4.76704 -1.7472,-1.33993 -3.6327,-2.35518 -5.6644,-3.04036 2.2755,-0.43299 4.4535,-1.27448 6.5176,-2.52352 2.0642,-1.24336 3.7141,-2.86327 4.9574,-4.85712 1.2352,-1.99396 1.8529,-4.11313 1.8529,-6.35914 0,-2.86645 -0.7964,-5.45211 -2.3812,-7.75789 -1.5928,-2.30507 -3.6814,-4.11231 -6.2901,-5.42028 -2.6005,-1.30892 -5.3635,-1.96284 -8.281,-1.96284 -2.4705,0 -4.9574,0.4514 -7.4278,1.35183 -2.4787,0.90691 -4.5104,2.29304 -6.095,4.16571 -1.5929,1.86558 -2.3811,4.07799 -2.3811,6.63264 0,1.3088 0.4388,2.38312 1.3246,3.2246 0.8939,0.84137 1.9747,1.26177 3.2507,1.26177 0.8858,0 1.6741,-0.18662 2.373,-0.56068 0.6989,-0.37406 1.2596,-0.91647 1.674,-1.63582 0.4065,-0.71629 0.6177,-1.4795 0.6177,-2.28987 0,-1.24337 -0.4632,-2.3026 -1.3816,-3.17756 -0.9264,-0.8725 -2.0154,-1.30881 -3.2831,-1.30881 h -0.3901" />
                <path
                   inkscape:connector-curvature="0"
                   id="path1964"
                   style="fill:#444041;fill-opacity:1;fill-rule:nonzero;stroke:none;stroke-width:0.80508476"
                   d="m 577.01173,742.62317 v 3.17466 c 3.04753,0 6.01373,0.1714 8.90682,0.51412 2.88498,0.34272 4.33159,1.10599 4.33159,2.29302 v 49.35006 c 0,1.2458 -0.36569,2.02503 -1.08894,2.33609 -0.73149,0.31184 -1.89353,0.46737 -3.47829,0.46737 h -3.90895 c -5.01416,0 -8.56555,-1.09028 -10.6622,-3.27084 -1.08079,-1.06236 -1.86099,-2.77316 -2.3323,-5.1378 -0.47958,-2.37086 -0.90209,-5.36176 -1.28405,-8.97268 h -2.57621 l 1.71481,20.55965 h 55.81408 l 1.80404,-20.55965 h -2.66545 c -0.38196,3.86017 -0.79646,6.91023 -1.23536,9.15676 -0.45505,2.23959 -1.21083,3.89136 -2.29164,4.95372 -2.15359,2.18056 -5.74565,3.27084 -10.75979,3.27084 h -3.81134 c -1.13774,0 -2.01543,-0.0462 -2.61689,-0.14276 -0.60949,-0.0909 -1.09708,-0.33977 -1.47903,-0.74813 -0.37383,-0.40198 -0.56881,-1.04082 -0.56881,-1.91257 v -49.35006 c 0,-1.18703 1.44649,-1.9503 4.33146,-2.29302 2.88496,-0.34272 5.85941,-0.51412 8.90683,-0.51412 v -3.17466 h -35.05038" />
                <path
                   inkscape:connector-curvature="0"
                   id="path1966"
                   style="fill:#444041;fill-opacity:1;fill-rule:nonzero;stroke:none;stroke-width:0.80508476"
                   d="m 629.00634,742.62317 v 3.17466 c 2.03157,0 3.73011,0.15577 5.09538,0.46738 1.36526,0.31465 2.04795,1.09355 2.04795,2.33976 v 24.48792 c 0,2.30546 -0.46329,3.72306 -1.38153,4.25266 -0.92648,0.52966 -2.71439,0.79756 -5.37984,0.79756 v 3.17473 l 13.14079,0.93468 v -33.64755 c 0,-1.24621 0.58509,-2.02511 1.7635,-2.33976 1.17028,-0.31161 2.71427,-0.46738 4.61593,-0.46738 v -3.17466 z m 3.81134,55.04792 c 0,1.30881 0.50385,2.4613 1.5197,3.45828 1.01585,0.99696 2.19426,1.49544 3.52698,1.49544 0.829,0 1.64974,-0.21774 2.47862,-0.65082 0.82085,-0.43627 1.45474,-1.04402 1.90166,-1.82563 0.44702,-0.77605 0.66641,-1.60154 0.66641,-2.47727 0,-1.24262 -0.50386,-2.3648 -1.5197,-3.36176 -1.01584,-0.99696 -2.19414,-1.49545 -3.52699,-1.49545 -1.33272,0 -2.51113,0.49849 -3.52698,1.49545 -1.01585,0.99696 -1.5197,2.11914 -1.5197,3.36176" />
                <path
                   inkscape:connector-curvature="0"
                   id="path1968"
                   style="fill:#444041;fill-opacity:1;fill-rule:nonzero;stroke:none;stroke-width:0.80508476"
                   d="m 653.74395,742.62317 v 3.17466 c 2.03169,0 3.73011,0.15577 5.09537,0.46738 1.36528,0.31465 2.04797,1.09355 2.04797,2.33976 v 24.48792 c 0,1.62002 -0.25194,2.78839 -0.76392,3.50493 -0.50386,0.71351 -1.21897,1.14962 -2.14545,1.30538 -0.91836,0.15897 -2.33231,0.23991 -4.23397,0.23991 v 3.17473 l 13.23841,0.93468 v -8.78892 c 1.20269,2.62017 3.01499,4.73869 5.42039,6.3588 2.41365,1.62003 5.02229,2.43012 7.81791,2.43012 7.04583,0 11.17416,-2.80402 12.37699,-8.41191 1.21082,2.55159 2.98246,4.59227 5.33103,6.11889 2.3487,1.52656 4.9248,2.29302 7.7204,2.29302 2.78748,0 5.11978,-0.43931 6.99704,-1.31169 1.86912,-0.86918 3.2832,-2.20888 4.23409,-4.01896 0.95889,-1.80706 1.43022,-4.05023 1.43022,-6.72951 v -21.58739 c 0,-1.24621 0.68269,-2.02511 2.04795,-2.33976 1.36527,-0.31161 3.07182,-0.46738 5.10352,-0.46738 v -3.17466 h -20.8612 v 3.17466 c 2.03169,0 3.73023,0.15577 5.0955,0.46738 1.36526,0.31465 2.04784,1.09355 2.04784,2.33976 v 21.31318 c 0,2.99089 -0.44691,5.40235 -1.33274,7.23733 -0.89394,1.83817 -2.6737,2.75727 -5.33916,2.75727 -3.49457,0 -6.37955,-1.3864 -8.66316,-4.15924 -2.29163,-2.76966 -3.42938,-5.90076 -3.42938,-9.39013 v -17.75841 c 0,-1.24621 0.66631,-2.02511 2.00729,-2.33976 1.32459,-0.31161 3.0394,-0.46738 5.13605,-0.46738 v -3.17466 h -20.95056 v 3.17466 c 2.08852,0 3.8032,0.15577 5.14419,0.46738 1.33272,0.31465 1.99915,1.09355 1.99915,2.33976 v 21.31318 c 0,2.9255 -0.43076,5.32444 -1.28405,7.19378 -0.86141,1.86615 -2.65744,2.80082 -5.38797,2.80082 -3.48631,0 -6.37942,-1.3864 -8.66303,-4.15924 -2.28363,-2.76966 -3.42137,-5.90076 -3.42137,-9.39013 v -17.75841 c 0,-1.24621 0.65829,-2.02511 1.99102,-2.33976 1.33274,-0.31161 3.015,-0.46738 5.0467,-0.46738 v -3.17466 h -20.85307" />
                <path
                   inkscape:connector-curvature="0"
                   id="path1970"
                   style="fill:#444041;fill-opacity:1;fill-rule:nonzero;stroke:none;stroke-width:0.80508476"
                   d="m 748.23289,741.59192 c -3.73825,0 -7.15146,0.9689 -10.23143,2.90364 -3.08007,1.92853 -5.50999,4.48323 -7.28963,7.66108 -1.77977,3.17784 -2.66558,6.54256 -2.66558,10.09111 0,3.55485 0.80448,6.90402 2.42981,10.05068 1.6173,3.14666 3.87652,5.68269 6.76148,7.61432 2.89311,1.93476 6.11123,2.90054 9.67075,2.90054 2.85243,0 5.31477,-0.45175 7.379,-1.35835 2.05609,-0.90037 3.75451,-2.17776 5.0955,-3.82898 1.33273,-1.64809 2.33229,-3.58284 2.99873,-5.79483 0.6663,-2.21206 0.99958,-4.66085 0.99958,-7.34021 0,-0.74461 -0.28447,-1.11844 -0.86142,-1.11844 h -26.47682 v -1.02815 c 0,-4.92244 1.01585,-9.17519 3.04754,-12.76115 2.03169,-3.57973 5.36357,-5.37108 10.0039,-5.37108 1.8367,0 3.55139,0.42055 5.14418,1.26176 1.58478,0.84431 2.96631,1.97838 4.14462,3.41145 1.17026,1.43004 1.98299,2.98779 2.42991,4.67019 0.0566,0.19006 0.1707,0.377 0.33315,0.56388 0.15444,0.18694 0.33327,0.28042 0.52012,0.28042 h 0.8534 c 0.57695,0 0.86142,-0.405 0.86142,-1.21502 -0.829,-3.36479 -2.66558,-6.13763 -5.52615,-8.31843 -2.86068,-2.184 -6.06253,-3.27443 -9.62206,-3.27443 z m -12.09253,24.02373 h 20.76371 c 0,2.24006 -0.3169,4.51433 -0.95891,6.81989 -0.62576,2.30855 -1.69041,4.22457 -3.18571,5.74809 -1.49529,1.52662 -3.44564,2.2899 -5.85116,2.2899 -3.4295,0 -6.08694,-1.58891 -7.95606,-4.76676 -1.87725,-3.17777 -2.81187,-6.54257 -2.81187,-10.09112" />
                <path
                   inkscape:connector-curvature="0"
                   id="path1972"
                   style="fill:#444041;fill-opacity:1;fill-rule:nonzero;stroke:none;stroke-width:0.80508476"
                   d="m 805.76178,720.19144 v 89.72716 h 12.57198 v -3.55478 h -8.85 v -82.62068 h 8.85 v -3.5517 h -12.57198" />
                <path
                   inkscape:connector-curvature="0"
                   id="path1974"
                   style="fill:#444041;fill-opacity:1;fill-rule:nonzero;stroke:none;stroke-width:0.80508476"
                   d="m 822.88461,742.33964 v 14.67405 c 0,0.43929 0.25193,0.65744 0.76392,0.65744 h 1.13774 c 0.38197,0 0.63389,-0.21815 0.76392,-0.65744 1.64973,-8.66108 5.74553,-12.99165 12.28753,-12.99165 2.85253,0 5.26618,0.6387 7.2328,1.91911 1.96662,1.2774 2.95806,3.25577 2.95806,5.93505 0,1.92854 -0.76391,3.56419 -2.28351,4.90387 -1.52783,1.33967 -3.34013,2.25873 -5.43677,2.75721 l -6.09508,1.21502 c -2.03168,0.4393 -3.88453,1.10919 -5.56668,2.00956 -1.68228,0.9066 -3.06381,2.10606 -4.14462,3.60152 -1.08091,1.49545 -1.61731,3.24013 -1.61731,5.23406 0,2.67936 0.69896,4.84461 2.08863,6.49581 1.39781,1.65122 3.24252,2.8507 5.53427,3.59531 2.28363,0.75083 4.72157,1.12473 7.33021,1.12473 3.10446,0 5.835,-0.81001 8.18357,-2.427 l 2.56809,2.24317 c 0,0.12154 0.16257,0.18383 0.47945,0.18383 h 0.66642 c 0.19499,0 0.36569,-0.0779 0.52826,-0.23369 0.15432,-0.15576 0.23566,-0.32708 0.23566,-0.51403 v -11.68315 c 0,-0.56086 -0.25193,-0.8412 -0.76392,-0.8412 h -1.14587 c -0.50386,0 -0.75579,0.28034 -0.75579,0.8412 0,3.11547 -0.88582,5.62033 -2.66558,7.52078 -1.77976,1.90053 -4.25836,2.85387 -7.4278,2.85387 -2.73052,0 -5.09538,-0.49848 -7.09453,-1.49544 -1.99914,-0.99698 -2.99872,-2.71056 -2.99872,-5.14059 0,-1.6824 0.71511,-3.05326 2.13731,-4.11562 1.43022,-1.05616 3.12877,-1.80387 5.09538,-2.24318 l 6.19257,-1.21191 c 2.03168,-0.43619 3.9495,-1.21511 5.7618,-2.33977 1.81218,-1.1216 3.24252,-2.52359 4.28277,-4.20598 1.04826,-1.68232 1.57651,-3.58284 1.57651,-5.70136 0,-2.18088 -0.36568,-4.06579 -1.09706,-5.65152 -0.73138,-1.59202 -1.77976,-2.91617 -3.14503,-3.9723 -1.36527,-1.05925 -2.9662,-1.84128 -4.81103,-2.33976 -1.83659,-0.49847 -3.77078,-0.74772 -5.80246,-0.74772 -3.81134,0 -7.08641,1.2805 -9.81695,3.83519 l -3.33199,-3.55165 c 0,-0.19006 -0.15443,-0.28354 -0.47945,-0.28354 h -0.5608 c -0.51199,0 -0.76392,0.24925 -0.76392,0.74772" />
                <path
                   inkscape:connector-curvature="0"
                   id="path1976"
                   style="fill:#444041;fill-opacity:1;fill-rule:nonzero;stroke:none;stroke-width:0.80508476"
                   d="m 857.09797,720.19144 v 3.5517 h 8.85002 v 82.62068 h -8.85002 v 3.55478 h 12.56385 v -89.72716 h -12.56385" />
                <path
                   inkscape:connector-curvature="0"
                   id="path1978"
                   style="fill:none;stroke:#444041;stroke-width:8.04883575;stroke-linecap:square;stroke-linejoin:round;stroke-miterlimit:10;stroke-dasharray:none;stroke-opacity:1"
                   d="M 35.067394,951.90464 V 1873.0997" />
                <path
                   inkscape:connector-curvature="0"
                   id="path1980"
                   style="fill:none;stroke:#444041;stroke-width:8.04883575;stroke-linecap:square;stroke-linejoin:round;stroke-miterlimit:10;stroke-dasharray:none;stroke-opacity:1"
                   d="M 1406.4456,951.90464 V 1873.0997" />
                <path
                   inkscape:connector-curvature="0"
                   id="path1982"
                   style="fill:none;stroke:#444041;stroke-width:8.04883575;stroke-linecap:square;stroke-linejoin:round;stroke-miterlimit:10;stroke-dasharray:none;stroke-opacity:1"
                   d="M 35.067394,969.96811 H 48.781176" />
                <path
                   inkscape:connector-curvature="0"
                   id="path1984"
                   style="fill:none;stroke:#444041;stroke-width:8.04883575;stroke-linecap:square;stroke-linejoin:round;stroke-miterlimit:10;stroke-dasharray:none;stroke-opacity:1"
                   d="M 35.067394,1150.5965 H 48.781176" />
                <path
                   inkscape:connector-curvature="0"
                   id="path1986"
                   style="fill:none;stroke:#444041;stroke-width:8.04883575;stroke-linecap:square;stroke-linejoin:round;stroke-miterlimit:10;stroke-dasharray:none;stroke-opacity:1"
                   d="M 35.067394,1331.2218 H 48.781176" />
                <path
                   inkscape:connector-curvature="0"
                   id="path1988"
                   style="fill:none;stroke:#444041;stroke-width:8.04883575;stroke-linecap:square;stroke-linejoin:round;stroke-miterlimit:10;stroke-dasharray:none;stroke-opacity:1"
                   d="M 35.067394,1511.8477 H 48.781176" />
                <path
                   inkscape:connector-curvature="0"
                   id="path1990"
                   style="fill:none;stroke:#444041;stroke-width:8.04883575;stroke-linecap:square;stroke-linejoin:round;stroke-miterlimit:10;stroke-dasharray:none;stroke-opacity:1"
                   d="M 35.067394,1692.4737 H 48.781176" />
                <path
                   inkscape:connector-curvature="0"
                   id="path1992"
                   style="fill:none;stroke:#444041;stroke-width:8.04883575;stroke-linecap:square;stroke-linejoin:round;stroke-miterlimit:10;stroke-dasharray:none;stroke-opacity:1"
                   d="M 35.067394,1873.0997 H 48.781176" />
                <path
                   inkscape:connector-curvature="0"
                   id="path1994"
                   style="fill:none;stroke:#444041;stroke-width:8.04883575;stroke-linecap:square;stroke-linejoin:round;stroke-miterlimit:10;stroke-dasharray:none;stroke-opacity:1"
                   d="M 1406.4456,969.96811 H 1392.736" />
                <path
                   inkscape:connector-curvature="0"
                   id="path1996"
                   style="fill:none;stroke:#444041;stroke-width:8.04883575;stroke-linecap:square;stroke-linejoin:round;stroke-miterlimit:10;stroke-dasharray:none;stroke-opacity:1"
                   d="M 1406.4456,1150.5965 H 1392.736" />
                <path
                   inkscape:connector-curvature="0"
                   id="path1998"
                   style="fill:none;stroke:#444041;stroke-width:8.04883575;stroke-linecap:square;stroke-linejoin:round;stroke-miterlimit:10;stroke-dasharray:none;stroke-opacity:1"
                   d="M 1406.4456,1331.2218 H 1392.736" />
                <path
                   inkscape:connector-curvature="0"
                   id="path2000"
                   style="fill:none;stroke:#444041;stroke-width:8.04883575;stroke-linecap:square;stroke-linejoin:round;stroke-miterlimit:10;stroke-dasharray:none;stroke-opacity:1"
                   d="M 1406.4456,1511.8477 H 1392.736" />
                <path
                   inkscape:connector-curvature="0"
                   id="path2002"
                   style="fill:none;stroke:#444041;stroke-width:8.04883575;stroke-linecap:square;stroke-linejoin:round;stroke-miterlimit:10;stroke-dasharray:none;stroke-opacity:1"
                   d="M 1406.4456,1692.4737 H 1392.736" />
                <path
                   inkscape:connector-curvature="0"
                   id="path2004"
                   style="fill:none;stroke:#444041;stroke-width:8.04883575;stroke-linecap:square;stroke-linejoin:round;stroke-miterlimit:10;stroke-dasharray:none;stroke-opacity:1"
                   d="M 1406.4456,1873.0997 H 1392.736" />
                <path
                   inkscape:connector-curvature="0"
                   id="path2006"
                   style="fill:#444041;fill-opacity:1;fill-rule:nonzero;stroke:none;stroke-width:0.80508476"
                   d="m -18.267244,949.14428 c -6.472904,0 -10.869438,2.61677 -13.189614,7.84808 -2.314481,5.23684 -3.473349,11.43718 -3.473349,18.60257 0,4.5485 0.412845,8.79795 1.238513,12.75467 0.824854,3.96001 2.476201,7.32484 4.954843,10.09727 2.472946,2.77003 5.964981,4.15613 10.469607,4.15613 3.495289,0 6.355064,-0.8255 8.5777228,-2.4765 2.2185783,-1.65083 3.9016144,-3.80113 5.0474786,-6.44585 1.1393691,-2.64799 1.933336,-5.48335 2.3746172,-8.50852 0.4469743,-3.022 0.6728958,-6.21546 0.6728958,-9.5772 0,-4.42412 -0.4290909,-8.58346 -1.2888994,-12.4772 -0.8573676,-3.89456 -2.5078888,-7.20051 -4.955656,-9.91066 -2.441247,-2.70777 -5.917036,-4.06279 -10.428159,-4.06279 z m 0,1.96285 c 2.923978,0 5.114123,1.47949 6.571236,4.43921 1.463622,2.95664 2.3526781,6.24655 2.6696211,9.86444 0.3177567,3.61057 0.4762226,7.44288 0.4762226,11.48976 0,3.86348 -0.1584659,7.44601 -0.4762226,10.74811 -0.316943,3.30263 -1.1905561,6.29357 -2.6216761,8.97261 -1.425413,2.67978 -3.631814,4.01894 -6.619181,4.01894 -2.98087,0 -5.202702,-1.35504 -6.659817,-4.06516 -1.463621,-2.70774 -2.352677,-5.69868 -2.669621,-8.97271 -0.317756,-3.27167 -0.476221,-6.83831 -0.476221,-10.70179 0,-2.9287 0.06342,-5.67078 0.190166,-8.22531 0.123523,-2.55146 0.50791,-5.18428 1.145864,-7.89441 0.632248,-2.71332 1.631836,-5.00401 2.997115,-6.86948 1.364477,-1.86947 3.190546,-2.80421 5.472514,-2.80421" />
                <path
                   inkscape:connector-curvature="0"
                   id="path2008"
                   style="fill:#444041;fill-opacity:1;fill-rule:nonzero;stroke:none;stroke-width:0.80508476"
                   d="m -112.00696,1131.4515 v 2.7109 c 6.60294,0 9.90482,0.8407 9.90482,2.5236 v 40.7534 c -2.72976,-1.2489 -6.1901,-1.8718 -10.38022,-1.8718 v 2.7101 c 6.47534,0 11.36435,1.651 14.665421,4.9538 h 1.143424 c 0.193409,0 0.368142,-0.062 0.526608,-0.1867 0.158466,-0.1253 0.234858,-0.2776 0.234858,-0.4673 v -45.8915 c 0,-1.6829 3.30188,-2.5236 9.904804,-2.5236 v -2.7109 h -25.999715" />
                <path
                   inkscape:connector-curvature="0"
                   id="path2010"
                   style="fill:#444041;fill-opacity:1;fill-rule:nonzero;stroke:none;stroke-width:0.80508476"
                   d="m -58.894172,1129.7726 c -6.479412,0 -10.875946,2.6136 -13.190427,7.8481 -2.320176,5.2337 -3.482286,11.4363 -3.482286,18.6026 0,4.5452 0.412834,8.798 1.238502,12.7515 0.828108,3.96 2.481895,7.3282 4.954842,10.0973 2.4762,2.7731 5.968236,4.1594 10.479369,4.1594 3.488781,0 6.346128,-0.8256 8.567961,-2.4766 2.221832,-1.6517 3.904879,-3.8011 5.04749,-6.4491 1.142612,-2.6487 1.936591,-5.4833 2.383552,-8.5053 0.441282,-3.0221 0.663949,-6.2155 0.663949,-9.5772 0,-4.4274 -0.429091,-8.5867 -1.285644,-12.478 -0.857356,-3.897 -2.507889,-7.1998 -4.949149,-9.913 -2.447755,-2.7079 -5.923544,-4.0597 -10.428159,-4.0597 z m 0,1.9597 c 2.917481,0 5.107615,1.4795 6.567982,4.4392 1.460367,2.9598 2.349425,6.2466 2.663113,9.8636 0.317757,3.6146 0.476222,7.4429 0.476222,11.4906 0,3.8658 -0.158465,7.4486 -0.476222,10.7514 -0.313688,3.2994 -1.187302,6.2904 -2.612728,8.9725 -1.431108,2.6791 -3.637497,4.019 -6.618367,4.019 -2.987377,0 -5.209209,-1.3551 -6.669578,-4.0683 -1.457114,-2.7079 -2.349423,-5.6988 -2.669609,-8.9728 -0.317756,-3.2685 -0.476234,-6.836 -0.476234,-10.7018 0,-2.9256 0.06661,-5.6674 0.196673,-8.2253 0.126777,-2.5515 0.504669,-5.1842 1.139357,-7.8944 0.635514,-2.7109 1.631836,-5.0008 3.000369,-6.8671 1.364477,-1.8687 3.190547,-2.8066 5.479022,-2.8066" />
                <path
                   inkscape:connector-curvature="0"
                   id="path2012"
                   style="fill:#444041;fill-opacity:1;fill-rule:nonzero;stroke:none;stroke-width:0.80508476"
                   d="m -18.267244,1129.7726 c -6.472904,0 -10.869438,2.6136 -13.189614,7.8481 -2.314481,5.2337 -3.473349,11.4363 -3.473349,18.6026 0,4.5452 0.412845,8.798 1.238513,12.7515 0.824854,3.96 2.476201,7.3282 4.954843,10.0973 2.472946,2.7731 5.964981,4.1594 10.469607,4.1594 3.495289,0 6.355064,-0.8256 8.5777228,-2.4766 2.2185783,-1.6517 3.9016144,-3.8011 5.0474786,-6.4491 1.1393691,-2.6487 1.933336,-5.4833 2.3746172,-8.5053 0.4469743,-3.0221 0.6728958,-6.2155 0.6728958,-9.5772 0,-4.4274 -0.4290909,-8.5867 -1.2888994,-12.478 -0.8573676,-3.897 -2.5078888,-7.1998 -4.955656,-9.913 -2.441247,-2.7079 -5.917036,-4.0597 -10.428159,-4.0597 z m 0,1.9597 c 2.923978,0 5.114123,1.4795 6.571236,4.4392 1.463622,2.9598 2.3526781,6.2466 2.6696211,9.8636 0.3177567,3.6146 0.4762226,7.4429 0.4762226,11.4906 0,3.8658 -0.1584659,7.4486 -0.4762226,10.7514 -0.316943,3.2994 -1.1905561,6.2904 -2.6216761,8.9725 -1.425413,2.6791 -3.631814,4.019 -6.619181,4.019 -2.98087,0 -5.202702,-1.3551 -6.659817,-4.0683 -1.463621,-2.7079 -2.352677,-5.6988 -2.669621,-8.9728 -0.317756,-3.2685 -0.476221,-6.836 -0.476221,-10.7018 0,-2.9256 0.06342,-5.6674 0.190166,-8.2253 0.123523,-2.5515 0.50791,-5.1842 1.145864,-7.8944 0.632248,-2.7109 1.631836,-5.0008 2.997115,-6.8671 1.364477,-1.8687 3.190546,-2.8066 5.472514,-2.8066" />
                <path
                   inkscape:connector-curvature="0"
                   id="path2014"
                   style="fill:#444041;fill-opacity:1;fill-rule:nonzero;stroke:none;stroke-width:0.80508476"
                   d="m -115.43154,1312.0799 v 2.0562 c 0,0.1243 0.0635,0.2807 0.18692,0.4673 l 12.28186,13.3625 c 1.9049,1.994 3.428645,3.6608 4.571256,5 1.146678,1.3401 2.289289,2.8857 3.4319,4.6299 1.142622,1.7451 2.044682,3.5173 2.71107,5.3246 0.666388,1.8065 0.999577,3.7071 0.999577,5.701 0,2.1216 -0.41202,4.1627 -1.234446,6.1254 -0.825668,1.9629 -2.031667,3.5206 -3.622054,4.6698 -1.583891,1.1533 -3.488793,1.7291 -5.710623,1.7291 -2.28929,0 -4.35266,-0.6851 -6.19416,-2.0561 -1.8407,-1.3679 -3.13935,-3.1121 -3.90082,-5.2337 0.25356,0.062 0.53637,0.096 0.8533,0.096 1.20682,0 2.22266,-0.3892 3.04752,-1.1684 0.82567,-0.7817 1.23851,-1.7946 1.23851,-3.038 0,-1.1835 -0.41284,-2.1957 -1.23851,-3.0403 -0.82486,-0.8415 -1.8407,-1.2618 -3.04752,-1.2618 -1.206,0 -2.23483,0.4203 -3.08813,1.2618 -0.85737,0.8446 -1.28565,1.8568 -1.28565,3.0403 0,1.9285 0.37708,3.7518 1.13937,5.4681 0.76147,1.7132 1.84151,3.2247 3.23441,4.5326 1.40025,1.3089 2.98738,2.3217 4.76876,3.038 1.77405,0.7169 3.64725,1.072 5.61227,1.072 3.047517,0 5.87235,-0.6229 8.478582,-1.8663 2.603792,-1.249 4.667159,-3.0253 6.190903,-5.331 1.523757,-2.3018 2.285233,-4.9849 2.285233,-8.038 0,-2.2396 -0.507922,-4.3738 -1.523756,-6.4021 -1.015834,-2.025 -2.301479,-3.8634 -3.856922,-5.5144 -1.555458,-1.651 -3.570867,-3.5331 -6.047068,-5.6516 -2.476201,-2.1184 -4.095046,-3.5204 -4.857322,-4.2064 l -8.95236,-8.5053 h 7.61877 c 3.746398,0 6.872731,0.03 9.380633,0.096 2.504647,0.06 3.825235,0.1804 3.956068,0.3702 0.631445,0.6204 1.266133,2.9909 1.900833,7.1072 h 2.381124 l -2.285233,-13.8364 h -29.424295" />
                <path
                   inkscape:connector-curvature="0"
                   id="path2016"
                   style="fill:#444041;fill-opacity:1;fill-rule:nonzero;stroke:none;stroke-width:0.80508476"
                   d="m -58.894172,1310.3971 c -6.479412,0 -10.875946,2.6176 -13.190427,7.8481 -2.320176,5.2376 -3.482286,11.4371 -3.482286,18.6033 0,4.5485 0.412834,8.7981 1.238502,12.7547 0.828108,3.96 2.481895,7.3242 4.954842,10.0973 2.4762,2.77 5.968236,4.1561 10.479369,4.1561 3.488781,0 6.346128,-0.8254 8.567961,-2.4772 2.221832,-1.651 3.904879,-3.8004 5.04749,-6.4492 1.142612,-2.6447 1.936591,-5.4833 2.383552,-8.5052 0.441282,-3.0221 0.663949,-6.2155 0.663949,-9.5765 0,-4.4241 -0.429091,-8.5866 -1.285644,-12.4779 -0.857356,-3.8947 -2.507889,-7.1998 -4.949149,-9.9108 -2.447755,-2.707 -5.923544,-4.0627 -10.428159,-4.0627 z m 0,1.9628 c 2.917481,0 5.107615,1.4803 6.567982,4.4368 1.460367,2.9599 2.349425,6.2498 2.663113,9.8669 0.317757,3.6105 0.476222,7.4428 0.476222,11.4897 0,3.8635 -0.158465,7.4462 -0.476222,10.7489 -0.313688,3.302 -1.187302,6.2928 -2.612728,8.9726 -1.431108,2.6791 -3.637497,4.019 -6.618367,4.019 -2.987377,0 -5.209209,-1.355 -6.669578,-4.0659 -1.457114,-2.7071 -2.349423,-5.698 -2.669609,-8.9728 -0.317756,-3.2708 -0.476234,-6.8383 -0.476234,-10.7018 0,-2.9287 0.06661,-5.6699 0.196673,-8.2245 0.126777,-2.5515 0.504669,-5.1843 1.139357,-7.8984 0.635514,-2.7101 1.631836,-4.9999 3.000369,-6.8663 1.364477,-1.8695 3.190547,-2.8042 5.479022,-2.8042" />
                <path
                   inkscape:connector-curvature="0"
                   id="path2018"
                   style="fill:#444041;fill-opacity:1;fill-rule:nonzero;stroke:none;stroke-width:0.80508476"
                   d="m -18.267244,1310.3971 c -6.472904,0 -10.869438,2.6176 -13.189614,7.8481 -2.314481,5.2376 -3.473349,11.4371 -3.473349,18.6033 0,4.5485 0.412845,8.7981 1.238513,12.7547 0.824854,3.96 2.476201,7.3242 4.954843,10.0973 2.472946,2.77 5.964981,4.1561 10.469607,4.1561 3.495289,0 6.355064,-0.8254 8.5777228,-2.4772 2.2185783,-1.651 3.9016144,-3.8004 5.0474786,-6.4492 1.1393691,-2.6447 1.933336,-5.4833 2.3746172,-8.5052 0.4469743,-3.0221 0.6728958,-6.2155 0.6728958,-9.5765 0,-4.4241 -0.4290909,-8.5866 -1.2888994,-12.4779 -0.8573676,-3.8947 -2.5078888,-7.1998 -4.955656,-9.9108 -2.441247,-2.707 -5.917036,-4.0627 -10.428159,-4.0627 z m 0,1.9628 c 2.923978,0 5.114123,1.4803 6.571236,4.4368 1.463622,2.9599 2.3526781,6.2498 2.6696211,9.8669 0.3177567,3.6105 0.4762226,7.4428 0.4762226,11.4897 0,3.8635 -0.1584659,7.4462 -0.4762226,10.7489 -0.316943,3.302 -1.1905561,6.2928 -2.6216761,8.9726 -1.425413,2.6791 -3.631814,4.019 -6.619181,4.019 -2.98087,0 -5.202702,-1.355 -6.659817,-4.0659 -1.463621,-2.7071 -2.352677,-5.698 -2.669621,-8.9728 -0.317756,-3.2708 -0.476221,-6.8383 -0.476221,-10.7018 0,-2.9287 0.06342,-5.6699 0.190166,-8.2245 0.123523,-2.5515 0.50791,-5.1843 1.145864,-7.8984 0.632248,-2.7101 1.631836,-4.9999 2.997115,-6.8663 1.364477,-1.8695 3.190546,-2.8042 5.472514,-2.8042" />
                <path
                   inkscape:connector-curvature="0"
                   id="path2020"
                   style="fill:#444041;fill-opacity:1;fill-rule:nonzero;stroke:none;stroke-width:0.80508476"
                   d="m -111.81921,1498.6869 c 1.27262,-1.7419 2.95566,-3.0506 5.04748,-3.9223 2.09831,-0.8759 4.32013,-1.3122 6.66957,-1.3122 3.110888,0 5.301033,1.2929 6.567981,3.8755 1.272643,2.5897 1.908143,5.5025 1.908143,8.7398 0,1.4954 -0.12759,2.9781 -0.384387,4.448 -0.251113,1.4596 -0.711091,2.8154 -1.37748,4.0596 -0.66719,1.2442 -1.555445,2.2572 -2.670423,3.0389 -1.107668,0.7816 -2.456701,1.1644 -4.043834,1.1644 h -5.33355 c -0.44371,0 -0.66639,0.2233 -0.66639,0.662 v 0.7497 c 0,0.3668 0.22268,0.5583 0.66639,0.5583 l 4.38109,0.3668 c 1.841516,0 3.380703,0.6859 4.619216,2.0658 1.234446,1.3639 2.138946,3.0309 2.7135,5.0008 0.572125,1.9541 0.857368,3.8122 0.857368,5.551 0,2.4965 -0.584315,4.5383 -1.758615,6.1254 -1.174311,1.5872 -3.002808,2.3848 -5.479009,2.3848 -1.96829,0 -3.87318,-0.3749 -5.71388,-1.1166 -1.83825,-0.7578 -3.30187,-1.8743 -4.38109,-3.3738 0.12677,0 0.22186,0.017 0.28606,0.048 0.0602,0.032 0.15846,0.048 0.28524,0.048 1.14262,0 2.11131,-0.4066 2.90122,-1.2123 0.79724,-0.8055 1.19706,-1.8024 1.19706,-2.9908 0,-1.1245 -0.39982,-2.0897 -1.19706,-2.9032 -0.78991,-0.8134 -1.7586,-1.2124 -2.90122,-1.2124 -1.20601,0 -2.22184,0.4069 -3.04751,1.2124 -0.82242,0.8135 -1.23444,1.7787 -1.23444,2.9032 0,2.2411 0.68183,4.1873 2.0471,5.8383 1.36205,1.6509 3.12391,2.8952 5.28236,3.7327 2.15844,0.8453 4.3177,1.268 6.47616,1.268 1.647267,0 3.362003,-0.2313 5.142556,-0.7019 1.774871,-0.4626 3.377458,-1.1325 4.80938,-2.0099 1.428667,-0.8692 2.602977,-1.9938 3.523735,-3.3578 0.920743,-1.3797 1.380721,-2.9349 1.380721,-4.6817 0,-2.1774 -0.488412,-4.1873 -1.472557,-6.0216 -0.987399,-1.8424 -2.352678,-3.4296 -4.095034,-4.7696 -1.749678,-1.3398 -3.638322,-2.3527 -5.66999,-3.0386 2.282781,-0.4309 4.456668,-1.2762 6.520036,-2.5203 2.066621,-1.2443 3.717957,-2.8633 4.955657,-4.8573 1.235259,-1.9938 1.85369,-4.1155 1.85369,-6.3614 0,-2.8665 -0.793166,-5.4523 -2.377056,-7.758 -1.587947,-2.3058 -3.683015,-4.1124 -6.282739,-5.421 -2.606221,-1.3081 -5.367677,-1.9597 -8.288399,-1.9597 -2.47621,0 -4.95241,0.449 -7.43185,1.3495 -2.47296,0.906 -4.50463,2.293 -6.09502,4.1649 -1.58389,1.8663 -2.37705,4.078 -2.37705,6.6334 0,1.308 0.4437,2.3831 1.33602,3.2245 0.8858,0.8407 1.96502,1.2618 3.23523,1.2618 0.89149,0 1.68222,-0.1874 2.37706,-0.5614 0.69889,-0.3702 1.2572,-0.9158 1.67003,-1.6351 0.40958,-0.717 0.61601,-1.4803 0.61601,-2.2898 0,-1.2434 -0.46079,-2.3026 -1.37747,-3.1752 -0.92076,-0.8757 -2.01624,-1.3113 -3.28563,-1.3113 h -0.38438" />
                <path
                   inkscape:connector-curvature="0"
                   id="path2022"
                   style="fill:#444041;fill-opacity:1;fill-rule:nonzero;stroke:none;stroke-width:0.80508476"
                   d="m -58.894172,1491.0254 c -6.479412,0 -10.875946,2.6138 -13.190427,7.8482 -2.320176,5.2336 -3.482286,11.4348 -3.482286,18.605 0,4.5461 0.412834,8.7892 1.238502,12.7531 0.828108,3.9559 2.481895,7.3218 4.954842,10.0972 2.4762,2.7677 5.968236,4.1554 10.479369,4.1554 3.488781,0 6.346128,-0.8214 8.567961,-2.4724 2.221832,-1.6591 3.904879,-3.8045 5.04749,-6.4524 1.142612,-2.648 1.936591,-5.4874 2.383552,-8.5021 0.441282,-3.0308 0.663949,-6.2211 0.663949,-9.5788 0,-4.4266 -0.429091,-8.5883 -1.285644,-12.4796 -0.857356,-3.8979 -2.507889,-7.2004 -4.949149,-9.914 -2.447755,-2.7076 -5.923544,-4.0596 -10.428159,-4.0596 z m 0,1.9597 c 2.917481,0 5.107615,1.4804 6.567982,4.4401 1.460367,2.9599 2.349425,6.2465 2.663113,9.8635 0.317757,3.6178 0.476222,7.4462 0.476222,11.4899 0,3.8682 -0.158465,7.4494 -0.476222,10.7512 -0.313688,3.3021 -1.187302,6.2929 -2.612728,8.9727 -1.431108,2.6798 -3.637497,4.0197 -6.618367,4.0197 -2.987377,0 -5.209209,-1.3557 -6.669578,-4.0675 -1.457114,-2.7118 -2.349423,-5.7027 -2.669609,-8.9727 -0.317756,-3.2699 -0.476234,-6.8352 -0.476234,-10.7034 0,-2.9271 0.06661,-5.6708 0.196673,-8.223 0.126777,-2.5538 0.504669,-5.1859 1.139357,-7.8968 0.635514,-2.7101 1.631836,-4.9999 3.000369,-6.8662 1.364477,-1.8727 3.190547,-2.8075 5.479022,-2.8075" />
                <path
                   inkscape:connector-curvature="0"
                   id="path2024"
                   style="fill:#444041;fill-opacity:1;fill-rule:nonzero;stroke:none;stroke-width:0.80508476"
                   d="m -18.267244,1491.0254 c -6.472904,0 -10.869438,2.6138 -13.189614,7.8482 -2.314481,5.2336 -3.473349,11.4348 -3.473349,18.605 0,4.5461 0.412845,8.7892 1.238513,12.7531 0.824854,3.9559 2.476201,7.3218 4.954843,10.0972 2.472946,2.7677 5.964981,4.1554 10.469607,4.1554 3.495289,0 6.355064,-0.8214 8.5777228,-2.4724 2.2185783,-1.6591 3.9016144,-3.8045 5.0474786,-6.4524 1.1393691,-2.648 1.933336,-5.4874 2.3746172,-8.5021 0.4469743,-3.0308 0.6728958,-6.2211 0.6728958,-9.5788 0,-4.4266 -0.4290909,-8.5883 -1.2888994,-12.4796 -0.8573676,-3.8979 -2.5078888,-7.2004 -4.955656,-9.914 -2.441247,-2.7076 -5.917036,-4.0596 -10.428159,-4.0596 z m 0,1.9597 c 2.923978,0 5.114123,1.4804 6.571236,4.4401 1.463622,2.9599 2.3526781,6.2465 2.6696211,9.8635 0.3177567,3.6178 0.4762226,7.4462 0.4762226,11.4899 0,3.8682 -0.1584659,7.4494 -0.4762226,10.7512 -0.316943,3.3021 -1.1905561,6.2929 -2.6216761,8.9727 -1.425413,2.6798 -3.631814,4.0197 -6.619181,4.0197 -2.98087,0 -5.202702,-1.3557 -6.659817,-4.0675 -1.463621,-2.7118 -2.352677,-5.7027 -2.669621,-8.9727 -0.317756,-3.2699 -0.476221,-6.8352 -0.476221,-10.7034 0,-2.9271 0.06342,-5.6708 0.190166,-8.223 0.123523,-2.5538 0.50791,-5.1859 1.145864,-7.8968 0.632248,-2.7101 1.631836,-4.9999 2.997115,-6.8662 1.364477,-1.8727 3.190546,-2.8075 5.472514,-2.8075" />
                <path
                   inkscape:connector-curvature="0"
                   id="path2026"
                   style="fill:#444041;fill-opacity:1;fill-rule:nonzero;stroke:none;stroke-width:0.80508476"
                   d="m -117.15276,1686.141 v 2.7995 l 24.479203,35.7949 c 0.190154,0.2472 0.475409,0.3749 0.859796,0.3749 h 1.139368 c 0.572114,0 0.857357,-0.2792 0.857357,-0.8374 v -35.3324 h 7.809748 v -2.7995 h -7.809748 v -7.577 c 0,-1.0607 0.780976,-1.7467 2.336432,-2.0577 1.552192,-0.3111 3.342505,-0.4626 5.374172,-0.4626 v -2.7118 h -21.805518 v 2.7118 c 2.03167,0 3.82522,0.1515 5.380678,0.4626 1.556258,0.311 2.333979,0.997 2.333979,2.0577 v 7.577 z m 2.67041,2.7995 h 18.76128 v 27.4763 z" />
                <path
                   inkscape:connector-curvature="0"
                   id="path2028"
                   style="fill:#444041;fill-opacity:1;fill-rule:nonzero;stroke:none;stroke-width:0.80508476"
                   d="m -58.894172,1671.649 c -6.479412,0 -10.875946,2.6162 -13.190427,7.8481 -2.320176,5.2402 -3.482286,11.4373 -3.482286,18.6074 0,4.5462 0.412834,8.7972 1.238502,12.7532 0.828108,3.956 2.481895,7.3217 4.954842,10.0972 2.4762,2.7677 5.968236,4.1554 10.479369,4.1554 3.488781,0 6.346128,-0.8294 8.567961,-2.4805 2.221832,-1.6509 3.904879,-3.7963 5.04749,-6.4443 1.142612,-2.648 1.936591,-5.4873 2.383552,-8.5101 0.441282,-3.0228 0.663949,-6.213 0.663949,-9.5709 0,-4.4265 -0.429091,-8.5898 -1.285644,-12.4821 -0.857356,-3.892 -2.507889,-7.2019 -4.949149,-9.9057 -2.447755,-2.7118 -5.923544,-4.0677 -10.428159,-4.0677 z m 0,1.962 c 2.917481,0 5.107615,1.4836 6.567982,4.4426 1.460367,2.959 2.349425,6.245 2.663113,9.8659 0.317757,3.6051 0.476222,7.4415 0.476222,11.4852 0,3.868 -0.158465,7.4493 -0.476222,10.7511 -0.313688,3.302 -1.187302,6.2929 -2.612728,8.9728 -1.431108,2.6798 -3.637497,4.0197 -6.618367,4.0197 -2.987377,0 -5.209209,-1.356 -6.669578,-4.0676 -1.457114,-2.7038 -2.349423,-5.6947 -2.669609,-8.9728 -0.317756,-3.2699 -0.476234,-6.8352 -0.476234,-10.7032 0,-2.9272 0.06661,-5.6709 0.196673,-8.223 0.126777,-2.5523 0.504669,-5.1843 1.139357,-7.896 0.635514,-2.7118 1.631836,-5.0008 3.000369,-6.867 1.364477,-1.8744 3.190547,-2.8077 5.479022,-2.8077" />
                <path
                   inkscape:connector-curvature="0"
                   id="path2030"
                   style="fill:#444041;fill-opacity:1;fill-rule:nonzero;stroke:none;stroke-width:0.80508476"
                   d="m -18.267244,1671.649 c -6.472904,0 -10.869438,2.6162 -13.189614,7.8481 -2.314481,5.2402 -3.473349,11.4373 -3.473349,18.6074 0,4.5462 0.412845,8.7972 1.238513,12.7532 0.824854,3.956 2.476201,7.3217 4.954843,10.0972 2.472946,2.7677 5.964981,4.1554 10.469607,4.1554 3.495289,0 6.355064,-0.8294 8.5777228,-2.4805 2.2185783,-1.6509 3.9016144,-3.7963 5.0474786,-6.4443 1.1393691,-2.648 1.933336,-5.4873 2.3746172,-8.5101 0.4469743,-3.0228 0.6728958,-6.213 0.6728958,-9.5709 0,-4.4265 -0.4290909,-8.5898 -1.2888994,-12.4821 -0.8573676,-3.892 -2.5078888,-7.2019 -4.955656,-9.9057 -2.441247,-2.7118 -5.917036,-4.0677 -10.428159,-4.0677 z m 0,1.962 c 2.923978,0 5.114123,1.4836 6.571236,4.4426 1.463622,2.959 2.3526781,6.245 2.6696211,9.8659 0.3177567,3.6051 0.4762226,7.4415 0.4762226,11.4852 0,3.868 -0.1584659,7.4493 -0.4762226,10.7511 -0.316943,3.302 -1.1905561,6.2929 -2.6216761,8.9728 -1.425413,2.6798 -3.631814,4.0197 -6.619181,4.0197 -2.98087,0 -5.202702,-1.356 -6.659817,-4.0676 -1.463621,-2.7038 -2.352677,-5.6947 -2.669621,-8.9728 -0.317756,-3.2699 -0.476221,-6.8352 -0.476221,-10.7032 0,-2.9272 0.06342,-5.6709 0.190166,-8.223 0.123523,-2.5523 0.50791,-5.1843 1.145864,-7.896 0.632248,-2.7118 1.631836,-5.0008 2.997115,-6.867 1.364477,-1.8744 3.190546,-2.8077 5.472514,-2.8077" />
                <path
                   inkscape:connector-curvature="0"
                   id="path2032"
                   style="fill:#444041;fill-opacity:1;fill-rule:nonzero;stroke:none;stroke-width:0.80508476"
                   d="m -112.48236,1862.835 c 0.5713,-1.5553 1.41242,-2.959 2.52334,-4.2032 1.10766,-1.2443 2.44125,-2.2093 3.9967,-2.8952 1.55871,-0.6858 3.16209,-1.0288 4.80937,-1.0288 3.812234,0 6.431469,1.4594 7.856883,4.3865 1.43192,2.9351 2.146254,6.4524 2.146254,10.5679 0,1.8025 -0.03254,3.318 -0.09914,4.5302 -0.06012,1.2203 -0.218601,2.4165 -0.472968,3.597 -0.507924,1.8106 -1.380723,3.3976 -2.615169,4.7696 -1.241755,1.3718 -2.749254,2.0577 -4.530633,2.0577 -1.774057,0 -3.297797,-0.2633 -4.571257,-0.7977 -1.26613,-0.5342 -2.29822,-1.1485 -3.08813,-1.8662 -0.79724,-0.7179 -1.51157,-1.4675 -2.14627,-2.2412 -0.63468,-0.7817 -1.01583,-1.2044 -1.14587,-1.2682 h -0.85412 c -0.12351,0 -0.29824,0.08 -0.52335,0.2393 -0.22266,0.1516 -0.334,0.3271 -0.334,0.5104 v 25.985 c 0,0.1275 0.0959,0.2472 0.28605,0.3749 0.19017,0.1195 0.38116,0.1834 0.5713,0.1834 h 0.19018 c 3.55542,-1.6829 7.33352,-2.5284 11.330224,-2.5284 3.936569,0 7.7171,0.8455 11.335912,2.5284 h 0.286069 c 0.126765,0 0.269799,-0.063 0.428265,-0.1834 0.158477,-0.1277 0.238124,-0.2474 0.238124,-0.3749 v -0.7419 c 0,-0.2552 -0.03171,-0.3827 -0.09832,-0.3827 -1.841501,-2.3688 -4.126722,-4.2033 -6.857293,-5.5113 -2.726501,-1.3079 -5.520459,-1.962 -8.380241,-1.962 -2.15845,0 -4.34941,0.2792 -6.57124,0.8454 v -14.6752 c 1.78056,1.3638 3.35226,2.3448 4.71755,2.943 1.36446,0.5902 3.12633,0.8853 5.285585,0.8853 2.919922,0 5.539157,-0.8136 7.856079,-2.4327 2.31447,-1.619 4.092594,-3.7486 5.333536,-6.3965 1.2377,-2.6478 1.856956,-5.3756 1.856956,-8.183 0,-3.1186 -0.777734,-5.9978 -2.333178,-8.6457 -1.555446,-2.648 -3.682202,-4.7536 -6.38107,-6.3087 -2.698068,-1.5554 -5.602546,-2.337 -8.716688,-2.337 -2.59973,0 -4.99385,0.6541 -7.18399,1.962 -2.19014,1.3081 -3.92357,3.0708 -5.19377,5.288 -1.26939,2.2092 -1.90084,4.5861 -1.90084,7.1462 0,1.1166 0.39659,2.0578 1.18731,2.7995 0.79317,0.7497 1.75863,1.1245 2.90124,1.1245 1.14586,0 2.11375,-0.3748 2.90772,-1.1245 0.79073,-0.7417 1.18732,-1.6829 1.18732,-2.7995 0,-1.1246 -0.39659,-2.0738 -1.18732,-2.8554 -0.79397,-0.7735 -1.76186,-1.1643 -2.90772,-1.1643 -0.18773,0 -0.3909,0.017 -0.616,0.048 -0.22187,0.032 -0.39659,0.072 -0.52337,0.1356" />
                <path
                   inkscape:connector-curvature="0"
                   id="path2034"
                   style="fill:#444041;fill-opacity:1;fill-rule:nonzero;stroke:none;stroke-width:0.80508476"
                   d="m -58.894172,1852.2751 c -6.479412,0 -10.875946,2.6161 -13.190427,7.8481 -2.320176,5.2401 -3.482286,11.4372 -3.482286,18.6074 0,4.5462 0.412834,8.7971 1.238502,12.7532 0.828108,3.9559 2.481895,7.3217 4.954842,10.0971 2.4762,2.7678 5.968236,4.1555 10.479369,4.1555 3.488781,0 6.346128,-0.8216 8.567961,-2.4724 2.221832,-1.6511 3.904879,-3.8045 5.04749,-6.4525 1.142612,-2.6479 1.936591,-5.4793 2.383552,-8.5021 0.441282,-3.0308 0.663949,-6.2211 0.663949,-9.5788 0,-4.4267 -0.429091,-8.5898 -1.285644,-12.4821 -0.857356,-3.8921 -2.507889,-7.1941 -4.949149,-9.9137 -2.447755,-2.7038 -5.923544,-4.0597 -10.428159,-4.0597 z m 0,1.962 c 2.917481,0 5.107615,1.4835 6.567982,4.4426 1.460367,2.959 2.349425,6.2449 2.663113,9.866 0.317757,3.6129 0.476222,7.4412 0.476222,11.4848 0,3.8683 -0.158465,7.4495 -0.476222,10.7514 -0.313688,3.302 -1.187302,6.2928 -2.612728,8.9727 -1.431108,2.6799 -3.637497,4.0198 -6.618367,4.0198 -2.987377,0 -5.209209,-1.3559 -6.669578,-4.0676 -1.457114,-2.7118 -2.349423,-5.7028 -2.669609,-8.9728 -0.317756,-3.2699 -0.476234,-6.8352 -0.476234,-10.7035 0,-2.9269 0.06661,-5.6626 0.196673,-8.2229 0.126777,-2.5521 0.504669,-5.1841 1.139357,-7.8959 0.635514,-2.7117 1.631836,-5.0008 3.000369,-6.8672 1.364477,-1.8742 3.190547,-2.8074 5.479022,-2.8074" />
                <path
                   inkscape:connector-curvature="0"
                   id="path2036"
                   style="fill:#444041;fill-opacity:1;fill-rule:nonzero;stroke:none;stroke-width:0.80508476"
                   d="m -18.267244,1852.2751 c -6.472904,0 -10.869438,2.6161 -13.189614,7.8481 -2.314481,5.2401 -3.473349,11.4372 -3.473349,18.6074 0,4.5462 0.412845,8.7971 1.238513,12.7532 0.824854,3.9559 2.476201,7.3217 4.954843,10.0971 2.472946,2.7678 5.964981,4.1555 10.469607,4.1555 3.495289,0 6.355064,-0.8216 8.5777228,-2.4724 2.2185783,-1.6511 3.9016144,-3.8045 5.0474786,-6.4525 1.1393691,-2.6479 1.933336,-5.4793 2.3746172,-8.5021 0.4469743,-3.0308 0.6728958,-6.2211 0.6728958,-9.5788 0,-4.4267 -0.4290909,-8.5898 -1.2888994,-12.4821 -0.8573676,-3.8921 -2.5078888,-7.1941 -4.955656,-9.9137 -2.441247,-2.7038 -5.917036,-4.0597 -10.428159,-4.0597 z m 0,1.962 c 2.923978,0 5.114123,1.4835 6.571236,4.4426 1.463622,2.959 2.3526781,6.2449 2.6696211,9.866 0.3177567,3.6129 0.4762226,7.4412 0.4762226,11.4848 0,3.8683 -0.1584659,7.4495 -0.4762226,10.7514 -0.316943,3.302 -1.1905561,6.2928 -2.6216761,8.9727 -1.425413,2.6799 -3.631814,4.0198 -6.619181,4.0198 -2.98087,0 -5.202702,-1.3559 -6.659817,-4.0676 -1.463621,-2.7118 -2.352677,-5.7028 -2.669621,-8.9728 -0.317756,-3.2699 -0.476221,-6.8352 -0.476221,-10.7035 0,-2.9269 0.06342,-5.6626 0.190166,-8.2229 0.123523,-2.5521 0.50791,-5.1841 1.145864,-7.8959 0.632248,-2.7117 1.631836,-5.0008 2.997115,-6.8672 1.364477,-1.8742 3.190546,-2.8074 5.472514,-2.8074" />
                <path
                   inkscape:connector-curvature="0"
                   id="path2038"
                   style="fill:#444041;fill-opacity:1;fill-rule:nonzero;stroke:none;stroke-width:0.80508476"
                   d="m -175.90269,1240.3296 h -3.23476 c 0,6.103 -0.95236,9.1561 -2.86027,9.1561 h -50.28387 c -1.90464,0 -2.85701,-3.0531 -2.85701,-9.1561 h -3.23801 v 49.4399 l 20.94849,2.4333 v -2.5235 c -3.8062,-0.4395 -6.82194,-1.0002 -9.0441,-1.682 -2.22216,-0.686 -3.96811,-1.6829 -5.23474,-2.991 -1.27296,-1.3119 -2.16184,-3.0721 -2.66977,-5.2815 -0.50792,-2.2115 -0.76187,-5.2518 -0.76187,-9.1154 v -8.1288 c 0,-1.1214 0.0477,-1.9779 0.14603,-2.573 0.0921,-0.5886 0.34605,-1.0718 0.76189,-1.4491 0.40949,-0.3734 1.06028,-0.5608 1.94909,-0.5608 h 23.52302 v 6.359 c 0,3.0499 -0.26989,5.2935 -0.80633,6.7291 -0.5397,1.4301 -1.54285,2.412 -3.00305,2.9415 -1.46029,0.5327 -3.74591,0.7975 -6.8569,0.7975 v 2.6137 h 24.57364 v -2.6137 c -3.11098,0 -5.39661,-0.2648 -6.85689,-0.7975 -1.46337,-0.5295 -2.46336,-1.5114 -3.00621,-2.9415 -0.53646,-1.4356 -0.80317,-3.6792 -0.80317,-6.7291 v -6.359 h 23.51976 c 1.90791,0 2.86027,3.8324 2.86027,11.4962 h 3.23476 v -29.0643" />
                <path
                   inkscape:connector-curvature="0"
                   id="path2040"
                   style="fill:#444041;fill-opacity:1;fill-rule:nonzero;stroke:none;stroke-width:0.80508476"
                   d="m -174.85191,1309.9146 c 0,-3.6138 -0.93962,-6.9477 -2.81257,-10.0008 -1.87297,-3.0564 -4.36493,-5.4706 -7.4759,-7.2435 -3.11106,-1.7762 -6.50777,-2.6639 -10.19331,-2.6639 -2.79038,0 -5.48868,0.4832 -8.09174,1.4483 -2.60314,0.9659 -4.9173,2.368 -6.94896,4.2064 -2.03168,1.8385 -3.62214,3.9719 -4.76809,6.399 -1.13969,2.4333 -1.71107,5.0502 -1.71107,7.8545 0,3.676 0.98413,7.0289 2.95543,10.0509 1.96819,3.0189 4.6157,5.402 7.94895,7.1471 3.33641,1.7442 6.87274,2.6136 10.61548,2.6136 3.62207,0 7.00293,-0.8877 10.14886,-2.6606 3.14275,-1.7763 5.64738,-4.1905 7.52035,-7.2436 1.87295,-3.0531 2.81257,-6.3527 2.81257,-9.9074 z m -2.6697,0 c 0,4.7982 -1.77772,7.9916 -5.33315,9.5835 -3.55542,1.5857 -8.06321,2.38 -13.5202,2.38 -3.0475,0 -5.5871,-0.1555 -7.61876,-0.4675 -2.03168,-0.3085 -3.87286,-0.9968 -5.52672,-2.0561 -0.95237,-0.685 -1.80949,-1.5424 -2.57453,-2.5736 -0.75871,-1.025 -1.34603,-2.112 -1.76186,-3.2645 -0.40952,-1.1565 -0.61269,-2.3553 -0.61269,-3.6018 0,-1.8695 0.42861,-3.6449 1.28565,-5.331 0.85711,-1.6821 2.07612,-3.0843 3.66343,-4.2025 1.7777,-1.1214 3.70138,-1.8224 5.76483,-2.1 2.06028,-0.2831 4.52047,-0.4267 7.38065,-0.4267 3.42532,0 6.50452,0.2831 9.2346,0.8447 2.73007,0.5638 5.01572,1.7315 6.85689,3.5044 1.84118,1.7763 2.76186,4.346 2.76186,7.7111" />
                <path
                   inkscape:connector-curvature="0"
                   id="path2042"
                   style="fill:#444041;fill-opacity:1;fill-rule:nonzero;stroke:none;stroke-width:0.80508476"
                   d="m -175.90269,1333.6862 h -3.23476 c 0,2.0593 -0.15871,3.7413 -0.47622,5.0502 -0.32059,1.308 -1.11425,1.9596 -2.38405,1.9596 h -24.95144 c -1.65068,0 -2.84118,-0.2496 -3.57127,-0.748 -0.72693,-0.4987 -1.17139,-1.1997 -1.3301,-2.1024 -0.16196,-0.9037 -0.24444,-2.2876 -0.24444,-4.1594 h -3.23484 l -0.95236,12.8074 h 8.95528 c -2.66978,0.997 -4.83156,2.3839 -6.47916,4.1562 -1.6507,1.776 -2.47612,3.9416 -2.47612,6.4962 0,1.7443 0.54286,3.3178 1.62217,4.72 1.07622,1.402 2.47294,2.1 4.18719,2.1 1.14277,0 2.11099,-0.3901 2.90781,-1.1653 0.79048,-0.7792 1.18723,-1.7259 1.18723,-2.8481 0,-1.1246 -0.39675,-2.0745 -1.18723,-2.8537 -0.79682,-0.7753 -1.76504,-1.1653 -2.90781,-1.1653 -1.65077,0 -2.79038,0.5606 -3.42531,1.6797 v -0.4673 c 0,-2.4303 0.88889,-4.409 2.66343,-5.9324 1.7809,-1.5266 3.98711,-2.6169 6.61879,-3.2709 2.63483,-0.6549 5.15541,-0.9818 7.57114,-0.9818 h 15.04704 c 1.90791,0 2.86027,2.8976 2.86027,8.6895 h 3.23476 v -21.9642" />
                <path
                   inkscape:connector-curvature="0"
                   id="path2044"
                   style="fill:#444041;fill-opacity:1;fill-rule:nonzero;stroke:none;stroke-width:0.80508476"
                   d="m -174.85191,1388.0487 c 0,-3.6108 -0.97139,-6.8983 -2.90782,-9.8581 -1.93642,-2.959 -4.49195,-5.2807 -7.66956,-6.9628 -3.17135,-1.682 -6.56799,-2.5234 -10.18379,-2.5234 -3.61891,0 -7.08225,0.8414 -10.38688,2.5234 -3.2983,1.6821 -5.92997,4.0038 -7.89816,6.9628 -1.9713,2.9598 -2.95543,6.2473 -2.95543,9.8581 0,3.4893 0.6984,6.6827 2.09513,9.5828 1.39999,2.8944 3.68562,4.3435 6.8569,4.3435 1.20633,0 2.24125,-0.4211 3.09829,-1.2617 0.85712,-0.8415 1.28574,-1.8535 1.28574,-3.0347 0,-1.1837 -0.42862,-2.1966 -1.28574,-3.038 -0.85704,-0.8408 -1.89196,-1.2619 -3.09829,-1.2619 -1.07931,0 -2.01575,0.328 -2.8094,0.9819 -0.7904,0.654 -1.28247,1.4794 -1.47296,2.4764 -1.33327,-2.0592 -1.9999,-4.9561 -1.9999,-8.6919 0,-2.8664 0.96505,-5.1714 2.90148,-6.9165 1.93642,-1.7444 4.33314,-2.9781 7.19015,-3.6951 2.85711,-0.7131 5.68235,-1.0712 8.47907,-1.0712 2.91739,0 5.75857,0.4354 8.52034,1.3048 2.76503,0.8726 5.05066,2.2588 6.85689,4.1625 1.8095,1.8975 2.71424,4.3117 2.71424,7.2436 0,2.8042 -0.8889,5.2025 -2.66344,7.1965 -1.78089,1.9939 -4.09828,3.365 -6.95531,4.1099 -0.38406,0 -0.57456,0.2176 -0.57456,0.6571 v 1.1182 c 0,0.1875 0.0825,0.343 0.24445,0.4675 0.15872,0.1275 0.36505,0.1907 0.61584,0.1907 h 0.19049 c 3.61891,-0.8727 6.49176,-2.6487 8.61551,-5.328 2.13009,-2.679 3.19672,-5.8604 3.19672,-9.5364" />
                <path
                   inkscape:connector-curvature="0"
                   id="path2046"
                   style="fill:#444041;fill-opacity:1;fill-rule:nonzero;stroke:none;stroke-width:0.80508476"
                   d="m -174.85191,1427.0452 c 0,-3.676 -0.98724,-7.0284 -2.95861,-10.0503 -1.96504,-3.022 -4.56809,-5.4058 -7.80609,-7.1471 -3.238,-1.7482 -6.6664,-2.6199 -10.28212,-2.6199 -3.62215,0 -7.0347,0.7943 -10.24093,2.3862 -3.20622,1.5857 -5.79027,3.7981 -7.75846,6.6328 -1.9713,2.8352 -2.95543,5.9976 -2.95543,9.487 0,2.8035 0.46029,5.2186 1.38404,7.2435 0.91743,2.0282 2.21899,3.6951 3.89829,5 1.68246,1.3088 3.65385,2.2906 5.90771,2.9446 2.25393,0.6541 4.74907,0.981 7.47915,0.981 0.75871,0 1.1396,-0.2799 1.1396,-0.8438 v -25.9776 h 1.04762 c 5.0157,0 9.34885,0.9969 12.99951,2.9908 3.65069,1.994 5.47602,5.2624 5.47602,9.8077 0,1.8074 -0.42861,3.4894 -1.2889,5.0503 -0.85711,1.5576 -2.01256,2.9166 -3.47285,4.0691 -1.45712,1.1495 -3.04435,1.9438 -4.75858,2.3801 -0.19367,0.062 -0.38407,0.1714 -0.57457,0.3269 -0.19048,0.1564 -0.28573,0.3279 -0.28573,0.5145 v 0.8382 c 0,0.5639 0.41267,0.8438 1.2381,0.8438 3.4284,-0.8094 6.25373,-2.6168 8.47581,-5.4209 2.22216,-2.8004 3.33642,-5.9476 3.33642,-9.4369 z m -24.47849,-11.8759 v 20.3812 c -2.28561,0 -4.59979,-0.3144 -6.94895,-0.9405 -2.35228,-0.6204 -4.30455,-1.6637 -5.85691,-3.1281 -1.55552,-1.461 -2.33326,-3.3768 -2.33326,-5.748 0,-3.3649 1.619,-5.9666 4.85699,-7.8042 3.23793,-1.8385 6.66641,-2.7604 10.28213,-2.7604" />
                <path
                   inkscape:connector-curvature="0"
                   id="path2048"
                   style="fill:#444041;fill-opacity:1;fill-rule:nonzero;stroke:none;stroke-width:0.80508476"
                   d="m -153.04672,1483.5019 h -91.42486 v 12.3401 h 3.62211 v -8.6919 h 84.18394 v 8.6919 h 3.61881 v -12.3401" />
                <path
                   inkscape:connector-curvature="0"
                   id="path2050"
                   style="fill:#444041;fill-opacity:1;fill-rule:nonzero;stroke:none;stroke-width:0.80508476"
                   d="m -175.90269,1500.117 h -3.23476 c 0,6.1062 -1.77772,9.1593 -5.33313,9.1593 h -50.09663 c -0.3809,-1.935 -0.57139,-4.988 -0.57139,-9.1593 h -3.23801 v 17.1064 c 0,0.3109 0.12703,0.5263 0.37782,0.646 l 47.62044,31.7832 h -39.3287 c -3.62206,0 -5.43155,-3.0866 -5.43155,-9.2519 h -3.23801 v 21.3032 h 3.23801 c 0,-6.1015 1.80949,-9.1562 5.43155,-9.1562 h 53.04248 c 0.12701,0 0.28573,-0.1195 0.47622,-0.3669 0.19049,-0.2552 0.28566,-0.4465 0.28566,-0.5662 v -1.1245 c 0,-0.3111 -0.12695,-0.4945 -0.38407,-0.5583 l -56.4678,-37.765 h 48.28398 c 3.55541,0 5.33313,3.0866 5.33313,9.2597 h 3.23476 v -21.3095" />
                <path
                   inkscape:connector-curvature="0"
                   id="path2052"
                   style="fill:#444041;fill-opacity:1;fill-rule:nonzero;stroke:none;stroke-width:0.80508476"
                   d="m -153.04672,1565.0776 h -3.61881 v 8.6856 h -84.18394 v -8.6856 h -3.62211 v 12.3304 h 91.42486 v -12.3304" />
                <path
                   inkscape:connector-curvature="0"
                   id="path2068"
                   style="fill:none;stroke:#002dff;stroke-width:11.83494091;stroke-linecap:butt;stroke-linejoin:round;stroke-miterlimit:10;stroke-dasharray:none;stroke-opacity:1"
                   d="m 35.067394,973.27712 43.096623,2.44217 47.024263,180.55341 43.09665,168.2501 47.01694,0.9914 43.10638,3.6977 47.0145,5.5645 43.10638,133.5654 47.01695,1.7354 43.09664,2.7318 47.02426,2.281 43.09663,-0.4801 47.02102,-6.1405 43.0958,-208.9326 43.10392,-240.3307 43.10393,-4.4026 47.01288,-4.4082 43.10405,-3.8228 47.02102,-4.8508 43.09579,-3.86027 47.02102,-3.857 43.09576,-4.36752 47.0211,-2.89439 43.0958,-3.34341 47.021,-2.98438 43.1039,-2.82902 47.0128,-4.7575 43.1039,-2.99096 47.021,-2.86009 43.1039,-2.95345 47.013,0.99379 23.673,0.81355" />
                <path
                   inkscape:connector-curvature="0"
                   id="path2070"
                   style="fill:none;stroke:#0d0d0d;stroke-width:11.83494091;stroke-linecap:butt;stroke-linejoin:round;stroke-miterlimit:10;stroke-dasharray:none;stroke-opacity:1"
                   d="m 35.067394,970.24562 47.016943,0.93156 43.103943,533.65982 47.01695,-172.9709 43.09664,0.39 47.02425,3.6975 43.09663,168.4344 47.01694,-10.8327 43.10639,-1.4427 47.01451,-2.8569 43.10639,-4.7631 43.09663,-126.4311 47.02102,-6.1716 43.0958,-169.3691 47.021,-7.8129 43.0958,-208.79869 47.02101,-1.93172 43.10394,-1.99397 47.01288,-1.31516 43.10404,-2.34564 47.02102,-0.93155 43.10395,-0.90373 47.01283,-0.4139 43.1039,0.54476 43.0959,0.0966 47.021,0.54239 43.0957,0.55114 47.0209,1.05911 h 43.104 47.0129 l 43.104,1.51464 23.673,0.72253" />
              </g>
            </g>
          </g>
        </g>
      </g>
    </g>
    <g
       ns0:jacobian_sqrt="2.472542"
       ns0:alignment="middle center"
       ns0:scale="7.00877915576"
       ns0:preamble="C:\\Users\\shadylady\\AppData\\Roaming\\inkscape\\extensions\\default_packages.tex"
       ns0:text="$\\int Fdt = 33.2$ [Ns]"
       ns0:pdfconverter="pstoedit"
       ns0:texconverter="pdflatex"
       ns0:version="0.8.0"
       word-spacing="normal"
       letter-spacing="normal"
       font-size-adjust="none"
       font-stretch="normal"
       font-weight="normal"
       font-variant="normal"
       font-style="normal"
       stroke-miterlimit="10.433"
       xml:space="preserve"
       transform="matrix(1.4301332,0,0,-1.4301332,-180.91287,965.84962)"
       id="content"
       style="font-style:normal;font-variant:normal;font-weight:normal;font-stretch:normal;letter-spacing:normal;word-spacing:normal;text-anchor:start;fill:none;fill-opacity:1;fill-rule:evenodd;stroke:#000000;stroke-linecap:butt;stroke-linejoin:miter;stroke-miterlimit:10.43299961;stroke-dasharray:none;stroke-dashoffset:0;stroke-opacity:1">
<path
   id="path46081"
   d="m 151.42,656.52 v -0.08 l -0.01,-0.07 -0.01,-0.14 -0.02,-0.14 -0.02,-0.13 -0.01,-0.12 -0.02,-0.12 -0.02,-0.11 -0.03,-0.1 -0.02,-0.1 -0.02,-0.09 -0.03,-0.09 -0.03,-0.08 -0.03,-0.08 -0.03,-0.07 -0.03,-0.07 -0.03,-0.06 -0.03,-0.06 -0.04,-0.05 -0.03,-0.05 -0.04,-0.04 -0.04,-0.04 -0.04,-0.03 -0.04,-0.03 -0.05,-0.03 -0.04,-0.03 -0.05,-0.02 -0.04,-0.01 -0.05,-0.01 -0.05,-0.01 -0.05,-0.01 -0.05,-0.01 h -0.05 c -0.13,0 -0.43,0.03 -0.64,0.21 0.29,0.04 0.37,0.27 0.37,0.41 0,0.29 -0.22,0.42 -0.41,0.42 -0.2,0 -0.42,-0.13 -0.42,-0.43 0,-0.48 0.5,-0.83 1.1,-0.83 0.95,0 1.42,0.87 1.64,1.76 0.13,0.52 0.49,3.41 0.57,4.51 l 0.19,2.48 c 0.14,1.82 0.48,2.07 0.93,2.07 0.1,0 0.41,-0.02 0.63,-0.21 -0.29,-0.04 -0.37,-0.26 -0.37,-0.4 0,-0.29 0.22,-0.42 0.41,-0.42 0.2,0 0.42,0.13 0.42,0.43 0,0.47 -0.5,0.82 -1.1,0.82 -0.95,0 -1.34,-0.96 -1.51,-1.72 -0.12,-0.54 -0.48,-3.34 -0.57,-4.55 z"
   inkscape:connector-curvature="0"
   style="fill:#000000;stroke-width:0" />
<path
   id="path46083"
   d="M 160.04,660.46 H 161 c 0.75,0 0.83,-0.16 0.83,-0.44 0,-0.07 0,-0.19 -0.07,-0.49 -0.02,-0.05 -0.03,-0.09 -0.03,-0.11 0,-0.08 0.06,-0.12 0.12,-0.12 0.1,0 0.1,0.03 0.15,0.21 l 0.55,2.15 c 0.03,0.12 0.03,0.13 0.03,0.16 0,0.02 -0.02,0.11 -0.12,0.11 -0.1,0 -0.11,-0.05 -0.15,-0.21 -0.21,-0.77 -0.44,-0.95 -1.29,-0.95 h -0.9 l 0.63,2.52 c 0.09,0.35 0.1,0.39 0.54,0.39 h 1.32 c 1.23,0 1.45,-0.33 1.45,-1.09 0,-0.23 0,-0.27 -0.03,-0.54 -0.02,-0.13 -0.02,-0.15 -0.02,-0.18 0,-0.05 0.03,-0.11 0.12,-0.11 0.11,0 0.12,0.06 0.14,0.24 l 0.2,1.72 c 0.03,0.27 -0.02,0.27 -0.27,0.27 h -4.88 c -0.2,0 -0.3,0 -0.3,-0.2 0,-0.11 0.09,-0.11 0.28,-0.11 0.37,0 0.65,0 0.65,-0.18 0,-0.04 0,-0.06 -0.05,-0.23 l -1.32,-5.26 c -0.1,-0.39 -0.12,-0.47 -0.91,-0.47 -0.17,0 -0.28,0 -0.28,-0.19 0,-0.12 0.12,-0.12 0.15,-0.12 0.29,0 1.03,0.04 1.32,0.04 0.33,0 1.16,-0.04 1.49,-0.04 0.08,0 0.2,0 0.2,0.19 0,0.08 -0.06,0.1 -0.06,0.11 -0.03,0.01 -0.05,0.01 -0.28,0.01 -0.21,0 -0.26,0 -0.51,0.02 -0.29,0.03 -0.32,0.07 -0.32,0.2 0,0.02 0,0.08 0.04,0.23 z"
   inkscape:connector-curvature="0"
   style="fill:#000000;stroke-width:0" />
<path
   id="path46085"
   d="m 169.95,664.02 v 0 0 0 0.01 0 0 0 0.01 0 0.01 0 0 l -0.01,0.01 v 0 0.01 0 l -0.01,0.01 v 0 0.01 h -0.01 v 0.01 0 h -0.01 v 0 0.01 0 h -0.01 v 0 0 l -0.01,0.01 v 0 0 h -0.01 v 0 h -0.01 v 0 h -0.01 v 0.01 h -0.01 v 0 h -0.01 v 0 h -0.01 v 0 h -0.01 c -0.15,0 -1.09,-0.09 -1.27,-0.11 -0.07,-0.01 -0.13,-0.06 -0.13,-0.19 0,-0.12 0.09,-0.12 0.23,-0.12 0.48,0 0.5,-0.07 0.5,-0.17 l -0.03,-0.2 -0.6,-2.35 c -0.17,0.37 -0.46,0.64 -0.91,0.64 -1.17,0 -2.4,-1.47 -2.4,-2.91 0,-0.94 0.54,-1.59 1.32,-1.59 l 0.02,0.21 c -0.5,0 -0.64,0.55 -0.64,0.94 0,0.5 0.32,1.72 0.55,2.17 0.31,0.59 0.76,0.96 1.16,0.96 0.65,0 0.79,-0.82 0.79,-0.88 0,-0.06 -0.02,-0.12 -0.03,-0.17 l -0.5,-1.94 c -0.05,-0.18 -0.05,-0.2 -0.2,-0.37 -0.44,-0.55 -0.85,-0.71 -1.13,-0.71 l -0.02,-0.21 c 0.2,0 0.7,0.03 1.3,0.74 0.08,-0.42 0.43,-0.74 0.91,-0.74 0.34,0 0.57,0.22 0.73,0.54 0.17,0.36 0.3,0.97 0.3,0.99 0,0.1 -0.09,0.1 -0.12,0.1 -0.1,0 -0.11,-0.04 -0.14,-0.18 -0.17,-0.65 -0.35,-1.24 -0.75,-1.24 -0.27,0 -0.3,0.26 -0.3,0.46 0,0.24 0.02,0.31 0.05,0.48 z"
   inkscape:connector-curvature="0"
   style="fill:#000000;stroke-width:0" />
<path
   id="path46087"
   d="m 172.05,661.21 h 0.93 c 0.2,0 0.3,0 0.3,0.2 0,0.11 -0.1,0.11 -0.28,0.11 h -0.87 c 0.35,1.41 0.4,1.61 0.4,1.66 0,0.17 -0.12,0.27 -0.29,0.27 -0.03,0 -0.3,-0.01 -0.39,-0.35 l -0.39,-1.58 h -0.94 c -0.2,0 -0.3,0 -0.3,-0.19 0,-0.12 0.08,-0.12 0.28,-0.12 h 0.88 c -0.72,-2.82 -0.76,-2.99 -0.76,-3.17 0,-0.54 0.38,-0.91 0.92,-0.91 1.01,0 1.58,1.45 1.58,1.53 0,0.1 -0.08,0.1 -0.12,0.1 -0.09,0 -0.1,-0.04 -0.15,-0.14 -0.43,-1.04 -0.95,-1.28 -1.29,-1.28 -0.21,0 -0.31,0.13 -0.31,0.46 0,0.24 0.02,0.31 0.06,0.48 z"
   inkscape:connector-curvature="0"
   style="fill:#000000;stroke-width:0" />
<path
   id="path46089"
   d="m 183.21,660.48 h 0.02 0.03 0.03 l 0.02,0.01 h 0.01 0.02 0.01 0.01 0.02 l 0.01,0.01 h 0.02 0.01 l 0.01,0.01 h 0.01 l 0.02,0.01 h 0.01 l 0.01,0.01 0.01,0.01 0.01,0.01 0.01,0.01 v 0.01 h 0.01 v 0.01 0 l 0.01,0.01 v 0.01 0 0.01 l 0.01,0.01 v 0 0.01 0.01 0.01 0.01 0 0.01 0.01 c 0,0.2 -0.19,0.2 -0.32,0.2 h -5.98 c -0.14,0 -0.33,0 -0.33,-0.2 0,-0.2 0.19,-0.2 0.34,-0.2 z"
   inkscape:connector-curvature="0"
   style="fill:#000000;stroke-width:0" />
<path
   id="path46091"
   d="m 183.22,658.56 h 0.01 0.01 0.03 0.03 0.01 0.02 0.01 0.01 0.02 l 0.01,0.01 h 0.01 0.02 l 0.01,0.01 h 0.01 l 0.01,0.01 h 0.02 l 0.01,0.01 h 0.01 l 0.01,0.01 0.01,0.01 0.01,0.01 v 0 0.01 l 0.01,0.01 v 0 0.01 h 0.01 v 0.01 0.01 0 l 0.01,0.01 v 0.01 0 0.01 0.01 0.01 0.01 0.01 0.01 c 0,0.19 -0.19,0.19 -0.33,0.19 h -5.96 c -0.15,0 -0.34,0 -0.34,-0.19 0,-0.2 0.19,-0.2 0.33,-0.2 z"
   inkscape:connector-curvature="0"
   style="fill:#000000;stroke-width:0" />
<path
   id="path46093"
   d="m 189.76,660.73 0.08,0.03 0.08,0.03 0.07,0.03 0.07,0.03 0.07,0.04 0.07,0.04 0.06,0.04 0.07,0.04 0.06,0.04 0.06,0.05 0.06,0.05 0.06,0.05 0.05,0.05 0.05,0.05 0.05,0.06 0.05,0.05 0.05,0.06 0.04,0.06 0.04,0.06 0.04,0.06 0.03,0.07 0.03,0.06 0.03,0.07 0.03,0.06 0.02,0.07 0.02,0.07 0.02,0.07 0.02,0.07 0.01,0.07 0.01,0.07 v 0.08 0.07 c 0,0.81 -0.88,1.37 -1.83,1.37 -1.01,0 -1.77,-0.59 -1.77,-1.35 0,-0.33 0.22,-0.52 0.51,-0.52 0.31,0 0.51,0.22 0.51,0.51 0,0.5 -0.47,0.5 -0.62,0.5 0.31,0.48 0.97,0.61 1.33,0.61 0.41,0 0.95,-0.22 0.95,-1.11 0,-0.12 -0.02,-0.7 -0.28,-1.13 -0.29,-0.48 -0.63,-0.51 -0.88,-0.52 -0.08,-0.01 -0.32,-0.03 -0.39,-0.03 -0.08,-0.01 -0.15,-0.02 -0.15,-0.12 0,-0.11 0.07,-0.11 0.24,-0.11 h 0.44 c 0.82,0 1.18,-0.67 1.18,-1.65 0,-1.35 -0.68,-1.64 -1.12,-1.64 -0.43,0 -1.18,0.17 -1.53,0.76 0.35,-0.05 0.66,0.17 0.66,0.55 0,0.35 -0.27,0.55 -0.56,0.55 -0.24,0 -0.56,-0.14 -0.56,-0.57 0,-0.91 0.93,-1.56 2.02,-1.56 1.21,0 2.12,0.9 2.12,1.91 0,0.82 -0.63,1.59 -1.67,1.8 z"
   inkscape:connector-curvature="0"
   style="fill:#000000;stroke-width:0" />
<path
   id="path46095"
   d="m 194.75,660.73 0.07,0.03 0.08,0.03 0.07,0.03 0.07,0.03 0.07,0.04 0.07,0.04 0.07,0.04 0.06,0.04 0.06,0.04 0.06,0.05 0.06,0.05 0.06,0.05 0.05,0.05 0.05,0.05 0.05,0.06 0.05,0.05 0.05,0.06 0.04,0.06 0.04,0.06 0.04,0.06 0.03,0.07 0.03,0.06 0.03,0.07 0.03,0.06 0.02,0.07 0.02,0.07 0.02,0.07 0.02,0.07 0.01,0.07 0.01,0.07 v 0.08 0.07 c 0,0.81 -0.88,1.37 -1.83,1.37 -1.01,0 -1.77,-0.59 -1.77,-1.35 0,-0.33 0.22,-0.52 0.51,-0.52 0.31,0 0.51,0.22 0.51,0.51 0,0.5 -0.47,0.5 -0.62,0.5 0.31,0.48 0.97,0.61 1.33,0.61 0.41,0 0.96,-0.22 0.96,-1.11 0,-0.12 -0.02,-0.7 -0.28,-1.13 -0.3,-0.48 -0.64,-0.51 -0.89,-0.52 -0.08,-0.01 -0.32,-0.03 -0.39,-0.03 -0.08,-0.01 -0.15,-0.02 -0.15,-0.12 0,-0.11 0.07,-0.11 0.24,-0.11 h 0.44 c 0.82,0 1.18,-0.67 1.18,-1.65 0,-1.35 -0.68,-1.64 -1.12,-1.64 -0.43,0 -1.18,0.17 -1.53,0.76 0.35,-0.05 0.66,0.17 0.66,0.55 0,0.35 -0.27,0.55 -0.56,0.55 -0.24,0 -0.56,-0.14 -0.56,-0.57 0,-0.91 0.93,-1.56 2.02,-1.56 1.22,0 2.12,0.9 2.12,1.91 0,0.82 -0.63,1.59 -1.66,1.8 z"
   inkscape:connector-curvature="0"
   style="fill:#000000;stroke-width:0" />
<path
   id="path46097"
   d="m 198.75,657.76 v 0.03 0.03 l -0.01,0.02 v 0.03 l -0.01,0.02 -0.01,0.03 v 0.02 l -0.01,0.03 -0.01,0.02 -0.02,0.02 -0.01,0.02 -0.01,0.03 -0.02,0.02 -0.01,0.02 -0.02,0.01 -0.02,0.02 -0.02,0.02 -0.01,0.02 -0.02,0.01 -0.03,0.02 -0.02,0.01 -0.02,0.01 -0.02,0.02 -0.03,0.01 -0.02,0.01 h -0.02 l -0.03,0.01 -0.02,0.01 h -0.03 l -0.03,0.01 h -0.02 -0.03 c -0.29,0 -0.53,-0.24 -0.53,-0.53 0,-0.29 0.24,-0.53 0.53,-0.53 0.29,0 0.53,0.24 0.53,0.53 z"
   inkscape:connector-curvature="0"
   style="fill:#000000;stroke-width:0" />
<path
   id="path46099"
   d="m 200.87,658 1.05,1.02 c 1.56,1.37 2.16,1.91 2.16,2.9 0,1.14 -0.9,1.93 -2.12,1.93 -1.12,0 -1.86,-0.91 -1.86,-1.8 0,-0.55 0.5,-0.55 0.53,-0.55 0.17,0 0.52,0.12 0.52,0.52 0,0.26 -0.18,0.52 -0.53,0.52 -0.08,0 -0.1,0 -0.13,-0.01 0.23,0.64 0.77,1.01 1.35,1.01 0.9,0 1.33,-0.8 1.33,-1.62 0,-0.79 -0.5,-1.58 -1.05,-2.19 l -1.91,-2.13 c -0.11,-0.11 -0.11,-0.13 -0.11,-0.37 h 3.7 l 0.28,1.73 h -0.25 c -0.05,-0.3 -0.12,-0.73 -0.22,-0.88 C 203.54,658 202.88,658 202.66,658 Z"
   inkscape:connector-curvature="0"
   style="fill:#000000;stroke-width:0" />
<polygon
   id="polygon46101"
   points="209.08,654.75 210.44,654.75 210.44,655.15 209.48,655.15 209.48,664.29 210.44,664.29 210.44,664.68 209.08,664.68 "
   style="fill:#000000;stroke-width:0" />
<path
   id="path46103"
   d="m 212.98,663.89 -0.01,0.01 v 0.01 l -0.01,0.01 -0.01,0.01 -0.01,0.01 v 0.01 h -0.01 l -0.01,0.01 v 0.01 h -0.01 v 0.01 h -0.01 l -0.01,0.01 v 0 l -0.01,0.01 h -0.01 v 0 l -0.01,0.01 h -0.01 -0.01 -0.01 -0.01 l -0.01,0.01 h -0.01 -0.01 -0.01 -0.01 -0.02 -0.01 -0.01 v 0 h -0.01 -0.01 -0.01 -0.01 -1.69 v -0.31 h 0.29 c 0.14,0 0.34,-0.01 0.49,-0.02 0.23,-0.03 0.24,-0.04 0.24,-0.23 v -5.18 c 0,-0.27 0,-0.74 -1.02,-0.74 v -0.31 c 0.35,0.01 0.83,0.04 1.16,0.04 0.33,0 0.82,-0.03 1.17,-0.04 v 0.31 c -1.03,0 -1.03,0.47 -1.03,0.74 v 5.16 c 0.05,-0.05 0.06,-0.06 0.1,-0.12 l 4.07,-5.96 c 0.09,-0.12 0.1,-0.13 0.17,-0.13 0.14,0 0.14,0.07 0.14,0.26 v 5.49 c 0,0.26 0,0.73 1.03,0.73 v 0.31 c -0.35,-0.01 -0.84,-0.03 -1.17,-0.03 -0.33,0 -0.82,0.02 -1.17,0.03 v -0.31 c 1.03,0 1.03,-0.47 1.03,-0.73 v -4.25 z"
   inkscape:connector-curvature="0"
   style="fill:#000000;stroke-width:0" />
<path
   id="path46105"
   d="m 220.21,659.16 h 0.03 l 0.02,-0.01 h 0.03 l 0.03,-0.01 0.04,-0.01 0.03,-0.01 0.04,-0.01 0.04,-0.01 0.04,-0.01 0.04,-0.01 0.04,-0.02 0.05,-0.02 0.04,-0.01 0.05,-0.03 0.04,-0.02 0.04,-0.02 0.05,-0.03 0.04,-0.03 0.04,-0.03 0.04,-0.03 0.04,-0.03 0.03,-0.04 0.04,-0.04 0.03,-0.04 0.03,-0.05 0.01,-0.02 0.01,-0.03 0.02,-0.02 0.01,-0.03 0.01,-0.02 0.01,-0.03 v -0.03 l 0.01,-0.02 0.01,-0.03 v -0.03 l 0.01,-0.03 v -0.04 -0.03 -0.03 c 0,-0.51 -0.35,-0.91 -1.13,-0.91 -0.83,0 -1.19,0.57 -1.38,1.42 -0.03,0.12 -0.04,0.16 -0.14,0.16 -0.13,0 -0.13,-0.07 -0.13,-0.25 v -1.31 c 0,-0.16 0,-0.23 0.11,-0.23 0.05,0 0.06,0.01 0.25,0.19 0.02,0.02 0.02,0.04 0.2,0.23 0.44,-0.41 0.88,-0.42 1.09,-0.42 1.15,0 1.61,0.66 1.61,1.38 0,0.52 -0.3,0.82 -0.42,0.94 -0.33,0.32 -0.72,0.4 -1.14,0.48 -0.55,0.11 -1.22,0.23 -1.22,0.81 0,0.35 0.26,0.76 1.11,0.76 1.1,0 1.15,-0.9 1.17,-1.21 0.01,-0.08 0.1,-0.08 0.12,-0.08 0.13,0 0.13,0.05 0.13,0.23 v 1.01 c 0,0.17 0,0.23 -0.11,0.23 -0.05,0 -0.07,0 -0.2,-0.11 -0.03,-0.04 -0.13,-0.13 -0.17,-0.16 -0.38,0.27 -0.79,0.27 -0.94,0.27 -1.21,0 -1.59,-0.66 -1.59,-1.22 0,-0.34 0.16,-0.62 0.43,-0.84 0.32,-0.26 0.6,-0.32 1.31,-0.46 z"
   inkscape:connector-curvature="0"
   style="fill:#000000;stroke-width:0" />
<polygon
   id="polygon46107"
   points="223.65,654.75 223.65,664.68 222.29,664.68 222.29,664.29 223.26,664.29 223.26,655.15 222.29,655.15 222.29,654.75 "
   style="fill:#000000;stroke-width:0" />
</g>  </g>
</svg>
