<?xml version="1.0" encoding="UTF-8" standalone="no"?>
<!-- Created with Inkscape (http://www.inkscape.org/) -->

<svg
   xmlns:dc="http://purl.org/dc/elements/1.1/"
   xmlns:cc="http://creativecommons.org/ns#"
   xmlns:rdf="http://www.w3.org/1999/02/22-rdf-syntax-ns#"
   xmlns:svg="http://www.w3.org/2000/svg"
   xmlns="http://www.w3.org/2000/svg"
   xmlns:sodipodi="http://sodipodi.sourceforge.net/DTD/sodipodi-0.dtd"
   xmlns:inkscape="http://www.inkscape.org/namespaces/inkscape"
   width="212.93866mm"
   height="158.14403mm"
   viewBox="0 0 212.93866 158.14403"
   version="1.1"
   id="svg1408"
   sodipodi:docname="impulsecompare2.svg"
   inkscape:version="0.92.3 (2405546, 2018-03-11)">
  <defs
     id="defs1402" />
  <sodipodi:namedview
     id="base"
     pagecolor="#ffffff"
     bordercolor="#666666"
     borderopacity="1.0"
     inkscape:pageopacity="0.0"
     inkscape:pageshadow="2"
     inkscape:zoom="0.35"
     inkscape:cx="-751.2621"
     inkscape:cy="437.02437"
     inkscape:document-units="mm"
     inkscape:current-layer="layer1"
     showgrid="false"
     fit-margin-top="0"
     fit-margin-left="0"
     fit-margin-right="0"
     fit-margin-bottom="0"
     inkscape:window-width="1920"
     inkscape:window-height="1137"
     inkscape:window-x="1912"
     inkscape:window-y="-8"
     inkscape:window-maximized="1" />
  <metadata
     id="metadata1405">
    <rdf:RDF>
      <cc:Work
         rdf:about="">
        <dc:format>image/svg+xml</dc:format>
        <dc:type
           rdf:resource="http://purl.org/dc/dcmitype/StillImage" />
        <dc:title></dc:title>
      </cc:Work>
    </rdf:RDF>
  </metadata>
  <g
     inkscape:label="Layer 1"
     inkscape:groupmode="layer"
     id="layer1"
     transform="translate(64.389066,3.8690405)">
    <path
       inkscape:connector-curvature="0"
       id="path5548"
       style="fill:#150005;fill-opacity:1;fill-rule:nonzero;stroke:none;stroke-width:0.11510228"
       d="m 36.058226,23.848955 c 0.224439,0.1974 0.507611,0.295815 0.849453,0.295815 0.575522,0 0.976067,-0.426686 1.200539,-1.280975 0.08054,-0.314689 0.157657,-0.831729 0.229023,-1.551118 0.0357,-0.449704 0.06562,-0.829542 0.08749,-1.139858 0.02304,-0.3102 0.04833,-0.645148 0.07482,-1.004843 0.02646,-0.359694 0.05295,-0.712713 0.08057,-1.058825 0.02646,-0.345768 0.06329,-0.770495 0.108196,-1.274643 0.03567,-0.306172 0.08058,-0.692916 0.134657,-1.160231 0.05411,-0.467315 0.105902,-0.898949 0.155398,-1.2949 0.0495,-0.395953 0.09208,-0.721692 0.127741,-0.977219 0.03686,-0.256678 0.08174,-0.614646 0.135855,-1.072753 0.134655,-0.863267 0.36717,-1.607979 0.700969,-2.232984 0.332634,-0.6250045 0.844833,-0.9369325 1.537758,-0.9369325 0.241723,0 0.484577,0.0518 0.727427,0.155388 0.242887,0.103592 0.438539,0.250923 0.587023,0.444295 0.148484,0.193372 0.223308,0.4166695 0.223308,0.6687435 0,0.170352 -0.0587,0.311927 -0.176106,0.424728 -0.11624,0.111649 -0.255516,0.168049 -0.41783,0.168049 -0.171485,0 -0.315384,-0.0564 -0.431623,-0.168049 -0.117406,-0.112801 -0.176107,-0.254376 -0.176107,-0.424728 0,-0.162294 0.04949,-0.298115 0.149649,-0.40516 0.09899,-0.1081955 0.224435,-0.1749545 0.377507,-0.2014285 -0.233645,-0.199127 -0.521406,-0.298115 -0.863248,-0.298115 -0.450038,0 -0.782709,0.374083 -0.999101,1.1199455 -0.07137,0.323437 -0.148484,0.894344 -0.22906,1.712721 -0.01842,0.306173 -0.04258,0.648026 -0.07366,1.025561 -0.03108,0.377536 -0.06329,0.793056 -0.09437,1.247709 -0.03108,0.453503 -0.06562,0.87708 -0.101282,1.268427 -0.0357,0.390197 -0.06791,0.712484 -0.0944,0.963406 -0.04487,0.49494 -0.08287,0.87708 -0.115113,1.146419 -0.03108,0.27026 -0.07595,0.61879 -0.134654,1.045935 -0.0587,0.427144 -0.115112,0.851986 -0.169193,1.274182 -0.05295,0.423116 -0.09786,0.76025 -0.134692,1.011634 -0.07137,0.513011 -0.196813,1.005303 -0.377507,1.476992 -0.179562,0.47261 -0.441995,0.873165 -0.788459,1.200976 -0.346461,0.328157 -0.766585,0.492294 -1.261533,0.492294 -0.24285,0 -0.483409,-0.05168 -0.721677,-0.154699 -0.238266,-0.10382 -0.431657,-0.252188 -0.580107,-0.445561 -0.148484,-0.193257 -0.222179,-0.411374 -0.222179,-0.654124 0,-0.170929 0.05757,-0.314807 0.174977,-0.431636 0.116239,-0.116943 0.260138,-0.175413 0.431623,-0.175413 0.108199,0 0.207187,0.02474 0.296968,0.07424 0.08978,0.04938 0.16115,0.119131 0.216395,0.209026 0.05408,0.08944 0.08057,0.1974 0.08057,0.323784 0,0.08943 -0.02304,0.17979 -0.06791,0.270145 -0.04491,0.08955 -0.105905,0.161488 -0.181859,0.215815 -0.07599,0.05352 -0.168064,0.08955 -0.27626,0.107966" />
    <path
       inkscape:connector-curvature="0"
       id="path5550"
       style="fill:#150005;fill-opacity:1;fill-rule:nonzero;stroke:none;stroke-width:0.11510228"
       d="m 46.758154,20.286195 c -0.08865,0 -0.133528,-0.06296 -0.133528,-0.189343 0.008,-0.0175 0.01955,-0.05571 0.03337,-0.114642 0.01267,-0.05801 0.03108,-0.103017 0.05295,-0.13444 0.02299,-0.03188 0.05179,-0.04765 0.08862,-0.04765 0.566314,0 0.957651,-0.03142 1.172879,-0.09392 0.125484,-0.045 0.216395,-0.170926 0.27051,-0.377305 l 1.887681,-7.581902 c 0.0184,-0.08978 0.0276,-0.151935 0.0276,-0.187616 0,-0.09899 -0.0541,-0.15769 -0.16232,-0.176107 -0.17148,-0.03568 -0.50412,-0.05295 -0.997904,-0.05295 -0.08978,0 -0.134692,-0.0587 -0.134692,-0.176107 0.0092,-0.02647 0.01958,-0.06676 0.03338,-0.122008 0.01384,-0.0541 0.03108,-0.09899 0.05411,-0.133519 0.02188,-0.03683 0.05179,-0.05525 0.08745,-0.05525 h 7.297486 c 0.0898,0 0.13469,0.06331 0.13469,0.188767 l -0.32346,2.860292 c 0,0.02762 -0.0161,0.0541 -0.0472,0.08057 -0.0311,0.02647 -0.0656,0.04029 -0.10132,0.04029 h -0.12082 c -0.0909,0 -0.13582,-0.0587 -0.13582,-0.174955 0.0541,-0.422426 0.0805,-0.76428 0.0805,-1.024411 0,-0.459258 -0.099,-0.796508 -0.29581,-1.011749 -0.19797,-0.216392 -0.44774,-0.34876 -0.7493,-0.398254 -0.30042,-0.04949 -0.71592,-0.07366 -1.24657,-0.07366 h -1.47101 c -0.25206,0 -0.4178,0.02187 -0.49837,0.06676 -0.0817,0.04489 -0.1577,0.179559 -0.23023,0.405159 l -0.87707,3.519828 h 1.03939 c 0.34184,0 0.6181,-0.01726 0.82871,-0.0541 0.2118,-0.03568 0.38791,-0.104743 0.52719,-0.209486 0.13927,-0.102441 0.25322,-0.250923 0.343,-0.444295 0.0898,-0.193372 0.17611,-0.452352 0.25669,-0.775789 0.0276,-0.08978 0.0714,-0.13467 0.13465,-0.13467 h 0.12203 c 0.099,0 0.14848,0.06331 0.14848,0.188768 l -0.85062,3.412782 c -0.0357,0.08057 -0.0806,0.120858 -0.13465,0.120858 h -0.12086 c -0.0909,0 -0.13582,-0.06331 -0.13582,-0.188768 0.0184,-0.08978 0.0345,-0.166898 0.0472,-0.229053 0.0138,-0.06331 0.0322,-0.155389 0.0541,-0.276246 0.023,-0.122008 0.0345,-0.226751 0.0345,-0.316531 0,-0.261283 -0.11741,-0.428181 -0.35109,-0.500695 -0.23364,-0.07136 -0.53982,-0.107045 -0.91736,-0.107045 h -1.1326 l -0.904689,3.574616 c -0.01728,0.08943 -0.02649,0.134439 -0.02649,0.134439 0,0.108312 0.03224,0.171272 0.09441,0.189343 0.24285,0.0625 0.71476,0.09392 1.41573,0.09392 0.0909,0 0.13582,0.05847 0.13582,0.176222 -0.0368,0.134439 -0.0633,0.219845 -0.0805,0.255412 -0.0184,0.03637 -0.0725,0.05444 -0.16231,0.05444 h -4.060791" />
    <path
       inkscape:connector-curvature="0"
       id="path5552"
       style="fill:#150005;fill-opacity:1;fill-rule:nonzero;stroke:none;stroke-width:0.11510228"
       d="m 59.312346,20.447568 c -0.57552,0 -1.03131,-0.220306 -1.36856,-0.660457 -0.33726,-0.440611 -0.50532,-0.962715 -0.50532,-1.56516 0,-0.584029 0.15311,-1.19292 0.45812,-1.827134 0.30617,-0.634213 0.71938,-1.162533 1.24078,-1.584958 0.52145,-0.422425 1.07968,-0.634214 1.67245,-0.634214 0.27051,0 0.51453,0.07712 0.73435,0.229054 0.22101,0.153086 0.38904,0.355666 0.50644,0.60774 l 0.78271,-3.089345 c 0.0357,-0.153086 0.0587,-0.273944 0.0679,-0.363723 0,-0.153086 -0.30155,-0.229054 -0.9047,-0.229054 -0.0886,0 -0.13352,-0.0587 -0.13352,-0.176107 0,-0.02647 0.008,-0.06906 0.0265,-0.128914 0.0172,-0.05755 0.038,-0.102441 0.0598,-0.133519 0.0231,-0.03223 0.0564,-0.04834 0.10128,-0.04834 l 1.86239,-0.147332 c 0.11624,0 0.17494,0.0587 0.17494,0.174956 l -1.99704,7.944819 c -0.0621,0.152396 -0.0944,0.372701 -0.0944,0.660458 0,0.396181 0.13582,0.594042 0.40517,0.594042 0.28776,0 0.50528,-0.182092 0.65377,-0.546275 0.14848,-0.364644 0.27739,-0.789141 0.38445,-1.274297 0.0184,-0.05433 0.0541,-0.08138 0.1082,-0.08138 h 0.16115 c 0.0368,0 0.0656,0.01577 0.0886,0.04765 0.0219,0.03108 0.0334,0.05985 0.0334,0.08725 -0.16115,0.647451 -0.33726,1.166792 -0.52603,1.557909 -0.18877,0.390772 -0.49953,0.586331 -0.93115,0.586331 -0.31426,0 -0.59048,-0.0922 -0.82991,-0.276015 -0.23827,-0.184394 -0.3833,-0.429446 -0.43738,-0.734698 -0.59393,0.673464 -1.19246,1.010713 -1.79444,1.010713 z m 0.0138,-0.37719 c 0.33267,0 0.65609,-0.123735 0.97148,-0.371435 0.31422,-0.246779 0.58473,-0.541326 0.80916,-0.883065 0.009,-0.009 0.0127,-0.02739 0.0127,-0.05433 l 0.75621,-3.034326 c -0.0541,-0.323437 -0.17381,-0.603136 -0.35796,-0.836793 -0.18415,-0.233658 -0.42933,-0.349912 -0.73434,-0.349912 -0.31426,0 -0.60544,0.125462 -0.8702,0.376385 -0.26589,0.252074 -0.49262,0.553642 -0.68139,0.904704 -0.17956,0.368327 -0.35105,0.874777 -0.5122,1.517048 -0.16231,0.643422 -0.24289,1.139628 -0.24289,1.490229 0,0.324243 0.0668,0.611999 0.2026,0.863267 0.13353,0.252304 0.34989,0.378226 0.64686,0.378226" />
    <path
       inkscape:connector-curvature="0"
       id="path5554"
       style="fill:#150005;fill-opacity:1;fill-rule:nonzero;stroke:none;stroke-width:0.11510228"
       d="m 64.963846,19.166595 c 0,-0.1349 0.0138,-0.26531 0.0403,-0.391117 l 0.9991,-3.965619 h -1.45718 c -0.0898,0 -0.13469,-0.0587 -0.13469,-0.174956 0.0357,-0.207184 0.0944,-0.310776 0.17498,-0.310776 h 1.53775 l 0.55249,-2.252551 c 0.0368,-0.117404 0.1082,-0.217544 0.21639,-0.30387 0.1082,-0.08518 0.22906,-0.127764 0.36372,-0.127764 0.1174,0 0.2141,0.03338 0.29005,0.10129 0.0771,0.06791 0.11511,0.159992 0.11511,0.276245 0,0.02763 0,0.04949 0,0.06791 0,0.01726 -0.005,0.03568 -0.0138,0.05295 l -0.55252,2.185792 h 1.4296 c 0.0898,0 0.13465,0.06331 0.13465,0.188768 0,0.01842 -0.007,0.0541 -0.0196,0.107045 -0.0138,0.0541 -0.0322,0.100139 -0.0541,0.135821 -0.023,0.03568 -0.0564,0.0541 -0.10128,0.0541 h -1.5113 l -0.98528,3.992092 c -0.0714,0.260822 -0.10706,0.485617 -0.10706,0.674385 0,0.396181 0.13469,0.594042 0.40516,0.594042 0.40404,0 0.7643,-0.188883 1.07852,-0.566533 0.31538,-0.378111 0.55364,-0.796278 0.71479,-1.254039 0.0357,-0.05433 0.0725,-0.08138 0.1082,-0.08138 h 0.17494 c 0.0368,0 0.0656,0.01347 0.0875,0.04052 0.023,0.02739 0.0345,0.05398 0.0345,0.08046 0,0.01841 -0.005,0.03188 -0.0138,0.04052 -0.20718,0.55744 -0.50299,1.050308 -0.88974,1.476992 -0.38675,0.427145 -0.82758,0.640659 -1.32253,0.640659 -0.36833,0 -0.6768,-0.121433 -0.92311,-0.363262 -0.24748,-0.243327 -0.37179,-0.549038 -0.37179,-0.917711" />
    <path
       inkscape:connector-curvature="0"
       id="path5556"
       style="fill:#150005;fill-opacity:1;fill-rule:nonzero;stroke:none;stroke-width:0.11510228"
       d="m 73.963706,18.451695 c -0.0725,0 -0.13236,-0.02924 -0.18186,-0.08805 -0.0495,-0.05801 -0.0748,-0.123275 -0.0748,-0.195214 0,-0.07194 0.0253,-0.134554 0.0748,-0.188652 0.0495,-0.0541 0.10936,-0.08172 0.18186,-0.08172 h 8.67297 c 0.0725,0 0.13353,0.02762 0.18302,0.08172 0.0495,0.0541 0.0737,0.116713 0.0737,0.188652 0,0.07194 -0.0242,0.137202 -0.0737,0.195214 -0.0495,0.05882 -0.11053,0.08805 -0.18302,0.08805 z m 0,-2.684185 c -0.0725,0 -0.13236,-0.02647 -0.18186,-0.08057 -0.0495,-0.0541 -0.0748,-0.122008 -0.0748,-0.203731 0,-0.06216 0.0253,-0.123159 0.0748,-0.180711 0.0495,-0.0587 0.10936,-0.08748 0.18186,-0.08748 h 8.67297 c 0.0725,0 0.13353,0.02878 0.18302,0.08748 0.0495,0.05755 0.0737,0.118556 0.0737,0.180711 0,0.08172 -0.0242,0.149633 -0.0737,0.203731 -0.0495,0.0541 -0.11053,0.08057 -0.18302,0.08057 h -8.67297" />
    <path
       inkscape:connector-curvature="0"
       id="path5558"
       style="fill:#150005;fill-opacity:1;fill-rule:nonzero;stroke:none;stroke-width:0.11510228"
       d="m 88.826866,19.221038 c 0.21523,0.313769 0.50528,0.547657 0.87016,0.700973 0.36375,0.152856 0.75279,0.229284 1.16717,0.229284 0.53865,0 0.92082,-0.229284 1.14638,-0.687966 0.22448,-0.458568 0.33613,-0.975607 0.33613,-1.551464 0,-0.260131 -0.0242,-0.521413 -0.0737,-0.781544 -0.0495,-0.261282 -0.13007,-0.504148 -0.24289,-0.728598 -0.11278,-0.2256 -0.26472,-0.40516 -0.45811,-0.539829 -0.19336,-0.13467 -0.43392,-0.201429 -0.72168,-0.201429 h -0.91853 c -0.0806,0 -0.1197,-0.04604 -0.1197,-0.135821 v -0.120857 c 0,-0.07252 0.0391,-0.108196 0.1197,-0.108196 l 0.77005,-0.0541 c 0.32342,0 0.59164,-0.122008 0.80225,-0.364874 0.2118,-0.242866 0.36604,-0.53983 0.46619,-0.88974 0.099,-0.351062 0.14845,-0.683708 0.14845,-0.997937 0,-0.440842 -0.10474,-0.802263 -0.31076,-1.085415 -0.20719,-0.284302 -0.52141,-0.425878 -0.94382,-0.425878 -0.35109,0 -0.68601,0.06791 -1.00602,0.20258 -0.31884,0.13467 -0.57206,0.337249 -0.76083,0.606589 0.0173,-0.0081 0.0334,-0.01266 0.0461,-0.01266 0.0138,0 0.0299,0 0.0472,0 0.20718,0 0.37983,0.07136 0.52027,0.215241 0.13928,0.143878 0.20832,0.31538 0.20832,0.512205 0,0.197976 -0.069,0.369478 -0.20832,0.513356 -0.14044,0.143878 -0.31309,0.215241 -0.52027,0.215241 -0.19798,0 -0.3683,-0.07136 -0.5122,-0.215241 -0.14387,-0.143878 -0.2164,-0.31538 -0.2164,-0.513356 0,-0.394801 0.1197,-0.738957 0.35797,-1.031316 0.23826,-0.29236 0.54444,-0.512205 0.91736,-0.660688 0.37296,-0.148481 0.74817,-0.222147 1.12688,-0.222147 0.27852,0 0.57203,0.04029 0.88282,0.120858 0.30964,0.08057 0.59161,0.200278 0.84371,0.356817 0.25089,0.15769 0.45808,0.357968 0.61923,0.600833 0.16231,0.242866 0.24402,0.51681 0.24402,0.822982 0,0.386743 -0.0875,0.743561 -0.26357,1.072753 -0.17497,0.32689 -0.41437,0.610042 -0.71479,0.848303 -0.30156,0.238262 -0.6319,0.416671 -0.99219,0.534075 0.40516,0.08057 0.78729,0.233658 1.14642,0.458107 0.36026,0.22445 0.64802,0.512205 0.86328,0.863267 0.2164,0.351062 0.32343,0.728598 0.32343,1.132607 0,0.503802 -0.13811,0.96237 -0.41783,1.376508 -0.27739,0.413562 -0.64456,0.737345 -1.09806,0.971118 -0.45466,0.233312 -0.93348,0.350256 -1.43647,0.350256 -0.43166,0 -0.86329,-0.08322 -1.29491,-0.249542 -0.43166,-0.166323 -0.78729,-0.413217 -1.06585,-0.741374 -0.27971,-0.328271 -0.41783,-0.72123 -0.41783,-1.180258 0,-0.234233 0.076,-0.42772 0.2279,-0.579655 0.1531,-0.153087 0.34646,-0.230205 0.58011,-0.230205 0.14389,0 0.27971,0.03568 0.40516,0.108196 0.12549,0.07136 0.22215,0.171503 0.29006,0.296964 0.0679,0.125922 0.10131,0.260822 0.10131,0.4047 0,0.224795 -0.0794,0.413217 -0.23597,0.566533 -0.15769,0.152856 -0.34417,0.229744 -0.56056,0.229744 h -0.0668" />
    <path
       inkscape:connector-curvature="0"
       id="path5560"
       style="fill:#150005;fill-opacity:1;fill-rule:nonzero;stroke:none;stroke-width:0.11510228"
       d="m 96.811496,19.922011 c 0,-0.513011 0.0449,-1.014396 0.13469,-1.504041 0.0909,-0.489991 0.22331,-0.97342 0.39825,-1.449943 0.17611,-0.476524 0.38442,-0.947292 0.62731,-1.410003 0.24285,-0.462711 0.5122,-0.896647 0.80917,-1.300656 l 1.255754,-1.754159 h -1.579184 c -1.63678,0 -2.47703,0.02187 -2.5219,0.06676 -0.12545,0.153085 -0.24285,0.581266 -0.35105,1.282239 h -0.39137 l 0.44545,-2.900577 h 0.40517 v 0.04029 c 0,0.162293 0.28084,0.268188 0.84254,0.317682 0.56169,0.04949 1.11304,0.07367 1.65174,0.07367 h 2.577114 v 0.363723 c 0,0.01036 -0.002,0.01612 -0.007,0.02072 -0.005,0.0046 -0.007,0.01151 -0.007,0.02072 l -1.901504,2.670373 c -0.46846,0.692916 -0.7608,1.461799 -0.87708,2.30665 -0.1174,0.846001 -0.17611,1.897576 -0.17611,3.156564 0,0.17979 -0.0644,0.337135 -0.19565,0.472035 -0.13007,0.134439 -0.2843,0.201889 -0.46503,0.201889 -0.18877,0 -0.34759,-0.06745 -0.47766,-0.201889 -0.13123,-0.1349 -0.19685,-0.292245 -0.19685,-0.472035" />
    <path
       inkscape:connector-curvature="0"
       id="path5562"
       style="fill:#150005;fill-opacity:1;fill-rule:nonzero;stroke:none;stroke-width:0.11510228"
       d="m 102.47799,19.516851 c 0,-0.206378 0.076,-0.383981 0.2279,-0.532348 0.1531,-0.148827 0.33267,-0.222953 0.53985,-0.222953 0.12662,0 0.24977,0.03407 0.37063,0.101981 0.12199,0.06699 0.2164,0.161489 0.28431,0.282806 0.0667,0.121893 0.10011,0.245053 0.10011,0.370514 0,0.2073 -0.0737,0.387089 -0.22214,0.5396 -0.14732,0.153316 -0.32572,0.229744 -0.53291,0.229744 -0.20718,0 -0.38675,-0.07643 -0.53985,-0.229744 -0.15191,-0.152511 -0.2279,-0.3323 -0.2279,-0.5396" />
    <path
       inkscape:connector-curvature="0"
       id="path5564"
       style="fill:#150005;fill-opacity:1;fill-rule:nonzero;stroke:none;stroke-width:0.11510228"
       d="m 108.60719,20.595935 c -0.56744,0 -1.04052,-0.152856 -1.42265,-0.458107 -0.38216,-0.305827 -0.67909,-0.701433 -0.8909,-1.187049 -0.21064,-0.486078 -0.3568,-0.994024 -0.43854,-1.524645 -0.0806,-0.530622 -0.12086,-1.064697 -0.12086,-1.604526 0,-0.728598 0.14157,-1.459497 0.42474,-2.191547 0.28314,-0.733202 0.70097,-1.339791 1.25462,-1.820918 0.55362,-0.481128 1.20742,-0.721692 1.96247,-0.721692 0.31425,0 0.6066,0.05755 0.87708,0.174956 0.26934,0.116253 0.48228,0.292359 0.63997,0.526017 0.15769,0.233658 0.23597,0.512205 0.23597,0.836794 0,0.188767 -0.0656,0.347608 -0.19568,0.478825 -0.13007,0.130066 -0.29006,0.194523 -0.47883,0.194523 -0.17956,0 -0.33493,-0.06446 -0.465,-0.194523 -0.13123,-0.131217 -0.19568,-0.290058 -0.19568,-0.478825 0,-0.180711 0.0644,-0.336099 0.19568,-0.466164 0.13007,-0.130066 0.28544,-0.195674 0.465,-0.195674 h 0.0817 c -0.1174,-0.162294 -0.28317,-0.283152 -0.49957,-0.364875 -0.21523,-0.07942 -0.43621,-0.120857 -0.66068,-0.120857 -0.27855,0 -0.53753,0.061 -0.77579,0.183013 -0.23823,0.120857 -0.45117,0.285453 -0.64111,0.491486 -0.18877,0.207184 -0.3453,0.436238 -0.47078,0.688312 -0.12661,0.250923 -0.22327,0.536376 -0.29118,0.856361 -0.0679,0.318833 -0.11053,0.618099 -0.12778,0.896647 -0.0184,0.279698 -0.0265,0.629609 -0.0265,1.053185 0.16112,-0.378686 0.39018,-0.688311 0.68714,-0.931177 0.29697,-0.242866 0.62961,-0.363723 0.99794,-0.363723 0.41438,0 0.78962,0.08287 1.12685,0.248621 0.33725,0.166898 0.6273,0.398254 0.87019,0.695218 0.24169,0.296963 0.427,0.634213 0.55249,1.011748 0.12661,0.377536 0.18877,0.759676 0.18877,1.146419 0,0.53983 -0.11857,1.05192 -0.35684,1.537536 -0.23826,0.485502 -0.57548,0.874432 -1.01173,1.167137 -0.43624,0.291784 -0.93348,0.437504 -1.49059,0.437504 z m 0,-0.44464 c 0.35913,0 0.64689,-0.08092 0.86328,-0.243326 0.21523,-0.161834 0.37292,-0.377651 0.47191,-0.64745 0.099,-0.269225 0.16115,-0.539024 0.18878,-0.808824 0.0276,-0.2698 0.0403,-0.601985 0.0403,-0.997937 0,-0.522564 -0.0241,-0.966859 -0.0737,-1.335186 -0.0495,-0.369479 -0.18531,-0.695218 -0.40516,-0.978369 -0.21985,-0.283152 -0.5594,-0.424728 -1.01752,-0.424728 -0.36946,0 -0.67448,0.125462 -0.91736,0.377535 -0.24402,0.252075 -0.41896,0.570908 -0.52603,0.957652 -0.1082,0.386743 -0.16228,0.75507 -0.16228,1.106132 0,0.125462 0.005,0.219846 0.0138,0.283152 0,0.0092 -0.002,0.01842 -0.007,0.02647 -0.005,0.0092 -0.007,0.02302 -0.007,0.04028 0,0.395952 0.0403,0.796623 0.12199,1.201323 0.0794,0.404584 0.23481,0.746323 0.46503,1.02464 0.22906,0.279238 0.54557,0.418627 0.95074,0.418627" />
    <path
       inkscape:connector-curvature="0"
       id="path5566"
       style="fill:#150005;fill-opacity:1;fill-rule:nonzero;stroke:none;stroke-width:0.11510228"
       d="M 118.29651,23.739264 V 9.9272205 h 1.88881 V 10.480862 H 118.849 v 12.704875 h 1.33632 v 0.553527 h -1.88881" />
    <path
       inkscape:connector-curvature="0"
       id="path5568"
       style="fill:#150005;fill-opacity:1;fill-rule:nonzero;stroke:none;stroke-width:0.11510228"
       d="m 120.93236,20.286195 v -0.486077 c 0.94499,0 1.4169,-0.274288 1.4169,-0.822751 v -7.566478 c -0.29697,-0.0541 -0.76888,-0.08057 -1.4169,-0.08057 v -0.486882 h 2.6439 c 0.0449,0 0.076,0.01842 0.0944,0.05525 l 4.88265,7.202295 v -5.948831 c 0,-0.547887 -0.47194,-0.82183 -1.41577,-0.82183 v -0.486882 h 3.27812 v 0.486882 c -0.94499,0 -1.4169,0.273943 -1.4169,0.82183 v 8.012154 c 0,0.02694 -0.0184,0.05398 -0.0541,0.08138 -0.0357,0.02693 -0.0633,0.04052 -0.0806,0.04052 h -0.17494 c -0.046,0 -0.0771,-0.01807 -0.0955,-0.05444 l -5.80002,-8.537712 v 7.283327 c 0,0.548463 0.47653,0.822751 1.43072,0.822751 v 0.486077 h -3.29191" />
    <path
       inkscape:connector-curvature="0"
       id="path5570"
       style="fill:#150005;fill-opacity:1;fill-rule:nonzero;stroke:none;stroke-width:0.11510228"
       d="m 131.31916,20.326596 v -2.253587 c 0,-0.07136 0.0403,-0.107046 0.12086,-0.107046 h 0.17498 c 0.0541,0 0.0909,0.03568 0.1082,0.107046 0.25206,1.331848 0.87246,1.997369 1.86235,1.997369 0.43162,0 0.79534,-0.09899 1.09231,-0.297194 0.2958,-0.197861 0.44545,-0.503572 0.44545,-0.916789 0,-0.296734 -0.11511,-0.548578 -0.3453,-0.755417 -0.22906,-0.206378 -0.5007,-0.350256 -0.81492,-0.431978 l -0.93119,-0.174956 c -0.30501,-0.07136 -0.58702,-0.177257 -0.8437,-0.317682 -0.25552,-0.139274 -0.465,-0.323438 -0.62615,-0.552491 -0.16231,-0.229054 -0.24289,-0.497242 -0.24289,-0.802263 0,-0.40516 0.1082,-0.737806 0.32347,-0.997937 0.21639,-0.261282 0.49494,-0.447748 0.83562,-0.560548 0.34188,-0.1128 0.71134,-0.168049 1.1073,-0.168049 0.46733,0 0.87591,0.125461 1.22583,0.377535 l 0.40517,-0.351062 c 0,-0.01842 0.023,-0.02647 0.0679,-0.02647 h 0.0944 c 0.0276,0 0.0518,0.01151 0.0748,0.03338 0.0219,0.02187 0.0334,0.04719 0.0334,0.07482 v 1.807106 c 0,0.08978 -0.0357,0.134669 -0.1082,0.134669 h -0.16227 c -0.0806,0 -0.12086,-0.04489 -0.12086,-0.134669 0,-0.476524 -0.13466,-0.860965 -0.404,-1.153325 -0.27051,-0.29236 -0.64344,-0.43854 -1.11997,-0.43854 -0.41437,0 -0.77346,0.07712 -1.07964,0.229054 -0.30505,0.153086 -0.45812,0.413217 -0.45812,0.782695 0,0.261282 0.10936,0.47192 0.32918,0.633063 0.22101,0.162294 0.4754,0.279698 0.76313,0.352213 l 0.94386,0.174955 c 0.31538,0.07136 0.60773,0.193372 0.87707,0.364874 0.26935,0.169201 0.48574,0.385593 0.64802,0.646875 0.16115,0.260131 0.24172,0.55721 0.24172,0.889971 0,0.332645 -0.0575,0.620401 -0.17494,0.863267 -0.11628,0.242751 -0.27626,0.4451 -0.47882,0.606934 -0.20144,0.161834 -0.442,0.283267 -0.72172,0.364184 -0.27855,0.08046 -0.5709,0.120972 -0.87591,0.120972 -0.57552,0 -1.07047,-0.19786 -1.48368,-0.593006 l -0.49953,0.553411 c 0,0.02613 -0.0265,0.03959 -0.0817,0.03959 h -0.0806 c -0.0806,0 -0.12086,-0.04052 -0.12086,-0.120972" />
    <path
       inkscape:connector-curvature="0"
       id="path5572"
       style="fill:#150005;fill-opacity:1;fill-rule:nonzero;stroke:none;stroke-width:0.11510228"
       d="m 136.61849,23.739264 v -0.553527 h 1.33519 V 10.480862 h -1.33519 V 9.9272205 h 1.88884 V 23.739264 h -1.88884" />
    <path
       inkscape:connector-curvature="0"
       id="path5594"
       style="fill:#c5c5c5;fill-opacity:1;fill-rule:nonzero;stroke:none;stroke-width:0.11510228"
       d="m 14.614414,64.424132 4.957456,-2.760612 5.948486,-0.606129 5.454695,-0.18071 5.948503,0.137546 5.453523,8.556704 5.949633,9.732474 5.452386,16.534666 5.94967,8.044159 5.45352,3.90358 5.45239,4.95434 5.94964,-2.15057 5.45355,0.22031 5.94851,0.16724 5.45468,0.13042 5.94847,0.14433 5.453564,-0.004 5.94963,0.0597 5.45239,0.0716 5.94967,0.0814 5.45352,0.0102 5.9485,0.13226 5.45353,0.0894 5.94966,-0.0265 2.99495,-0.071 v -0.0473 -0.0175 -0.18566 -0.032 -0.0144 -0.009 -0.0166 -0.013 -0.0153 -0.91679 -0.0261 -0.21582 -0.14929 l -2.99495,-0.16045 -5.94966,-0.45408 -5.45353,-0.62765 -5.9485,-0.66368 -5.45352,-0.69786 -5.94967,-0.73689 -5.45239,-0.9222 -5.94963,-0.74321 -5.453564,-1.04628 -5.94847,-0.92531 -5.45468,-0.81872 -5.94851,-0.95006 -5.45355,-0.75806 -5.94964,-6.054039 -5.45239,-4.42614 -5.45352,-8.542659 -5.94967,-12.315481 -5.452386,-13.363607 -5.949633,-7.36873 -5.453523,2.096011 -5.948503,-0.02912 -5.454695,0.142496 -5.948486,-0.0625 -4.957456,0.406887 -5.9484836,-0.01302 -5.950786,2.25117 -5.948487,2.210768 -4.957456,11.957169 -3.3437194,-66.49504353 h -2.109825 -1.795597 l -4.648981,108.66471853 -5.453544,0.15113 v 0.50001 l 5.453544,-0.0329 6.444578,-47.516986 5.4535444,31.466087 4.957456,-19.519276 5.948487,0.54052 5.950786,-11.122218" />
    <path
       inkscape:connector-curvature="0"
       id="path5596"
       style="fill:none;stroke:#002dff;stroke-width:1.5;stroke-linecap:butt;stroke-linejoin:round;stroke-miterlimit:10;stroke-dasharray:none;stroke-opacity:1"
       d="m -25.542465,109.89229 5.453544,-0.0922 6.444578,-99.077624 5.4535444,69.967107 4.957456,-15.738052 5.948487,-0.834951 5.950786,-6.687558 5.9484836,0.240104 4.957456,-1.583578 5.948486,-0.271526 5.454695,-0.161489 5.948503,0.08368 5.453523,3.229541 5.949633,8.551291 5.452386,14.949369 5.94967,10.178497 5.45352,6.2245 5.45239,4.689959 5.94964,1.95179 5.45355,0.48872 5.94851,0.5594 5.45468,0.47387 5.94847,0.535 5.453564,0.52164 5.94963,0.40148 5.45239,0.49632 5.94967,0.40919 5.45352,0.35382 5.9485,0.39791 5.45353,0.35843 5.94966,0.21397 2.99495,0.045" />
    <path
       inkscape:connector-curvature="0"
       id="path5598"
       style="fill:none;stroke:#444041;stroke-width:1.15073514;stroke-linecap:square;stroke-linejoin:round;stroke-miterlimit:10;stroke-dasharray:none;stroke-opacity:1"
       d="M -25.542465,120.83507 H 147.97423" />
    <path
       inkscape:connector-curvature="0"
       id="path5600"
       style="fill:none;stroke:#444041;stroke-width:1.15073514;stroke-linecap:square;stroke-linejoin:round;stroke-miterlimit:10;stroke-dasharray:none;stroke-opacity:1"
       d="M -25.542465,0.84094647 H 147.97423" />
    <path
       inkscape:connector-curvature="0"
       id="path5602"
       style="fill:none;stroke:#444041;stroke-width:1.15073514;stroke-linecap:square;stroke-linejoin:round;stroke-miterlimit:10;stroke-dasharray:none;stroke-opacity:1"
       d="m -25.542465,120.83507 v -1.73505" />
    <path
       inkscape:connector-curvature="0"
       id="path5604"
       style="fill:none;stroke:#444041;stroke-width:1.15073514;stroke-linecap:square;stroke-linejoin:round;stroke-miterlimit:10;stroke-dasharray:none;stroke-opacity:1"
       d="m 24.034385,120.83507 v -1.73505" />
    <path
       inkscape:connector-curvature="0"
       id="path5606"
       style="fill:none;stroke:#444041;stroke-width:1.15073514;stroke-linecap:square;stroke-linejoin:round;stroke-miterlimit:10;stroke-dasharray:none;stroke-opacity:1"
       d="m 73.610076,120.83507 v -1.73505" />
    <path
       inkscape:connector-curvature="0"
       id="path5608"
       style="fill:none;stroke:#444041;stroke-width:1.15073514;stroke-linecap:square;stroke-linejoin:round;stroke-miterlimit:10;stroke-dasharray:none;stroke-opacity:1"
       d="m 123.1858,120.83507 v -1.73505" />
    <path
       inkscape:connector-curvature="0"
       id="path5610"
       style="fill:none;stroke:#444041;stroke-width:1.15073514;stroke-linecap:square;stroke-linejoin:round;stroke-miterlimit:10;stroke-dasharray:none;stroke-opacity:1"
       d="M -25.542465,0.84094647 V 2.5755365" />
    <path
       inkscape:connector-curvature="0"
       id="path5612"
       style="fill:none;stroke:#444041;stroke-width:1.15073514;stroke-linecap:square;stroke-linejoin:round;stroke-miterlimit:10;stroke-dasharray:none;stroke-opacity:1"
       d="M 24.034385,0.84094647 V 2.5755365" />
    <path
       inkscape:connector-curvature="0"
       id="path5614"
       style="fill:none;stroke:#444041;stroke-width:1.15073514;stroke-linecap:square;stroke-linejoin:round;stroke-miterlimit:10;stroke-dasharray:none;stroke-opacity:1"
       d="M 73.610076,0.84094647 V 2.5755365" />
    <path
       inkscape:connector-curvature="0"
       id="path5616"
       style="fill:none;stroke:#444041;stroke-width:1.15073514;stroke-linecap:square;stroke-linejoin:round;stroke-miterlimit:10;stroke-dasharray:none;stroke-opacity:1"
       d="M 123.1858,0.84094647 V 2.5755365" />
    <path
       inkscape:connector-curvature="0"
       id="path5618"
       style="fill:#000000;fill-opacity:1;fill-rule:nonzero;stroke:none;stroke-width:0.11510228"
       d="m -25.613828,135.3505 c -0.917369,0 -1.540071,-0.37765 -1.868112,-1.13295 -0.329195,-0.75542 -0.493789,-1.65057 -0.493789,-2.68476 0,-0.65597 0.0587,-1.26924 0.176106,-1.84026 0.117404,-0.57148 0.351063,-1.05744 0.700974,-1.45719 0.351063,-0.40021 0.846003,-0.60026 1.484821,-0.60026 0.493789,0 0.898948,0.11913 1.213178,0.3575 0.315378,0.23827 0.553641,0.54847 0.714782,0.93072 0.162296,0.38214 0.275098,0.79133 0.338402,1.22745 0.06216,0.43659 0.09323,0.897 0.09323,1.38204 0,0.63893 -0.05985,1.23919 -0.181861,1.80077 -0.120859,0.56251 -0.355666,1.03903 -0.700974,1.43072 -0.346459,0.39066 -0.839094,0.58622 -1.476761,0.58622 z m 0,-0.28327 c 0.413215,0 0.722841,-0.21351 0.930023,-0.64066 0.207188,-0.42714 0.332648,-0.90148 0.377537,-1.42347 0.04489,-0.52152 0.06676,-1.07413 0.06676,-1.65816 0,-0.55802 -0.02188,-1.07506 -0.06676,-1.55169 -0.04489,-0.47618 -0.16805,-0.90782 -0.370628,-1.2949 -0.202581,-0.38663 -0.514506,-0.58 -0.936932,-0.58 -0.423577,0 -0.737807,0.19556 -0.944991,0.58725 -0.206031,0.39065 -0.332645,0.82229 -0.377534,1.2949 -0.04489,0.47157 -0.06791,0.98642 -0.06791,1.54444 0,0.4222 0.0092,0.8178 0.02762,1.18694 0.01842,0.36821 0.07136,0.74816 0.162295,1.13939 0.08978,0.39158 0.231354,0.72158 0.424728,0.99092 0.19337,0.27026 0.451202,0.40504 0.77579,0.40504" />
    <path
       inkscape:connector-curvature="0"
       id="path5620"
       style="fill:#000000;fill-opacity:1;fill-rule:nonzero;stroke:none;stroke-width:0.11510228"
       d="m 19.485547,135.3505 c -0.917369,0 -1.540071,-0.37765 -1.869266,-1.13295 -0.32689,-0.75542 -0.491484,-1.65057 -0.491484,-2.68476 0,-0.65597 0.0587,-1.26924 0.174955,-1.84026 0.117404,-0.57148 0.351063,-1.05744 0.702122,-1.45719 0.351065,-0.40021 0.844852,-0.60026 1.483673,-0.60026 0.49494,0 0.900096,0.11913 1.214326,0.3575 0.31423,0.23827 0.55249,0.54847 0.714785,0.93072 0.161145,0.38214 0.273942,0.79133 0.336098,1.22745 0.06331,0.43659 0.09553,0.897 0.09553,1.38204 0,0.63893 -0.06101,1.23919 -0.181858,1.80077 -0.12201,0.56251 -0.355669,1.03903 -0.702128,1.43072 -0.346456,0.39066 -0.837943,0.58622 -1.476758,0.58622 z m 0,-0.28327 c 0.413215,0 0.72399,-0.21351 0.931174,-0.64066 0.207185,-0.42714 0.332648,-0.90148 0.377534,-1.42347 0.04489,-0.52152 0.06676,-1.07413 0.06676,-1.65816 0,-0.55802 -0.02188,-1.07506 -0.06676,-1.55169 -0.04489,-0.47618 -0.169198,-0.90782 -0.371776,-1.2949 -0.20143,-0.38663 -0.514509,-0.58 -0.936932,-0.58 -0.422429,0 -0.737807,0.19556 -0.943841,0.58725 -0.207187,0.39065 -0.332644,0.82229 -0.378684,1.2949 -0.04489,0.47157 -0.06676,0.98642 -0.06676,1.54444 0,0.4222 0.0092,0.8178 0.02647,1.18694 0.01841,0.36821 0.07251,0.74816 0.162296,1.13939 0.08978,0.39158 0.231354,0.72158 0.424728,0.99092 0.19337,0.27026 0.452352,0.40504 0.77579,0.40504" />
    <path
       inkscape:connector-curvature="0"
       id="path5622"
       style="fill:#000000;fill-opacity:1;fill-rule:nonzero;stroke:none;stroke-width:0.11510228"
       d="m 23.379454,134.48723 c 0,-0.17127 0.06331,-0.31515 0.188767,-0.43163 0.125463,-0.11683 0.269338,-0.1753 0.431633,-0.1753 0.09899,0 0.197977,0.0269 0.296966,0.0809 0.09899,0.0545 0.174953,0.13042 0.229052,0.22883 0.0541,0.099 0.08172,0.19786 0.08172,0.29719 0,0.16149 -0.06101,0.30537 -0.183015,0.43164 -0.120859,0.12592 -0.262432,0.18888 -0.424728,0.18888 -0.162295,0 -0.30617,-0.063 -0.431633,-0.18888 -0.12546,-0.12627 -0.188767,-0.27015 -0.188767,-0.43164" />
    <path
       inkscape:connector-curvature="0"
       id="path5624"
       style="fill:#000000;fill-opacity:1;fill-rule:nonzero;stroke:none;stroke-width:0.11510228"
       d="m 26.671379,135.10775 v -0.39112 c 0.93463,0 1.401945,-0.12143 1.401945,-0.3643 v -5.88138 c -0.386744,0.18025 -0.875927,0.27015 -1.469856,0.27015 v -0.39112 c 0.917366,0 1.610283,-0.23826 2.077596,-0.7149 h 0.162295 c 0.02647,0 0.05065,0.009 0.07366,0.0269 0.02302,0.0181 0.03338,0.0405 0.03338,0.0675 v 6.62287 c 0,0.24287 0.468466,0.3643 1.403096,0.3643 v 0.39112 h -3.682121" />
    <path
       inkscape:connector-curvature="0"
       id="path5626"
       style="fill:#000000;fill-opacity:1;fill-rule:nonzero;stroke:none;stroke-width:0.11510228"
       d="m 69.061256,135.3505 c -0.91623,0 -1.53892,-0.37765 -1.86813,-1.13295 -0.32802,-0.75542 -0.49149,-1.65057 -0.49149,-2.68476 0,-0.65597 0.0576,-1.26924 0.17497,-1.84026 0.11741,-0.57148 0.35105,-1.05744 0.70214,-1.45719 0.34988,-0.40021 0.84483,-0.60026 1.48251,-0.60026 0.49491,0 0.90008,0.11913 1.21433,0.3575 0.31535,0.23827 0.55362,0.54847 0.71477,0.93072 0.16231,0.38214 0.27396,0.79133 0.33725,1.22745 0.0633,0.43659 0.0944,0.897 0.0944,1.38204 0,0.63893 -0.061,1.23919 -0.18186,1.80077 -0.12086,0.56251 -0.35567,1.03903 -0.7021,1.43072 -0.34533,0.39066 -0.83795,0.58622 -1.47676,0.58622 z m 0,-0.28327 c 0.41437,0 0.72397,-0.21351 0.93116,-0.64066 0.20718,-0.42714 0.33267,-0.90148 0.37754,-1.42347 0.0449,-0.52152 0.0679,-1.07413 0.0679,-1.65816 0,-0.55802 -0.023,-1.07506 -0.0679,-1.55169 -0.0449,-0.47618 -0.16806,-0.90782 -0.37179,-1.2949 -0.2014,-0.38663 -0.51333,-0.58 -0.93691,-0.58 -0.42245,0 -0.73667,0.19556 -0.94386,0.58725 -0.20718,0.39065 -0.33263,0.82229 -0.37754,1.2949 -0.0449,0.47157 -0.0679,0.98642 -0.0679,1.54444 0,0.4222 0.009,0.8178 0.0265,1.18694 0.0184,0.36821 0.0737,0.74816 0.16228,1.13939 0.0909,0.39158 0.23252,0.72158 0.42588,0.99092 0.19339,0.27026 0.4512,0.40504 0.77466,0.40504" />
    <path
       inkscape:connector-curvature="0"
       id="path5628"
       style="fill:#000000;fill-opacity:1;fill-rule:nonzero;stroke:none;stroke-width:0.11510228"
       d="m 72.955146,134.48723 c 0,-0.17127 0.0633,-0.31515 0.18994,-0.43163 0.12544,-0.11683 0.26934,-0.1753 0.43162,-0.1753 0.099,0 0.19798,0.0269 0.2958,0.0809 0.099,0.0545 0.17498,0.13042 0.22906,0.22883 0.0541,0.099 0.0817,0.19786 0.0817,0.29719 0,0.16149 -0.061,0.30537 -0.18302,0.43164 -0.12086,0.12592 -0.26243,0.18888 -0.42358,0.18888 -0.16228,0 -0.30618,-0.063 -0.43162,-0.18888 -0.12662,-0.12627 -0.18994,-0.27015 -0.18994,-0.43164" />
    <path
       inkscape:connector-curvature="0"
       id="path5630"
       style="fill:#000000;fill-opacity:1;fill-rule:nonzero;stroke:none;stroke-width:0.11510228"
       d="m 75.761356,135.10775 v -0.29674 c 0,-0.018 0.009,-0.0405 0.0276,-0.0674 l 1.7392,-1.92889 c 0.27047,-0.28775 0.48573,-0.52832 0.64801,-0.72158 0.16231,-0.19337 0.32343,-0.41597 0.48574,-0.66816 0.16115,-0.25139 0.29006,-0.5076 0.38446,-0.76843 0.0944,-0.26036 0.14157,-0.53453 0.14157,-0.82229 0,-0.30629 -0.0587,-0.60118 -0.17611,-0.88398 -0.11627,-0.28327 -0.28776,-0.50807 -0.51223,-0.67439 -0.22444,-0.16644 -0.49378,-0.24954 -0.80917,-0.24954 -0.32342,0 -0.61577,0.0989 -0.87707,0.29719 -0.26011,0.19729 -0.44542,0.44913 -0.55249,0.7553 0.0357,-0.009 0.076,-0.0139 0.12086,-0.0139 0.17152,0 0.31539,0.0562 0.43163,0.16816 0.1174,0.1128 0.1761,0.25899 0.1761,0.43878 0,0.17092 -0.0587,0.31699 -0.1761,0.43842 -0.11624,0.12143 -0.26011,0.18209 -0.43163,0.18209 -0.17035,0 -0.31655,-0.0607 -0.43853,-0.18209 -0.12203,-0.12143 -0.18186,-0.2675 -0.18186,-0.43842 0,-0.27867 0.0541,-0.54179 0.16228,-0.78903 0.10706,-0.2477 0.26013,-0.46582 0.45811,-0.65424 0.19798,-0.18877 0.42242,-0.33495 0.67451,-0.43877 0.25206,-0.10302 0.51679,-0.1547 0.79651,-0.1547 0.43162,0 0.83103,0.0899 1.19937,0.2698 0.36946,0.17979 0.66181,0.43612 0.8782,0.76888 0.21527,0.33265 0.32347,0.71939 0.32347,1.16046 0,0.32321 -0.0725,0.63122 -0.2164,0.92347 -0.1439,0.29225 -0.32575,0.55755 -0.5456,0.79582 -0.22098,0.23826 -0.50645,0.51036 -0.85634,0.81607 -0.35108,0.30525 -0.58127,0.5076 -0.68834,0.60694 l -1.26841,1.22744 h 1.07851 c 0.53062,0 0.97378,-0.004 1.32941,-0.0139 0.35454,-0.009 0.54099,-0.0265 0.5594,-0.0535 0.0898,-0.0899 0.18073,-0.43164 0.26935,-1.02556 h 0.33842 l -0.32347,1.99679 h -4.16898" />
    <path
       inkscape:connector-curvature="0"
       id="path5632"
       style="fill:#000000;fill-opacity:1;fill-rule:nonzero;stroke:none;stroke-width:0.11510228"
       d="m 118.63811,135.3505 c -0.91736,0 -1.54009,-0.37765 -1.86927,-1.13295 -0.32688,-0.75542 -0.49149,-1.65057 -0.49149,-2.68476 0,-0.65597 0.0587,-1.26924 0.17495,-1.84026 0.1174,-0.57148 0.35108,-1.05744 0.70213,-1.45719 0.35105,-0.40021 0.84487,-0.60026 1.48368,-0.60026 0.49495,0 0.89895,0.11913 1.21433,0.3575 0.31422,0.23827 0.55249,0.54847 0.71476,0.93072 0.16115,0.38214 0.27397,0.79133 0.33613,1.22745 0.0633,0.43659 0.0955,0.897 0.0955,1.38204 0,0.63893 -0.061,1.23919 -0.18302,1.80077 -0.12086,0.56251 -0.3545,1.03903 -0.70097,1.43072 -0.34646,0.39066 -0.83795,0.58622 -1.47676,0.58622 z m 0,-0.28327 c 0.41321,0 0.72397,-0.21351 0.93116,-0.64066 0.20605,-0.42714 0.33266,-0.90148 0.37754,-1.42347 0.0449,-0.52152 0.0668,-1.07413 0.0668,-1.65816 0,-0.55802 -0.0219,-1.07506 -0.0668,-1.55169 -0.0449,-0.47618 -0.16919,-0.90782 -0.37176,-1.2949 -0.20144,-0.38663 -0.51452,-0.58 -0.93694,-0.58 -0.42242,0 -0.7378,0.19556 -0.94386,0.58725 -0.20718,0.39065 -0.3338,0.82229 -0.37867,1.2949 -0.0449,0.47157 -0.0668,0.98642 -0.0668,1.54444 0,0.4222 0.009,0.8178 0.0265,1.18694 0.0184,0.36821 0.0725,0.74816 0.16228,1.13939 0.0898,0.39158 0.23139,0.72158 0.42474,0.99092 0.19336,0.27026 0.45234,0.40504 0.7758,0.40504" />
    <path
       inkscape:connector-curvature="0"
       id="path5634"
       style="fill:#000000;fill-opacity:1;fill-rule:nonzero;stroke:none;stroke-width:0.11510228"
       d="m 122.532,134.48723 c 0,-0.17127 0.0622,-0.31515 0.18877,-0.43163 0.12548,-0.11683 0.26935,-0.1753 0.43166,-0.1753 0.099,0 0.19794,0.0269 0.2958,0.0809 0.099,0.0545 0.17611,0.13042 0.23019,0.22883 0.0541,0.099 0.0817,0.19786 0.0817,0.29719 0,0.16149 -0.0622,0.30537 -0.18302,0.43164 -0.12199,0.12592 -0.2636,0.18888 -0.42471,0.18888 -0.16231,0 -0.30618,-0.063 -0.43166,-0.18888 -0.12661,-0.12627 -0.18877,-0.27015 -0.18877,-0.43164" />
    <path
       inkscape:connector-curvature="0"
       id="path5636"
       style="fill:#000000;fill-opacity:1;fill-rule:nonzero;stroke:none;stroke-width:0.11510228"
       d="m 125.8504,134.24448 c 0.17957,0.25138 0.41783,0.44015 0.7148,0.56653 0.29697,0.12593 0.61119,0.18877 0.94382,0.18877 0.442,0 0.75163,-0.18658 0.9312,-0.55928 0.17956,-0.37362 0.27047,-0.79397 0.27047,-1.26118 0,-0.21581 -0.0184,-0.42979 -0.0552,-0.64158 -0.0357,-0.21132 -0.10012,-0.40642 -0.19453,-0.58633 -0.0944,-0.17978 -0.22098,-0.32596 -0.37867,-0.4383 -0.15656,-0.112 -0.34762,-0.16817 -0.57323,-0.16817 h -0.75505 c -0.0622,0 -0.0944,-0.032 -0.0944,-0.095 v -0.10785 c 0,-0.0544 0.0311,-0.0814 0.0944,-0.0814 l 0.6204,-0.0535 c 0.26127,0 0.47882,-0.0989 0.65493,-0.29673 0.17494,-0.19832 0.30272,-0.43889 0.38329,-0.72216 0.0817,-0.2828 0.12199,-0.5503 0.12199,-0.80157 0,-0.35969 -0.0829,-0.6547 -0.2486,-0.88398 -0.1669,-0.22929 -0.42587,-0.34393 -0.77696,-0.34393 -0.27739,0 -0.54786,0.0539 -0.808,0.16184 -0.2613,0.10785 -0.46849,0.26979 -0.62156,0.48561 0.0184,0 0.0311,-0.002 0.0414,-0.007 0.008,-0.005 0.0219,-0.007 0.0403,-0.007 0.16111,0 0.2981,0.0585 0.41092,0.17542 0.11278,0.11648 0.16802,0.26036 0.16802,0.43163 0,0.16137 -0.0564,0.30122 -0.16802,0.41863 -0.11282,0.11682 -0.24981,0.17484 -0.41092,0.17484 -0.17152,0 -0.31538,-0.058 -0.43166,-0.17484 -0.1174,-0.11741 -0.17611,-0.25726 -0.17611,-0.41863 0,-0.32378 0.0967,-0.60429 0.29006,-0.84255 0.19339,-0.23837 0.44316,-0.41816 0.74933,-0.5396 0.30502,-0.12143 0.61119,-0.18255 0.9162,-0.18255 0.23368,0 0.47654,0.0337 0.7286,0.10117 0.25209,0.0675 0.47882,0.16414 0.68142,0.29006 0.20257,0.12627 0.36834,0.28776 0.49953,0.48504 0.13007,0.19833 0.19569,0.42312 0.19569,0.67542 0,0.31423 -0.0702,0.60383 -0.21064,0.86903 -0.13812,0.26531 -0.33151,0.49459 -0.57898,0.68796 -0.24744,0.19337 -0.51449,0.3399 -0.80225,0.43877 0.32342,0.0625 0.63076,0.18393 0.92311,0.36419 0.29238,0.17944 0.52603,0.41321 0.70213,0.70097 0.17494,0.28775 0.26243,0.59358 0.26243,0.91771 0,0.41368 -0.11165,0.78684 -0.33609,1.1196 -0.2256,0.33264 -0.52257,0.59347 -0.89203,0.78223 -0.36721,0.18889 -0.75854,0.28327 -1.17292,0.28327 -0.34988,0 -0.70097,-0.0651 -1.05201,-0.1951 -0.34992,-0.13087 -0.63769,-0.33092 -0.86329,-0.60117 -0.22444,-0.26923 -0.33609,-0.58852 -0.33609,-0.9572 0,-0.18888 0.0622,-0.34392 0.18761,-0.46536 0.12661,-0.12143 0.27972,-0.18209 0.45928,-0.18209 0.12545,0 0.2371,0.0269 0.33725,0.0809 0.099,0.054 0.17724,0.13225 0.23594,0.23608 0.0587,0.10335 0.0875,0.21351 0.0875,0.33045 0,0.17945 -0.0656,0.3323 -0.19568,0.45857 -0.13007,0.12592 -0.28544,0.18888 -0.465,0.18888 h -0.0541" />
    <path
       inkscape:connector-curvature="0"
       id="path5638"
       style="fill:#000000;fill-opacity:1;fill-rule:nonzero;stroke:none;stroke-width:0.11510228"
       d="m 40.85657,151.03772 v -0.45815 c 0.431657,0 0.851781,-0.0247 1.261533,-0.0742 0.408622,-0.0495 0.613479,-0.15961 0.613479,-0.33092 v -7.122 c 0,-0.17979 -0.05179,-0.29224 -0.154234,-0.33713 -0.103576,-0.045 -0.268182,-0.0675 -0.49262,-0.0675 H 41.53108 c -0.710176,0 -1.213168,0.15734 -1.510136,0.47203 -0.153107,0.15332 -0.263597,0.40021 -0.33034,0.74147 -0.06791,0.34215 -0.127778,0.77379 -0.181859,1.2949 h -0.364876 l 0.24285,-2.96709 h 7.905221 l 0.255553,2.96709 h -0.377542 c -0.05412,-0.55708 -0.112818,-0.99726 -0.174979,-1.32147 -0.06445,-0.3232 -0.171485,-0.56158 -0.324554,-0.7149 -0.305049,-0.31469 -0.81379,-0.47203 -1.523966,-0.47203 h -0.539821 c -0.161147,0 -0.285467,0.007 -0.370629,0.0206 -0.08636,0.0131 -0.155397,0.049 -0.209512,0.10797 -0.05295,0.058 -0.08058,0.15021 -0.08058,0.27601 v 7.122 c 0,0.17131 0.204894,0.28146 0.613516,0.33092 0.408623,0.0495 0.829876,0.0742 1.261499,0.0742 v 0.45815 h -4.964358" />
    <path
       inkscape:connector-curvature="0"
       id="path5640"
       style="fill:#000000;fill-opacity:1;fill-rule:nonzero;stroke:none;stroke-width:0.11510228"
       d="m 48.220839,151.03772 v -0.45815 c 0.287727,0 0.52832,-0.0225 0.721678,-0.0675 0.193357,-0.0454 0.290054,-0.15782 0.290054,-0.33767 v -3.53399 c 0,-0.33272 -0.06562,-0.5373 -0.195685,-0.61373 -0.131199,-0.0764 -0.384421,-0.1151 -0.761966,-0.1151 v -0.45817 l 1.861226,-0.13488 v 4.85587 c 0,0.17985 0.0829,0.29226 0.24976,0.33767 0.16574,0.045 0.38442,0.0675 0.65377,0.0675 v 0.45815 z m 0.539822,-7.94429 c 0,-0.18888 0.07137,-0.35521 0.21523,-0.49908 0.143896,-0.14388 0.310796,-0.21582 0.499565,-0.21582 0.11741,0 0.23365,0.0314 0.35105,0.0939 0.11624,0.063 0.20603,0.15067 0.26935,0.26347 0.0633,0.112 0.0944,0.23113 0.0944,0.35751 0,0.17933 -0.0714,0.34128 -0.21523,0.48516 -0.1439,0.14387 -0.3108,0.21581 -0.49954,0.21581 -0.188769,0 -0.355669,-0.0719 -0.499565,-0.21581 -0.143864,-0.14388 -0.21523,-0.30583 -0.21523,-0.48516" />
    <path
       inkscape:connector-curvature="0"
       id="path5642"
       style="fill:#000000;fill-opacity:1;fill-rule:nonzero;stroke:none;stroke-width:0.11510228"
       d="m 51.724526,151.03772 v -0.45815 c 0.28776,0 0.52832,-0.0225 0.72171,-0.0675 0.19336,-0.0454 0.29005,-0.15782 0.29005,-0.33767 v -3.53399 c 0,-0.2338 -0.0357,-0.40241 -0.10819,-0.50582 -0.0714,-0.10297 -0.17265,-0.16591 -0.30389,-0.18839 -0.13007,-0.0229 -0.33034,-0.0346 -0.59968,-0.0346 v -0.45817 l 1.87505,-0.13488 v 1.26838 c 0.17032,-0.37814 0.427,-0.68387 0.76771,-0.91768 0.34184,-0.2338 0.71134,-0.3507 1.1073,-0.3507 0.99794,0 1.58263,0.40466 1.75299,1.21397 0.17152,-0.36824 0.42242,-0.66274 0.75508,-0.88306 0.33264,-0.2203 0.69752,-0.33091 1.09347,-0.33091 0.3948,0 0.72514,0.0634 0.99103,0.18929 0.26472,0.12544 0.46499,0.31878 0.59968,0.58 0.13582,0.26079 0.20257,0.58452 0.20257,0.97118 v 3.1154 c 0,0.17985 0.0967,0.29226 0.29005,0.33767 0.19339,0.045 0.43395,0.0675 0.72171,0.0675 v 0.45815 h -2.95352 v -0.45815 c 0.28776,0 0.52832,-0.0225 0.72168,-0.0675 0.19339,-0.0454 0.29005,-0.15782 0.29005,-0.33767 v -3.07583 c 0,-0.43163 -0.0633,-0.77964 -0.18877,-1.04446 -0.12661,-0.26528 -0.37867,-0.39792 -0.75621,-0.39792 -0.49495,0 -0.90354,0.20008 -1.227,0.60025 -0.32456,0.3997 -0.4857,0.85157 -0.4857,1.35514 v 2.56282 c 0,0.17985 0.0944,0.29226 0.28313,0.33767 0.18878,0.045 0.43163,0.0675 0.72859,0.0675 v 0.45815 h -2.96731 v -0.45815 c 0.2958,0 0.53865,-0.0225 0.72859,-0.0675 0.18877,-0.0454 0.28314,-0.15782 0.28314,-0.33767 v -3.07583 c 0,-0.42219 -0.061,-0.7684 -0.18186,-1.03817 -0.12199,-0.26932 -0.37638,-0.40421 -0.76313,-0.40421 -0.49378,0 -0.90353,0.20008 -1.22699,0.60025 -0.32343,0.3997 -0.48574,0.85157 -0.48574,1.35514 v 2.56282 c 0,0.17985 0.0944,0.29226 0.28317,0.33767 0.18877,0.045 0.42704,0.0675 0.71476,0.0675 v 0.45815 h -2.95352" />
    <path
       inkscape:connector-curvature="0"
       id="path5644"
       style="fill:#000000;fill-opacity:1;fill-rule:nonzero;stroke:none;stroke-width:0.11510228"
       d="m 65.107466,151.18655 c -0.52945,0 -1.0129,-0.13983 -1.44911,-0.41905 -0.43624,-0.27831 -0.78041,-0.647 -1.03247,-1.10561 -0.2521,-0.45861 -0.37754,-0.9442 -0.37754,-1.45631 0,-0.51302 0.11394,-0.99636 0.34417,-1.45047 0.22902,-0.45411 0.54902,-0.82011 0.95765,-1.09887 0.40975,-0.27921 0.86554,-0.41859 1.36969,-0.41859 0.404,0 0.75279,0.0652 1.04514,0.19603 0.29122,0.12994 0.53178,0.31428 0.72168,0.55258 0.18877,0.23785 0.33034,0.51706 0.42474,0.83629 0.0944,0.31923 0.14157,0.67263 0.14157,1.05931 0,0.10746 -0.0414,0.1614 -0.12202,0.1614 h -3.75003 v 0.14838 c 0,0.71039 0.1439,1.32413 0.43166,1.84164 0.28772,0.51662 0.75967,0.77513 1.4169,0.77513 0.26013,0 0.50298,-0.0607 0.72859,-0.18209 0.22443,-0.12185 0.42012,-0.28551 0.58702,-0.49233 0.16573,-0.20637 0.28084,-0.43118 0.34301,-0.67398 0.009,-0.0274 0.0253,-0.0544 0.0483,-0.0814 0.0219,-0.027 0.0472,-0.0405 0.0737,-0.0405 h 0.12083 c 0.0806,0 0.12202,0.0584 0.12202,0.17534 -0.1174,0.4856 -0.37754,0.88576 -0.7827,1.20049 -0.40517,0.31518 -0.85867,0.47255 -1.36282,0.47255 z m -1.7127,-3.46701 h 2.94086 c 0,-0.32328 -0.0449,-0.65149 -0.13582,-0.98422 -0.0886,-0.33316 -0.23943,-0.60967 -0.4512,-0.82954 -0.21177,-0.22032 -0.48804,-0.33047 -0.82875,-0.33047 -0.48574,0 -0.86212,0.22931 -1.12684,0.68792 -0.26589,0.4586 -0.39825,0.9442 -0.39825,1.45631" />
    <path
       inkscape:connector-curvature="0"
       id="path5646"
       style="fill:#000000;fill-opacity:1;fill-rule:nonzero;stroke:none;stroke-width:0.11510228"
       d="m 73.255576,154.27498 v -12.94906 h 1.78064 v 0.51301 h -1.25349 v 11.92348 h 1.25349 v 0.51257 h -1.78064" />
    <path
       inkscape:connector-curvature="0"
       id="path5648"
       style="fill:#000000;fill-opacity:1;fill-rule:nonzero;stroke:none;stroke-width:0.11510228"
       d="m 75.680776,151.07864 v -2.1177 c 0,-0.0634 0.0357,-0.0949 0.1082,-0.0949 h 0.16115 c 0.0541,0 0.0898,0.0315 0.1082,0.0949 0.23364,1.24993 0.81375,1.8749 1.74032,1.8749 0.40404,0 0.74588,-0.0922 1.02443,-0.27696 0.27855,-0.18435 0.41896,-0.46986 0.41896,-0.85652 0,-0.27832 -0.1082,-0.51437 -0.32343,-0.70771 -0.21639,-0.19333 -0.47307,-0.32596 -0.77004,-0.3979 l -0.86325,-0.17535 c -0.28776,-0.0634 -0.55019,-0.16007 -0.78846,-0.29001 -0.23826,-0.13084 -0.43395,-0.30394 -0.58702,-0.51976 -0.1531,-0.21582 -0.22906,-0.4676 -0.22906,-0.75536 0,-0.38667 0.099,-0.69915 0.29581,-0.93745 0.19798,-0.23829 0.45928,-0.4114 0.78383,-0.51886 0.32347,-0.10835 0.66876,-0.16231 1.03823,-0.16231 0.4397,0 0.82645,0.11689 1.15909,0.35025 l 0.36371,-0.32372 c 0,-0.0175 0.023,-0.0265 0.0679,-0.0265 h 0.0944 c 0.0276,0 0.0518,0.0112 0.0748,0.0337 0.0219,0.0225 0.0334,0.0472 0.0334,0.0742 v 1.68607 c 0,0.0809 -0.0357,0.1214 -0.1082,0.1214 h -0.16231 c -0.0713,0 -0.10703,-0.0405 -0.10703,-0.1214 0,-0.44961 -0.12545,-0.8111 -0.37755,-1.08537 -0.25205,-0.27428 -0.6031,-0.41186 -1.05201,-0.41186 -0.38675,0 -0.72172,0.0719 -1.00486,0.21582 -0.28314,0.14388 -0.42471,0.39117 -0.42471,0.74187 0,0.24279 0.10129,0.44063 0.30272,0.59395 0.20257,0.15242 0.44313,0.26032 0.72168,0.32372 l 0.87708,0.1749 c 0.28776,0.063 0.5594,0.17536 0.81608,0.33766 0.25668,0.16187 0.45924,0.3642 0.6066,0.607 0.14848,0.24278 0.22214,0.51706 0.22214,0.8228 0,0.31473 -0.0507,0.58675 -0.15423,0.8156 -0.10361,0.22975 -0.2521,0.42085 -0.44545,0.57326 -0.1934,0.15287 -0.42013,0.26573 -0.68143,0.33767 -0.2601,0.0719 -0.53407,0.10791 -0.82183,0.10791 -0.53982,0 -1.00369,-0.1848 -1.39044,-0.55349 l -0.47191,0.51257 c 0,0.0274 -0.0219,0.0409 -0.0679,0.0409 h -0.0794 c -0.0725,0 -0.1082,-0.036 -0.1082,-0.10791" />
    <path
       inkscape:connector-curvature="0"
       id="path5650"
       style="fill:#000000;fill-opacity:1;fill-rule:nonzero;stroke:none;stroke-width:0.11510228"
       d="m 80.526566,154.27498 v -0.51257 h 1.25349 v -11.92348 h -1.25349 v -0.51301 h 1.77949 v 12.94906 h -1.77949" />
    <path
       inkscape:connector-curvature="0"
       id="path5652"
       style="fill:none;stroke:#444041;stroke-width:1.15100002;stroke-linecap:square;stroke-linejoin:round;stroke-miterlimit:10;stroke-dasharray:none;stroke-opacity:1"
       d="M -25.542465,120.83507 V 0.84094647" />
    <path
       inkscape:connector-curvature="0"
       id="path5654"
       style="fill:none;stroke:#444041;stroke-width:1.15073514;stroke-linecap:square;stroke-linejoin:round;stroke-miterlimit:10;stroke-dasharray:none;stroke-opacity:1"
       d="M 147.97423,120.83507 V 0.84094647" />
    <path
       inkscape:connector-curvature="0"
       id="path5656"
       style="fill:none;stroke:#444041;stroke-width:1.15073514;stroke-linecap:square;stroke-linejoin:round;stroke-miterlimit:10;stroke-dasharray:none;stroke-opacity:1"
       d="m -25.542465,109.92683 h 1.73459" />
    <path
       inkscape:connector-curvature="0"
       id="path5658"
       style="fill:none;stroke:#444041;stroke-width:1.15073514;stroke-linecap:square;stroke-linejoin:round;stroke-miterlimit:10;stroke-dasharray:none;stroke-opacity:1"
       d="m -25.542465,88.109651 h 1.73459" />
    <path
       inkscape:connector-curvature="0"
       id="path5660"
       style="fill:none;stroke:#444041;stroke-width:1.15073514;stroke-linecap:square;stroke-linejoin:round;stroke-miterlimit:10;stroke-dasharray:none;stroke-opacity:1"
       d="m -25.542465,66.292358 h 1.73459" />
    <path
       inkscape:connector-curvature="0"
       id="path5662"
       style="fill:none;stroke:#444041;stroke-width:1.15073514;stroke-linecap:square;stroke-linejoin:round;stroke-miterlimit:10;stroke-dasharray:none;stroke-opacity:1"
       d="m -25.542465,44.474607 h 1.73459" />
    <path
       inkscape:connector-curvature="0"
       id="path5664"
       style="fill:none;stroke:#444041;stroke-width:1.15073514;stroke-linecap:square;stroke-linejoin:round;stroke-miterlimit:10;stroke-dasharray:none;stroke-opacity:1"
       d="m -25.542465,22.658581 h 1.73459" />
    <path
       inkscape:connector-curvature="0"
       id="path5666"
       style="fill:none;stroke:#444041;stroke-width:1.15073514;stroke-linecap:square;stroke-linejoin:round;stroke-miterlimit:10;stroke-dasharray:none;stroke-opacity:1"
       d="m -25.542465,0.84094647 h 1.73459" />
    <path
       inkscape:connector-curvature="0"
       id="path5668"
       style="fill:none;stroke:#444041;stroke-width:1.15073514;stroke-linecap:square;stroke-linejoin:round;stroke-miterlimit:10;stroke-dasharray:none;stroke-opacity:1"
       d="m 147.97423,109.92683 h -1.73461" />
    <path
       inkscape:connector-curvature="0"
       id="path5670"
       style="fill:none;stroke:#444041;stroke-width:1.15073514;stroke-linecap:square;stroke-linejoin:round;stroke-miterlimit:10;stroke-dasharray:none;stroke-opacity:1"
       d="m 147.97423,88.109651 h -1.73461" />
    <path
       inkscape:connector-curvature="0"
       id="path5672"
       style="fill:none;stroke:#444041;stroke-width:1.15073514;stroke-linecap:square;stroke-linejoin:round;stroke-miterlimit:10;stroke-dasharray:none;stroke-opacity:1"
       d="m 147.97423,66.292358 h -1.73461" />
    <path
       inkscape:connector-curvature="0"
       id="path5674"
       style="fill:none;stroke:#444041;stroke-width:1.15073514;stroke-linecap:square;stroke-linejoin:round;stroke-miterlimit:10;stroke-dasharray:none;stroke-opacity:1"
       d="m 147.97423,44.474607 h -1.73461" />
    <path
       inkscape:connector-curvature="0"
       id="path5676"
       style="fill:none;stroke:#444041;stroke-width:1.15073514;stroke-linecap:square;stroke-linejoin:round;stroke-miterlimit:10;stroke-dasharray:none;stroke-opacity:1"
       d="m 147.97423,22.658581 h -1.73461" />
    <path
       inkscape:connector-curvature="0"
       id="path5678"
       style="fill:none;stroke:#444041;stroke-width:1.15073514;stroke-linecap:square;stroke-linejoin:round;stroke-miterlimit:10;stroke-dasharray:none;stroke-opacity:1"
       d="m 147.97423,0.84094647 h -1.73461" />
    <path
       inkscape:connector-curvature="0"
       id="path5680"
       style="fill:#000000;fill-opacity:1;fill-rule:nonzero;stroke:none;stroke-width:0.11510228"
       d="m -33.096631,112.93168 c -0.916213,0 -1.538915,-0.37765 -1.868109,-1.1326 -0.328041,-0.75576 -0.491488,-1.65057 -0.491488,-2.68511 0,-0.65597 0.0587,-1.26923 0.174959,-1.84025 0.117403,-0.57148 0.351062,-1.0571 0.702122,-1.4572 0.349914,-0.40021 0.844854,-0.5998 1.482516,-0.5998 0.49494,0 0.900102,0.11913 1.215482,0.3574 0.31423,0.2378 0.552493,0.54811 0.714786,0.93025 0.161144,0.38214 0.273944,0.79133 0.336097,1.22791 0.06331,0.43613 0.09554,0.89653 0.09554,1.38169 0,0.63894 -0.061,1.2392 -0.183015,1.80112 -0.120854,0.56205 -0.355664,1.03915 -0.702122,1.43026 -0.345305,0.39077 -0.837944,0.58633 -1.476764,0.58633 z m 0,-0.28326 c 0.414369,0 0.723995,-0.21352 0.93118,-0.64066 0.207184,-0.42668 0.332647,-0.90148 0.377534,-1.42359 0.04489,-0.52106 0.06791,-1.07413 0.06791,-1.65816 0,-0.55756 -0.02302,-1.07506 -0.06791,-1.55112 -0.04489,-0.47664 -0.168048,-0.90827 -0.370629,-1.2949 -0.202578,-0.3872 -0.514508,-0.58046 -0.938085,-0.58046 -0.422423,0 -0.736653,0.19602 -0.942684,0.58714 -0.207185,0.39077 -0.333798,0.8224 -0.378688,1.2949 -0.04489,0.47215 -0.06791,0.98688 -0.06791,1.54444 0,0.4222 0.0092,0.81792 0.02762,1.18705 0.01725,0.36821 0.07136,0.74816 0.162295,1.13928 0.08978,0.39158 0.231355,0.72169 0.424725,0.99092 0.193374,0.27026 0.4512,0.40516 0.774637,0.40516" />
    <path
       inkscape:connector-curvature="0"
       id="path5682"
       style="fill:#000000;fill-opacity:1;fill-rule:nonzero;stroke:none;stroke-width:0.11510228"
       d="m -46.373675,90.872101 v -0.39123 c 0.935782,0 1.403096,-0.12143 1.403096,-0.36419 v -5.881488 c -0.386743,0.179901 -0.87708,0.270259 -1.469856,0.270259 v -0.391118 c 0.917364,0 1.609129,-0.238379 2.076447,-0.714899 h 0.162292 c 0.02763,0 0.0518,0.009 0.07482,0.02694 0.02187,0.01749 0.03338,0.04005 0.03338,0.06699 v 6.623326 c 0,0.24276 0.467314,0.36419 1.403096,0.36419 v 0.39123 h -3.683272" />
    <path
       inkscape:connector-curvature="0"
       id="path5684"
       style="fill:#000000;fill-opacity:1;fill-rule:nonzero;stroke:none;stroke-width:0.11510228"
       d="m -38.850591,91.114391 c -0.917367,0 -1.540069,-0.37765 -1.868109,-1.1326 -0.329195,-0.75577 -0.493791,-1.65057 -0.493791,-2.68465 0,-0.65596 0.0587,-1.26969 0.176107,-1.84071 0.117405,-0.57149 0.351064,-1.057106 0.700973,-1.457201 0.351063,-0.399749 0.846003,-0.599795 1.48482,-0.599795 0.49379,0 0.898949,0.119129 1.213178,0.357391 0.315381,0.238263 0.553643,0.548577 0.714785,0.930714 0.162296,0.382141 0.275095,0.791331 0.338402,1.227451 0.06216,0.43612 0.09323,0.89699 0.09323,1.38215 0,0.63893 -0.05985,1.23919 -0.181861,1.80078 -0.120856,0.56192 -0.355666,1.03903 -0.700971,1.43014 -0.346461,0.39077 -0.839097,0.58633 -1.476764,0.58633 z m 0,-0.28326 c 0.413216,0 0.722842,-0.21352 0.930024,-0.6402 0.207187,-0.42715 0.33265,-0.90148 0.377536,-1.42359 0.04489,-0.52153 0.06676,-1.07459 0.06676,-1.65862 0,-0.55744 -0.02188,-1.07459 -0.06676,-1.55112 -0.04489,-0.476638 -0.16805,-0.908272 -0.370628,-1.294899 -0.202579,-0.386747 -0.514505,-0.580001 -0.936932,-0.580001 -0.423577,0 -0.737806,0.195558 -0.944989,0.586676 -0.206033,0.390771 -0.332645,0.822404 -0.377536,1.294894 -0.04489,0.47215 -0.06791,0.98701 -0.06791,1.54445 0,0.42265 0.0092,0.81838 0.02762,1.18705 0.01842,0.36821 0.07136,0.74816 0.162295,1.13974 0.08978,0.39123 0.230205,0.72169 0.424727,0.99092 0.193372,0.26979 0.451203,0.4047 0.77579,0.4047" />
    <path
       inkscape:connector-curvature="0"
       id="path5686"
       style="fill:#000000;fill-opacity:1;fill-rule:nonzero;stroke:none;stroke-width:0.11510228"
       d="m -33.096631,91.114391 c -0.916213,0 -1.538915,-0.37765 -1.868109,-1.1326 -0.328041,-0.75577 -0.491488,-1.65057 -0.491488,-2.68465 0,-0.65596 0.0587,-1.26969 0.174959,-1.84071 0.117403,-0.57149 0.351062,-1.057106 0.702122,-1.457201 0.349914,-0.399749 0.844854,-0.599795 1.482516,-0.599795 0.49494,0 0.900102,0.119129 1.215482,0.357391 0.31423,0.238263 0.552493,0.548577 0.714786,0.930714 0.161144,0.382141 0.273944,0.791331 0.336097,1.227451 0.06331,0.43612 0.09554,0.89699 0.09554,1.38215 0,0.63893 -0.061,1.23919 -0.183015,1.80078 -0.120854,0.56192 -0.355664,1.03903 -0.702122,1.43014 -0.345305,0.39077 -0.837944,0.58633 -1.476764,0.58633 z m 0,-0.28326 c 0.414369,0 0.723995,-0.21352 0.93118,-0.6402 0.207184,-0.42715 0.332647,-0.90148 0.377534,-1.42359 0.04489,-0.52153 0.06791,-1.07459 0.06791,-1.65862 0,-0.55744 -0.02302,-1.07459 -0.06791,-1.55112 -0.04489,-0.476638 -0.168048,-0.908272 -0.370629,-1.294899 -0.202578,-0.386747 -0.514508,-0.580001 -0.938085,-0.580001 -0.422423,0 -0.736653,0.195558 -0.942684,0.586676 -0.207185,0.390771 -0.333798,0.822404 -0.378688,1.294894 -0.04489,0.47215 -0.06791,0.98701 -0.06791,1.54445 0,0.42265 0.0092,0.81838 0.02762,1.18705 0.01725,0.36821 0.07136,0.74816 0.162295,1.13974 0.08978,0.39123 0.231355,0.72169 0.424725,0.99092 0.193374,0.26979 0.4512,0.4047 0.774637,0.4047" />
    <path
       inkscape:connector-curvature="0"
       id="path5688"
       style="fill:#000000;fill-opacity:1;fill-rule:nonzero;stroke:none;stroke-width:0.11510228"
       d="m -46.858258,69.054811 v -0.297193 c 0,-0.01762 0.0092,-0.04006 0.02648,-0.06699 l 1.739195,-1.928884 c 0.270489,-0.287755 0.485732,-0.52832 0.648024,-0.72169 0.162296,-0.193257 0.323438,-0.415864 0.485733,-0.668055 0.162296,-0.251383 0.290058,-0.507714 0.384443,-0.768421 0.09438,-0.260361 0.141573,-0.534652 0.141573,-0.822407 0,-0.306171 -0.0587,-0.601065 -0.176106,-0.88387 -0.116251,-0.283265 -0.287754,-0.508061 -0.512205,-0.6745 -0.224448,-0.166322 -0.493787,-0.249541 -0.809167,-0.249541 -0.323437,0 -0.615798,0.09899 -0.877079,0.297193 -0.260131,0.197403 -0.444296,0.449247 -0.552493,0.755417 0.03568,-0.0094 0.07597,-0.01392 0.120859,-0.01392 0.171503,0 0.315379,0.05617 0.431634,0.168164 0.117404,0.112802 0.174953,0.258982 0.174953,0.438772 0,0.170926 -0.05755,0.316992 -0.174953,0.438425 -0.116255,0.121317 -0.260131,0.182091 -0.431634,0.182091 -0.170353,0 -0.31653,-0.06077 -0.437388,-0.182091 -0.120859,-0.121433 -0.181864,-0.267499 -0.181864,-0.438425 0,-0.278779 0.05295,-0.541788 0.161145,-0.789028 0.108197,-0.247814 0.261281,-0.465817 0.458107,-0.6547 0.197975,-0.188423 0.423576,-0.334947 0.67565,-0.438309 0.250924,-0.103018 0.515659,-0.154699 0.794205,-0.154699 0.431634,0 0.832189,0.08989 1.201667,0.26934 0.368328,0.18025 0.660689,0.436581 0.87708,0.769229 0.215243,0.332761 0.323437,0.719388 0.323437,1.160459 0,0.323324 -0.07251,0.631336 -0.21639,0.923581 -0.143881,0.292246 -0.325741,0.55744 -0.545585,0.795817 -0.220998,0.238262 -0.506452,0.510249 -0.856361,0.816075 -0.351064,0.305253 -0.580115,0.507604 -0.688312,0.606476 l -1.268427,1.22791 h 1.079659 c 0.53062,0 0.973765,-0.0049 1.328279,-0.01392 0.354517,-0.0085 0.542131,-0.02647 0.56055,-0.05352 0.08978,-0.08989 0.17956,-0.431633 0.269338,-1.025562 h 0.337249 l -0.323438,1.996798 h -4.167854" />
    <path
       inkscape:connector-curvature="0"
       id="path5690"
       style="fill:#000000;fill-opacity:1;fill-rule:nonzero;stroke:none;stroke-width:0.11510228"
       d="m -38.850591,69.297104 c -0.917367,0 -1.540069,-0.37719 -1.868109,-1.132608 -0.329195,-0.7553 -0.493791,-1.650566 -0.493791,-2.684645 0,-0.655968 0.0587,-1.269232 0.176107,-1.840256 0.117405,-0.571482 0.351064,-1.057558 0.700973,-1.457193 0.351063,-0.400211 0.846003,-0.60026 1.48482,-0.60026 0.49379,0 0.898949,0.119131 1.213178,0.357394 0.315381,0.238376 0.553643,0.548576 0.714785,0.930717 0.162296,0.382254 0.275095,0.791326 0.338402,1.227449 0.06216,0.436584 0.09323,0.896994 0.09323,1.382149 0,0.638932 -0.05985,1.239192 -0.181861,1.800776 -0.120856,0.562387 -0.355666,1.039026 -0.700971,1.430604 -0.346461,0.390774 -0.839097,0.585873 -1.476764,0.585873 z m 0,-0.282808 c 0.413216,0 0.722842,-0.213514 0.930024,-0.64066 0.207187,-0.427143 0.33265,-0.90148 0.377536,-1.423469 0.04489,-0.521644 0.06676,-1.074134 0.06676,-1.658278 0,-0.557901 -0.02188,-1.075055 -0.06676,-1.551578 -0.04489,-0.476178 -0.16805,-0.907812 -0.370628,-1.294902 -0.202579,-0.386742 -0.514505,-0.579999 -0.936932,-0.579999 -0.423577,0 -0.737806,0.195559 -0.944989,0.587137 -0.206033,0.390771 -0.332645,0.822404 -0.377536,1.2949 -0.04489,0.471689 -0.06791,0.986541 -0.06791,1.544442 0,0.422195 0.0092,0.817917 0.02762,1.18705 0.01842,0.368213 0.07136,0.748165 0.162295,1.139283 0.08978,0.391231 0.230205,0.721691 0.424727,0.991031 0.193372,0.270145 0.451203,0.405043 0.77579,0.405043" />
    <path
       inkscape:connector-curvature="0"
       id="path5692"
       style="fill:#000000;fill-opacity:1;fill-rule:nonzero;stroke:none;stroke-width:0.11510228"
       d="m -33.096631,69.297104 c -0.916213,0 -1.538915,-0.37719 -1.868109,-1.132608 -0.328041,-0.7553 -0.491488,-1.650566 -0.491488,-2.684645 0,-0.655968 0.0587,-1.269232 0.174959,-1.840256 0.117403,-0.571482 0.351062,-1.057558 0.702122,-1.457193 0.349914,-0.400211 0.844854,-0.60026 1.482516,-0.60026 0.49494,0 0.900102,0.119131 1.215482,0.357394 0.31423,0.238376 0.552493,0.548576 0.714786,0.930717 0.161144,0.382254 0.273944,0.791326 0.336097,1.227449 0.06331,0.436584 0.09554,0.896994 0.09554,1.382149 0,0.638932 -0.061,1.239192 -0.183015,1.800776 -0.120854,0.562387 -0.355664,1.039026 -0.702122,1.430604 -0.345305,0.390774 -0.837944,0.585873 -1.476764,0.585873 z m 0,-0.282808 c 0.414369,0 0.723995,-0.213514 0.93118,-0.64066 0.207184,-0.427143 0.332647,-0.90148 0.377534,-1.423469 0.04489,-0.521644 0.06791,-1.074134 0.06791,-1.658278 0,-0.557901 -0.02302,-1.075055 -0.06791,-1.551578 -0.04489,-0.476178 -0.168048,-0.907812 -0.370629,-1.294902 -0.202578,-0.386742 -0.514508,-0.579999 -0.938085,-0.579999 -0.422423,0 -0.736653,0.195559 -0.942684,0.587137 -0.207185,0.390771 -0.333798,0.822404 -0.378688,1.2949 -0.04489,0.471689 -0.06791,0.986541 -0.06791,1.544442 0,0.422195 0.0092,0.817917 0.02762,1.18705 0.01725,0.368213 0.07136,0.748165 0.162295,1.139283 0.08978,0.391231 0.231355,0.721691 0.424725,0.991031 0.193374,0.270145 0.4512,0.405043 0.774637,0.405043" />
    <path
       inkscape:connector-curvature="0"
       id="path5694"
       style="fill:#000000;fill-opacity:1;fill-rule:nonzero;stroke:none;stroke-width:0.11510228"
       d="m -46.347203,46.374255 c 0.180711,0.251729 0.418973,0.44015 0.714785,0.566533 0.296965,0.125807 0.612344,0.188767 0.944992,0.188767 0.440842,0 0.751618,-0.186121 0.930025,-0.559281 0.18071,-0.373624 0.270492,-0.793975 0.270492,-1.261176 0,-0.215816 -0.01727,-0.429792 -0.0541,-0.641581 -0.03568,-0.210867 -0.101292,-0.40654 -0.195674,-0.585869 -0.09438,-0.180367 -0.219844,-0.32643 -0.377536,-0.438886 -0.156538,-0.111879 -0.34761,-0.168164 -0.573208,-0.168164 h -0.755071 c -0.06331,0 -0.09439,-0.03142 -0.09439,-0.09484 v -0.107849 c 0,-0.05444 0.03108,-0.08138 0.09439,-0.08138 l 0.620398,-0.05352 c 0.261285,0 0.478829,-0.09899 0.653782,-0.296735 0.174957,-0.198321 0.303873,-0.438883 0.384443,-0.721691 0.08172,-0.283265 0.122009,-0.550765 0.122009,-0.802148 0,-0.359693 -0.08288,-0.654124 -0.249774,-0.88387 -0.165746,-0.228938 -0.424727,-0.34404 -0.775787,-0.34404 -0.278549,0 -0.547888,0.0541 -0.809169,0.162296 -0.260132,0.107505 -0.467318,0.269798 -0.620402,0.485616 0.01841,0 0.03108,-0.0021 0.04029,-0.0071 0.0092,-0.0045 0.02187,-0.0068 0.04028,-0.0068 0.162295,0 0.299264,0.05847 0.410915,0.175416 0.112801,0.116827 0.170353,0.260708 0.170353,0.431634 0,0.161372 -0.05755,0.301223 -0.170353,0.418512 -0.111651,0.116943 -0.24862,0.175414 -0.410915,0.175414 -0.17035,0 -0.31423,-0.05847 -0.431635,-0.175414 -0.116251,-0.117289 -0.174953,-0.25714 -0.174953,-0.418512 0,-0.323784 0.09669,-0.604287 0.290058,-0.842664 0.193371,-0.238376 0.441992,-0.417938 0.748164,-0.539946 0.306172,-0.120856 0.612344,-0.181861 0.917366,-0.181861 0.233656,0 0.476522,0.03338 0.728596,0.10129 0.250924,0.06676 0.478825,0.163444 0.681404,0.290058 0.202583,0.12592 0.368329,0.287295 0.498394,0.485156 0.131216,0.19786 0.195676,0.422656 0.195676,0.674843 0,0.314347 -0.06906,0.603944 -0.208337,0.869138 -0.139273,0.265311 -0.332645,0.495057 -0.580115,0.688427 -0.24747,0.193257 -0.514508,0.339437 -0.802262,0.438309 0.322287,0.06296 0.630759,0.184394 0.92312,0.364183 0.292358,0.179906 0.526017,0.413219 0.702123,0.700974 0.174957,0.287756 0.262432,0.593929 0.262432,0.91771 0,0.414023 -0.112797,0.787299 -0.337249,1.119487 -0.224447,0.332758 -0.521412,0.593582 -0.889741,0.782349 -0.369478,0.188883 -0.759675,0.283265 -1.174041,0.283265 -0.349913,0 -0.700972,-0.06515 -1.052036,-0.195098 -0.351063,-0.130921 -0.638817,-0.330967 -0.863268,-0.600768 -0.224448,-0.269799 -0.337249,-0.588518 -0.337249,-0.957652 0,-0.18888 0.06331,-0.343924 0.189918,-0.465357 0.125462,-0.121433 0.277397,-0.182091 0.458107,-0.182091 0.125462,0 0.238263,0.02693 0.336098,0.08138 0.09899,0.05352 0.178411,0.131675 0.237113,0.235614 0.05755,0.103359 0.08633,0.213513 0.08633,0.330456 0,0.17979 -0.06446,0.332301 -0.194522,0.458568 -0.130066,0.125923 -0.285453,0.188884 -0.465014,0.188884 h -0.05525" />
    <path
       inkscape:connector-curvature="0"
       id="path5696"
       style="fill:#000000;fill-opacity:1;fill-rule:nonzero;stroke:none;stroke-width:0.11510228"
       d="m -38.850591,47.480271 c -0.917367,0 -1.540069,-0.37765 -1.868109,-1.132604 -0.329195,-0.755762 -0.493791,-1.650453 -0.493791,-2.684646 0,-0.656428 0.0587,-1.269693 0.176107,-1.840716 0.117405,-0.571482 0.351064,-1.057098 0.700973,-1.457196 0.351063,-0.399748 0.846003,-0.600027 1.48482,-0.600027 0.49379,0 0.898949,0.119705 1.213178,0.357968 0.315381,0.238032 0.553643,0.547772 0.714785,0.929912 0.162296,0.382255 0.275095,0.791327 0.338402,1.227911 0.06216,0.436123 0.09323,0.896532 0.09323,1.382148 0,0.638472 -0.05985,1.238729 -0.181861,1.800776 -0.120856,0.561927 -0.355666,1.039026 -0.700971,1.430144 -0.346461,0.390771 -0.839097,0.58633 -1.476763,0.58633 z m 0,-0.283266 c 0.413216,0 0.722842,-0.213513 0.930024,-0.640659 0.207187,-0.426683 0.33265,-0.90148 0.377536,-1.423469 0.04489,-0.521184 0.06676,-1.074134 0.06676,-1.658279 0,-0.55744 -0.02188,-1.074594 -0.06676,-1.551119 -0.04489,-0.476637 -0.16805,-0.908273 -0.370628,-1.2949 -0.202579,-0.386975 -0.514505,-0.580345 -0.936932,-0.580345 -0.423577,0 -0.737806,0.195672 -0.944989,0.58702 -0.206033,0.390774 -0.332645,0.822407 -0.377536,1.294903 -0.04489,0.472149 -0.06791,0.987001 -0.06791,1.544441 0,0.422196 0.0092,0.817917 0.02762,1.187051 0.01842,0.36821 0.07136,0.748162 0.162295,1.13928 0.08978,0.391694 0.230205,0.721693 0.424727,0.991492 0.193372,0.269684 0.451203,0.404584 0.77579,0.404584" />
    <path
       inkscape:connector-curvature="0"
       id="path5698"
       style="fill:#000000;fill-opacity:1;fill-rule:nonzero;stroke:none;stroke-width:0.11510228"
       d="m -33.096631,47.480271 c -0.916213,0 -1.538915,-0.37765 -1.868109,-1.132604 -0.328041,-0.755762 -0.491488,-1.650453 -0.491488,-2.684646 0,-0.656428 0.0587,-1.269693 0.174959,-1.840716 0.117403,-0.571482 0.351062,-1.057098 0.702122,-1.457196 0.349914,-0.399748 0.844854,-0.600027 1.482516,-0.600027 0.49494,0 0.900102,0.119705 1.215482,0.357968 0.31423,0.238032 0.552493,0.547772 0.714786,0.929912 0.161144,0.382255 0.273944,0.791327 0.336097,1.227911 0.06331,0.436123 0.09554,0.896532 0.09554,1.382148 0,0.638472 -0.061,1.238729 -0.183015,1.800776 -0.120854,0.561927 -0.355664,1.039026 -0.702122,1.430144 -0.345305,0.390771 -0.837944,0.58633 -1.476764,0.58633 z m 0,-0.283266 c 0.414369,0 0.723995,-0.213513 0.93118,-0.640659 0.207184,-0.426683 0.332647,-0.90148 0.377534,-1.423469 0.04489,-0.521184 0.06791,-1.074134 0.06791,-1.658279 0,-0.55744 -0.02302,-1.074594 -0.06791,-1.551119 -0.04489,-0.476637 -0.168048,-0.908273 -0.370629,-1.2949 -0.202578,-0.386975 -0.514508,-0.580345 -0.938085,-0.580345 -0.422423,0 -0.736653,0.195672 -0.942684,0.58702 -0.207185,0.390774 -0.333798,0.822407 -0.378688,1.294903 -0.04489,0.472149 -0.06791,0.987001 -0.06791,1.544441 0,0.422196 0.0092,0.817917 0.02762,1.187051 0.01725,0.36821 0.07136,0.748162 0.162295,1.13928 0.08978,0.391694 0.231355,0.721693 0.424725,0.991492 0.193374,0.269684 0.4512,0.404584 0.774637,0.404584" />
    <path
       inkscape:connector-curvature="0"
       id="path5700"
       style="fill:#000000;fill-opacity:1;fill-rule:nonzero;stroke:none;stroke-width:0.11510228"
       d="m -47.102274,23.572495 v -0.404011 l 3.466881,-5.16694 c 0.02763,-0.03568 0.06791,-0.0541 0.122008,-0.0541 h 0.161146 c 0.08172,0 0.122008,0.04144 0.122008,0.122009 v 5.09903 h 1.106131 v 0.404011 h -1.106131 v 1.092319 c 0,0.153088 0.110497,0.252073 0.330341,0.296965 0.219848,0.04489 0.474222,0.06791 0.761979,0.06791 v 0.391348 h -3.089346 v -0.391348 c 0.287754,0 0.542132,-0.02302 0.763129,-0.06791 0.219844,-0.04489 0.330341,-0.143877 0.330341,-0.296965 v -1.092319 z m 0.378689,-0.404011 h 2.656558 V 19.20206 Z" />
    <path
       inkscape:connector-curvature="0"
       id="path5702"
       style="fill:#000000;fill-opacity:1;fill-rule:nonzero;stroke:none;stroke-width:0.11510228"
       d="m -38.850591,25.662751 c -0.917367,0 -1.540069,-0.377534 -1.868109,-1.132605 -0.329195,-0.755073 -0.493791,-1.650569 -0.493791,-2.684186 0,-0.656083 0.0587,-1.269579 0.176107,-1.840486 0.117405,-0.572058 0.351064,-1.05779 0.700973,-1.457194 0.351063,-0.400556 0.846003,-0.600835 1.48482,-0.600835 0.49379,0 0.898949,0.119707 1.213178,0.357969 0.315381,0.238261 0.553643,0.549037 0.714785,0.931177 0.162296,0.382139 0.275095,0.790753 0.338402,1.22699 0.06216,0.436238 0.09323,0.896647 0.09323,1.382379 0,0.638817 -0.05985,1.2385 -0.181861,1.8002 -0.120856,0.562851 -0.355666,1.039373 -0.700971,1.430721 -0.346461,0.391348 -0.839097,0.58587 -1.476763,0.58587 z m 0,-0.283152 c 0.413216,0 0.722842,-0.21294 0.930024,-0.639969 0.207187,-0.42703 0.33265,-0.90125 0.377536,-1.423816 0.04489,-0.521411 0.06676,-1.073903 0.06676,-1.658622 0,-0.557095 -0.02188,-1.073904 -0.06676,-1.551579 -0.04489,-0.476523 -0.16805,-0.908157 -0.370628,-1.2949 -0.202579,-0.385593 -0.514505,-0.578965 -0.936932,-0.578965 -0.423577,0 -0.737806,0.195674 -0.944989,0.585871 -0.206033,0.391347 -0.332645,0.822981 -0.377536,1.2949 -0.04489,0.473071 -0.06791,0.987578 -0.06791,1.544673 0,0.422425 0.0092,0.818377 0.02762,1.186704 0.01842,0.36948 0.07136,0.748165 0.162295,1.140663 0.08978,0.390197 0.230205,0.721691 0.424727,0.991032 0.193372,0.269337 0.451203,0.404008 0.77579,0.404008" />
    <path
       inkscape:connector-curvature="0"
       id="path5704"
       style="fill:#000000;fill-opacity:1;fill-rule:nonzero;stroke:none;stroke-width:0.11510228"
       d="m -33.096631,25.662751 c -0.916213,0 -1.538915,-0.377534 -1.868109,-1.132605 -0.328041,-0.755073 -0.491488,-1.650569 -0.491488,-2.684186 0,-0.656083 0.0587,-1.269579 0.174959,-1.840486 0.117403,-0.572058 0.351062,-1.05779 0.702122,-1.457194 0.349914,-0.400556 0.844854,-0.600835 1.482516,-0.600835 0.49494,0 0.900102,0.119707 1.215482,0.357969 0.31423,0.238261 0.552493,0.549037 0.714786,0.931177 0.161144,0.382139 0.273944,0.790753 0.336097,1.22699 0.06331,0.436238 0.09554,0.896647 0.09554,1.382379 0,0.638817 -0.061,1.2385 -0.183015,1.8002 -0.120854,0.562851 -0.355664,1.039373 -0.702122,1.430721 -0.345305,0.391348 -0.837944,0.58587 -1.476764,0.58587 z m 0,-0.283152 c 0.414369,0 0.723995,-0.21294 0.93118,-0.639969 0.207184,-0.42703 0.332647,-0.90125 0.377534,-1.423816 0.04489,-0.521411 0.06791,-1.073903 0.06791,-1.658622 0,-0.557095 -0.02302,-1.073904 -0.06791,-1.551579 -0.04489,-0.476523 -0.168048,-0.908157 -0.370629,-1.2949 -0.202578,-0.385593 -0.514508,-0.578965 -0.938085,-0.578965 -0.422423,0 -0.736653,0.195674 -0.942684,0.585871 -0.207185,0.391347 -0.333798,0.822981 -0.378688,1.2949 -0.04489,0.473071 -0.06791,0.987578 -0.06791,1.544673 0,0.422425 0.0092,0.818377 0.02762,1.186704 0.01725,0.36948 0.07136,0.748165 0.162295,1.140663 0.08978,0.390197 0.231355,0.721691 0.424725,0.991032 0.193374,0.269337 0.4512,0.404008 0.774637,0.404008" />
    <path
       inkscape:connector-curvature="0"
       id="path5706"
       style="fill:#000000;fill-opacity:1;fill-rule:nonzero;stroke:none;stroke-width:0.11510228"
       d="m -46.440435,2.3223115 c 0.08057,0.22445 0.200279,0.42703 0.356817,0.606589 0.157692,0.17956 0.346456,0.318834 0.566304,0.417822 0.220998,0.09899 0.447749,0.148482 0.681404,0.148482 0.539831,0 0.91046,-0.210637 1.113039,-0.633063 0.202583,-0.423576 0.303872,-0.931177 0.303872,-1.525105 0,-0.260131 -0.0046,-0.47882503 -0.01381,-0.65378103 -0.0092,-0.176106 -0.03108,-0.348758 -0.06791,-0.519111 -0.07136,-0.261282 -0.194522,-0.490337 -0.369479,-0.688312 -0.176106,-0.197975 -0.390197,-0.296965 -0.64227,-0.296965 -0.250924,0 -0.467314,0.03798 -0.646875,0.115105 -0.17956,0.07712 -0.325737,0.165745 -0.437388,0.269338 -0.112801,0.103594 -0.21409,0.211787 -0.303868,0.323437 -0.09093,0.11280100187 -0.143881,0.173804 -0.163446,0.183015 h -0.120858 c -0.01726,0 -0.04259,-0.01151 -0.07367,-0.03453 -0.03108,-0.02187 -0.04719,-0.04719 -0.04719,-0.07366 V -3.7884595 c 0,-0.01842 0.01381,-0.03568 0.04029,-0.0541 0.02762,-0.01727 0.0541,-0.02648 0.08057,-0.02648 h 0.02762 c 0.502998,0.242866 1.038225,0.364875 1.604528,0.364875 0.557093,0 1.09347,-0.122009 1.605675,-0.364875 h 0.04029 c 0.01841,0 0.03798,0.0092 0.061,0.02648 0.02187,0.01842 0.03338,0.03568 0.03338,0.0541 v 0.107044 c 0,0.03683 -0.0046,0.05525 -0.01381,0.05525 -0.261281,0.341856 -0.584718,0.606591 -0.971465,0.795359 -0.38559,0.188768 -0.781544,0.28315 -1.186702,0.28315 -0.306172,0 -0.615798,-0.04029 -0.931178,-0.122008 v 2.11788397 c 0.253224,-0.196826 0.475372,-0.338402 0.668743,-0.424731 0.193372,-0.08517 0.443146,-0.12776197 0.748168,-0.12776197 0.414365,0 0.784994,0.11740497 1.113038,0.35106297 0.328041,0.233656 0.580115,0.540978 0.755068,0.923118 0.176107,0.382141 0.263585,0.77579 0.263585,1.18095003 0,0.45005 -0.110497,0.865569 -0.330341,1.247709 -0.220998,0.382139 -0.521416,0.68601 -0.903555,0.910459 -0.38214,0.22445 -0.794206,0.33725 -1.235047,0.33725 -0.368328,0 -0.707877,-0.09438 -1.017503,-0.283152 -0.310777,-0.188777 -0.555947,-0.443153 -0.735503,-0.763137 -0.179561,-0.318833 -0.269343,-0.661838 -0.269343,-1.031317 0,-0.161142 0.05525,-0.296963 0.16805,-0.404008 0.1128,-0.108197 0.248623,-0.162295 0.410915,-0.162295 0.162296,0 0.299269,0.0541 0.412069,0.162295 0.111647,0.107045 0.168049,0.242866 0.168049,0.404008 0,0.162295 -0.0564,0.299266 -0.168049,0.412067 -0.1128,0.111649 -0.249773,0.168049 -0.412069,0.168049 -0.02647,0 -0.05525,-0.0023 -0.08747,-0.0069 -0.03108,-0.0046 -0.0564,-0.01036 -0.07367,-0.01957" />
    <path
       inkscape:connector-curvature="0"
       id="path5708"
       style="fill:#000000;fill-opacity:1;fill-rule:nonzero;stroke:none;stroke-width:0.11510228"
       d="m -38.850591,3.8462665 c -0.917367,0 -1.540069,-0.377536 -1.868109,-1.132607 -0.329195,-0.756222 -0.493791,-1.650566 -0.493791,-2.68533503 0,-0.656085 0.0587,-1.26957997 0.176107,-1.84048697 0.117405,-0.570907 0.351064,-1.056637 0.700973,-1.457195 0.351063,-0.399404 0.846003,-0.599683 1.48482,-0.599683 0.49379,0 0.898949,0.118558 1.213178,0.356817 0.315381,0.238263 0.553643,0.549039 0.714785,0.931178 0.162296,0.38214 0.275095,0.790752 0.338402,1.226989 0.06216,0.43739197 0.09323,0.89779897 0.09323,1.38238097 0,0.638817 -0.05985,1.23965103 -0.181861,1.80135003 -0.120856,0.561699 -0.355666,1.038223 -0.700971,1.430721 -0.346461,0.390197 -0.839097,0.585871 -1.476763,0.585871 z m 0,-0.283152 c 0.413216,0 0.722842,-0.21409 0.930024,-0.641119 0.207187,-0.42703 0.33265,-0.901251 0.377536,-1.423816 0.04489,-0.52141303 0.06676,-1.07390403 0.06676,-1.65747203 0,-0.558247 -0.02188,-1.07505497 -0.06676,-1.55158097 -0.04489,-0.476521 -0.16805,-0.908155 -0.370628,-1.294899 -0.202579,-0.386743 -0.514505,-0.580114 -0.936932,-0.580114 -0.423577,0 -0.737806,0.195671 -0.944989,0.587022 -0.206033,0.391347 -0.332645,0.822981 -0.377536,1.294899 -0.04489,0.471918 -0.06791,0.98642597 -0.06791,1.54467297 0,0.422426 0.0092,0.817226 0.02762,1.18670403 0.01842,0.368327 0.07136,0.748165 0.162295,1.139512 0.08978,0.391348 0.230205,0.721692 0.424727,0.991031 0.193372,0.27049 0.451203,0.40516 0.77579,0.40516" />
    <path
       inkscape:connector-curvature="0"
       id="path5710"
       style="fill:#000000;fill-opacity:1;fill-rule:nonzero;stroke:none;stroke-width:0.11510228"
       d="m -33.096631,3.8462665 c -0.916213,0 -1.538915,-0.377536 -1.868109,-1.132607 -0.328041,-0.756222 -0.491488,-1.650566 -0.491488,-2.68533503 0,-0.656085 0.0587,-1.26957997 0.174959,-1.84048697 0.117403,-0.570907 0.351062,-1.056637 0.702122,-1.457195 0.349914,-0.399404 0.844854,-0.599683 1.482516,-0.599683 0.49494,0 0.900102,0.118558 1.215482,0.356817 0.31423,0.238263 0.552493,0.549039 0.714786,0.931178 0.161144,0.38214 0.273944,0.790752 0.336097,1.226989 0.06331,0.43739197 0.09554,0.89779897 0.09554,1.38238097 0,0.638817 -0.061,1.23965103 -0.183015,1.80135003 -0.120854,0.561699 -0.355664,1.038223 -0.702122,1.430721 -0.345305,0.390197 -0.837944,0.585871 -1.476764,0.585871 z m 0,-0.283152 c 0.414369,0 0.723995,-0.21409 0.93118,-0.641119 0.207184,-0.42703 0.332647,-0.901251 0.377534,-1.423816 0.04489,-0.52141303 0.06791,-1.07390403 0.06791,-1.65747203 0,-0.558247 -0.02302,-1.07505497 -0.06791,-1.55158097 -0.04489,-0.476521 -0.168048,-0.908155 -0.370629,-1.294899 -0.202578,-0.386743 -0.514508,-0.580114 -0.938085,-0.580114 -0.422423,0 -0.736653,0.195671 -0.942684,0.587022 -0.207185,0.391347 -0.333798,0.822981 -0.378688,1.294899 -0.04489,0.471918 -0.06791,0.98642597 -0.06791,1.54467297 0,0.422426 0.0092,0.817226 0.02762,1.18670403 0.01725,0.368327 0.07136,0.748165 0.162295,1.139512 0.08978,0.391348 0.231355,0.721692 0.424725,0.991031 0.193374,0.27049 0.4512,0.40516 0.774637,0.40516" />
    <path
       inkscape:connector-curvature="0"
       id="path5460-9"
       style="fill:#000000;fill-opacity:1;fill-rule:nonzero;stroke:none;stroke-width:0.11510228"
       d="m -54.677312,86.015331 h -0.458107 c 0,-0.880764 -0.134899,-1.321377 -0.405158,-1.321377 h -7.121952 c -0.269685,0 -0.404587,0.440613 -0.404587,1.321377 h -0.458682 v -7.134958 l 2.967108,-0.351182 v 0.364183 c -0.539139,0.06343 -0.966283,0.144341 -1.280975,0.242756 -0.314688,0.09899 -0.562045,0.242861 -0.741489,0.43163 -0.180248,0.189347 -0.306172,0.443373 -0.378111,0.762207 -0.07194,0.319182 -0.107851,0.757952 -0.107851,1.315508 v 1.17312 c 0,0.161835 0.0067,0.285454 0.02072,0.371322 0.01301,0.08495 0.04892,0.154696 0.107851,0.209142 0.05801,0.05386 0.150209,0.08091 0.276017,0.08091 h 3.33175 v -0.917712 c 0,-0.440151 -0.03821,-0.763932 -0.11418,-0.971117 -0.07643,-0.20638 -0.218581,-0.348069 -0.425419,-0.424497 -0.20684,-0.07689 -0.530507,-0.115104 -0.971119,-0.115104 v -0.37719 h 3.480463 v 0.37719 c -0.440612,0 -0.764395,0.03822 -0.97112,0.115104 -0.207299,0.07643 -0.348988,0.218117 -0.425876,0.424497 -0.07551,0.207185 -0.113722,0.530966 -0.113722,0.971117 v 0.917712 h 3.331175 c 0.270259,0 0.405158,-0.553069 0.405158,-1.659086 h 0.458107 v 4.194448" />
    <path
       inkscape:connector-curvature="0"
       id="path5462-2"
       style="fill:#000000;fill-opacity:1;fill-rule:nonzero;stroke:none;stroke-width:0.11510228"
       d="m -54.528482,75.973115 c 0,0.521531 -0.132599,1.00266 -0.398371,1.443271 -0.265194,0.441071 -0.618215,0.789485 -1.058824,1.045358 -0.440612,0.256333 -0.921738,0.384439 -1.443729,0.384439 -0.395146,0 -0.777399,-0.06975 -1.146072,-0.20902 -0.368674,-0.139394 -0.696482,-0.341742 -0.98424,-0.60705 -0.287753,-0.265313 -0.513009,-0.573214 -0.675305,-0.92347 -0.161374,-0.351176 -0.242291,-0.728826 -0.242291,-1.133528 0,-0.530505 0.13939,-1.014391 0.418627,-1.45052 0.278663,-0.435657 0.653666,-0.779584 1.125816,-1.03143 0.472497,-0.251727 0.97342,-0.37719 1.503465,-0.37719 0.513013,0 0.991835,0.128108 1.437513,0.383984 0.4451,0.256329 0.799846,0.604748 1.06504,1.045359 0.265772,0.44061 0.398371,0.916791 0.398371,1.429797 z m -0.378111,0 c 0,-0.692451 -0.251732,-1.153324 -0.755304,-1.383067 -0.50357,-0.228822 -1.142044,-0.343466 -1.914952,-0.343466 -0.431634,0 -0.79133,0.02244 -1.079084,0.06745 -0.287757,0.04454 -0.54858,0.143875 -0.782814,0.29673 -0.134898,0.09888 -0.256215,0.22261 -0.364641,0.371438 -0.10739,0.147907 -0.19061,0.304789 -0.249541,0.471112 -0.05801,0.166899 -0.08679,0.339899 -0.08679,0.5198 0,0.269801 0.06077,0.526024 0.182089,0.769345 0.121433,0.24275 0.294086,0.445103 0.51888,0.606478 0.251845,0.16183 0.524291,0.263006 0.816536,0.303064 0.291786,0.04086 0.640316,0.06157 1.045361,0.06157 0.485155,0 0.921276,-0.04086 1.307903,-0.121888 0.386747,-0.08138 0.710413,-0.249888 0.971236,-0.505762 0.260706,-0.256333 0.391118,-0.627194 0.391118,-1.112811" />
    <path
       inkscape:connector-curvature="0"
       id="path5464-6"
       style="fill:#000000;fill-opacity:1;fill-rule:nonzero;stroke:none;stroke-width:0.11510228"
       d="m -54.677312,72.542493 h -0.458107 c 0,-0.297193 -0.02244,-0.539943 -0.06745,-0.728829 -0.04535,-0.188767 -0.157808,-0.282802 -0.33771,-0.282802 h -3.533984 c -0.233775,0 -0.402399,0.03603 -0.505759,0.107963 -0.103019,0.07194 -0.165979,0.173114 -0.188422,0.303411 -0.0229,0.13041 -0.03465,0.33011 -0.03465,0.600257 h -0.458107 l -0.134902,-1.848313 h 1.268313 c -0.37811,-0.143877 -0.683824,-0.34404 -0.917596,-0.599797 -0.233771,-0.256333 -0.350717,-0.568835 -0.350717,-0.937509 0,-0.251729 0.07689,-0.478827 0.229746,-0.681175 0.152393,-0.20235 0.350256,-0.303064 0.593006,-0.303064 0.161949,0 0.299035,0.05629 0.411952,0.168164 0.112339,0.112456 0.168049,0.249081 0.168049,0.41103 0,0.162296 -0.05571,0.299381 -0.168049,0.411837 -0.112917,0.111879 -0.250003,0.168164 -0.411952,0.168164 -0.233772,0 -0.395147,-0.08092 -0.485042,-0.242406 v 0.06745 c 0,0.350716 0.125808,0.636286 0.37719,0.856131 0.25219,0.220306 0.564692,0.377651 0.937394,0.472035 0.373278,0.0945 0.73067,0.14169 1.07241,0.14169 h 2.131116 c 0.270259,0 0.405158,-0.418166 0.405158,-1.25404 h 0.458107 v 3.169803" />
    <path
       inkscape:connector-curvature="0"
       id="path5466-2"
       style="fill:#000000;fill-opacity:1;fill-rule:nonzero;stroke:none;stroke-width:0.11510228"
       d="m -54.528482,64.697121 c 0,0.521068 -0.137548,0.995519 -0.411837,1.422665 -0.274288,0.427029 -0.636171,0.762092 -1.08622,1.004842 -0.449245,0.24275 -0.930257,0.364183 -1.442346,0.364183 -0.512664,0 -1.003117,-0.121433 -1.471239,-0.364183 -0.467085,-0.24275 -0.8399,-0.577813 -1.118563,-1.004842 -0.279237,-0.427146 -0.418627,-0.901597 -0.418627,-1.422665 0,-0.503573 0.09887,-0.96444 0.296736,-1.382953 0.198321,-0.417706 0.521987,-0.626846 0.971116,-0.626846 0.170927,0 0.317454,0.06077 0.438887,0.182092 0.121433,0.121433 0.18209,0.267496 0.18209,0.437962 0,0.170813 -0.06066,0.316992 -0.18209,0.438425 -0.121433,0.121317 -0.26796,0.182092 -0.438887,0.182092 -0.152855,0 -0.285454,-0.04731 -0.397909,-0.14169 -0.11188,-0.09439 -0.181631,-0.213516 -0.208566,-0.357394 -0.188881,0.297196 -0.283266,0.715246 -0.283266,1.254385 0,0.413678 0.136627,0.746323 0.410915,0.998167 0.274289,0.25173 0.613728,0.429792 1.018427,0.533267 0.4047,0.102902 0.804796,0.154583 1.200976,0.154583 0.413103,0 0.815499,-0.06284 1.206729,-0.188306 0.39158,-0.125921 0.715363,-0.32597 0.97112,-0.600718 0.256332,-0.273828 0.384443,-0.622245 0.384443,-1.045361 0,-0.404699 -0.125808,-0.750811 -0.37719,-1.038566 -0.25219,-0.287756 -0.580464,-0.485617 -0.985164,-0.593122 -0.05387,0 -0.08138,-0.03142 -0.08138,-0.09484 v -0.161377 c 0,-0.02705 0.01174,-0.04949 0.03465,-0.06745 0.02245,-0.01841 0.05168,-0.02751 0.08725,-0.02751 h 0.02694 c 0.512551,0.12592 0.919554,0.382254 1.220315,0.768881 0.301681,0.386631 0.452699,0.845773 0.452699,1.376278" />
    <path
       inkscape:connector-curvature="0"
       id="path5468-5"
       style="fill:#000000;fill-opacity:1;fill-rule:nonzero;stroke:none;stroke-width:0.11510228"
       d="m -54.528482,59.069312 c 0,0.530506 -0.139736,1.01428 -0.418973,1.450404 -0.278317,0.436123 -0.646991,0.780163 -1.105673,1.03143 -0.458569,0.252304 -0.944181,0.378111 -1.456274,0.378111 -0.513009,0 -0.996325,-0.114641 -1.450516,-0.344384 -0.454081,-0.228825 -0.820106,-0.548119 -1.098769,-0.957192 -0.279237,-0.409188 -0.418627,-0.865568 -0.418627,-1.369142 0,-0.404585 0.06515,-0.753112 0.196021,-1.045358 0.129949,-0.292706 0.31423,-0.53327 0.552147,-0.721577 0.238259,-0.188883 0.517496,-0.330573 0.836676,-0.424958 0.319295,-0.09438 0.672659,-0.141575 1.059285,-0.141575 0.107506,0 0.161492,0.0404 0.161492,0.121779 v 3.748995 h 0.148364 c 0.71041,0 1.324137,-0.143877 1.841175,-0.431633 0.517038,-0.287756 0.775561,-0.759444 0.775561,-1.415412 0,-0.260821 -0.06066,-0.503574 -0.182552,-0.728827 -0.12132,-0.224795 -0.284995,-0.420931 -0.491832,-0.587253 -0.206379,-0.165862 -0.431176,-0.280503 -0.674042,-0.343466 -0.02739,-0.009 -0.05433,-0.02474 -0.08138,-0.04719 -0.02694,-0.02257 -0.0404,-0.04731 -0.0404,-0.07424 v -0.120973 c 0,-0.08138 0.05847,-0.121779 0.175299,-0.121779 0.485616,0.116829 0.885828,0.37765 1.200517,0.782351 0.314688,0.404125 0.472496,0.858317 0.472496,1.36189 z m -3.466995,1.713873 V 57.84186 c -0.32367,0 -0.651481,0.04535 -0.984126,0.135707 -0.33322,0.08955 -0.609695,0.240102 -0.829543,0.45143 -0.220419,0.210867 -0.33057,0.487344 -0.33057,0.829542 0,0.485617 0.229397,0.861082 0.687966,1.126276 0.458565,0.265311 0.944181,0.39837 1.456273,0.39837" />
    <path
       inkscape:connector-curvature="0"
       id="path5470-0"
       style="fill:#000000;fill-opacity:1;fill-rule:nonzero;stroke:none;stroke-width:0.11510228"
       d="M -51.440058,50.921683 H -64.389066 V 49.14082 h 0.513013 v 1.254384 h 11.923444 V 49.14082 h 0.512551 v 1.780863" />
    <path
       inkscape:connector-curvature="0"
       id="path5472-8"
       style="fill:#000000;fill-opacity:1;fill-rule:nonzero;stroke:none;stroke-width:0.11510228"
       d="m -54.677312,48.523872 h -0.458107 c 0,-0.881224 -0.251844,-1.321834 -0.755414,-1.321834 h -7.095366 c -0.05398,0.279238 -0.08092,0.719846 -0.08092,1.321834 h -0.458682 v -2.468369 c 0,-0.04501 0.01807,-0.07597 0.05352,-0.09392 l 6.744762,-4.586599 h -5.570376 c -0.513009,0 -0.769228,0.445103 -0.769228,1.33542 h -0.458682 v -3.074498 h 0.458682 c 0,0.880534 0.256219,1.321375 0.769228,1.321375 h 7.512728 c 0.01795,0 0.04051,0.01749 0.06745,0.05352 0.02694,0.03592 0.0404,0.06342 0.0404,0.08092 v 0.162295 c 0,0.045 -0.01795,0.07194 -0.05433,0.08046 l -7.997878,5.449863 h 6.838686 c 0.503569,0 0.755413,-0.445103 0.755413,-1.335302 h 0.458107 v 3.074842" />
    <path
       inkscape:connector-curvature="0"
       id="path5474-1"
       style="fill:#000000;fill-opacity:1;fill-rule:nonzero;stroke:none;stroke-width:0.11510228"
       d="m -51.440058,39.149021 h -0.512551 v -1.253464 h -11.923444 v 1.253464 h -0.513013 v -1.779482 h 12.949008 v 1.779482" />
  </g>
</svg>
