<?xml version="1.0" encoding="UTF-8" standalone="no"?>
<!-- Created with Inkscape (http://www.inkscape.org/) -->

<svg
   xmlns:dc="http://purl.org/dc/elements/1.1/"
   xmlns:cc="http://creativecommons.org/ns#"
   xmlns:rdf="http://www.w3.org/1999/02/22-rdf-syntax-ns#"
   xmlns:svg="http://www.w3.org/2000/svg"
   xmlns="http://www.w3.org/2000/svg"
   xmlns:sodipodi="http://sodipodi.sourceforge.net/DTD/sodipodi-0.dtd"
   xmlns:inkscape="http://www.inkscape.org/namespaces/inkscape"
   width="213.68472mm"
   height="158.14401mm"
   viewBox="0 0 213.68472 158.14401"
   version="1.1"
   id="svg1408"
   sodipodi:docname="impulsecompare1.svg"
   inkscape:version="0.92.3 (2405546, 2018-03-11)">
  <defs
     id="defs1402" />
  <sodipodi:namedview
     id="base"
     pagecolor="#ffffff"
     bordercolor="#666666"
     borderopacity="1.0"
     inkscape:pageopacity="0.0"
     inkscape:pageshadow="2"
     inkscape:zoom="0.7"
     inkscape:cx="296.75886"
     inkscape:cy="160.91718"
     inkscape:document-units="mm"
     inkscape:current-layer="layer1"
     showgrid="false"
     fit-margin-top="0"
     fit-margin-left="0"
     fit-margin-right="0"
     fit-margin-bottom="0"
     inkscape:window-width="1920"
     inkscape:window-height="1137"
     inkscape:window-x="1912"
     inkscape:window-y="-8"
     inkscape:window-maximized="1" />
  <metadata
     id="metadata1405">
    <rdf:RDF>
      <cc:Work
         rdf:about="">
        <dc:format>image/svg+xml</dc:format>
        <dc:type
           rdf:resource="http://purl.org/dc/dcmitype/StillImage" />
        <dc:title></dc:title>
      </cc:Work>
    </rdf:RDF>
  </metadata>
  <g
     inkscape:label="Layer 1"
     inkscape:groupmode="layer"
     id="layer1"
     transform="translate(66.154043,4.5499992)">
    <path
       inkscape:connector-curvature="0"
       id="path5342"
       style="fill:#c5c5c5;fill-opacity:1;fill-rule:nonzero;stroke:none;stroke-width:0.11510228"
       d="m 24.501317,60.889904 5.4547,5.920171 5.94848,7.139448 5.45355,11.96845 5.94963,7.11159 5.4524,13.031657 5.94963,1.87501 5.4524,0.32724 5.45355,0.2729 5.94963,0.15608 5.45355,0.26071 5.94848,0.17093 5.4547,0.19245 5.94849,0.11729 5.453553,0.11337 5.94963,0.18025 5.4524,0.11741 5.94963,0.19279 5.45355,0.0302 5.94848,0.0405 5.45355,0.14157 5.94964,0.004 2.99496,-0.0774 v -0.0337 -0.03 -0.004 -0.11464 -0.0113 -0.041 -0.018 -0.3696 -0.24505 l -2.99496,0.0891 -5.94964,-0.0234 -5.45355,-0.33771 -5.94848,-0.62673 -5.45355,-0.69061 -5.94963,-0.77337 -5.4524,-1.01072 -5.94963,-1.00668 -5.453553,-0.91011 -5.94849,-0.90102 -5.4547,-0.95812 -5.94848,-1.02913 -5.45355,-0.96766 -5.94963,-1.129787 -5.45355,-0.96582 -5.4524,-0.8772 -5.94963,-11.09563 -5.4524,-13.035327 -5.94963,-11.360478 -5.45355,-4.459869 -5.94848,-6.774805 -5.4547,-0.275209 -5.9486,-0.447289 -4.95746,-0.293624 -5.9489404,-3.760163 -5.949755,-2.387909 -5.948484,0.332298 -4.957919,12.753792 -3.0542356,-56.24104216 h -2.399192 -1.868569 l -4.576236,108.19176216 -5.453433,0.44464 v 0.50311 l 5.453433,-0.16989 6.444805,-43.783406 5.4534276,22.797499 4.957919,-25.876484 5.948484,4.546539 5.949755,-5.614342 5.9489404,0.05168 4.95746,-0.208222" />
    <path
       inkscape:connector-curvature="0"
       id="path5344"
       style="fill:none;stroke:#231f20;stroke-width:1.5;stroke-linecap:butt;stroke-linejoin:round;stroke-miterlimit:10;stroke-dasharray:none;stroke-opacity:1"
       d="m -26.561507,109.03281 5.453433,-0.30663 6.444805,-98.075772 5.4534276,61.607227 4.957919,-19.315658 5.948484,2.106946 5.949755,-1.612352 5.9489404,1.905979 4.95746,0.04224 5.9486,0.154697 5.4547,3.098323 5.94848,6.955976 5.45355,8.214158 5.94963,9.236039 5.4524,13.03349 5.94963,6.485787 5.4524,0.60244 5.45355,0.61914 5.94963,0.64204 5.45355,0.61464 5.94848,0.60026 5.4547,0.57506 5.94849,0.5099 5.453553,0.51117 5.94963,0.59392 5.4524,0.56389 5.94963,0.48331 5.45355,0.36016 5.94848,0.3331 5.45355,0.23965 5.94964,0.014 2.99496,-0.0828" />
    <path
       inkscape:connector-curvature="0"
       id="path5346"
       style="fill:none;stroke:#444041;stroke-width:1.15100002;stroke-linecap:square;stroke-linejoin:round;stroke-miterlimit:10;stroke-dasharray:none;stroke-opacity:1"
       d="M -26.561507,120.15411 H 146.95518" />
    <path
       inkscape:connector-curvature="0"
       id="path5348"
       style="fill:none;stroke:#444041;stroke-width:1.15100002;stroke-linecap:square;stroke-linejoin:round;stroke-miterlimit:10;stroke-dasharray:none;stroke-opacity:1"
       d="M -26.561507,0.15998684 H 146.95518" />
    <path
       inkscape:connector-curvature="0"
       id="path5350"
       style="fill:none;stroke:#444041;stroke-width:0.57579911;stroke-linecap:square;stroke-linejoin:round;stroke-miterlimit:10;stroke-dasharray:none;stroke-opacity:1"
       d="m -26.561507,120.15411 v -1.73505" />
    <path
       inkscape:connector-curvature="0"
       id="path5352"
       style="fill:none;stroke:#444041;stroke-width:1.15100002;stroke-linecap:square;stroke-linejoin:round;stroke-miterlimit:10;stroke-dasharray:none;stroke-opacity:1"
       d="m 23.015347,120.15411 v -1.73505" />
    <path
       inkscape:connector-curvature="0"
       id="path5354"
       style="fill:none;stroke:#444041;stroke-width:1.15100002;stroke-linecap:square;stroke-linejoin:round;stroke-miterlimit:10;stroke-dasharray:none;stroke-opacity:1"
       d="m 72.591047,120.15411 v -1.73505" />
    <path
       inkscape:connector-curvature="0"
       id="path5356"
       style="fill:none;stroke:#444041;stroke-width:1.15100002;stroke-linecap:square;stroke-linejoin:round;stroke-miterlimit:10;stroke-dasharray:none;stroke-opacity:1"
       d="m 122.16675,120.15411 v -1.73505" />
    <path
       inkscape:connector-curvature="0"
       id="path5358"
       style="fill:none;stroke:#444041;stroke-width:0.57579911;stroke-linecap:square;stroke-linejoin:round;stroke-miterlimit:10;stroke-dasharray:none;stroke-opacity:1"
       d="M -26.561507,0.15998684 V 1.8945778" />
    <path
       inkscape:connector-curvature="0"
       id="path5360"
       style="fill:none;stroke:#444041;stroke-width:1.15100002;stroke-linecap:square;stroke-linejoin:round;stroke-miterlimit:10;stroke-dasharray:none;stroke-opacity:1"
       d="M 23.015347,0.15998684 V 1.8945778" />
    <path
       inkscape:connector-curvature="0"
       id="path5362"
       style="fill:none;stroke:#444041;stroke-width:1.15100002;stroke-linecap:square;stroke-linejoin:round;stroke-miterlimit:10;stroke-dasharray:none;stroke-opacity:1"
       d="M 72.591047,0.15998684 V 1.8945778" />
    <path
       inkscape:connector-curvature="0"
       id="path5364"
       style="fill:none;stroke:#444041;stroke-width:1.15100002;stroke-linecap:square;stroke-linejoin:round;stroke-miterlimit:10;stroke-dasharray:none;stroke-opacity:1"
       d="M 122.16675,0.15998684 V 1.8945778" />
    <path
       inkscape:connector-curvature="0"
       id="path5366"
       style="fill:#444041;fill-opacity:1;fill-rule:nonzero;stroke:none;stroke-width:0.11510228"
       d="m -26.632984,134.66954 c -0.917713,0 -1.540415,-0.37765 -1.868226,-1.13295 -0.328618,-0.75542 -0.493212,-1.65057 -0.493212,-2.68476 0,-0.65597 0.05847,-1.26924 0.175416,-1.84026 0.117287,-0.57148 0.35152,-1.05744 0.701775,-1.45719 0.350719,-0.40021 0.845312,-0.60026 1.484247,-0.60026 0.494133,0 0.898831,0.11913 1.213519,0.35751 0.314693,0.23826 0.553069,0.54846 0.714901,0.93072 0.161838,0.38214 0.274291,0.79132 0.337598,1.22744 0.0625,0.43659 0.09404,0.897 0.09404,1.38204 0,0.63893 -0.06077,1.23919 -0.182089,1.80078 -0.121433,0.5625 -0.355209,1.03902 -0.700974,1.43072 -0.346689,0.39065 -0.838983,0.58621 -1.476991,0.58621 z m 0,-0.28327 c 0.413215,0 0.723415,-0.21351 0.930253,-0.64066 0.206841,-0.42714 0.332762,-0.90148 0.37719,-1.42347 0.04501,-0.52152 0.06745,-1.07413 0.06745,-1.65816 0,-0.55802 -0.02244,-1.07505 -0.06745,-1.55169 -0.04443,-0.47618 -0.168161,-0.90781 -0.370054,-1.2949 -0.202694,-0.38663 -0.515196,-0.58 -0.937389,-0.58 -0.423119,0 -0.737807,0.19556 -0.944648,0.58725 -0.206377,0.39065 -0.332758,0.82229 -0.37811,1.2949 -0.045,0.47157 -0.06745,0.98642 -0.06745,1.54444 0,0.4222 0.0094,0.8178 0.02785,1.18694 0.01797,0.36821 0.07148,0.74816 0.161374,1.13939 0.09001,0.39158 0.231125,0.72158 0.424958,0.99092 0.193257,0.27026 0.451893,0.40504 0.776021,0.40504" />
    <path
       inkscape:connector-curvature="0"
       id="path5368"
       style="fill:#444041;fill-opacity:1;fill-rule:nonzero;stroke:none;stroke-width:0.11510228"
       d="m 18.465927,134.66954 c -0.91679,0 -1.53949,-0.37765 -1.86811,-1.13295 -0.32781,-0.75542 -0.49195,-1.65057 -0.49195,-2.68476 0,-0.65597 0.0585,-1.26924 0.17542,-1.84026 0.11683,-0.57148 0.35072,-1.05744 0.70189,-1.45719 0.35014,-0.40021 0.84474,-0.60026 1.48275,-0.60026 0.49505,0 0.90022,0.11913 1.2149,0.35751 0.3147,0.23826 0.55307,0.54846 0.71491,0.93072 0.16137,0.38214 0.27383,0.79132 0.33632,1.22744 0.0634,0.43659 0.0953,0.897 0.0953,1.38204 0,0.63893 -0.0607,1.23919 -0.18255,1.80078 -0.12143,0.5625 -0.3552,1.03902 -0.70189,1.43072 -0.34577,0.39065 -0.83806,0.58621 -1.47699,0.58621 z m 0,-0.28327 c 0.41414,0 0.72434,-0.21351 0.93164,-0.64066 0.20684,-0.42714 0.3323,-0.90148 0.37719,-1.42347 0.045,-0.52152 0.0674,-1.07413 0.0674,-1.65816 0,-0.55802 -0.0224,-1.07505 -0.0674,-1.55169 -0.0449,-0.47618 -0.16851,-0.90781 -0.37132,-1.2949 -0.20189,-0.38663 -0.51439,-0.58 -0.93751,-0.58 -0.42219,0 -0.73688,0.19556 -0.94326,0.58725 -0.2073,0.39065 -0.33322,0.82229 -0.37811,1.2949 -0.045,0.47157 -0.0675,0.98642 -0.0675,1.54444 0,0.4222 0.009,0.8178 0.0269,1.18694 0.0184,0.36821 0.0724,0.74816 0.16229,1.13939 0.0896,0.39158 0.23113,0.72158 0.4245,0.99092 0.19337,0.27026 0.45189,0.40504 0.7751,0.40504" />
    <path
       inkscape:connector-curvature="0"
       id="path5370"
       style="fill:#444041;fill-opacity:1;fill-rule:nonzero;stroke:none;stroke-width:0.11510228"
       d="m 22.360417,133.80627 c 0,-0.17127 0.0633,-0.31515 0.18876,-0.43163 0.12546,-0.11683 0.26935,-0.1753 0.43164,-0.1753 0.099,0 0.19797,0.0269 0.29696,0.0809 0.099,0.0544 0.17496,0.13041 0.22906,0.22882 0.0541,0.099 0.0817,0.19786 0.0817,0.29719 0,0.16149 -0.061,0.30537 -0.18302,0.43164 -0.12085,0.12592 -0.26243,0.18888 -0.42473,0.18888 -0.16229,0 -0.30617,-0.063 -0.43163,-0.18888 -0.12546,-0.12627 -0.18876,-0.27015 -0.18876,-0.43164" />
    <path
       inkscape:connector-curvature="0"
       id="path5372"
       style="fill:#444041;fill-opacity:1;fill-rule:nonzero;stroke:none;stroke-width:0.11510228"
       d="m 25.652337,134.42679 v -0.39112 c 0.93463,0 1.40195,-0.12143 1.40195,-0.3643 v -5.88138 c -0.38675,0.18025 -0.87593,0.27015 -1.46986,0.27015 v -0.39112 c 0.91736,0 1.61028,-0.23826 2.07759,-0.7149 h 0.1623 c 0.0265,0 0.0506,0.009 0.0737,0.0269 0.023,0.0181 0.0334,0.0405 0.0334,0.0675 v 6.62287 c 0,0.24287 0.46846,0.3643 1.4031,0.3643 v 0.39112 h -3.68212" />
    <path
       inkscape:connector-curvature="0"
       id="path5374"
       style="fill:#444041;fill-opacity:1;fill-rule:nonzero;stroke:none;stroke-width:0.11510228"
       d="m 68.042207,134.66954 c -0.91622,0 -1.53892,-0.37765 -1.86811,-1.13295 -0.32804,-0.75542 -0.49149,-1.65057 -0.49149,-2.68476 0,-0.65597 0.0575,-1.26924 0.17496,-1.84026 0.1174,-0.57148 0.35106,-1.05744 0.70212,-1.45719 0.34991,-0.40021 0.84485,-0.60026 1.48252,-0.60026 0.49494,0 0.9001,0.11913 1.21433,0.35751 0.31538,0.23826 0.55364,0.54846 0.71478,0.93072 0.1623,0.38214 0.27394,0.79132 0.33725,1.22744 0.0633,0.43659 0.0944,0.897 0.0944,1.38204 0,0.63893 -0.061,1.23919 -0.18186,1.80078 -0.12086,0.5625 -0.35567,1.03902 -0.70212,1.43072 -0.34531,0.39065 -0.83795,0.58621 -1.47677,0.58621 z m 0,-0.28327 c 0.41437,0 0.72399,-0.21351 0.93118,-0.64066 0.20718,-0.42714 0.33264,-0.90148 0.37753,-1.42347 0.0449,-0.52152 0.0679,-1.07413 0.0679,-1.65816 0,-0.55802 -0.023,-1.07505 -0.0679,-1.55169 -0.0449,-0.47618 -0.16805,-0.90781 -0.37178,-1.2949 -0.20143,-0.38663 -0.51336,-0.58 -0.93693,-0.58 -0.42243,0 -0.73666,0.19556 -0.94384,0.58725 -0.20719,0.39065 -0.33265,0.82229 -0.37754,1.2949 -0.0449,0.47157 -0.0679,0.98642 -0.0679,1.54444 0,0.4222 0.009,0.8178 0.0265,1.18694 0.0184,0.36821 0.0737,0.74816 0.1623,1.13939 0.0909,0.39158 0.2325,0.72158 0.42587,0.99092 0.19338,0.27026 0.45121,0.40504 0.77464,0.40504" />
    <path
       inkscape:connector-curvature="0"
       id="path5376"
       style="fill:#444041;fill-opacity:1;fill-rule:nonzero;stroke:none;stroke-width:0.11510228"
       d="m 71.936117,133.80627 c 0,-0.17127 0.0633,-0.31515 0.18992,-0.43163 0.12546,-0.11683 0.26933,-0.1753 0.43163,-0.1753 0.099,0 0.19798,0.0269 0.29581,0.0809 0.099,0.0544 0.17496,0.13041 0.22906,0.22882 0.0541,0.099 0.0817,0.19786 0.0817,0.29719 0,0.16149 -0.061,0.30537 -0.18302,0.43164 -0.12085,0.12592 -0.26243,0.18888 -0.42357,0.18888 -0.1623,0 -0.30617,-0.063 -0.43164,-0.18888 -0.12661,-0.12627 -0.18992,-0.27015 -0.18992,-0.43164" />
    <path
       inkscape:connector-curvature="0"
       id="path5378"
       style="fill:#444041;fill-opacity:1;fill-rule:nonzero;stroke:none;stroke-width:0.11510228"
       d="m 74.742307,134.42679 v -0.29674 c 0,-0.018 0.009,-0.0405 0.0276,-0.0674 l 1.7392,-1.92889 c 0.27049,-0.28775 0.48572,-0.52831 0.64802,-0.72157 0.1623,-0.19337 0.32344,-0.41598 0.48573,-0.66817 0.16114,-0.25139 0.29006,-0.5076 0.38444,-0.76843 0.0944,-0.26036 0.14158,-0.53453 0.14158,-0.82229 0,-0.30628 -0.0587,-0.60118 -0.17611,-0.88398 -0.11625,-0.28327 -0.28775,-0.50806 -0.5122,-0.67439 -0.22445,-0.16643 -0.49379,-0.24954 -0.80917,-0.24954 -0.32344,0 -0.6158,0.0989 -0.87708,0.2972 -0.26013,0.19728 -0.44545,0.44913 -0.55249,0.7553 0.0357,-0.009 0.076,-0.0139 0.12086,-0.0139 0.1715,0 0.31538,0.0562 0.43163,0.16817 0.1174,0.1128 0.17611,0.25898 0.17611,0.43877 0,0.17092 -0.0587,0.31699 -0.17611,0.43842 -0.11625,0.12143 -0.26013,0.18209 -0.43163,0.18209 -0.17036,0 -0.31654,-0.0607 -0.43854,-0.18209 -0.12201,-0.12143 -0.18186,-0.2675 -0.18186,-0.43842 0,-0.27867 0.0541,-0.54179 0.16229,-0.78903 0.10704,-0.2477 0.26013,-0.46582 0.45811,-0.65424 0.19797,-0.18877 0.42242,-0.33495 0.6745,-0.43877 0.25207,-0.10302 0.5168,-0.1547 0.7965,-0.1547 0.43164,0 0.83104,0.0899 1.19937,0.2698 0.36948,0.17979 0.66184,0.43613 0.87823,0.76888 0.21524,0.33265 0.32344,0.71939 0.32344,1.16046 0,0.32321 -0.0725,0.63123 -0.2164,0.92347 -0.14387,0.29225 -0.32573,0.55755 -0.54558,0.79582 -0.221,0.23826 -0.50645,0.51036 -0.85636,0.81607 -0.35106,0.30525 -0.58127,0.5076 -0.68831,0.60694 l -1.26843,1.22745 h 1.07851 c 0.53062,0 0.97376,-0.005 1.32943,-0.0139 0.35451,-0.009 0.54098,-0.0265 0.5594,-0.0535 0.0898,-0.0899 0.18071,-0.43163 0.26934,-1.02556 h 0.3384 l -0.32344,1.99679 h -4.169" />
    <path
       inkscape:connector-curvature="0"
       id="path5380"
       style="fill:#444041;fill-opacity:1;fill-rule:nonzero;stroke:none;stroke-width:0.11510228"
       d="m 117.61906,134.66954 c -0.91736,0 -1.54007,-0.37765 -1.86926,-1.13295 -0.32689,-0.75542 -0.49149,-1.65057 -0.49149,-2.68476 0,-0.65597 0.0587,-1.26924 0.17496,-1.84026 0.11741,-0.57148 0.35106,-1.05744 0.70213,-1.45719 0.35106,-0.40021 0.84484,-0.60026 1.48366,-0.60026 0.49494,0 0.89895,0.11913 1.21433,0.35751 0.31423,0.23826 0.55249,0.54846 0.71479,0.93072 0.16114,0.38214 0.27394,0.79132 0.3361,1.22744 0.0633,0.43659 0.0955,0.897 0.0955,1.38204 0,0.63893 -0.061,1.23919 -0.18301,1.80078 -0.12086,0.5625 -0.35452,1.03902 -0.70097,1.43072 -0.34646,0.39065 -0.83795,0.58621 -1.47677,0.58621 z m 0,-0.28327 c 0.41322,0 0.724,-0.21351 0.93118,-0.64066 0.20603,-0.42714 0.33264,-0.90148 0.37754,-1.42347 0.0449,-0.52152 0.0668,-1.07413 0.0668,-1.65816 0,-0.55802 -0.0219,-1.07505 -0.0668,-1.55169 -0.0449,-0.47618 -0.1692,-0.90781 -0.37179,-1.2949 -0.20143,-0.38663 -0.5145,-0.58 -0.93693,-0.58 -0.42242,0 -0.7378,0.19556 -0.94384,0.58725 -0.20718,0.39065 -0.33379,0.82229 -0.37868,1.2949 -0.0449,0.47157 -0.0668,0.98642 -0.0668,1.54444 0,0.4222 0.009,0.8178 0.0265,1.18694 0.0184,0.36821 0.0725,0.74816 0.16229,1.13939 0.0898,0.39158 0.23136,0.72158 0.42473,0.99092 0.19337,0.27026 0.45236,0.40504 0.77579,0.40504" />
    <path
       inkscape:connector-curvature="0"
       id="path5382"
       style="fill:#444041;fill-opacity:1;fill-rule:nonzero;stroke:none;stroke-width:0.11510228"
       d="m 121.51297,133.80627 c 0,-0.17127 0.0622,-0.31515 0.18877,-0.43163 0.12546,-0.11683 0.26934,-0.1753 0.43164,-0.1753 0.099,0 0.19797,0.0269 0.29581,0.0809 0.099,0.0544 0.1761,0.13041 0.2302,0.22882 0.0541,0.099 0.0806,0.19786 0.0806,0.29719 0,0.16149 -0.061,0.30537 -0.18186,0.43164 -0.122,0.12592 -0.26358,0.18888 -0.42472,0.18888 -0.1623,0 -0.30618,-0.063 -0.43164,-0.18888 -0.12661,-0.12627 -0.18877,-0.27015 -0.18877,-0.43164" />
    <path
       inkscape:connector-curvature="0"
       id="path5384"
       style="fill:#444041;fill-opacity:1;fill-rule:nonzero;stroke:none;stroke-width:0.11510228"
       d="m 124.83137,133.56352 c 0.17956,0.25138 0.41782,0.44015 0.71479,0.56653 0.29696,0.12593 0.61119,0.18877 0.94383,0.18877 0.44085,0 0.75162,-0.18658 0.93118,-0.55928 0.17956,-0.37362 0.2705,-0.79397 0.2705,-1.26117 0,-0.21582 -0.0184,-0.4298 -0.0553,-0.64158 -0.0357,-0.21133 -0.10013,-0.40643 -0.19452,-0.58633 -0.0944,-0.17979 -0.221,-0.32597 -0.37868,-0.43831 -0.15654,-0.112 -0.34761,-0.16817 -0.57322,-0.16817 h -0.75507 c -0.0633,0 -0.0944,-0.032 -0.0944,-0.095 v -0.10785 c 0,-0.0544 0.0311,-0.0814 0.0944,-0.0814 l 0.62041,-0.0535 c 0.26128,0 0.47882,-0.0989 0.65493,-0.29673 0.17495,-0.19832 0.30272,-0.43889 0.38329,-0.72215 0.0817,-0.28281 0.12201,-0.55031 0.12201,-0.80158 0,-0.35969 -0.0829,-0.6547 -0.24863,-0.88398 -0.16689,-0.22929 -0.42587,-0.34393 -0.77694,-0.34393 -0.27854,0 -0.54788,0.0539 -0.80801,0.16184 -0.26128,0.10785 -0.46847,0.2698 -0.62155,0.48561 0.0184,0 0.0311,-0.002 0.0414,-0.007 0.008,-0.004 0.0219,-0.007 0.0403,-0.007 0.16114,0 0.29811,0.0585 0.41091,0.17542 0.11165,0.11648 0.16805,0.26036 0.16805,0.43163 0,0.16137 -0.0564,0.30123 -0.16805,0.41863 -0.1128,0.11683 -0.24977,0.17484 -0.41091,0.17484 -0.1715,0 -0.31538,-0.058 -0.43164,-0.17484 -0.1174,-0.1174 -0.1761,-0.25726 -0.1761,-0.41863 0,-0.32378 0.0967,-0.60428 0.29006,-0.84255 0.19337,-0.23837 0.44314,-0.41816 0.74931,-0.5396 0.30502,-0.12143 0.6112,-0.18255 0.91621,-0.18255 0.23366,0 0.47653,0.0337 0.7286,0.10118 0.25208,0.0675 0.47883,0.16413 0.68141,0.29005 0.20258,0.12627 0.36832,0.28776 0.49954,0.48505 0.13007,0.19832 0.19568,0.42311 0.19568,0.67542 0,0.31423 -0.0702,0.60382 -0.21064,0.86902 -0.13812,0.26531 -0.33149,0.49459 -0.57896,0.68796 -0.24747,0.19338 -0.51451,0.3399 -0.80227,0.43878 0.32344,0.0625 0.63076,0.18393 0.92312,0.36418 0.29236,0.17944 0.52602,0.41321 0.70213,0.70097 0.17495,0.28776 0.26243,0.59358 0.26243,0.91771 0,0.41368 -0.11165,0.78684 -0.3361,1.1196 -0.2256,0.33265 -0.52256,0.59347 -0.89204,0.78224 -0.36718,0.18888 -0.75853,0.28326 -1.1729,0.28326 -0.3499,0 -0.70097,-0.0651 -1.05203,-0.19509 -0.34991,-0.13088 -0.63766,-0.33092 -0.86327,-0.60118 -0.22445,-0.26923 -0.33609,-0.58852 -0.33609,-0.9572 0,-0.18888 0.0622,-0.34392 0.18761,-0.46536 0.12662,-0.12143 0.2797,-0.18209 0.45926,-0.18209 0.12546,0 0.23711,0.0269 0.3361,0.0809 0.10014,0.054 0.17841,0.13225 0.23711,0.23608 0.0587,0.10336 0.0875,0.21351 0.0875,0.33045 0,0.17945 -0.0656,0.3323 -0.19568,0.45857 -0.13006,0.12592 -0.28545,0.18888 -0.46501,0.18888 h -0.0541" />
    <path
       inkscape:connector-curvature="0"
       id="path5386"
       style="fill:#444041;fill-opacity:1;fill-rule:nonzero;stroke:none;stroke-width:0.11510228"
       d="m 39.837547,150.35676 v -0.45815 c 0.43163,0 0.85175,-0.0247 1.26152,-0.0742 0.40861,-0.0495 0.61349,-0.15961 0.61349,-0.33091 v -7.12201 c 0,-0.17979 -0.0518,-0.29224 -0.15424,-0.33713 -0.10359,-0.045 -0.26818,-0.0674 -0.49263,-0.0674 h -0.55365 c -0.71018,0 -1.21317,0.15734 -1.51014,0.47203 -0.15308,0.15332 -0.26358,0.40021 -0.33034,0.74147 -0.0679,0.34215 -0.12777,0.77379 -0.18186,1.2949 h -0.36488 l 0.24287,-2.96708 h 7.90522 l 0.25553,2.96708 h -0.37754 c -0.0541,-0.55708 -0.11279,-0.99726 -0.17495,-1.32146 -0.0645,-0.32321 -0.1715,-0.56159 -0.32459,-0.71491 -0.30502,-0.31469 -0.81377,-0.47203 -1.52395,-0.47203 h -0.53983 c -0.16115,0 -0.28546,0.007 -0.37063,0.0206 -0.0863,0.0131 -0.15539,0.049 -0.20949,0.10797 -0.053,0.058 -0.0806,0.15021 -0.0806,0.27602 v 7.122 c 0,0.1713 0.20489,0.28145 0.6135,0.33091 0.40861,0.0495 0.82988,0.0742 1.26152,0.0742 v 0.45815 h -4.96436" />
    <path
       inkscape:connector-curvature="0"
       id="path5388"
       style="fill:#444041;fill-opacity:1;fill-rule:nonzero;stroke:none;stroke-width:0.11510228"
       d="m 47.201787,150.35676 v -0.45815 c 0.28776,0 0.52832,-0.0225 0.72169,-0.0674 0.19337,-0.0454 0.29006,-0.15782 0.29006,-0.33766 v -3.534 c 0,-0.33272 -0.0656,-0.5373 -0.19567,-0.61373 -0.13122,-0.0764 -0.38444,-0.1151 -0.76198,-0.1151 v -0.45817 l 1.8612,-0.13488 v 4.85588 c 0,0.17984 0.0829,0.29225 0.24977,0.33766 0.16575,0.045 0.38444,0.0674 0.65378,0.0674 v 0.45815 z m 0.53983,-7.94429 c 0,-0.18888 0.0714,-0.35521 0.21524,-0.49908 0.14388,-0.14388 0.31078,-0.21582 0.49955,-0.21582 0.1174,0 0.23365,0.0314 0.35106,0.0939 0.11625,0.063 0.20603,0.15067 0.26933,0.26348 0.0633,0.11199 0.0944,0.23112 0.0944,0.3575 0,0.17933 -0.0714,0.34128 -0.21523,0.48516 -0.14388,0.14387 -0.31078,0.21581 -0.49955,0.21581 -0.18877,0 -0.35567,-0.0719 -0.49954,-0.21581 -0.14388,-0.14388 -0.21525,-0.30583 -0.21525,-0.48516" />
    <path
       inkscape:connector-curvature="0"
       id="path5390"
       style="fill:#444041;fill-opacity:1;fill-rule:nonzero;stroke:none;stroke-width:0.11510228"
       d="m 50.705497,150.35676 v -0.45815 c 0.28776,0 0.52832,-0.0225 0.72169,-0.0674 0.19337,-0.0454 0.29006,-0.15782 0.29006,-0.33766 v -3.534 c 0,-0.2338 -0.0357,-0.40241 -0.10819,-0.50582 -0.0714,-0.10297 -0.17266,-0.16591 -0.30387,-0.18839 -0.13007,-0.0229 -0.33035,-0.0346 -0.59969,-0.0346 v -0.45817 l 1.87502,-0.13488 v 1.26838 c 0.17035,-0.37813 0.42703,-0.68387 0.76773,-0.91768 0.34185,-0.23379 0.71133,-0.3507 1.10729,-0.3507 0.99793,0 1.58265,0.40466 1.753,1.21397 0.17151,-0.36824 0.42243,-0.66274 0.75507,-0.88305 0.33265,-0.22031 0.69752,-0.33092 1.09347,-0.33092 0.39481,0 0.72515,0.0634 0.99104,0.18929 0.26473,0.12544 0.46501,0.31878 0.59968,0.58 0.13582,0.26079 0.20258,0.58452 0.20258,0.97118 v 3.11541 c 0,0.17984 0.0967,0.29225 0.29006,0.33766 0.19337,0.045 0.43508,0.0674 0.72284,0.0674 v 0.45815 h -2.95468 v -0.45815 c 0.28776,0 0.52832,-0.0225 0.72169,-0.0674 0.19338,-0.0454 0.29006,-0.15782 0.29006,-0.33766 v -3.07584 c 0,-0.43163 -0.0633,-0.77964 -0.18877,-1.04446 -0.12661,-0.26528 -0.37868,-0.39792 -0.75622,-0.39792 -0.49494,0 -0.90355,0.20008 -1.22699,0.60025 -0.32459,0.3997 -0.48573,0.85157 -0.48573,1.35514 v 2.56283 c 0,0.17984 0.0944,0.29225 0.2843,0.33766 0.18762,0.045 0.43048,0.0674 0.72745,0.0674 v 0.45815 h -2.96734 v -0.45815 c 0.29582,0 0.53868,-0.0225 0.7286,-0.0674 0.18877,-0.0454 0.28315,-0.15782 0.28315,-0.33766 v -3.07584 c 0,-0.42219 -0.061,-0.7684 -0.18186,-1.03817 -0.12201,-0.26932 -0.37639,-0.40421 -0.76313,-0.40421 -0.49378,0 -0.90355,0.20008 -1.22699,0.60025 -0.32343,0.3997 -0.48458,0.85157 -0.48458,1.35514 v 2.56283 c 0,0.17984 0.0932,0.29225 0.282,0.33766 0.18877,0.045 0.42703,0.0674 0.71479,0.0674 v 0.45815 h -2.95353" />
    <path
       inkscape:connector-curvature="0"
       id="path5392"
       style="fill:#444041;fill-opacity:1;fill-rule:nonzero;stroke:none;stroke-width:0.11510228"
       d="m 64.088437,150.50559 c -0.52947,0 -1.0129,-0.13983 -1.44913,-0.41904 -0.43624,-0.27832 -0.7804,-0.64701 -1.03247,-1.10562 -0.25208,-0.45861 -0.37754,-0.9442 -0.37754,-1.45631 0,-0.51302 0.11395,-0.99635 0.34416,-1.45047 0.22905,-0.45411 0.54904,-0.8201 0.95765,-1.09887 0.40977,-0.27921 0.86557,-0.41859 1.36972,-0.41859 0.40401,0 0.75277,0.0652 1.04512,0.19603 0.29122,0.12994 0.53178,0.31429 0.7217,0.55258 0.18876,0.23785 0.33034,0.51706 0.42473,0.83629 0.0944,0.31923 0.14157,0.67263 0.14157,1.05931 0,0.10746 -0.0403,0.16141 -0.12201,0.16141 h -3.75003 v 0.14837 c 0,0.71039 0.14388,1.32413 0.43164,1.84164 0.28775,0.51662 0.75967,0.77514 1.4169,0.77514 0.26013,0 0.503,-0.0607 0.7286,-0.1821 0.22445,-0.12184 0.42012,-0.28551 0.58702,-0.49232 0.16575,-0.20638 0.28085,-0.43119 0.34416,-0.67399 0.008,-0.0274 0.0242,-0.0544 0.0472,-0.0814 0.0219,-0.027 0.0472,-0.0405 0.0737,-0.0405 h 0.12086 c 0.0817,0 0.122,0.0585 0.122,0.17534 -0.1174,0.4856 -0.37753,0.88576 -0.78269,1.20049 -0.40516,0.31518 -0.85866,0.47255 -1.36281,0.47255 z m -1.71272,-3.46701 h 2.94087 c 0,-0.32328 -0.0449,-0.65149 -0.13583,-0.98421 -0.0886,-0.33317 -0.23941,-0.60968 -0.4512,-0.82955 -0.21179,-0.22032 -0.48803,-0.33047 -0.82873,-0.33047 -0.48573,0 -0.86212,0.22931 -1.12685,0.68792 -0.26589,0.4586 -0.39826,0.9442 -0.39826,1.45631" />
    <path
       inkscape:connector-curvature="0"
       id="path5394"
       style="fill:#444041;fill-opacity:1;fill-rule:nonzero;stroke:none;stroke-width:0.11510228"
       d="m 72.236527,153.59402 v -12.94906 h 1.78063 v 0.51301 h -1.25346 v 11.92348 h 1.25346 v 0.51257 h -1.78063" />
    <path
       inkscape:connector-curvature="0"
       id="path5396"
       style="fill:#444041;fill-opacity:1;fill-rule:nonzero;stroke:none;stroke-width:0.11510228"
       d="m 74.661737,150.39768 v -2.1177 c 0,-0.0634 0.0357,-0.0949 0.1082,-0.0949 h 0.16114 c 0.0541,0 0.0898,0.0315 0.1082,0.0949 0.23365,1.24993 0.81377,1.8749 1.74034,1.8749 0.40401,0 0.74586,-0.0922 1.02441,-0.27696 0.27855,-0.18434 0.41897,-0.46986 0.41897,-0.85652 0,-0.27832 -0.10819,-0.51437 -0.32343,-0.7077 -0.2164,-0.19334 -0.47307,-0.32597 -0.77004,-0.39791 l -0.86326,-0.17535 c -0.28776,-0.0634 -0.55019,-0.16007 -0.78846,-0.29001 -0.23826,-0.13084 -0.43393,-0.30394 -0.58702,-0.51976 -0.15308,-0.21582 -0.22905,-0.4676 -0.22905,-0.75536 0,-0.38667 0.099,-0.69915 0.29581,-0.93745 0.19798,-0.23829 0.45926,-0.41139 0.78385,-0.51886 0.32344,-0.10835 0.66874,-0.16231 1.03822,-0.16231 0.43969,0 0.82644,0.11689 1.15908,0.35025 l 0.36373,-0.32372 c 0,-0.0175 0.023,-0.0265 0.0679,-0.0265 h 0.0944 c 0.0276,0 0.0518,0.0112 0.0748,0.0337 0.0219,0.0225 0.0334,0.0472 0.0334,0.0742 v 1.68606 c 0,0.0809 -0.0357,0.1214 -0.1082,0.1214 h -0.16229 c -0.0714,0 -0.10705,-0.0405 -0.10705,-0.1214 0,-0.44961 -0.12546,-0.8111 -0.37753,-1.08537 -0.25208,-0.27427 -0.60314,-0.41186 -1.05204,-0.41186 -0.38674,0 -0.72169,0.0719 -1.00484,0.21582 -0.28316,0.14388 -0.42473,0.39117 -0.42473,0.74187 0,0.2428 0.10129,0.44063 0.30272,0.59395 0.20258,0.15242 0.44314,0.26033 0.72169,0.32372 l 0.87708,0.1749 c 0.28776,0.063 0.5594,0.17536 0.81608,0.33766 0.25667,0.16187 0.45925,0.3642 0.60658,0.607 0.14849,0.24278 0.2233,0.51706 0.2233,0.8228 0,0.31473 -0.0518,0.58675 -0.15539,0.8156 -0.10359,0.22976 -0.25207,0.42085 -0.44544,0.57326 -0.19338,0.15287 -0.42013,0.26573 -0.68141,0.33767 -0.26013,0.0719 -0.53407,0.10791 -0.82183,0.10791 -0.53983,0 -1.00369,-0.1848 -1.39043,-0.55348 l -0.47192,0.51256 c 0,0.0274 -0.0219,0.0409 -0.0679,0.0409 h -0.0794 c -0.0725,0 -0.1082,-0.036 -0.1082,-0.10791" />
    <path
       inkscape:connector-curvature="0"
       id="path5398"
       style="fill:#444041;fill-opacity:1;fill-rule:nonzero;stroke:none;stroke-width:0.11510228"
       d="m 79.507537,153.59402 v -0.51257 h 1.25347 v -11.92348 h -1.25347 v -0.51301 h 1.77949 v 12.94906 h -1.77949" />
    <path
       inkscape:connector-curvature="0"
       id="path5400"
       style="fill:none;stroke:#444041;stroke-width:1.15100002;stroke-linecap:square;stroke-linejoin:round;stroke-miterlimit:10;stroke-dasharray:none;stroke-opacity:1"
       d="M -26.561507,120.15411 V 0.15998684" />
    <path
       inkscape:connector-curvature="0"
       id="path5402"
       style="fill:none;stroke:#444041;stroke-width:1.15100002;stroke-linecap:square;stroke-linejoin:round;stroke-miterlimit:10;stroke-dasharray:none;stroke-opacity:1"
       d="M 146.95518,120.15411 V 0.15998684" />
    <path
       inkscape:connector-curvature="0"
       id="path5404"
       style="fill:none;stroke:#444041;stroke-width:0.57579911;stroke-linecap:square;stroke-linejoin:round;stroke-miterlimit:10;stroke-dasharray:none;stroke-opacity:1"
       d="m -26.561507,109.24587 h 1.735053" />
    <path
       inkscape:connector-curvature="0"
       id="path5406"
       style="fill:none;stroke:#444041;stroke-width:1.15100002;stroke-linecap:square;stroke-linejoin:round;stroke-miterlimit:10;stroke-dasharray:none;stroke-opacity:1"
       d="m -26.561507,87.428693 h 1.735053" />
    <path
       inkscape:connector-curvature="0"
       id="path5408"
       style="fill:none;stroke:#444041;stroke-width:1.15100002;stroke-linecap:square;stroke-linejoin:round;stroke-miterlimit:10;stroke-dasharray:none;stroke-opacity:1"
       d="m -26.561507,65.611399 h 1.735053" />
    <path
       inkscape:connector-curvature="0"
       id="path5410"
       style="fill:none;stroke:#444041;stroke-width:1.15100002;stroke-linecap:square;stroke-linejoin:round;stroke-miterlimit:10;stroke-dasharray:none;stroke-opacity:1"
       d="m -26.561507,43.793649 h 1.735053" />
    <path
       inkscape:connector-curvature="0"
       id="path5412"
       style="fill:none;stroke:#444041;stroke-width:1.15100002;stroke-linecap:square;stroke-linejoin:round;stroke-miterlimit:10;stroke-dasharray:none;stroke-opacity:1"
       d="m -26.561507,21.977623 h 1.735053" />
    <path
       inkscape:connector-curvature="0"
       id="path5414"
       style="fill:none;stroke:#444041;stroke-width:0.57579911;stroke-linecap:square;stroke-linejoin:round;stroke-miterlimit:10;stroke-dasharray:none;stroke-opacity:1"
       d="m -26.561507,0.15998684 h 1.735053" />
    <path
       inkscape:connector-curvature="0"
       id="path5416"
       style="fill:none;stroke:#444041;stroke-width:0.57579911;stroke-linecap:square;stroke-linejoin:round;stroke-miterlimit:10;stroke-dasharray:none;stroke-opacity:1"
       d="m 146.95518,109.24587 h -1.73459" />
    <path
       inkscape:connector-curvature="0"
       id="path5418"
       style="fill:none;stroke:#444041;stroke-width:1.15100002;stroke-linecap:square;stroke-linejoin:round;stroke-miterlimit:10;stroke-dasharray:none;stroke-opacity:1"
       d="m 146.95518,87.428693 h -1.73459" />
    <path
       inkscape:connector-curvature="0"
       id="path5420"
       style="fill:none;stroke:#444041;stroke-width:1.15100002;stroke-linecap:square;stroke-linejoin:round;stroke-miterlimit:10;stroke-dasharray:none;stroke-opacity:1"
       d="m 146.95518,65.611399 h -1.73459" />
    <path
       inkscape:connector-curvature="0"
       id="path5422"
       style="fill:none;stroke:#444041;stroke-width:1.15100002;stroke-linecap:square;stroke-linejoin:round;stroke-miterlimit:10;stroke-dasharray:none;stroke-opacity:1"
       d="m 146.95518,43.793649 h -1.73459" />
    <path
       inkscape:connector-curvature="0"
       id="path5424"
       style="fill:none;stroke:#444041;stroke-width:1.15100002;stroke-linecap:square;stroke-linejoin:round;stroke-miterlimit:10;stroke-dasharray:none;stroke-opacity:1"
       d="m 146.95518,21.977623 h -1.73459" />
    <path
       inkscape:connector-curvature="0"
       id="path5426"
       style="fill:none;stroke:#444041;stroke-width:0.57579911;stroke-linecap:square;stroke-linejoin:round;stroke-miterlimit:10;stroke-dasharray:none;stroke-opacity:1"
       d="m 146.95518,0.15998684 h -1.73459" />
    <path
       inkscape:connector-curvature="0"
       id="path5428"
       style="fill:#444041;fill-opacity:1;fill-rule:nonzero;stroke:none;stroke-width:0.11510228"
       d="m -34.115557,112.25072 c -0.916787,0 -1.539489,-0.37765 -1.868109,-1.1326 -0.327809,-0.75576 -0.491945,-1.65057 -0.491945,-2.68511 0,-0.65597 0.05847,-1.26923 0.175416,-1.84025 0.116829,-0.57148 0.350715,-1.0571 0.701775,-1.45719 0.350261,-0.40022 0.844854,-0.5998 1.482863,-0.5998 0.495056,0 0.900102,0.11912 1.214908,0.35739 0.31423,0.2378 0.552604,0.54812 0.714899,0.93025 0.161372,0.38214 0.273828,0.79134 0.336328,1.22791 0.06331,0.43613 0.09531,0.89654 0.09531,1.38169 0,0.63894 -0.06078,1.2392 -0.182557,1.80112 -0.121428,0.56205 -0.355203,1.03915 -0.701892,1.43026 -0.345766,0.39078 -0.83806,0.58633 -1.476994,0.58633 z m 0,-0.28326 c 0.414141,0 0.724342,-0.21352 0.930719,-0.64066 0.207301,-0.42668 0.333222,-0.90148 0.378111,-1.42359 0.04501,-0.52106 0.06745,-1.07413 0.06745,-1.65816 0,-0.55755 -0.02244,-1.07506 -0.06745,-1.55112 -0.04489,-0.47664 -0.168624,-0.90827 -0.371319,-1.2949 -0.20189,-0.3872 -0.514392,-0.58046 -0.937511,-0.58046 -0.422193,0 -0.736881,0.19602 -0.943261,0.58714 -0.207298,0.39077 -0.333222,0.8224 -0.378111,1.2949 -0.04501,0.47215 -0.06745,0.98689 -0.06745,1.54444 0,0.4222 0.009,0.81792 0.02694,1.18705 0.01749,0.36821 0.07194,0.74816 0.162295,1.13928 0.08955,0.39158 0.231122,0.7217 0.424495,0.99092 0.193257,0.27026 0.451892,0.40516 0.775097,0.40516" />
    <path
       inkscape:connector-curvature="0"
       id="path5430"
       style="fill:#444041;fill-opacity:1;fill-rule:nonzero;stroke:none;stroke-width:0.11510228"
       d="m -47.392372,90.191143 v -0.39123 c 0.935206,0 1.402866,-0.12143 1.402866,-0.36419 v -5.88149 c -0.386626,0.1799 -0.876733,0.27026 -1.470201,0.27026 v -0.39112 c 0.917134,0 1.609591,-0.23838 2.077134,-0.7149 h 0.16195 c 0.0274,0 0.05214,0.009 0.07459,0.0269 0.02245,0.0175 0.03326,0.04 0.03326,0.067 v 6.62333 c 0,0.24276 0.46766,0.36419 1.402867,0.36419 v 0.39123 h -3.682467" />
    <path
       inkscape:connector-curvature="0"
       id="path5432"
       style="fill:#444041;fill-opacity:1;fill-rule:nonzero;stroke:none;stroke-width:0.11510228"
       d="m -39.869746,90.433433 c -0.917713,0 -1.540415,-0.37765 -1.868227,-1.1326 -0.328616,-0.75577 -0.493211,-1.65057 -0.493211,-2.68465 0,-0.65596 0.05847,-1.26969 0.175415,-1.84071 0.117288,-0.57149 0.351522,-1.05711 0.701777,-1.4572 0.350718,-0.39975 0.845312,-0.5998 1.484246,-0.5998 0.494132,0 0.898831,0.11913 1.213521,0.3574 0.31469,0.23826 0.553066,0.54857 0.714899,0.93071 0.161837,0.38214 0.274288,0.79133 0.337597,1.22745 0.0625,0.43612 0.09404,0.89699 0.09404,1.38215 0,0.63893 -0.06077,1.23919 -0.182092,1.80078 -0.121433,0.56192 -0.355208,1.03903 -0.700971,1.43014 -0.346689,0.39077 -0.838983,0.58633 -1.476993,0.58633 z m 0,-0.28326 c 0.413214,0 0.723417,-0.21352 0.930253,-0.6402 0.20684,-0.42715 0.332761,-0.90148 0.37719,-1.42359 0.04501,-0.52153 0.06745,-1.07459 0.06745,-1.65862 0,-0.55744 -0.02244,-1.07459 -0.06745,-1.55112 -0.04443,-0.47664 -0.168162,-0.90827 -0.370052,-1.2949 -0.202697,-0.38675 -0.515197,-0.58 -0.937391,-0.58 -0.423118,0 -0.737807,0.19556 -0.944647,0.58668 -0.206379,0.39077 -0.332758,0.8224 -0.378111,1.29489 -0.045,0.47215 -0.06745,0.98701 -0.06745,1.54445 0,0.42265 0.0094,0.81838 0.02785,1.18705 0.01796,0.36821 0.07148,0.74816 0.161375,1.13974 0.09001,0.39123 0.231126,0.72169 0.42496,0.99092 0.193255,0.26979 0.45189,0.4047 0.776019,0.4047" />
    <path
       inkscape:connector-curvature="0"
       id="path5434"
       style="fill:#444041;fill-opacity:1;fill-rule:nonzero;stroke:none;stroke-width:0.11510228"
       d="m -34.115557,90.433433 c -0.916787,0 -1.539489,-0.37765 -1.868109,-1.1326 -0.327809,-0.75577 -0.491945,-1.65057 -0.491945,-2.68465 0,-0.65596 0.05847,-1.26969 0.175416,-1.84071 0.116829,-0.57149 0.350715,-1.05711 0.701775,-1.4572 0.350261,-0.39975 0.844854,-0.5998 1.482863,-0.5998 0.495056,0 0.900102,0.11913 1.214908,0.3574 0.31423,0.23826 0.552604,0.54857 0.714899,0.93071 0.161372,0.38214 0.273828,0.79133 0.336328,1.22745 0.06331,0.43612 0.09531,0.89699 0.09531,1.38215 0,0.63893 -0.06078,1.23919 -0.182557,1.80078 -0.121428,0.56192 -0.355203,1.03903 -0.701892,1.43014 -0.345766,0.39077 -0.83806,0.58633 -1.476994,0.58633 z m 0,-0.28326 c 0.414141,0 0.724342,-0.21352 0.930719,-0.6402 0.207301,-0.42715 0.333222,-0.90148 0.378111,-1.42359 0.04501,-0.52153 0.06745,-1.07459 0.06745,-1.65862 0,-0.55744 -0.02244,-1.07459 -0.06745,-1.55112 -0.04489,-0.47664 -0.168624,-0.90827 -0.371319,-1.2949 -0.20189,-0.38675 -0.514392,-0.58 -0.937511,-0.58 -0.422193,0 -0.736881,0.19556 -0.943261,0.58668 -0.207298,0.39077 -0.333222,0.8224 -0.378111,1.29489 -0.04501,0.47215 -0.06745,0.98701 -0.06745,1.54445 0,0.42265 0.009,0.81838 0.02694,1.18705 0.01749,0.36821 0.07194,0.74816 0.162295,1.13974 0.08955,0.39123 0.231122,0.72169 0.424495,0.99092 0.193257,0.26979 0.451892,0.4047 0.775097,0.4047" />
    <path
       inkscape:connector-curvature="0"
       id="path5436"
       style="fill:#444041;fill-opacity:1;fill-rule:nonzero;stroke:none;stroke-width:0.11510228"
       d="M -47.877413,68.373853 V 68.07666 c 0,-0.01762 0.009,-0.04006 0.02647,-0.06699 l 1.739543,-1.928884 c 0.269798,-0.287756 0.485617,-0.52832 0.64745,-0.721691 0.162408,-0.193257 0.324242,-0.415864 0.486075,-0.668054 0.161837,-0.251383 0.289599,-0.507714 0.383984,-0.768422 0.09438,-0.26036 0.141574,-0.534651 0.141574,-0.822407 0,-0.30617 -0.05836,-0.601064 -0.17484,-0.883869 -0.116943,-0.283266 -0.287754,-0.508061 -0.51301,-0.6745 -0.224335,-0.166322 -0.494136,-0.249542 -0.808824,-0.249542 -0.324245,0 -0.61649,0.09899 -0.877309,0.297193 -0.260706,0.197403 -0.444641,0.449247 -0.552492,0.755418 0.03591,-0.0094 0.07597,-0.01392 0.120858,-0.01392 0.170928,0 0.314805,0.05617 0.431634,0.168163 0.116942,0.112803 0.175415,0.258982 0.175415,0.438772 0,0.170926 -0.05847,0.316992 -0.175415,0.438425 -0.116829,0.121317 -0.260706,0.182092 -0.431634,0.182092 -0.170812,0 -0.31653,-0.06078 -0.437388,-0.182092 -0.121433,-0.121433 -0.182093,-0.267499 -0.182093,-0.438425 0,-0.278778 0.05341,-0.541787 0.161374,-0.789027 0.107852,-0.247814 0.260823,-0.465818 0.458107,-0.654701 0.198321,-0.188423 0.423114,-0.334947 0.675421,-0.438309 0.251266,-0.103018 0.516576,-0.154699 0.794897,-0.154699 0.43163,0 0.831726,0.08989 1.200859,0.269341 0.36879,0.18025 0.661035,0.436581 0.87685,0.769228 0.215815,0.332761 0.323667,0.719389 0.323667,1.16046 0,0.323323 -0.07194,0.631335 -0.215816,0.923581 -0.143877,0.292245 -0.32597,0.55744 -0.546276,0.795816 -0.220306,0.238263 -0.50576,0.510249 -0.856474,0.816076 -0.350718,0.305252 -0.580002,0.507603 -0.687966,0.606475 l -1.267968,1.22791 h 1.079083 c 0.530621,0 0.97342,-0.0049 1.328625,-0.01392 0.354746,-0.0085 0.541786,-0.02647 0.560321,-0.05352 0.08943,-0.08989 0.179327,-0.431634 0.269222,-1.025562 h 0.337249 l -0.323667,1.996794 h -4.167508" />
    <path
       inkscape:connector-curvature="0"
       id="path5438"
       style="fill:#444041;fill-opacity:1;fill-rule:nonzero;stroke:none;stroke-width:0.11510228"
       d="m -39.869746,68.616145 c -0.917713,0 -1.540415,-0.37719 -1.868227,-1.132607 -0.328616,-0.755301 -0.493211,-1.650566 -0.493211,-2.684645 0,-0.655968 0.05847,-1.269233 0.175415,-1.840257 0.117288,-0.571481 0.351522,-1.057558 0.701777,-1.457192 0.350718,-0.400212 0.845312,-0.60026 1.484246,-0.60026 0.494132,0 0.898831,0.119131 1.213521,0.357393 0.31469,0.238377 0.553066,0.548577 0.714899,0.930717 0.161837,0.382254 0.274288,0.791327 0.337597,1.22745 0.0625,0.436584 0.09404,0.896993 0.09404,1.382149 0,0.638932 -0.06077,1.239192 -0.182092,1.800775 -0.121433,0.562388 -0.355208,1.039027 -0.700971,1.430605 -0.346689,0.390774 -0.838983,0.585872 -1.476993,0.585872 z m 0,-0.282808 c 0.413214,0 0.723417,-0.213513 0.930253,-0.640659 0.20684,-0.427143 0.332761,-0.901481 0.37719,-1.423469 0.04501,-0.521645 0.06745,-1.074134 0.06745,-1.658279 0,-0.5579 -0.02244,-1.075055 -0.06745,-1.551577 -0.04443,-0.476179 -0.168162,-0.907812 -0.370052,-1.294903 -0.202697,-0.386741 -0.515197,-0.579998 -0.937391,-0.579998 -0.423118,0 -0.737807,0.195559 -0.944647,0.587137 -0.206379,0.390771 -0.332758,0.822404 -0.378111,1.2949 -0.045,0.471688 -0.06745,0.986541 -0.06745,1.544441 0,0.422196 0.0094,0.817917 0.02785,1.187051 0.01796,0.368212 0.07148,0.748165 0.161375,1.139282 0.09001,0.391232 0.231126,0.721691 0.42496,0.991032 0.193255,0.270144 0.45189,0.405042 0.776019,0.405042" />
    <path
       inkscape:connector-curvature="0"
       id="path5440"
       style="fill:#444041;fill-opacity:1;fill-rule:nonzero;stroke:none;stroke-width:0.11510228"
       d="m -34.115557,68.616145 c -0.916787,0 -1.539489,-0.37719 -1.868109,-1.132607 -0.327809,-0.755301 -0.491945,-1.650566 -0.491945,-2.684645 0,-0.655968 0.05847,-1.269233 0.175416,-1.840257 0.116829,-0.571481 0.350715,-1.057558 0.701775,-1.457192 0.350261,-0.400212 0.844854,-0.60026 1.482863,-0.60026 0.495056,0 0.900102,0.119131 1.214908,0.357393 0.31423,0.238377 0.552604,0.548577 0.714899,0.930717 0.161372,0.382254 0.273828,0.791327 0.336328,1.22745 0.06331,0.436584 0.09531,0.896993 0.09531,1.382149 0,0.638932 -0.06078,1.239192 -0.182557,1.800775 -0.121428,0.562388 -0.355203,1.039027 -0.701892,1.430605 -0.345766,0.390774 -0.83806,0.585872 -1.476994,0.585872 z m 0,-0.282808 c 0.414141,0 0.724342,-0.213513 0.930719,-0.640659 0.207301,-0.427143 0.333222,-0.901481 0.378111,-1.423469 0.04501,-0.521645 0.06745,-1.074134 0.06745,-1.658279 0,-0.5579 -0.02244,-1.075055 -0.06745,-1.551577 -0.04489,-0.476179 -0.168624,-0.907812 -0.371319,-1.294903 -0.20189,-0.386741 -0.514392,-0.579998 -0.937511,-0.579998 -0.422193,0 -0.736881,0.195559 -0.943261,0.587137 -0.207298,0.390771 -0.333222,0.822404 -0.378111,1.2949 -0.04501,0.471688 -0.06745,0.986541 -0.06745,1.544441 0,0.422196 0.009,0.817917 0.02694,1.187051 0.01749,0.368212 0.07194,0.748165 0.162295,1.139282 0.08955,0.391232 0.231122,0.721691 0.424495,0.991032 0.193257,0.270144 0.451892,0.405042 0.775097,0.405042" />
    <path
       inkscape:connector-curvature="0"
       id="path5442"
       style="fill:#444041;fill-opacity:1;fill-rule:nonzero;stroke:none;stroke-width:0.11510228"
       d="m -47.365783,45.693296 c 0.180252,0.25173 0.418627,0.44015 0.7149,0.566534 0.297194,0.125807 0.611883,0.188767 0.944644,0.188767 0.440612,0 0.750813,-0.186121 0.930257,-0.559282 0.180249,-0.373623 0.27026,-0.793975 0.27026,-1.261176 0,-0.215815 -0.01807,-0.429792 -0.05445,-0.64158 -0.03557,-0.210868 -0.100714,-0.40654 -0.195096,-0.58587 -0.0945,-0.180366 -0.220306,-0.326429 -0.378227,-0.438885 -0.156884,-0.111879 -0.347956,-0.168164 -0.572749,-0.168164 h -0.755417 c -0.06284,0 -0.09438,-0.03142 -0.09438,-0.09484 v -0.10785 c 0,-0.05444 0.03154,-0.08138 0.09438,-0.08138 l 0.620518,-0.05352 c 0.260823,0 0.478825,-0.09899 0.654241,-0.296736 0.17484,-0.198321 0.302948,-0.438883 0.384326,-0.72169 0.08103,-0.283266 0.121433,-0.550765 0.121433,-0.802148 0,-0.359693 -0.08276,-0.654124 -0.249082,-0.88387 -0.166321,-0.228939 -0.425302,-0.34404 -0.776019,-0.34404 -0.278776,0 -0.548577,0.0541 -0.809283,0.162295 -0.26036,0.107506 -0.46766,0.269798 -0.620518,0.485616 0.01796,0 0.03142,-0.0021 0.04052,-0.0071 0.0085,-0.0045 0.02245,-0.0068 0.0404,-0.0068 0.161837,0 0.299036,0.05847 0.410916,0.175416 0.112917,0.116827 0.169548,0.260707 0.169548,0.431633 0,0.161372 -0.05663,0.301223 -0.169548,0.418513 -0.11188,0.116943 -0.249079,0.175413 -0.410916,0.175413 -0.170811,0 -0.314688,-0.05847 -0.43163,-0.175413 -0.116484,-0.11729 -0.174841,-0.257141 -0.174841,-0.418513 0,-0.323784 0.09657,-0.604287 0.289941,-0.842663 0.192913,-0.238377 0.442454,-0.417939 0.748164,-0.539946 0.305714,-0.120857 0.611541,-0.181861 0.917251,-0.181861 0.233313,0 0.476179,0.03338 0.728366,0.10129 0.251386,0.06676 0.478367,0.163444 0.681175,0.290057 0.20235,0.125921 0.368674,0.287296 0.499085,0.485156 0.130412,0.197861 0.195559,0.422656 0.195559,0.674844 0,0.314346 -0.06918,0.603943 -0.208565,0.869138 -0.139849,0.265311 -0.33322,0.495056 -0.579999,0.688427 -0.247816,0.193257 -0.515313,0.339437 -0.80307,0.438309 0.32332,0.06296 0.631221,0.184393 0.923466,0.364183 0.292703,0.179906 0.526591,0.413218 0.701894,0.700974 0.174953,0.287755 0.262548,0.593928 0.262548,0.91771 0,0.414022 -0.112339,0.787299 -0.336674,1.119486 -0.22491,0.332759 -0.521645,0.593582 -0.889857,0.782349 -0.369133,0.188884 -0.76025,0.283266 -1.173928,0.283266 -0.350718,0 -0.701432,-0.06515 -1.052611,-0.195099 -0.350256,-0.130871 -0.638009,-0.330917 -0.863265,-0.600718 -0.224335,-0.269798 -0.336674,-0.588518 -0.336674,-0.957651 0,-0.188881 0.06284,-0.343924 0.189227,-0.465357 0.125462,-0.121433 0.278317,-0.182092 0.458223,-0.182092 0.126266,0 0.238262,0.02693 0.336673,0.08138 0.09899,0.05352 0.178065,0.131675 0.236534,0.235614 0.05801,0.10336 0.08725,0.213514 0.08725,0.330457 0,0.17979 -0.06526,0.332301 -0.1951,0.458568 -0.130408,0.125923 -0.285567,0.188883 -0.465356,0.188883 h -0.05444" />
    <path
       inkscape:connector-curvature="0"
       id="path5444"
       style="fill:#444041;fill-opacity:1;fill-rule:nonzero;stroke:none;stroke-width:0.11510228"
       d="m -39.869746,46.799313 c -0.917713,0 -1.540415,-0.377651 -1.868227,-1.132605 -0.328616,-0.755761 -0.493211,-1.650452 -0.493211,-2.684645 0,-0.656429 0.05847,-1.269693 0.175415,-1.840717 0.117288,-0.571481 0.351522,-1.057098 0.701777,-1.457195 0.350718,-0.399749 0.845312,-0.600028 1.484246,-0.600028 0.494132,0 0.898831,0.119706 1.213521,0.357968 0.31469,0.238033 0.553066,0.547773 0.714899,0.929913 0.161837,0.382254 0.274288,0.791326 0.337597,1.22791 0.0625,0.436123 0.09404,0.896533 0.09404,1.382149 0,0.638471 -0.06077,1.238729 -0.182092,1.800775 -0.121433,0.561928 -0.355208,1.039027 -0.700971,1.430145 -0.346689,0.390771 -0.838983,0.58633 -1.476993,0.58633 z m 0,-0.283266 c 0.413214,0 0.723417,-0.213513 0.930253,-0.640659 0.20684,-0.426683 0.332761,-0.901481 0.37719,-1.423469 0.04501,-0.521185 0.06745,-1.074135 0.06745,-1.658279 0,-0.55744 -0.02244,-1.074595 -0.06745,-1.55112 -0.04443,-0.476636 -0.168162,-0.908272 -0.370052,-1.2949 -0.202697,-0.386974 -0.515197,-0.580345 -0.937391,-0.580345 -0.423118,0 -0.737807,0.195673 -0.944647,0.587021 -0.206379,0.390773 -0.332758,0.822407 -0.378111,1.294902 -0.045,0.472149 -0.06745,0.987002 -0.06745,1.544442 0,0.422196 0.0094,0.817917 0.02785,1.18705 0.01796,0.36821 0.07148,0.748163 0.161375,1.13928 0.09001,0.391695 0.231126,0.721694 0.42496,0.991492 0.193255,0.269685 0.45189,0.404585 0.776019,0.404585" />
    <path
       inkscape:connector-curvature="0"
       id="path5446"
       style="fill:#444041;fill-opacity:1;fill-rule:nonzero;stroke:none;stroke-width:0.11510228"
       d="m -34.115557,46.799313 c -0.916787,0 -1.539489,-0.377651 -1.868109,-1.132605 -0.327809,-0.755761 -0.491945,-1.650452 -0.491945,-2.684645 0,-0.656429 0.05847,-1.269693 0.175416,-1.840717 0.116829,-0.571481 0.350715,-1.057098 0.701775,-1.457195 0.350261,-0.399749 0.844854,-0.600028 1.482863,-0.600028 0.495056,0 0.900102,0.119706 1.214908,0.357968 0.31423,0.238033 0.552604,0.547773 0.714899,0.929913 0.161372,0.382254 0.273828,0.791326 0.336328,1.22791 0.06331,0.436123 0.09531,0.896533 0.09531,1.382149 0,0.638471 -0.06078,1.238729 -0.182557,1.800775 -0.121428,0.561928 -0.355203,1.039027 -0.701892,1.430145 -0.345766,0.390771 -0.83806,0.58633 -1.476994,0.58633 z m 0,-0.283266 c 0.414141,0 0.724342,-0.213513 0.930719,-0.640659 0.207301,-0.426683 0.333222,-0.901481 0.378111,-1.423469 0.04501,-0.521185 0.06745,-1.074135 0.06745,-1.658279 0,-0.55744 -0.02244,-1.074595 -0.06745,-1.55112 -0.04489,-0.476636 -0.168624,-0.908272 -0.371319,-1.2949 -0.20189,-0.386974 -0.514392,-0.580345 -0.937511,-0.580345 -0.422193,0 -0.736881,0.195673 -0.943261,0.587021 -0.207298,0.390773 -0.333222,0.822407 -0.378111,1.294902 -0.04501,0.472149 -0.06745,0.987002 -0.06745,1.544442 0,0.422196 0.009,0.817917 0.02694,1.18705 0.01749,0.36821 0.07194,0.748163 0.162295,1.13928 0.08955,0.391695 0.231122,0.721694 0.424495,0.991492 0.193257,0.269685 0.451892,0.404585 0.775097,0.404585" />
    <path
       inkscape:connector-curvature="0"
       id="path5448"
       style="fill:#444041;fill-opacity:1;fill-rule:nonzero;stroke:none;stroke-width:0.11510228"
       d="m -48.121201,22.891536 v -0.404011 l 3.467111,-5.16694 c 0.02694,-0.03568 0.06733,-0.0541 0.121779,-0.0541 h 0.161374 c 0.08103,0 0.121434,0.04144 0.121434,0.122008 v 5.09903 h 1.106131 v 0.404011 h -1.106131 v 1.092319 c 0,0.153088 0.110613,0.252074 0.330919,0.296966 0.219844,0.04489 0.473414,0.06791 0.761171,0.06791 v 0.391348 h -3.088425 v -0.391348 c 0.287754,0 0.541786,-0.02302 0.762092,-0.06791 0.220419,-0.04489 0.330574,-0.143878 0.330574,-0.296966 v -1.092319 z m 0.378228,-0.404011 h 2.657252 v -3.966423 z" />
    <path
       inkscape:connector-curvature="0"
       id="path5450"
       style="fill:#444041;fill-opacity:1;fill-rule:nonzero;stroke:none;stroke-width:0.11510228"
       d="m -39.869746,24.981792 c -0.917713,0 -1.540415,-0.377534 -1.868227,-1.132604 -0.328616,-0.755074 -0.493211,-1.650569 -0.493211,-2.684187 0,-0.656083 0.05847,-1.269578 0.175415,-1.840485 0.117288,-0.572059 0.351522,-1.05779 0.701777,-1.457195 0.350718,-0.400556 0.845312,-0.600834 1.484246,-0.600834 0.494132,0 0.898831,0.119707 1.213521,0.357968 0.31469,0.238262 0.553066,0.549038 0.714899,0.931177 0.161837,0.38214 0.274288,0.790753 0.337597,1.226991 0.0625,0.436237 0.09404,0.896647 0.09404,1.382378 0,0.638818 -0.06077,1.238501 -0.182092,1.8002 -0.121433,0.562851 -0.355208,1.039374 -0.700971,1.430722 -0.346689,0.391347 -0.838983,0.585869 -1.476993,0.585869 z m 0,-0.283152 c 0.413214,0 0.723417,-0.212939 0.930253,-0.639969 0.20684,-0.427029 0.332761,-0.90125 0.37719,-1.423815 0.04501,-0.521412 0.06745,-1.073903 0.06745,-1.658623 0,-0.557095 -0.02244,-1.073904 -0.06745,-1.551578 -0.04443,-0.476524 -0.168162,-0.908157 -0.370052,-1.294901 -0.202697,-0.385593 -0.515197,-0.578964 -0.937391,-0.578964 -0.423118,0 -0.737807,0.195674 -0.944647,0.58587 -0.206379,0.391348 -0.332758,0.822981 -0.378111,1.294901 -0.045,0.47307 -0.06745,0.987577 -0.06745,1.544672 0,0.422425 0.0094,0.818378 0.02785,1.186704 0.01796,0.36948 0.07148,0.748165 0.161375,1.140664 0.09001,0.390197 0.231126,0.721691 0.42496,0.991031 0.193255,0.269338 0.45189,0.404008 0.776019,0.404008" />
    <path
       inkscape:connector-curvature="0"
       id="path5452"
       style="fill:#444041;fill-opacity:1;fill-rule:nonzero;stroke:none;stroke-width:0.11510228"
       d="m -34.115557,24.981792 c -0.916787,0 -1.539489,-0.377534 -1.868109,-1.132604 -0.327809,-0.755074 -0.491945,-1.650569 -0.491945,-2.684187 0,-0.656083 0.05847,-1.269578 0.175416,-1.840485 0.116829,-0.572059 0.350715,-1.05779 0.701775,-1.457195 0.350261,-0.400556 0.844854,-0.600834 1.482863,-0.600834 0.495056,0 0.900102,0.119707 1.214908,0.357968 0.31423,0.238262 0.552604,0.549038 0.714899,0.931177 0.161372,0.38214 0.273828,0.790753 0.336328,1.226991 0.06331,0.436237 0.09531,0.896647 0.09531,1.382378 0,0.638818 -0.06078,1.238501 -0.182557,1.8002 -0.121428,0.562851 -0.355203,1.039374 -0.701892,1.430722 -0.345766,0.391347 -0.83806,0.585869 -1.476994,0.585869 z m 0,-0.283152 c 0.414141,0 0.724342,-0.212939 0.930719,-0.639969 0.207301,-0.427029 0.333222,-0.90125 0.378111,-1.423815 0.04501,-0.521412 0.06745,-1.073903 0.06745,-1.658623 0,-0.557095 -0.02244,-1.073904 -0.06745,-1.551578 -0.04489,-0.476524 -0.168624,-0.908157 -0.371319,-1.294901 -0.20189,-0.385593 -0.514392,-0.578964 -0.937511,-0.578964 -0.422193,0 -0.736881,0.195674 -0.943261,0.58587 -0.207298,0.391348 -0.333222,0.822981 -0.378111,1.294901 -0.04501,0.47307 -0.06745,0.987577 -0.06745,1.544672 0,0.422425 0.009,0.818378 0.02694,1.186704 0.01749,0.36948 0.07194,0.748165 0.162295,1.140664 0.08955,0.390197 0.231122,0.721691 0.424495,0.991031 0.193257,0.269338 0.451892,0.404008 0.775097,0.404008" />
    <path
       inkscape:connector-curvature="0"
       id="path5454"
       style="fill:#444041;fill-opacity:1;fill-rule:nonzero;stroke:none;stroke-width:0.11510228"
       d="m -47.459707,1.6413528 c 0.08092,0.22445 0.20005,0.42703 0.357392,0.606589 0.156884,0.17956 0.345768,0.318834 0.566074,0.417822 0.220765,0.09899 0.447862,0.148482 0.681176,0.148482 0.539943,0 0.910918,-0.210638 1.112809,-0.633063 0.202808,-0.423576 0.303985,-0.931177 0.303985,-1.52510496 0,-0.260131 -0.0046,-0.478825 -0.01404,-0.653781 -0.0085,-0.176107 -0.03096,-0.348759 -0.06699,-0.519111 -0.07194,-0.261282 -0.195559,-0.49033704 -0.370399,-0.68831204 -0.175878,-0.197976 -0.389393,-0.296965 -0.641696,-0.296965 -0.251266,0 -0.467085,0.03798 -0.64745,0.115104 -0.179331,0.07712 -0.325508,0.165746 -0.437388,0.269339 -0.112917,0.103593 -0.21409,0.21178704 -0.303985,0.32343704 -0.08989,0.112801 -0.14388,0.173804 -0.162295,0.183014 h -0.120971 c -0.0175,0 -0.04225,-0.01151 -0.07413,-0.03453 -0.03154,-0.02187 -0.04731,-0.04719 -0.04731,-0.07366 V -4.4694192 c 0,-0.01842 0.01358,-0.03568 0.04052,-0.0541 0.02693,-0.01726 0.05398,-0.02648 0.08092,-0.02648 h 0.02694 c 0.503569,0.242867 1.03868,0.364875 1.604754,0.364875 0.557554,0 1.093011,-0.122008 1.605562,-0.364875 h 0.04052 c 0.01796,0 0.03821,0.0092 0.06066,0.02648 0.02245,0.01842 0.03373,0.03568 0.03373,0.0541 v 0.107044 c 0,0.03683 -0.0045,0.05525 -0.01393,0.05525 -0.260823,0.341855 -0.584489,0.60659 -0.971232,0.795358 -0.386168,0.188768 -0.78189,0.28315 -1.186935,0.28315 -0.30571,0 -0.616028,-0.04029 -0.930716,-0.122008 v 2.117884 c 0.25219,-0.196825 0.474796,-0.338402 0.668168,-0.42473 0.193255,-0.08517 0.442799,-0.127762 0.748626,-0.127762 0.413561,0 0.784536,0.117404 1.112693,0.351063 0.327812,0.233655 0.579656,0.54097704 0.755417,0.92311704 0.175299,0.382141 0.263007,0.775791 0.263007,1.180951 0,0.45004896 -0.110152,0.86556896 -0.330458,1.24770796 -0.220306,0.38214 -0.521529,0.68601 -0.903781,0.910459 -0.38214,0.22445 -0.793517,0.33725 -1.234588,0.33725 -0.368212,0 -0.707306,-0.09438 -1.017503,-0.283152 -0.310201,-0.188767 -0.555717,-0.443143 -0.735619,-0.763128 -0.17979,-0.318833 -0.269226,-0.661837 -0.269226,-1.031316 0,-0.16114296 0.05617,-0.29696396 0.168165,-0.40400896 0.112339,-0.108196 0.249082,-0.162294 0.410916,-0.162294 0.162292,0 0.299381,0.0541 0.411836,0.162294 0.111993,0.107045 0.168162,0.242866 0.168162,0.40400896 0,0.162294 -0.05617,0.299266 -0.168162,0.412066 -0.112455,0.111649 -0.249544,0.168049 -0.411836,0.168049 -0.02659,0 -0.05537,-0.0023 -0.08725,-0.0069 -0.03142,-0.0046 -0.05617,-0.01036 -0.07413,-0.01957" />
    <path
       inkscape:connector-curvature="0"
       id="path5456"
       style="fill:#444041;fill-opacity:1;fill-rule:nonzero;stroke:none;stroke-width:0.11510228"
       d="m -39.869746,3.1653068 c -0.917713,0 -1.540415,-0.377535 -1.868227,-1.132606 -0.328616,-0.756222 -0.493211,-1.65056596 -0.493211,-2.68533496 0,-0.65608504 0.05847,-1.26958004 0.175415,-1.84048704 0.117288,-0.570908 0.351522,-1.056637 0.701777,-1.457195 0.350718,-0.399404 0.845312,-0.599683 1.484246,-0.599683 0.494132,0 0.898831,0.118558 1.213521,0.356817 0.31469,0.238262 0.553066,0.549039 0.714899,0.931178 0.161837,0.382139 0.274288,0.790751 0.337597,1.226989 0.0625,0.437392 0.09404,0.897799 0.09404,1.38238104 0,0.638817 -0.06077,1.239651 -0.182092,1.80134996 -0.121433,0.561699 -0.355208,1.038222 -0.700971,1.430721 -0.346689,0.390197 -0.838983,0.58587 -1.476993,0.58587 z m 0,-0.283151 c 0.413214,0 0.723417,-0.21409 0.930253,-0.64112 0.20684,-0.427029 0.332761,-0.901251 0.37719,-1.42381496 0.04501,-0.521413 0.06745,-1.073904 0.06745,-1.657473 0,-0.55824604 -0.02244,-1.07505504 -0.06745,-1.55158004 -0.04443,-0.476521 -0.168162,-0.908156 -0.370052,-1.294899 -0.202697,-0.386743 -0.515197,-0.580115 -0.937391,-0.580115 -0.423118,0 -0.737807,0.195672 -0.944647,0.587023 -0.206379,0.391347 -0.332758,0.822981 -0.378111,1.294899 -0.045,0.471918 -0.06745,0.986426 -0.06745,1.54467204 0,0.422427 0.0094,0.817227 0.02785,1.186705 0.01796,0.368327 0.07148,0.74816496 0.161375,1.13951196 0.09001,0.391348 0.231126,0.721692 0.42496,0.991031 0.193255,0.27049 0.45189,0.40516 0.776019,0.40516" />
    <path
       inkscape:connector-curvature="0"
       id="path5458"
       style="fill:#444041;fill-opacity:1;fill-rule:nonzero;stroke:none;stroke-width:0.11510228"
       d="m -34.115557,3.1653068 c -0.916787,0 -1.539489,-0.377535 -1.868109,-1.132606 -0.327809,-0.756222 -0.491945,-1.65056596 -0.491945,-2.68533496 0,-0.65608504 0.05847,-1.26958004 0.175416,-1.84048704 0.116829,-0.570908 0.350715,-1.056637 0.701775,-1.457195 0.350261,-0.399404 0.844854,-0.599683 1.482863,-0.599683 0.495056,0 0.900102,0.118558 1.214908,0.356817 0.31423,0.238262 0.552604,0.549039 0.714899,0.931178 0.161372,0.382139 0.273828,0.790751 0.336328,1.226989 0.06331,0.437392 0.09531,0.897799 0.09531,1.38238104 0,0.638817 -0.06078,1.239651 -0.182557,1.80134996 -0.121428,0.561699 -0.355203,1.038222 -0.701892,1.430721 -0.345766,0.390197 -0.83806,0.58587 -1.476994,0.58587 z m 0,-0.283151 c 0.414141,0 0.724342,-0.21409 0.930719,-0.64112 0.207301,-0.427029 0.333222,-0.901251 0.378111,-1.42381496 0.04501,-0.521413 0.06745,-1.073904 0.06745,-1.657473 0,-0.55824604 -0.02244,-1.07505504 -0.06745,-1.55158004 -0.04489,-0.476521 -0.168624,-0.908156 -0.371319,-1.294899 -0.20189,-0.386743 -0.514392,-0.580115 -0.937511,-0.580115 -0.422193,0 -0.736881,0.195672 -0.943261,0.587023 -0.207298,0.391347 -0.333222,0.822981 -0.378111,1.294899 -0.04501,0.471918 -0.06745,0.986426 -0.06745,1.54467204 0,0.422427 0.009,0.817227 0.02694,1.186705 0.01749,0.368327 0.07194,0.74816496 0.162295,1.13951196 0.08955,0.391348 0.231122,0.721692 0.424495,0.991031 0.193257,0.27049 0.451892,0.40516 0.775097,0.40516" />
    <path
       inkscape:connector-curvature="0"
       id="path5460"
       style="fill:#444041;fill-opacity:1;fill-rule:nonzero;stroke:none;stroke-width:0.11510228"
       d="m -56.44229,85.004293 h -0.458106 c 0,-0.88076 -0.134899,-1.32138 -0.405159,-1.32138 h -7.121954 c -0.269684,0 -0.404584,0.44062 -0.404584,1.32138 h -0.458683 v -7.13496 l 2.967106,-0.35118 v 0.36419 c -0.539138,0.0634 -0.966283,0.14433 -1.280973,0.24275 -0.314689,0.099 -0.562044,0.24286 -0.741488,0.43163 -0.18025,0.18934 -0.306172,0.44337 -0.378111,0.76221 -0.07194,0.31917 -0.107851,0.75795 -0.107851,1.3155 v 1.17313 c 0,0.16183 0.0067,0.28545 0.02072,0.37131 0.01301,0.0849 0.04892,0.1547 0.107851,0.20914 0.05801,0.0539 0.150208,0.0809 0.276015,0.0809 h 3.331751 v -0.91771 c 0,-0.44015 -0.03821,-0.76393 -0.114182,-0.97111 -0.07643,-0.20638 -0.218579,-0.34807 -0.425418,-0.4245 -0.206839,-0.0769 -0.530506,-0.11511 -0.971118,-0.11511 v -0.37719 h 3.480463 v 0.37719 c -0.440611,0 -0.764394,0.0382 -0.971118,0.11511 -0.207299,0.0764 -0.34899,0.21812 -0.425878,0.4245 -0.07551,0.20718 -0.113721,0.53096 -0.113721,0.97111 v 0.91771 h 3.331175 c 0.27026,0 0.405159,-0.55306 0.405159,-1.65908 h 0.458106 v 4.19444" />
    <path
       inkscape:connector-curvature="0"
       id="path5462"
       style="fill:#444041;fill-opacity:1;fill-rule:nonzero;stroke:none;stroke-width:0.11510228"
       d="m -56.29346,74.962083 c 0,0.52152 -0.132598,1.00265 -0.398371,1.44326 -0.265193,0.44108 -0.618215,0.78949 -1.058823,1.04536 -0.440613,0.25634 -0.921741,0.38444 -1.44373,0.38444 -0.395146,0 -0.7774,-0.0697 -1.146073,-0.20902 -0.368673,-0.13939 -0.696484,-0.34174 -0.98424,-0.60705 -0.287755,-0.26531 -0.51301,-0.57321 -0.675305,-0.92347 -0.161373,-0.35117 -0.24229,-0.72883 -0.24229,-1.13352 0,-0.53051 0.139389,-1.0144 0.418627,-1.450524 0.278663,-0.435661 0.653666,-0.779587 1.125815,-1.031431 0.472495,-0.25173 0.97342,-0.37719 1.503466,-0.37719 0.513011,0 0.991836,0.128106 1.437514,0.383979 0.445099,0.256334 0.799846,0.60475 1.065039,1.045358 0.265773,0.440618 0.398371,0.916788 0.398371,1.429808 z m -0.378111,0 c 0,-0.69246 -0.251731,-1.153331 -0.755304,-1.383074 -0.503569,-0.228822 -1.142044,-0.343464 -1.914955,-0.343464 -0.431633,0 -0.791328,0.02244 -1.079083,0.06745 -0.287757,0.04454 -0.548578,0.143878 -0.782811,0.296733 -0.1349,0.09887 -0.256218,0.22261 -0.364644,0.371435 -0.10739,0.14791 -0.190609,0.30479 -0.249542,0.47112 -0.05801,0.16689 -0.08679,0.33989 -0.08679,0.5198 0,0.2698 0.06077,0.52601 0.182092,0.76934 0.121433,0.24275 0.294086,0.4451 0.518881,0.60647 0.251844,0.16184 0.524291,0.26301 0.816535,0.30307 0.291784,0.0409 0.640314,0.0616 1.045359,0.0616 0.485156,0 0.921279,-0.0409 1.307906,-0.1219 0.386747,-0.0814 0.710413,-0.24988 0.971236,-0.50575 0.260706,-0.25634 0.391117,-0.6272 0.391117,-1.11281" />
    <path
       inkscape:connector-curvature="0"
       id="path5464"
       style="fill:#444041;fill-opacity:1;fill-rule:nonzero;stroke:none;stroke-width:0.11510228"
       d="m -56.44229,71.531454 h -0.458106 c 0,-0.297193 -0.02244,-0.539943 -0.06745,-0.728827 -0.04535,-0.188769 -0.157808,-0.282805 -0.337711,-0.282805 h -3.533985 c -0.233773,0 -0.402398,0.03603 -0.50576,0.107963 -0.103016,0.07194 -0.165977,0.173117 -0.188422,0.303411 -0.0229,0.130411 -0.03465,0.330113 -0.03465,0.600258 h -0.458107 l -0.1349,-1.84831 h 1.268312 c -0.378111,-0.143878 -0.683823,-0.344043 -0.917596,-0.5998 -0.233772,-0.256331 -0.350716,-0.568836 -0.350716,-0.937506 0,-0.25173 0.07689,-0.478827 0.229744,-0.681178 0.152395,-0.202348 0.350256,-0.303064 0.593007,-0.303064 0.161949,0 0.299036,0.05629 0.411951,0.168166 0.11234,0.112453 0.168049,0.249082 0.168049,0.41103 0,0.162293 -0.05571,0.299382 -0.168049,0.411835 -0.112915,0.111879 -0.250002,0.168164 -0.411951,0.168164 -0.233773,0 -0.395146,-0.08092 -0.485041,-0.242404 v 0.06745 c 0,0.350715 0.125807,0.636283 0.37719,0.85613 0.252189,0.220306 0.564692,0.377651 0.937393,0.472033 0.373277,0.0945 0.730669,0.141692 1.072408,0.141692 h 2.131119 c 0.27026,0 0.405159,-0.418166 0.405159,-1.25404 h 0.458106 v 3.169801" />
    <path
       inkscape:connector-curvature="0"
       id="path5466"
       style="fill:#444041;fill-opacity:1;fill-rule:nonzero;stroke:none;stroke-width:0.11510228"
       d="m -56.29346,63.686085 c 0,0.521067 -0.137548,0.995518 -0.411836,1.422661 -0.274288,0.42703 -0.636171,0.762093 -1.086221,1.004846 -0.449244,0.24275 -0.930257,0.364183 -1.442347,0.364183 -0.512665,0 -1.003116,-0.121433 -1.471237,-0.364183 -0.467085,-0.242753 -0.839901,-0.577816 -1.118564,-1.004846 -0.279238,-0.427143 -0.418627,-0.901594 -0.418627,-1.422661 0,-0.503574 0.09887,-0.964444 0.296734,-1.382956 0.198321,-0.417706 0.521989,-0.626846 0.971117,-0.626846 0.170928,0 0.317453,0.06077 0.438886,0.182092 0.121432,0.121433 0.182091,0.267499 0.182091,0.437964 0,0.170813 -0.06066,0.316992 -0.182091,0.438423 -0.121433,0.121319 -0.267958,0.182094 -0.438886,0.182094 -0.152855,0 -0.285453,-0.04731 -0.397908,-0.141692 -0.111879,-0.09438 -0.181631,-0.213514 -0.208565,-0.357391 -0.188883,0.297193 -0.283267,0.715245 -0.283267,1.254384 0,0.413676 0.136626,0.746323 0.410915,0.998167 0.274289,0.251727 0.613726,0.429792 1.018425,0.533268 0.4047,0.102901 0.804795,0.154582 1.200977,0.154582 0.413102,0 0.8155,-0.06285 1.206731,-0.188306 0.39158,-0.125923 0.715362,-0.325969 0.971119,-0.600721 0.256332,-0.273828 0.384443,-0.622242 0.384443,-1.045358 0,-0.404699 -0.125807,-0.750811 -0.37719,-1.038566 -0.25219,-0.287756 -0.580464,-0.485619 -0.985163,-0.593125 -0.05387,0 -0.08138,-0.03142 -0.08138,-0.09484 v -0.161377 c 0,-0.02705 0.01174,-0.04949 0.03465,-0.06745 0.02244,-0.01841 0.05168,-0.02751 0.08725,-0.02751 h 0.02694 c 0.512551,0.125923 0.919554,0.382254 1.220315,0.768885 0.301681,0.386627 0.452698,0.845769 0.452698,1.376278" />
    <path
       inkscape:connector-curvature="0"
       id="path5468"
       style="fill:#444041;fill-opacity:1;fill-rule:nonzero;stroke:none;stroke-width:0.11510228"
       d="m -56.29346,58.058273 c 0,0.530508 -0.139735,1.014283 -0.418973,1.450403 -0.278317,0.436123 -0.646991,0.780164 -1.105672,1.031433 -0.458569,0.252304 -0.944185,0.378111 -1.456275,0.378111 -0.513011,0 -0.996325,-0.114644 -1.450519,-0.344387 -0.454078,-0.228822 -0.820103,-0.548116 -1.098766,-0.957191 -0.279238,-0.409189 -0.418627,-0.865568 -0.418627,-1.369142 0,-0.404582 0.06515,-0.753113 0.196019,-1.045358 0.129951,-0.292706 0.31423,-0.533268 0.552146,-0.721577 0.238262,-0.188881 0.5175,-0.330573 0.836678,-0.424955 0.319294,-0.09439 0.672658,-0.141576 1.059286,-0.141576 0.107506,0 0.161489,0.0404 0.161489,0.121777 v 3.748998 h 0.148367 c 0.71041,0 1.324138,-0.143881 1.841176,-0.431636 0.517038,-0.287756 0.77556,-0.759445 0.77556,-1.415413 0,-0.260821 -0.06066,-0.503571 -0.182551,-0.728826 -0.121321,-0.224796 -0.284996,-0.420929 -0.491833,-0.587254 -0.206378,-0.165862 -0.431175,-0.280503 -0.674041,-0.343463 -0.02739,-0.009 -0.05433,-0.02474 -0.08138,-0.04719 -0.02693,-0.02257 -0.0404,-0.04731 -0.0404,-0.07424 v -0.120976 c 0,-0.08138 0.05847,-0.121777 0.175299,-0.121777 0.485616,0.116827 0.885828,0.37765 1.200517,0.782349 0.314688,0.404124 0.472496,0.858316 0.472496,1.36189 z m -3.466997,1.713873 v -2.941323 c -0.323667,0 -0.651479,0.04535 -0.984124,0.135705 -0.333221,0.08955 -0.609697,0.240104 -0.829542,0.451432 -0.220421,0.210867 -0.330574,0.487341 -0.330574,0.82954 0,0.485616 0.229399,0.861081 0.687966,1.126278 0.458568,0.265309 0.944184,0.398368 1.456274,0.398368" />
    <path
       inkscape:connector-curvature="0"
       id="path5470"
       style="fill:#444041;fill-opacity:1;fill-rule:nonzero;stroke:none;stroke-width:0.11510228"
       d="M -53.205035,49.910643 H -66.154043 V 48.12978 h 0.513011 v 1.254385 h 11.923446 V 48.12978 h 0.512551 v 1.780863" />
    <path
       inkscape:connector-curvature="0"
       id="path5472"
       style="fill:#444041;fill-opacity:1;fill-rule:nonzero;stroke:none;stroke-width:0.11510228"
       d="m -56.44229,47.512833 h -0.458106 c 0,-0.881224 -0.251845,-1.321835 -0.755414,-1.321835 h -7.095366 c -0.05398,0.279239 -0.08092,0.71985 -0.08092,1.321835 h -0.458683 v -2.468369 c 0,-0.045 0.01807,-0.07597 0.05352,-0.09392 l 6.744764,-4.586597 h -5.570376 c -0.51301,0 -0.769228,0.4451 -0.769228,1.335418 h -0.458683 v -3.074498 h 0.458683 c 0,0.880533 0.256218,1.321374 0.769228,1.321374 h 7.512728 c 0.01795,0 0.04051,0.01749 0.06745,0.05352 0.02694,0.03591 0.0404,0.06342 0.0404,0.08092 v 0.162293 c 0,0.04501 -0.01795,0.07194 -0.05433,0.08046 l -7.997881,5.449864 h 6.838688 c 0.503569,0 0.755414,-0.445101 0.755414,-1.335302 h 0.458106 v 3.074842" />
    <path
       inkscape:connector-curvature="0"
       id="path5474"
       style="fill:#444041;fill-opacity:1;fill-rule:nonzero;stroke:none;stroke-width:0.11510228"
       d="m -53.205035,38.137981 h -0.512551 v -1.253463 h -11.923446 v 1.253463 h -0.513011 v -1.779479 h 12.949008 v 1.779479" />
    <path
       inkscape:connector-curvature="0"
       id="path5492"
       style="fill:#050001;fill-opacity:1;fill-rule:nonzero;stroke:none;stroke-width:0.11510228"
       d="m 35.191037,23.000394 c 0.22433,0.196826 0.5076,0.295814 0.84934,0.295814 0.57551,0 0.97572,-0.427029 1.20098,-1.281088 0.0805,-0.315381 0.15642,-0.83219 0.22836,-1.551579 0.0364,-0.448899 0.0656,-0.829888 0.0882,-1.139513 0.0224,-0.310776 0.0472,-0.645724 0.0741,-1.004843 0.0269,-0.36027 0.0545,-0.712483 0.0814,-1.058941 0.0266,-0.346458 0.0625,-0.771185 0.10797,-1.274182 0.0355,-0.306172 0.0805,-0.692916 0.13443,-1.160231 0.0543,-0.468466 0.10601,-0.9001 0.15551,-1.294901 0.049,-0.395951 0.0913,-0.722842 0.12776,-0.978369 0.0355,-0.256678 0.0805,-0.613495 0.13479,-1.072753 0.1349,-0.863267 0.36913,-1.6068282 0.70189,-2.2318332 0.3323,-0.625005 0.84485,-0.936933 1.53731,-0.936933 0.24275,0 0.4855,0.0518 0.72883,0.154238 0.24275,0.103591 0.43784,0.252074 0.58575,0.445446 0.14836,0.193371 0.22307,0.415518 0.22307,0.667592 0,0.171503 -0.0585,0.313079 -0.17542,0.4247282 -0.11683,0.1128 -0.25621,0.168049 -0.41759,0.168049 -0.17138,0 -0.31526,-0.05525 -0.43163,-0.168049 -0.11694,-0.1116492 -0.17542,-0.2532252 -0.17542,-0.4247282 0,-0.162294 0.049,-0.296963 0.14745,-0.404008 0.099,-0.109347 0.22525,-0.176107 0.37823,-0.20258 -0.23389,-0.197976 -0.52165,-0.296964 -0.86327,-0.296964 -0.44971,0 -0.78189,0.372931 -0.99771,1.119945 -0.0719,0.3234372 -0.14883,0.8943442 -0.22986,1.7127212 -0.018,0.305021 -0.0427,0.646875 -0.0741,1.025562 -0.0319,0.377535 -0.063,0.793054 -0.0944,1.247708 -0.0315,0.453503 -0.0653,0.875929 -0.10071,1.267277 -0.0365,0.391347 -0.0679,0.712482 -0.095,0.964556 -0.0449,0.49494 -0.0831,0.875929 -0.1151,1.146419 -0.031,0.26934 -0.076,0.618099 -0.13444,1.045129 -0.0584,0.427029 -0.11418,0.851756 -0.16851,1.274182 -0.054,0.423577 -0.099,0.760826 -0.13444,1.011749 -0.0719,0.513356 -0.19832,1.005994 -0.37822,1.476761 -0.17979,0.473072 -0.44234,0.873628 -0.78903,1.201669 -0.34669,0.328041 -0.76704,0.491487 -1.26118,0.491487 -0.24275,0 -0.48331,-0.05065 -0.72169,-0.154236 -0.23826,-0.103592 -0.43163,-0.252074 -0.58046,-0.445447 -0.14837,-0.193371 -0.22249,-0.410914 -0.22249,-0.65378 0,-0.171503 0.0589,-0.315381 0.17622,-0.431634 0.11695,-0.117405 0.26082,-0.176107 0.43163,-0.176107 0.10751,0 0.20638,0.02532 0.29582,0.07482 0.0905,0.04949 0.16241,0.118555 0.21581,0.208336 0.0544,0.08978 0.0814,0.197975 0.0814,0.324589 0,0.08863 -0.0224,0.179559 -0.0673,0.269337 -0.045,0.08978 -0.10566,0.162296 -0.18221,0.216393 -0.0764,0.05295 -0.16851,0.08978 -0.27601,0.108196" />
    <path
       inkscape:connector-curvature="0"
       id="path5494"
       style="fill:#050001;fill-opacity:1;fill-rule:nonzero;stroke:none;stroke-width:0.11510228"
       d="m 45.891977,19.436828 c -0.0904,0 -0.13582,-0.06216 -0.13582,-0.188768 0.009,-0.01727 0.0207,-0.0564 0.0337,-0.115102 0.0139,-0.05755 0.0319,-0.102441 0.0544,-0.13467 0.0224,-0.03108 0.0517,-0.04719 0.0873,-0.04719 0.56689,0 0.95812,-0.03108 1.17393,-0.09438 0.12627,-0.04489 0.21582,-0.170352 0.26934,-0.377536 l 1.88883,-7.580635 c 0.018,-0.08978 0.0269,-0.151935 0.0269,-0.188768 0,-0.09899 -0.054,-0.15654 -0.16137,-0.174956 -0.17093,-0.03683 -0.50403,-0.0541 -0.99909,-0.0541 -0.0894,0 -0.13444,-0.0587 -0.13444,-0.174955 0.009,-0.02763 0.0203,-0.06791 0.0337,-0.122009 0.0139,-0.0541 0.0319,-0.09899 0.0544,-0.134669 0.0224,-0.03683 0.0512,-0.0541 0.0872,-0.0541 h 7.29679 c 0.0904,0 0.13583,0.06331 0.13583,0.188767 l -0.32379,2.860292 c 0,0.02647 -0.0157,0.0541 -0.0477,0.08057 -0.0314,0.02647 -0.0651,0.04029 -0.10071,0.04029 h -0.12178 c -0.09,0 -0.1349,-0.0587 -0.1349,-0.176106 0.0543,-0.421275 0.0814,-0.763128 0.0814,-1.024411 0,-0.458107 -0.099,-0.795356 -0.29719,-1.011749 -0.19786,-0.215241 -0.4474,-0.347609 -0.74817,-0.397102 -0.30168,-0.04949 -0.71766,-0.07482 -1.24862,-0.07482 h -1.46975 c -0.25184,0 -0.41816,0.02302 -0.49908,0.06676 -0.0814,0.04489 -0.1578,0.180711 -0.22974,0.40516 l -0.87639,3.520979 h 1.03868 c 0.34208,0 0.61868,-0.01842 0.82954,-0.0541 0.21133,-0.03683 0.38663,-0.105894 0.52602,-0.209486 0.13893,-0.102441 0.25403,-0.250923 0.34439,-0.444295 0.0896,-0.193372 0.17495,-0.452352 0.25633,-0.77694 0.0265,-0.08863 0.0715,-0.133519 0.13444,-0.133519 h 0.12097 c 0.0989,0 0.14837,0.06216 0.14837,0.188768 l -0.84934,3.412783 c -0.036,0.07942 -0.0809,0.120856 -0.13444,0.120856 h -0.12189 c -0.0899,0 -0.1349,-0.0633 -0.1349,-0.188767 0.0181,-0.09093 0.0337,-0.166898 0.0468,-0.230205 0.0139,-0.06215 0.0319,-0.154237 0.0543,-0.276245 0.0224,-0.120857 0.0337,-0.226752 0.0337,-0.316532 0,-0.261282 -0.11683,-0.427029 -0.35072,-0.499543 -0.23332,-0.07136 -0.53949,-0.108196 -0.9176,-0.108196 h -1.1326 l -0.90379,3.575076 c -0.018,0.08978 -0.0265,0.13467 -0.0265,0.13467 0,0.108196 0.031,0.171502 0.0939,0.188768 0.24287,0.06331 0.7149,0.09438 1.41679,0.09438 0.0894,0 0.13444,0.0587 0.13444,0.176106 -0.036,0.13467 -0.0634,0.219845 -0.0809,0.255527 -0.0181,0.03568 -0.0719,0.0541 -0.16149,0.0541 h -4.06" />
    <path
       inkscape:connector-curvature="0"
       id="path5496"
       style="fill:#050001;fill-opacity:1;fill-rule:nonzero;stroke:none;stroke-width:0.11510228"
       d="m 58.445727,19.599122 c -0.57551,0 -1.03235,-0.220996 -1.36949,-0.660687 -0.33725,-0.440841 -0.50587,-0.963406 -0.50587,-1.56539 0,-0.583569 0.15285,-1.193611 0.45868,-1.827825 0.30617,-0.633062 0.71985,-1.161382 1.24138,-1.584958 0.52106,-0.422426 1.07862,-0.633063 1.67209,-0.633063 0.2698,0 0.51485,0.07597 0.73562,0.229054 0.2203,0.151935 0.38893,0.355666 0.50576,0.606589 l 0.78189,-3.089345 c 0.0365,-0.151935 0.0589,-0.273943 0.0675,-0.363723 0,-0.151935 -0.30122,-0.229054 -0.90367,-0.229054 -0.09,0 -0.1349,-0.0587 -0.1349,-0.174955 0,-0.02763 0.009,-0.07021 0.0269,-0.128915 0.0184,-0.05755 0.0387,-0.102441 0.0611,-0.134669 0.0226,-0.03108 0.0563,-0.04719 0.10117,-0.04719 l 1.86098,-0.148482 c 0.11694,0 0.17541,0.0587 0.17541,0.176106 l -1.99587,7.944359 c -0.0634,0.151935 -0.0948,0.372931 -0.0948,0.660687 0,0.395952 0.13478,0.593928 0.40458,0.593928 0.28776,0 0.50588,-0.181862 0.65471,-0.546736 0.14836,-0.364874 0.27647,-0.789601 0.38398,-1.274182 0.018,-0.0541 0.0539,-0.08057 0.10785,-0.08057 h 0.16229 c 0.0356,0 0.0648,0.01496 0.0872,0.04719 0.0224,0.03108 0.0337,0.05985 0.0337,0.08633 -0.16183,0.648026 -0.33725,1.167137 -0.52556,1.558485 -0.18888,0.391347 -0.49908,0.587021 -0.93071,0.587021 -0.31481,0 -0.59128,-0.09208 -0.82955,-0.277396 -0.23837,-0.183013 -0.38444,-0.428181 -0.43888,-0.734352 -0.59301,0.674499 -1.19096,1.011748 -1.79353,1.011748 z m 0.0135,-0.377535 c 0.33276,0 0.65654,-0.124311 0.97123,-0.37178 0.31423,-0.246319 0.58403,-0.540981 0.80882,-0.882835 0.009,-0.0092 0.0139,-0.02762 0.0139,-0.0541 l 0.75542,-3.035247 c -0.054,-0.323437 -0.17311,-0.601985 -0.35751,-0.835642 -0.18474,-0.233658 -0.42979,-0.351062 -0.7355,-0.351062 -0.31481,0 -0.60475,0.126612 -0.87006,0.377535 -0.26531,0.252074 -0.49229,0.553642 -0.68117,0.903553 -0.17933,0.369478 -0.35026,0.874777 -0.51255,1.518199 -0.16184,0.642271 -0.24276,1.139512 -0.24276,1.489424 0,0.324588 0.0674,0.612343 0.2027,0.863266 0.1349,0.252075 0.35072,0.378687 0.64745,0.378687" />
    <path
       inkscape:connector-curvature="0"
       id="path5498"
       style="fill:#050001;fill-opacity:1;fill-rule:nonzero;stroke:none;stroke-width:0.11510228"
       d="m 64.096557,18.316883 c 0,-0.133519 0.0135,-0.264735 0.0405,-0.390197 l 0.99898,-3.966424 h -1.4572 c -0.0899,0 -0.1349,-0.0587 -0.1349,-0.174956 0.0356,-0.206033 0.094,-0.309625 0.17542,-0.309625 h 1.53719 l 0.55352,-2.253702 c 0.0354,-0.116254 0.10739,-0.217543 0.21582,-0.302719 0.10739,-0.08633 0.22883,-0.128915 0.36419,-0.128915 0.11682,0 0.21351,0.03453 0.28994,0.102441 0.076,0.06676 0.11418,0.158841 0.11418,0.276246 0,0.02647 0,0.04949 0,0.06676 0,0.01842 -0.005,0.03568 -0.013,0.0541 l -0.55341,2.185792 h 1.42968 c 0.0905,0 0.13536,0.06216 0.13536,0.187617 0,0.01841 -0.007,0.05525 -0.0206,0.108196 -0.0131,0.0541 -0.0311,0.09899 -0.0535,0.135821 -0.0226,0.03568 -0.0563,0.05295 -0.10071,0.05295 h -1.51072 l -0.98516,3.992898 c -0.0719,0.260131 -0.10785,0.485731 -0.10785,0.674499 0,0.395952 0.13479,0.593928 0.40458,0.593928 0.4047,0 0.7644,-0.188768 1.07909,-0.566303 0.3148,-0.378687 0.55306,-0.796508 0.7149,-1.254615 0.0356,-0.0541 0.0715,-0.08057 0.10796,-0.08057 h 0.1753 c 0.0356,0 0.0648,0.01266 0.0873,0.04029 0.0229,0.02647 0.0346,0.0541 0.0346,0.08057 0,0.01842 -0.005,0.03108 -0.0139,0.04029 -0.20684,0.557095 -0.50357,1.049732 -0.89031,1.476762 -0.38663,0.427029 -0.82724,0.641119 -1.3223,0.641119 -0.36821,0 -0.67622,-0.122008 -0.92392,-0.363723 -0.24736,-0.242866 -0.37098,-0.549038 -0.37098,-0.918516" />
    <path
       inkscape:connector-curvature="0"
       id="path5500"
       style="fill:#050001;fill-opacity:1;fill-rule:nonzero;stroke:none;stroke-width:0.11510228"
       d="m 73.096977,17.603249 c -0.0719,0 -0.13259,-0.02993 -0.18209,-0.08863 -0.0494,-0.05755 -0.0741,-0.123159 -0.0741,-0.194523 0,-0.07251 0.0247,-0.135821 0.0741,-0.189919 0.0495,-0.0541 0.11015,-0.08057 0.18209,-0.08057 h 8.67284 c 0.0725,0 0.13237,0.02647 0.18187,0.08057 0.0495,0.0541 0.0737,0.117405 0.0737,0.189919 0,0.07136 -0.0242,0.136972 -0.0737,0.194523 -0.0495,0.0587 -0.10935,0.08863 -0.18187,0.08863 z m 0,-2.684185 c -0.0719,0 -0.13259,-0.02763 -0.18209,-0.08172 -0.0494,-0.0541 -0.0741,-0.122008 -0.0741,-0.20258 0,-0.06331 0.0247,-0.123159 0.0741,-0.18071 0.0495,-0.0587 0.11015,-0.08863 0.18209,-0.08863 h 8.67284 c 0.0725,0 0.13237,0.02993 0.18187,0.08863 0.0495,0.05755 0.0737,0.117404 0.0737,0.18071 0,0.08057 -0.0242,0.148482 -0.0737,0.20258 -0.0495,0.0541 -0.10935,0.08172 -0.18187,0.08172 h -8.67284" />
    <path
       inkscape:connector-curvature="0"
       id="path5502"
       style="fill:#050001;fill-opacity:1;fill-rule:nonzero;stroke:none;stroke-width:0.11510228"
       d="m 87.960017,18.372132 c 0.21525,0.314229 0.50531,0.547887 0.86903,0.700973 0.36487,0.153086 0.75277,0.229053 1.16713,0.229053 0.53983,0 0.92197,-0.229053 1.14642,-0.68716 0.2256,-0.459258 0.33725,-0.976067 0.33725,-1.551579 0,-0.261282 -0.0242,-0.521413 -0.0737,-0.782695 -0.0495,-0.260132 -0.13121,-0.502997 -0.24286,-0.728598 -0.1128,-0.224449 -0.26589,-0.40516 -0.45926,-0.538679 -0.19337,-0.13582 -0.43393,-0.202579 -0.72169,-0.202579 h -0.91621 c -0.0817,0 -0.12201,-0.04489 -0.12201,-0.135821 V 14.55419 c 0,-0.07136 0.0403,-0.108196 0.12201,-0.108196 l 0.76773,-0.0541 c 0.32344,0 0.59163,-0.120857 0.80226,-0.363723 0.21179,-0.242866 0.36718,-0.539829 0.46617,-0.890892 0.099,-0.34991 0.14848,-0.682556 0.14848,-0.996785 0,-0.441993 -0.10359,-0.803414 -0.31078,-1.086565 -0.20718,-0.283152 -0.52141,-0.424728 -0.94384,-0.424728 -0.35106,0 -0.68601,0.06791 -1.00484,0.201429 -0.31998,0.135821 -0.57321,0.338401 -0.76198,0.60774 0.0173,-0.0092 0.0334,-0.01381 0.0472,-0.01381 0.0127,0 0.0288,0 0.0472,0 0.20719,0 0.37984,0.07251 0.51911,0.216392 0.13928,0.143878 0.20834,0.314229 0.20834,0.512205 0,0.197976 -0.0691,0.368327 -0.20834,0.512205 -0.13927,0.143878 -0.31192,0.216393 -0.51911,0.216393 -0.19797,0 -0.36832,-0.07251 -0.5122,-0.216393 -0.14388,-0.143878 -0.2164,-0.314229 -0.2164,-0.512205 0,-0.395952 0.11971,-0.738956 0.35797,-1.032467 0.23826,-0.29236 0.54329,-0.512205 0.91622,-0.659536 0.37408,-0.148482 0.74931,-0.223299 1.12685,-0.223299 0.27855,0 0.57321,0.04029 0.88283,0.120858 0.31078,0.08172 0.59163,0.200278 0.8437,0.357968 0.25208,0.15769 0.45811,0.357968 0.6204,0.600834 0.1623,0.242865 0.24287,0.516809 0.24287,0.822981 0,0.385592 -0.0875,0.743561 -0.26359,1.071602 -0.17495,0.328042 -0.41321,0.611193 -0.71478,0.849455 -0.30042,0.238262 -0.63076,0.415519 -0.99103,0.532923 0.40516,0.08172 0.7873,0.233658 1.14642,0.459259 0.36027,0.224449 0.64802,0.512205 0.86327,0.863267 0.21639,0.349911 0.32458,0.727446 0.32458,1.132606 0,0.502997 -0.14042,0.962255 -0.41897,1.375472 -0.27855,0.414368 -0.64572,0.737806 -1.09923,0.971463 -0.4535,0.233658 -0.93232,0.351062 -1.43647,0.351062 -0.43164,0 -0.86327,-0.08402 -1.2949,-0.249772 -0.43164,-0.166898 -0.78615,-0.414368 -1.06585,-0.741258 -0.27854,-0.329193 -0.41782,-0.721692 -0.41782,-1.180949 0,-0.233658 0.076,-0.42703 0.22905,-0.580116 0.15309,-0.153086 0.34646,-0.229053 0.58012,-0.229053 0.14387,0 0.27855,0.03568 0.40401,0.107045 0.12661,0.07251 0.2233,0.171502 0.29006,0.298114 0.0679,0.125462 0.10244,0.260132 0.10244,0.40401 0,0.224449 -0.0794,0.413217 -0.23712,0.566302 -0.15653,0.153087 -0.343,0.230205 -0.55939,0.230205 h -0.0668" />
    <path
       inkscape:connector-curvature="0"
       id="path5504"
       style="fill:#050001;fill-opacity:1;fill-rule:nonzero;stroke:none;stroke-width:0.11510228"
       d="m 94.744147,17.858776 c 0.099,0.27049 0.24517,0.515658 0.43854,0.735503 0.19337,0.219846 0.42473,0.392499 0.69522,0.519112 0.26934,0.126612 0.54789,0.188767 0.83564,0.188767 0.66529,0 1.12455,-0.257829 1.37547,-0.775789 0.25208,-0.516809 0.37869,-1.144116 0.37869,-1.880771 0,-0.324588 -0.007,-0.593928 -0.0207,-0.81032 -0.0138,-0.215241 -0.0426,-0.427029 -0.0875,-0.633062 -0.0898,-0.324589 -0.24172,-0.607741 -0.45235,-0.850606 -0.21064,-0.242866 -0.47423,-0.363724 -0.78846,-0.363724 -0.30617,0 -0.5709,0.04719 -0.7965,0.141576 -0.22445,0.09438 -0.40632,0.204882 -0.54674,0.330344 -0.13927,0.125461 -0.26243,0.257829 -0.37063,0.397103 -0.10704,0.140424 -0.17496,0.21409 -0.20258,0.223298 h -0.14848 c -0.0265,0 -0.0553,-0.01381 -0.0863,-0.04029 -0.0322,-0.02762 -0.0483,-0.0541 -0.0483,-0.08172 v -4.612146 c 0,-0.02647 0.0138,-0.0518 0.0414,-0.07482 0.0265,-0.02187 0.0575,-0.03338 0.0932,-0.03338 h 0.0403 c 0.62155,0.296964 1.27763,0.445446 1.97055,0.445446 0.68371,0 1.34324,-0.148482 1.98206,-0.445446 h 0.0403 c 0.0276,0 0.0541,0.01151 0.0817,0.03338 0.0265,0.02302 0.0403,0.04834 0.0403,0.07482 v 0.120857 c 0,0.04489 -0.009,0.06791 -0.0265,0.06791 -0.31538,0.422425 -0.70903,0.750467 -1.18095,0.984124 -0.47192,0.233658 -0.96456,0.351063 -1.47676,0.351063 -0.36833,0 -0.74586,-0.0541 -1.13261,-0.161144 v 2.616275 c 0.30502,-0.252074 0.57897,-0.429331 0.82183,-0.532923 0.24287,-0.103592 0.54904,-0.155389 0.91737,-0.155389 0.51335,0 0.96916,0.14618 1.36972,0.43854 0.3994,0.29236 0.70788,0.672198 0.92427,1.139513 0.21524,0.468466 0.32343,0.949593 0.32343,1.443382 0,0.547887 -0.13467,1.058941 -0.40515,1.530861 -0.2705,0.47307 -0.63882,0.850605 -1.10614,1.132606 -0.46732,0.283151 -0.97607,0.425878 -1.52396,0.425878 -0.45925,0 -0.87707,-0.119706 -1.25461,-0.357968 -0.37753,-0.238262 -0.6768,-0.554793 -0.89664,-0.950745 -0.221,-0.395951 -0.3315,-0.813773 -0.3315,-1.254615 0,-0.206032 0.0679,-0.375233 0.20373,-0.505298 0.13467,-0.130066 0.30502,-0.195674 0.51221,-0.195674 0.19682,0 0.36602,0.06561 0.5053,0.195674 0.13927,0.130065 0.20948,0.299266 0.20948,0.505298 0,0.197977 -0.0702,0.363724 -0.20948,0.499544 -0.13928,0.13467 -0.30848,0.20143 -0.5053,0.20143 -0.0357,0 -0.0748,-0.0023 -0.11396,-0.0069 -0.0414,-0.0035 -0.0714,-0.01036 -0.0886,-0.01957" />
    <path
       inkscape:connector-curvature="0"
       id="path5506"
       style="fill:#050001;fill-opacity:1;fill-rule:nonzero;stroke:none;stroke-width:0.11510228"
       d="m 101.61001,18.667945 c 0,-0.207184 0.076,-0.384441 0.22905,-0.532924 0.15309,-0.148482 0.33265,-0.222147 0.53983,-0.222147 0.12661,0 0.24977,0.03338 0.37063,0.10129 0.12086,0.06791 0.21524,0.162294 0.2843,0.283152 0.0668,0.122008 0.10014,0.245168 0.10014,0.370629 0,0.207184 -0.0737,0.386744 -0.22215,0.53983 -0.14848,0.153086 -0.32574,0.229053 -0.53292,0.229053 -0.20718,0 -0.38674,-0.07597 -0.53983,-0.229053 -0.15309,-0.153086 -0.22905,-0.332646 -0.22905,-0.53983" />
    <path
       inkscape:connector-curvature="0"
       id="path5508"
       style="fill:#050001;fill-opacity:1;fill-rule:nonzero;stroke:none;stroke-width:0.11510228"
       d="m 105.60866,18.372132 c 0.21524,0.314229 0.5053,0.547887 0.87017,0.700973 0.36372,0.153086 0.75277,0.229053 1.16714,0.229053 0.53868,0 0.92082,-0.229053 1.14642,-0.68716 0.22445,-0.459258 0.3361,-0.976067 0.3361,-1.551579 0,-0.261282 -0.0242,-0.521413 -0.0737,-0.782695 -0.0495,-0.260132 -0.13006,-0.502997 -0.24287,-0.728598 -0.1128,-0.224449 -0.26473,-0.40516 -0.4581,-0.538679 -0.19337,-0.13582 -0.43394,-0.202579 -0.72169,-0.202579 h -0.91852 c -0.0806,0 -0.1197,-0.04489 -0.1197,-0.135821 V 14.55419 c 0,-0.07136 0.0391,-0.108196 0.1197,-0.108196 l 0.77004,-0.0541 c 0.32343,0 0.59162,-0.120857 0.80226,-0.363723 0.21178,-0.242866 0.36602,-0.539829 0.46616,-0.890892 0.099,-0.34991 0.14848,-0.682556 0.14848,-0.996785 0,-0.441993 -0.10474,-0.803414 -0.31077,-1.086565 -0.20719,-0.283152 -0.52141,-0.424728 -0.94384,-0.424728 -0.35106,0 -0.68601,0.06791 -1.00599,0.201429 -0.31884,0.135821 -0.57206,0.338401 -0.76083,0.60774 0.0173,-0.0092 0.0334,-0.01381 0.046,-0.01381 0.0138,0 0.0299,0 0.0472,0 0.20719,0 0.37984,0.07251 0.52027,0.216392 0.13927,0.143878 0.20833,0.314229 0.20833,0.512205 0,0.197976 -0.0691,0.368327 -0.20833,0.512205 -0.14043,0.143878 -0.31308,0.216393 -0.52027,0.216393 -0.19797,0 -0.36832,-0.07251 -0.5122,-0.216393 -0.14388,-0.143878 -0.2164,-0.314229 -0.2164,-0.512205 0,-0.395952 0.11971,-0.738956 0.35797,-1.032467 0.23826,-0.29236 0.54444,-0.512205 0.91737,-0.659536 0.37293,-0.148482 0.74816,-0.223299 1.12685,-0.223299 0.27855,0 0.57206,0.04029 0.88283,0.120858 0.30963,0.08172 0.59163,0.200278 0.84371,0.357968 0.25092,0.15769 0.4581,0.357968 0.61924,0.600834 0.1623,0.242865 0.24402,0.516809 0.24402,0.822981 0,0.385592 -0.0875,0.743561 -0.26358,1.071602 -0.17496,0.328042 -0.41437,0.611193 -0.71479,0.849455 -0.30157,0.238262 -0.63191,0.415519 -0.99218,0.532923 0.40516,0.08172 0.7873,0.233658 1.14642,0.459259 0.36027,0.224449 0.64802,0.512205 0.86327,0.863267 0.21639,0.349911 0.32343,0.727446 0.32343,1.132606 0,0.502997 -0.13812,0.962255 -0.41782,1.375472 -0.2774,0.414368 -0.64457,0.737806 -1.09807,0.971463 -0.45466,0.233658 -0.93348,0.351062 -1.43648,0.351062 -0.43163,0 -0.86327,-0.08402 -1.2949,-0.249772 -0.43164,-0.166898 -0.7873,-0.414368 -1.06585,-0.741258 -0.27969,-0.329193 -0.41782,-0.721692 -0.41782,-1.180949 0,-0.233658 0.076,-0.42703 0.2279,-0.580116 0.15309,-0.153086 0.34646,-0.229053 0.58012,-0.229053 0.14387,0 0.2797,0.03568 0.40516,0.107045 0.12546,0.07251 0.22215,0.171502 0.29006,0.298114 0.0679,0.125462 0.10129,0.260132 0.10129,0.40401 0,0.224449 -0.0794,0.413217 -0.23596,0.566302 -0.15769,0.153087 -0.34416,0.230205 -0.56055,0.230205 h -0.0668" />
    <path
       inkscape:connector-curvature="0"
       id="path5510"
       style="fill:#050001;fill-opacity:1;fill-rule:nonzero;stroke:none;stroke-width:0.11510228"
       d="M 117.42851,22.889896 V 9.0776238 h 1.88883 v 0.553641 H 117.981 V 22.337406 h 1.33634 v 0.55249 h -1.88883" />
    <path
       inkscape:connector-curvature="0"
       id="path5512"
       style="fill:#050001;fill-opacity:1;fill-rule:nonzero;stroke:none;stroke-width:0.11510228"
       d="m 120.06551,19.436828 v -0.485731 c 0.94384,0 1.41575,-0.273944 1.41575,-0.822981 v -7.566824 c -0.29581,-0.05295 -0.76888,-0.08057 -1.41575,-0.08057 V 9.9949908 h 2.64274 c 0.046,0 0.0771,0.01726 0.0955,0.0541 l 4.88264,7.2031 v -5.948485 c 0,-0.549038 -0.47192,-0.822982 -1.41691,-0.822982 V 9.9949928 h 3.27811 v 0.4857312 c -0.94384,0 -1.41691,0.273944 -1.41691,0.822982 v 8.012269 c 0,0.02647 -0.0172,0.05295 -0.053,0.08057 -0.0368,0.02762 -0.0633,0.04029 -0.0817,0.04029 h -0.17495 c -0.0449,0 -0.076,-0.01842 -0.0944,-0.0541 l -5.8,-8.537135 v 7.282521 c 0,0.549037 0.47652,0.822981 1.42957,0.822981 v 0.485731 h -3.29077" />
    <path
       inkscape:connector-curvature="0"
       id="path5514"
       style="fill:#050001;fill-opacity:1;fill-rule:nonzero;stroke:none;stroke-width:0.11510228"
       d="m 130.45118,19.478265 v -2.253703 c 0,-0.07136 0.0414,-0.108196 0.12201,-0.108196 h 0.17496 c 0.0541,0 0.0898,0.03683 0.10819,0.108196 0.25093,1.330583 0.87133,1.997025 1.86121,1.997025 0.43163,0 0.7965,-0.09899 1.09232,-0.296964 0.29696,-0.197976 0.44544,-0.504148 0.44544,-0.917365 0,-0.296964 -0.1151,-0.547887 -0.34415,-0.755071 -0.22906,-0.207184 -0.50185,-0.351062 -0.81608,-0.431634 l -0.93117,-0.174955 c -0.30503,-0.07252 -0.58588,-0.178409 -0.84255,-0.317683 -0.25668,-0.139273 -0.46502,-0.323437 -0.62731,-0.55249 -0.16229,-0.230205 -0.24287,-0.497242 -0.24287,-0.803414 0,-0.404009 0.1082,-0.736655 0.32459,-0.997937 0.21524,-0.260131 0.49379,-0.446597 0.83564,-0.559397 0.34186,-0.1128 0.71018,-0.1692 1.10614,-0.1692 0.46731,0 0.87708,0.126612 1.22814,0.378686 l 0.40401,-0.351062 c 0,-0.01842 0.023,-0.02762 0.0679,-0.02762 h 0.0932 c 0.0276,0 0.0529,0.01151 0.0748,0.03338 0.0219,0.02302 0.0334,0.04719 0.0334,0.07482 v 1.808257 c 0,0.08978 -0.0357,0.133518 -0.1082,0.133518 h -0.16114 c -0.0806,0 -0.12086,-0.04374 -0.12086,-0.133518 0,-0.477675 -0.13582,-0.862116 -0.40516,-1.153325 -0.27049,-0.29236 -0.64342,-0.439691 -1.11995,-0.439691 -0.41321,0 -0.77233,0.07712 -1.0785,0.230205 -0.30618,0.151935 -0.45926,0.413217 -0.45926,0.782695 0,0.260131 0.1105,0.470769 0.33149,0.633063 0.21985,0.162294 0.47422,0.279698 0.76198,0.351061 l 0.94384,0.174956 c 0.31423,0.07252 0.60659,0.193372 0.87593,0.364874 0.27049,0.170352 0.48688,0.385593 0.64802,0.646875 0.1623,0.261283 0.24287,0.558246 0.24287,0.890892 0,0.332645 -0.0587,0.620401 -0.17611,0.863267 -0.11625,0.242866 -0.27509,0.445446 -0.47767,0.606589 -0.20258,0.161143 -0.44315,0.283151 -0.72169,0.364874 -0.27855,0.07942 -0.57206,0.120857 -0.87708,0.120857 -0.57552,0 -1.07045,-0.197976 -1.48367,-0.593927 l -0.49955,0.553642 c 0,0.02647 -0.0265,0.04029 -0.0806,0.04029 h -0.0806 c -0.0806,0 -0.12201,-0.04144 -0.12201,-0.120857" />
    <path
       inkscape:connector-curvature="0"
       id="path5516"
       style="fill:#050001;fill-opacity:1;fill-rule:nonzero;stroke:none;stroke-width:0.11510228"
       d="m 135.75164,22.889896 v -0.55249 h 1.33519 V 9.6312648 h -1.33519 v -0.553641 h 1.88768 V 22.889896 h -1.88768" />
  </g>
</svg>
