<?xml version="1.0" encoding="UTF-8" standalone="no"?>
<!-- Created with Inkscape (http://www.inkscape.org/) -->

<svg
   xmlns:dc="http://purl.org/dc/elements/1.1/"
   xmlns:cc="http://creativecommons.org/ns#"
   xmlns:rdf="http://www.w3.org/1999/02/22-rdf-syntax-ns#"
   xmlns:svg="http://www.w3.org/2000/svg"
   xmlns="http://www.w3.org/2000/svg"
   xmlns:sodipodi="http://sodipodi.sourceforge.net/DTD/sodipodi-0.dtd"
   xmlns:inkscape="http://www.inkscape.org/namespaces/inkscape"
   width="399.69791mm"
   height="388.19366mm"
   viewBox="0 0 399.69791 388.19366"
   version="1.1"
   id="svg43002"
   inkscape:version="0.92.3 (2405546, 2018-03-11)"
   sodipodi:docname="roundHSS.svg">
  <defs
     id="defs42996" />
  <sodipodi:namedview
     id="base"
     pagecolor="#ffffff"
     bordercolor="#666666"
     borderopacity="1.0"
     inkscape:pageopacity="0.0"
     inkscape:pageshadow="2"
     inkscape:zoom="0.35"
     inkscape:cx="1363.076"
     inkscape:cy="648.04263"
     inkscape:document-units="mm"
     inkscape:current-layer="g43557"
     showgrid="false"
     fit-margin-top="0"
     fit-margin-left="0"
     fit-margin-right="0"
     fit-margin-bottom="0"
     inkscape:window-width="1920"
     inkscape:window-height="1137"
     inkscape:window-x="1912"
     inkscape:window-y="-8"
     inkscape:window-maximized="1" />
  <metadata
     id="metadata42999">
    <rdf:RDF>
      <cc:Work
         rdf:about="">
        <dc:format>image/svg+xml</dc:format>
        <dc:type
           rdf:resource="http://purl.org/dc/dcmitype/StillImage" />
        <dc:title></dc:title>
      </cc:Work>
    </rdf:RDF>
  </metadata>
  <g
     inkscape:label="Layer 1"
     inkscape:groupmode="layer"
     id="layer1"
     transform="translate(204.7348,100.28775)">
    <g
       transform="matrix(1.8569687,0,0,-1.8569687,-178.50556,524.99523)"
       inkscape:label="ink_ext_XXXXXX"
       id="g43555">
      <g
         transform="matrix(0.1,0,0,0.1,-14.65522,54.549987)"
         id="g43557">
        <path
           inkscape:connector-curvature="0"
           id="path43563"
           style="fill:#ffffff;fill-opacity:1;fill-rule:nonzero;stroke:none;stroke-width:0.74319983"
           d="m 2067.0246,1780.892 -3.0249,75.955 -9.0447,75.4645 -15.0126,74.5133 -20.884,73.0862 -26.6288,71.1912 -32.2029,68.85 -37.5613,66.0779 -42.7042,62.8821 -47.5574,59.2925 -52.1206,55.3238 -56.3494,51.0132 -60.2289,46.3683 -63.722,41.4408 -66.8062,36.2459 -69.4818,30.8279 -71.7113,25.2093 -73.4802,19.4273 -74.7956,13.5262 -75.6355,7.5435 -75.9922,1.5161 -75.8732,-4.5335 -75.27874,-10.546 -74.20107,-16.4916 -72.65522,-22.3406 -70.64783,-28.0335 -68.1975,-33.5629 -65.31761,-38.8768 -62.02226,-43.938 -58.33227,-48.7241 -54.27662,-53.2132 -49.88506,-57.3527 -45.16351,-61.1356 -40.16178,-64.5321 -34.91627,-67.5197 -29.43443,-70.0763 -23.77348,-72.1944 -17.96463,-73.8592 -12.04206,-75.0483 -6.03553,-75.7692 v -76.0145 l 6.03553,-75.7693 12.04206,-75.0483 17.96463,-73.8592 23.77348,-72.1914 29.43443,-70.0815 34.91627,-67.5175 40.16178,-64.5313 45.16351,-61.1334 49.88506,-57.3572 54.27662,-53.2087 58.33227,-48.7286 62.02226,-43.93871 65.31761,-38.87307 68.1975,-33.56291 70.64783,-28.03572 72.65522,-22.33687 74.20107,-16.49235 75.27874,-10.54675 75.8732,-4.53203 75.9922,1.51241 75.6355,7.54496 74.7956,13.52921 73.4802,19.42427 71.7113,25.2138 69.4818,30.82273 66.8062,36.24214 63.722,41.44229 60.2289,46.372 56.3494,51.0102 52.1206,55.3223 47.5574,59.2962 42.7042,62.8814 37.5613,66.0757 32.2029,68.853 26.6288,71.1904 20.884,73.0863 15.0126,74.5132 9.0447,75.4645" />
        <path
           inkscape:connector-curvature="0"
           id="path43565"
           style="fill:none;stroke:#cacacb;stroke-width:3.71785736;stroke-linecap:butt;stroke-linejoin:bevel;stroke-miterlimit:10;stroke-dasharray:5.57399883, 16.7219965;stroke-dashoffset:0;stroke-opacity:1"
           d="m 1111.0838,1780.892 952.2991,83.3127" />
        <path
           inkscape:connector-curvature="0"
           id="path43567"
           style="fill:none;stroke:#cacacb;stroke-width:3.71785736;stroke-linecap:butt;stroke-linejoin:bevel;stroke-miterlimit:10;stroke-dasharray:5.57399883, 16.7219965;stroke-dashoffset:0;stroke-opacity:1"
           d="m 1111.0838,1780.892 941.4186,166.0011" />
        <path
           inkscape:connector-curvature="0"
           id="path43569"
           style="fill:none;stroke:#cacacb;stroke-width:3.71785736;stroke-linecap:butt;stroke-linejoin:bevel;stroke-miterlimit:10;stroke-dasharray:5.57399883, 16.7219965;stroke-dashoffset:0;stroke-opacity:1"
           d="m 1111.0838,1780.892 923.3663,247.4112" />
        <path
           inkscape:connector-curvature="0"
           id="path43571"
           style="fill:none;stroke:#cacacb;stroke-width:3.71785736;stroke-linecap:butt;stroke-linejoin:bevel;stroke-miterlimit:10;stroke-dasharray:5.57399883, 16.7219965;stroke-dashoffset:0;stroke-opacity:1"
           d="m 1111.0838,1780.892 866.3778,403.996" />
        <path
           inkscape:connector-curvature="0"
           id="path43573"
           style="fill:none;stroke:#cacacb;stroke-width:3.71785736;stroke-linecap:butt;stroke-linejoin:bevel;stroke-miterlimit:10;stroke-dasharray:5.57399883, 16.7219965;stroke-dashoffset:0;stroke-opacity:1"
           d="m 1111.0838,1780.892 827.8651,477.9741" />
        <path
           inkscape:connector-curvature="0"
           id="path43575"
           style="fill:none;stroke:#cacacb;stroke-width:3.71785736;stroke-linecap:butt;stroke-linejoin:bevel;stroke-miterlimit:10;stroke-dasharray:5.57399883, 16.7219965;stroke-dashoffset:0;stroke-opacity:1"
           d="m 1111.0838,1780.892 783.0651,548.3031" />
        <path
           inkscape:connector-curvature="0"
           id="path43577"
           style="fill:none;stroke:#cacacb;stroke-width:3.71785736;stroke-linecap:butt;stroke-linejoin:bevel;stroke-miterlimit:10;stroke-dasharray:5.57399883, 16.7219965;stroke-dashoffset:0;stroke-opacity:1"
           d="m 1111.0838,1780.892 675.9551,675.9551" />
        <path
           inkscape:connector-curvature="0"
           id="path43579"
           style="fill:none;stroke:#cacacb;stroke-width:3.71785736;stroke-linecap:butt;stroke-linejoin:bevel;stroke-miterlimit:10;stroke-dasharray:5.57399883, 16.7219965;stroke-dashoffset:0;stroke-opacity:1"
           d="m 1111.0838,1780.892 614.4702,732.2971" />
        <path
           inkscape:connector-curvature="0"
           id="path43581"
           style="fill:none;stroke:#cacacb;stroke-width:3.71785736;stroke-linecap:butt;stroke-linejoin:bevel;stroke-miterlimit:10;stroke-dasharray:5.57399883, 16.7219965;stroke-dashoffset:0;stroke-opacity:1"
           d="m 1111.0838,1780.892 548.3031,783.0651" />
        <path
           inkscape:connector-curvature="0"
           id="path43583"
           style="fill:none;stroke:#cacacb;stroke-width:3.71785736;stroke-linecap:butt;stroke-linejoin:bevel;stroke-miterlimit:10;stroke-dasharray:5.57399883, 16.7219965;stroke-dashoffset:0;stroke-opacity:1"
           d="m 1111.0838,1780.892 403.996,866.3778" />
        <path
           inkscape:connector-curvature="0"
           id="path43585"
           style="fill:none;stroke:#cacacb;stroke-width:3.71785736;stroke-linecap:butt;stroke-linejoin:bevel;stroke-miterlimit:10;stroke-dasharray:5.57399883, 16.7219965;stroke-dashoffset:0;stroke-opacity:1"
           d="m 1111.0838,1780.892 326.9484,898.2908" />
        <path
           inkscape:connector-curvature="0"
           id="path43587"
           style="fill:none;stroke:#cacacb;stroke-width:3.71785736;stroke-linecap:butt;stroke-linejoin:bevel;stroke-miterlimit:10;stroke-dasharray:5.57399883, 16.7219965;stroke-dashoffset:0;stroke-opacity:1"
           d="m 1111.0838,1780.892 247.4112,923.3664" />
        <path
           inkscape:connector-curvature="0"
           id="path43589"
           style="fill:none;stroke:#cacacb;stroke-width:3.71785736;stroke-linecap:butt;stroke-linejoin:bevel;stroke-miterlimit:10;stroke-dasharray:5.57399883, 16.7219965;stroke-dashoffset:0;stroke-opacity:1"
           d="m 1111.0838,1780.892 83.3127,952.2991" />
        <path
           inkscape:connector-curvature="0"
           id="path43591"
           style="fill:none;stroke:#cacacb;stroke-width:3.71785736;stroke-linecap:butt;stroke-linejoin:bevel;stroke-miterlimit:10;stroke-dasharray:5.57399883, 16.7219965;stroke-dashoffset:0;stroke-opacity:1"
           d="m 1111.0838,1780.892 v 955.9408" />
        <path
           inkscape:connector-curvature="0"
           id="path43593"
           style="fill:none;stroke:#cacacb;stroke-width:3.71785736;stroke-linecap:butt;stroke-linejoin:bevel;stroke-miterlimit:10;stroke-dasharray:5.57399883, 16.7219965;stroke-dashoffset:0;stroke-opacity:1"
           d="m 1111.0838,1780.892 -83.3127,952.2991" />
        <path
           inkscape:connector-curvature="0"
           id="path43595"
           style="fill:none;stroke:#cacacb;stroke-width:3.71785736;stroke-linecap:butt;stroke-linejoin:bevel;stroke-miterlimit:10;stroke-dasharray:5.57399883, 16.7219965;stroke-dashoffset:0;stroke-opacity:1"
           d="M 1111.0838,1780.892 863.67254,2704.2584" />
        <path
           inkscape:connector-curvature="0"
           id="path43597"
           style="fill:none;stroke:#cacacb;stroke-width:3.71785736;stroke-linecap:butt;stroke-linejoin:bevel;stroke-miterlimit:10;stroke-dasharray:5.57399883, 16.7219965;stroke-dashoffset:0;stroke-opacity:1"
           d="M 1111.0838,1780.892 784.13529,2679.1828" />
        <path
           inkscape:connector-curvature="0"
           id="path43599"
           style="fill:none;stroke:#cacacb;stroke-width:3.71785736;stroke-linecap:butt;stroke-linejoin:bevel;stroke-miterlimit:10;stroke-dasharray:5.57399883, 16.7219965;stroke-dashoffset:0;stroke-opacity:1"
           d="M 1111.0838,1780.892 707.08479,2647.2698" />
        <path
           inkscape:connector-curvature="0"
           id="path43601"
           style="fill:none;stroke:#cacacb;stroke-width:3.71785736;stroke-linecap:butt;stroke-linejoin:bevel;stroke-miterlimit:10;stroke-dasharray:5.57399883, 16.7219965;stroke-dashoffset:0;stroke-opacity:1"
           d="M 1111.0838,1780.892 562.77916,2563.9571" />
        <path
           inkscape:connector-curvature="0"
           id="path43603"
           style="fill:none;stroke:#cacacb;stroke-width:3.71785736;stroke-linecap:butt;stroke-linejoin:bevel;stroke-miterlimit:10;stroke-dasharray:5.57399883, 16.7219965;stroke-dashoffset:0;stroke-opacity:1"
           d="M 1111.0838,1780.892 496.61728,2513.1891" />
        <path
           inkscape:connector-curvature="0"
           id="path43605"
           style="fill:none;stroke:#cacacb;stroke-width:3.71785736;stroke-linecap:butt;stroke-linejoin:bevel;stroke-miterlimit:10;stroke-dasharray:5.57399883, 16.7219965;stroke-dashoffset:0;stroke-opacity:1"
           d="M 1111.0838,1780.892 435.13162,2456.8471" />
        <path
           inkscape:connector-curvature="0"
           id="path43607"
           style="fill:none;stroke:#cacacb;stroke-width:3.71785736;stroke-linecap:butt;stroke-linejoin:bevel;stroke-miterlimit:10;stroke-dasharray:5.57399883, 16.7219965;stroke-dashoffset:0;stroke-opacity:1"
           d="M 1111.0838,1780.892 328.02091,2329.1951" />
        <path
           inkscape:connector-curvature="0"
           id="path43609"
           style="fill:none;stroke:#cacacb;stroke-width:3.71785736;stroke-linecap:butt;stroke-linejoin:bevel;stroke-miterlimit:10;stroke-dasharray:5.57399883, 16.7219965;stroke-dashoffset:0;stroke-opacity:1"
           d="M 1111.0838,1780.892 283.21711,2258.8661" />
        <path
           inkscape:connector-curvature="0"
           id="path43611"
           style="fill:none;stroke:#cacacb;stroke-width:3.71785736;stroke-linecap:butt;stroke-linejoin:bevel;stroke-miterlimit:10;stroke-dasharray:5.57399883, 16.7219965;stroke-dashoffset:0;stroke-opacity:1"
           d="M 1111.0838,1780.892 244.70747,2184.888" />
        <path
           inkscape:connector-curvature="0"
           id="path43613"
           style="fill:none;stroke:#cacacb;stroke-width:3.71785736;stroke-linecap:butt;stroke-linejoin:bevel;stroke-miterlimit:10;stroke-dasharray:5.57399883, 16.7219965;stroke-dashoffset:0;stroke-opacity:1"
           d="M 1111.0838,1780.892 187.71593,2028.3032" />
        <path
           inkscape:connector-curvature="0"
           id="path43615"
           style="fill:none;stroke:#cacacb;stroke-width:3.71785736;stroke-linecap:butt;stroke-linejoin:bevel;stroke-miterlimit:10;stroke-dasharray:5.57399883, 16.7219965;stroke-dashoffset:0;stroke-opacity:1"
           d="M 1111.0838,1780.892 169.66435,1946.8931" />
        <path
           inkscape:connector-curvature="0"
           id="path43617"
           style="fill:none;stroke:#cacacb;stroke-width:3.71785736;stroke-linecap:butt;stroke-linejoin:bevel;stroke-miterlimit:10;stroke-dasharray:5.57399883, 16.7219965;stroke-dashoffset:0;stroke-opacity:1"
           d="m 1111.0838,1780.892 -952.30064,83.3127" />
        <path
           inkscape:connector-curvature="0"
           id="path43619"
           style="fill:none;stroke:#cacacb;stroke-width:3.71785736;stroke-linecap:butt;stroke-linejoin:bevel;stroke-miterlimit:10;stroke-dasharray:5.57399883, 16.7219965;stroke-dashoffset:0;stroke-opacity:1"
           d="M 1111.0838,1780.892 158.78316,1697.5793" />
        <path
           inkscape:connector-curvature="0"
           id="path43621"
           style="fill:none;stroke:#cacacb;stroke-width:3.71785736;stroke-linecap:butt;stroke-linejoin:bevel;stroke-miterlimit:10;stroke-dasharray:5.57399883, 16.7219965;stroke-dashoffset:0;stroke-opacity:1"
           d="M 1111.0838,1780.892 169.66435,1614.8909" />
        <path
           inkscape:connector-curvature="0"
           id="path43623"
           style="fill:none;stroke:#cacacb;stroke-width:3.71785736;stroke-linecap:butt;stroke-linejoin:bevel;stroke-miterlimit:10;stroke-dasharray:5.57399883, 16.7219965;stroke-dashoffset:0;stroke-opacity:1"
           d="M 1111.0838,1780.892 187.71593,1533.4808" />
        <path
           inkscape:connector-curvature="0"
           id="path43625"
           style="fill:none;stroke:#cacacb;stroke-width:3.71785736;stroke-linecap:butt;stroke-linejoin:bevel;stroke-miterlimit:10;stroke-dasharray:5.57399883, 16.7219965;stroke-dashoffset:0;stroke-opacity:1"
           d="M 1111.0838,1780.892 244.70747,1376.893" />
        <path
           inkscape:connector-curvature="0"
           id="path43627"
           style="fill:none;stroke:#cacacb;stroke-width:3.71785736;stroke-linecap:butt;stroke-linejoin:bevel;stroke-miterlimit:10;stroke-dasharray:5.57399883, 16.7219965;stroke-dashoffset:0;stroke-opacity:1"
           d="M 1111.0838,1780.892 283.21711,1302.9216" />
        <path
           inkscape:connector-curvature="0"
           id="path43629"
           style="fill:none;stroke:#cacacb;stroke-width:3.71785736;stroke-linecap:butt;stroke-linejoin:bevel;stroke-miterlimit:10;stroke-dasharray:5.57399883, 16.7219965;stroke-dashoffset:0;stroke-opacity:1"
           d="M 1111.0838,1780.892 328.02091,1232.5874" />
        <path
           inkscape:connector-curvature="0"
           id="path43631"
           style="fill:none;stroke:#cacacb;stroke-width:3.71785736;stroke-linecap:butt;stroke-linejoin:bevel;stroke-miterlimit:10;stroke-dasharray:5.57399883, 16.7219965;stroke-dashoffset:0;stroke-opacity:1"
           d="M 1111.0838,1780.892 435.13162,1104.9399" />
        <path
           inkscape:connector-curvature="0"
           id="path43633"
           style="fill:none;stroke:#cacacb;stroke-width:3.71785736;stroke-linecap:butt;stroke-linejoin:bevel;stroke-miterlimit:10;stroke-dasharray:5.57399883, 16.7219965;stroke-dashoffset:0;stroke-opacity:1"
           d="M 1111.0838,1780.892 496.61728,1048.5964" />
        <path
           inkscape:connector-curvature="0"
           id="path43635"
           style="fill:none;stroke:#cacacb;stroke-width:3.71785736;stroke-linecap:butt;stroke-linejoin:bevel;stroke-miterlimit:10;stroke-dasharray:5.57399883, 16.7219965;stroke-dashoffset:0;stroke-opacity:1"
           d="M 1111.0838,1780.892 562.77916,997.82916" />
        <path
           inkscape:connector-curvature="0"
           id="path43637"
           style="fill:none;stroke:#cacacb;stroke-width:3.71785736;stroke-linecap:butt;stroke-linejoin:bevel;stroke-miterlimit:10;stroke-dasharray:5.57399883, 16.7219965;stroke-dashoffset:0;stroke-opacity:1"
           d="M 1111.0838,1780.892 707.08479,914.51571" />
        <path
           inkscape:connector-curvature="0"
           id="path43639"
           style="fill:none;stroke:#cacacb;stroke-width:3.71785736;stroke-linecap:butt;stroke-linejoin:bevel;stroke-miterlimit:10;stroke-dasharray:5.57399883, 16.7219965;stroke-dashoffset:0;stroke-opacity:1"
           d="M 1111.0838,1780.892 784.13529,882.6042" />
        <path
           inkscape:connector-curvature="0"
           id="path43641"
           style="fill:none;stroke:#cacacb;stroke-width:3.71785736;stroke-linecap:butt;stroke-linejoin:bevel;stroke-miterlimit:10;stroke-dasharray:5.57399883, 16.7219965;stroke-dashoffset:0;stroke-opacity:1"
           d="M 1111.0838,1780.892 863.67254,857.52715" />
        <path
           inkscape:connector-curvature="0"
           id="path43643"
           style="fill:none;stroke:#cacacb;stroke-width:3.71785736;stroke-linecap:butt;stroke-linejoin:bevel;stroke-miterlimit:10;stroke-dasharray:5.57399883, 16.7219965;stroke-dashoffset:0;stroke-opacity:1"
           d="M 1111.0838,1780.892 1027.7711,828.59141" />
        <path
           inkscape:connector-curvature="0"
           id="path43645"
           style="fill:none;stroke:#cacacb;stroke-width:3.71785736;stroke-linecap:butt;stroke-linejoin:bevel;stroke-miterlimit:10;stroke-dasharray:5.57399883, 16.7219965;stroke-dashoffset:0;stroke-opacity:1"
           d="M 1111.0838,1780.892 V 824.95121" />
        <path
           inkscape:connector-curvature="0"
           id="path43647"
           style="fill:none;stroke:#cacacb;stroke-width:3.71785736;stroke-linecap:butt;stroke-linejoin:bevel;stroke-miterlimit:10;stroke-dasharray:5.57399883, 16.7219965;stroke-dashoffset:0;stroke-opacity:1"
           d="m 1111.0838,1780.892 83.3127,-952.30059" />
        <path
           inkscape:connector-curvature="0"
           id="path43649"
           style="fill:none;stroke:#cacacb;stroke-width:3.71785736;stroke-linecap:butt;stroke-linejoin:bevel;stroke-miterlimit:10;stroke-dasharray:5.57399883, 16.7219965;stroke-dashoffset:0;stroke-opacity:1"
           d="M 1111.0838,1780.892 1358.495,857.52715" />
        <path
           inkscape:connector-curvature="0"
           id="path43651"
           style="fill:none;stroke:#cacacb;stroke-width:3.71785736;stroke-linecap:butt;stroke-linejoin:bevel;stroke-miterlimit:10;stroke-dasharray:5.57399883, 16.7219965;stroke-dashoffset:0;stroke-opacity:1"
           d="M 1111.0838,1780.892 1438.0322,882.6042" />
        <path
           inkscape:connector-curvature="0"
           id="path43653"
           style="fill:none;stroke:#cacacb;stroke-width:3.71785736;stroke-linecap:butt;stroke-linejoin:bevel;stroke-miterlimit:10;stroke-dasharray:5.57399883, 16.7219965;stroke-dashoffset:0;stroke-opacity:1"
           d="m 1111.0838,1780.892 403.996,-866.37629" />
        <path
           inkscape:connector-curvature="0"
           id="path43655"
           style="fill:none;stroke:#cacacb;stroke-width:3.71785736;stroke-linecap:butt;stroke-linejoin:bevel;stroke-miterlimit:10;stroke-dasharray:5.57399883, 16.7219965;stroke-dashoffset:0;stroke-opacity:1"
           d="M 1111.0838,1780.892 1659.3869,997.82916" />
        <path
           inkscape:connector-curvature="0"
           id="path43657"
           style="fill:none;stroke:#cacacb;stroke-width:3.71785736;stroke-linecap:butt;stroke-linejoin:bevel;stroke-miterlimit:10;stroke-dasharray:5.57399883, 16.7219965;stroke-dashoffset:0;stroke-opacity:1"
           d="M 1111.0838,1780.892 1725.554,1048.5964" />
        <path
           inkscape:connector-curvature="0"
           id="path43659"
           style="fill:none;stroke:#cacacb;stroke-width:3.71785736;stroke-linecap:butt;stroke-linejoin:bevel;stroke-miterlimit:10;stroke-dasharray:5.57399883, 16.7219965;stroke-dashoffset:0;stroke-opacity:1"
           d="m 1111.0838,1780.892 675.9551,-675.9521" />
        <path
           inkscape:connector-curvature="0"
           id="path43661"
           style="fill:none;stroke:#cacacb;stroke-width:3.71785736;stroke-linecap:butt;stroke-linejoin:bevel;stroke-miterlimit:10;stroke-dasharray:5.57399883, 16.7219965;stroke-dashoffset:0;stroke-opacity:1"
           d="m 1111.0838,1780.892 783.0651,-548.3046" />
        <path
           inkscape:connector-curvature="0"
           id="path43663"
           style="fill:none;stroke:#cacacb;stroke-width:3.71785736;stroke-linecap:butt;stroke-linejoin:bevel;stroke-miterlimit:10;stroke-dasharray:5.57399883, 16.7219965;stroke-dashoffset:0;stroke-opacity:1"
           d="m 1111.0838,1780.892 827.8651,-477.9704" />
        <path
           inkscape:connector-curvature="0"
           id="path43665"
           style="fill:none;stroke:#cacacb;stroke-width:3.71785736;stroke-linecap:butt;stroke-linejoin:bevel;stroke-miterlimit:10;stroke-dasharray:5.57399883, 16.7219965;stroke-dashoffset:0;stroke-opacity:1"
           d="m 1111.0838,1780.892 866.3778,-403.999" />
        <path
           inkscape:connector-curvature="0"
           id="path43667"
           style="fill:none;stroke:#cacacb;stroke-width:3.71785736;stroke-linecap:butt;stroke-linejoin:bevel;stroke-miterlimit:10;stroke-dasharray:5.57399883, 16.7219965;stroke-dashoffset:0;stroke-opacity:1"
           d="m 1111.0838,1780.892 923.3663,-247.4112" />
        <path
           inkscape:connector-curvature="0"
           id="path43669"
           style="fill:none;stroke:#cacacb;stroke-width:3.71785736;stroke-linecap:butt;stroke-linejoin:bevel;stroke-miterlimit:10;stroke-dasharray:5.57399883, 16.7219965;stroke-dashoffset:0;stroke-opacity:1"
           d="m 1111.0838,1780.892 941.4186,-166.0011" />
        <path
           inkscape:connector-curvature="0"
           id="path43671"
           style="fill:none;stroke:#cacacb;stroke-width:3.71785736;stroke-linecap:butt;stroke-linejoin:bevel;stroke-miterlimit:10;stroke-dasharray:5.57399883, 16.7219965;stroke-dashoffset:0;stroke-opacity:1"
           d="m 1111.0838,1780.892 952.2991,-83.3127" />
        <path
           inkscape:connector-curvature="0"
           id="path43673"
           style="fill:none;stroke:#cacacb;stroke-width:3.71785736;stroke-linecap:butt;stroke-linejoin:bevel;stroke-miterlimit:10;stroke-dasharray:5.57399883, 16.7219965;stroke-dashoffset:0;stroke-opacity:1"
           d="m 1111.0838,1780.892 h 955.9408" />
        <path
           inkscape:connector-curvature="0"
           id="path43675"
           style="fill:none;stroke:#dfe0e1;stroke-width:3.71785736;stroke-linecap:butt;stroke-linejoin:round;stroke-miterlimit:10;stroke-dasharray:none;stroke-opacity:1"
           d="m 1111.0838,1780.892 h 955.9408" />
        <path
           inkscape:connector-curvature="0"
           id="path43677"
           style="fill:none;stroke:#dfe0e1;stroke-width:3.71785736;stroke-linecap:butt;stroke-linejoin:round;stroke-miterlimit:10;stroke-dasharray:none;stroke-opacity:1"
           d="m 1111.0838,1780.892 898.2908,326.9485" />
        <path
           inkscape:connector-curvature="0"
           id="path43679"
           style="fill:none;stroke:#dfe0e1;stroke-width:3.71785736;stroke-linecap:butt;stroke-linejoin:round;stroke-miterlimit:10;stroke-dasharray:none;stroke-opacity:1"
           d="m 1111.0838,1780.892 732.2971,614.4702" />
        <path
           inkscape:connector-curvature="0"
           id="path43681"
           style="fill:none;stroke:#dfe0e1;stroke-width:3.71785736;stroke-linecap:butt;stroke-linejoin:round;stroke-miterlimit:10;stroke-dasharray:none;stroke-opacity:1"
           d="m 1111.0838,1780.892 477.9741,827.8652" />
        <path
           inkscape:connector-curvature="0"
           id="path43683"
           style="fill:none;stroke:#dfe0e1;stroke-width:3.71785736;stroke-linecap:butt;stroke-linejoin:round;stroke-miterlimit:10;stroke-dasharray:none;stroke-opacity:1"
           d="m 1111.0838,1780.892 166.0011,941.4187" />
        <path
           inkscape:connector-curvature="0"
           id="path43685"
           style="fill:none;stroke:#dfe0e1;stroke-width:3.71785736;stroke-linecap:butt;stroke-linejoin:round;stroke-miterlimit:10;stroke-dasharray:none;stroke-opacity:1"
           d="M 1111.0838,1780.892 945.08265,2722.3107" />
        <path
           inkscape:connector-curvature="0"
           id="path43687"
           style="fill:none;stroke:#dfe0e1;stroke-width:3.71785736;stroke-linecap:butt;stroke-linejoin:round;stroke-miterlimit:10;stroke-dasharray:none;stroke-opacity:1"
           d="M 1111.0838,1780.892 633.11337,2608.7572" />
        <path
           inkscape:connector-curvature="0"
           id="path43689"
           style="fill:none;stroke:#dfe0e1;stroke-width:3.71785736;stroke-linecap:butt;stroke-linejoin:round;stroke-miterlimit:10;stroke-dasharray:none;stroke-opacity:1"
           d="M 1111.0838,1780.892 378.78815,2395.3622" />
        <path
           inkscape:connector-curvature="0"
           id="path43691"
           style="fill:none;stroke:#dfe0e1;stroke-width:3.71785736;stroke-linecap:butt;stroke-linejoin:round;stroke-miterlimit:10;stroke-dasharray:none;stroke-opacity:1"
           d="M 1111.0838,1780.892 212.79595,2107.8405" />
        <path
           inkscape:connector-curvature="0"
           id="path43693"
           style="fill:none;stroke:#dfe0e1;stroke-width:3.71785736;stroke-linecap:butt;stroke-linejoin:round;stroke-miterlimit:10;stroke-dasharray:none;stroke-opacity:1"
           d="M 1111.0838,1780.892 H 155.14297" />
        <path
           inkscape:connector-curvature="0"
           id="path43695"
           style="fill:none;stroke:#dfe0e1;stroke-width:3.71785736;stroke-linecap:butt;stroke-linejoin:round;stroke-miterlimit:10;stroke-dasharray:none;stroke-opacity:1"
           d="M 1111.0838,1780.892 212.79595,1453.9421" />
        <path
           inkscape:connector-curvature="0"
           id="path43697"
           style="fill:none;stroke:#dfe0e1;stroke-width:3.71785736;stroke-linecap:butt;stroke-linejoin:round;stroke-miterlimit:10;stroke-dasharray:none;stroke-opacity:1"
           d="M 1111.0838,1780.892 378.78815,1166.4255" />
        <path
           inkscape:connector-curvature="0"
           id="path43699"
           style="fill:none;stroke:#dfe0e1;stroke-width:3.71785736;stroke-linecap:butt;stroke-linejoin:round;stroke-miterlimit:10;stroke-dasharray:none;stroke-opacity:1"
           d="M 1111.0838,1780.892 633.11337,953.02536" />
        <path
           inkscape:connector-curvature="0"
           id="path43701"
           style="fill:none;stroke:#dfe0e1;stroke-width:3.71785736;stroke-linecap:butt;stroke-linejoin:round;stroke-miterlimit:10;stroke-dasharray:none;stroke-opacity:1"
           d="M 1111.0838,1780.892 945.08265,839.47259" />
        <path
           inkscape:connector-curvature="0"
           id="path43703"
           style="fill:none;stroke:#dfe0e1;stroke-width:3.71785736;stroke-linecap:butt;stroke-linejoin:round;stroke-miterlimit:10;stroke-dasharray:none;stroke-opacity:1"
           d="M 1111.0838,1780.892 1277.0849,839.47259" />
        <path
           inkscape:connector-curvature="0"
           id="path43705"
           style="fill:none;stroke:#dfe0e1;stroke-width:3.71785736;stroke-linecap:butt;stroke-linejoin:round;stroke-miterlimit:10;stroke-dasharray:none;stroke-opacity:1"
           d="M 1111.0838,1780.892 1589.0579,953.02536" />
        <path
           inkscape:connector-curvature="0"
           id="path43707"
           style="fill:none;stroke:#dfe0e1;stroke-width:3.71785736;stroke-linecap:butt;stroke-linejoin:round;stroke-miterlimit:10;stroke-dasharray:none;stroke-opacity:1"
           d="m 1111.0838,1780.892 732.2971,-614.4665" />
        <path
           inkscape:connector-curvature="0"
           id="path43709"
           style="fill:none;stroke:#dfe0e1;stroke-width:3.71785736;stroke-linecap:butt;stroke-linejoin:round;stroke-miterlimit:10;stroke-dasharray:none;stroke-opacity:1"
           d="m 1111.0838,1780.892 898.2908,-326.9499" />
        <path
           inkscape:connector-curvature="0"
           id="path43711"
           style="fill:none;stroke:#cacacb;stroke-width:3.71785736;stroke-linecap:butt;stroke-linejoin:bevel;stroke-miterlimit:10;stroke-dasharray:5.57399883, 16.7219965;stroke-dashoffset:0;stroke-opacity:1"
           d="m 1164.1928,1780.892 -0.1709,-4.2214 -0.498,-4.1916 -0.8398,-4.1396 -1.1519,-4.0579 -1.4864,-3.9613 -1.7911,-3.82 -2.081,-3.6714 -2.3782,-3.4931 -2.6384,-3.2923 -2.8985,-3.0769 -3.1288,-2.8316 -3.3444,-2.5714 -3.5377,-2.304 -3.716,-2.0215 -3.8572,-1.7093 -3.9835,-1.3972 -4.0876,-1.0851 -4.1545,-0.7506 -4.1991,-0.4162 -4.2214,-0.089 -4.2139,0.2527 -4.1842,0.5871 -4.1174,0.9216 -4.043,1.2337 -3.9241,1.5607 -3.7829,1.8654 -3.6268,2.1627 -3.4558,2.4377 -3.233,2.7053 -3.0174,2.9579 -2.7721,3.1883 -2.5046,3.3965 -2.237,3.5822 -1.9398,3.7532 -1.635,3.8869 -1.3229,4.0133 -0.9959,4.1099 -0.6689,4.1693 -0.3344,4.2065 v 4.2214 l 0.3344,4.2065 0.6689,4.1694 0.9959,4.1099 1.3229,4.0132 1.635,3.887 1.9398,3.7531 2.237,3.5823 2.5046,3.3964 2.7721,3.1883 3.0174,2.9579 3.233,2.7053 3.4558,2.4377 3.6268,2.1627 3.7829,1.8654 3.9241,1.5607 4.043,1.2338 4.1174,0.9215 4.1842,0.5872 4.2139,0.2526 4.2214,-0.089 4.1991,-0.4162 4.1545,-0.7507 4.0876,-1.085 3.9835,-1.3973 3.8572,-1.7093 3.716,-2.0215 3.5377,-2.3039 3.3444,-2.5715 3.1288,-2.8316 2.8985,-3.0768 2.6384,-3.2924 2.3782,-3.4931 2.081,-3.6714 1.7911,-3.82 1.4864,-3.9613 1.1519,-4.0578 0.8398,-4.1397 0.498,-4.1916 0.1709,-4.2214" />
        <path
           inkscape:connector-curvature="0"
           id="path43713"
           style="fill:none;stroke:#cacacb;stroke-width:3.71785736;stroke-linecap:butt;stroke-linejoin:bevel;stroke-miterlimit:10;stroke-dasharray:5.57399883, 16.7219965;stroke-dashoffset:0;stroke-opacity:1"
           d="m 1217.3019,1780.892 -0.3419,-8.4427 -1.0033,-8.3833 -1.6648,-8.2793 -2.3262,-8.1232 -2.9505,-7.9076 -3.5822,-7.6475 -4.1694,-7.3428 -4.749,-6.9861 -5.2842,-6.5922 -5.7895,-6.1463 -6.2652,-5.6631 -6.6888,-5.1579 -7.0827,-4.6004 -7.4171,-4.0281 -7.7218,-3.4262 -7.9746,-2.8018 -8.1603,-2.1627 -8.309,-1.4939 -8.4056,-0.8398 -8.4427,-0.1709 -8.4279,0.5054 -8.3684,1.1742 -8.2421,1.8283 -8.0712,2.4823 -7.8556,3.114 -7.5732,3.7308 -7.2611,4.3255 -6.8894,4.8754 -6.4807,5.4179 -6.0274,5.9084 -5.5443,6.3767 -5.024,6.7854 -4.4592,7.1719 -3.8795,7.5063 -3.2701,7.7887 -2.6383,8.0192 -1.9992,8.2049 -1.3378,8.3387 -0.6689,8.4204 v 8.4428 l 0.6689,8.4204 1.3378,8.3387 1.9992,8.205 2.6383,8.0191 3.2701,7.7887 3.8795,7.5063 4.4592,7.1719 5.024,6.7854 5.5443,6.3767 6.0274,5.9084 6.4807,5.418 6.8894,4.8754 7.2611,4.3254 7.5732,3.7308 7.8556,3.114 8.0712,2.4823 8.2421,1.8283 8.3684,1.1743 8.4279,0.5053 8.4427,-0.1709 8.4056,-0.8398 8.309,-1.4938 8.1603,-2.1628 7.9746,-2.8018 7.7218,-3.4262 7.4171,-4.0281 7.0827,-4.6004 6.6888,-5.1578 6.2652,-5.6632 5.7895,-6.1463 5.2842,-6.5922 4.749,-6.986 4.1694,-7.3428 3.5822,-7.6476 2.9505,-7.9076 2.3262,-8.1232 1.6648,-8.2792 1.0033,-8.3833 0.3419,-8.4428" />
        <path
           inkscape:connector-curvature="0"
           id="path43715"
           style="fill:none;stroke:#cacacb;stroke-width:3.71785736;stroke-linecap:butt;stroke-linejoin:bevel;stroke-miterlimit:10;stroke-dasharray:5.57399883, 16.7219965;stroke-dashoffset:0;stroke-opacity:1"
           d="m 1270.4035,1780.892 -0.4979,-12.6567 -1.5162,-12.5824 -2.4971,-12.4188 -3.4782,-12.1811 -4.4369,-11.8614 -5.3659,-11.475 -6.2652,-11.0143 -7.1124,-10.4791 -7.9299,-9.8845 -8.688,-9.2157 -9.3866,-8.5097 -10.0407,-7.7218 -10.6203,-6.9043 -11.1331,-6.0422 -11.5865,-5.143 -11.9507,-4.1991 -12.2405,-3.2403 -12.4634,-2.2519 -12.6121,-1.2635 -12.6642,-0.2526 -12.6492,0.758 -12.5452,1.7614 -12.3595,2.7498 -12.1141,3.716 -11.7723,4.6748 -11.371,5.5963 -10.8804,6.4807 -10.3453,7.3205 -9.7137,8.1232 -9.05214,8.8663 -8.3164,9.5576 -7.52119,10.1893 -6.69623,10.7615 -5.81925,11.252 -4.90512,11.6757 -3.96125,12.0324 -2.9951,12.3148 -2.00664,12.5007 -1.01075,12.6344 v 12.6641 l 1.01075,12.6344 2.00664,12.5006 2.9951,12.3148 3.96125,12.0324 4.90512,11.6757 5.81925,11.252 6.69623,10.7616 7.52119,10.1892 8.3164,9.5576 9.05214,8.8664 9.7137,8.1231 10.3453,7.3206 10.8804,6.4807 11.371,5.5963 11.7723,4.6747 12.1141,3.716 12.3595,2.7498 12.5452,1.7614 12.6492,0.7581 12.6642,-0.2527 12.6121,-1.2635 12.4634,-2.2519 12.2405,-3.2403 11.9507,-4.1991 11.5865,-5.1429 11.1331,-6.0422 10.6203,-6.9044 10.0407,-7.7218 9.3866,-8.5097 8.688,-9.2156 7.9299,-9.8846 7.1124,-10.4791 6.2652,-11.0142 5.3659,-11.475 4.4369,-11.8615 3.4782,-12.1811 2.4971,-12.4188 1.5162,-12.5824 0.4979,-12.6567" />
        <path
           inkscape:connector-curvature="0"
           id="path43717"
           style="fill:none;stroke:#cacacb;stroke-width:3.71785736;stroke-linecap:butt;stroke-linejoin:bevel;stroke-miterlimit:10;stroke-dasharray:5.57399883, 16.7219965;stroke-dashoffset:0;stroke-opacity:1"
           d="m 1323.5126,1780.892 -0.6689,-16.8781 -2.0066,-16.774 -3.3444,-16.551 -4.6376,-16.2464 -5.9159,-15.8153 -7.157,-15.3025 -8.3461,-14.6856 -9.4907,-13.9721 -10.5683,-13.177 -11.5865,-12.2925 -12.5155,-11.3412 -13.385,-10.3008 -14.1654,-9.2082 -14.8417,-8.0563 -15.4437,-6.8523 -15.9342,-5.6037 -16.3281,-4.3106 -16.6254,-3.01 -16.8037,-1.6722 -16.8855,-0.3418 -16.8632,1.0107 -16.7294,2.3411 -16.4916,3.664 -16.1423,4.9645 -15.6964,6.2281 -15.1539,7.4617 -14.5221,8.636 -13.77892,9.7656 -12.96141,10.8284 -12.06213,11.8243 -11.08854,12.7534 -10.0332,13.5782 -8.92583,14.3438 -7.75901,14.9977 -6.54016,15.5775 -5.28415,16.0457 -3.99098,16.4098 -2.67552,16.6775 -1.34519,16.8409 v 16.8855 l 1.34519,16.8409 2.67552,16.6774 3.99098,16.4098 5.28415,16.0457 6.54016,15.5775 7.75901,14.9978 8.92583,14.3437 10.0332,13.5783 11.08854,12.7533 12.06213,11.8243 12.96141,10.8284 13.77892,9.7657 14.5221,8.6359 15.1539,7.4618 15.6964,6.228 16.1423,4.9646 16.4916,3.6639 16.7294,2.3411 16.8632,1.0108 16.8855,-0.3419 16.8037,-1.6722 16.6254,-3.01 16.3281,-4.3105 15.9342,-5.6038 15.4437,-6.8523 14.8417,-8.0488 14.1654,-9.2157 13.385,-10.3007 12.5155,-11.3413 11.5865,-12.2925 10.5683,-13.1769 9.4907,-13.9722 8.3461,-14.6856 7.157,-15.3025 5.9159,-15.8153 4.6376,-16.2463 3.3444,-16.5511 2.0066,-16.774 0.6689,-16.8781" />
        <path
           inkscape:connector-curvature="0"
           id="path43719"
           style="fill:none;stroke:#cacacb;stroke-width:3.71785736;stroke-linecap:butt;stroke-linejoin:bevel;stroke-miterlimit:10;stroke-dasharray:5.57399883, 16.7219965;stroke-dashoffset:0;stroke-opacity:1"
           d="m 1429.7307,1780.892 -1.0108,-25.3208 -3.0099,-25.1499 -5.0092,-24.8377 -6.9638,-24.3621 -8.8663,-23.7304 -10.7393,-22.9574 -12.5229,-22.021 -14.2323,-20.9583 -15.8524,-19.7691 -17.376,-18.4388 -18.7807,-17.0044 -20.0738,-15.4511 -21.2407,-13.8235 -22.2662,-12.077 -23.1656,-10.2711 -23.9087,-8.4055 -24.4885,-6.4807 -24.9343,-4.5076 -25.2093,-2.5142 -25.3357,-0.5024 -25.2837,1.5124 -25.0978,3.5101 -24.7337,5.5042 -24.2135,7.4394 -23.55199,9.3495 -22.73448,11.1851 -21.76833,12.9614 -20.67582,14.6411 -19.4421,16.2463 -18.08949,17.7328 -16.63281,19.1225 -15.0498,20.3711 -13.39246,21.5156 -11.63851,22.5041 -9.81024,23.3588 -7.92994,24.0648 -5.98276,24.6222 -4.01328,25.0161 -2.01407,25.254 v 25.3431 l 2.01407,25.2539 4.01328,25.0161 5.98276,24.6222 7.92994,24.0648 9.81024,23.3588 11.63851,22.5041 13.39246,21.5156 15.0498,20.3711 16.63281,19.1226 18.08949,17.7327 19.4421,16.2464 20.67582,14.641 21.76833,12.9614 22.73448,11.1852 23.55199,9.3494 24.2135,7.4394 24.7337,5.5072 25.0978,3.5079 25.2837,1.5087 25.3357,-0.498 25.2093,-2.512 24.9343,-4.5112 24.4885,-6.4807 23.9087,-8.4056 23.1656,-10.271 22.2662,-12.077 21.2407,-13.8236 20.0738,-15.4511 18.7807,-17.0044 17.376,-18.4388 15.8524,-19.7691 14.2323,-20.9582 12.5229,-22.021 10.7393,-22.9575 8.8663,-23.7304 6.9638,-24.362 5.0092,-24.8378 3.0099,-25.1499 1.0108,-25.3208" />
        <path
           inkscape:connector-curvature="0"
           id="path43721"
           style="fill:none;stroke:#cacacb;stroke-width:3.71785736;stroke-linecap:butt;stroke-linejoin:bevel;stroke-miterlimit:10;stroke-dasharray:5.57399883, 16.7219965;stroke-dashoffset:0;stroke-opacity:1"
           d="m 1482.8398,1780.892 -1.1743,-29.5347 -3.5228,-29.349 -5.8341,-28.9774 -8.1232,-28.4199 -10.3527,-27.6917 -12.5229,-26.7775 -14.6188,-25.6924 -16.6031,-24.4587 -18.4908,-23.054 -20.267,-21.5157 -21.917,-19.836 -23.4182,-18.0374 -24.7857,-16.1126 -25.9749,-14.0978 -27.0227,-11.9841 -27.8923,-9.8035 -28.5761,-7.5569 -29.0814,-5.2574 -29.4158,-2.9378 -29.5571,-0.5864 -29.505,1.7621 -29.2672,4.1017 -28.8585,6.4101 -28.25642,8.6925 -27.46867,10.9012 -26.5248,13.0492 -25.40257,15.1181 -24.12427,17.0862 -22.68246,18.9516 -21.10687,20.6907 -19.39752,22.3108 -17.56924,23.7676 -15.61463,25.0978 -13.57826,26.2573 -11.44528,27.2531 -9.24541,28.0781 -6.98608,28.7247 -4.68067,29.178 -2.35446,29.4679 v 29.5645 l 2.35446,29.4678 4.68067,29.1781 6.98608,28.7246 9.24541,28.0781 11.44528,27.2532 13.57826,26.2572 15.61463,25.0979 17.56924,23.7675 19.39752,22.3109 21.10687,20.6906 22.68246,18.9516 24.12427,17.0862 25.40257,15.1167 26.5248,13.0506 27.46867,10.9027 28.25642,8.688 28.8585,6.4138 29.2672,4.1025 29.505,1.7614 29.5571,-0.5871 29.4158,-2.9357 29.0814,-5.2544 28.5761,-7.5583 27.8923,-9.8103 27.0227,-11.9804 25.9749,-14.0985 24.7857,-16.1125 23.4182,-18.0375 21.917,-19.836 20.267,-21.5156 18.4908,-23.0541 16.6031,-24.4587 14.6188,-25.6924 12.5229,-26.7775 10.3527,-27.6916 8.1232,-28.42 5.8341,-28.9774 3.5228,-29.3489 1.1743,-29.5348" />
        <path
           inkscape:connector-curvature="0"
           id="path43723"
           style="fill:none;stroke:#cacacb;stroke-width:3.71785736;stroke-linecap:butt;stroke-linejoin:bevel;stroke-miterlimit:10;stroke-dasharray:5.57399883, 16.7219965;stroke-dashoffset:0;stroke-opacity:1"
           d="m 1535.9414,1780.892 -1.3378,-33.7561 -4.0207,-33.5406 -6.6739,-33.117 -9.2826,-32.4853 -11.8392,-31.638 -14.3066,-30.605 -16.6997,-29.3638 -18.9738,-27.9443 -21.1366,-26.3539 -23.1656,-24.5925 -25.0384,-22.6705 -26.7775,-20.6067 -28.3159,-18.4173 -29.6908,-16.1155 -30.88,-13.6942 -31.8758,-11.203 -32.6562,-8.6338 -33.2434,-6.0154 -33.6149,-3.3556 -33.771,-0.6681 -33.7264,2.0118 -33.4514,4.6859 -32.9832,7.3302 -32.29206,9.9291 -31.39276,12.4628 -30.31512,14.916 -29.02939,17.2742 -27.56528,19.532 -25.93024,21.6546 -24.12427,23.6457 -22.16222,25.4917 -20.07383,27.1714 -17.85537,28.6801 -15.51133,30.0104 -13.08403,31.1475 -10.56756,32.0839 -7.98048,32.8272 -5.35401,33.3548 -2.68518,33.6744 v 33.7858 l 2.68518,33.6744 5.35401,33.3548 7.98048,32.8272 10.56756,32.0839 13.08403,31.1475 15.51133,30.0104 17.85537,28.6801 20.07383,27.1714 22.16222,25.4918 24.12427,23.6486 25.93024,21.6494 27.56528,19.5313 29.02939,17.2794 30.31512,14.916 31.39276,12.4635 32.29206,9.9291 32.9832,7.328 33.4514,4.6821 33.7264,2.0141 33.771,-0.6689 33.6149,-3.3518 33.2434,-6.0125 32.6562,-8.636 31.8758,-11.2074 30.88,-13.6898 29.6908,-16.12 28.3159,-18.4165 26.7775,-20.6089 25.0384,-22.6676 23.1656,-24.5925 21.1366,-26.3539 18.9738,-27.9443 16.6997,-29.3638 14.3066,-30.605 11.8392,-31.638 9.2826,-32.4853 6.6739,-33.1169 4.0207,-33.5407 1.3378,-33.7561" />
        <path
           inkscape:connector-curvature="0"
           id="path43725"
           style="fill:none;stroke:#cacacb;stroke-width:3.71785736;stroke-linecap:butt;stroke-linejoin:bevel;stroke-miterlimit:10;stroke-dasharray:5.57399883, 16.7219965;stroke-dashoffset:0;stroke-opacity:1"
           d="m 1589.0579,1780.892 -1.5161,-37.9775 -4.5261,-37.7323 -7.4989,-37.2566 -10.4494,-36.5357 -13.3107,-35.5992 -16.1052,-34.4325 -18.7806,-33.0352 -21.3521,-31.4448 -23.775,-29.6396 -26.0566,-27.6641 -28.1821,-25.5066 -30.1145,-23.1871 -31.8535,-20.7197 -33.4069,-18.1214 -34.7371,-15.4125 -35.8594,-12.6024 -36.7364,-9.7144 -37.3978,-6.7668 -37.8215,-3.774 -37.9998,-0.7521 -37.9329,2.2615 -37.6356,5.2723 -37.10056,8.2503 -36.3276,11.1658 -35.32429,14.019 -34.09801,16.7829 -32.6562,19.4362 -31.02116,21.9712 -29.16317,24.3658 -27.14165,26.6043 -24.93882,28.6742 -22.58064,30.5752 -20.08052,32.2623 -17.45925,33.7561 -14.7161,35.0419 -11.88822,36.0972 -8.98529,36.9222 -6.0214,37.5316 -3.01293,37.8809 v 38.0072 l 3.01293,37.8884 6.0214,37.5241 8.98529,36.9222 11.88822,36.0972 14.7161,35.0419 17.45925,33.7561 20.08052,32.2623 22.58064,30.5753 24.93882,28.6726 27.14165,26.6066 29.16317,24.3621 31.02116,21.9764 32.6562,19.4347 34.09801,16.7814 35.32429,14.0168 36.3276,11.1702 37.10056,8.2496 37.6356,5.2693 37.9329,2.2667 37.9998,-0.7581 37.8215,-3.768 37.3978,-6.7705 36.7364,-9.7136 35.8594,-12.6047 34.7371,-15.4065 33.4069,-18.1267 31.8535,-20.7204 30.1145,-23.1878 28.1821,-25.5067 26.0566,-27.6619 23.775,-29.6388 21.3521,-31.4448 18.7806,-33.0352 16.1052,-34.4324 13.3107,-35.5993 10.4494,-36.5357 7.4989,-37.2566 4.5261,-37.7323 1.5161,-37.9775" />
        <path
           inkscape:connector-curvature="0"
           id="path43727"
           style="fill:none;stroke:#cacacb;stroke-width:3.71785736;stroke-linecap:butt;stroke-linejoin:bevel;stroke-miterlimit:10;stroke-dasharray:5.57399883, 16.7219965;stroke-dashoffset:0;stroke-opacity:1"
           d="m 1695.276,1780.892 -1.858,-46.4128 -5.5294,-46.123 -9.1711,-45.5284 -12.7682,-44.6663 -16.2686,-43.507 -19.6725,-42.0799 -22.9574,-40.3781 -26.0938,-38.4308 -29.0665,-36.231 -31.8536,-33.8127 -34.4324,-31.1683 -36.8107,-28.3404 -38.9363,-25.3268 -40.8314,-22.151 -42.459,-18.835 -43.819,-15.4072 -44.9042,-11.8704 -45.7142,-8.2681 -46.2196,-4.6079 -46.4425,-0.926 -46.3683,2.7699 -45.9966,6.4451 -45.35008,10.0763 -44.39876,13.651 -43.17248,17.1338 -41.67864,20.5138 -39.90983,23.7564 -37.9032,26.8481 -35.65278,29.777 -33.17124,32.518 -30.47937,35.0493 -27.60021,37.3636 -24.54863,39.4357 -21.33207,41.2624 -17.98766,42.8232 -14.5303,44.1238 -10.98301,45.1271 -7.35619,45.8703 -3.68999,46.3013 v 46.45 l 3.68999,46.3014 7.35619,45.8703 10.98301,45.127 14.5303,44.1238 17.98766,42.8232 21.33207,41.2625 24.54863,39.4341 27.60021,37.3681 30.47937,35.0493 33.17124,32.515 35.65278,29.78 37.9032,26.8444 39.90983,23.7601 41.67864,20.5123 43.17248,17.1308 44.39876,13.6526 45.35008,10.0778 45.9966,6.4435 46.3683,2.7721 46.4425,-0.929 46.2196,-4.6078 45.7142,-8.2644 44.9042,-11.8763 43.819,-15.4065 42.459,-18.8327 40.8314,-22.1548 38.9363,-25.3208 36.8107,-28.3457 34.4324,-31.1624 31.8536,-33.8155 29.0665,-36.231 26.0938,-38.4309 22.9574,-40.378 19.6725,-42.08 16.2686,-43.5069 12.7682,-44.6664 9.1711,-45.5284 5.5294,-46.123 1.858,-46.4128" />
        <path
           inkscape:connector-curvature="0"
           id="path43729"
           style="fill:none;stroke:#cacacb;stroke-width:3.71785736;stroke-linecap:butt;stroke-linejoin:bevel;stroke-miterlimit:10;stroke-dasharray:5.57399883, 16.7219965;stroke-dashoffset:0;stroke-opacity:1"
           d="m 1748.3776,1780.892 -2.014,-50.6342 -6.0274,-50.3072 -10.0109,-49.6755 -13.9276,-48.7241 -17.755,-47.4682 -21.4636,-45.9 -25.0458,-44.0502 -28.4646,-41.921 -31.7049,-39.5263 -34.7446,-36.8873 -37.5762,-34.0073 -40.1476,-30.9149 -42.4813,-27.6232 -44.54,-24.1629 -46.3162,-20.551 -47.8026,-16.8067 -48.9918,-12.9473 -49.8687,-9.0262 -50.4187,-5.0285 -50.6639,-1.007 -50.5822,3.0219 -50.18083,7.0284 -49.46738,10.9971 -48.43433,14.8878 -47.10401,18.6959 -45.46153,22.3741 -43.54408,25.9131 -41.35238,29.2955 -38.89016,32.486 -36.18417,35.4737 -33.25523,38.2368 -30.10553,40.7571 -26.77824,43.0216 -23.27776,45.0127 -19.61899,46.7175 -15.85097,48.1296 -11.97815,49.237 -8.0273,50.0322 -4.02666,50.5153 v 50.6714 l 4.02666,50.5153 8.0273,50.0322 11.97815,49.237 15.85097,48.1296 19.61899,46.7176 23.27776,45.0156 26.77824,43.0164 30.10553,40.7571 33.25523,38.2376 36.18417,35.4729 38.89016,32.4853 41.35238,29.2969 43.54408,25.9154 45.46153,22.3703 47.10401,18.6989 48.43433,14.8863 49.46738,10.9994 50.18083,7.0306 50.5822,3.0174 50.6639,-1.0033 50.4187,-5.0314 49.8687,-9.0225 48.9918,-12.954 47.8026,-16.8037 46.3162,-20.5495 44.54,-24.1614 42.4813,-27.6248 40.1476,-30.9171 37.5762,-34.0088 34.7446,-36.885 31.7049,-39.5234 28.4646,-41.9239 25.0458,-44.0494 21.4636,-45.9001 17.755,-47.4681 13.9276,-48.7242 10.0109,-49.6755 6.0274,-50.3072 2.014,-50.6342" />
        <path
           inkscape:connector-curvature="0"
           id="path43731"
           style="fill:none;stroke:#cacacb;stroke-width:3.71785736;stroke-linecap:butt;stroke-linejoin:bevel;stroke-miterlimit:10;stroke-dasharray:5.57399883, 16.7219965;stroke-dashoffset:0;stroke-opacity:1"
           d="m 1801.4867,1780.892 -2.185,-54.8556 -6.5327,-54.4988 -10.8433,-53.8151 -15.087,-52.7821 -19.2266,-51.422 -23.2547,-49.726 -27.1342,-47.7246 -30.8354,-45.4102 -34.3507,-42.8239 -37.643,-39.9559 -40.6977,-36.8434 -43.4995,-33.4908 -46.0189,-29.9309 -48.2485,-26.1748 -50.1809,-22.264 -51.7861,-18.2054 -53.0794,-14.0279 -54.0157,-9.7724 -54.6252,-5.4521 -54.8853,-1.091 -54.7962,3.2716 -54.36503,7.6207 -53.59214,11.9113 -52.46991,16.1297 -51.0281,20.2522 -49.25185,24.2357 -47.17164,28.0759 -44.79786,31.7309 -42.12754,35.195 -39.20379,38.4345 -36.02215,41.4186 -32.61904,44.1505 -29.00784,46.6098 -25.21082,48.7665 -21.25998,50.6045 -17.1746,52.1429 -12.97404,53.3394 -8.69767,54.2016 -4.35812,54.7292 v 54.8928 l 4.35812,54.7292 8.69767,54.2016 12.97404,53.3394 17.1746,52.1429 21.25998,50.6045 25.21082,48.7688 29.00784,46.6061 32.61904,44.1535 36.02215,41.4185 39.20379,38.4308 42.12754,35.198 44.79786,31.7272 47.17164,28.0781 49.25185,24.2357 51.0281,20.2522 52.46991,16.1275 53.59214,11.9135 54.36503,7.6252 54.7962,3.2701 54.8853,-1.0925 54.6252,-5.4551 54.0157,-9.7731 53.0794,-14.0242 51.7861,-18.2084 50.1809,-22.2588 48.2485,-26.1755 46.0189,-29.9361 43.4995,-33.4886 40.6977,-36.8404 37.643,-39.9544 34.3507,-42.8306 30.8354,-45.4095 27.1342,-47.7209 23.2547,-49.7275 19.2266,-51.422 15.087,-52.7821 10.8433,-53.8151 6.5327,-54.4988 2.185,-54.8556" />
        <path
           inkscape:connector-curvature="0"
           id="path43733"
           style="fill:none;stroke:#cacacb;stroke-width:3.71785736;stroke-linecap:butt;stroke-linejoin:bevel;stroke-miterlimit:10;stroke-dasharray:5.57399883, 16.7219965;stroke-dashoffset:0;stroke-opacity:1"
           d="m 1854.5958,1780.892 -2.356,-59.0695 -7.0307,-58.7054 -11.6831,-57.9547 -16.2463,-56.8399 -20.7056,-55.3684 -25.0458,-53.5535 -29.2152,-51.3915 -33.2136,-48.9115 -36.989,-46.1133 -40.5342,-43.0328 -43.8339,-39.6742 -46.8439,-36.0712 -49.5565,-32.2281 -51.9646,-28.1918 -54.038,-23.9742 -55.7772,-19.6048 -57.152,-15.1108 -58.1703,-10.5237 -58.8317,-5.8705 -59.1067,-1.1758 -59.01,3.5273 -58.54933,8.2019 -57.70947,12.8314 -56.50548,17.3663 -54.95963,21.8055 -53.04217,26.1049 -50.7992,30.2393 -48.23813,34.1723 -45.37309,37.9032 -42.21747,41.3814 -38.79429,44.615 -35.12734,47.5477 -31.24115,50.192 -27.1528,52.5115 -22.8965,54.5041 -18.49007,56.1487 -13.9729,57.4494 -9.36581,58.3709 -4.69107,58.9358 v 59.1141 l 4.69107,58.9357 9.36581,58.3709 13.9729,57.4494 18.49007,56.1487 22.8965,54.5063 27.1528,52.5071 31.24115,50.1957 35.12734,47.5499 38.79429,44.6143 42.21747,41.3814 45.37309,37.9032 48.23813,34.1723 50.7992,30.2334 53.04217,26.1086 54.95963,21.8055 56.50548,17.3685 57.70947,12.8277 58.54933,8.2049 59.01,3.5228 59.1067,-1.1743 58.8317,-5.8713 58.1703,-10.5237 57.152,-15.1092 55.7772,-19.6056 54.038,-23.9757 51.9646,-28.1895 49.5565,-32.2252 46.8439,-36.0749 43.8339,-39.672 40.5342,-43.0313 36.989,-46.1155 33.2136,-48.91 29.2152,-51.3923 25.0458,-53.555 20.7056,-55.3684 16.2463,-56.8399 11.6831,-57.9547 7.0307,-58.7054 2.356,-59.0695" />
        <path
           inkscape:connector-curvature="0"
           id="path43735"
           style="fill:none;stroke:#cacacb;stroke-width:3.71785736;stroke-linecap:butt;stroke-linejoin:bevel;stroke-miterlimit:10;stroke-dasharray:5.57399883, 16.7219965;stroke-dashoffset:0;stroke-opacity:1"
           d="m 1960.8064,1780.892 -2.6829,-67.5123 -8.0414,-67.0812 -13.3405,-66.2339 -18.5725,-64.9631 -23.6635,-63.2813 -28.6206,-61.204 -33.3994,-58.7388 -37.9478,-55.8938 -42.2807,-52.7033 -46.3236,-49.179 -50.0991,-45.3382 -53.5327,-41.2215 -56.6393,-36.8375 -59.3891,-32.2192 -61.7599,-27.39954 -63.7368,-22.40301 -65.3198,-17.2742 -66.4867,-12.02125 -67.2298,-6.70664 -67.5495,-1.34371 -67.4454,4.02369 -66.91023,9.37695 -65.95156,14.65739 -64.5915,19.85458 -62.79295,24.92324 -60.62207,29.8328 -58.05951,34.5528 -55.1328,39.0618 -51.85008,43.3145 -48.24705,47.298 -44.33633,50.9783 -40.15062,54.3464 -35.69961,57.3572 -31.03156,60.0194 -26.16881,62.292 -21.13141,64.1679 -15.97062,65.6543 -10.70059,66.7096 -5.36813,67.3487 v 67.5718 l 5.36813,67.3487 10.70059,66.7097 15.97062,65.6542 21.13141,64.1679 26.16881,62.295 31.03156,60.0134 35.69961,57.3602 40.15062,54.3427 44.33633,50.9836 48.24705,47.2972 51.85008,43.3137 55.1328,39.0626 58.05951,34.5513 60.62207,29.8321 62.79295,24.9269 64.5915,19.8509 65.95156,14.6559 66.91023,9.3791 67.4454,4.0282 67.5495,-1.3452 67.2298,-6.7111 66.4867,-12.0175 65.3198,-17.272 63.7368,-22.4075 61.7599,-27.4018 59.3891,-32.2177 56.6393,-36.833 53.5327,-41.2253 50.0991,-45.3351 46.3236,-49.1776 42.2807,-52.7077 37.9478,-55.8961 33.3994,-58.7351 28.6206,-61.2025 23.6635,-63.2834 18.5725,-64.9631 13.3405,-66.234 8.0414,-67.0812 2.6829,-67.5123" />
        <path
           inkscape:connector-curvature="0"
           id="path43737"
           style="fill:none;stroke:#cacacb;stroke-width:3.71785736;stroke-linecap:butt;stroke-linejoin:bevel;stroke-miterlimit:10;stroke-dasharray:5.57399883, 16.7219965;stroke-dashoffset:0;stroke-opacity:1"
           d="m 2013.9155,1780.892 -2.8539,-71.7336 -8.5468,-71.2729 -14.1802,-70.3736 -19.7246,-69.021 -25.1424,-67.2395 -30.4117,-65.027 -35.4804,-62.4057 -40.326,-59.3891 -44.919,-55.9987 -49.2296,-52.2558 -53.2205,-48.175 -56.8771,-43.796 -60.1769,-39.1347 -63.0977,-34.23623 -65.6245,-29.11263 -67.7204,-23.79949 -69.4,-18.35109 -70.6486,-12.77932 -71.4289,-7.12431 -71.7708,-1.42843 -71.6593,4.28232 -71.09454,9.95442 -70.07631,15.57821 -68.61964,21.09424 -66.72448,26.48244 -64.40793,31.69376 -61.68856,36.71551 -58.57604,41.4974 -55.09266,46.0263 -51.2637,50.253 -47.11143,54.1688 -42.65299,57.7348 -37.93812,60.9453 -32.9676,63.7673 -27.80311,66.1849 -22.45281,68.1879 -16.96874,69.7567 -11.36872,70.8715 -5.70183,71.5702 v 71.7782 l 5.70183,71.5702 11.36872,70.8789 16.96874,69.7494 22.45281,68.1885 27.80311,66.182 32.9676,63.7665 37.93812,60.9499 42.65299,57.7317 47.11143,54.1719 51.2637,50.2551 55.09266,46.0264 58.57604,41.4928 61.68856,36.7141 64.40793,31.6975 66.72448,26.4802 68.61964,21.092 70.07631,15.5775 71.09454,9.9589 71.6593,4.2808 71.7708,-1.427 71.4289,-7.1198 70.6486,-12.7831 69.4,-18.3496 67.7204,-23.8046 65.6245,-29.1112 63.0977,-34.2392 60.1769,-39.1295 56.8771,-43.7967 53.2205,-48.1743 49.2296,-52.2543 44.919,-56.0001 40.326,-59.3891 35.4804,-62.4065 30.4117,-65.03 25.1424,-67.2373 19.7246,-69.021 14.1802,-70.3736 8.5468,-71.2728 2.8539,-71.7337" />
        <path
           inkscape:connector-curvature="0"
           id="path43739"
           style="fill:none;stroke:#cacacb;stroke-width:3.71785736;stroke-linecap:butt;stroke-linejoin:bevel;stroke-miterlimit:10;stroke-dasharray:5.57399883, 16.7219965;stroke-dashoffset:0;stroke-opacity:1"
           d="m 2067.0246,1780.892 -3.0249,-75.955 -9.0447,-75.4645 -15.0126,-74.5132 -20.884,-73.0863 -26.6288,-71.1904 -32.2029,-68.853 -37.5613,-66.0757 -42.7042,-62.8814 -47.5574,-59.2962 -52.1206,-55.3223 -56.3494,-51.0102 -60.2289,-46.372 -63.722,-41.44229 -66.8062,-36.24214 -69.4818,-30.82273 -71.7113,-25.2138 -73.4802,-19.42427 -74.7956,-13.52921 -75.6355,-7.54496 -75.9922,-1.51241 -75.8732,4.53203 -75.27874,10.54675 -74.20107,16.49235 -72.65522,22.33687 -70.64783,28.03572 -68.1975,33.56291 -65.31761,38.87307 -62.02226,43.93871 -58.33227,48.7286 -54.27662,53.2087 -49.88506,57.3572 -45.16351,61.1334 -40.16178,64.5313 -34.91627,67.5175 -29.43443,70.0815 -23.77348,72.1914 -17.96463,73.8592 -12.04206,75.0483 -6.03553,75.7693 v 76.0145 l 6.03553,75.7692 12.04206,75.0483 17.96463,73.8592 23.77348,72.1944 29.43443,70.0763 34.91627,67.5197 40.16178,64.5321 45.16351,61.1356 49.88506,57.3527 54.27662,53.2132 58.33227,48.7241 62.02226,43.938 65.31761,38.8768 68.1975,33.5629 70.64783,28.0335 72.65522,22.3406 74.20107,16.4916 75.27874,10.546 75.8732,4.5335 75.9922,-1.5161 75.6355,-7.5435 74.7956,-13.5262 73.4802,-19.4273 71.7113,-25.2093 69.4818,-30.8279 66.8062,-36.2459 63.722,-41.4408 60.2289,-46.3683 56.3494,-51.0132 52.1206,-55.3238 47.5574,-59.2925 42.7042,-62.8821 37.5613,-66.0779 32.2029,-68.85 26.6288,-71.1912 20.884,-73.0862 15.0126,-74.5133 9.0447,-75.4645 3.0249,-75.955" />
        <path
           inkscape:connector-curvature="0"
           id="path43741"
           style="fill:none;stroke:#dfe0e1;stroke-width:3.71785736;stroke-linecap:butt;stroke-linejoin:round;stroke-miterlimit:10;stroke-dasharray:none;stroke-opacity:1"
           d="m 1111.0838,1780.892 v 0 0 0 0 0 0 0 0 0 0 0 0 0 0 0 0 0 0 0 0 0 0 0 0 0 0 0 0 0 0 0 0 0 0 0 0 0 0 0 0 0 0 0 0 0 0 0 0 0 0 0 0 0 0 0 0 0 0 0 0 0 0 0 0 0 0 0 0 0 0 0 0 0 0 0 0 0 0 0" />
        <path
           inkscape:connector-curvature="0"
           id="path43743"
           style="fill:none;stroke:#dfe0e1;stroke-width:3.71785736;stroke-linecap:butt;stroke-linejoin:round;stroke-miterlimit:10;stroke-dasharray:none;stroke-opacity:1"
           d="m 1376.6216,1780.892 -0.8398,-21.0994 -2.512,-20.9583 -4.1693,-20.6981 -5.8044,-20.3042 -7.3949,-19.7765 -8.9407,-19.1226 -10.4345,-18.357 -11.8615,-17.4652 -13.2141,-16.4693 -14.4775,-15.3694 -15.6518,-14.1728 -16.7294,-12.8797 -17.703,-11.5121 -18.5577,-10.063 -19.3009,-8.5691 -19.9178,-7.0009 -20.4082,-5.3956 -20.7799,-3.7606 -21.0103,-2.0958 -21.1069,-0.4162 -21.0771,1.256 -20.9136,2.9282 -20.609,4.5855 -20.1779,6.2057 -19.6279,7.7888 -18.94412,9.3197 -18.14151,10.7987 -17.22737,12.2108 -16.20176,13.5262 -15.07952,14.7823 -13.86068,15.9342 -12.54521,16.9821 -11.15543,17.926 -9.69876,18.7509 -8.1752,19.4718 -6.60705,20.0516 -4.98687,20.5197 -3.3444,20.8468 -1.67963,21.0474 v 21.1069 l 1.67963,21.0474 3.3444,20.8467 4.98687,20.5198 6.60705,20.0515 8.1752,19.4718 9.69876,18.751 11.15543,17.926 12.54521,16.9821 13.86068,15.9342 15.07952,14.7822 16.20176,13.5263 17.22737,12.2107 18.14151,10.7987 18.94412,9.3197 19.6279,7.7888 20.1779,6.2057 20.609,4.5855 20.9136,2.9283 21.0771,1.256 21.1069,-0.4162 21.0103,-2.0959 20.7799,-3.7605 20.4082,-5.3957 19.9178,-7.0009 19.3009,-8.5691 18.5577,-10.0629 17.703,-11.5122 16.7294,-12.8797 15.6518,-14.1728 14.4775,-15.3694 13.2141,-16.4693 11.8615,-17.4652 10.4345,-18.357 8.9407,-19.1225 7.3949,-19.7766 5.8044,-20.3042 4.1693,-20.6981 2.512,-20.9582 0.8398,-21.0995" />
        <path
           inkscape:connector-curvature="0"
           id="path43745"
           style="fill:none;stroke:#dfe0e1;stroke-width:3.71785736;stroke-linecap:butt;stroke-linejoin:round;stroke-miterlimit:10;stroke-dasharray:none;stroke-opacity:1"
           d="m 1642.1669,1780.892 -1.6796,-42.1914 -5.0315,-41.9314 -8.3387,-41.3962 -11.6013,-40.601 -14.7971,-39.5457 -17.8888,-38.2599 -20.8691,-36.7066 -23.7229,-34.9342 -26.4208,-32.9423 -28.9625,-30.735 -31.3036,-28.3375 -33.4588,-25.7623 -35.3986,-23.0221 -37.1154,-20.1385 -38.5944,-17.1225 -39.8429,-14.0019 -40.824,-10.7972 -41.5523,-7.513 -42.0205,-4.1924 -42.2138,-0.8413 -42.1617,2.5194 -41.8124,5.8557 -41.22532,9.1651 -40.36318,12.4078 -39.25582,15.573 -37.88089,18.6461 -36.29045,21.5996 -34.45474,24.4067 -32.41095,27.074 -30.15385,29.5601 -27.70723,31.8647 -25.09489,33.9649 -22.31309,35.852 -19.39305,37.5093 -16.35337,38.9288 -13.20889,40.1105 -9.98415,41.0321 -6.6888,41.6935 -3.35034,42.0948 v 42.2286 l 3.35034,42.0949 6.6888,41.6935 9.98415,41.032 13.20889,40.1105 16.35337,38.9288 19.39305,37.5093 22.31309,35.852 25.09489,33.9642 27.70723,31.8684 30.15385,29.5571 32.41095,27.0748 34.45474,24.4066 36.29045,21.5974 37.88089,18.6469 39.25582,15.5701 40.36318,12.4114 41.22532,9.1636 41.8124,5.8565 42.1617,2.5194 42.2138,-0.8398 42.0205,-4.1917 41.5523,-7.5137 40.824,-10.7987 39.8429,-14.0019 38.5944,-17.1233 37.1154,-20.1407 35.3986,-23.0169 33.4588,-25.7668 31.3036,-28.3307 28.9625,-30.7388 26.4208,-32.9386 23.7229,-34.9378 20.8691,-36.7067 17.8888,-38.2599 14.7971,-39.5457 11.6013,-40.601 8.3387,-41.3962 5.0315,-41.9313 1.6796,-42.1915" />
        <path
           inkscape:connector-curvature="0"
           id="path43747"
           style="fill:none;stroke:#dfe0e1;stroke-width:3.71785736;stroke-linecap:butt;stroke-linejoin:round;stroke-miterlimit:10;stroke-dasharray:none;stroke-opacity:1"
           d="m 1907.7048,1780.892 -2.5194,-63.2909 -7.5435,-62.897 -12.5081,-62.0943 -17.4057,-60.8978 -22.192,-59.3297 -26.8295,-57.3743 -31.311,-55.0629 -35.577,-52.4015 -39.6348,-49.4146 -43.4326,-46.1015 -46.9628,-42.5073 -50.1883,-38.6464 -53.0942,-34.5298 -55.6805,-30.2073 -57.8953,-25.6895 -59.7607,-21.0013 -61.2396,-16.1936 -62.3248,-11.27584 -63.0308,-6.28227 -63.328,-1.25972 -63.2315,3.77397 -62.72603,8.79056 -61.83423,13.7403 -60.54106,18.6149 -58.87629,23.3618 -56.83323,27.9718 -54.43047,32.3953 -51.68732,36.6145 -48.60973,40.6062 -45.23338,44.3423 -41.56419,47.7966 -37.64233,50.9471 -33.46703,53.7772 -29.09479,56.2632 -24.53154,58.3977 -19.81073,60.162 -14.97176,61.5444 -10.0332,62.5477 -5.0337,63.1423 v 63.3355 l 5.0337,63.1422 10.0332,62.5477 14.97176,61.5444 19.81073,60.162 24.53154,58.4007 29.09479,56.2602 33.46703,53.7779 37.64233,50.9464 41.56419,47.7952 45.23338,44.3467 48.60973,40.601 51.68732,36.6175 54.43047,32.396 56.83323,27.9741 58.87629,23.3588 60.54106,18.6171 61.83423,13.7343 62.72603,8.7921 63.2315,3.7755 63.328,-1.2635 63.0308,-6.28 62.3248,-11.2744 61.2396,-16.1943 59.7607,-21.0028 57.8953,-25.685 55.6805,-30.2111 53.0942,-34.529 50.1883,-38.6464 46.9628,-42.5036 43.4326,-46.1081 39.6348,-49.408 35.577,-52.403 31.311,-55.0637 26.8295,-57.375 22.192,-59.3296 17.4057,-60.8978 12.5081,-62.0944 7.5435,-62.897 2.5194,-63.2909" />
        <path
           inkscape:connector-curvature="0"
           id="path43749"
           style="fill:none;stroke:#dfe0e1;stroke-width:3.71785736;stroke-linecap:square;stroke-linejoin:round;stroke-miterlimit:10;stroke-dasharray:none;stroke-opacity:1"
           d="m 2067.0246,1780.892 -3.0249,75.955 -9.0447,75.4645 -15.0126,74.5133 -20.884,73.0862 -26.6288,71.1912 -32.2029,68.85 -37.5613,66.0779 -42.7042,62.8821 -47.5574,59.2925 -52.1206,55.3238 -56.3494,51.0132 -60.2289,46.3683 -63.722,41.4408 -66.8062,36.2459 -69.4818,30.8279 -71.7113,25.2093 -73.4802,19.4273 -74.7956,13.5262 -75.6355,7.5435 -75.9922,1.5161 -75.8732,-4.5335 -75.27874,-10.546 -74.20107,-16.4916 -72.65522,-22.3406 -70.64783,-28.0335 -68.1975,-33.5629 -65.31761,-38.8768 -62.02226,-43.938 -58.33227,-48.7241 -54.27662,-53.2132 -49.88506,-57.3527 -45.16351,-61.1356 -40.16178,-64.5321 -34.91627,-67.5197 -29.43443,-70.0763 -23.77348,-72.1944 -17.96463,-73.8592 -12.04206,-75.0483 -6.03553,-75.7692 v -76.0145 l 6.03553,-75.7693 12.04206,-75.0483 17.96463,-73.8592 23.77348,-72.1914 29.43443,-70.0815 34.91627,-67.5175 40.16178,-64.5313 45.16351,-61.1334 49.88506,-57.3572 54.27662,-53.2087 58.33227,-48.7286 62.02226,-43.93871 65.31761,-38.87307 68.1975,-33.56291 70.64783,-28.03572 72.65522,-22.33687 74.20107,-16.49235 75.27874,-10.54675 75.8732,-4.53203 75.9922,1.51241 75.6355,7.54496 74.7956,13.52921 73.4802,19.42427 71.7113,25.2138 69.4818,30.82273 66.8062,36.24214 63.722,41.44229 60.2289,46.372 56.3494,51.0102 52.1206,55.3223 47.5574,59.2962 42.7042,62.8814 37.5613,66.0757 32.2029,68.853 26.6288,71.1904 20.884,73.0863 15.0126,74.5132 9.0447,75.4645 3.0249,75.955" />
        <g
           transform="matrix(7.4319984,0,0,7.4319984,0,724.61923)"
           id="g43751">
          <text
             id="text43793"
             style="font-variant:normal;font-weight:normal;font-size:9.99975014px;font-family:Helvetica;-inkscape-font-specification:Helvetica;writing-mode:lr-tb;fill:#444041;fill-opacity:1;fill-rule:nonzero;stroke:none"
             transform="matrix(1,0,0,-1,282.125,138)">
            <tspan
               id="tspan43753"
               y="0"
               x="0">0</tspan>
            <tspan
               id="tspan43755"
               sodipodi:role="line"
               y="-45.3605"
               x="-7.9984398 -2.4385791">20</tspan>
            <tspan
               id="tspan43757"
               sodipodi:role="line"
               y="-91.624603"
               x="-31.02854 -25.468679">40</tspan>
            <tspan
               id="tspan43759"
               sodipodi:role="line"
               y="-121.2316"
               x="-66.312538 -60.752678">60</tspan>
            <tspan
               id="tspan43761"
               sodipodi:role="line"
               y="-136.98511"
               x="-115.21994 -109.66008 -164.28014 -158.72028 -153.16042">80100</tspan>
            <tspan
               id="tspan43763"
               sodipodi:role="line"
               y="-121.2316"
               x="-216.18755 -210.62769 -205.06783">120</tspan>
            <tspan
               id="tspan43765"
               sodipodi:role="line"
               y="-91.624603"
               x="-251.47154 -245.91168 -240.35182">140</tspan>
            <tspan
               id="tspan43767"
               sodipodi:role="line"
               y="-45.3605"
               x="-274.50165 -268.94177 -263.38193">160</tspan>
            <tspan
               id="tspan43769"
               sodipodi:role="line"
               y="-7.1054274e-015"
               x="-282.50009 -276.94022 -271.38037">180</tspan>
            <tspan
               id="tspan43771"
               sodipodi:role="line"
               y="45.3605"
               x="-274.50165 -268.94177 -263.38193">200</tspan>
            <tspan
               id="tspan43773"
               sodipodi:role="line"
               y="91.624603"
               x="-251.47154 -245.91168 -240.35182">220</tspan>
            <tspan
               id="tspan43775"
               sodipodi:role="line"
               y="121.2316"
               x="-216.18755 -210.62769 -205.06783">240</tspan>
            <tspan
               id="tspan43777"
               sodipodi:role="line"
               y="136.98511"
               x="-164.28014 -158.72028 -153.16042 -118.21999 -112.66013 -107.10027">260280</tspan>
            <tspan
               id="tspan43779"
               sodipodi:role="line"
               y="121.2316"
               x="-66.312538 -60.752678 -55.192818">300</tspan>
            <tspan
               id="tspan43781"
               sodipodi:role="line"
               y="91.624603"
               x="-31.02854 -25.468679 -19.908817">320</tspan>
            <tspan
               id="tspan43783"
               sodipodi:role="line"
               y="45.3605"
               x="-7.9984398 -2.4385791 3.1212821">340</tspan>
            <tspan
               id="tspan43785"
               y="-2.1316282e-014"
               x="-135.62544">0</tspan>
            <tspan
               id="tspan43787"
               sodipodi:role="line"
               y="-35.186298"
               x="-133.54614 -127.98628 -125.20635">0.5</tspan>
            <tspan
               id="tspan43789"
               y="-70.372597"
               x="-123.21684">1</tspan>
            <tspan
               id="tspan43791"
               sodipodi:role="line"
               y="-105.5589"
               x="-121.13754 -115.57768 -112.79774">1.5</tspan>
          </text>
        </g>
        <path
           inkscape:connector-curvature="0"
           id="path43799"
           style="fill:none;stroke:#ebb430;stroke-width:10.77024078;stroke-linecap:butt;stroke-linejoin:round;stroke-miterlimit:10;stroke-dasharray:none;stroke-opacity:1"
           d="m 1743.0712,1780.892 -4.3775,110.6699 1.1892,118.1985 -26.2945,118.9863 -175.3357,10.5906 -147.2427,-24.8452 -88.7381,-2.4525 -71.31,-1.7763 -60.8532,5.3511 -59.0249,-0.1412 -58.096,-5.0835 -56.34194,-15.0944 -55.5096,-20.0516 -58.77224,-21.7757 -68.27034,-23.3736 -70.94883,-36.7736 -106.15867,-39.8726 -101.21193,-71.1168 -8.88049,-101.4394 -80.02999,-117.1209 -194.14684,-195.298 311.05515,-3.5718 221.84218,42.8945 113.82106,20.8616 52.3287,-23.7229 52.15028,-18.4834 55.5245,1.5533 51.645,0.7952 51.6449,-0.7952 53.7036,3.441 64.599,-4.9051 79.2548,-2.6384 100.6739,3.4113 96.2592,36.008 127.7709,48.6871 64.1679,96.3707" />
        <path
           inkscape:connector-curvature="0"
           id="path43801"
           style="fill:none;stroke:#ebb430;stroke-width:10.77024078;stroke-linecap:butt;stroke-linejoin:round;stroke-miterlimit:10;stroke-dasharray:none;stroke-opacity:1"
           d="m 1749.158,1668.379 -6.0868,112.513" />
        <path
           inkscape:connector-curvature="0"
           id="path43795"
           style="fill:none;stroke:#3a71a5;stroke-width:10.77024078;stroke-linecap:butt;stroke-linejoin:round;stroke-miterlimit:10;stroke-dasharray:none;stroke-opacity:1"
           d="m 1828.0412,1780.892 62.3248,137.4102 69.1027,171.3745 -107.9052,118.7336 -260.4172,-24.704 -200.1363,-69.2142 -91.3913,-7.0529 -68.6568,2.8241 -60.8532,5.3511 -59.0249,-0.1412 -58.096,-5.0835 -56.34194,-15.0944 -55.5096,-20.0516 -58.77224,-21.7757 -68.27034,-23.3736 -89.34897,-26.1458 -122.68892,-37.7843 -40.13279,-88.4408 -50.95824,-96.8315 -79.79291,-119.8856 -148.51214,-181.6306 106.34149,-115.381 372.20638,123.3184 127.98644,29.1334 62.57,-11.5121 53.97118,-13.4891 54.6252,1.7911 50.7234,0.877 50.7234,-0.877 52.8117,3.1958 63.7592,-5.2916 68.248,9.0373 102.1231,-2.6235 113.063,23.1135 118.191,53.1537 58.6905,96.4004" />
        <path
           inkscape:connector-curvature="0"
           id="path43797"
           style="fill:none;stroke:#3a71a5;stroke-width:10.77024078;stroke-linecap:butt;stroke-linejoin:round;stroke-miterlimit:10;stroke-dasharray:none;stroke-opacity:1"
           d="m 1738.6937,1670.2221 89.3475,110.6699" />
      </g>
    </g>
  </g>
</svg>
