<?xml version="1.0" encoding="UTF-8" standalone="no"?>
<!-- Created with Inkscape (http://www.inkscape.org/) -->

<svg
   xmlns:dc="http://purl.org/dc/elements/1.1/"
   xmlns:cc="http://creativecommons.org/ns#"
   xmlns:rdf="http://www.w3.org/1999/02/22-rdf-syntax-ns#"
   xmlns:svg="http://www.w3.org/2000/svg"
   xmlns="http://www.w3.org/2000/svg"
   xmlns:sodipodi="http://sodipodi.sourceforge.net/DTD/sodipodi-0.dtd"
   xmlns:inkscape="http://www.inkscape.org/namespaces/inkscape"
   width="230.44878mm"
   height="223.97437mm"
   viewBox="0 0 230.44878 223.97437"
   version="1.1"
   id="svg1415"
   inkscape:version="0.92.3 (2405546, 2018-03-11)"
   sodipodi:docname="round00.svg">
  <defs
     id="defs1409" />
  <sodipodi:namedview
     id="base"
     pagecolor="#ffffff"
     bordercolor="#666666"
     borderopacity="1.0"
     inkscape:pageopacity="0.0"
     inkscape:pageshadow="2"
     inkscape:zoom="0.49497475"
     inkscape:cx="652.18761"
     inkscape:cy="538.46056"
     inkscape:document-units="mm"
     inkscape:current-layer="g1970"
     showgrid="false"
     fit-margin-top="0"
     fit-margin-left="0"
     fit-margin-right="0"
     fit-margin-bottom="0"
     inkscape:window-width="1920"
     inkscape:window-height="1137"
     inkscape:window-x="1912"
     inkscape:window-y="-8"
     inkscape:window-maximized="1" />
  <metadata
     id="metadata1412">
    <rdf:RDF>
      <cc:Work
         rdf:about="">
        <dc:format>image/svg+xml</dc:format>
        <dc:type
           rdf:resource="http://purl.org/dc/dcmitype/StillImage" />
        <dc:title></dc:title>
      </cc:Work>
    </rdf:RDF>
  </metadata>
  <g
     inkscape:label="Layer 1"
     inkscape:groupmode="layer"
     id="layer1"
     transform="translate(33.2367,-89.732179)">
    <g
       transform="matrix(0.79374999,0,0,-0.79374999,-13.959914,281.95654)"
       inkscape:label="ink_ext_XXXXXX"
       id="g1968">
      <g
         transform="matrix(0.1,0,0,0.1,-24.285715,-40.000001)"
         id="g1970">
        <path
           inkscape:connector-curvature="0"
           id="path1976"
           style="fill:#ffffff;fill-opacity:1;fill-rule:nonzero;stroke:none"
           d="m 2781.25,1421.25 -4.07,102.2 -12.17,101.54 -20.2,100.26 -28.1,98.34 -35.83,95.79 -43.33,92.64 -50.54,88.91 -57.46,84.61 -63.99,79.78 -70.13,74.44 -75.82,68.64 -81.04,62.39 -85.74,55.76 -89.89,48.77 -93.49,41.48 -96.49,33.92 -98.87,26.14 -100.64,18.2 -101.77,10.15 -102.25,2.04 -102.09,-6.1 -101.29,-14.19 -99.84,-22.19 -97.76,-30.06 -95.059,-37.72 -91.762,-45.16 -87.887,-52.31 -83.453,-59.12 -78.488,-65.56 -73.031,-71.6 -67.122,-77.17 -60.769,-82.26 -54.039,-86.83 -46.981,-90.85 -39.605,-94.29 -31.988,-97.14 -24.172,-99.38 -16.203,-100.98 -8.121,-101.95 v -102.28 l 8.121,-101.95 16.203,-100.98 24.172,-99.38 31.988,-97.136 39.605,-94.297 46.981,-90.847 54.039,-86.829 60.769,-82.257 67.122,-77.176 73.031,-71.594 78.488,-65.566 83.453,-59.121 87.887,-52.305 91.762,-45.16 95.059,-37.723 97.76,-30.055 99.84,-22.191 101.29,-14.191 102.09,-6.098 102.25,2.035 101.77,10.152 100.64,18.204 98.87,26.136 96.49,33.926 93.49,41.473 89.89,48.765 85.74,55.762 81.04,62.395 75.82,68.636 70.13,74.438 63.99,79.785 57.46,84.609 50.54,88.907 43.33,92.644 35.83,95.789 28.1,98.34 20.2,100.26 12.17,101.54" />
        <path
           inkscape:connector-curvature="0"
           id="path1978"
           style="fill:none;stroke:#cacacb;stroke-width:5.00250006;stroke-linecap:butt;stroke-linejoin:bevel;stroke-miterlimit:10;stroke-dasharray:7.5, 22.5;stroke-dashoffset:0;stroke-opacity:1"
           d="m 1495,1421.25 1281.35,112.1" />
        <path
           inkscape:connector-curvature="0"
           id="path1980"
           style="fill:none;stroke:#cacacb;stroke-width:5.00250006;stroke-linecap:butt;stroke-linejoin:bevel;stroke-miterlimit:10;stroke-dasharray:7.5, 22.5;stroke-dashoffset:0;stroke-opacity:1"
           d="m 1495,1421.25 1266.71,223.36" />
        <path
           inkscape:connector-curvature="0"
           id="path1982"
           style="fill:none;stroke:#cacacb;stroke-width:5.00250006;stroke-linecap:butt;stroke-linejoin:bevel;stroke-miterlimit:10;stroke-dasharray:7.5, 22.5;stroke-dashoffset:0;stroke-opacity:1"
           d="m 1495,1421.25 1242.42,332.9" />
        <path
           inkscape:connector-curvature="0"
           id="path1984"
           style="fill:none;stroke:#cacacb;stroke-width:5.00250006;stroke-linecap:butt;stroke-linejoin:bevel;stroke-miterlimit:10;stroke-dasharray:7.5, 22.5;stroke-dashoffset:0;stroke-opacity:1"
           d="m 1495,1421.25 1165.74,543.59" />
        <path
           inkscape:connector-curvature="0"
           id="path1986"
           style="fill:none;stroke:#cacacb;stroke-width:5.00250006;stroke-linecap:butt;stroke-linejoin:bevel;stroke-miterlimit:10;stroke-dasharray:7.5, 22.5;stroke-dashoffset:0;stroke-opacity:1"
           d="m 1495,1421.25 1113.92,643.13" />
        <path
           inkscape:connector-curvature="0"
           id="path1988"
           style="fill:none;stroke:#cacacb;stroke-width:5.00250006;stroke-linecap:butt;stroke-linejoin:bevel;stroke-miterlimit:10;stroke-dasharray:7.5, 22.5;stroke-dashoffset:0;stroke-opacity:1"
           d="m 1495,1421.25 1053.64,737.76" />
        <path
           inkscape:connector-curvature="0"
           id="path1990"
           style="fill:none;stroke:#cacacb;stroke-width:5.00250006;stroke-linecap:butt;stroke-linejoin:bevel;stroke-miterlimit:10;stroke-dasharray:7.5, 22.5;stroke-dashoffset:0;stroke-opacity:1"
           d="m 1495,1421.25 909.52,909.52" />
        <path
           inkscape:connector-curvature="0"
           id="path1992"
           style="fill:none;stroke:#cacacb;stroke-width:5.00250006;stroke-linecap:butt;stroke-linejoin:bevel;stroke-miterlimit:10;stroke-dasharray:7.5, 22.5;stroke-dashoffset:0;stroke-opacity:1"
           d="m 1495,1421.25 826.79,985.33" />
        <path
           inkscape:connector-curvature="0"
           id="path1994"
           style="fill:none;stroke:#cacacb;stroke-width:5.00250006;stroke-linecap:butt;stroke-linejoin:bevel;stroke-miterlimit:10;stroke-dasharray:7.5, 22.5;stroke-dashoffset:0;stroke-opacity:1"
           d="m 1495,1421.25 737.76,1053.64" />
        <path
           inkscape:connector-curvature="0"
           id="path1996"
           style="fill:none;stroke:#cacacb;stroke-width:5.00250006;stroke-linecap:butt;stroke-linejoin:bevel;stroke-miterlimit:10;stroke-dasharray:7.5, 22.5;stroke-dashoffset:0;stroke-opacity:1"
           d="m 1495,1421.25 543.59,1165.74" />
        <path
           inkscape:connector-curvature="0"
           id="path1998"
           style="fill:none;stroke:#cacacb;stroke-width:5.00250006;stroke-linecap:butt;stroke-linejoin:bevel;stroke-miterlimit:10;stroke-dasharray:7.5, 22.5;stroke-dashoffset:0;stroke-opacity:1"
           d="m 1495,1421.25 439.92,1208.68" />
        <path
           inkscape:connector-curvature="0"
           id="path2000"
           style="fill:none;stroke:#cacacb;stroke-width:5.00250006;stroke-linecap:butt;stroke-linejoin:bevel;stroke-miterlimit:10;stroke-dasharray:7.5, 22.5;stroke-dashoffset:0;stroke-opacity:1"
           d="m 1495,1421.25 332.9,1242.42" />
        <path
           inkscape:connector-curvature="0"
           id="path2002"
           style="fill:none;stroke:#cacacb;stroke-width:5.00250006;stroke-linecap:butt;stroke-linejoin:bevel;stroke-miterlimit:10;stroke-dasharray:7.5, 22.5;stroke-dashoffset:0;stroke-opacity:1"
           d="M 1495,1421.25 1607.1,2702.6" />
        <path
           inkscape:connector-curvature="0"
           id="path2004"
           style="fill:none;stroke:#cacacb;stroke-width:5.00250006;stroke-linecap:butt;stroke-linejoin:bevel;stroke-miterlimit:10;stroke-dasharray:7.5, 22.5;stroke-dashoffset:0;stroke-opacity:1"
           d="M 1495,1421.25 V 2707.5" />
        <path
           inkscape:connector-curvature="0"
           id="path2006"
           style="fill:none;stroke:#cacacb;stroke-width:5.00250006;stroke-linecap:butt;stroke-linejoin:bevel;stroke-miterlimit:10;stroke-dasharray:7.5, 22.5;stroke-dashoffset:0;stroke-opacity:1"
           d="M 1495,1421.25 1382.9,2702.6" />
        <path
           inkscape:connector-curvature="0"
           id="path2008"
           style="fill:none;stroke:#cacacb;stroke-width:5.00250006;stroke-linecap:butt;stroke-linejoin:bevel;stroke-miterlimit:10;stroke-dasharray:7.5, 22.5;stroke-dashoffset:0;stroke-opacity:1"
           d="M 1495,1421.25 1162.1,2663.67" />
        <path
           inkscape:connector-curvature="0"
           id="path2010"
           style="fill:none;stroke:#cacacb;stroke-width:5.00250006;stroke-linecap:butt;stroke-linejoin:bevel;stroke-miterlimit:10;stroke-dasharray:7.5, 22.5;stroke-dashoffset:0;stroke-opacity:1"
           d="M 1495,1421.25 1055.08,2629.93" />
        <path
           inkscape:connector-curvature="0"
           id="path2012"
           style="fill:none;stroke:#cacacb;stroke-width:5.00250006;stroke-linecap:butt;stroke-linejoin:bevel;stroke-miterlimit:10;stroke-dasharray:7.5, 22.5;stroke-dashoffset:0;stroke-opacity:1"
           d="M 1495,1421.25 951.406,2586.99" />
        <path
           inkscape:connector-curvature="0"
           id="path2014"
           style="fill:none;stroke:#cacacb;stroke-width:5.00250006;stroke-linecap:butt;stroke-linejoin:bevel;stroke-miterlimit:10;stroke-dasharray:7.5, 22.5;stroke-dashoffset:0;stroke-opacity:1"
           d="M 1495,1421.25 757.238,2474.89" />
        <path
           inkscape:connector-curvature="0"
           id="path2016"
           style="fill:none;stroke:#cacacb;stroke-width:5.00250006;stroke-linecap:butt;stroke-linejoin:bevel;stroke-miterlimit:10;stroke-dasharray:7.5, 22.5;stroke-dashoffset:0;stroke-opacity:1"
           d="M 1495,1421.25 668.215,2406.58" />
        <path
           inkscape:connector-curvature="0"
           id="path2018"
           style="fill:none;stroke:#cacacb;stroke-width:5.00250006;stroke-linecap:butt;stroke-linejoin:bevel;stroke-miterlimit:10;stroke-dasharray:7.5, 22.5;stroke-dashoffset:0;stroke-opacity:1"
           d="M 1495,1421.25 585.484,2330.77" />
        <path
           inkscape:connector-curvature="0"
           id="path2020"
           style="fill:none;stroke:#cacacb;stroke-width:5.00250006;stroke-linecap:butt;stroke-linejoin:bevel;stroke-miterlimit:10;stroke-dasharray:7.5, 22.5;stroke-dashoffset:0;stroke-opacity:1"
           d="M 1495,1421.25 441.363,2159.01" />
        <path
           inkscape:connector-curvature="0"
           id="path2022"
           style="fill:none;stroke:#cacacb;stroke-width:5.00250006;stroke-linecap:butt;stroke-linejoin:bevel;stroke-miterlimit:10;stroke-dasharray:7.5, 22.5;stroke-dashoffset:0;stroke-opacity:1"
           d="M 1495,1421.25 381.078,2064.38" />
        <path
           inkscape:connector-curvature="0"
           id="path2024"
           style="fill:none;stroke:#cacacb;stroke-width:5.00250006;stroke-linecap:butt;stroke-linejoin:bevel;stroke-miterlimit:10;stroke-dasharray:7.5, 22.5;stroke-dashoffset:0;stroke-opacity:1"
           d="M 1495,1421.25 329.262,1964.84" />
        <path
           inkscape:connector-curvature="0"
           id="path2026"
           style="fill:none;stroke:#cacacb;stroke-width:5.00250006;stroke-linecap:butt;stroke-linejoin:bevel;stroke-miterlimit:10;stroke-dasharray:7.5, 22.5;stroke-dashoffset:0;stroke-opacity:1"
           d="M 1495,1421.25 252.578,1754.15" />
        <path
           inkscape:connector-curvature="0"
           id="path2028"
           style="fill:none;stroke:#cacacb;stroke-width:5.00250006;stroke-linecap:butt;stroke-linejoin:bevel;stroke-miterlimit:10;stroke-dasharray:7.5, 22.5;stroke-dashoffset:0;stroke-opacity:1"
           d="M 1495,1421.25 228.289,1644.61" />
        <path
           inkscape:connector-curvature="0"
           id="path2030"
           style="fill:none;stroke:#cacacb;stroke-width:5.00250006;stroke-linecap:butt;stroke-linejoin:bevel;stroke-miterlimit:10;stroke-dasharray:7.5, 22.5;stroke-dashoffset:0;stroke-opacity:1"
           d="M 1495,1421.25 213.648,1533.35" />
        <path
           inkscape:connector-curvature="0"
           id="path2032"
           style="fill:none;stroke:#cacacb;stroke-width:5.00250006;stroke-linecap:butt;stroke-linejoin:bevel;stroke-miterlimit:10;stroke-dasharray:7.5, 22.5;stroke-dashoffset:0;stroke-opacity:1"
           d="M 1495,1421.25 213.648,1309.15" />
        <path
           inkscape:connector-curvature="0"
           id="path2034"
           style="fill:none;stroke:#cacacb;stroke-width:5.00250006;stroke-linecap:butt;stroke-linejoin:bevel;stroke-miterlimit:10;stroke-dasharray:7.5, 22.5;stroke-dashoffset:0;stroke-opacity:1"
           d="M 1495,1421.25 228.289,1197.89" />
        <path
           inkscape:connector-curvature="0"
           id="path2036"
           style="fill:none;stroke:#cacacb;stroke-width:5.00250006;stroke-linecap:butt;stroke-linejoin:bevel;stroke-miterlimit:10;stroke-dasharray:7.5, 22.5;stroke-dashoffset:0;stroke-opacity:1"
           d="M 1495,1421.25 252.578,1088.35" />
        <path
           inkscape:connector-curvature="0"
           id="path2038"
           style="fill:none;stroke:#cacacb;stroke-width:5.00250006;stroke-linecap:butt;stroke-linejoin:bevel;stroke-miterlimit:10;stroke-dasharray:7.5, 22.5;stroke-dashoffset:0;stroke-opacity:1"
           d="M 1495,1421.25 329.262,877.656" />
        <path
           inkscape:connector-curvature="0"
           id="path2040"
           style="fill:none;stroke:#cacacb;stroke-width:5.00250006;stroke-linecap:butt;stroke-linejoin:bevel;stroke-miterlimit:10;stroke-dasharray:7.5, 22.5;stroke-dashoffset:0;stroke-opacity:1"
           d="M 1495,1421.25 381.078,778.125" />
        <path
           inkscape:connector-curvature="0"
           id="path2042"
           style="fill:none;stroke:#cacacb;stroke-width:5.00250006;stroke-linecap:butt;stroke-linejoin:bevel;stroke-miterlimit:10;stroke-dasharray:7.5, 22.5;stroke-dashoffset:0;stroke-opacity:1"
           d="M 1495,1421.25 441.363,683.488" />
        <path
           inkscape:connector-curvature="0"
           id="path2044"
           style="fill:none;stroke:#cacacb;stroke-width:5.00250006;stroke-linecap:butt;stroke-linejoin:bevel;stroke-miterlimit:10;stroke-dasharray:7.5, 22.5;stroke-dashoffset:0;stroke-opacity:1"
           d="M 1495,1421.25 585.484,511.734" />
        <path
           inkscape:connector-curvature="0"
           id="path2046"
           style="fill:none;stroke:#cacacb;stroke-width:5.00250006;stroke-linecap:butt;stroke-linejoin:bevel;stroke-miterlimit:10;stroke-dasharray:7.5, 22.5;stroke-dashoffset:0;stroke-opacity:1"
           d="M 1495,1421.25 668.215,435.922" />
        <path
           inkscape:connector-curvature="0"
           id="path2048"
           style="fill:none;stroke:#cacacb;stroke-width:5.00250006;stroke-linecap:butt;stroke-linejoin:bevel;stroke-miterlimit:10;stroke-dasharray:7.5, 22.5;stroke-dashoffset:0;stroke-opacity:1"
           d="M 1495,1421.25 757.238,367.613" />
        <path
           inkscape:connector-curvature="0"
           id="path2050"
           style="fill:none;stroke:#cacacb;stroke-width:5.00250006;stroke-linecap:butt;stroke-linejoin:bevel;stroke-miterlimit:10;stroke-dasharray:7.5, 22.5;stroke-dashoffset:0;stroke-opacity:1"
           d="M 1495,1421.25 951.406,255.512" />
        <path
           inkscape:connector-curvature="0"
           id="path2052"
           style="fill:none;stroke:#cacacb;stroke-width:5.00250006;stroke-linecap:butt;stroke-linejoin:bevel;stroke-miterlimit:10;stroke-dasharray:7.5, 22.5;stroke-dashoffset:0;stroke-opacity:1"
           d="M 1495,1421.25 1055.08,212.574" />
        <path
           inkscape:connector-curvature="0"
           id="path2054"
           style="fill:none;stroke:#cacacb;stroke-width:5.00250006;stroke-linecap:butt;stroke-linejoin:bevel;stroke-miterlimit:10;stroke-dasharray:7.5, 22.5;stroke-dashoffset:0;stroke-opacity:1"
           d="M 1495,1421.25 1162.1,178.832" />
        <path
           inkscape:connector-curvature="0"
           id="path2056"
           style="fill:none;stroke:#cacacb;stroke-width:5.00250006;stroke-linecap:butt;stroke-linejoin:bevel;stroke-miterlimit:10;stroke-dasharray:7.5, 22.5;stroke-dashoffset:0;stroke-opacity:1"
           d="M 1495,1421.25 1382.9,139.898" />
        <path
           inkscape:connector-curvature="0"
           id="path2058"
           style="fill:none;stroke:#cacacb;stroke-width:5.00250006;stroke-linecap:butt;stroke-linejoin:bevel;stroke-miterlimit:10;stroke-dasharray:7.5, 22.5;stroke-dashoffset:0;stroke-opacity:1"
           d="M 1495,1421.25 V 135" />
        <path
           inkscape:connector-curvature="0"
           id="path2060"
           style="fill:none;stroke:#cacacb;stroke-width:5.00250006;stroke-linecap:butt;stroke-linejoin:bevel;stroke-miterlimit:10;stroke-dasharray:7.5, 22.5;stroke-dashoffset:0;stroke-opacity:1"
           d="M 1495,1421.25 1607.1,139.898" />
        <path
           inkscape:connector-curvature="0"
           id="path2062"
           style="fill:none;stroke:#cacacb;stroke-width:5.00250006;stroke-linecap:butt;stroke-linejoin:bevel;stroke-miterlimit:10;stroke-dasharray:7.5, 22.5;stroke-dashoffset:0;stroke-opacity:1"
           d="M 1495,1421.25 1827.9,178.832" />
        <path
           inkscape:connector-curvature="0"
           id="path2064"
           style="fill:none;stroke:#cacacb;stroke-width:5.00250006;stroke-linecap:butt;stroke-linejoin:bevel;stroke-miterlimit:10;stroke-dasharray:7.5, 22.5;stroke-dashoffset:0;stroke-opacity:1"
           d="M 1495,1421.25 1934.92,212.574" />
        <path
           inkscape:connector-curvature="0"
           id="path2066"
           style="fill:none;stroke:#cacacb;stroke-width:5.00250006;stroke-linecap:butt;stroke-linejoin:bevel;stroke-miterlimit:10;stroke-dasharray:7.5, 22.5;stroke-dashoffset:0;stroke-opacity:1"
           d="M 1495,1421.25 2038.59,255.512" />
        <path
           inkscape:connector-curvature="0"
           id="path2068"
           style="fill:none;stroke:#cacacb;stroke-width:5.00250006;stroke-linecap:butt;stroke-linejoin:bevel;stroke-miterlimit:10;stroke-dasharray:7.5, 22.5;stroke-dashoffset:0;stroke-opacity:1"
           d="M 1495,1421.25 2232.76,367.613" />
        <path
           inkscape:connector-curvature="0"
           id="path2070"
           style="fill:none;stroke:#cacacb;stroke-width:5.00250006;stroke-linecap:butt;stroke-linejoin:bevel;stroke-miterlimit:10;stroke-dasharray:7.5, 22.5;stroke-dashoffset:0;stroke-opacity:1"
           d="M 1495,1421.25 2321.79,435.922" />
        <path
           inkscape:connector-curvature="0"
           id="path2072"
           style="fill:none;stroke:#cacacb;stroke-width:5.00250006;stroke-linecap:butt;stroke-linejoin:bevel;stroke-miterlimit:10;stroke-dasharray:7.5, 22.5;stroke-dashoffset:0;stroke-opacity:1"
           d="M 1495,1421.25 2404.52,511.734" />
        <path
           inkscape:connector-curvature="0"
           id="path2074"
           style="fill:none;stroke:#cacacb;stroke-width:5.00250006;stroke-linecap:butt;stroke-linejoin:bevel;stroke-miterlimit:10;stroke-dasharray:7.5, 22.5;stroke-dashoffset:0;stroke-opacity:1"
           d="M 1495,1421.25 2548.64,683.488" />
        <path
           inkscape:connector-curvature="0"
           id="path2076"
           style="fill:none;stroke:#cacacb;stroke-width:5.00250006;stroke-linecap:butt;stroke-linejoin:bevel;stroke-miterlimit:10;stroke-dasharray:7.5, 22.5;stroke-dashoffset:0;stroke-opacity:1"
           d="M 1495,1421.25 2608.92,778.125" />
        <path
           inkscape:connector-curvature="0"
           id="path2078"
           style="fill:none;stroke:#cacacb;stroke-width:5.00250006;stroke-linecap:butt;stroke-linejoin:bevel;stroke-miterlimit:10;stroke-dasharray:7.5, 22.5;stroke-dashoffset:0;stroke-opacity:1"
           d="M 1495,1421.25 2660.74,877.656" />
        <path
           inkscape:connector-curvature="0"
           id="path2080"
           style="fill:none;stroke:#cacacb;stroke-width:5.00250006;stroke-linecap:butt;stroke-linejoin:bevel;stroke-miterlimit:10;stroke-dasharray:7.5, 22.5;stroke-dashoffset:0;stroke-opacity:1"
           d="m 1495,1421.25 1242.42,-332.9" />
        <path
           inkscape:connector-curvature="0"
           id="path2082"
           style="fill:none;stroke:#cacacb;stroke-width:5.00250006;stroke-linecap:butt;stroke-linejoin:bevel;stroke-miterlimit:10;stroke-dasharray:7.5, 22.5;stroke-dashoffset:0;stroke-opacity:1"
           d="M 1495,1421.25 2761.71,1197.89" />
        <path
           inkscape:connector-curvature="0"
           id="path2084"
           style="fill:none;stroke:#cacacb;stroke-width:5.00250006;stroke-linecap:butt;stroke-linejoin:bevel;stroke-miterlimit:10;stroke-dasharray:7.5, 22.5;stroke-dashoffset:0;stroke-opacity:1"
           d="m 1495,1421.25 1281.35,-112.1" />
        <path
           inkscape:connector-curvature="0"
           id="path2086"
           style="fill:none;stroke:#cacacb;stroke-width:5.00250006;stroke-linecap:butt;stroke-linejoin:bevel;stroke-miterlimit:10;stroke-dasharray:7.5, 22.5;stroke-dashoffset:0;stroke-opacity:1"
           d="M 1495,1421.25 H 2781.25" />
        <path
           inkscape:connector-curvature="0"
           id="path2088"
           style="fill:none;stroke:#dfe0e1;stroke-width:5.00250006;stroke-linecap:butt;stroke-linejoin:round;stroke-miterlimit:10;stroke-dasharray:none;stroke-opacity:1"
           d="M 1495,1421.25 H 2781.25" />
        <path
           inkscape:connector-curvature="0"
           id="path2090"
           style="fill:none;stroke:#dfe0e1;stroke-width:5.00250006;stroke-linecap:butt;stroke-linejoin:round;stroke-miterlimit:10;stroke-dasharray:none;stroke-opacity:1"
           d="m 1495,1421.25 1208.68,439.92" />
        <path
           inkscape:connector-curvature="0"
           id="path2092"
           style="fill:none;stroke:#dfe0e1;stroke-width:5.00250006;stroke-linecap:butt;stroke-linejoin:round;stroke-miterlimit:10;stroke-dasharray:none;stroke-opacity:1"
           d="m 1495,1421.25 985.33,826.79" />
        <path
           inkscape:connector-curvature="0"
           id="path2094"
           style="fill:none;stroke:#dfe0e1;stroke-width:5.00250006;stroke-linecap:butt;stroke-linejoin:round;stroke-miterlimit:10;stroke-dasharray:none;stroke-opacity:1"
           d="m 1495,1421.25 643.13,1113.92" />
        <path
           inkscape:connector-curvature="0"
           id="path2096"
           style="fill:none;stroke:#dfe0e1;stroke-width:5.00250006;stroke-linecap:butt;stroke-linejoin:round;stroke-miterlimit:10;stroke-dasharray:none;stroke-opacity:1"
           d="m 1495,1421.25 223.36,1266.71" />
        <path
           inkscape:connector-curvature="0"
           id="path2098"
           style="fill:none;stroke:#dfe0e1;stroke-width:5.00250006;stroke-linecap:butt;stroke-linejoin:round;stroke-miterlimit:10;stroke-dasharray:none;stroke-opacity:1"
           d="M 1495,1421.25 1271.64,2687.96" />
        <path
           inkscape:connector-curvature="0"
           id="path2100"
           style="fill:none;stroke:#dfe0e1;stroke-width:5.00250006;stroke-linecap:butt;stroke-linejoin:round;stroke-miterlimit:10;stroke-dasharray:none;stroke-opacity:1"
           d="M 1495,1421.25 851.875,2535.17" />
        <path
           inkscape:connector-curvature="0"
           id="path2102"
           style="fill:none;stroke:#dfe0e1;stroke-width:5.00250006;stroke-linecap:butt;stroke-linejoin:round;stroke-miterlimit:10;stroke-dasharray:none;stroke-opacity:1"
           d="M 1495,1421.25 509.672,2248.04" />
        <path
           inkscape:connector-curvature="0"
           id="path2104"
           style="fill:none;stroke:#dfe0e1;stroke-width:5.00250006;stroke-linecap:butt;stroke-linejoin:round;stroke-miterlimit:10;stroke-dasharray:none;stroke-opacity:1"
           d="M 1495,1421.25 286.324,1861.17" />
        <path
           inkscape:connector-curvature="0"
           id="path2106"
           style="fill:none;stroke:#dfe0e1;stroke-width:5.00250006;stroke-linecap:butt;stroke-linejoin:round;stroke-miterlimit:10;stroke-dasharray:none;stroke-opacity:1"
           d="M 1495,1421.25 H 208.75" />
        <path
           inkscape:connector-curvature="0"
           id="path2108"
           style="fill:none;stroke:#dfe0e1;stroke-width:5.00250006;stroke-linecap:butt;stroke-linejoin:round;stroke-miterlimit:10;stroke-dasharray:none;stroke-opacity:1"
           d="M 1495,1421.25 286.324,981.328" />
        <path
           inkscape:connector-curvature="0"
           id="path2110"
           style="fill:none;stroke:#dfe0e1;stroke-width:5.00250006;stroke-linecap:butt;stroke-linejoin:round;stroke-miterlimit:10;stroke-dasharray:none;stroke-opacity:1"
           d="M 1495,1421.25 509.672,594.465" />
        <path
           inkscape:connector-curvature="0"
           id="path2112"
           style="fill:none;stroke:#dfe0e1;stroke-width:5.00250006;stroke-linecap:butt;stroke-linejoin:round;stroke-miterlimit:10;stroke-dasharray:none;stroke-opacity:1"
           d="M 1495,1421.25 851.875,307.328" />
        <path
           inkscape:connector-curvature="0"
           id="path2114"
           style="fill:none;stroke:#dfe0e1;stroke-width:5.00250006;stroke-linecap:butt;stroke-linejoin:round;stroke-miterlimit:10;stroke-dasharray:none;stroke-opacity:1"
           d="M 1495,1421.25 1271.64,154.539" />
        <path
           inkscape:connector-curvature="0"
           id="path2116"
           style="fill:none;stroke:#dfe0e1;stroke-width:5.00250006;stroke-linecap:butt;stroke-linejoin:round;stroke-miterlimit:10;stroke-dasharray:none;stroke-opacity:1"
           d="M 1495,1421.25 1718.36,154.539" />
        <path
           inkscape:connector-curvature="0"
           id="path2118"
           style="fill:none;stroke:#dfe0e1;stroke-width:5.00250006;stroke-linecap:butt;stroke-linejoin:round;stroke-miterlimit:10;stroke-dasharray:none;stroke-opacity:1"
           d="M 1495,1421.25 2138.13,307.328" />
        <path
           inkscape:connector-curvature="0"
           id="path2120"
           style="fill:none;stroke:#dfe0e1;stroke-width:5.00250006;stroke-linecap:butt;stroke-linejoin:round;stroke-miterlimit:10;stroke-dasharray:none;stroke-opacity:1"
           d="M 1495,1421.25 2480.33,594.465" />
        <path
           inkscape:connector-curvature="0"
           id="path2122"
           style="fill:none;stroke:#dfe0e1;stroke-width:5.00250006;stroke-linecap:butt;stroke-linejoin:round;stroke-miterlimit:10;stroke-dasharray:none;stroke-opacity:1"
           d="M 1495,1421.25 2703.68,981.328" />
        <path
           inkscape:connector-curvature="0"
           id="path2124"
           style="fill:none;stroke:#cacacb;stroke-width:5.00250006;stroke-linecap:butt;stroke-linejoin:bevel;stroke-miterlimit:10;stroke-dasharray:7.5, 22.5;stroke-dashoffset:0;stroke-opacity:1"
           d="m 1546.45,1421.25 -0.16,-4.09 -0.49,-4.06 -0.8,-4.01 -1.13,-3.93 -1.43,-3.84 -1.73,-3.7 -2.03,-3.56 -2.29,-3.38 -2.57,-3.2 -2.8,-2.97 -3.04,-2.75 -3.23,-2.49 -3.44,-2.23 -3.59,-1.95 -3.74,-1.66 -3.86,-1.36 -3.96,-1.05 -4.02,-0.72 -4.07,-0.41 -4.09,-0.08 -4.09,0.24 -4.05,0.58 -4,0.88 -3.9,1.2 -3.8,1.51 -3.67,1.8 -3.52,2.1 -3.34,2.37 -3.14,2.62 -2.92,2.86 -2.68,3.09 -2.43,3.28 -2.17,3.48 -1.88,3.63 -1.58,3.78 -1.28,3.88 -0.97,3.98 -0.64,4.04 -0.33,4.07 v 4.1 l 0.33,4.07 0.64,4.04 0.97,3.98 1.28,3.88 1.58,3.78 1.88,3.63 2.17,3.48 2.43,3.28 2.68,3.09 2.92,2.86 3.14,2.62 3.34,2.37 3.52,2.1 3.67,1.8 3.8,1.51 3.9,1.2 4,0.89 4.05,0.57 4.09,0.24 4.09,-0.08 4.07,-0.4 4.02,-0.73 3.96,-1.05 3.86,-1.36 3.74,-1.66 3.59,-1.95 3.44,-2.23 3.23,-2.49 3.04,-2.75 2.8,-2.97 2.57,-3.2 2.29,-3.38 2.03,-3.56 1.73,-3.7 1.43,-3.84 1.13,-3.93 0.8,-4.01 0.49,-4.06 0.16,-4.09" />
        <path
           inkscape:connector-curvature="0"
           id="path2126"
           style="fill:none;stroke:#cacacb;stroke-width:5.00250006;stroke-linecap:butt;stroke-linejoin:bevel;stroke-miterlimit:10;stroke-dasharray:7.5, 22.5;stroke-dashoffset:0;stroke-opacity:1"
           d="m 1597.9,1421.25 -0.32,-8.18 -0.98,-8.12 -1.62,-8.02 -2.24,-7.87 -2.87,-7.66 -3.47,-7.42 -4.04,-7.1 -4.6,-6.77 -5.11,-6.38 -5.61,-5.96 -6.07,-5.5 -6.49,-4.98 -6.85,-4.47 -7.2,-3.89 -7.47,-3.33 -7.72,-2.71 -7.91,-2.09 -8.06,-1.45 -8.13,-0.82 -8.19,-0.16 -8.16,0.49 -8.11,1.13 -7.98,1.78 -7.82,2.4 -7.61,3.02 -7.34,3.61 -7.03,4.18 -6.67,4.74 -6.28,5.24 -5.85,5.73 -5.37,6.17 -4.86,6.59 -4.32,6.94 -3.76,7.27 -3.17,7.54 -2.56,7.78 -1.93,7.95 -1.29,8.07 -0.66,8.16 v 8.18 l 0.66,8.16 1.29,8.07 1.93,7.95 2.56,7.78 3.17,7.54 3.76,7.27 4.32,6.94 4.86,6.59 5.37,6.17 5.85,5.73 6.28,5.24 6.67,4.74 7.03,4.18 7.34,3.61 7.61,3.02 7.82,2.4 7.98,1.78 8.11,1.13 8.16,0.49 8.19,-0.16 8.13,-0.82 8.06,-1.45 7.91,-2.09 7.72,-2.71 7.47,-3.33 7.2,-3.89 6.85,-4.47 6.49,-4.98 6.07,-5.5 5.61,-5.96 5.11,-6.38 4.6,-6.76 4.04,-7.11 3.47,-7.42 2.87,-7.66 2.24,-7.87 1.62,-8.02 0.98,-8.12 0.32,-8.18" />
        <path
           inkscape:connector-curvature="0"
           id="path2128"
           style="fill:none;stroke:#cacacb;stroke-width:5.00250006;stroke-linecap:butt;stroke-linejoin:bevel;stroke-miterlimit:10;stroke-dasharray:7.5, 22.5;stroke-dashoffset:0;stroke-opacity:1"
           d="m 1649.35,1421.25 -0.49,-12.26 -1.46,-12.19 -2.42,-12.03 -3.38,-11.8 -4.3,-11.49 -5.19,-11.12 -6.07,-10.67 -6.89,-10.16 -7.68,-9.57 -8.42,-8.93 -9.09,-8.23 -9.73,-7.5 -10.29,-6.69 -10.79,-5.85 -11.22,-4.98 -11.58,-4.06 -11.86,-3.15 -12.08,-2.18 -12.21,-1.21 -12.27,-0.25 -12.25,0.73 -12.15,1.71 -11.99,2.66 -11.73,3.61 -11.4,4.52 -11.02,5.42 -10.54,6.28 -10.01,7.09 -9.42,7.87 -8.77,8.59 -8.06,9.26 -7.29,9.87 -6.48,10.42 -5.64,10.9 -4.75,11.32 -3.84,11.66 -2.9,11.92 -1.94,12.12 -0.98,12.23 v 12.28 l 0.98,12.23 1.94,12.12 2.9,11.92 3.84,11.66 4.75,11.32 5.64,10.9 6.48,10.42 7.29,9.87 8.06,9.26 8.77,8.59 9.42,7.87 10.01,7.09 10.54,6.28 11.02,5.42 11.4,4.52 11.73,3.61 11.99,2.66 12.15,1.71 12.25,0.73 12.27,-0.25 12.21,-1.21 12.08,-2.18 11.86,-3.15 11.58,-4.06 11.22,-4.98 10.79,-5.85 10.29,-6.69 9.73,-7.49 9.09,-8.24 8.42,-8.93 7.68,-9.57 6.89,-10.16 6.07,-10.67 5.19,-11.12 4.3,-11.49 3.38,-11.8 2.42,-12.03 1.46,-12.19 0.49,-12.26" />
        <path
           inkscape:connector-curvature="0"
           id="path2130"
           style="fill:none;stroke:#cacacb;stroke-width:5.00250006;stroke-linecap:butt;stroke-linejoin:bevel;stroke-miterlimit:10;stroke-dasharray:7.5, 22.5;stroke-dashoffset:0;stroke-opacity:1"
           d="m 1700.8,1421.25 -0.65,-16.35 -1.94,-16.24 -3.24,-16.05 -4.5,-15.73 -5.73,-15.33 -6.94,-14.82 -8.08,-14.23 -9.2,-13.54 -10.23,-12.76 -11.22,-11.91 -12.13,-10.98 -12.97,-9.99 -13.72,-8.92 -14.38,-7.8 -14.96,-6.64 -15.44,-5.43 -15.81,-4.17 -16.11,-2.92 -16.28,-1.62 -16.36,-0.33 -16.34,0.97 -16.2,2.27 -15.98,3.56 -15.64,4.81 -15.21,6.04 -14.68,7.22 -14.06,8.37 -13.35,9.45 -12.56,10.5 -11.69,11.45 -10.74,12.35 -9.72,13.16 -8.65,13.9 -7.51,14.53 -6.34,15.08 -5.12,15.55 -3.86,15.9 -2.6,16.15 -1.3,16.32 v 16.36 l 1.3,16.32 2.6,16.15 3.86,15.9 5.12,15.55 6.34,15.08 7.51,14.53 8.65,13.9 9.72,13.16 10.74,12.35 11.69,11.45 12.56,10.5 13.35,9.45 14.06,8.37 14.68,7.22 15.21,6.04 15.64,4.81 15.98,3.56 16.2,2.27 16.34,0.97 16.36,-0.33 16.28,-1.62 16.11,-2.92 15.81,-4.17 15.44,-5.43 14.96,-6.64 14.38,-7.8 13.72,-8.92 12.97,-9.99 12.13,-10.98 11.22,-11.91 10.23,-12.76 9.2,-13.54 8.08,-14.23 6.94,-14.82 5.73,-15.33 4.5,-15.73 3.24,-16.05 1.94,-16.24 0.65,-16.35" />
        <path
           inkscape:connector-curvature="0"
           id="path2132"
           style="fill:none;stroke:#cacacb;stroke-width:5.00250006;stroke-linecap:butt;stroke-linejoin:bevel;stroke-miterlimit:10;stroke-dasharray:7.5, 22.5;stroke-dashoffset:0;stroke-opacity:1"
           d="m 1803.7,1421.25 -0.97,-24.52 -2.93,-24.38 -4.85,-24.06 -6.74,-23.6 -8.6,-22.99 -10.4,-22.24 -12.13,-21.33 -13.78,-20.31 -15.37,-19.14 -16.82,-17.87 -18.21,-16.48 -19.44,-14.97 -20.58,-13.38 -21.58,-11.71 -22.44,-9.95 -23.15,-8.14 -23.73,-6.27 -24.16,-4.37 -24.41,-2.44 -24.55,-0.49 -24.5,1.46 -24.31,3.41 -23.96,5.32 -23.46,7.22 -22.81,9.05 -22.03,10.84 -21.09,12.55 -20.03,14.19 -18.83,15.74 -17.54,17.18 -16.1,18.52 -14.59,19.75 -12.97,20.84 -11.27,21.8 -9.51,22.63 -7.68,23.32 -5.8,23.84 -3.88,24.24 -1.95,24.47 v 24.54 l 1.95,24.47 3.88,24.24 5.8,23.84 7.68,23.32 9.51,22.63 11.27,21.8 12.97,20.84 14.59,19.75 16.1,18.52 17.54,17.18 18.83,15.74 20.03,14.19 21.09,12.55 22.03,10.84 22.81,9.05 23.46,7.22 23.96,5.32 24.31,3.41 24.5,1.46 24.55,-0.49 24.41,-2.44 24.16,-4.37 23.73,-6.27 23.15,-8.14 22.44,-9.95 21.58,-11.71 20.58,-13.38 19.44,-14.97 18.21,-16.48 16.82,-17.87 15.37,-19.14 13.78,-20.3 12.13,-21.34 10.4,-22.24 8.6,-22.99 6.74,-23.6 4.85,-24.06 2.93,-24.38 0.97,-24.52" />
        <path
           inkscape:connector-curvature="0"
           id="path2134"
           style="fill:none;stroke:#cacacb;stroke-width:5.00250006;stroke-linecap:butt;stroke-linejoin:bevel;stroke-miterlimit:10;stroke-dasharray:7.5, 22.5;stroke-dashoffset:0;stroke-opacity:1"
           d="m 1855.15,1421.25 -1.14,-28.61 -3.4,-28.44 -5.66,-28.07 -7.88,-27.53 -10.02,-26.83 -12.14,-25.93 -14.15,-24.9 -16.09,-23.69 -17.92,-22.34 -19.63,-20.84 -21.23,-19.23 -22.69,-17.46 -24.01,-15.62 -25.17,-13.65 -26.17,-11.61 -27.02,-9.5 -27.69,-7.32 -28.18,-5.1 -28.49,-2.84 -28.63,-0.57 -28.59,1.71 -28.35,3.97 -27.96,6.21 -27.37,8.42 -26.62,10.57 -25.69,12.64 -24.61,14.64 -23.37,16.56 -21.98,18.35 -20.45,20.05 -18.78,21.62 -17.02,23.03 -15.14,24.31 -13.14,25.43 -11.1,26.41 -8.95,27.2 -6.77,27.82 -4.54,28.28 -2.27,28.54 v 28.64 l 2.27,28.54 4.54,28.28 6.77,27.82 8.95,27.2 11.1,26.41 13.14,25.43 15.14,24.31 17.02,23.03 18.78,21.62 20.45,20.05 21.98,18.35 23.37,16.56 24.61,14.64 25.69,12.64 26.62,10.57 27.37,8.42 27.96,6.21 28.35,3.97 28.59,1.71 28.63,-0.57 28.49,-2.84 28.18,-5.1 27.69,-7.32 27.02,-9.5 26.17,-11.61 25.17,-13.65 24.01,-15.62 22.69,-17.46 21.23,-19.23 19.63,-20.84 17.92,-22.34 16.09,-23.69 14.15,-24.9 12.14,-25.93 10.02,-26.83 7.88,-27.53 5.66,-28.07 3.4,-28.44 1.14,-28.61" />
        <path
           inkscape:connector-curvature="0"
           id="path2136"
           style="fill:none;stroke:#cacacb;stroke-width:5.00250006;stroke-linecap:butt;stroke-linejoin:bevel;stroke-miterlimit:10;stroke-dasharray:7.5, 22.5;stroke-dashoffset:0;stroke-opacity:1"
           d="m 1906.6,1421.25 -1.3,-32.7 -3.9,-32.5 -6.46,-32.08 -8.99,-31.47 -11.47,-30.65 -13.86,-29.64 -16.18,-28.46 -18.38,-27.07 -20.49,-25.54 -22.43,-23.82 -24.27,-21.96 -25.92,-19.97 -27.44,-17.84 -28.77,-15.6 -29.92,-13.27 -30.87,-10.86 -31.64,-8.37 -32.2,-5.82 -32.57,-3.24 -32.72,-0.66 -32.67,1.95 -32.42,4.54 -31.94,7.1 -31.28,9.62 -30.42,12.07 -29.37,14.45 -28.12,16.75 -26.71,18.91 -25.12,20.99 -23.36,22.9 -21.48,24.7 -19.45,26.32 -17.29,27.79 -15.04,29.07 -12.67,30.17 -10.23,31.09 -7.74,31.8 -5.19,32.31 -2.6,32.63 v 32.72 l 2.6,32.63 5.19,32.31 7.74,31.8 10.23,31.09 12.67,30.17 15.04,29.07 17.29,27.79 19.45,26.32 21.48,24.7 23.36,22.9 25.12,20.99 26.71,18.92 28.12,16.74 29.37,14.45 30.42,12.07 31.28,9.62 31.94,7.1 32.42,4.54 32.67,1.95 32.72,-0.66 32.57,-3.24 32.2,-5.82 31.64,-8.37 30.87,-10.86 29.92,-13.27 28.77,-15.6 27.44,-17.84 25.92,-19.97 24.27,-21.96 22.43,-23.82 20.49,-25.54 18.38,-27.07 16.18,-28.45 13.86,-29.65 11.47,-30.65 8.99,-31.47 6.46,-32.08 3.9,-32.5 1.3,-32.7" />
        <path
           inkscape:connector-curvature="0"
           id="path2138"
           style="fill:none;stroke:#cacacb;stroke-width:5.00250006;stroke-linecap:butt;stroke-linejoin:bevel;stroke-miterlimit:10;stroke-dasharray:7.5, 22.5;stroke-dashoffset:0;stroke-opacity:1"
           d="m 1958.05,1421.25 -1.46,-36.79 -4.38,-36.55 -7.28,-36.1 -10.11,-35.4 -12.91,-34.48 -15.59,-33.36 -18.2,-32.01 -20.68,-30.45 -23.04,-28.72 -25.24,-26.81 -27.3,-24.7 -29.18,-22.47 -30.86,-20.07 -32.36,-17.56 -33.66,-14.925 -34.73,-12.21 -35.6,-9.411 -36.22,-6.558 -36.64,-3.653 -36.82,-0.734 -36.75,2.199 -36.47,5.106 -35.93,7.988 -35.19,10.824 -34.23,13.574 -33.04,16.26 -31.63,18.83 -30.05,21.29 -28.25,23.6 -26.29,25.78 -24.17,27.78 -21.88,29.61 -19.45,31.26 -16.91,32.7 -14.26,33.95 -11.51,34.97 -8.71,35.78 -5.83,36.35 -2.92,36.7 v 36.82 l 2.92,36.7 5.83,36.35 8.71,35.78 11.51,34.97 14.26,33.95 16.91,32.7 19.45,31.26 21.88,29.61 24.17,27.78 26.29,25.78 28.25,23.6 30.05,21.29 31.63,18.83 33.04,16.26 34.23,13.57 35.19,10.83 35.93,7.99 36.47,5.1 36.75,2.2 36.82,-0.73 36.64,-3.66 36.22,-6.55 35.6,-9.41 34.73,-12.22 33.66,-14.92 32.36,-17.56 30.86,-20.07 29.18,-22.47 27.3,-24.7 25.24,-26.81 23.04,-28.72 20.68,-30.45 18.2,-32.01 15.59,-33.36 12.91,-34.48 10.11,-35.4 7.28,-36.1 4.38,-36.55 1.46,-36.79" />
        <path
           inkscape:connector-curvature="0"
           id="path2140"
           style="fill:none;stroke:#cacacb;stroke-width:5.00250006;stroke-linecap:butt;stroke-linejoin:bevel;stroke-miterlimit:10;stroke-dasharray:7.5, 22.5;stroke-dashoffset:0;stroke-opacity:1"
           d="m 2060.95,1421.25 -1.79,-44.96 -5.36,-44.69 -8.89,-44.11 -12.36,-43.27 -15.76,-42.14 -19.06,-40.77 -22.25,-39.12 -25.27,-37.23 -28.17,-35.1 -30.85,-32.75 -33.36,-30.208 -35.66,-27.449 -37.72,-24.531 -39.56,-21.465 -41.14,-18.25 -42.45,-14.926 -43.5,-11.496 -44.28,-8.012 -44.78,-4.468 -44.99,-0.891 -44.93,2.684 -44.56,6.238 -43.93,9.766 -43.01,13.222 -41.83,16.598 -40.37,19.875 -38.67,23.012 -36.72,26.015 -34.54,28.846 -32.14,31.51 -29.52,33.95 -26.74,36.19 -23.78,38.21 -20.674,39.97 -17.422,41.5 -14.078,42.74 -10.633,43.72 -7.133,44.43 -3.57,44.86 v 45 l 3.57,44.86 7.133,44.43 10.633,43.72 14.078,42.74 17.422,41.5 20.674,39.97 23.78,38.21 26.74,36.19 29.52,33.95 32.14,31.51 34.54,28.85 36.72,26.01 38.67,23.01 40.37,19.88 41.83,16.6 43.01,13.22 43.93,9.76 44.56,6.24 44.93,2.69 44.99,-0.89 44.78,-4.47 44.28,-8.02 43.5,-11.49 42.45,-14.93 41.14,-18.24 39.56,-21.47 37.72,-24.53 35.66,-27.45 33.36,-30.21 30.85,-32.75 28.17,-35.1 25.27,-37.23 22.25,-39.12 19.06,-40.77 15.76,-42.14 12.36,-43.27 8.89,-44.11 5.36,-44.69 1.79,-44.96" />
        <path
           inkscape:connector-curvature="0"
           id="path2142"
           style="fill:none;stroke:#cacacb;stroke-width:5.00250006;stroke-linecap:butt;stroke-linejoin:bevel;stroke-miterlimit:10;stroke-dasharray:7.5, 22.5;stroke-dashoffset:0;stroke-opacity:1"
           d="m 2112.4,1421.25 -1.95,-49.05 -5.84,-48.74 -9.7,-48.13 -13.49,-47.2 -17.2,-45.98 -20.8,-44.47 -24.26,-42.67 -27.58,-40.62 -30.71,-38.3 -33.67,-35.727 -36.39,-32.949 -38.89,-29.945 -41.16,-26.762 -43.15,-23.414 -44.87,-19.906 -46.31,-16.282 -47.47,-12.546 -48.3,-8.739 -48.85,-4.875 -49.09,-0.976 -49,2.926 -48.62,6.816 -47.92,10.652 -46.92,14.422 -45.63,18.113 -44.05,21.676 -42.18,25.102 -40.06,28.379 -37.68,31.476 -35.05,34.367 -32.22,37.042 -29.171,39.48 -25.934,41.68 -22.551,43.61 -19.015,45.25 -15.352,46.63 -11.601,47.71 -7.778,48.47 -3.902,48.93 v 49.1 l 3.902,48.93 7.778,48.47 11.601,47.71 15.352,46.63 19.015,45.25 22.551,43.61 25.934,41.68 29.171,39.48 32.22,37.04 35.05,34.37 37.68,31.48 40.06,28.37 42.18,25.11 44.05,21.67 45.63,18.11 46.92,14.43 47.92,10.65 48.62,6.82 49,2.92 49.09,-0.98 48.85,-4.87 48.3,-8.74 47.47,-12.55 46.31,-16.28 44.87,-19.9 43.15,-23.42 41.16,-26.76 38.89,-29.94 36.39,-32.95 33.67,-35.73 30.71,-38.3 27.58,-40.62 24.26,-42.67 20.8,-44.47 17.2,-45.98 13.49,-47.2 9.7,-48.13 5.84,-48.74 1.95,-49.05" />
        <path
           inkscape:connector-curvature="0"
           id="path2144"
           style="fill:none;stroke:#cacacb;stroke-width:5.00250006;stroke-linecap:butt;stroke-linejoin:bevel;stroke-miterlimit:10;stroke-dasharray:7.5, 22.5;stroke-dashoffset:0;stroke-opacity:1"
           d="m 2163.85,1421.25 -2.12,-53.14 -6.32,-52.81 -10.51,-52.13 -14.61,-51.13 -18.63,-49.82 -22.53,-48.17 -26.29,-46.23 -29.87,-44 -33.28,-41.484 -36.46,-38.715 -39.43,-35.687 -42.14,-32.446 -44.59,-28.992 -46.74,-25.367 -48.62,-21.563 -50.16,-17.64 -51.42,-13.59 -52.34,-9.473 -52.92,-5.269 -53.17,-1.059 -53.08,3.164 -52.67,7.379 -51.92,11.543 -50.83,15.625 -49.44,19.617 -47.71,23.485 -45.7,27.203 -43.4,30.742 -40.82,34.094 -37.97,37.23 -34.906,40.123 -31.598,42.78 -28.101,45.15 -24.426,47.24 -20.598,49.03 -16.633,50.52 -12.57,51.68 -8.422,52.5 -4.222,53.02 v 53.18 l 4.222,53.02 8.422,52.5 12.57,51.69 16.633,50.51 20.598,49.03 24.426,47.24 28.101,45.15 31.598,42.78 34.906,40.12 37.97,37.23 40.82,34.1 43.4,30.74 45.7,27.2 47.71,23.49 49.44,19.61 50.83,15.63 51.92,11.54 52.67,7.38 53.08,3.16 53.17,-1.05 52.92,-5.27 52.34,-9.48 51.42,-13.59 50.16,-17.64 48.62,-21.56 46.74,-25.37 44.59,-28.99 42.14,-32.44 39.43,-35.69 36.46,-38.72 33.28,-41.48 29.87,-44 26.29,-46.23 22.53,-48.17 18.63,-49.82 14.61,-51.13 10.51,-52.13 6.32,-52.81 2.12,-53.14" />
        <path
           inkscape:connector-curvature="0"
           id="path2146"
           style="fill:none;stroke:#cacacb;stroke-width:5.00250006;stroke-linecap:butt;stroke-linejoin:bevel;stroke-miterlimit:10;stroke-dasharray:7.5, 22.5;stroke-dashoffset:0;stroke-opacity:1"
           d="m 2215.3,1421.25 -2.28,-57.23 -6.81,-56.87 -11.32,-56.14 -15.73,-55.07 -20.07,-53.64 -24.26,-51.88 -28.31,-49.79 -32.17,-47.384 -35.84,-44.676 -39.27,-41.683 -42.46,-38.438 -45.38,-34.945 -48.01,-31.223 -50.34,-27.312 -52.35,-23.231 -54.04,-18.988 -55.37,-14.641 -56.36,-10.191 -56.99,-5.684 -57.26,-1.14 -57.17,3.41 -56.72,7.949 -55.91,12.43 -54.75,16.828 -53.23,21.121 -51.38,25.289 -49.23,29.297 -46.73,33.105 -43.95,36.719 -40.899,40.094 -37.59,43.215 -34.027,46.069 -30.27,48.62 -26.301,50.88 -22.179,52.8 -17.918,54.4 -13.535,55.65 -9.067,56.55 -4.554,57.09 v 57.28 l 4.554,57.09 9.067,56.55 13.535,55.65 17.918,54.4 22.179,52.8 26.301,50.88 30.27,48.62 34.027,46.07 37.59,43.21 40.899,40.1 43.95,36.72 46.73,33.1 49.23,29.3 51.38,25.29 53.23,21.12 54.75,16.83 55.91,12.43 56.72,7.95 57.17,3.41 57.26,-1.14 56.99,-5.69 56.36,-10.19 55.37,-14.64 54.04,-18.99 52.35,-23.23 50.34,-27.31 48.01,-31.22 45.38,-34.95 42.46,-38.44 39.27,-41.68 35.84,-44.68 32.17,-47.38 28.31,-49.79 24.26,-51.88 20.07,-53.64 15.73,-55.07 11.32,-56.14 6.81,-56.87 2.28,-57.23" />
        <path
           inkscape:connector-curvature="0"
           id="path2148"
           style="fill:none;stroke:#cacacb;stroke-width:5.00250006;stroke-linecap:butt;stroke-linejoin:bevel;stroke-miterlimit:10;stroke-dasharray:7.5, 22.5;stroke-dashoffset:0;stroke-opacity:1"
           d="m 2318.2,1421.25 -2.6,-65.4 -7.8,-64.99 -12.92,-64.17 -17.99,-62.94 -22.93,-61.3 -27.73,-59.29 -32.35,-56.902 -36.77,-54.156 -40.95,-51.055 -44.88,-47.649 -48.53,-43.925 -51.87,-39.93 -54.87,-35.684 -57.53,-31.214 -59.83,-26.543 -61.75,-21.707 -63.28,-16.731 -64.41,-11.656 -65.14,-6.496 -65.43,-1.297 -65.34,3.898 -64.83,9.086 -63.89,14.196 -62.57,19.238 -60.83,24.14 -58.74,28.907 -56.25,33.472 -53.405,37.836 -50.234,41.965 -46.742,45.824 -42.95,49.387 -38.898,52.652 -34.59,55.564 -30.058,58.15 -25.352,60.35 -20.473,62.16 -15.465,63.6 -10.375,64.64 -5.195,65.24 v 65.46 l 5.195,65.24 10.375,64.64 15.465,63.6 20.473,62.17 25.352,60.34 30.058,58.15 34.59,55.56 38.898,52.66 42.95,49.38 46.742,45.83 50.234,41.96 53.405,37.84 56.25,33.47 58.74,28.91 60.83,24.14 62.57,19.24 63.89,14.19 64.83,9.09 65.34,3.9 65.43,-1.3 65.14,-6.5 64.41,-11.65 63.28,-16.73 61.75,-21.71 59.83,-26.54 57.53,-31.22 54.87,-35.68 51.87,-39.93 48.53,-43.93 44.88,-47.65 40.95,-51.06 36.77,-54.15 32.35,-56.9 27.73,-59.29 22.93,-61.3 17.99,-62.94 12.92,-64.17 7.8,-64.99 2.6,-65.4" />
        <path
           inkscape:connector-curvature="0"
           id="path2150"
           style="fill:none;stroke:#cacacb;stroke-width:5.00250006;stroke-linecap:butt;stroke-linejoin:bevel;stroke-miterlimit:10;stroke-dasharray:7.5, 22.5;stroke-dashoffset:0;stroke-opacity:1"
           d="m 2369.65,1421.25 -2.77,-69.49 -8.27,-69.05 -13.74,-68.17 -19.11,-66.88 -24.36,-65.14 -29.46,-62.99 -34.38,-60.46 -39.07,-57.539 -43.51,-54.25 -47.69,-50.625 -51.56,-46.664 -55.1,-42.433 -58.3,-37.914 -61.13,-33.165 -63.57,-28.199 -65.61,-23.062 -67.24,-17.785 -68.44,-12.375 -69.2,-6.907 -69.53,-1.379 -69.42,4.149 -68.87,9.644 -67.89,15.09 -66.48,20.438 -64.64,25.656 -62.4,30.703 -59.77,35.567 -56.742,40.207 -53.378,44.589 -49.657,48.68 -45.636,52.481 -41.329,55.933 -36.75,59.047 -31.941,61.773 -26.934,64.12 -21.753,66.06 -16.434,67.57 -11.02,68.67 -5.527,69.33 v 69.54 l 5.527,69.33 11.02,68.67 16.434,67.57 21.753,66.06 26.934,64.12 31.941,61.77 36.75,59.05 41.329,55.93 45.636,52.48 49.657,48.68 53.378,44.59 56.742,40.21 59.77,35.57 62.4,30.7 64.64,25.66 66.48,20.43 67.89,15.09 68.87,9.65 69.42,4.15 69.53,-1.38 69.2,-6.91 68.44,-12.37 67.24,-17.79 65.61,-23.06 63.57,-28.2 61.13,-33.16 58.3,-37.92 55.1,-42.43 51.56,-46.67 47.69,-50.62 43.51,-54.25 39.07,-57.54 34.38,-60.46 29.46,-62.99 24.36,-65.14 19.11,-66.88 13.74,-68.17 8.27,-69.05 2.77,-69.49" />
        <path
           inkscape:connector-curvature="0"
           id="path2152"
           style="fill:none;stroke:#cacacb;stroke-width:5.00250006;stroke-linecap:butt;stroke-linejoin:bevel;stroke-miterlimit:10;stroke-dasharray:7.5, 22.5;stroke-dashoffset:0;stroke-opacity:1"
           d="m 2421.1,1421.25 -2.92,-73.58 -8.77,-73.11 -14.55,-72.19 -20.23,-70.8 -25.8,-68.97 -31.19,-66.705 -36.4,-64.012 -41.36,-60.922 -46.08,-57.441 -50.49,-53.598 -54.6,-49.418 -58.34,-44.926 -61.73,-40.144 -64.73,-35.118 -67.31,-29.863 -69.46,-24.422 -71.19,-18.816 -72.47,-13.11 -73.27,-7.304 -73.62,-1.469 -73.51,4.395 -72.92,10.214 -71.89,15.973 -70.38,21.637 -68.44,27.168 -66.08,32.511 -63.276,37.665 -60.082,42.562 -56.516,47.215 -52.582,51.547 -48.32,55.566 -43.766,59.227 -38.906,62.511 -33.82,65.417 -28.524,67.89 -23.031,69.94 -17.399,71.55 -11.664,72.71 -5.847,73.4 v 73.64 l 5.847,73.4 11.664,72.71 17.399,71.55 23.031,69.94 28.524,67.89 33.82,65.42 38.906,62.51 43.766,59.22 48.32,55.57 52.582,51.55 56.516,47.21 60.082,42.57 63.276,37.66 66.08,32.51 68.44,27.17 70.38,21.64 71.89,15.97 72.92,10.21 73.51,4.4 73.62,-1.47 73.27,-7.31 72.47,-13.1 71.19,-18.82 69.46,-24.42 67.31,-29.87 64.73,-35.11 61.73,-40.15 58.34,-44.92 54.6,-49.42 50.49,-53.6 46.08,-57.44 41.36,-60.92 36.4,-64.01 31.19,-66.71 25.8,-68.97 20.23,-70.8 14.55,-72.19 8.77,-73.11 2.92,-73.58" />
        <path
           inkscape:connector-curvature="0"
           id="path2154"
           style="fill:none;stroke:#cacacb;stroke-width:5.00250006;stroke-linecap:butt;stroke-linejoin:bevel;stroke-miterlimit:10;stroke-dasharray:7.5, 22.5;stroke-dashoffset:0;stroke-opacity:1"
           d="m 2472.55,1421.25 -3.09,-77.67 -9.25,-77.17 -15.36,-76.2 -21.35,-74.73 -27.23,-72.81 -32.93,-70.408 -38.42,-67.567 -43.66,-64.304 -48.63,-60.629 -53.31,-56.582 -57.62,-52.16 -61.58,-47.426 -65.17,-42.375 -68.32,-37.063 -71.04,-31.523 -73.34,-25.778 -75.14,-19.867 -76.49,-13.84 -77.35,-7.707 -77.7,-1.546 -77.6,4.636 -76.97,10.778 -75.88,16.867 -74.29,22.844 -72.25,28.664 -69.74,34.32 -66.797,39.758 -63.422,44.933 -59.652,49.828 -55.508,54.415 -51.008,58.648 -46.183,62.523 -41.071,65.993 -35.703,69.038 -30.101,71.66 -24.317,73.83 -18.367,75.53 -12.316,76.74 -6.172,77.49 v 77.72 l 6.172,77.49 12.316,76.74 18.367,75.53 24.317,73.83 30.101,71.66 35.703,69.04 41.071,65.99 46.183,62.52 51.008,58.65 55.508,54.42 59.652,49.82 63.422,44.94 66.797,39.76 69.74,34.32 72.25,28.66 74.29,22.84 75.88,16.87 76.97,10.78 77.6,4.64 77.7,-1.55 77.35,-7.71 76.49,-13.84 75.14,-19.87 73.34,-25.77 71.04,-31.53 68.32,-37.06 65.17,-42.37 61.58,-47.43 57.62,-52.16 53.31,-56.58 48.63,-60.63 43.66,-64.31 38.42,-67.56 32.93,-70.41 27.23,-72.81 21.35,-74.73 15.36,-76.2 9.25,-77.17 3.09,-77.67" />
        <path
           inkscape:connector-curvature="0"
           id="path2156"
           style="fill:none;stroke:#cacacb;stroke-width:5.00250006;stroke-linecap:butt;stroke-linejoin:bevel;stroke-miterlimit:10;stroke-dasharray:7.5, 22.5;stroke-dashoffset:0;stroke-opacity:1"
           d="m 2575.45,1421.25 -3.41,-85.84 -10.23,-85.3 -16.97,-84.22 -23.61,-82.6 -30.09,-80.47 -36.39,-77.816 -42.46,-74.684 -48.27,-71.078 -53.75,-67.012 -58.91,-62.527 -63.69,-57.66 -68.07,-52.41 -72.02,-46.836 -75.51,-40.969 -78.53,-34.836 -81.05,-28.492 -83.06,-21.961 -84.54,-15.293 -85.48,-8.527 -85.89,-1.707 -85.75,5.121 -85.09,11.926 -83.86,18.636 -82.12,25.246 -79.85,31.688 -77.084,37.934 -73.825,43.933 -70.093,49.668 -65.934,55.07 -61.348,60.145 -56.378,64.828 -51.047,69.098 -45.395,72.929 -39.457,76.313 -33.273,79.203 -26.871,81.61 -20.309,83.47 -13.606,84.83 -6.824,85.64 v 85.9 l 6.824,85.64 13.606,84.83 20.309,83.47 26.871,81.61 33.273,79.2 39.457,76.32 45.395,72.93 51.047,69.1 56.378,64.82 61.348,60.15 65.934,55.07 70.093,49.66 73.825,43.94 77.084,37.93 79.85,31.69 82.12,25.24 83.86,18.64 85.09,11.93 85.75,5.12 85.89,-1.71 85.48,-8.53 84.54,-15.29 83.06,-21.96 81.05,-28.49 78.53,-34.84 75.51,-40.96 72.02,-46.84 68.07,-52.41 63.69,-57.66 58.91,-62.53 53.75,-67.01 48.27,-71.08 42.46,-74.68 36.39,-77.82 30.09,-80.47 23.61,-82.6 16.97,-84.22 10.23,-85.3 3.41,-85.84" />
        <path
           inkscape:connector-curvature="0"
           id="path2158"
           style="fill:none;stroke:#cacacb;stroke-width:5.00250006;stroke-linecap:butt;stroke-linejoin:bevel;stroke-miterlimit:10;stroke-dasharray:7.5, 22.5;stroke-dashoffset:0;stroke-opacity:1"
           d="m 2626.9,1421.25 -3.58,-89.93 -10.71,-89.36 -17.78,-88.23 -24.73,-86.53 -31.53,-84.302 -38.12,-81.527 -44.48,-78.238 -50.57,-74.461 -56.31,-70.207 -61.71,-65.504 -66.72,-60.398 -71.32,-54.907 -75.45,-49.074 -79.1,-42.914 -82.27,-36.504 -84.91,-29.84 -87.02,-23.011 -88.55,-16.02 -89.56,-8.934 -89.99,-1.785 -89.83,5.364 -89.13,12.488 -87.87,19.531 -86.02,26.441 -83.66,33.196 -80.746,39.742 -77.343,46.027 -73.438,52.032 -69.066,57.703 -64.27,63 -59.062,67.914 -53.481,72.386 -47.558,76.411 -41.332,79.945 -34.86,82.976 -28.148,85.49 -21.27,87.45 -14.258,88.87 -7.156,89.71 v 90 l 7.156,89.71 14.258,88.87 21.27,87.45 28.148,85.49 34.86,82.98 41.332,79.94 47.558,76.41 53.481,72.39 59.062,67.91 64.27,63 69.066,57.7 73.438,52.04 77.343,46.02 80.746,39.75 83.66,33.19 86.02,26.45 87.87,19.52 89.13,12.49 89.83,5.37 89.99,-1.79 89.56,-8.93 88.55,-16.02 87.02,-23.01 84.91,-29.84 82.27,-36.51 79.1,-42.91 75.45,-49.08 71.32,-54.9 66.72,-60.4 61.71,-65.5 56.31,-70.21 50.57,-74.46 44.48,-78.24 38.12,-81.53 31.53,-84.3 24.73,-86.53 17.78,-88.23 10.71,-89.36 3.58,-89.93" />
        <path
           inkscape:connector-curvature="0"
           id="path2160"
           style="fill:none;stroke:#cacacb;stroke-width:5.00250006;stroke-linecap:butt;stroke-linejoin:bevel;stroke-miterlimit:10;stroke-dasharray:7.5, 22.5;stroke-dashoffset:0;stroke-opacity:1"
           d="m 2678.35,1421.25 -3.74,-94.02 -11.2,-93.42 -18.59,-92.24 -25.85,-90.47 -32.96,-88.131 -39.86,-85.231 -46.5,-81.793 -52.86,-77.843 -58.88,-73.395 -64.51,-68.488 -69.76,-63.145 -74.56,-57.402 -78.87,-51.301 -82.71,-44.867 -86.01,-38.16 -88.76,-31.199 -90.97,-24.051 -92.58,-16.75 -93.63,-9.336 -94.08,-1.875 -93.92,5.609 -93.19,13.059 -91.84,20.414 -89.94,27.644 -87.46,34.711 -84.421,41.543 -80.855,48.125 -76.778,54.391 -72.211,60.324 -67.191,65.863 -61.742,71.004 -55.91,75.676 -49.719,79.883 -43.223,83.578 -36.433,86.753 -29.43,89.37 -22.238,91.42 -14.91,92.91 -7.473,93.79 v 94.1 l 7.473,93.79 14.91,92.91 22.238,91.42 29.43,89.37 36.433,86.75 43.223,83.58 49.719,79.88 55.91,75.68 61.742,71 67.191,65.87 72.211,60.32 76.778,54.39 80.855,48.13 84.421,41.54 87.46,34.71 89.94,27.65 91.84,20.41 93.19,13.06 93.92,5.61 94.08,-1.88 93.63,-9.33 92.58,-16.75 90.97,-24.05 88.76,-31.2 86.01,-38.16 82.71,-44.87 78.87,-51.3 74.56,-57.4 69.76,-63.15 64.51,-68.49 58.88,-73.39 52.86,-77.85 46.5,-81.79 39.86,-85.23 32.96,-88.13 25.85,-90.47 18.59,-92.24 11.2,-93.42 3.74,-94.02" />
        <path
           inkscape:connector-curvature="0"
           id="path2162"
           style="fill:none;stroke:#cacacb;stroke-width:5.00250006;stroke-linecap:butt;stroke-linejoin:bevel;stroke-miterlimit:10;stroke-dasharray:7.5, 22.5;stroke-dashoffset:0;stroke-opacity:1"
           d="m 2729.8,1421.25 -3.9,-98.11 -11.69,-97.48 -19.39,-96.25 -26.98,-94.4 -34.4,-91.959 -41.59,-88.942 -48.52,-85.351 -55.16,-81.227 -61.43,-76.59 -67.33,-71.464 -72.78,-65.891 -77.8,-59.902 -82.31,-53.528 -86.3,-46.812 -89.74,-39.821 -92.63,-32.554 -94.93,-25.106 -96.61,-17.472 -97.7,-9.743 -98.16,-1.949 -98.01,5.848 -97.24,13.621 -95.84,21.309 -93.84,28.843 -91.266,36.219 -88.086,43.356 -84.375,50.214 -80.117,56.758 -75.352,62.942 -70.109,68.73 -64.434,74.082 -58.332,78.977 -51.886,83.355 -45.098,87.211 -38.016,90.524 -30.715,93.252 -23.203,95.4 -15.554,96.95 -7.801,97.87 v 98.18 l 7.801,97.87 15.554,96.95 23.203,95.4 30.715,93.25 38.016,90.53 45.098,87.21 51.886,83.35 58.332,78.98 64.434,74.08 70.109,68.73 75.352,62.94 80.117,56.76 84.375,50.22 88.086,43.35 91.266,36.22 93.84,28.84 95.84,21.31 97.24,13.62 98.01,5.85 98.16,-1.95 97.7,-9.74 96.61,-17.47 94.93,-25.11 92.63,-32.55 89.74,-39.82 86.3,-46.82 82.31,-53.52 77.8,-59.91 72.78,-65.89 67.33,-71.46 61.43,-76.59 55.16,-81.23 48.52,-85.35 41.59,-88.94 34.4,-91.96 26.98,-94.4 19.39,-96.25 11.69,-97.48 3.9,-98.11" />
        <path
           inkscape:connector-curvature="0"
           id="path2164"
           style="fill:none;stroke:#dfe0e1;stroke-width:5.00250006;stroke-linecap:butt;stroke-linejoin:round;stroke-miterlimit:10;stroke-dasharray:none;stroke-opacity:1"
           d="m 1495,1421.25 v 0 0 0 0 0 0 0 0 0 0 0 0 0 0 0 0 0 0 0 0 0 0 0 0 0 0 0 0 0 0 0 0 0 0 0 0 0 0 0 0 0 0 0 0 0 0 0 0 0 0 0 0 0 0 0 0 0 0 0 0 0 0 0 0 0 0 0 0 0 0 0 0 0 0 0 0 0 0 0" />
        <path
           inkscape:connector-curvature="0"
           id="path2166"
           style="fill:none;stroke:#dfe0e1;stroke-width:5.00250006;stroke-linecap:butt;stroke-linejoin:round;stroke-miterlimit:10;stroke-dasharray:none;stroke-opacity:1"
           d="m 1752.25,1421.25 -0.81,-20.44 -2.44,-20.31 -4.04,-20.05 -5.62,-19.67 -7.17,-19.15 -8.66,-18.54 -10.11,-17.78 -11.49,-16.92 -12.8,-15.96 -14.03,-14.88 -15.15,-13.73 -16.21,-12.48 -17.15,-11.15 -17.98,-9.75 -18.7,-8.3 -19.3,-6.78 -19.77,-5.23 -20.13,-3.64 -20.35,-2.03 -20.45,-0.41 -20.42,1.22 -20.26,2.84 -19.97,4.44 -19.55,6.01 -19.01,7.54 -18.36,9.03 -17.57,10.46 -16.7,11.83 -15.69,13.11 -14.61,14.32 -13.42,15.44 -12.16,16.45 -10.81,17.36 -9.38,18.17 -7.93,18.86 -6.4,19.43 -4.83,19.88 -3.24,20.2 -1.63,20.38 v 20.46 l 1.63,20.38 3.24,20.2 4.83,19.88 6.4,19.43 7.93,18.86 9.38,18.17 10.81,17.36 12.16,16.45 13.42,15.44 14.61,14.32 15.69,13.11 16.7,11.83 17.57,10.46 18.36,9.03 19.01,7.54 19.55,6.01 19.97,4.44 20.26,2.84 20.42,1.22 20.45,-0.41 20.35,-2.03 20.13,-3.64 19.77,-5.23 19.3,-6.78 18.7,-8.3 17.98,-9.75 17.15,-11.15 16.21,-12.48 15.15,-13.72 14.03,-14.89 12.8,-15.96 11.49,-16.92 10.11,-17.78 8.66,-18.54 7.17,-19.15 5.62,-19.67 4.04,-20.05 2.44,-20.31 0.81,-20.44" />
        <path
           inkscape:connector-curvature="0"
           id="path2168"
           style="fill:none;stroke:#dfe0e1;stroke-width:5.00250006;stroke-linecap:butt;stroke-linejoin:round;stroke-miterlimit:10;stroke-dasharray:none;stroke-opacity:1"
           d="m 2009.5,1421.25 -1.63,-40.87 -4.87,-40.63 -8.07,-40.1 -11.25,-39.33 -14.33,-38.32 -17.33,-37.06 -20.22,-35.56 -22.98,-33.84 -25.6,-31.92 -28.05,-29.77 -30.33,-27.46 -32.41,-24.96 -34.3,-22.297 -35.95,-19.516 -37.4,-16.59 -38.6,-13.558 -39.54,-10.465 -40.26,-7.281 -40.7,-4.059 -40.91,-0.809 -40.84,2.438 -40.51,5.668 -39.93,8.883 -39.11,12.019 -38.02,15.094 -36.71,18.059 -35.15,20.925 -33.38,23.649 -31.4,26.23 -29.21,28.64 -26.85,30.86 -24.31,32.91 -21.61,34.72 -18.8,36.35 -15.84,37.72 -12.79,38.86 -9.669,39.75 -6.481,40.38 -3.254,40.79 v 40.9 l 3.254,40.79 6.481,40.39 9.669,39.75 12.79,38.85 15.84,37.72 18.8,36.35 21.61,34.72 24.31,32.91 26.85,30.86 29.21,28.64 31.4,26.23 33.38,23.65 35.15,20.92 36.71,18.07 38.02,15.09 39.11,12.02 39.93,8.88 40.51,5.67 40.84,2.43 40.91,-0.8 40.7,-4.06 40.26,-7.28 39.54,-10.47 38.6,-13.56 37.4,-16.59 35.95,-19.51 34.3,-22.3 32.41,-24.96 30.33,-27.46 28.05,-29.77 25.6,-31.92 22.98,-33.83 20.22,-35.57 17.33,-37.06 14.33,-38.32 11.25,-39.33 8.07,-40.1 4.87,-40.62 1.63,-40.88" />
        <path
           inkscape:connector-curvature="0"
           id="path2170"
           style="fill:none;stroke:#dfe0e1;stroke-width:5.00250006;stroke-linecap:butt;stroke-linejoin:round;stroke-miterlimit:10;stroke-dasharray:none;stroke-opacity:1"
           d="m 2266.75,1421.25 -2.44,-61.31 -7.3,-60.93 -12.12,-60.16 -16.86,-59 -21.51,-57.47 -25.99,-55.59 -30.33,-53.34 -34.47,-50.774 -38.39,-47.871 -42.09,-44.66 -45.48,-41.184 -48.63,-37.434 -51.44,-33.457 -53.94,-29.265 -56.09,-24.883 -57.89,-20.348 -59.33,-15.691 -60.38,-10.922 -61.07,-6.09 -61.34,-1.223 -61.26,3.661 -60.77,8.515 -59.9,13.321 -58.66,18.027 -57.04,22.637 -55.05,27.089 -52.74,31.387 -50.07,35.477 -47.092,39.336 -43.82,42.961 -40.27,46.304 -36.465,49.348 -32.421,52.109 -28.184,54.5 -23.77,56.58 -19.191,58.28 -14.504,59.62 -9.719,60.6 -4.875,61.17 v 61.36 l 4.875,61.17 9.719,60.6 14.504,59.62 19.191,58.28 23.77,56.58 28.184,54.5 32.421,52.11 36.465,49.35 40.27,46.3 43.82,42.96 47.092,39.34 50.07,35.47 52.74,31.39 55.05,27.09 57.04,22.64 58.66,18.03 59.9,13.32 60.77,8.51 61.26,3.66 61.34,-1.22 61.07,-6.09 60.38,-10.92 59.33,-15.69 57.89,-20.35 56.09,-24.88 53.94,-29.27 51.44,-33.46 48.63,-37.43 45.48,-41.18 42.09,-44.66 38.39,-47.88 34.47,-50.77 30.33,-53.34 25.99,-55.58 21.51,-57.48 16.86,-59 12.12,-60.16 7.3,-60.93 2.44,-61.31" />
        <path
           inkscape:connector-curvature="0"
           id="path2172"
           style="fill:none;stroke:#dfe0e1;stroke-width:5.00250006;stroke-linecap:butt;stroke-linejoin:round;stroke-miterlimit:10;stroke-dasharray:none;stroke-opacity:1"
           d="m 2524,1421.25 -3.25,-81.76 -9.74,-81.23 -16.16,-80.21 -22.49,-78.67 -28.66,-76.63 -34.66,-74.121 -40.43,-71.121 -45.97,-67.688 -51.19,-63.824 -56.11,-59.558 -60.66,-54.907 -64.82,-49.914 -68.59,-44.609 -71.92,-39.016 -74.79,-33.179 -77.19,-27.137 -79.1,-20.906 -80.51,-14.567 -81.42,-8.121 -81.8,-1.629 -81.68,4.875 -81.02,11.356 -79.87,17.75 -78.2,24.046 -76.06,30.18 -73.41,36.129 -70.308,41.84 -66.758,47.297 -62.796,52.453 -58.426,57.277 -53.692,61.742 -48.613,65.805 -43.238,69.465 -37.578,72.676 -31.684,75.436 -25.594,77.71 -19.34,79.5 -12.96,80.79 -6.504,81.56 v 81.82 l 6.504,81.56 12.96,80.79 19.34,79.5 25.594,77.71 31.684,75.44 37.578,72.67 43.238,69.47 48.613,65.8 53.692,61.74 58.426,57.28 62.796,52.45 66.758,47.3 70.308,41.84 73.41,36.13 76.06,30.18 78.2,24.05 79.87,17.75 81.02,11.35 81.68,4.88 81.8,-1.63 81.42,-8.12 80.51,-14.57 79.1,-20.91 77.19,-27.13 74.79,-33.18 71.92,-39.02 68.59,-44.61 64.82,-49.91 60.66,-54.91 56.11,-59.56 51.19,-63.82 45.97,-67.69 40.43,-71.12 34.66,-74.12 28.66,-76.63 22.49,-78.67 16.16,-80.21 9.74,-81.23 3.25,-81.76" />
        <path
           inkscape:connector-curvature="0"
           id="path2174"
           style="fill:none;stroke:#dfe0e1;stroke-width:5.00250006;stroke-linecap:butt;stroke-linejoin:round;stroke-miterlimit:10;stroke-dasharray:none;stroke-opacity:1"
           d="m 2781.25,1421.25 -4.07,-102.2 -12.17,-101.54 -20.2,-100.26 -28.1,-98.34 -35.83,-95.789 -43.33,-92.644 -50.54,-88.907 -57.46,-84.609 -63.99,-79.785 -70.13,-74.438 -75.82,-68.636 -81.04,-62.395 -85.74,-55.762 -89.89,-48.765 -93.49,-41.473 -96.49,-33.926 -98.87,-26.136 -100.64,-18.204 -101.77,-10.152 -102.25,-2.035 -102.09,6.098 -101.29,14.191 -99.84,22.191 -97.76,30.055 -95.059,37.723 -91.762,45.16 -87.887,52.305 -83.453,59.121 -78.488,65.566 -73.031,71.594 -67.122,77.176 -60.769,82.257 -54.039,86.829 -46.981,90.847 -39.605,94.297 -31.988,97.136 -24.172,99.38 -16.203,100.98 -8.121,101.95 v 102.28 l 8.121,101.95 16.203,100.98 24.172,99.38 31.988,97.14 39.605,94.29 46.981,90.85 54.039,86.83 60.769,82.26 67.122,77.17 73.031,71.6 78.488,65.56 83.453,59.12 87.887,52.31 91.762,45.16 95.059,37.72 97.76,30.06 99.84,22.19 101.29,14.19 102.09,6.1 102.25,-2.04 101.77,-10.15 100.64,-18.2 98.87,-26.14 96.49,-33.92 93.49,-41.48 89.89,-48.77 85.74,-55.76 81.04,-62.39 75.82,-68.64 70.13,-74.44 63.99,-79.78 57.46,-84.61 50.54,-88.91 43.33,-92.64 35.83,-95.79 28.1,-98.34 20.2,-100.26 12.17,-101.54 4.07,-102.2" />
        <path
           inkscape:connector-curvature="0"
           id="path2176"
           style="fill:none;stroke:#dfe0e1;stroke-width:5.00250006;stroke-linecap:square;stroke-linejoin:round;stroke-miterlimit:10;stroke-dasharray:none;stroke-opacity:1"
           d="m 2781.25,1421.25 -4.07,102.2 -12.17,101.54 -20.2,100.26 -28.1,98.34 -35.83,95.79 -43.33,92.64 -50.54,88.91 -57.46,84.61 -63.99,79.78 -70.13,74.44 -75.82,68.64 -81.04,62.39 -85.74,55.76 -89.89,48.77 -93.49,41.48 -96.49,33.92 -98.87,26.14 -100.64,18.2 -101.77,10.15 -102.25,2.04 -102.09,-6.1 -101.29,-14.19 -99.84,-22.19 -97.76,-30.06 -95.059,-37.72 -91.762,-45.16 -87.887,-52.31 -83.453,-59.12 -78.488,-65.56 -73.031,-71.6 -67.122,-77.17 -60.769,-82.26 -54.039,-86.83 -46.981,-90.85 -39.605,-94.29 -31.988,-97.14 -24.172,-99.38 -16.203,-100.98 -8.121,-101.95 v -102.28 l 8.121,-101.95 16.203,-100.98 24.172,-99.38 31.988,-97.136 39.605,-94.297 46.981,-90.847 54.039,-86.829 60.769,-82.257 67.122,-77.176 73.031,-71.594 78.488,-65.566 83.453,-59.121 87.887,-52.305 91.762,-45.16 95.059,-37.723 97.76,-30.055 99.84,-22.191 101.29,-14.191 102.09,-6.098 102.25,2.035 101.77,10.152 100.64,18.204 98.87,26.136 96.49,33.926 93.49,41.473 89.89,48.765 85.74,55.762 81.04,62.395 75.82,68.636 70.13,74.438 63.99,79.785 57.46,84.609 50.54,88.907 43.33,92.644 35.83,95.789 28.1,98.34 20.2,100.26 12.17,101.54 4.07,102.2" />
        <g
           transform="scale(10)"
           id="g2178">
          <text
             id="text2224"
             style="font-variant:normal;font-weight:normal;font-size:9.99975014px;font-family:Helvetica;-inkscape-font-specification:Helvetica;writing-mode:lr-tb;fill:#444041;fill-opacity:1;fill-rule:nonzero;stroke:none"
             transform="matrix(1,0,0,-1,282.125,138)">
            <tspan
               id="tspan2180"
               y="0"
               x="0">0</tspan>
            <tspan
               id="tspan2182"
               sodipodi:role="line"
               y="-45.3605"
               x="-7.9984398 -2.4385791">20</tspan>
            <tspan
               id="tspan2184"
               sodipodi:role="line"
               y="-91.624603"
               x="-31.02854 -25.468679">40</tspan>
            <tspan
               id="tspan2186"
               sodipodi:role="line"
               y="-121.2316"
               x="-66.312538 -60.752678">60</tspan>
            <tspan
               id="tspan2188"
               sodipodi:role="line"
               y="-136.98511"
               x="-115.21994 -109.66008 -164.28014 -158.72028 -153.16042">80100</tspan>
            <tspan
               id="tspan2190"
               sodipodi:role="line"
               y="-121.2316"
               x="-216.18755 -210.62769 -205.06783">120</tspan>
            <tspan
               id="tspan2192"
               sodipodi:role="line"
               y="-91.624603"
               x="-251.47154 -245.91168 -240.35182">140</tspan>
            <tspan
               id="tspan2194"
               sodipodi:role="line"
               y="-45.3605"
               x="-274.50165 -268.94177 -263.38193">160</tspan>
            <tspan
               id="tspan2196"
               sodipodi:role="line"
               y="-7.1054274e-015"
               x="-282.50009 -276.94022 -271.38037">180</tspan>
            <tspan
               id="tspan2198"
               sodipodi:role="line"
               y="45.3605"
               x="-274.50165 -268.94177 -263.38193">200</tspan>
            <tspan
               id="tspan2200"
               sodipodi:role="line"
               y="91.624603"
               x="-251.47154 -245.91168 -240.35182">220</tspan>
            <tspan
               id="tspan2202"
               sodipodi:role="line"
               y="121.2316"
               x="-216.18755 -210.62769 -205.06783">240</tspan>
            <tspan
               id="tspan2204"
               sodipodi:role="line"
               y="136.98511"
               x="-164.28014 -158.72028 -153.16042 -118.21999 -112.66013 -107.10027">260280</tspan>
            <tspan
               id="tspan2206"
               sodipodi:role="line"
               y="121.2316"
               x="-66.312538 -60.752678 -55.192818">300</tspan>
            <tspan
               id="tspan2208"
               sodipodi:role="line"
               y="91.624603"
               x="-31.02854 -25.468679 -19.908817">320</tspan>
            <tspan
               id="tspan2210"
               sodipodi:role="line"
               y="45.3605"
               x="-7.9984398 -2.4385791 3.1212821">340</tspan>
            <tspan
               id="tspan2212"
               y="-2.1316282e-014"
               x="-135.62544">0</tspan>
            <tspan
               id="tspan2214"
               sodipodi:role="line"
               y="-25.3344"
               x="-135.28325 -129.72339 -126.94346">0.1</tspan>
            <tspan
               id="tspan2216"
               sodipodi:role="line"
               y="-50.6684"
               x="-130.81606 -125.2562 -122.47627">0.2</tspan>
            <tspan
               id="tspan2218"
               sodipodi:role="line"
               y="-76.0028"
               x="-126.34926 -120.7894 -118.00947">0.3</tspan>
            <tspan
               id="tspan2220"
               sodipodi:role="line"
               y="-101.3368"
               x="-121.88207 -116.32221 -113.54228">0.4</tspan>
            <tspan
               id="tspan2222"
               sodipodi:role="line"
               y="-126.6712"
               x="-117.41488 -111.85502 -109.07509">0.5</tspan>
          </text>
        </g>
        <path
           inkscape:connector-curvature="0"
           id="path2226"
           style="fill:none;stroke:#002dff;stroke-width:12.59842491;stroke-linecap:butt;stroke-linejoin:round;stroke-miterlimit:10;stroke-dasharray:none;stroke-opacity:1"
           d="m 2009.82,1421.25 -1.96,44.87 -13.31,43.21 19.67,51.05 156.64,106.86 3.43,70.77 -102.31,16.36 -124.26,-16.12 -133.74,-49.35 -40.6,10.73 -69.12,-29 -31.22,4.89 -30.41,1.43 -26.05,5.04 -23.18,9.6 -23.94,7.55 -24.5,5.43 -24.23,10.82 -25.73,8.7 -27.05,6.39 -29.48,11.37 -29.69,1.17 -32.89,5.48 -34.47,2.11 -35.69,-1.54 -40.88,0.87 -42.37,-3.91 -54.04,1.78 -73.62,9.22 -77.35,-1.41 -92.892,-5.04 -74.562,-28.57 -80.672,-36.64 -71.453,-50.53 -90.133,-57.15 -10.262,-77.92 -18.57,-78.52 -11.602,-81.16 129.903,-59.51 -35.899,-82.71 -290.383,-185.74 513.375,124.36 86.153,-18.08 71.807,-14.16 69.94,-4.19 56.22,-5.37 54.04,1.78 42.37,-3.91 40.88,0.87 35.69,-1.54 31.88,-5.01 31.56,-2.02 30.98,0.88 30.13,3.66 29.03,-1.27 29.03,1.27 30.13,-3.66 29.02,6.43 30.93,1.83 28.07,11.62 30.73,7.47 30.53,10.48 25.15,19.29 34.08,10.72 39.71,9.74 39.92,14.75 32.98,23.63 38.27,24.38 43.88,26.86 20.22,38.99 9.43,42.55 5.69,43.22" />
        <path
           inkscape:connector-curvature="0"
           id="path2228"
           style="fill:none;stroke:#002dff;stroke-width:12.59842491;stroke-linecap:butt;stroke-linejoin:round;stroke-miterlimit:10;stroke-dasharray:none;stroke-opacity:1"
           d="m 1992.77,1377.7 17.05,43.55" />
        <path
           inkscape:connector-curvature="0"
           id="path2230"
           style="fill:none;stroke:#36271a;stroke-width:12.59842491;stroke-linecap:butt;stroke-linejoin:round;stroke-miterlimit:10;stroke-dasharray:none;stroke-opacity:1"
           d="m 1896.26,1421.25 -1.53,34.97 -12.02,33.39 -0.12,35.49 10.81,41.15 47.6,62.98 6.4,53.22 -49.29,21.06 -78.33,-9.74 -83.88,-31.62 -36.51,2.69 -35.03,-1.72 -25.51,7.28 -25.46,4.73 -25.17,2.24 -22.67,7.15 -21.91,12.59 -24.23,3.19 -24.41,16.22 -26.39,6.41 -28.82,11.47 -29.04,1.3 -32.27,5.69 -33.86,2.35 -35.11,-1.22 -40.32,1.21 -41.84,-3.5 -53.55,2.22 -67.37,4.85 -82.76,3.98 -92.533,-4.48 -67.399,-31.19 -87.285,-32.84 -63.933,-51.86 -15.293,-68.99 5.855,-71.38 -3.023,-69.29 3.023,-69.29 9.055,-68.75 -36.18,-81.42 -283.676,-181.9 471.457,107 106.735,-8.48 78.007,-9.82 69.55,-3.66 61.11,0.46 48.21,-3.12 41.84,-3.5 40.32,1.21 35.11,-1.22 33.86,2.35 30.3,-1.63 31.01,8.62 28.16,3.92 27.05,13.96 24.41,16.22 22.91,10.64 23.23,5.14 22.67,7.15 28.36,-4.62 26.05,5.04 26.07,7.63 30.69,4.48 31.16,8.04 31.23,11.69 24.7,19.76 36.34,14.83 28.98,22.89 13.15,31.73 10.32,32.76 -0.02,34.84 4.39,33.4" />
        <path
           inkscape:connector-curvature="0"
           id="path2232"
           style="fill:none;stroke:#36271a;stroke-width:12.59842491;stroke-linecap:butt;stroke-linejoin:round;stroke-miterlimit:10;stroke-dasharray:none;stroke-opacity:1"
           d="m 1879.64,1387.6 16.62,33.65" />
      </g>
    </g>
  </g>
</svg>
