<?xml version="1.0" encoding="UTF-8" standalone="no"?>
<!-- Created with Inkscape (http://www.inkscape.org/) -->

<svg
   xmlns:ns0="http://www.iki.fi/pav/software/textext/"
   xmlns:dc="http://purl.org/dc/elements/1.1/"
   xmlns:cc="http://creativecommons.org/ns#"
   xmlns:rdf="http://www.w3.org/1999/02/22-rdf-syntax-ns#"
   xmlns:svg="http://www.w3.org/2000/svg"
   xmlns="http://www.w3.org/2000/svg"
   xmlns:sodipodi="http://sodipodi.sourceforge.net/DTD/sodipodi-0.dtd"
   xmlns:inkscape="http://www.inkscape.org/namespaces/inkscape"
   width="187.59128mm"
   height="181.74406mm"
   viewBox="0 0 187.59128 181.74406"
   version="1.1"
   id="svg1880"
   inkscape:version="0.92.3 (2405546, 2018-03-11)"
   sodipodi:docname="roundStanding.svg">
  <sodipodi:namedview
     id="base"
     pagecolor="#ffffff"
     bordercolor="#666666"
     borderopacity="1.0"
     inkscape:pageopacity="0.0"
     inkscape:pageshadow="2"
     inkscape:zoom="0.7"
     inkscape:cx="612.21427"
     inkscape:cy="433.55157"
     inkscape:document-units="mm"
     inkscape:current-layer="g2435"
     showgrid="false"
     inkscape:window-width="1920"
     inkscape:window-height="1137"
     inkscape:window-x="1912"
     inkscape:window-y="-8"
     inkscape:window-maximized="1"
     fit-margin-top="0"
     fit-margin-left="0"
     fit-margin-right="0"
     fit-margin-bottom="0" />
  <defs
     id="defs1874" />
  <metadata
     id="metadata1877">
    <rdf:RDF>
      <cc:Work
         rdf:about="">
        <dc:format>image/svg+xml</dc:format>
        <dc:type
           rdf:resource="http://purl.org/dc/dcmitype/StillImage" />
        <dc:title></dc:title>
      </cc:Work>
    </rdf:RDF>
  </metadata>
  <g
     inkscape:label="Layer 1"
     inkscape:groupmode="layer"
     id="layer1"
     transform="translate(-8.2146806,-107.95108)">
    <g
       transform="matrix(0.35277777,0,0,-0.35277777,19.17599,166.67381)"
       inkscape:label="ink_ext_XXXXXX"
       id="g2433">
      <g
         transform="matrix(0.1,0,0,0.1,-31.071429,-115.71429)"
         id="g2435">
        <path
           inkscape:connector-curvature="0"
           id="path2441"
           style="fill:#ffffff;fill-opacity:1;fill-rule:nonzero;stroke:none;stroke-width:1.83155847"
           d="m 5094.0219,256.6738 -7.4544,187.18527 -22.2901,185.97645 -36.9975,183.63205 -51.4668,180.11545 -65.6247,175.44498 -79.3615,169.6756 -92.5669,162.8438 -105.2414,154.9682 -117.2014,146.1217 -128.4472,136.3412 -138.8687,125.7182 -148.4295,114.2709 -157.0379,102.1277 -164.6387,89.3251 -171.2324,75.9731 -176.7271,62.1264 -181.0862,47.877 -184.328,33.3344 -186.3977,18.5903 -187.2769,3.7363 -186.9838,-11.1725 -185.5185,-25.9898 -182.8628,-40.6423 -179.0532,-55.0566 -174.1061,-69.0864 -168.0675,-82.7132 -160.9701,-95.8088 -152.8491,-108.2817 -143.7553,-120.077 L 1023.4199,1872.09 900.48204,1730.7487 789.18007,1580.0847 690.20448,1421.0504 604.15603,1254.6534 531.61716,1081.9557 473.02927,904.03813 428.75684,722.01785 399.0801,537.06708 384.20601,350.3397 V 163.0079 l 14.87409,-186.72738 29.67674,-184.95077 44.27243,-182.02028 58.58789,-177.91026 72.53887,-172.71046 86.04845,-166.39159 98.97559,-159.03236 111.30197,-150.6585 122.93786,-141.3524 133.7606,-131.1286 143.7553,-120.0879 152.8491,-108.2836 160.9701,-95.7997 168.0675,-82.7131 174.1061,-69.0919 179.0532,-55.0475 182.8628,-40.6441 185.5185,-25.9917 186.9838,-11.1688 187.2769,3.7272 186.3977,18.594 184.328,33.3417 181.0862,47.8696 176.7271,62.1374 171.2324,75.9603 164.6387,89.3159 157.0379,102.1314 148.4295,114.2801 138.8687,125.7108 128.4472,136.3375 117.2014,146.1309 105.2414,154.96636 92.5669,162.83837 79.3615,169.6829 65.6247,175.44315 51.4668,180.11546 36.9975,183.63205 22.2901,185.976439" />
        <path
           inkscape:connector-curvature="0"
           id="path2443"
           style="fill:none;stroke:#cacacb;stroke-width:9.16237164;stroke-linecap:butt;stroke-linejoin:bevel;stroke-miterlimit:10;stroke-dasharray:13.73668826, 41.21006478;stroke-dashoffset:0;stroke-opacity:1"
           d="M 2738.1799,256.6738 5085.0473,461.9915" />
        <path
           inkscape:connector-curvature="0"
           id="path2445"
           style="fill:none;stroke:#cacacb;stroke-width:9.16237164;stroke-linecap:butt;stroke-linejoin:bevel;stroke-miterlimit:10;stroke-dasharray:13.73668826, 41.21006478;stroke-dashoffset:0;stroke-opacity:1"
           d="M 2738.1799,256.6738 5058.2332,665.77069" />
        <path
           inkscape:connector-curvature="0"
           id="path2447"
           style="fill:none;stroke:#cacacb;stroke-width:9.16237164;stroke-linecap:butt;stroke-linejoin:bevel;stroke-miterlimit:10;stroke-dasharray:13.73668826, 41.21006478;stroke-dashoffset:0;stroke-opacity:1"
           d="M 2738.1799,256.6738 5013.7447,866.3996" />
        <path
           inkscape:connector-curvature="0"
           id="path2449"
           style="fill:none;stroke:#cacacb;stroke-width:9.16237164;stroke-linecap:butt;stroke-linejoin:bevel;stroke-miterlimit:10;stroke-dasharray:13.73668826, 41.21006478;stroke-dashoffset:0;stroke-opacity:1"
           d="m 2738.1799,256.6738 2135.1209,995.6169" />
        <path
           inkscape:connector-curvature="0"
           id="path2451"
           style="fill:none;stroke:#cacacb;stroke-width:9.16237164;stroke-linecap:butt;stroke-linejoin:bevel;stroke-miterlimit:10;stroke-dasharray:13.73668826, 41.21006478;stroke-dashoffset:0;stroke-opacity:1"
           d="M 2738.1799,256.6738 4778.3894,1434.604" />
        <path
           inkscape:connector-curvature="0"
           id="path2453"
           style="fill:none;stroke:#cacacb;stroke-width:9.16237164;stroke-linecap:butt;stroke-linejoin:bevel;stroke-miterlimit:10;stroke-dasharray:13.73668826, 41.21006478;stroke-dashoffset:0;stroke-opacity:1"
           d="M 2738.1799,256.6738 4667.9831,1607.9244" />
        <path
           inkscape:connector-curvature="0"
           id="path2455"
           style="fill:none;stroke:#cacacb;stroke-width:9.16237164;stroke-linecap:butt;stroke-linejoin:bevel;stroke-miterlimit:10;stroke-dasharray:13.73668826, 41.21006478;stroke-dashoffset:0;stroke-opacity:1"
           d="m 2738.1799,256.6738 1665.839,1665.839" />
        <path
           inkscape:connector-curvature="0"
           id="path2457"
           style="fill:none;stroke:#cacacb;stroke-width:9.16237164;stroke-linecap:butt;stroke-linejoin:bevel;stroke-miterlimit:10;stroke-dasharray:13.73668826, 41.21006478;stroke-dashoffset:0;stroke-opacity:1"
           d="M 2738.1799,256.6738 4252.4941,2061.3633" />
        <path
           inkscape:connector-curvature="0"
           id="path2459"
           style="fill:none;stroke:#cacacb;stroke-width:9.16237164;stroke-linecap:butt;stroke-linejoin:bevel;stroke-miterlimit:10;stroke-dasharray:13.73668826, 41.21006478;stroke-dashoffset:0;stroke-opacity:1"
           d="M 2738.1799,256.6738 4089.4304,2186.477" />
        <path
           inkscape:connector-curvature="0"
           id="path2461"
           style="fill:none;stroke:#cacacb;stroke-width:9.16237164;stroke-linecap:butt;stroke-linejoin:bevel;stroke-miterlimit:10;stroke-dasharray:13.73668826, 41.21006478;stroke-dashoffset:0;stroke-opacity:1"
           d="m 2738.1799,256.6738 995.6168,2135.1209" />
        <path
           inkscape:connector-curvature="0"
           id="path2463"
           style="fill:none;stroke:#cacacb;stroke-width:9.16237164;stroke-linecap:butt;stroke-linejoin:bevel;stroke-miterlimit:10;stroke-dasharray:13.73668826, 41.21006478;stroke-dashoffset:0;stroke-opacity:1"
           d="M 2738.1799,256.6738 3543.919,2470.4419" />
        <path
           inkscape:connector-curvature="0"
           id="path2465"
           style="fill:none;stroke:#cacacb;stroke-width:9.16237164;stroke-linecap:butt;stroke-linejoin:bevel;stroke-miterlimit:10;stroke-dasharray:13.73668826, 41.21006478;stroke-dashoffset:0;stroke-opacity:1"
           d="m 2738.1799,256.6738 609.7258,2275.5648" />
        <path
           inkscape:connector-curvature="0"
           id="path2467"
           style="fill:none;stroke:#cacacb;stroke-width:9.16237164;stroke-linecap:butt;stroke-linejoin:bevel;stroke-miterlimit:10;stroke-dasharray:13.73668826, 41.21006478;stroke-dashoffset:0;stroke-opacity:1"
           d="m 2738.1799,256.6738 205.3177,2346.8674" />
        <path
           inkscape:connector-curvature="0"
           id="path2469"
           style="fill:none;stroke:#cacacb;stroke-width:9.16237164;stroke-linecap:butt;stroke-linejoin:bevel;stroke-miterlimit:10;stroke-dasharray:13.73668826, 41.21006478;stroke-dashoffset:0;stroke-opacity:1"
           d="m 2738.1799,256.6738 v 2355.842" />
        <path
           inkscape:connector-curvature="0"
           id="path2471"
           style="fill:none;stroke:#cacacb;stroke-width:9.16237164;stroke-linecap:butt;stroke-linejoin:bevel;stroke-miterlimit:10;stroke-dasharray:13.73668826, 41.21006478;stroke-dashoffset:0;stroke-opacity:1"
           d="M 2738.1799,256.6738 2532.8622,2603.5412" />
        <path
           inkscape:connector-curvature="0"
           id="path2473"
           style="fill:none;stroke:#cacacb;stroke-width:9.16237164;stroke-linecap:butt;stroke-linejoin:bevel;stroke-miterlimit:10;stroke-dasharray:13.73668826, 41.21006478;stroke-dashoffset:0;stroke-opacity:1"
           d="M 2738.1799,256.6738 2128.4541,2532.2386" />
        <path
           inkscape:connector-curvature="0"
           id="path2475"
           style="fill:none;stroke:#cacacb;stroke-width:9.16237164;stroke-linecap:butt;stroke-linejoin:bevel;stroke-miterlimit:10;stroke-dasharray:13.73668826, 41.21006478;stroke-dashoffset:0;stroke-opacity:1"
           d="M 2738.1799,256.6738 1932.4407,2470.4419" />
        <path
           inkscape:connector-curvature="0"
           id="path2477"
           style="fill:none;stroke:#cacacb;stroke-width:9.16237164;stroke-linecap:butt;stroke-linejoin:bevel;stroke-miterlimit:10;stroke-dasharray:13.73668826, 41.21006478;stroke-dashoffset:0;stroke-opacity:1"
           d="M 2738.1799,256.6738 1742.5557,2391.7947" />
        <path
           inkscape:connector-curvature="0"
           id="path2479"
           style="fill:none;stroke:#cacacb;stroke-width:9.16237164;stroke-linecap:butt;stroke-linejoin:bevel;stroke-miterlimit:10;stroke-dasharray:13.73668826, 41.21006478;stroke-dashoffset:0;stroke-opacity:1"
           d="M 2738.1799,256.6738 1386.9256,2186.477" />
        <path
           inkscape:connector-curvature="0"
           id="path2481"
           style="fill:none;stroke:#cacacb;stroke-width:9.16237164;stroke-linecap:butt;stroke-linejoin:bevel;stroke-miterlimit:10;stroke-dasharray:13.73668826, 41.21006478;stroke-dashoffset:0;stroke-opacity:1"
           d="M 2738.1799,256.6738 1223.8748,2061.3633" />
        <path
           inkscape:connector-curvature="0"
           id="path2483"
           style="fill:none;stroke:#cacacb;stroke-width:9.16237164;stroke-linecap:butt;stroke-linejoin:bevel;stroke-miterlimit:10;stroke-dasharray:13.73668826, 41.21006478;stroke-dashoffset:0;stroke-opacity:1"
           d="M 2738.1799,256.6738 1072.3482,1922.5128" />
        <path
           inkscape:connector-curvature="0"
           id="path2485"
           style="fill:none;stroke:#cacacb;stroke-width:9.16237164;stroke-linecap:butt;stroke-linejoin:bevel;stroke-miterlimit:10;stroke-dasharray:13.73668826, 41.21006478;stroke-dashoffset:0;stroke-opacity:1"
           d="M 2738.1799,256.6738 808.38213,1607.9244" />
        <path
           inkscape:connector-curvature="0"
           id="path2487"
           style="fill:none;stroke:#cacacb;stroke-width:9.16237164;stroke-linecap:butt;stroke-linejoin:bevel;stroke-miterlimit:10;stroke-dasharray:13.73668826, 41.21006478;stroke-dashoffset:0;stroke-opacity:1"
           d="M 2738.1799,256.6738 697.96663,1434.604" />
        <path
           inkscape:connector-curvature="0"
           id="path2489"
           style="fill:none;stroke:#cacacb;stroke-width:9.16237164;stroke-linecap:butt;stroke-linejoin:bevel;stroke-miterlimit:10;stroke-dasharray:13.73668826, 41.21006478;stroke-dashoffset:0;stroke-opacity:1"
           d="M 2738.1799,256.6738 603.06259,1252.2907" />
        <path
           inkscape:connector-curvature="0"
           id="path2491"
           style="fill:none;stroke:#cacacb;stroke-width:9.16237164;stroke-linecap:butt;stroke-linejoin:bevel;stroke-miterlimit:10;stroke-dasharray:13.73668826, 41.21006478;stroke-dashoffset:0;stroke-opacity:1"
           d="M 2738.1799,256.6738 462.61137,866.3996" />
        <path
           inkscape:connector-curvature="0"
           id="path2493"
           style="fill:none;stroke:#cacacb;stroke-width:9.16237164;stroke-linecap:butt;stroke-linejoin:bevel;stroke-miterlimit:10;stroke-dasharray:13.73668826, 41.21006478;stroke-dashoffset:0;stroke-opacity:1"
           d="M 2738.1799,256.6738 418.12464,665.77069" />
        <path
           inkscape:connector-curvature="0"
           id="path2495"
           style="fill:none;stroke:#cacacb;stroke-width:9.16237164;stroke-linecap:butt;stroke-linejoin:bevel;stroke-miterlimit:10;stroke-dasharray:13.73668826, 41.21006478;stroke-dashoffset:0;stroke-opacity:1"
           d="M 2738.1799,256.6738 391.3088,461.9915" />
        <path
           inkscape:connector-curvature="0"
           id="path2497"
           style="fill:none;stroke:#cacacb;stroke-width:9.16237164;stroke-linecap:butt;stroke-linejoin:bevel;stroke-miterlimit:10;stroke-dasharray:13.73668826, 41.21006478;stroke-dashoffset:0;stroke-opacity:1"
           d="M 2738.1799,256.6738 391.3088,51.356101" />
        <path
           inkscape:connector-curvature="0"
           id="path2499"
           style="fill:none;stroke:#cacacb;stroke-width:9.16237164;stroke-linecap:butt;stroke-linejoin:bevel;stroke-miterlimit:10;stroke-dasharray:13.73668826, 41.21006478;stroke-dashoffset:0;stroke-opacity:1"
           d="M 2738.1799,256.6738 418.12464,-152.42309" />
        <path
           inkscape:connector-curvature="0"
           id="path2501"
           style="fill:none;stroke:#cacacb;stroke-width:9.16237164;stroke-linecap:butt;stroke-linejoin:bevel;stroke-miterlimit:10;stroke-dasharray:13.73668826, 41.21006478;stroke-dashoffset:0;stroke-opacity:1"
           d="M 2738.1799,256.6738 462.61137,-353.052" />
        <path
           inkscape:connector-curvature="0"
           id="path2503"
           style="fill:none;stroke:#cacacb;stroke-width:9.16237164;stroke-linecap:butt;stroke-linejoin:bevel;stroke-miterlimit:10;stroke-dasharray:13.73668826, 41.21006478;stroke-dashoffset:0;stroke-opacity:1"
           d="M 2738.1799,256.6738 603.06259,-738.95037" />
        <path
           inkscape:connector-curvature="0"
           id="path2505"
           style="fill:none;stroke:#cacacb;stroke-width:9.16237164;stroke-linecap:butt;stroke-linejoin:bevel;stroke-miterlimit:10;stroke-dasharray:13.73668826, 41.21006478;stroke-dashoffset:0;stroke-opacity:1"
           d="M 2738.1799,256.6738 697.96663,-921.24722" />
        <path
           inkscape:connector-curvature="0"
           id="path2507"
           style="fill:none;stroke:#cacacb;stroke-width:9.16237164;stroke-linecap:butt;stroke-linejoin:bevel;stroke-miterlimit:10;stroke-dasharray:13.73668826, 41.21006478;stroke-dashoffset:0;stroke-opacity:1"
           d="M 2738.1799,256.6738 808.38213,-1094.5804" />
        <path
           inkscape:connector-curvature="0"
           id="path2509"
           style="fill:none;stroke:#cacacb;stroke-width:9.16237164;stroke-linecap:butt;stroke-linejoin:bevel;stroke-miterlimit:10;stroke-dasharray:13.73668826, 41.21006478;stroke-dashoffset:0;stroke-opacity:1"
           d="M 2738.1799,256.6738 1072.3482,-1409.1579" />
        <path
           inkscape:connector-curvature="0"
           id="path2511"
           style="fill:none;stroke:#cacacb;stroke-width:9.16237164;stroke-linecap:butt;stroke-linejoin:bevel;stroke-miterlimit:10;stroke-dasharray:13.73668826, 41.21006478;stroke-dashoffset:0;stroke-opacity:1"
           d="M 2738.1799,256.6738 1223.8748,-1548.012" />
        <path
           inkscape:connector-curvature="0"
           id="path2513"
           style="fill:none;stroke:#cacacb;stroke-width:9.16237164;stroke-linecap:butt;stroke-linejoin:bevel;stroke-miterlimit:10;stroke-dasharray:13.73668826, 41.21006478;stroke-dashoffset:0;stroke-opacity:1"
           d="M 2738.1799,256.6738 1386.9256,-1673.1239" />
        <path
           inkscape:connector-curvature="0"
           id="path2515"
           style="fill:none;stroke:#cacacb;stroke-width:9.16237164;stroke-linecap:butt;stroke-linejoin:bevel;stroke-miterlimit:10;stroke-dasharray:13.73668826, 41.21006478;stroke-dashoffset:0;stroke-opacity:1"
           d="M 2738.1799,256.6738 1742.5557,-1878.4435" />
        <path
           inkscape:connector-curvature="0"
           id="path2517"
           style="fill:none;stroke:#cacacb;stroke-width:9.16237164;stroke-linecap:butt;stroke-linejoin:bevel;stroke-miterlimit:10;stroke-dasharray:13.73668826, 41.21006478;stroke-dashoffset:0;stroke-opacity:1"
           d="M 2738.1799,256.6738 1932.4407,-1957.0869" />
        <path
           inkscape:connector-curvature="0"
           id="path2519"
           style="fill:none;stroke:#cacacb;stroke-width:9.16237164;stroke-linecap:butt;stroke-linejoin:bevel;stroke-miterlimit:10;stroke-dasharray:13.73668826, 41.21006478;stroke-dashoffset:0;stroke-opacity:1"
           d="M 2738.1799,256.6738 2128.4541,-2018.8874" />
        <path
           inkscape:connector-curvature="0"
           id="path2521"
           style="fill:none;stroke:#cacacb;stroke-width:9.16237164;stroke-linecap:butt;stroke-linejoin:bevel;stroke-miterlimit:10;stroke-dasharray:13.73668826, 41.21006478;stroke-dashoffset:0;stroke-opacity:1"
           d="M 2738.1799,256.6738 2532.8622,-2090.1973" />
        <path
           inkscape:connector-curvature="0"
           id="path2523"
           style="fill:none;stroke:#cacacb;stroke-width:9.16237164;stroke-linecap:butt;stroke-linejoin:bevel;stroke-miterlimit:10;stroke-dasharray:13.73668826, 41.21006478;stroke-dashoffset:0;stroke-opacity:1"
           d="m 2738.1799,256.6738 v -2355.842" />
        <path
           inkscape:connector-curvature="0"
           id="path2525"
           style="fill:none;stroke:#cacacb;stroke-width:9.16237164;stroke-linecap:butt;stroke-linejoin:bevel;stroke-miterlimit:10;stroke-dasharray:13.73668826, 41.21006478;stroke-dashoffset:0;stroke-opacity:1"
           d="m 2738.1799,256.6738 205.3177,-2346.8711" />
        <path
           inkscape:connector-curvature="0"
           id="path2527"
           style="fill:none;stroke:#cacacb;stroke-width:9.16237164;stroke-linecap:butt;stroke-linejoin:bevel;stroke-miterlimit:10;stroke-dasharray:13.73668826, 41.21006478;stroke-dashoffset:0;stroke-opacity:1"
           d="m 2738.1799,256.6738 609.7258,-2275.5612" />
        <path
           inkscape:connector-curvature="0"
           id="path2529"
           style="fill:none;stroke:#cacacb;stroke-width:9.16237164;stroke-linecap:butt;stroke-linejoin:bevel;stroke-miterlimit:10;stroke-dasharray:13.73668826, 41.21006478;stroke-dashoffset:0;stroke-opacity:1"
           d="M 2738.1799,256.6738 3543.919,-1957.0869" />
        <path
           inkscape:connector-curvature="0"
           id="path2531"
           style="fill:none;stroke:#cacacb;stroke-width:9.16237164;stroke-linecap:butt;stroke-linejoin:bevel;stroke-miterlimit:10;stroke-dasharray:13.73668826, 41.21006478;stroke-dashoffset:0;stroke-opacity:1"
           d="m 2738.1799,256.6738 995.6168,-2135.1173" />
        <path
           inkscape:connector-curvature="0"
           id="path2533"
           style="fill:none;stroke:#cacacb;stroke-width:9.16237164;stroke-linecap:butt;stroke-linejoin:bevel;stroke-miterlimit:10;stroke-dasharray:13.73668826, 41.21006478;stroke-dashoffset:0;stroke-opacity:1"
           d="M 2738.1799,256.6738 4089.4304,-1673.1239" />
        <path
           inkscape:connector-curvature="0"
           id="path2535"
           style="fill:none;stroke:#cacacb;stroke-width:9.16237164;stroke-linecap:butt;stroke-linejoin:bevel;stroke-miterlimit:10;stroke-dasharray:13.73668826, 41.21006478;stroke-dashoffset:0;stroke-opacity:1"
           d="M 2738.1799,256.6738 4252.4941,-1548.012" />
        <path
           inkscape:connector-curvature="0"
           id="path2537"
           style="fill:none;stroke:#cacacb;stroke-width:9.16237164;stroke-linecap:butt;stroke-linejoin:bevel;stroke-miterlimit:10;stroke-dasharray:13.73668826, 41.21006478;stroke-dashoffset:0;stroke-opacity:1"
           d="m 2738.1799,256.6738 1665.839,-1665.8317" />
        <path
           inkscape:connector-curvature="0"
           id="path2539"
           style="fill:none;stroke:#cacacb;stroke-width:9.16237164;stroke-linecap:butt;stroke-linejoin:bevel;stroke-miterlimit:10;stroke-dasharray:13.73668826, 41.21006478;stroke-dashoffset:0;stroke-opacity:1"
           d="M 2738.1799,256.6738 4667.9831,-1094.5804" />
        <path
           inkscape:connector-curvature="0"
           id="path2541"
           style="fill:none;stroke:#cacacb;stroke-width:9.16237164;stroke-linecap:butt;stroke-linejoin:bevel;stroke-miterlimit:10;stroke-dasharray:13.73668826, 41.21006478;stroke-dashoffset:0;stroke-opacity:1"
           d="M 2738.1799,256.6738 4778.3894,-921.24722" />
        <path
           inkscape:connector-curvature="0"
           id="path2543"
           style="fill:none;stroke:#cacacb;stroke-width:9.16237164;stroke-linecap:butt;stroke-linejoin:bevel;stroke-miterlimit:10;stroke-dasharray:13.73668826, 41.21006478;stroke-dashoffset:0;stroke-opacity:1"
           d="M 2738.1799,256.6738 4873.3008,-738.95037" />
        <path
           inkscape:connector-curvature="0"
           id="path2545"
           style="fill:none;stroke:#cacacb;stroke-width:9.16237164;stroke-linecap:butt;stroke-linejoin:bevel;stroke-miterlimit:10;stroke-dasharray:13.73668826, 41.21006478;stroke-dashoffset:0;stroke-opacity:1"
           d="M 2738.1799,256.6738 5013.7447,-353.052" />
        <path
           inkscape:connector-curvature="0"
           id="path2547"
           style="fill:none;stroke:#cacacb;stroke-width:9.16237164;stroke-linecap:butt;stroke-linejoin:bevel;stroke-miterlimit:10;stroke-dasharray:13.73668826, 41.21006478;stroke-dashoffset:0;stroke-opacity:1"
           d="M 2738.1799,256.6738 5058.2332,-152.42309" />
        <path
           inkscape:connector-curvature="0"
           id="path2549"
           style="fill:none;stroke:#cacacb;stroke-width:9.16237164;stroke-linecap:butt;stroke-linejoin:bevel;stroke-miterlimit:10;stroke-dasharray:13.73668826, 41.21006478;stroke-dashoffset:0;stroke-opacity:1"
           d="M 2738.1799,256.6738 5085.0473,51.356101" />
        <path
           inkscape:connector-curvature="0"
           id="path2551"
           style="fill:none;stroke:#cacacb;stroke-width:9.16237164;stroke-linecap:butt;stroke-linejoin:bevel;stroke-miterlimit:10;stroke-dasharray:13.73668826, 41.21006478;stroke-dashoffset:0;stroke-opacity:1"
           d="m 2738.1799,256.6738 h 2355.842" />
        <path
           inkscape:connector-curvature="0"
           id="path2553"
           style="fill:none;stroke:#dfe0e1;stroke-width:9.16237164;stroke-linecap:butt;stroke-linejoin:round;stroke-miterlimit:10;stroke-dasharray:none;stroke-opacity:1"
           d="m 2738.1799,256.6738 h 2355.842" />
        <path
           inkscape:connector-curvature="0"
           id="path2555"
           style="fill:none;stroke:#dfe0e1;stroke-width:9.16237164;stroke-linecap:butt;stroke-linejoin:round;stroke-miterlimit:10;stroke-dasharray:none;stroke-opacity:1"
           d="m 2738.1799,256.6738 2213.768,805.7392" />
        <path
           inkscape:connector-curvature="0"
           id="path2557"
           style="fill:none;stroke:#dfe0e1;stroke-width:9.16237164;stroke-linecap:butt;stroke-linejoin:round;stroke-miterlimit:10;stroke-dasharray:none;stroke-opacity:1"
           d="M 2738.1799,256.6738 4542.8693,1770.988" />
        <path
           inkscape:connector-curvature="0"
           id="path2559"
           style="fill:none;stroke:#dfe0e1;stroke-width:9.16237164;stroke-linecap:butt;stroke-linejoin:round;stroke-miterlimit:10;stroke-dasharray:none;stroke-opacity:1"
           d="M 2738.1799,256.6738 3916.11,2296.8834" />
        <path
           inkscape:connector-curvature="0"
           id="path2561"
           style="fill:none;stroke:#dfe0e1;stroke-width:9.16237164;stroke-linecap:butt;stroke-linejoin:round;stroke-miterlimit:10;stroke-dasharray:none;stroke-opacity:1"
           d="m 2738.1799,256.6738 409.0969,2320.0534" />
        <path
           inkscape:connector-curvature="0"
           id="path2563"
           style="fill:none;stroke:#dfe0e1;stroke-width:9.16237164;stroke-linecap:butt;stroke-linejoin:round;stroke-miterlimit:10;stroke-dasharray:none;stroke-opacity:1"
           d="M 2738.1799,256.6738 2329.083,2576.7272" />
        <path
           inkscape:connector-curvature="0"
           id="path2565"
           style="fill:none;stroke:#dfe0e1;stroke-width:9.16237164;stroke-linecap:butt;stroke-linejoin:round;stroke-miterlimit:10;stroke-dasharray:none;stroke-opacity:1"
           d="M 2738.1799,256.6738 1560.2588,2296.8834" />
        <path
           inkscape:connector-curvature="0"
           id="path2567"
           style="fill:none;stroke:#dfe0e1;stroke-width:9.16237164;stroke-linecap:butt;stroke-linejoin:round;stroke-miterlimit:10;stroke-dasharray:none;stroke-opacity:1"
           d="M 2738.1799,256.6738 933.49405,1770.988" />
        <path
           inkscape:connector-curvature="0"
           id="path2569"
           style="fill:none;stroke:#dfe0e1;stroke-width:9.16237164;stroke-linecap:butt;stroke-linejoin:round;stroke-miterlimit:10;stroke-dasharray:none;stroke-opacity:1"
           d="M 2738.1799,256.6738 524.41914,1062.413" />
        <path
           inkscape:connector-curvature="0"
           id="path2571"
           style="fill:none;stroke:#dfe0e1;stroke-width:9.16237164;stroke-linecap:butt;stroke-linejoin:round;stroke-miterlimit:10;stroke-dasharray:none;stroke-opacity:1"
           d="M 2738.1799,256.6738 H 382.33782" />
        <path
           inkscape:connector-curvature="0"
           id="path2573"
           style="fill:none;stroke:#dfe0e1;stroke-width:9.16237164;stroke-linecap:butt;stroke-linejoin:round;stroke-miterlimit:10;stroke-dasharray:none;stroke-opacity:1"
           d="M 2738.1799,256.6738 524.41914,-549.06905" />
        <path
           inkscape:connector-curvature="0"
           id="path2575"
           style="fill:none;stroke:#dfe0e1;stroke-width:9.16237164;stroke-linecap:butt;stroke-linejoin:round;stroke-miterlimit:10;stroke-dasharray:none;stroke-opacity:1"
           d="M 2738.1799,256.6738 933.49405,-1257.6312" />
        <path
           inkscape:connector-curvature="0"
           id="path2577"
           style="fill:none;stroke:#dfe0e1;stroke-width:9.16237164;stroke-linecap:butt;stroke-linejoin:round;stroke-miterlimit:10;stroke-dasharray:none;stroke-opacity:1"
           d="M 2738.1799,256.6738 1560.2588,-1783.5394" />
        <path
           inkscape:connector-curvature="0"
           id="path2579"
           style="fill:none;stroke:#dfe0e1;stroke-width:9.16237164;stroke-linecap:butt;stroke-linejoin:round;stroke-miterlimit:10;stroke-dasharray:none;stroke-opacity:1"
           d="M 2738.1799,256.6738 2329.083,-2063.3814" />
        <path
           inkscape:connector-curvature="0"
           id="path2581"
           style="fill:none;stroke:#dfe0e1;stroke-width:9.16237164;stroke-linecap:butt;stroke-linejoin:round;stroke-miterlimit:10;stroke-dasharray:none;stroke-opacity:1"
           d="m 2738.1799,256.6738 409.0969,-2320.0552" />
        <path
           inkscape:connector-curvature="0"
           id="path2583"
           style="fill:none;stroke:#dfe0e1;stroke-width:9.16237164;stroke-linecap:butt;stroke-linejoin:round;stroke-miterlimit:10;stroke-dasharray:none;stroke-opacity:1"
           d="M 2738.1799,256.6738 3916.11,-1783.5394" />
        <path
           inkscape:connector-curvature="0"
           id="path2585"
           style="fill:none;stroke:#dfe0e1;stroke-width:9.16237164;stroke-linecap:butt;stroke-linejoin:round;stroke-miterlimit:10;stroke-dasharray:none;stroke-opacity:1"
           d="m 2738.1799,256.6738 1804.6894,-1514.305" />
        <path
           inkscape:connector-curvature="0"
           id="path2587"
           style="fill:none;stroke:#dfe0e1;stroke-width:9.16237164;stroke-linecap:butt;stroke-linejoin:round;stroke-miterlimit:10;stroke-dasharray:none;stroke-opacity:1"
           d="m 2738.1799,256.6738 2213.768,-805.74285" />
        <path
           inkscape:connector-curvature="0"
           id="path2589"
           style="fill:none;stroke:#cacacb;stroke-width:9.16237164;stroke-linecap:butt;stroke-linejoin:bevel;stroke-miterlimit:10;stroke-dasharray:13.73668826, 41.21006478;stroke-dashoffset:0;stroke-opacity:1"
           d="m 2934.5046,256.6738 -0.641,-15.58656 -1.8499,-15.5133 -3.077,-15.31183 -4.2859,-14.98215 -5.4763,-14.63415 -6.612,-14.13963 -7.7108,-13.57185 -8.7732,-12.91249 -9.7622,-12.17986 -10.6963,-11.35566 -11.5938,-10.47652 -12.363,-9.5241 -13.0773,-8.516746 -13.7367,-7.436128 -14.2495,-6.337192 -14.7257,-5.18331 -15.0921,-3.974482 -15.3668,-2.783969 -15.5316,-1.556824 -15.6049,-0.311365 -15.5865,0.934094 -15.4584,2.179555 -15.2385,3.370067 -14.9089,4.597212 -14.5243,5.751094 -13.9931,6.904975 -13.4253,7.967279 -12.7293,9.02958 -11.9784,10.01863 -11.1542,10.91609 -10.2384,11.77692 -9.286,12.56449 -8.2421,13.24217 -7.1613,13.86489 -6.0442,14.39605 -4.9086,14.83563 -3.6631,15.1653 -2.4909,15.40341 -1.2271,15.56824 v 15.60488 l 1.2271,15.56825 2.4909,15.4034 3.6631,15.16531 4.9086,14.83562 6.0442,14.39605 7.1613,13.8649 8.2421,13.24216 9.286,12.5645 10.2384,11.77692 11.1542,10.91608 11.9784,10.01863 12.7293,9.02958 13.4253,7.96728 13.9931,6.90498 14.5243,5.75109 14.9089,4.59721 15.2385,3.37007 15.4584,2.17955 15.5865,0.9341 15.6049,-0.31137 15.5316,-1.55682 15.3668,-2.78397 15.0921,-3.97448 14.7257,-5.18331 14.2495,-6.33719 13.7367,-7.43613 13.0773,-8.51675 12.363,-9.5241 11.5938,-10.4582 10.6963,-11.37398 9.7622,-12.17986 8.7732,-12.91249 7.7108,-13.57185 6.612,-14.13963 5.4763,-14.63415 4.2859,-14.98215 3.077,-15.31183 1.8499,-15.5133 0.641,-15.58656" />
        <path
           inkscape:connector-curvature="0"
           id="path2591"
           style="fill:none;stroke:#cacacb;stroke-width:9.16237164;stroke-linecap:butt;stroke-linejoin:bevel;stroke-miterlimit:10;stroke-dasharray:13.73668826, 41.21006478;stroke-dashoffset:0;stroke-opacity:1"
           d="m 3130.811,256.6738 -1.2271,-31.19144 -3.7364,-31.00828 -6.154,-30.60534 -8.5717,-30.01925 -10.9344,-29.23167 -13.2239,-28.279262 -15.44,-27.143696 -17.528,-25.824974 -19.5427,-24.35972751 -21.411,-22.71132449 -23.1325,-20.971344 -24.7444,-19.029892 -26.173,-17.015178 -27.4367,-14.89057 -28.554,-12.674382 -29.4515,-10.34831 -30.1657,-7.98559 -30.7153,-5.54962 -31.0815,-3.11365 -31.2098,-0.62273 -31.1731,1.86819 -30.9167,4.34079 -30.4588,6.77677 -29.8544,9.15779 -29.0119,11.5205 -28.0229,13.791635 -26.814,15.97119 -25.4953,18.04085 -23.9384,20.018934 -22.3084,21.850492 -20.4952,23.553842 -18.5353,25.110666 -16.5024,26.520966 -14.3411,27.729795 -12.0883,28.77378 -9.7622,29.65293 -7.3811,30.34893 -4.9453,30.80681 -2.4909,31.13649 v 31.20976 l 2.4909,31.13649 4.9453,30.80682 7.3811,30.34892 9.7622,29.65293 12.0883,28.77378 14.3411,27.7298 16.5024,26.52096 18.5353,25.11067 20.4952,23.55384 22.3084,21.85049 23.9384,20.01894 25.4953,18.04085 26.814,15.97119 28.0229,13.79163 29.0119,11.5205 29.8544,9.1578 30.4588,6.77676 30.9167,4.3408 31.1731,1.86819 31.2098,-0.62273 31.0815,-3.11365 30.7153,-5.54963 30.1657,-7.98559 29.4515,-10.34831 28.554,-12.67438 27.4367,-14.89057 26.173,-17.01518 24.7444,-19.02989 23.1325,-20.97134 21.411,-22.71133 19.5427,-24.35973 17.528,-25.82497 15.44,-27.1437 13.2239,-28.27926 10.9344,-29.23167 8.5717,-30.01924 6.154,-30.60534 3.7364,-31.00829 1.2271,-31.19144" />
        <path
           inkscape:connector-curvature="0"
           id="path2593"
           style="fill:none;stroke:#cacacb;stroke-width:9.16237164;stroke-linecap:butt;stroke-linejoin:bevel;stroke-miterlimit:10;stroke-dasharray:13.73668826, 41.21006478;stroke-dashoffset:0;stroke-opacity:1"
           d="m 3327.1358,256.6738 -1.8682,-46.79632 -5.5679,-46.48495 -9.2494,-45.91717 -12.8575,-45.019706 -16.4108,-43.865825 -19.8358,-42.418893 -23.1509,-40.715544 -26.3012,-38.737461 -29.3049,-36.539591 -32.1072,-34.0853 -34.7264,-31.42955 -37.1073,-28.57231 -39.2503,-25.51361 -41.1735,-22.34501 -42.8035,-18.99326 -44.1772,-15.5133 -45.2761,-11.99671 -46.082,-8.31527 -46.5949,-4.65216 -46.8146,-0.9341 -46.7414,2.80229 -46.3933,6.48372 -45.7157,10.16514 -44.7633,13.75501 -43.5179,17.28991 -42.0159,20.6783 -40.2393,23.93846 -38.2247,27.07044 -35.9352,30.03756 -33.4442,32.76658 -30.7336,35.34907 -27.8213,37.656845 -24.7444,39.763134 -21.5208,41.5946921 -18.1141,43.1698319 -14.6708,44.488555 -11.0626,45.495912 -7.3995,46.24685 -3.7364,46.66811 v 46.85126 l 3.7364,46.66811 7.3995,46.24685 11.0626,45.49591 14.6708,44.48856 18.1141,43.16983 21.5208,41.59469 24.7444,39.76314 27.8213,37.65684 30.7336,35.34908 33.4442,32.76658 35.9352,30.03755 38.2247,27.07044 40.2393,23.93847 42.0159,20.67829 43.5179,17.28991 44.7633,13.75501 45.7157,10.16515 46.3933,6.48371 46.7414,2.80229 46.8146,-0.9341 46.5949,-4.65216 46.082,-8.31527 45.2761,-11.99671 44.1772,-15.5133 42.8035,-18.99326 41.1735,-22.34501 39.2503,-25.51361 37.1073,-28.57231 34.7264,-31.42955 32.1072,-34.0853 29.3049,-36.53959 26.3012,-38.73746 23.1509,-40.71554 19.8358,-42.4189 16.4108,-43.86582 12.8575,-45.01971 9.2494,-45.91717 5.5679,-46.48495 1.8682,-46.79632" />
        <path
           inkscape:connector-curvature="0"
           id="path2595"
           style="fill:none;stroke:#cacacb;stroke-width:9.16237164;stroke-linecap:butt;stroke-linejoin:bevel;stroke-miterlimit:10;stroke-dasharray:13.73668826, 41.21006478;stroke-dashoffset:0;stroke-opacity:1"
           d="m 3719.767,256.6738 -3.0954,-77.98776 -9.286,-77.49323 -15.4217,-76.522516 -21.4292,-75.038949 -27.3635,-73.097495 -33.0596,-70.71647 -38.5727,-67.84093 -43.8475,-64.58075 -48.8293,-60.881 -53.5181,-56.81494 -57.8773,-52.38257 -61.8334,-47.60038 -65.4416,-42.56175 -68.5919,-37.20994 -71.3575,-31.64567 -73.6286,-25.89824 -75.4419,-19.9475 -76.7973,-13.88687 -77.6763,-7.74017 -78.0428,-1.55316 -77.8961,4.65032 -77.2918,10.82452 -76.2111,16.94191 -74.5994,22.92379 -72.5481,28.79576 -70.0204,34.46443 -67.0717,39.91516 -63.6833,45.11677 -59.9103,50.03452 -55.7343,54.6537 -51.2287,58.88461 -46.375,62.7675 -41.2284,66.26579 -35.8619,69.3428 -30.2152,71.943615 -24.4184,74.141485 -18.4365,75.844835 -12.363,77.053665 -6.2108,77.8046 v 78.06102 l 6.2108,77.8046 12.363,77.05367 18.4365,75.84483 24.4184,74.14149 30.2152,71.94361 35.8619,69.3428 41.2284,66.26579 46.375,62.76751 51.2287,58.8846 55.7343,54.6537 59.9103,50.03819 63.6833,45.1113 67.0717,39.9096 70.0204,34.47 72.5481,28.7921 74.5994,22.9311 76.2111,16.9419 77.2918,10.8245 77.8961,4.6522 78.0428,-1.5569 77.6763,-7.7475 76.7973,-13.8832 75.4419,-19.9456 73.6286,-25.8983 71.3575,-31.6493 68.5919,-37.199 65.4416,-42.5654 61.8334,-47.6022 57.8773,-52.38255 53.5181,-56.81495 48.8293,-60.881 43.8475,-64.58075 38.5727,-67.84092 33.0596,-70.71648 27.3635,-73.09749 21.4292,-75.03895 15.4217,-76.52251 9.286,-77.49324 3.0954,-77.98776" />
        <path
           inkscape:connector-curvature="0"
           id="path2597"
           style="fill:none;stroke:#cacacb;stroke-width:9.16237164;stroke-linecap:butt;stroke-linejoin:bevel;stroke-miterlimit:10;stroke-dasharray:13.73668826, 41.21006478;stroke-dashoffset:0;stroke-opacity:1"
           d="m 3916.11,256.6738 -3.7363,-93.59263 -11.1542,-92.988227 -18.4805,-91.816024 -25.7517,-90.039409 -32.8032,-87.73165 -39.6899,-84.8561 -46.2834,-81.41278 -52.6207,-77.49323 -58.5916,-73.04439 -64.2144,-68.1761 -69.4527,-62.85908 -74.2147,-57.14279 -78.5006,-51.06202 -82.3286,-44.65889 -85.607,-37.98286 -88.3727,-31.05774 -90.534,-23.9403 -92.164,-16.67634 -93.208,-9.30065 -93.6476,-1.85354 -93.4827,5.57344 -92.7501,12.99307 -91.4314,20.33213 -89.5266,27.51734 -87.054,34.54868 -84.0319,41.36026 -80.4787,47.89891 -76.4492,54.14636 -71.8704,60.04765 -66.8885,65.56429 -61.4597,70.66519 -55.6483,75.35032 -49.4869,79.50795 -43.0269,83.18938 -36.2667,86.35798 -29.2976,88.958794 -22.1436,90.991824 -14.8393,92.493702 -7.4251,93.35453 v 93.6659 l 7.4251,93.37285 14.8393,92.47538 22.1436,90.99183 29.2976,88.95879 36.2667,86.35798 43.0269,83.18939 49.4869,79.50795 55.6483,75.35031 61.4597,70.66157 66.8885,65.5697 71.8704,60.0385 76.4492,54.1592 80.4787,47.8953 84.0319,41.3566 87.054,34.5432 89.5266,27.5283 91.4314,20.3303 92.7501,12.9857 93.4827,5.5863 93.6476,-1.8682 93.208,-9.286 92.164,-16.6855 90.534,-23.9385 88.3727,-31.0632 85.607,-37.9682 82.3286,-44.6717 78.5006,-51.0639 74.2147,-57.1446 69.4527,-62.8591 64.2144,-68.1706 58.5916,-73.04254 52.6207,-77.49324 46.2834,-81.41277 39.6899,-84.85611 32.8032,-87.73164 25.7517,-90.03942 18.4805,-91.81602 11.1542,-92.98822 3.7363,-93.59264" />
        <path
           inkscape:connector-curvature="0"
           id="path2599"
           style="fill:none;stroke:#cacacb;stroke-width:9.16237164;stroke-linecap:butt;stroke-linejoin:bevel;stroke-miterlimit:10;stroke-dasharray:13.73668826, 41.21006478;stroke-dashoffset:0;stroke-opacity:1"
           d="m 4112.4348,256.6738 -4.3591,-109.1792 -13.0041,-108.483203 -21.5941,-107.127853 -30.0192,-105.076504 -38.2796,-102.32917 -46.2835,-98.99574 -54.0126,-94.98462 -61.3755,-90.3984 -68.3721,-85.23889 -74.9291,-79.53726 -81.0098,-73.32644 -86.5778,-66.66507 -91.5962,-59.57693 -96.0469,-52.09868 -99.8749,-44.31454 -103.0984,-36.2374 -105.6443,-27.9258 -107.5308,-19.453 -108.7213,-10.8519 -109.2525,-2.1686 -109.0876,6.5112 -108.1902,15.1671 -106.6699,23.7022 -104.4538,32.1036 -101.5599,40.32174 -98.0433,48.24325 -93.904,55.87718 -89.1603,63.17412 -83.8579,70.04245 -78.0281,76.5042 -71.7018,82.4476 -64.9343,87.88733 -57.738,92.7721 -50.1884,97.05428 -42.3126,100.75403 -34.1916,103.7761 -25.8194,106.175445 -17.3064,107.897108 -8.6871,108.922777 v 109.27078 l 8.6871,108.92278 17.3064,107.89711 25.8194,106.17544 34.1916,103.7761 42.3126,100.75403 50.1884,97.05428 57.738,92.76847 64.9343,87.8965 71.7018,82.4384 78.0281,76.5042 83.8579,70.0388 89.1603,63.1888 93.904,55.8625 98.0433,48.2432 101.5599,40.331 104.4538,32.1072 106.6699,23.7003 108.1902,15.1653 109.0876,6.5021 109.2525,-2.1613 108.7213,-10.8611 107.5308,-19.4512 105.6443,-27.9129 103.0984,-36.2465 99.8749,-44.3054 96.0469,-52.1079 91.5962,-59.5806 86.5778,-66.6504 81.0098,-73.3356 74.9291,-79.5263 68.3721,-85.2407 61.3755,-90.40571 54.0126,-94.98462 46.2835,-98.99573 38.2796,-102.32917 30.0192,-105.07651 21.5941,-107.12785 13.0041,-108.48321 4.3591,-109.1792" />
        <path
           inkscape:connector-curvature="0"
           id="path2601"
           style="fill:none;stroke:#cacacb;stroke-width:9.16237164;stroke-linecap:butt;stroke-linejoin:bevel;stroke-miterlimit:10;stroke-dasharray:13.73668826, 41.21006478;stroke-dashoffset:0;stroke-opacity:1"
           d="m 4505.066,256.6738 -5.5863,-140.37064 -16.7221,-139.491488 -27.7481,-137.733192 -38.6093,-135.07744 -49.214,-131.59747 -59.5256,-127.25302 -69.4161,-122.13564 -78.9401,-116.2252 -87.8965,-109.58581 -96.34,-102.2596 -104.1424,-94.2886 -111.3221,-85.7041 -117.7876,-76.5976 -123.4653,-66.9874 -128.4289,-56.9853 -132.5499,-46.5765 -135.81,-35.9224 -138.2461,-25.0044 -139.8028,-13.9382 -140.4622,-2.8041 -140.2425,8.3775 -139.1251,19.497 -137.1471,30.4771 -134.2899,41.2815 -130.5901,51.8276 -126.0479,62.0367 -120.7271,71.8392 -114.63,81.226 -107.8183,90.0742 -100.3218,98.34005 -92.2006,106.00877 -83.4788,112.99067 -74.2349,119.28024 -64.5331,124.7969 -54.3973,129.52781 -43.9574,133.42904 -33.2043,136.524361 -22.24982,138.703921 -11.15419,140.040958 v 140.51716 l 11.15419,140.04096 22.24982,138.70392 33.2043,136.52437 43.9574,133.42903 54.3973,129.52784 64.5331,124.8024 74.2349,119.271 83.4788,112.9889 92.2006,106.0106 100.3218,98.3364 107.8183,90.076 114.63,81.2296 120.7271,71.8337 126.0479,62.0349 130.5901,51.8331 134.2899,41.2834 137.1471,30.4771 139.1251,19.5061 140.2425,8.3702 140.4622,-2.8023 139.8028,-13.9381 138.2461,-25.0008 135.81,-35.9352 132.5499,-46.5765 128.4289,-56.9798 123.4653,-66.9801 117.7876,-76.5958 111.3221,-85.7169 104.1424,-94.2886 96.34,-102.2559 87.8965,-109.5822 78.9401,-116.2307 69.4161,-122.1283 59.5256,-127.25667 49.214,-131.59747 38.6093,-135.07744 27.7481,-137.73319 16.7221,-139.49149 5.5863,-140.37064" />
        <path
           inkscape:connector-curvature="0"
           id="path2603"
           style="fill:none;stroke:#cacacb;stroke-width:9.16237164;stroke-linecap:butt;stroke-linejoin:bevel;stroke-miterlimit:10;stroke-dasharray:13.73668826, 41.21006478;stroke-dashoffset:0;stroke-opacity:1"
           d="m 4701.3907,256.6738 -6.209,-155.97552 -18.5903,-155.004786 -30.8251,-153.026704 -42.8951,-150.0779 -54.6903,-146.21331 -66.1193,-141.39448 -77.1636,-135.69833 -87.6767,-129.13953 -97.677,-121.77844 -107.0363,-113.6134 -115.7361,-104.756 -123.6852,-95.2411 -130.8465,-85.096 -137.2204,-74.4437 -142.6784,-63.3096 -147.2756,-51.7562 -150.9204,-39.9079 -153.5945,-27.7884 -155.3345,-15.4821 -156.0671,-3.1045 -155.8289,9.3006 -154.5836,21.6637 -152.3856,33.8619 -149.1988,45.875 -145.096,57.5732 -140.0611,68.9344 -134.1397,79.8358 -127.3794,90.2335 -119.7949,100.0709 -111.4742,109.2781 -102.4317,117.79119 -92.7666,125.55516 -82.4769,132.52974 -71.70187,138.6563 -60.45608,143.91653 -48.82202,148.26466 -36.89675,151.67135 L 788.92914,23.021892 776.524,178.6311 v 156.08541 l 12.40514,155.6092 24.72604,154.14396 36.89675,151.67135 48.82202,148.26466 60.45608,143.92382 71.70187,138.649 82.4769,132.5316 92.7666,125.5533 102.4317,117.7875 111.4742,109.2891 119.7949,100.0581 127.3794,90.2408 134.1397,79.8377 140.0611,68.9398 145.096,57.5659 149.1988,45.8806 152.3856,33.8472 154.5836,21.6673 155.8289,9.3043 156.0671,-3.1136 155.3345,-15.4767 153.5945,-27.7847 150.9204,-39.9097 147.2756,-51.7598 142.6784,-63.2987 137.2204,-74.4529 130.8465,-85.0942 123.6852,-95.241 115.7361,-104.7468 107.0363,-113.6299 97.677,-121.762 87.6767,-129.1432 77.1636,-135.7002 66.1193,-141.3963 54.6903,-146.21329 42.8951,-150.0779 30.8251,-153.0267 18.5903,-155.00479 6.209,-155.97552" />
        <path
           inkscape:connector-curvature="0"
           id="path2605"
           style="fill:none;stroke:#cacacb;stroke-width:9.16237164;stroke-linecap:butt;stroke-linejoin:bevel;stroke-miterlimit:10;stroke-dasharray:13.73668826, 41.21006478;stroke-dashoffset:0;stroke-opacity:1"
           d="m 4897.6971,256.6738 -6.8317,-171.580393 -20.4218,-170.481459 -33.9205,-168.320218 -47.1809,-165.09668 -60.1484,-160.83464 -72.7495,-155.54693 -84.8744,-149.27201 -96.4499,-142.05387 -107.4392,-133.9455 -117.7509,-124.991 -127.2933,-115.238 -136.0482,-104.756 -143.9422,-93.6165 -150.9387,-81.8688 -156.9646,-69.6432 -161.983,-56.9431 -166.0124,-43.886 -168.9796,-30.5632 -170.8478,-17.05 -171.6903,-3.4049 -171.3972,10.2384 -170.0419,23.8176 -167.6242,37.2521 -164.126,50.4686 -159.602,63.3243 -154.0743,75.832 -147.5394,87.8141 -140.1142,99.2613 -131.7807,110.0876 -122.6283,120.1961 -112.6756,129.5607 -102.02333,138.12519 -90.73357,145.77373 -78.87973,152.53402 -66.49473,158.29977 -53.70862,163.10027 -40.58001,166.83666 L 594.00371,-0.34879406 580.36775,170.82866 v 171.7086 l 13.63596,171.15914 27.2023,169.54736 40.58001,166.83666 53.70862,163.10028 66.49473,158.3016 78.87973,152.5322 90.73357,145.7737 102.02333,138.1178 112.6756,129.5645 122.6283,120.2052 131.7807,110.0766 140.1142,99.2705 147.5394,87.8049 154.0743,75.8448 159.602,63.317 164.126,50.4594 167.6242,37.2539 170.0419,23.8286 171.3972,10.2384 171.6903,-3.4067 170.8478,-17.0518 168.9796,-30.5687 166.0124,-43.8841 161.983,-56.9432 156.9646,-69.6358 150.9387,-81.8707 143.9422,-93.6109 136.0482,-104.7652 127.2933,-115.2416 117.7509,-124.9856 107.4392,-133.9419 96.4499,-142.0556 84.8744,-149.272 72.7495,-155.5543 60.1484,-160.82915 47.1809,-165.09668 33.9205,-168.32022 20.4218,-170.48145 6.8317,-171.5804" />
        <path
           inkscape:connector-curvature="0"
           id="path2607"
           style="fill:none;stroke:#dfe0e1;stroke-width:9.16237164;stroke-linecap:butt;stroke-linejoin:round;stroke-miterlimit:10;stroke-dasharray:none;stroke-opacity:1"
           d="m 2738.1799,256.6738 v 0 0 0 0 0 0 0 0 0 0 0 0 0 0 0 0 0 0 0 0 0 0 0 0 0 0 0 0 0 0 0 0 0 0 0 0 0 0 0 0 0 0 0 0 0 0 0 0 0 0 0 0 0 0 0 0 0 0 0 0 0 0 0 0 0 0 0 0 0 0 0 0 0 0 0 0 0 0 0" />
        <path
           inkscape:connector-curvature="0"
           id="path2609"
           style="fill:none;stroke:#dfe0e1;stroke-width:9.16237164;stroke-linecap:butt;stroke-linejoin:round;stroke-miterlimit:10;stroke-dasharray:none;stroke-opacity:1"
           d="m 3523.4605,256.6738 -2.4909,-62.40119 -7.4178,-61.97994 -12.3447,-61.210685 -17.1617,-60.038486 -21.8505,-58.48166 -26.466,-56.576839 -30.8618,-54.26908 -35.0743,-51.64995 -39.0672,-48.71945 -42.8218,-45.44096 -46.2835,-41.90606 -49.4704,-38.0781 -52.3459,-34.06699 -54.8735,-29.76282 -57.0897,-25.31214 -58.9212,-20.71493 -60.3499,-15.97119 -61.4487,-11.1084 -62.1265,-6.19616 -62.4378,-1.23813 -62.3097,3.72722 -61.8517,8.65045 -60.9542,13.56452 -59.6722,18.3339 -58.0421,23.041 -56.0274,27.56496 -53.6463,31.94238 -50.954,36.0817 -47.9135,40.03787 -44.5802,43.70098 -40.9903,47.126 -37.089,50.20302 -33.0047,53.02361 -28.6822,55.459593 -24.1766,57.565881 -19.5427,59.305862 -14.7441,60.679534 -9.8904,61.65025 -4.9635,62.23636 v 62.45614 l 4.9635,62.23636 9.8904,61.65025 14.7441,60.67954 19.5427,59.30586 24.1766,57.56588 28.6822,55.45959 33.0047,53.02362 37.089,50.20301 40.9903,47.126 44.5802,43.70099 47.9135,40.03786 50.954,36.0817 53.6463,31.94238 56.0274,27.56496 58.0421,23.041 59.6722,18.33393 60.9542,13.5718 61.8517,8.645 62.3097,3.718 62.4378,-1.2271 62.1265,-6.1907 61.4487,-11.1175 60.3499,-15.9712 58.9212,-20.71495 57.0897,-25.31213 54.8735,-29.76283 52.3459,-34.06699 49.4704,-38.0781 46.2835,-41.90605 42.8218,-45.44097 39.0672,-48.71945 35.0743,-51.64995 30.8618,-54.26908 26.466,-56.57684 21.8505,-58.48166 17.1617,-60.03848 12.3447,-61.21069 7.4178,-61.97993 2.4909,-62.4012" />
        <path
           inkscape:connector-curvature="0"
           id="path2611"
           style="fill:none;stroke:#dfe0e1;stroke-width:9.16237164;stroke-linecap:butt;stroke-linejoin:round;stroke-miterlimit:10;stroke-dasharray:none;stroke-opacity:1"
           d="m 4308.7412,256.6738 -4.9635,-124.78408 -14.8539,-123.9781855 -24.6711,-122.4213645 -34.3234,-120.07697 -43.756,-116.98164 -52.8954,-113.11705 -61.7235,-108.5583 -70.1487,-103.31088 -78.1343,-97.40961 -85.6253,-90.90574 -92.6036,-83.80845 -98.9408,-76.18733 -104.6919,-68.0754 -109.7653,-59.5476 -114.1427,-50.6462 -117.8058,-41.4189 -120.7364,-31.9076 -122.8975,-22.2443 -124.253,-12.3923 -124.8573,-2.4818 -124.6559,7.4472 -123.6668,17.321 -121.9085,27.1016 -119.3627,36.6898 -116.0842,46.0746 -112.0364,55.1391 -107.311,63.861 -101.9098,72.19633 -95.8417,80.05925 -89.1731,87.42211 -81.9549,94.23185 -74.1928,100.44267 -65.9929,106.02342 -57.3662,110.93017 -48.3495,115.13176 -39.0635,118.61173 -29.5192,121.340743 -19.7827,123.300514 -9.9234,124.491023 v 124.87566 l 9.9234,124.49102 19.7827,123.30052 29.5192,121.34075 39.0635,118.61172 48.3495,115.13176 57.3662,110.9375 65.9929,106.0106 74.1928,100.4427 81.9549,94.2336 89.1731,87.4203 95.8417,80.0574 101.9098,72.2001 107.311,63.8664 112.0364,55.1299 116.0842,46.082 119.3627,36.6862 121.9085,27.107 123.6668,17.3266 124.6559,7.4361 124.8573,-2.4726 124.253,-12.3997 122.8975,-22.2351 120.7364,-31.924 117.8058,-41.4116 114.1427,-50.6426 109.7653,-59.5439 104.6919,-68.0791 98.9408,-76.1928 92.6036,-83.8121 85.6253,-90.9003 78.1343,-97.4022 70.1487,-103.3182 61.7235,-108.55651 52.8954,-113.11705 43.756,-116.98164 34.3234,-120.07697 24.6711,-122.42136 14.8539,-123.97819 4.9635,-124.78408" />
        <path
           inkscape:connector-curvature="0"
           id="path2613"
           style="fill:none;stroke:#dfe0e1;stroke-width:9.16237164;stroke-linecap:butt;stroke-linejoin:round;stroke-miterlimit:10;stroke-dasharray:none;stroke-opacity:1"
           d="m 5094.0219,256.6738 -7.4544,-187.185271 -22.2901,-185.976439 -36.9975,-183.63205 -51.4668,-180.11546 -65.6247,-175.44315 -79.3615,-169.6829 -92.5669,-162.83837 -105.2414,-154.96636 -117.2014,-146.1309 -128.4472,-136.3375 -138.8687,-125.7108 -148.4295,-114.2801 -157.0379,-102.1314 -164.6387,-89.3159 -171.2324,-75.9603 -176.7271,-62.1374 -181.0862,-47.8696 -184.328,-33.3417 -186.3977,-18.594 -187.2769,-3.7272 -186.9838,11.1688 -185.5185,25.9917 -182.8628,40.6441 -179.0532,55.0475 -174.1061,69.0919 -168.0675,82.7131 -160.9701,95.7997 -152.8491,108.2836 -143.7553,120.0879 -133.7606,131.1286 -122.93786,141.3524 -111.30197,150.6585 -98.97559,159.03236 -86.04845,166.39159 -72.53887,172.71046 -58.58789,177.91026 -44.27243,182.02028 -29.67674,184.95077 -14.87409,186.72738 v 187.3318 l 14.87409,186.72738 29.67674,184.95077 44.27243,182.02028 58.58789,177.91757 72.53887,172.6977 86.04845,166.397 98.97559,159.0343 111.30197,150.664 122.93786,141.3413 133.7606,131.1396 143.7553,120.077 152.8491,108.2817 160.9701,95.8088 168.0675,82.7132 174.1061,69.0864 179.0532,55.0566 182.8628,40.6423 185.5185,25.9898 186.9838,11.1725 187.2769,-3.7363 186.3977,-18.5903 184.328,-33.3344 181.0862,-47.877 176.7271,-62.1264 171.2324,-75.9731 164.6387,-89.3251 157.0379,-102.1277 148.4295,-114.2709 138.8687,-125.7182 128.4472,-136.3412 117.2014,-146.1217 105.2414,-154.9682 92.5669,-162.8438 79.3615,-169.6756 65.6247,-175.44498 51.4668,-180.11545 36.9975,-183.63205 22.2901,-185.97645 7.4544,-187.18527" />
        <path
           inkscape:connector-curvature="0"
           id="path2615"
           style="fill:none;stroke:#dfe0e1;stroke-width:9.16237164;stroke-linecap:square;stroke-linejoin:round;stroke-miterlimit:10;stroke-dasharray:none;stroke-opacity:1"
           d="m 5094.0219,256.6738 -7.4544,187.18527 -22.2901,185.97645 -36.9975,183.63205 -51.4668,180.11545 -65.6247,175.44498 -79.3615,169.6756 -92.5669,162.8438 -105.2414,154.9682 -117.2014,146.1217 -128.4472,136.3412 -138.8687,125.7182 -148.4295,114.2709 -157.0379,102.1277 -164.6387,89.3251 -171.2324,75.9731 -176.7271,62.1264 -181.0862,47.877 -184.328,33.3344 -186.3977,18.5903 -187.2769,3.7363 -186.9838,-11.1725 -185.5185,-25.9898 -182.8628,-40.6423 -179.0532,-55.0566 -174.1061,-69.0864 -168.0675,-82.7132 -160.9701,-95.8088 -152.8491,-108.2817 -143.7553,-120.077 L 1023.4199,1872.09 900.48204,1730.7487 789.18007,1580.0847 690.20448,1421.0504 604.15603,1254.6534 531.61716,1081.9557 473.02927,904.03813 428.75684,722.01785 399.0801,537.06708 384.20601,350.3397 V 163.0079 l 14.87409,-186.72738 29.67674,-184.95077 44.27243,-182.02028 58.58789,-177.91026 72.53887,-172.71046 86.04845,-166.39159 98.97559,-159.03236 111.30197,-150.6585 122.93786,-141.3524 133.7606,-131.1286 143.7553,-120.0879 152.8491,-108.2836 160.9701,-95.7997 168.0675,-82.7131 174.1061,-69.0919 179.0532,-55.0475 182.8628,-40.6441 185.5185,-25.9917 186.9838,-11.1688 187.2769,3.7272 186.3977,18.594 184.328,33.3417 181.0862,47.8696 176.7271,62.1374 171.2324,75.9603 164.6387,89.3159 157.0379,102.1314 148.4295,114.2801 138.8687,125.7108 128.4472,136.3375 117.2014,146.1309 105.2414,154.96636 92.5669,162.83837 79.3615,169.6829 65.6247,175.44315 51.4668,180.11546 36.9975,183.63205 22.2901,185.976439 7.4544,187.185271" />
        <g
           transform="matrix(18.315584,0,0,18.315584,0,-2346.4286)"
           id="g2617">
          <text
             id="text2659"
             style="font-variant:normal;font-weight:normal;font-size:9.99975014px;font-family:Helvetica;-inkscape-font-specification:Helvetica;writing-mode:lr-tb;fill:#444041;fill-opacity:1;fill-rule:nonzero;stroke:none"
             transform="matrix(1,0,0,-1,282.125,138)">
            <tspan
               id="tspan2619"
               y="0"
               x="0">0</tspan>
            <tspan
               id="tspan2621"
               sodipodi:role="line"
               y="-45.3605"
               x="-7.9984398 -2.4385791">20</tspan>
            <tspan
               id="tspan2623"
               sodipodi:role="line"
               y="-91.624603"
               x="-31.02854 -25.468679">40</tspan>
            <tspan
               id="tspan2625"
               sodipodi:role="line"
               y="-121.2316"
               x="-66.312538 -60.752678">60</tspan>
            <tspan
               id="tspan2627"
               sodipodi:role="line"
               y="-136.98511"
               x="-115.21994 -109.66008 -164.28014 -158.72028 -153.16042">80100</tspan>
            <tspan
               id="tspan2629"
               sodipodi:role="line"
               y="-121.2316"
               x="-216.18755 -210.62769 -205.06783">120</tspan>
            <tspan
               id="tspan2631"
               sodipodi:role="line"
               y="-91.624603"
               x="-251.47154 -245.91168 -240.35182">140</tspan>
            <tspan
               id="tspan2633"
               sodipodi:role="line"
               y="-45.3605"
               x="-274.50165 -268.94177 -263.38193">160</tspan>
            <tspan
               id="tspan2635"
               sodipodi:role="line"
               y="-7.1054274e-015"
               x="-282.50009 -276.94022 -271.38037">180</tspan>
            <tspan
               id="tspan2637"
               sodipodi:role="line"
               y="45.3605"
               x="-274.50165 -268.94177 -263.38193">200</tspan>
            <tspan
               id="tspan2639"
               sodipodi:role="line"
               y="91.624603"
               x="-251.47154 -245.91168 -240.35182">220</tspan>
            <tspan
               id="tspan2641"
               sodipodi:role="line"
               y="121.2316"
               x="-216.18755 -210.62769 -205.06783">240</tspan>
            <tspan
               id="tspan2643"
               sodipodi:role="line"
               y="136.98511"
               x="-164.28014 -158.72028 -153.16042 -118.21999 -112.66013 -107.10027">260280</tspan>
            <tspan
               id="tspan2645"
               sodipodi:role="line"
               y="121.2316"
               x="-66.312538 -60.752678 -55.192818">300</tspan>
            <tspan
               id="tspan2647"
               sodipodi:role="line"
               y="91.624603"
               x="-31.02854 -25.468679 -19.908817">320</tspan>
            <tspan
               id="tspan2649"
               sodipodi:role="line"
               y="45.3605"
               x="-7.9984398 -2.4385791 3.1212821">340</tspan>
            <tspan
               id="tspan2651"
               y="-2.1316282e-014"
               x="-135.62544">0</tspan>
            <tspan
               id="tspan2653"
               sodipodi:role="line"
               y="-42.223801"
               x="-132.30513 -126.74527 -123.96534">0.2</tspan>
            <tspan
               id="tspan2655"
               sodipodi:role="line"
               y="-84.447197"
               x="-124.86021 -119.30035 -116.52042">0.4</tspan>
            <tspan
               id="tspan2657"
               sodipodi:role="line"
               y="-126.671"
               x="-117.4149 -111.85504 -109.07511">0.6</tspan>
          </text>
        </g>
        <g
           id="g2793">
          <path
             sodipodi:nodetypes="cccccccccccccccccccccccccccccccccccccccccccccccccccccccccccccccccccccccc"
             d="m 3893.7284,256.6738 9.982,101.96286 0.9158,103.72115 -8.4252,104.61862 9.2677,114.56398 -2.1979,118.42857 -1.74,128.35561 -3.8096,140.27911 13.3337,172.2397 -8.535,180.1704 -13.059,207.6987 -16.246,248.9455 -22.8212,305.4306 -166.0308,102.6955 -200.2076,20.4402 -196.4163,1.4103 -188.3758,-2.5825 -181.1595,9.3043 -180.0238,-6.5936 -180.0239,6.5936 -183.6687,4.9269 -189.6029,2.3078 -197.6252,-1.7949 -183.0533,-60.2034 -4.8994,-376.7515 -13.8869,-265.4844 -12.8355,-209.9332 5.5093,-190.6653 -2.5697,-152.3307 4.2639,-136.67089 -4.8078,-114.98524 7.5625,-110.4796 -8.0626,-94.87473 1.0092,-92.78675 -4.5935,-87.40197 3.2052,-86.21145 -3.6851,-84.34327 3.6851,-84.34326 -3.2052,-86.21146 4.5935,-87.4019689 -1.0092,-92.7867501 8.0626,-94.874731 -7.5625,-110.4796 4.8078,-114.98524 -4.2639,-136.67638 2.5697,-152.32706 -5.5093,-190.66157 12.8355,-209.94238 13.8869,-265.4826 4.8994,-376.7442 183.0533,-60.2125 197.6252,-1.7803 189.6029,2.3041 183.6687,4.9361 180.0239,6.5899 180.0238,-6.5899 181.1595,9.2933 188.3758,-2.5825 196.4163,1.4158 200.2076,20.442 166.0308,102.6955 22.8212,305.4197 16.246,248.9418 13.059,207.69503 8.535,180.18689 -13.3337,172.24525 3.8096,140.26624 1.74,128.37393 2.1979,118.41025 -9.2677,114.563981 8.4252,104.618618 -0.9158,103.721151"
             style="fill:none;stroke:#002dff;stroke-width:28.34645653;stroke-linecap:butt;stroke-linejoin:round;stroke-miterlimit:10;stroke-dasharray:none;stroke-opacity:1"
             id="path2661"
             inkscape:connector-curvature="0" />
          <path
             d="m 3903.7104,154.71094 -9.982,101.96286"
             style="fill:none;stroke:#002dff;stroke-width:28.34645653;stroke-linecap:butt;stroke-linejoin:round;stroke-miterlimit:10;stroke-dasharray:none;stroke-opacity:1"
             id="path2663"
             inkscape:connector-curvature="0" />
        </g>
        <g
           id="g2789"
           style="stroke-width:28.34645653;stroke-miterlimit:10;stroke-dasharray:none">
          <path
             d="m 3792.6081,256.6738 10.3849,93.15306 2.0513,94.94799 -6.502,96.0103 -1.6667,101.23023 1.6667,109.10594 2.9122,119.43592 1.6117,131.76236 -2.6557,145.6638 -10.2201,160.7009 6.4288,209.3838 -14.5426,229.4576 -11.1359,297.958 -110.9924,187.9362 -205.4459,-8.645 -189.2,-0.8608 -178.4854,10.0003 -176.1776,-5.8976 -172.4595,-6.9233 -172.4596,6.9233 -173.6684,-8.3153 -180.9946,4.2126 -189.1999,0.8608 -205.4386,8.645 -89.3453,-225.4649 -7.9343,-295.9432 -11.5535,-227.1315 -11.1981,-186.4161 1.6887,-169.0528 -1.1081,-143.66745 2.9543,-129.61939 4.077,-117.20142 2.6265,-106.79818 -0.8938,-98.81257 -5.9599,-93.53769 2.3755,-92.47539 -3.9561,-90.62551 3.9561,-90.62551 -2.3755,-92.475386 5.9599,-93.537689 0.8938,-98.812575 -2.6265,-106.79817 -4.077,-117.20143 8.8721,-121.34075 0.3425,-142.66741 -12.7495,-178.33335 11.1981,-186.41785 19.8395,-215.29418 -0.3517,-307.7733 89.3453,-225.4611 200.4933,-4.9434 194.1452,14.4382 180.9946,4.2144 173.6684,-8.3061 172.4596,6.9177 172.4595,-6.9177 176.1776,-5.9105 178.4854,10.0022 189.2,-0.8664 205.4459,-8.6284 110.9924,187.9362 19.4145,286.1297 6.264,241.273 3.773,199.18199 0.018,170.89906 2.6557,145.673 -1.6117,131.76231 -2.9122,119.43593 -1.6667,109.10593 1.6667,101.230237 6.502,96.010293 -2.0513,94.94799"
             style="fill:none;stroke:#000000;stroke-width:28.34645653;stroke-linecap:butt;stroke-linejoin:round;stroke-miterlimit:10;stroke-dasharray:none;stroke-opacity:1"
             id="path2665"
             inkscape:connector-curvature="0" />
          <path
             d="m 3802.993,163.52074 -10.3849,93.15306"
             style="fill:none;stroke:#000000;stroke-width:28.34645653;stroke-linecap:butt;stroke-linejoin:round;stroke-miterlimit:10;stroke-dasharray:none;stroke-opacity:1"
             id="path2667"
             inkscape:connector-curvature="0" />
        </g>
        <g
           style="font-style:normal;font-variant:normal;font-weight:normal;font-stretch:normal;letter-spacing:normal;word-spacing:normal;text-anchor:start;fill:none;fill-opacity:1;fill-rule:evenodd;stroke:#000000;stroke-linecap:butt;stroke-linejoin:miter;stroke-miterlimit:10.43299961;stroke-dasharray:none;stroke-dashoffset:0;stroke-opacity:1"
           id="content-9"
           transform="matrix(18.919524,0,0,18.919524,477.59607,-9924.5115)"
           xml:space="preserve"
           stroke-miterlimit="10.433"
           font-style="normal"
           font-variant="normal"
           font-weight="normal"
           font-stretch="normal"
           font-size-adjust="none"
           letter-spacing="normal"
           word-spacing="normal"
           ns0:version="0.8.0"
           ns0:texconverter="pdflatex"
           ns0:pdfconverter="pstoedit"
           ns0:text="[m/s]"
           ns0:preamble="C:\\Users\\shadylady\\AppData\\Roaming\\inkscape\\extensions\\default_packages.tex"
           ns0:scale="50.0"
           ns0:alignment="middle center"
           inkscapeversion="0.92.3"
           ns0:jacobian_sqrt="17.638889">
<polygon
   style="fill:#000000;stroke-width:0"
   points="151.26,654.75 151.26,655.15 150.29,655.15 150.29,664.29 151.26,664.29 151.26,664.68 149.89,664.68 149.89,654.75 "
   id="polygon2914-6" />
<path
   style="fill:#000000;stroke-width:0"
   inkscape:connector-curvature="0"
   d="m 152.58,660.65 v -2.66 c 0,-0.45 -0.11,-0.45 -0.78,-0.45 v -0.31 c 0.35,0.01 0.86,0.04 1.13,0.04 0.25,0 0.77,-0.03 1.11,-0.04 v 0.31 c -0.67,0 -0.78,0 -0.78,0.45 v 1.83 c 0,1.03 0.71,1.59 1.35,1.59 0.63,0 0.74,-0.54 0.74,-1.11 v -2.31 c 0,-0.45 -0.11,-0.45 -0.78,-0.45 v -0.31 c 0.35,0.01 0.86,0.04 1.13,0.04 0.26,0 0.78,-0.03 1.12,-0.04 v 0.31 c -0.67,0 -0.78,0 -0.78,0.45 v 1.83 c 0,1.03 0.7,1.59 1.34,1.59 0.63,0 0.74,-0.54 0.74,-1.11 v -2.31 c 0,-0.45 -0.11,-0.45 -0.78,-0.45 v -0.31 c 0.35,0.01 0.86,0.04 1.13,0.04 0.26,0 0.78,-0.03 1.12,-0.04 v 0.31 c -0.52,0 -0.77,0 -0.78,0.3 v 1.9 c 0,0.85 0,1.16 -0.31,1.52 -0.14,0.17 -0.47,0.37 -1.05,0.37 -0.83,0 -1.27,-0.6 -1.44,-0.98 -0.14,0.87 -0.88,0.98 -1.33,0.98 -0.73,0 -1.2,-0.43 -1.47,-1.05 v 1.05 l -1.41,-0.11 v -0.31 c 0.7,0 0.78,-0.07 0.78,-0.56 z"
   id="path2916-0" />
<path
   style="fill:#000000;stroke-width:0"
   inkscape:connector-curvature="0"
   d="m 164.15,664.31 v 0 0.01 l 0.01,0.01 v 0 0.01 0 0.01 h 0.01 v 0.01 0 0.01 l 0.01,0.01 v 0.01 0.01 0 0.01 l 0.01,0.01 v 0 0.01 0 0.01 0 0.01 h 0.01 v 0.01 0 0 0.01 0 0 0 0.01 0 0 0.01 c 0,0.11 -0.09,0.19 -0.2,0.19 -0.14,0 -0.18,-0.09 -0.21,-0.19 l -3.4,-9.36 c -0.05,-0.13 -0.05,-0.16 -0.05,-0.18 0,-0.11 0.09,-0.2 0.2,-0.2 0.14,0 0.18,0.1 0.21,0.2 z"
   id="path2918-8" />
<path
   style="fill:#000000;stroke-width:0"
   inkscape:connector-curvature="0"
   d="m 166.84,659.16 h 0.02 l 0.02,-0.01 h 0.03 l 0.03,-0.01 0.04,-0.01 0.03,-0.01 0.04,-0.01 0.04,-0.01 0.04,-0.01 0.04,-0.01 0.05,-0.02 0.04,-0.02 0.05,-0.01 0.04,-0.03 0.04,-0.02 0.05,-0.02 0.04,-0.03 0.04,-0.03 0.04,-0.03 0.04,-0.03 0.04,-0.03 0.04,-0.04 0.03,-0.04 0.03,-0.04 0.03,-0.05 0.01,-0.02 0.02,-0.03 0.01,-0.02 0.01,-0.03 0.01,-0.02 0.01,-0.03 0.01,-0.03 v -0.02 l 0.01,-0.03 v -0.03 l 0.01,-0.03 v -0.04 -0.03 -0.03 c 0,-0.51 -0.35,-0.91 -1.12,-0.91 -0.84,0 -1.2,0.57 -1.39,1.42 -0.03,0.12 -0.04,0.16 -0.14,0.16 -0.13,0 -0.13,-0.07 -0.13,-0.25 v -1.31 c 0,-0.16 0,-0.23 0.11,-0.23 0.05,0 0.06,0.01 0.25,0.19 0.02,0.02 0.02,0.04 0.2,0.23 0.44,-0.41 0.89,-0.42 1.1,-0.42 1.14,0 1.6,0.66 1.6,1.38 0,0.52 -0.3,0.82 -0.42,0.94 -0.33,0.32 -0.71,0.4 -1.13,0.48 -0.56,0.11 -1.23,0.23 -1.23,0.81 0,0.35 0.26,0.76 1.12,0.76 1.09,0 1.14,-0.9 1.16,-1.21 0.01,-0.08 0.1,-0.08 0.12,-0.08 0.13,0 0.13,0.05 0.13,0.23 v 1.01 c 0,0.17 0,0.23 -0.11,0.23 -0.05,0 -0.07,0 -0.2,-0.11 -0.03,-0.04 -0.13,-0.13 -0.16,-0.16 -0.38,0.27 -0.79,0.27 -0.94,0.27 -1.22,0 -1.6,-0.66 -1.6,-1.22 0,-0.34 0.16,-0.62 0.43,-0.84 0.32,-0.26 0.6,-0.32 1.32,-0.46 z"
   id="path2920-9" />
<polygon
   style="fill:#000000;stroke-width:0"
   points="170.28,664.68 168.91,664.68 168.91,664.29 169.88,664.29 169.88,655.15 168.91,655.15 168.91,654.75 170.28,654.75 "
   id="polygon2922-5" />
</g>        <g
           style="font-style:normal;font-variant:normal;font-weight:normal;font-stretch:normal;letter-spacing:normal;word-spacing:normal;text-anchor:start;fill:none;fill-opacity:1;fill-rule:evenodd;stroke:#000000;stroke-linecap:butt;stroke-linejoin:miter;stroke-miterlimit:10.43299961;stroke-dasharray:none;stroke-dashoffset:0;stroke-opacity:1"
           id="content-9-8"
           transform="matrix(18.919524,0,0,18.919524,347.701,-10707.29)"
           xml:space="preserve"
           stroke-miterlimit="10.433"
           font-style="normal"
           font-variant="normal"
           font-weight="normal"
           font-stretch="normal"
           font-size-adjust="none"
           letter-spacing="normal"
           word-spacing="normal"
           ns0:version="0.8.0"
           ns0:texconverter="pdflatex"
           ns0:pdfconverter="pstoedit"
           ns0:text="[m/s]"
           ns0:preamble="C:\\Users\\shadylady\\AppData\\Roaming\\inkscape\\extensions\\default_packages.tex"
           ns0:scale="50.0"
           ns0:alignment="middle center"
           inkscapeversion="0.92.3"
           ns0:jacobian_sqrt="17.638889">
<polygon
   style="fill:#000000;stroke-width:0"
   points="149.89,664.68 149.89,654.75 151.26,654.75 151.26,655.15 150.29,655.15 150.29,664.29 151.26,664.29 151.26,664.68 "
   id="polygon2914-6-3" />
<path
   style="fill:#000000;stroke-width:0"
   inkscape:connector-curvature="0"
   d="m 152.58,660.65 v -2.66 c 0,-0.45 -0.11,-0.45 -0.78,-0.45 v -0.31 c 0.35,0.01 0.86,0.04 1.13,0.04 0.25,0 0.77,-0.03 1.11,-0.04 v 0.31 c -0.67,0 -0.78,0 -0.78,0.45 v 1.83 c 0,1.03 0.71,1.59 1.35,1.59 0.63,0 0.74,-0.54 0.74,-1.11 v -2.31 c 0,-0.45 -0.11,-0.45 -0.78,-0.45 v -0.31 c 0.35,0.01 0.86,0.04 1.13,0.04 0.26,0 0.78,-0.03 1.12,-0.04 v 0.31 c -0.67,0 -0.78,0 -0.78,0.45 v 1.83 c 0,1.03 0.7,1.59 1.34,1.59 0.63,0 0.74,-0.54 0.74,-1.11 v -2.31 c 0,-0.45 -0.11,-0.45 -0.78,-0.45 v -0.31 c 0.35,0.01 0.86,0.04 1.13,0.04 0.26,0 0.78,-0.03 1.12,-0.04 v 0.31 c -0.52,0 -0.77,0 -0.78,0.3 v 1.9 c 0,0.85 0,1.16 -0.31,1.52 -0.14,0.17 -0.47,0.37 -1.05,0.37 -0.83,0 -1.27,-0.6 -1.44,-0.98 -0.14,0.87 -0.88,0.98 -1.33,0.98 -0.73,0 -1.2,-0.43 -1.47,-1.05 v 1.05 l -1.41,-0.11 v -0.31 c 0.7,0 0.78,-0.07 0.78,-0.56 z"
   id="path2916-0-7" />
<path
   style="fill:#000000;stroke-width:0"
   inkscape:connector-curvature="0"
   d="m 164.15,664.31 v 0 0.01 l 0.01,0.01 v 0 0.01 0 0.01 h 0.01 v 0.01 0 0.01 l 0.01,0.01 v 0.01 0.01 0 0.01 l 0.01,0.01 v 0 0.01 0 0.01 0 0.01 h 0.01 v 0.01 0 0 0.01 0 0 0 0.01 0 0 0.01 c 0,0.11 -0.09,0.19 -0.2,0.19 -0.14,0 -0.18,-0.09 -0.21,-0.19 l -3.4,-9.36 c -0.05,-0.13 -0.05,-0.16 -0.05,-0.18 0,-0.11 0.09,-0.2 0.2,-0.2 0.14,0 0.18,0.1 0.21,0.2 z"
   id="path2918-8-0" />
<path
   style="fill:#000000;stroke-width:0"
   inkscape:connector-curvature="0"
   d="m 166.84,659.16 h 0.02 l 0.02,-0.01 h 0.03 l 0.03,-0.01 0.04,-0.01 0.03,-0.01 0.04,-0.01 0.04,-0.01 0.04,-0.01 0.04,-0.01 0.05,-0.02 0.04,-0.02 0.05,-0.01 0.04,-0.03 0.04,-0.02 0.05,-0.02 0.04,-0.03 0.04,-0.03 0.04,-0.03 0.04,-0.03 0.04,-0.03 0.04,-0.04 0.03,-0.04 0.03,-0.04 0.03,-0.05 0.01,-0.02 0.02,-0.03 0.01,-0.02 0.01,-0.03 0.01,-0.02 0.01,-0.03 0.01,-0.03 v -0.02 l 0.01,-0.03 v -0.03 l 0.01,-0.03 v -0.04 -0.03 -0.03 c 0,-0.51 -0.35,-0.91 -1.12,-0.91 -0.84,0 -1.2,0.57 -1.39,1.42 -0.03,0.12 -0.04,0.16 -0.14,0.16 -0.13,0 -0.13,-0.07 -0.13,-0.25 v -1.31 c 0,-0.16 0,-0.23 0.11,-0.23 0.05,0 0.06,0.01 0.25,0.19 0.02,0.02 0.02,0.04 0.2,0.23 0.44,-0.41 0.89,-0.42 1.1,-0.42 1.14,0 1.6,0.66 1.6,1.38 0,0.52 -0.3,0.82 -0.42,0.94 -0.33,0.32 -0.71,0.4 -1.13,0.48 -0.56,0.11 -1.23,0.23 -1.23,0.81 0,0.35 0.26,0.76 1.12,0.76 1.09,0 1.14,-0.9 1.16,-1.21 0.01,-0.08 0.1,-0.08 0.12,-0.08 0.13,0 0.13,0.05 0.13,0.23 v 1.01 c 0,0.17 0,0.23 -0.11,0.23 -0.05,0 -0.07,0 -0.2,-0.11 -0.03,-0.04 -0.13,-0.13 -0.16,-0.16 -0.38,0.27 -0.79,0.27 -0.94,0.27 -1.22,0 -1.6,-0.66 -1.6,-1.22 0,-0.34 0.16,-0.62 0.43,-0.84 0.32,-0.26 0.6,-0.32 1.32,-0.46 z"
   id="path2920-9-0" />
<polygon
   style="fill:#000000;stroke-width:0"
   points="168.91,654.75 170.28,654.75 170.28,664.68 168.91,664.68 168.91,664.29 169.88,664.29 169.88,655.15 168.91,655.15 "
   id="polygon2922-5-5" />
</g>        <g
           style="font-style:normal;font-variant:normal;font-weight:normal;font-stretch:normal;letter-spacing:normal;word-spacing:normal;text-anchor:start;fill:none;fill-opacity:1;fill-rule:evenodd;stroke:#000000;stroke-linecap:butt;stroke-linejoin:miter;stroke-miterlimit:10.43299961;stroke-dasharray:none;stroke-dashoffset:0;stroke-opacity:1"
           id="content-9-2"
           transform="matrix(18.919524,0,0,18.919524,212.94676,-11479.088)"
           xml:space="preserve"
           stroke-miterlimit="10.433"
           font-style="normal"
           font-variant="normal"
           font-weight="normal"
           font-stretch="normal"
           font-size-adjust="none"
           letter-spacing="normal"
           word-spacing="normal"
           ns0:version="0.8.0"
           ns0:texconverter="pdflatex"
           ns0:pdfconverter="pstoedit"
           ns0:text="[m/s]"
           ns0:preamble="C:\\Users\\shadylady\\AppData\\Roaming\\inkscape\\extensions\\default_packages.tex"
           ns0:scale="50.0"
           ns0:alignment="middle center"
           inkscapeversion="0.92.3"
           ns0:jacobian_sqrt="17.638889">
<polygon
   style="fill:#000000;stroke-width:0"
   points="151.26,664.68 149.89,664.68 149.89,654.75 151.26,654.75 151.26,655.15 150.29,655.15 150.29,664.29 151.26,664.29 "
   id="polygon2914-6-4" />
<path
   style="fill:#000000;stroke-width:0"
   inkscape:connector-curvature="0"
   d="m 152.58,660.65 v -2.66 c 0,-0.45 -0.11,-0.45 -0.78,-0.45 v -0.31 c 0.35,0.01 0.86,0.04 1.13,0.04 0.25,0 0.77,-0.03 1.11,-0.04 v 0.31 c -0.67,0 -0.78,0 -0.78,0.45 v 1.83 c 0,1.03 0.71,1.59 1.35,1.59 0.63,0 0.74,-0.54 0.74,-1.11 v -2.31 c 0,-0.45 -0.11,-0.45 -0.78,-0.45 v -0.31 c 0.35,0.01 0.86,0.04 1.13,0.04 0.26,0 0.78,-0.03 1.12,-0.04 v 0.31 c -0.67,0 -0.78,0 -0.78,0.45 v 1.83 c 0,1.03 0.7,1.59 1.34,1.59 0.63,0 0.74,-0.54 0.74,-1.11 v -2.31 c 0,-0.45 -0.11,-0.45 -0.78,-0.45 v -0.31 c 0.35,0.01 0.86,0.04 1.13,0.04 0.26,0 0.78,-0.03 1.12,-0.04 v 0.31 c -0.52,0 -0.77,0 -0.78,0.3 v 1.9 c 0,0.85 0,1.16 -0.31,1.52 -0.14,0.17 -0.47,0.37 -1.05,0.37 -0.83,0 -1.27,-0.6 -1.44,-0.98 -0.14,0.87 -0.88,0.98 -1.33,0.98 -0.73,0 -1.2,-0.43 -1.47,-1.05 v 1.05 l -1.41,-0.11 v -0.31 c 0.7,0 0.78,-0.07 0.78,-0.56 z"
   id="path2916-0-2" />
<path
   style="fill:#000000;stroke-width:0"
   inkscape:connector-curvature="0"
   d="m 164.15,664.31 v 0 0.01 l 0.01,0.01 v 0 0.01 0 0.01 h 0.01 v 0.01 0 0.01 l 0.01,0.01 v 0.01 0.01 0 0.01 l 0.01,0.01 v 0 0.01 0 0.01 0 0.01 h 0.01 v 0.01 0 0 0.01 0 0 0 0.01 0 0 0.01 c 0,0.11 -0.09,0.19 -0.2,0.19 -0.14,0 -0.18,-0.09 -0.21,-0.19 l -3.4,-9.36 c -0.05,-0.13 -0.05,-0.16 -0.05,-0.18 0,-0.11 0.09,-0.2 0.2,-0.2 0.14,0 0.18,0.1 0.21,0.2 z"
   id="path2918-8-5" />
<path
   style="fill:#000000;stroke-width:0"
   inkscape:connector-curvature="0"
   d="m 166.84,659.16 h 0.02 l 0.02,-0.01 h 0.03 l 0.03,-0.01 0.04,-0.01 0.03,-0.01 0.04,-0.01 0.04,-0.01 0.04,-0.01 0.04,-0.01 0.05,-0.02 0.04,-0.02 0.05,-0.01 0.04,-0.03 0.04,-0.02 0.05,-0.02 0.04,-0.03 0.04,-0.03 0.04,-0.03 0.04,-0.03 0.04,-0.03 0.04,-0.04 0.03,-0.04 0.03,-0.04 0.03,-0.05 0.01,-0.02 0.02,-0.03 0.01,-0.02 0.01,-0.03 0.01,-0.02 0.01,-0.03 0.01,-0.03 v -0.02 l 0.01,-0.03 v -0.03 l 0.01,-0.03 v -0.04 -0.03 -0.03 c 0,-0.51 -0.35,-0.91 -1.12,-0.91 -0.84,0 -1.2,0.57 -1.39,1.42 -0.03,0.12 -0.04,0.16 -0.14,0.16 -0.13,0 -0.13,-0.07 -0.13,-0.25 v -1.31 c 0,-0.16 0,-0.23 0.11,-0.23 0.05,0 0.06,0.01 0.25,0.19 0.02,0.02 0.02,0.04 0.2,0.23 0.44,-0.41 0.89,-0.42 1.1,-0.42 1.14,0 1.6,0.66 1.6,1.38 0,0.52 -0.3,0.82 -0.42,0.94 -0.33,0.32 -0.71,0.4 -1.13,0.48 -0.56,0.11 -1.23,0.23 -1.23,0.81 0,0.35 0.26,0.76 1.12,0.76 1.09,0 1.14,-0.9 1.16,-1.21 0.01,-0.08 0.1,-0.08 0.12,-0.08 0.13,0 0.13,0.05 0.13,0.23 v 1.01 c 0,0.17 0,0.23 -0.11,0.23 -0.05,0 -0.07,0 -0.2,-0.11 -0.03,-0.04 -0.13,-0.13 -0.16,-0.16 -0.38,0.27 -0.79,0.27 -0.94,0.27 -1.22,0 -1.6,-0.66 -1.6,-1.22 0,-0.34 0.16,-0.62 0.43,-0.84 0.32,-0.26 0.6,-0.32 1.32,-0.46 z"
   id="path2920-9-5" />
<polygon
   style="fill:#000000;stroke-width:0"
   points="168.91,655.15 168.91,654.75 170.28,654.75 170.28,664.68 168.91,664.68 168.91,664.29 169.88,664.29 169.88,655.15 "
   id="polygon2922-5-6" />
</g>      </g>
    </g>
  </g>
</svg>
