<?xml version="1.0" encoding="UTF-8" standalone="no"?>
<!-- Created with Inkscape (http://www.inkscape.org/) -->

<svg
   xmlns:ns0="http://www.iki.fi/pav/software/textext/"
   xmlns:dc="http://purl.org/dc/elements/1.1/"
   xmlns:cc="http://creativecommons.org/ns#"
   xmlns:rdf="http://www.w3.org/1999/02/22-rdf-syntax-ns#"
   xmlns:svg="http://www.w3.org/2000/svg"
   xmlns="http://www.w3.org/2000/svg"
   xmlns:sodipodi="http://sodipodi.sourceforge.net/DTD/sodipodi-0.dtd"
   xmlns:inkscape="http://www.inkscape.org/namespaces/inkscape"
   width="314.97482mm"
   height="200.66872mm"
   viewBox="0 0 314.97482 200.66871"
   version="1.1"
   id="svg45069"
   inkscape:version="0.92.3 (2405546, 2018-03-11)"
   sodipodi:docname="impulse33.svg">
  <sodipodi:namedview
     id="base"
     pagecolor="#ffffff"
     bordercolor="#666666"
     borderopacity="1.0"
     inkscape:pageopacity="0.0"
     inkscape:pageshadow="2"
     inkscape:zoom="0.49497475"
     inkscape:cx="477.07315"
     inkscape:cy="625.88342"
     inkscape:document-units="mm"
     inkscape:current-layer="g45624"
     showgrid="false"
     inkscape:window-width="1920"
     inkscape:window-height="1137"
     inkscape:window-x="-8"
     inkscape:window-y="-8"
     inkscape:window-maximized="1"
     fit-margin-top="0"
     fit-margin-left="0"
     fit-margin-right="0"
     fit-margin-bottom="0" />
  <defs
     id="defs45063" />
  <metadata
     id="metadata45066">
    <rdf:RDF>
      <cc:Work
         rdf:about="">
        <dc:format>image/svg+xml</dc:format>
        <dc:type
           rdf:resource="http://purl.org/dc/dcmitype/StillImage" />
        <dc:title></dc:title>
      </cc:Work>
    </rdf:RDF>
  </metadata>
  <g
     id="layer1"
     inkscape:groupmode="layer"
     inkscape:label="Layer 1"
     transform="translate(27.551925,-84.984222)">
    <g
       id="g45622"
       inkscape:label="ink_ext_XXXXXX"
       transform="matrix(1.0437343,0,0,-1.0437343,-28.567528,286.42228)">
      <g
         id="g45624"
         transform="scale(0.1)">
        <path
           d="m 412.5,350 h 2610"
           style="fill:none;stroke:#444041;stroke-width:9.99750042;stroke-linecap:square;stroke-linejoin:round;stroke-miterlimit:10;stroke-dasharray:none;stroke-opacity:1"
           id="path45632"
           inkscape:connector-curvature="0" />
        <path
           d="m 412.5,1817.5876 h 2610"
           style="fill:none;stroke:#444041;stroke-width:9.99750042;stroke-linecap:square;stroke-linejoin:round;stroke-miterlimit:10;stroke-dasharray:none;stroke-opacity:1"
           id="path45634"
           inkscape:connector-curvature="0" />
        <path
           d="m 412.5,350 v 26.102"
           style="fill:none;stroke:#444041;stroke-width:9.99750042;stroke-linecap:square;stroke-linejoin:round;stroke-miterlimit:10;stroke-dasharray:none;stroke-opacity:1"
           id="path45636"
           inkscape:connector-curvature="0" />
        <path
           d="m 785.355,350 v 26.102"
           style="fill:none;stroke:#444041;stroke-width:9.99750042;stroke-linecap:square;stroke-linejoin:round;stroke-miterlimit:10;stroke-dasharray:none;stroke-opacity:1"
           id="path45638"
           inkscape:connector-curvature="0" />
        <path
           d="m 1158.22,350 v 26.102"
           style="fill:none;stroke:#444041;stroke-width:9.99750042;stroke-linecap:square;stroke-linejoin:round;stroke-miterlimit:10;stroke-dasharray:none;stroke-opacity:1"
           id="path45640"
           inkscape:connector-curvature="0" />
        <path
           d="m 1531.07,350 v 26.102"
           style="fill:none;stroke:#444041;stroke-width:9.99750042;stroke-linecap:square;stroke-linejoin:round;stroke-miterlimit:10;stroke-dasharray:none;stroke-opacity:1"
           id="path45642"
           inkscape:connector-curvature="0" />
        <path
           d="m 1903.93,350 v 26.102"
           style="fill:none;stroke:#444041;stroke-width:9.99750042;stroke-linecap:square;stroke-linejoin:round;stroke-miterlimit:10;stroke-dasharray:none;stroke-opacity:1"
           id="path45644"
           inkscape:connector-curvature="0" />
        <path
           d="m 2276.78,350 v 26.102"
           style="fill:none;stroke:#444041;stroke-width:9.99750042;stroke-linecap:square;stroke-linejoin:round;stroke-miterlimit:10;stroke-dasharray:none;stroke-opacity:1"
           id="path45646"
           inkscape:connector-curvature="0" />
        <path
           d="m 2649.64,350 v 26.102"
           style="fill:none;stroke:#444041;stroke-width:9.99750042;stroke-linecap:square;stroke-linejoin:round;stroke-miterlimit:10;stroke-dasharray:none;stroke-opacity:1"
           id="path45648"
           inkscape:connector-curvature="0" />
        <path
           d="m 412.5,1817.5876 v -26.1"
           style="fill:none;stroke:#444041;stroke-width:9.99750042;stroke-linecap:square;stroke-linejoin:round;stroke-miterlimit:10;stroke-dasharray:none;stroke-opacity:1"
           id="path45650"
           inkscape:connector-curvature="0" />
        <path
           d="m 785.355,1817.5876 v -26.1"
           style="fill:none;stroke:#444041;stroke-width:9.99750042;stroke-linecap:square;stroke-linejoin:round;stroke-miterlimit:10;stroke-dasharray:none;stroke-opacity:1"
           id="path45652"
           inkscape:connector-curvature="0" />
        <path
           d="m 1158.22,1817.5876 v -26.1"
           style="fill:none;stroke:#444041;stroke-width:9.99750042;stroke-linecap:square;stroke-linejoin:round;stroke-miterlimit:10;stroke-dasharray:none;stroke-opacity:1"
           id="path45654"
           inkscape:connector-curvature="0" />
        <path
           d="m 1531.07,1817.5876 v -26.1"
           style="fill:none;stroke:#444041;stroke-width:9.99750042;stroke-linecap:square;stroke-linejoin:round;stroke-miterlimit:10;stroke-dasharray:none;stroke-opacity:1"
           id="path45656"
           inkscape:connector-curvature="0" />
        <path
           d="m 1903.93,1817.5876 v -26.1"
           style="fill:none;stroke:#444041;stroke-width:9.99750042;stroke-linecap:square;stroke-linejoin:round;stroke-miterlimit:10;stroke-dasharray:none;stroke-opacity:1"
           id="path45658"
           inkscape:connector-curvature="0" />
        <path
           d="m 2276.78,1817.5876 v -26.1"
           style="fill:none;stroke:#444041;stroke-width:9.99750042;stroke-linecap:square;stroke-linejoin:round;stroke-miterlimit:10;stroke-dasharray:none;stroke-opacity:1"
           id="path45660"
           inkscape:connector-curvature="0" />
        <path
           d="m 2649.64,1817.5876 v -26.1"
           style="fill:none;stroke:#444041;stroke-width:9.99750042;stroke-linecap:square;stroke-linejoin:round;stroke-miterlimit:10;stroke-dasharray:none;stroke-opacity:1"
           id="path45662"
           inkscape:connector-curvature="0" />
        <path
           d="m 412.5,202.508 c -9.766,0 -16.426,4.043 -19.98,12.129 -3.555,8.082 -5.332,17.711 -5.332,28.879 0,6.957 0.644,13.5 1.933,19.636 1.293,6.129 3.813,11.325 7.563,15.586 3.75,4.254 9.019,6.383 15.816,6.383 5.309,0 9.645,-1.289 13.004,-3.863 3.359,-2.582 5.922,-5.899 7.68,-9.961 1.757,-4.063 2.945,-8.438 3.57,-13.125 0.625,-4.688 0.937,-9.574 0.937,-14.656 0,-6.875 -0.625,-13.317 -1.875,-19.332 -1.25,-6.016 -3.73,-11.133 -7.437,-15.356 -3.711,-4.215 -9.004,-6.32 -15.879,-6.32 z m 0,3.164 c 4.453,0 7.773,2.285 9.961,6.855 2.187,4.571 3.535,9.629 4.043,15.172 0.508,5.547 0.762,11.442 0.762,17.692 0,6.023 -0.254,11.57 -0.762,16.644 -0.508,5.078 -1.832,9.692 -3.984,13.828 -2.149,4.141 -5.489,6.211 -10.02,6.211 -4.531,0 -7.891,-2.07 -10.078,-6.211 -2.188,-4.136 -3.535,-8.75 -4.043,-13.828 -0.508,-5.074 -0.758,-10.621 -0.758,-16.644 0,-4.45 0.113,-8.645 0.344,-12.59 0.234,-3.946 0.824,-8.008 1.762,-12.188 0.937,-4.179 2.437,-7.715 4.507,-10.605 2.071,-2.891 4.825,-4.336 8.266,-4.336"
           style="fill:#000000;fill-opacity:1;fill-rule:nonzero;stroke:none"
           id="path45664"
           inkscape:connector-curvature="0" />
        <path
           d="m 708.691,202.508 c -9.765,0 -16.425,4.043 -19.98,12.129 -3.555,8.082 -5.332,17.711 -5.332,28.879 0,6.957 0.644,13.5 1.937,19.636 1.286,6.129 3.801,11.325 7.551,15.586 3.75,4.254 9.024,6.383 15.824,6.383 5.313,0 9.645,-1.289 13.004,-3.863 3.364,-2.582 5.922,-5.899 7.684,-9.961 1.754,-4.063 2.941,-8.438 3.566,-13.125 0.625,-4.688 0.938,-9.574 0.938,-14.656 0,-6.875 -0.625,-13.317 -1.875,-19.332 -1.25,-6.016 -3.727,-11.133 -7.438,-15.356 -3.711,-4.215 -9.004,-6.32 -15.879,-6.32 z m 0,3.164 c 4.45,0 7.77,2.285 9.961,6.855 2.184,4.571 3.532,9.629 4.043,15.172 0.504,5.547 0.758,11.442 0.758,17.692 0,6.023 -0.254,11.57 -0.758,16.644 -0.511,5.078 -1.84,9.692 -3.984,13.828 -2.148,4.141 -5.488,6.211 -10.02,6.211 -4.535,0 -7.894,-2.07 -10.078,-6.211 -2.191,-4.136 -3.539,-8.75 -4.043,-13.828 -0.511,-5.074 -0.765,-10.621 -0.765,-16.644 0,-4.45 0.117,-8.645 0.351,-12.59 0.235,-3.946 0.824,-8.008 1.762,-12.188 0.937,-4.179 2.437,-7.715 4.508,-10.605 2.07,-2.891 4.828,-4.336 8.265,-4.336"
           style="fill:#000000;fill-opacity:1;fill-rule:nonzero;stroke:none"
           id="path45666"
           inkscape:connector-curvature="0" />
        <path
           d="m 748.773,211.883 c 0,1.793 0.661,3.336 1.985,4.629 1.332,1.289 2.894,1.933 4.687,1.933 1.098,0 2.172,-0.297 3.227,-0.886 1.055,-0.582 1.875,-1.403 2.461,-2.457 0.586,-1.055 0.875,-2.129 0.875,-3.219 0,-1.801 -0.645,-3.363 -1.934,-4.688 -1.285,-1.332 -2.828,-1.996 -4.629,-1.996 -1.793,0 -3.355,0.664 -4.687,1.996 -1.324,1.325 -1.985,2.887 -1.985,4.688"
           style="fill:#000000;fill-opacity:1;fill-rule:nonzero;stroke:none"
           id="path45668"
           inkscape:connector-curvature="0" />
        <path
           d="m 802.023,202.508 c -9.765,0 -16.425,4.043 -19.98,12.129 -3.555,8.082 -5.332,17.711 -5.332,28.879 0,6.957 0.644,13.5 1.934,19.636 1.289,6.129 3.808,11.325 7.558,15.586 3.75,4.254 9.024,6.383 15.82,6.383 5.313,0 9.653,-1.289 13.012,-3.863 3.356,-2.582 5.91,-5.899 7.672,-9.961 1.762,-4.063 2.953,-8.438 3.578,-13.125 0.625,-4.688 0.938,-9.574 0.938,-14.656 0,-6.875 -0.625,-13.317 -1.875,-19.332 -1.25,-6.016 -3.735,-11.133 -7.45,-15.356 -3.707,-4.215 -9,-6.32 -15.875,-6.32 z m 0,3.164 c 4.454,0 7.774,2.285 9.957,6.855 2.192,4.571 3.54,9.629 4.043,15.172 0.512,5.547 0.766,11.442 0.766,17.692 0,6.023 -0.254,11.57 -0.766,16.644 -0.503,5.078 -1.832,9.692 -3.98,13.828 -2.152,4.141 -5.492,6.211 -10.02,6.211 -4.531,0 -7.89,-2.07 -10.082,-6.211 -2.183,-4.136 -3.531,-8.75 -4.043,-13.828 -0.503,-5.074 -0.757,-10.621 -0.757,-16.644 0,-4.45 0.117,-8.645 0.355,-12.59 0.234,-3.946 0.82,-8.008 1.754,-12.188 0.941,-4.179 2.445,-7.715 4.516,-10.605 2.07,-2.891 4.82,-4.336 8.257,-4.336"
           style="fill:#000000;fill-opacity:1;fill-rule:nonzero;stroke:none"
           id="path45670"
           inkscape:connector-curvature="0" />
        <path
           d="m 842.453,218.91 c 0.863,-2.344 2.133,-4.472 3.813,-6.383 1.679,-1.914 3.687,-3.418 6.027,-4.515 2.348,-1.094 4.77,-1.641 7.27,-1.641 5.781,0 9.765,2.246 11.953,6.742 2.187,4.489 3.277,9.938 3.277,16.34 0,2.817 -0.055,5.16 -0.172,7.035 -0.117,1.875 -0.375,3.711 -0.766,5.508 -0.777,2.813 -2.085,5.277 -3.921,7.387 -1.832,2.109 -4.118,3.164 -6.856,3.164 -2.652,0 -4.957,-0.41 -6.914,-1.238 -1.953,-0.821 -3.535,-1.774 -4.746,-2.864 -1.211,-1.093 -2.285,-2.246 -3.227,-3.457 -0.933,-1.211 -1.519,-1.855 -1.753,-1.937 h -1.29 c -0.234,0 -0.488,0.121 -0.757,0.355 -0.278,0.235 -0.414,0.469 -0.414,0.703 v 40.075 c 0,0.234 0.117,0.449 0.351,0.644 0.238,0.195 0.508,0.293 0.82,0.293 h 0.352 c 5.391,-2.574 11.094,-3.863 17.105,-3.863 5.942,0 11.684,1.289 17.231,3.863 h 0.352 c 0.234,0 0.468,-0.098 0.703,-0.293 0.238,-0.195 0.355,-0.41 0.355,-0.644 v -1.051 c 0,-0.391 -0.082,-0.586 -0.242,-0.586 -2.731,-3.676 -6.149,-6.527 -10.25,-8.559 -4.102,-2.027 -8.379,-3.043 -12.836,-3.043 -3.199,0 -6.477,0.469 -9.84,1.403 v -22.735 c 2.656,2.188 5.039,3.731 7.149,4.629 2.109,0.899 4.765,1.352 7.964,1.352 4.457,0 8.422,-1.27 11.895,-3.813 3.48,-2.539 6.16,-5.84 8.035,-9.898 1.875,-4.067 2.813,-8.246 2.813,-12.539 0,-4.766 -1.176,-9.203 -3.52,-13.305 -2.344,-4.101 -5.547,-7.383 -9.605,-9.84 -4.067,-2.461 -8.481,-3.691 -13.246,-3.691 -3.985,0 -7.618,1.035 -10.899,3.105 -3.281,2.071 -5.875,4.821 -7.793,8.258 -1.914,3.438 -2.871,7.07 -2.871,10.895 0,1.8 0.586,3.265 1.754,4.398 1.176,1.133 2.66,1.699 4.457,1.699 1.719,0 3.184,-0.566 4.394,-1.699 1.211,-1.133 1.813,-2.598 1.813,-4.398 0,-1.715 -0.602,-3.157 -1.813,-4.332 -1.21,-1.172 -2.675,-1.758 -4.394,-1.758 -0.313,0 -0.645,0.023 -1,0.062 -0.348,0.039 -0.602,0.098 -0.758,0.172"
           style="fill:#000000;fill-opacity:1;fill-rule:nonzero;stroke:none"
           id="path45672"
           inkscape:connector-curvature="0" />
        <path
           d="m 1111.55,202.508 c -9.76,0 -16.42,4.043 -19.98,12.129 -3.55,8.082 -5.33,17.711 -5.33,28.879 0,6.957 0.64,13.5 1.93,19.636 1.29,6.129 3.8,11.325 7.55,15.586 3.75,4.254 9.03,6.383 15.83,6.383 5.31,0 9.65,-1.289 13,-3.863 3.36,-2.582 5.92,-5.899 7.68,-9.961 1.76,-4.063 2.95,-8.438 3.57,-13.125 0.63,-4.688 0.94,-9.574 0.94,-14.656 0,-6.875 -0.62,-13.317 -1.87,-19.332 -1.25,-6.016 -3.73,-11.133 -7.44,-15.356 -3.71,-4.215 -9,-6.32 -15.88,-6.32 z m 0,3.164 c 4.45,0 7.77,2.285 9.96,6.855 2.19,4.571 3.53,9.629 4.04,15.172 0.51,5.547 0.77,11.442 0.77,17.692 0,6.023 -0.26,11.57 -0.77,16.644 -0.51,5.078 -1.84,9.692 -3.98,13.828 -2.15,4.141 -5.49,6.211 -10.02,6.211 -4.53,0 -7.89,-2.07 -10.08,-6.211 -2.18,-4.136 -3.53,-8.75 -4.04,-13.828 -0.51,-5.074 -0.77,-10.621 -0.77,-16.644 0,-4.45 0.12,-8.645 0.36,-12.59 0.23,-3.946 0.82,-8.008 1.76,-12.188 0.93,-4.179 2.43,-7.715 4.51,-10.605 2.07,-2.891 4.82,-4.336 8.26,-4.336"
           style="fill:#000000;fill-opacity:1;fill-rule:nonzero;stroke:none"
           id="path45674"
           inkscape:connector-curvature="0" />
        <path
           d="m 1151.63,211.883 c 0,1.793 0.66,3.336 1.99,4.629 1.33,1.289 2.89,1.933 4.68,1.933 1.1,0 2.17,-0.297 3.23,-0.886 1.06,-0.582 1.87,-1.403 2.46,-2.457 0.58,-1.055 0.88,-2.129 0.88,-3.219 0,-1.801 -0.65,-3.363 -1.94,-4.688 -1.28,-1.332 -2.82,-1.996 -4.63,-1.996 -1.79,0 -3.35,0.664 -4.68,1.996 -1.33,1.325 -1.99,2.887 -1.99,4.688"
           style="fill:#000000;fill-opacity:1;fill-rule:nonzero;stroke:none"
           id="path45676"
           inkscape:connector-curvature="0" />
        <path
           d="m 1186.02,205.199 v 4.223 c 10,0 15,1.289 15,3.863 v 62.934 c -4.15,-1.957 -9.38,-2.934 -15.71,-2.934 v 4.223 c 9.85,0 17.27,2.539 22.27,7.613 h 1.63 c 0.32,0 0.59,-0.098 0.83,-0.293 0.23,-0.195 0.35,-0.449 0.35,-0.758 v -70.785 c 0,-2.574 5,-3.863 15,-3.863 v -4.223 h -39.37"
           style="fill:#000000;fill-opacity:1;fill-rule:nonzero;stroke:none"
           id="path45678"
           inkscape:connector-curvature="0" />
        <path
           d="m 1454.41,202.508 c -9.77,0 -16.43,4.043 -19.98,12.129 -3.56,8.082 -5.34,17.711 -5.34,28.879 0,6.957 0.65,13.5 1.94,19.636 1.28,6.129 3.8,11.325 7.55,15.586 3.75,4.254 9.03,6.383 15.83,6.383 5.3,0 9.64,-1.289 13,-3.863 3.36,-2.582 5.92,-5.899 7.68,-9.961 1.76,-4.063 2.95,-8.438 3.57,-13.125 0.63,-4.688 0.94,-9.574 0.94,-14.656 0,-6.875 -0.63,-13.317 -1.88,-19.332 -1.25,-6.016 -3.73,-11.133 -7.43,-15.356 -3.72,-4.215 -9.01,-6.32 -15.88,-6.32 z m 0,3.164 c 4.45,0 7.77,2.285 9.96,6.855 2.18,4.571 3.53,9.629 4.04,15.172 0.5,5.547 0.76,11.442 0.76,17.692 0,6.023 -0.26,11.57 -0.76,16.644 -0.51,5.078 -1.84,9.692 -3.98,13.828 -2.15,4.141 -5.49,6.211 -10.02,6.211 -4.54,0 -7.9,-2.07 -10.08,-6.211 -2.19,-4.136 -3.54,-8.75 -4.04,-13.828 -0.52,-5.074 -0.77,-10.621 -0.77,-16.644 0,-4.45 0.12,-8.645 0.35,-12.59 0.24,-3.946 0.83,-8.008 1.76,-12.188 0.94,-4.179 2.44,-7.715 4.51,-10.605 2.07,-2.891 4.82,-4.336 8.27,-4.336"
           style="fill:#000000;fill-opacity:1;fill-rule:nonzero;stroke:none"
           id="path45680"
           inkscape:connector-curvature="0" />
        <path
           d="m 1494.49,211.883 c 0,1.793 0.66,3.336 1.98,4.629 1.33,1.289 2.9,1.933 4.69,1.933 1.1,0 2.17,-0.297 3.23,-0.886 1.05,-0.582 1.87,-1.403 2.46,-2.457 0.58,-1.055 0.87,-2.129 0.87,-3.219 0,-1.801 -0.64,-3.363 -1.93,-4.688 -1.29,-1.332 -2.83,-1.996 -4.63,-1.996 -1.79,0 -3.36,0.664 -4.69,1.996 -1.32,1.325 -1.98,2.887 -1.98,4.688"
           style="fill:#000000;fill-opacity:1;fill-rule:nonzero;stroke:none"
           id="path45682"
           inkscape:connector-curvature="0" />
        <path
           d="m 1528.88,205.199 v 4.223 c 10,0 15,1.289 15,3.863 v 62.934 c -4.15,-1.957 -9.39,-2.934 -15.71,-2.934 v 4.223 c 9.85,0 17.27,2.539 22.27,7.613 h 1.63 c 0.32,0 0.59,-0.098 0.83,-0.293 0.23,-0.195 0.35,-0.449 0.35,-0.758 v -70.785 c 0,-2.574 5,-3.863 15,-3.863 v -4.223 h -39.37"
           style="fill:#000000;fill-opacity:1;fill-rule:nonzero;stroke:none"
           id="path45684"
           inkscape:connector-curvature="0" />
        <path
           d="m 1588.17,218.91 c 0.86,-2.344 2.13,-4.472 3.81,-6.383 1.68,-1.914 3.69,-3.418 6.03,-4.515 2.35,-1.094 4.77,-1.641 7.27,-1.641 5.77,0 9.76,2.246 11.95,6.742 2.19,4.489 3.28,9.938 3.28,16.34 0,2.817 -0.06,5.16 -0.17,7.035 -0.13,1.875 -0.38,3.711 -0.77,5.508 -0.78,2.813 -2.09,5.277 -3.92,7.387 -1.84,2.109 -4.12,3.164 -6.86,3.164 -2.65,0 -4.95,-0.41 -6.91,-1.238 -1.95,-0.821 -3.54,-1.774 -4.75,-2.864 -1.21,-1.093 -2.28,-2.246 -3.22,-3.457 -0.94,-1.211 -1.52,-1.855 -1.76,-1.937 h -1.29 c -0.23,0 -0.48,0.121 -0.75,0.355 -0.28,0.235 -0.42,0.469 -0.42,0.703 v 40.075 c 0,0.234 0.12,0.449 0.35,0.644 0.24,0.195 0.51,0.293 0.82,0.293 h 0.35 c 5.4,-2.574 11.09,-3.863 17.11,-3.863 5.94,0 11.68,1.289 17.23,3.863 h 0.35 c 0.24,0 0.47,-0.098 0.71,-0.293 0.23,-0.195 0.35,-0.41 0.35,-0.644 v -1.051 c 0,-0.391 -0.08,-0.586 -0.24,-0.586 -2.73,-3.676 -6.15,-6.527 -10.26,-8.559 -4.09,-2.027 -8.37,-3.043 -12.83,-3.043 -3.2,0 -6.48,0.469 -9.84,1.403 v -22.735 c 2.66,2.188 5.04,3.731 7.15,4.629 2.11,0.899 4.77,1.352 7.97,1.352 4.45,0 8.42,-1.27 11.89,-3.813 3.48,-2.539 6.16,-5.84 8.04,-9.898 1.87,-4.067 2.81,-8.246 2.81,-12.539 0,-4.766 -1.18,-9.203 -3.52,-13.305 -2.34,-4.101 -5.55,-7.383 -9.61,-9.84 -4.06,-2.461 -8.48,-3.691 -13.24,-3.691 -3.99,0 -7.62,1.035 -10.9,3.105 -3.28,2.071 -5.88,4.821 -7.79,8.258 -1.92,3.438 -2.88,7.07 -2.88,10.895 0,1.8 0.59,3.265 1.76,4.398 1.17,1.133 2.66,1.699 4.46,1.699 1.71,0 3.18,-0.566 4.39,-1.699 1.21,-1.133 1.81,-2.598 1.81,-4.398 0,-1.715 -0.6,-3.157 -1.81,-4.332 -1.21,-1.172 -2.68,-1.758 -4.39,-1.758 -0.32,0 -0.65,0.023 -1,0.062 -0.35,0.039 -0.61,0.098 -0.76,0.172"
           style="fill:#000000;fill-opacity:1;fill-rule:nonzero;stroke:none"
           id="path45686"
           inkscape:connector-curvature="0" />
        <path
           d="m 1857.26,202.508 c -9.76,0 -16.42,4.043 -19.97,12.129 -3.56,8.082 -5.34,17.711 -5.34,28.879 0,6.957 0.65,13.5 1.94,19.636 1.28,6.129 3.8,11.325 7.55,15.586 3.75,4.254 9.02,6.383 15.82,6.383 5.31,0 9.65,-1.289 13.01,-3.863 3.36,-2.582 5.92,-5.899 7.68,-9.961 1.75,-4.063 2.94,-8.438 3.57,-13.125 0.62,-4.688 0.94,-9.574 0.94,-14.656 0,-6.875 -0.63,-13.317 -1.88,-19.332 -1.25,-6.016 -3.73,-11.133 -7.44,-15.356 -3.71,-4.215 -9,-6.32 -15.88,-6.32 z m 0,3.164 c 4.45,0 7.78,2.285 9.96,6.855 2.19,4.571 3.54,9.629 4.05,15.172 0.51,5.547 0.76,11.442 0.76,17.692 0,6.023 -0.25,11.57 -0.76,16.644 -0.51,5.078 -1.84,9.692 -3.98,13.828 -2.16,4.141 -5.5,6.211 -10.03,6.211 -4.53,0 -7.88,-2.07 -10.08,-6.211 -2.18,-4.136 -3.53,-8.75 -4.04,-13.828 -0.51,-5.074 -0.76,-10.621 -0.76,-16.644 0,-4.45 0.11,-8.645 0.35,-12.59 0.23,-3.946 0.82,-8.008 1.76,-12.188 0.94,-4.179 2.44,-7.715 4.51,-10.605 2.07,-2.891 4.82,-4.336 8.26,-4.336"
           style="fill:#000000;fill-opacity:1;fill-rule:nonzero;stroke:none"
           id="path45688"
           inkscape:connector-curvature="0" />
        <path
           d="m 1897.34,211.883 c 0,1.793 0.67,3.336 1.99,4.629 1.33,1.289 2.89,1.933 4.69,1.933 1.09,0 2.17,-0.297 3.22,-0.886 1.06,-0.582 1.88,-1.403 2.46,-2.457 0.59,-1.055 0.88,-2.129 0.88,-3.219 0,-1.801 -0.64,-3.363 -1.94,-4.688 -1.28,-1.332 -2.82,-1.996 -4.62,-1.996 -1.8,0 -3.36,0.664 -4.69,1.996 -1.32,1.325 -1.99,2.887 -1.99,4.688"
           style="fill:#000000;fill-opacity:1;fill-rule:nonzero;stroke:none"
           id="path45690"
           inkscape:connector-curvature="0" />
        <path
           d="m 1926.57,205.199 v 3.285 c 0,0.157 0.08,0.352 0.23,0.586 l 18.64,20.625 c 2.81,3.043 5.1,5.602 6.86,7.672 1.75,2.071 3.49,4.453 5.21,7.149 1.72,2.695 3.09,5.449 4.1,8.265 1.02,2.809 1.52,5.778 1.52,8.903 0,3.285 -0.6,6.41 -1.81,9.375 -1.21,2.968 -3.03,5.351 -5.45,7.144 -2.42,1.801 -5.32,2.703 -8.67,2.703 -3.52,0 -6.66,-1.035 -9.44,-3.105 -2.77,-2.071 -4.7,-4.785 -5.8,-8.145 0.31,0.074 0.74,0.114 1.29,0.114 1.8,0 3.32,-0.606 4.57,-1.817 1.25,-1.211 1.88,-2.754 1.88,-4.629 0,-1.875 -0.63,-3.437 -1.88,-4.687 -1.25,-1.25 -2.77,-1.875 -4.57,-1.875 -1.87,0 -3.45,0.644 -4.74,1.937 -1.3,1.289 -1.94,2.832 -1.94,4.625 0,2.973 0.57,5.785 1.7,8.438 1.13,2.656 2.77,5 4.93,7.035 2.14,2.031 4.55,3.594 7.2,4.687 2.65,1.09 5.51,1.637 8.55,1.637 4.53,0 8.78,-0.957 12.72,-2.875 3.95,-1.91 7.07,-4.641 9.38,-8.195 2.3,-3.555 3.45,-7.68 3.45,-12.367 0,-3.516 -0.76,-6.836 -2.29,-9.961 -1.52,-3.125 -3.47,-5.957 -5.85,-8.496 -2.39,-2.536 -5.43,-5.426 -9.15,-8.672 -3.7,-3.239 -6.15,-5.407 -7.32,-6.504 l -13.59,-13.125 h 11.6 c 5.63,0 10.35,0.058 14.17,0.176 3.84,0.117 5.87,0.257 6.1,0.41 0.94,1.015 1.88,4.726 2.81,11.129 h 3.52 l -3.39,-21.442 h -44.54"
           style="fill:#000000;fill-opacity:1;fill-rule:nonzero;stroke:none"
           id="path45692"
           inkscape:connector-curvature="0" />
        <path
           d="m 2200.12,202.508 c -9.76,0 -16.42,4.043 -19.98,12.129 -3.55,8.082 -5.33,17.711 -5.33,28.879 0,6.957 0.64,13.5 1.93,19.636 1.29,6.129 3.81,11.325 7.56,15.586 3.75,4.254 9.02,6.383 15.82,6.383 5.31,0 9.65,-1.289 13.01,-3.863 3.35,-2.582 5.92,-5.899 7.67,-9.961 1.76,-4.063 2.95,-8.438 3.58,-13.125 0.62,-4.688 0.93,-9.574 0.93,-14.656 0,-6.875 -0.62,-13.317 -1.87,-19.332 -1.25,-6.016 -3.73,-11.133 -7.44,-15.356 -3.71,-4.215 -9,-6.32 -15.88,-6.32 z m 0,3.164 c 4.45,0 7.77,2.285 9.96,6.855 2.19,4.571 3.53,9.629 4.05,15.172 0.5,5.547 0.75,11.442 0.75,17.692 0,6.023 -0.25,11.57 -0.75,16.644 -0.52,5.078 -1.84,9.692 -3.99,13.828 -2.15,4.141 -5.49,6.211 -10.02,6.211 -4.53,0 -7.89,-2.07 -10.08,-6.211 -2.19,-4.136 -3.54,-8.75 -4.04,-13.828 -0.51,-5.074 -0.77,-10.621 -0.77,-16.644 0,-4.45 0.12,-8.645 0.36,-12.59 0.23,-3.946 0.82,-8.008 1.76,-12.188 0.94,-4.179 2.44,-7.715 4.51,-10.605 2.07,-2.891 4.82,-4.336 8.26,-4.336"
           style="fill:#000000;fill-opacity:1;fill-rule:nonzero;stroke:none"
           id="path45694"
           inkscape:connector-curvature="0" />
        <path
           d="m 2240.2,211.883 c 0,1.793 0.66,3.336 1.99,4.629 1.33,1.289 2.89,1.933 4.69,1.933 1.09,0 2.17,-0.297 3.22,-0.886 1.06,-0.582 1.88,-1.403 2.46,-2.457 0.58,-1.055 0.88,-2.129 0.88,-3.219 0,-1.801 -0.65,-3.363 -1.94,-4.688 -1.28,-1.332 -2.82,-1.996 -4.62,-1.996 -1.8,0 -3.36,0.664 -4.69,1.996 -1.33,1.325 -1.99,2.887 -1.99,4.688"
           style="fill:#000000;fill-opacity:1;fill-rule:nonzero;stroke:none"
           id="path45696"
           inkscape:connector-curvature="0" />
        <path
           d="m 2269.43,205.199 v 3.285 c 0,0.157 0.07,0.352 0.23,0.586 l 18.64,20.625 c 2.81,3.043 5.09,5.602 6.85,7.672 1.76,2.071 3.49,4.453 5.22,7.149 1.72,2.695 3.08,5.449 4.1,8.265 1.01,2.809 1.52,5.778 1.52,8.903 0,3.285 -0.6,6.41 -1.81,9.375 -1.22,2.968 -3.03,5.351 -5.46,7.144 -2.42,1.801 -5.31,2.703 -8.67,2.703 -3.51,0 -6.66,-1.035 -9.43,-3.105 -2.77,-2.071 -4.71,-4.785 -5.8,-8.145 0.31,0.074 0.74,0.114 1.29,0.114 1.8,0 3.32,-0.606 4.57,-1.817 1.25,-1.211 1.87,-2.754 1.87,-4.629 0,-1.875 -0.62,-3.437 -1.87,-4.687 -1.25,-1.25 -2.77,-1.875 -4.57,-1.875 -1.88,0 -3.46,0.644 -4.75,1.937 -1.29,1.289 -1.93,2.832 -1.93,4.625 0,2.973 0.57,5.785 1.7,8.438 1.13,2.656 2.77,5 4.92,7.035 2.15,2.031 4.55,3.594 7.21,4.687 2.65,1.09 5.5,1.637 8.55,1.637 4.53,0 8.77,-0.957 12.72,-2.875 3.94,-1.91 7.07,-4.641 9.37,-8.195 2.31,-3.555 3.46,-7.68 3.46,-12.367 0,-3.516 -0.76,-6.836 -2.29,-9.961 -1.52,-3.125 -3.47,-5.957 -5.86,-8.496 -2.38,-2.536 -5.42,-5.426 -9.14,-8.672 -3.71,-3.239 -6.15,-5.407 -7.32,-6.504 l -13.59,-13.125 h 11.6 c 5.62,0 10.35,0.058 14.17,0.176 3.83,0.117 5.87,0.257 6.1,0.41 0.93,1.015 1.87,4.726 2.81,11.129 h 3.52 l -3.4,-21.442 h -44.53"
           style="fill:#000000;fill-opacity:1;fill-rule:nonzero;stroke:none"
           id="path45698"
           inkscape:connector-curvature="0" />
        <path
           d="m 2333.88,218.91 c 0.86,-2.344 2.13,-4.472 3.81,-6.383 1.69,-1.914 3.69,-3.418 6.03,-4.515 2.35,-1.094 4.77,-1.641 7.27,-1.641 5.78,0 9.76,2.246 11.96,6.742 2.18,4.489 3.27,9.938 3.27,16.34 0,2.817 -0.06,5.16 -0.17,7.035 -0.12,1.875 -0.37,3.711 -0.76,5.508 -0.79,2.813 -2.09,5.277 -3.93,7.387 -1.83,2.109 -4.12,3.164 -6.85,3.164 -2.66,0 -4.96,-0.41 -6.92,-1.238 -1.95,-0.821 -3.54,-1.774 -4.74,-2.864 -1.21,-1.093 -2.29,-2.246 -3.23,-3.457 -0.93,-1.211 -1.52,-1.855 -1.75,-1.937 h -1.3 c -0.23,0 -0.48,0.121 -0.75,0.355 -0.28,0.235 -0.41,0.469 -0.41,0.703 v 40.075 c 0,0.234 0.11,0.449 0.35,0.644 0.23,0.195 0.51,0.293 0.81,0.293 h 0.36 c 5.39,-2.574 11.09,-3.863 17.11,-3.863 5.94,0 11.68,1.289 17.22,3.863 h 0.36 c 0.23,0 0.47,-0.098 0.7,-0.293 0.23,-0.195 0.35,-0.41 0.35,-0.644 v -1.051 c 0,-0.391 -0.08,-0.586 -0.24,-0.586 -2.73,-3.676 -6.14,-6.527 -10.25,-8.559 -4.1,-2.027 -8.38,-3.043 -12.83,-3.043 -3.2,0 -6.48,0.469 -9.84,1.403 v -22.735 c 2.65,2.188 5.04,3.731 7.15,4.629 2.11,0.899 4.76,1.352 7.96,1.352 4.45,0 8.42,-1.27 11.9,-3.813 3.48,-2.539 6.15,-5.84 8.03,-9.898 1.87,-4.067 2.81,-8.246 2.81,-12.539 0,-4.766 -1.17,-9.203 -3.52,-13.305 -2.34,-4.101 -5.54,-7.383 -9.61,-9.84 -4.06,-2.461 -8.48,-3.691 -13.24,-3.691 -3.99,0 -7.61,1.035 -10.9,3.105 -3.28,2.071 -5.88,4.821 -7.79,8.258 -1.91,3.438 -2.87,7.07 -2.87,10.895 0,1.8 0.58,3.265 1.75,4.398 1.18,1.133 2.66,1.699 4.46,1.699 1.72,0 3.18,-0.566 4.4,-1.699 1.2,-1.133 1.81,-2.598 1.81,-4.398 0,-1.715 -0.61,-3.157 -1.81,-4.332 -1.22,-1.172 -2.68,-1.758 -4.4,-1.758 -0.31,0 -0.64,0.023 -1,0.062 -0.35,0.039 -0.6,0.098 -0.76,0.172"
           style="fill:#000000;fill-opacity:1;fill-rule:nonzero;stroke:none"
           id="path45700"
           inkscape:connector-curvature="0" />
        <path
           d="m 2602.98,202.508 c -9.77,0 -16.43,4.043 -19.98,12.129 -3.56,8.082 -5.34,17.711 -5.34,28.879 0,6.957 0.65,13.5 1.94,19.636 1.29,6.129 3.8,11.325 7.55,15.586 3.75,4.254 9.03,6.383 15.83,6.383 5.31,0 9.65,-1.289 13,-3.863 3.36,-2.582 5.92,-5.899 7.68,-9.961 1.76,-4.063 2.95,-8.438 3.57,-13.125 0.63,-4.688 0.94,-9.574 0.94,-14.656 0,-6.875 -0.62,-13.317 -1.87,-19.332 -1.25,-6.016 -3.73,-11.133 -7.44,-15.356 -3.72,-4.215 -9.01,-6.32 -15.88,-6.32 z m 0,3.164 c 4.45,0 7.77,2.285 9.96,6.855 2.19,4.571 3.53,9.629 4.04,15.172 0.51,5.547 0.77,11.442 0.77,17.692 0,6.023 -0.26,11.57 -0.77,16.644 -0.51,5.078 -1.84,9.692 -3.98,13.828 -2.15,4.141 -5.49,6.211 -10.02,6.211 -4.53,0 -7.89,-2.07 -10.08,-6.211 -2.19,-4.136 -3.53,-8.75 -4.04,-13.828 -0.52,-5.074 -0.77,-10.621 -0.77,-16.644 0,-4.45 0.12,-8.645 0.35,-12.59 0.24,-3.946 0.83,-8.008 1.77,-12.188 0.93,-4.179 2.43,-7.715 4.5,-10.605 2.08,-2.891 4.83,-4.336 8.27,-4.336"
           style="fill:#000000;fill-opacity:1;fill-rule:nonzero;stroke:none"
           id="path45702"
           inkscape:connector-curvature="0" />
        <path
           d="m 2643.06,211.883 c 0,1.793 0.66,3.336 1.99,4.629 1.33,1.289 2.89,1.933 4.68,1.933 1.1,0 2.17,-0.297 3.23,-0.886 1.05,-0.582 1.87,-1.403 2.46,-2.457 0.58,-1.055 0.88,-2.129 0.88,-3.219 0,-1.801 -0.65,-3.363 -1.94,-4.688 -1.29,-1.332 -2.83,-1.996 -4.63,-1.996 -1.79,0 -3.35,0.664 -4.68,1.996 -1.33,1.325 -1.99,2.887 -1.99,4.688"
           style="fill:#000000;fill-opacity:1;fill-rule:nonzero;stroke:none"
           id="path45704"
           inkscape:connector-curvature="0" />
        <path
           d="m 2677.79,214.453 c 1.87,-2.726 4.4,-4.758 7.56,-6.09 3.17,-1.328 6.54,-1.992 10.14,-1.992 4.69,0 8.01,1.992 9.96,5.977 1.96,3.984 2.93,8.476 2.93,13.476 0,2.266 -0.21,4.531 -0.64,6.797 -0.43,2.266 -1.14,4.375 -2.11,6.328 -0.98,1.957 -2.31,3.52 -3.99,4.688 -1.68,1.172 -3.77,1.754 -6.27,1.754 h -7.96 c -0.71,0 -1.06,0.394 -1.06,1.179 v 1.051 c 0,0.625 0.35,0.938 1.06,0.938 l 6.67,0.472 c 2.81,0 5.14,1.055 6.97,3.164 1.84,2.11 3.19,4.688 4.05,7.731 0.86,3.047 1.29,5.937 1.29,8.672 0,3.828 -0.9,6.976 -2.69,9.433 -1.81,2.461 -4.54,3.692 -8.21,3.692 -3.05,0 -5.96,-0.586 -8.73,-1.754 -2.78,-1.176 -4.98,-2.934 -6.62,-5.274 0.15,0.075 0.29,0.114 0.41,0.114 0.11,0 0.25,0 0.41,0 1.79,0 3.3,-0.625 4.51,-1.875 1.21,-1.25 1.82,-2.735 1.82,-4.45 0,-1.718 -0.61,-3.203 -1.82,-4.453 -1.21,-1.25 -2.72,-1.875 -4.51,-1.875 -1.72,0 -3.2,0.625 -4.45,1.875 -1.25,1.25 -1.88,2.735 -1.88,4.453 0,3.438 1.04,6.422 3.11,8.965 2.07,2.539 4.72,4.449 7.96,5.735 3.25,1.293 6.51,1.937 9.79,1.937 2.42,0 4.98,-0.351 7.67,-1.051 2.7,-0.707 5.14,-1.742 7.33,-3.105 2.19,-1.371 3.98,-3.11 5.39,-5.219 1.41,-2.109 2.11,-4.492 2.11,-7.148 0,-3.36 -0.76,-6.465 -2.29,-9.317 -1.52,-2.847 -3.59,-5.308 -6.21,-7.379 -2.61,-2.07 -5.48,-3.613 -8.61,-4.636 3.52,-0.7 6.84,-2.028 9.96,-3.981 3.13,-1.949 5.63,-4.449 7.5,-7.5 1.88,-3.047 2.82,-6.324 2.82,-9.84 0,-4.375 -1.22,-8.359 -3.64,-11.957 -2.42,-3.593 -5.61,-6.406 -9.55,-8.437 -3.94,-2.028 -8.1,-3.043 -12.48,-3.043 -3.75,0 -7.5,0.722 -11.25,2.168 -3.75,1.445 -6.84,3.594 -9.26,6.441 -2.42,2.852 -3.63,6.27 -3.63,10.254 0,2.035 0.66,3.715 1.99,5.039 1.33,1.328 3.01,1.996 5.04,1.996 1.25,0 2.42,-0.312 3.51,-0.937 1.1,-0.625 1.94,-1.485 2.52,-2.582 0.59,-1.094 0.88,-2.266 0.88,-3.516 0,-1.949 -0.68,-3.59 -2.05,-4.922 -1.36,-1.328 -2.98,-1.996 -4.86,-1.996 h -0.59"
           style="fill:#000000;fill-opacity:1;fill-rule:nonzero;stroke:none"
           id="path45706"
           inkscape:connector-curvature="0" />
        <path
           d="m 1505.32,41.1211 v 4.8047 c 4.53,0 8.92,0.2344 13.18,0.6992 4.26,0.4688 6.39,1.6406 6.39,3.5156 v 74.1834 c 0,1.949 -0.55,3.141 -1.64,3.571 -1.09,0.429 -2.85,0.644 -5.27,0.644 h -5.62 c -7.43,0 -12.71,-1.598 -15.83,-4.801 -1.64,-1.636 -2.82,-4.254 -3.52,-7.851 -0.7,-3.594 -1.28,-8.086 -1.75,-13.477 h -3.87 l 2.57,30.938 h 82.4 l 2.57,-30.938 h -3.98 c -0.48,5.781 -1.04,10.391 -1.7,13.828 -0.67,3.438 -1.82,5.938 -3.46,7.5 -3.12,3.203 -8.4,4.801 -15.83,4.801 h -5.62 c -1.64,0 -2.91,-0.055 -3.81,-0.172 -0.89,-0.121 -1.64,-0.492 -2.22,-1.117 -0.59,-0.625 -0.88,-1.602 -0.88,-2.926 V 50.1406 c 0,-1.875 2.12,-3.0468 6.39,-3.5156 4.25,-0.4648 8.64,-0.6992 13.18,-0.6992 v -4.8047 h -51.68"
           style="fill:#000000;fill-opacity:1;fill-rule:nonzero;stroke:none"
           id="path45708"
           inkscape:connector-curvature="0" />
        <path
           d="m 1581.9,41.1211 v 4.8047 c 3.13,0 5.67,0.2344 7.62,0.6992 1.95,0.4688 2.93,1.6406 2.93,3.5156 v 36.918 c 0,3.4375 -0.66,5.5508 -1.99,6.3281 -1.33,0.7813 -3.95,1.1719 -7.85,1.1719 v 4.8047 l 19.33,1.4027 V 50.1406 c 0,-1.875 0.86,-3.0468 2.58,-3.5156 1.72,-0.4648 4.03,-0.6992 6.92,-0.6992 v -4.8047 z m 5.74,82.8519 c 0,1.953 0.77,3.691 2.29,5.211 1.52,1.527 3.22,2.289 5.1,2.289 1.33,0 2.58,-0.332 3.75,-0.996 1.17,-0.668 2.09,-1.606 2.75,-2.813 0.67,-1.211 1,-2.441 1,-3.691 0,-1.957 -0.74,-3.676 -2.23,-5.16 -1.49,-1.481 -3.25,-2.219 -5.27,-2.219 -1.88,0 -3.58,0.738 -5.1,2.219 -1.52,1.484 -2.29,3.203 -2.29,5.16"
           style="fill:#000000;fill-opacity:1;fill-rule:nonzero;stroke:none"
           id="path45710"
           inkscape:connector-curvature="0" />
        <path
           d="m 1618.45,41.1211 v 4.8047 c 3.12,0 5.66,0.2344 7.62,0.6992 1.95,0.4688 2.93,1.6406 2.93,3.5156 v 36.918 c 0,2.3437 -0.35,4.0625 -1.05,5.1602 -0.71,1.0898 -1.75,1.75 -3.11,1.9843 -1.37,0.2383 -3.5,0.3555 -6.39,0.3555 v 4.8047 l 19.57,1.4027 V 87.6406 c 1.8,3.8321 4.47,6.9766 8.03,9.4375 3.56,2.461 7.4,3.6879 11.54,3.6879 10.39,0 16.48,-4.2152 18.29,-12.6527 1.79,3.75 4.42,6.7969 7.9,9.1367 3.48,2.3438 7.29,3.516 11.43,3.516 4.06,0 7.5,-0.661 10.31,-1.9847 2.81,-1.3321 4.93,-3.3438 6.34,-6.0391 1.4,-2.6953 2.1,-6.0742 2.1,-10.1406 v -32.461 c 0,-1.875 1,-3.0468 2.99,-3.5156 1.99,-0.4648 4.51,-0.6992 7.56,-0.6992 v -4.8047 h -30.94 v 4.8047 c 3.04,0 5.56,0.2344 7.56,0.6992 1.99,0.4688 2.98,1.6406 2.98,3.5156 v 31.9961 c 0,4.5313 -0.64,8.1836 -1.92,10.9571 -1.3,2.7695 -3.89,4.1562 -7.8,4.1562 -5.23,0 -9.53,-2.0859 -12.89,-6.2617 -3.36,-4.1797 -5.04,-8.9297 -5.04,-14.2422 V 50.1406 c 0,-1.875 0.98,-3.0468 2.93,-3.5156 1.95,-0.4648 4.49,-0.6992 7.62,-0.6992 v -4.8047 h -30.94 v 4.8047 c 3.04,0 5.56,0.2344 7.56,0.6992 1.99,0.4688 2.98,1.6406 2.98,3.5156 v 31.9961 c 0,4.4492 -0.64,8.0821 -1.92,10.8985 -1.3,2.8086 -3.89,4.2148 -7.8,4.2148 -5.23,0 -9.53,-2.0859 -12.89,-6.2617 -3.36,-4.1797 -5.04,-8.9297 -5.04,-14.2422 V 50.1406 c 0,-1.875 0.98,-3.0468 2.93,-3.5156 1.95,-0.4648 4.45,-0.6992 7.5,-0.6992 v -4.8047 h -30.94"
           style="fill:#000000;fill-opacity:1;fill-rule:nonzero;stroke:none"
           id="path45712"
           inkscape:connector-curvature="0" />
        <path
           d="m 1758.1,39.5977 c -5.47,0 -10.5,1.4453 -15.12,4.3359 -4.6,2.8906 -8.22,6.7383 -10.84,11.543 -2.61,4.8047 -3.92,9.9023 -3.92,15.289 0,5.2383 1.19,10.2383 3.57,15 2.38,4.7657 5.72,8.5938 10.02,11.4844 4.3,2.895 9.1,4.344 14.41,4.344 4.07,0 7.64,-0.688 10.73,-2.0549 3.09,-1.3672 5.6,-3.2774 7.56,-5.7383 1.95,-2.4649 3.44,-5.3789 4.45,-8.7383 1.02,-3.3555 1.52,-7.0234 1.52,-11.0117 0,-1.1719 -0.46,-1.7617 -1.41,-1.7617 h -39.02 v -1.4024 c 0,-7.5 1.51,-13.9258 4.52,-19.2734 3,-5.3555 7.91,-8.0352 14.71,-8.0352 2.73,0 5.28,0.6055 7.67,1.8164 2.38,1.2149 4.43,2.9336 6.15,5.1602 1.72,2.2266 2.89,4.5859 3.52,7.0859 0.08,0.3164 0.24,0.5938 0.47,0.8282 0.23,0.2304 0.5,0.3437 0.82,0.3437 h 1.16 c 0.95,0 1.41,-0.5859 1.41,-1.7539 -1.25,-5.082 -3.98,-9.2617 -8.2,-12.543 -4.22,-3.2773 -8.95,-4.9179 -14.18,-4.9179 z m -17.93,36.0898 h 30.82 c 0,3.3594 -0.49,6.7813 -1.46,10.2617 -0.98,3.4727 -2.57,6.3633 -4.75,8.668 -2.19,2.3047 -5.04,3.457 -8.56,3.457 -5.15,0 -9.11,-2.3828 -11.89,-7.1484 -2.77,-4.7617 -4.16,-9.8438 -4.16,-15.2383"
           style="fill:#000000;fill-opacity:1;fill-rule:nonzero;stroke:none"
           id="path45714"
           inkscape:connector-curvature="0" />
        <path
           d="M 1843.07,7.37109 V 142.371 h 18.52 v -5.394 h -13.13 V 12.7617 h 13.13 V 7.37109 h -18.52"
           style="fill:#000000;fill-opacity:1;fill-rule:nonzero;stroke:none"
           id="path45716"
           inkscape:connector-curvature="0" />
        <path
           d="m 1868.25,40.7656 v 22.0352 c 0,0.7031 0.39,1.0508 1.18,1.0508 h 1.63 c 0.55,0 0.9,-0.3477 1.06,-1.0508 2.58,-13.125 8.68,-19.6875 18.29,-19.6875 4.21,0 7.76,0.9765 10.65,2.9258 2.9,1.957 4.35,4.9648 4.35,9.0234 0,2.8945 -1.12,5.3594 -3.35,7.3867 -2.22,2.0313 -4.9,3.4375 -8.02,4.2149 l -9.03,1.7617 c -3.05,0.625 -5.8,1.6211 -8.26,2.9883 -2.46,1.3672 -4.49,3.1875 -6.09,5.4492 -1.61,2.2656 -2.41,4.8828 -2.41,7.8555 0,3.9804 1.05,7.2382 3.17,9.7773 2.11,2.543 4.82,4.3594 8.14,5.4531 3.32,1.0978 6.94,1.6448 10.85,1.6448 4.6,0 8.63,-1.215 12.06,-3.6409 l 3.87,3.3989 c 0,0.16 0.2,0.242 0.59,0.242 h 1.05 c 0.23,0 0.47,-0.117 0.7,-0.356 0.24,-0.234 0.36,-0.468 0.36,-0.703 V 82.8438 c 0,-0.8594 -0.36,-1.293 -1.06,-1.293 h -1.64 c -0.78,0 -1.17,0.4336 -1.17,1.293 0,4.6835 -1.31,8.4531 -3.93,11.3007 -2.61,2.8555 -6.27,4.2813 -10.95,4.2813 -4.07,0 -7.58,-0.7422 -10.55,-2.2266 -2.97,-1.4844 -4.45,-4.0625 -4.45,-7.7304 0,-2.5 1.05,-4.5547 3.16,-6.1602 2.11,-1.5977 4.61,-2.75 7.5,-3.457 l 9.14,-1.6328 c 3.13,-0.7071 6.02,-1.8985 8.67,-3.5782 2.66,-1.6797 4.77,-3.789 6.33,-6.332 1.56,-2.5391 2.34,-5.4102 2.34,-8.6094 0,-3.2773 -0.56,-6.1133 -1.69,-8.4961 -1.13,-2.3867 -2.7,-4.3789 -4.69,-5.9765 -2,-1.6016 -4.36,-2.7735 -7.09,-3.5196 -2.74,-0.7382 -5.59,-1.1093 -8.55,-1.1093 -5.63,0 -10.43,1.875 -14.42,5.625 l -5.04,-5.2735 c 0,-0.2344 -0.24,-0.3515 -0.7,-0.3515 h -0.82 c -0.79,0 -1.18,0.3906 -1.18,1.1679"
           style="fill:#000000;fill-opacity:1;fill-rule:nonzero;stroke:none"
           id="path45718"
           inkscape:connector-curvature="0" />
        <path
           d="m 1918.8,7.37109 v 5.39061 h 13.13 V 136.977 h -13.13 v 5.394 h 18.51 V 7.37109 h -18.51"
           style="fill:#000000;fill-opacity:1;fill-rule:nonzero;stroke:none"
           id="path45720"
           inkscape:connector-curvature="0" />
        <path
           d="M 412.5,349.32771 V 1817.5876"
           style="fill:none;stroke:#444041;stroke-width:9.30482101;stroke-linecap:square;stroke-linejoin:round;stroke-miterlimit:10;stroke-dasharray:none;stroke-opacity:1"
           id="path45722"
           inkscape:connector-curvature="0" />
        <path
           d="M 3022.5,350 V 1817.5876"
           style="fill:none;stroke:#444041;stroke-width:9.30269146;stroke-linecap:square;stroke-linejoin:round;stroke-miterlimit:10;stroke-dasharray:none;stroke-opacity:1"
           id="path45724"
           inkscape:connector-curvature="0" />
        <path
           d="m 412.5,391.34 h 26.102"
           style="fill:none;stroke:#444041;stroke-width:9.99750042;stroke-linecap:square;stroke-linejoin:round;stroke-miterlimit:10;stroke-dasharray:none;stroke-opacity:1"
           id="path45726"
           inkscape:connector-curvature="0" />
        <path
           d="m 412.5,804.754 h 26.102"
           style="fill:none;stroke:#444041;stroke-width:9.99750042;stroke-linecap:square;stroke-linejoin:round;stroke-miterlimit:10;stroke-dasharray:none;stroke-opacity:1"
           id="path45728"
           inkscape:connector-curvature="0" />
        <path
           d="m 412.5,1218.17 h 26.102"
           style="fill:none;stroke:#444041;stroke-width:9.99750042;stroke-linecap:square;stroke-linejoin:round;stroke-miterlimit:10;stroke-dasharray:none;stroke-opacity:1"
           id="path45730"
           inkscape:connector-curvature="0" />
        <path
           d="m 412.5,1631.59 h 26.102"
           style="fill:none;stroke:#444041;stroke-width:9.99750042;stroke-linecap:square;stroke-linejoin:round;stroke-miterlimit:10;stroke-dasharray:none;stroke-opacity:1"
           id="path45732"
           inkscape:connector-curvature="0" />
        <path
           d="m 412.5,1817.5876 h 26.102"
           style="fill:none;stroke:#444041;stroke-width:9.99750042;stroke-linecap:square;stroke-linejoin:round;stroke-miterlimit:10;stroke-dasharray:none;stroke-opacity:1"
           id="path45734"
           inkscape:connector-curvature="0" />
        <path
           d="m 3022.5,391.34 h -26.1"
           style="fill:none;stroke:#444041;stroke-width:9.99750042;stroke-linecap:square;stroke-linejoin:round;stroke-miterlimit:10;stroke-dasharray:none;stroke-opacity:1"
           id="path45736"
           inkscape:connector-curvature="0" />
        <path
           d="m 3022.5,804.754 h -26.1"
           style="fill:none;stroke:#444041;stroke-width:9.99750042;stroke-linecap:square;stroke-linejoin:round;stroke-miterlimit:10;stroke-dasharray:none;stroke-opacity:1"
           id="path45738"
           inkscape:connector-curvature="0" />
        <path
           d="m 3022.5,1218.17 h -26.1"
           style="fill:none;stroke:#444041;stroke-width:9.99750042;stroke-linecap:square;stroke-linejoin:round;stroke-miterlimit:10;stroke-dasharray:none;stroke-opacity:1"
           id="path45740"
           inkscape:connector-curvature="0" />
        <path
           d="m 3022.5,1631.59 h -26.1"
           style="fill:none;stroke:#444041;stroke-width:9.99750042;stroke-linecap:square;stroke-linejoin:round;stroke-miterlimit:10;stroke-dasharray:none;stroke-opacity:1"
           id="path45742"
           inkscape:connector-curvature="0" />
        <path
           d="m 3022.5,1817.5876 h -26.1"
           style="fill:none;stroke:#444041;stroke-width:9.99750042;stroke-linecap:square;stroke-linejoin:round;stroke-miterlimit:10;stroke-dasharray:none;stroke-opacity:1"
           id="path45744"
           inkscape:connector-curvature="0" />
        <path
           d="m 338.5,359.848 c -9.766,0 -16.426,4.043 -19.98,12.129 -3.555,8.086 -5.332,17.711 -5.332,28.882 0,6.954 0.644,13.5 1.933,19.633 1.293,6.133 3.813,11.328 7.563,15.586 3.75,4.254 9.019,6.383 15.816,6.383 5.309,0 9.645,-1.285 13.004,-3.863 3.359,-2.578 5.922,-5.899 7.68,-9.957 1.757,-4.067 2.945,-8.442 3.57,-13.125 0.625,-4.692 0.937,-9.578 0.937,-14.657 0,-6.875 -0.625,-13.32 -1.875,-19.336 -1.25,-6.015 -3.73,-11.132 -7.437,-15.351 -3.711,-4.215 -9.004,-6.324 -15.879,-6.324 z m 0,3.168 c 4.453,0 7.773,2.285 9.961,6.851 2.187,4.571 3.535,9.629 4.043,15.176 0.508,5.543 0.762,11.441 0.762,17.691 0,6.02 -0.254,11.567 -0.762,16.641 -0.508,5.082 -1.832,9.691 -3.984,13.832 -2.149,4.141 -5.489,6.211 -10.02,6.211 -4.531,0 -7.891,-2.07 -10.078,-6.211 -2.188,-4.141 -3.535,-8.75 -4.043,-13.832 -0.508,-5.074 -0.758,-10.621 -0.758,-16.641 0,-4.449 0.113,-8.648 0.344,-12.593 0.234,-3.946 0.824,-8.008 1.762,-12.188 0.937,-4.18 2.437,-7.715 4.507,-10.605 2.071,-2.891 4.825,-4.332 8.266,-4.332"
           style="fill:#000000;fill-opacity:1;fill-rule:nonzero;stroke:none"
           id="path45746"
           inkscape:connector-curvature="0" />
        <path
           d="m 199.629,775.957 v 4.223 c 10,0 15,1.285 15,3.863 v 62.93 c -4.141,-1.953 -9.371,-2.93 -15.695,-2.93 v 4.223 c 9.839,0 17.257,2.535 22.257,7.609 h 1.645 c 0.312,0 0.586,-0.098 0.816,-0.293 0.235,-0.191 0.352,-0.445 0.352,-0.754 v -70.785 c 0,-2.578 5,-3.863 15,-3.863 v -4.223 h -39.375"
           style="fill:#000000;fill-opacity:1;fill-rule:nonzero;stroke:none"
           id="path45748"
           inkscape:connector-curvature="0" />
        <path
           d="m 278.5,773.266 c -9.766,0 -16.426,4.039 -19.98,12.125 -3.555,8.086 -5.332,17.714 -5.332,28.882 0,6.957 0.644,13.5 1.933,19.637 1.293,6.129 3.813,11.324 7.563,15.582 3.75,4.258 9.019,6.383 15.816,6.383 5.309,0 9.645,-1.285 13.004,-3.859 3.359,-2.582 5.922,-5.903 7.68,-9.961 1.757,-4.067 2.945,-8.442 3.57,-13.125 0.625,-4.692 0.937,-9.575 0.937,-14.657 0,-6.875 -0.625,-13.32 -1.875,-19.335 -1.25,-6.016 -3.73,-11.133 -7.437,-15.352 -3.711,-4.215 -9.004,-6.32 -15.879,-6.32 z m 0,3.164 c 4.453,0 7.773,2.285 9.961,6.855 2.187,4.57 3.535,9.625 4.043,15.172 0.508,5.543 0.762,11.441 0.762,17.691 0,6.02 -0.254,11.567 -0.762,16.645 -0.508,5.078 -1.832,9.687 -3.984,13.828 -2.149,4.141 -5.489,6.211 -10.02,6.211 -4.531,0 -7.891,-2.07 -10.078,-6.211 -2.188,-4.141 -3.535,-8.75 -4.043,-13.828 -0.508,-5.078 -0.758,-10.625 -0.758,-16.645 0,-4.449 0.113,-8.648 0.344,-12.593 0.234,-3.946 0.824,-8.008 1.762,-12.188 0.937,-4.179 2.437,-7.715 4.507,-10.601 2.071,-2.891 4.825,-4.336 8.266,-4.336"
           style="fill:#000000;fill-opacity:1;fill-rule:nonzero;stroke:none"
           id="path45750"
           inkscape:connector-curvature="0" />
        <path
           d="m 338.5,773.266 c -9.766,0 -16.426,4.039 -19.98,12.125 -3.555,8.086 -5.332,17.714 -5.332,28.882 0,6.957 0.644,13.5 1.933,19.637 1.293,6.129 3.813,11.324 7.563,15.582 3.75,4.258 9.019,6.383 15.816,6.383 5.309,0 9.645,-1.285 13.004,-3.859 3.359,-2.582 5.922,-5.903 7.68,-9.961 1.757,-4.067 2.945,-8.442 3.57,-13.125 0.625,-4.692 0.937,-9.575 0.937,-14.657 0,-6.875 -0.625,-13.32 -1.875,-19.335 -1.25,-6.016 -3.73,-11.133 -7.437,-15.352 -3.711,-4.215 -9.004,-6.32 -15.879,-6.32 z m 0,3.164 c 4.453,0 7.773,2.285 9.961,6.855 2.187,4.57 3.535,9.625 4.043,15.172 0.508,5.543 0.762,11.441 0.762,17.691 0,6.02 -0.254,11.567 -0.762,16.645 -0.508,5.078 -1.832,9.687 -3.984,13.828 -2.149,4.141 -5.489,6.211 -10.02,6.211 -4.531,0 -7.891,-2.07 -10.078,-6.211 -2.188,-4.141 -3.535,-8.75 -4.043,-13.828 -0.508,-5.078 -0.758,-10.625 -0.758,-16.645 0,-4.449 0.113,-8.648 0.344,-12.593 0.234,-3.946 0.824,-8.008 1.762,-12.188 0.937,-4.179 2.437,-7.715 4.507,-10.601 2.071,-2.891 4.825,-4.336 8.266,-4.336"
           style="fill:#000000;fill-opacity:1;fill-rule:nonzero;stroke:none"
           id="path45752"
           inkscape:connector-curvature="0" />
        <path
           d="m 194.477,1189.37 v 3.29 c 0,0.15 0.078,0.34 0.234,0.58 l 18.629,20.63 c 2.816,3.04 5.101,5.6 6.855,7.67 1.758,2.07 3.5,4.45 5.219,7.15 1.723,2.69 3.09,5.45 4.102,8.26 1.015,2.81 1.523,5.78 1.523,8.9 0,3.29 -0.605,6.41 -1.812,9.38 -1.215,2.97 -3.036,5.35 -5.454,7.15 -2.421,1.8 -5.312,2.69 -8.671,2.69 -3.516,0 -6.661,-1.03 -9.434,-3.1 -2.777,-2.07 -4.707,-4.78 -5.797,-8.15 0.309,0.08 0.738,0.12 1.281,0.12 1.801,0 3.325,-0.61 4.575,-1.81 1.25,-1.22 1.875,-2.76 1.875,-4.63 0,-1.88 -0.625,-3.44 -1.875,-4.69 -1.25,-1.25 -2.774,-1.88 -4.575,-1.88 -1.875,0 -3.453,0.65 -4.738,1.94 -1.293,1.29 -1.937,2.83 -1.937,4.63 0,2.96 0.566,5.78 1.695,8.43 1.137,2.66 2.777,5 4.93,7.04 2.144,2.03 4.546,3.59 7.207,4.69 2.652,1.09 5.504,1.63 8.55,1.63 4.528,0 8.766,-0.96 12.711,-2.87 3.95,-1.91 7.075,-4.64 9.375,-8.2 2.305,-3.56 3.457,-7.68 3.457,-12.37 0,-3.51 -0.761,-6.83 -2.281,-9.96 -1.523,-3.12 -3.48,-5.95 -5.863,-8.5 -2.379,-2.53 -5.426,-5.42 -9.137,-8.66 -3.707,-3.25 -6.152,-5.41 -7.324,-6.51 l -13.594,-13.12 h 11.606 c 5.625,0 10.347,0.06 14.175,0.17 3.829,0.12 5.86,0.26 6.094,0.41 0.938,1.02 1.875,4.73 2.813,11.13 h 3.511 l -3.398,-21.44 h -44.527"
           style="fill:#000000;fill-opacity:1;fill-rule:nonzero;stroke:none"
           id="path45754"
           inkscape:connector-curvature="0" />
        <path
           d="m 278.5,1186.68 c -9.766,0 -16.426,4.04 -19.98,12.12 -3.555,8.09 -5.332,17.72 -5.332,28.89 0,6.95 0.644,13.5 1.933,19.63 1.293,6.13 3.813,11.33 7.563,15.59 3.75,4.25 9.019,6.38 15.816,6.38 5.309,0 9.645,-1.29 13.004,-3.86 3.359,-2.58 5.922,-5.9 7.68,-9.96 1.757,-4.07 2.945,-8.44 3.57,-13.13 0.625,-4.69 0.937,-9.57 0.937,-14.65 0,-6.88 -0.625,-13.32 -1.875,-19.34 -1.25,-6.01 -3.73,-11.13 -7.437,-15.35 -3.711,-4.21 -9.004,-6.32 -15.879,-6.32 z m 0,3.16 c 4.453,0 7.773,2.29 9.961,6.86 2.187,4.57 3.535,9.62 4.043,15.17 0.508,5.54 0.762,11.44 0.762,17.69 0,6.02 -0.254,11.57 -0.762,16.65 -0.508,5.08 -1.832,9.68 -3.984,13.83 -2.149,4.14 -5.489,6.21 -10.02,6.21 -4.531,0 -7.891,-2.07 -10.078,-6.21 -2.188,-4.15 -3.535,-8.75 -4.043,-13.83 -0.508,-5.08 -0.758,-10.63 -0.758,-16.65 0,-4.45 0.113,-8.65 0.344,-12.59 0.234,-3.94 0.824,-8.01 1.762,-12.18 0.937,-4.19 2.437,-7.72 4.507,-10.61 2.071,-2.89 4.825,-4.34 8.266,-4.34"
           style="fill:#000000;fill-opacity:1;fill-rule:nonzero;stroke:none"
           id="path45756"
           inkscape:connector-curvature="0" />
        <path
           d="m 338.5,1186.68 c -9.766,0 -16.426,4.04 -19.98,12.12 -3.555,8.09 -5.332,17.72 -5.332,28.89 0,6.95 0.644,13.5 1.933,19.63 1.293,6.13 3.813,11.33 7.563,15.59 3.75,4.25 9.019,6.38 15.816,6.38 5.309,0 9.645,-1.29 13.004,-3.86 3.359,-2.58 5.922,-5.9 7.68,-9.96 1.757,-4.07 2.945,-8.44 3.57,-13.13 0.625,-4.69 0.937,-9.57 0.937,-14.65 0,-6.88 -0.625,-13.32 -1.875,-19.34 -1.25,-6.01 -3.73,-11.13 -7.437,-15.35 -3.711,-4.21 -9.004,-6.32 -15.879,-6.32 z m 0,3.16 c 4.453,0 7.773,2.29 9.961,6.86 2.187,4.57 3.535,9.62 4.043,15.17 0.508,5.54 0.762,11.44 0.762,17.69 0,6.02 -0.254,11.57 -0.762,16.65 -0.508,5.08 -1.832,9.68 -3.984,13.83 -2.149,4.14 -5.489,6.21 -10.02,6.21 -4.531,0 -7.891,-2.07 -10.078,-6.21 -2.188,-4.15 -3.535,-8.75 -4.043,-13.83 -0.508,-5.08 -0.758,-10.63 -0.758,-16.65 0,-4.45 0.113,-8.65 0.344,-12.59 0.234,-3.94 0.824,-8.01 1.762,-12.18 0.937,-4.19 2.437,-7.72 4.507,-10.61 2.071,-2.89 4.825,-4.34 8.266,-4.34"
           style="fill:#000000;fill-opacity:1;fill-rule:nonzero;stroke:none"
           id="path45758"
           inkscape:connector-curvature="0" />
        <path
           d="m 199.984,1612.04 c 1.875,-2.73 4.395,-4.76 7.559,-6.09 3.164,-1.33 6.543,-1.99 10.141,-1.99 4.683,0 8.004,1.99 9.957,5.97 1.953,3.99 2.925,8.48 2.925,13.48 0,2.27 -0.214,4.53 -0.644,6.8 -0.43,2.26 -1.133,4.37 -2.106,6.33 -0.976,1.95 -2.304,3.51 -3.984,4.68 -1.68,1.17 -3.769,1.76 -6.269,1.76 h -7.973 c -0.699,0 -1.051,0.39 -1.051,1.18 v 1.05 c 0,0.62 0.352,0.93 1.051,0.93 l 6.683,0.48 c 2.813,0 5.141,1.05 6.973,3.16 1.836,2.11 3.184,4.69 4.043,7.73 0.859,3.05 1.289,5.94 1.289,8.67 0,3.83 -0.898,6.98 -2.699,9.44 -1.793,2.46 -4.527,3.69 -8.195,3.69 -3.051,0 -5.965,-0.59 -8.739,-1.76 -2.769,-1.17 -4.976,-2.93 -6.617,-5.27 0.156,0.08 0.293,0.11 0.406,0.11 0.121,0 0.258,0 0.414,0 1.793,0 3.301,-0.62 4.516,-1.87 1.207,-1.25 1.813,-2.73 1.813,-4.45 0,-1.72 -0.606,-3.2 -1.813,-4.45 -1.215,-1.25 -2.723,-1.88 -4.516,-1.88 -1.722,0 -3.207,0.63 -4.457,1.88 -1.25,1.25 -1.875,2.73 -1.875,4.45 0,3.43 1.036,6.42 3.106,8.96 2.07,2.54 4.726,4.45 7.973,5.74 3.242,1.29 6.503,1.94 9.789,1.94 2.418,0 4.976,-0.35 7.671,-1.05 2.696,-0.71 5.137,-1.75 7.329,-3.11 2.183,-1.37 3.98,-3.11 5.382,-5.22 1.411,-2.11 2.118,-4.49 2.118,-7.15 0,-3.36 -0.762,-6.46 -2.289,-9.31 -1.524,-2.85 -3.594,-5.31 -6.211,-7.38 -2.618,-2.07 -5.493,-3.62 -8.618,-4.64 3.516,-0.7 6.836,-2.03 9.961,-3.98 3.125,-1.95 5.625,-4.45 7.5,-7.5 1.875,-3.05 2.813,-6.32 2.813,-9.84 0,-4.37 -1.211,-8.36 -3.629,-11.96 -2.422,-3.59 -5.602,-6.4 -9.547,-8.43 -3.945,-2.03 -8.105,-3.05 -12.48,-3.05 -3.75,0 -7.5,0.73 -11.25,2.17 -3.75,1.45 -6.84,3.59 -9.262,6.44 -2.422,2.85 -3.633,6.27 -3.633,10.26 0,2.03 0.664,3.71 1.988,5.04 1.332,1.32 3.012,1.99 5.039,1.99 1.25,0 2.422,-0.31 3.52,-0.94 1.094,-0.62 1.934,-1.48 2.519,-2.58 0.586,-1.09 0.879,-2.26 0.879,-3.51 0,-1.96 -0.683,-3.59 -2.05,-4.92 -1.368,-1.33 -2.993,-2 -4.868,-2 h -0.582"
           style="fill:#000000;fill-opacity:1;fill-rule:nonzero;stroke:none"
           id="path45760"
           inkscape:connector-curvature="0" />
        <path
           d="m 278.5,1600.09 c -9.766,0 -16.426,4.05 -19.98,12.13 -3.555,8.08 -5.332,17.71 -5.332,28.88 0,6.96 0.644,13.5 1.933,19.64 1.293,6.13 3.813,11.32 7.563,15.58 3.75,4.26 9.019,6.39 15.816,6.39 5.309,0 9.645,-1.29 13.004,-3.87 3.359,-2.58 5.922,-5.9 7.68,-9.96 1.757,-4.06 2.945,-8.44 3.57,-13.12 0.625,-4.69 0.937,-9.58 0.937,-14.66 0,-6.87 -0.625,-13.32 -1.875,-19.33 -1.25,-6.02 -3.73,-11.13 -7.437,-15.36 -3.711,-4.21 -9.004,-6.32 -15.879,-6.32 z m 0,3.17 c 4.453,0 7.773,2.28 9.961,6.85 2.187,4.57 3.535,9.63 4.043,15.18 0.508,5.54 0.762,11.44 0.762,17.69 0,6.02 -0.254,11.57 -0.762,16.64 -0.508,5.08 -1.832,9.69 -3.984,13.83 -2.149,4.14 -5.489,6.21 -10.02,6.21 -4.531,0 -7.891,-2.07 -10.078,-6.21 -2.188,-4.14 -3.535,-8.75 -4.043,-13.83 -0.508,-5.07 -0.758,-10.62 -0.758,-16.64 0,-4.45 0.113,-8.65 0.344,-12.59 0.234,-3.95 0.824,-8.01 1.762,-12.19 0.937,-4.18 2.437,-7.72 4.507,-10.61 2.071,-2.89 4.825,-4.33 8.266,-4.33"
           style="fill:#000000;fill-opacity:1;fill-rule:nonzero;stroke:none"
           id="path45762"
           inkscape:connector-curvature="0" />
        <path
           d="m 338.5,1600.09 c -9.766,0 -16.426,4.05 -19.98,12.13 -3.555,8.08 -5.332,17.71 -5.332,28.88 0,6.96 0.644,13.5 1.933,19.64 1.293,6.13 3.813,11.32 7.563,15.58 3.75,4.26 9.019,6.39 15.816,6.39 5.309,0 9.645,-1.29 13.004,-3.87 3.359,-2.58 5.922,-5.9 7.68,-9.96 1.757,-4.06 2.945,-8.44 3.57,-13.12 0.625,-4.69 0.937,-9.58 0.937,-14.66 0,-6.87 -0.625,-13.32 -1.875,-19.33 -1.25,-6.02 -3.73,-11.13 -7.437,-15.36 -3.711,-4.21 -9.004,-6.32 -15.879,-6.32 z m 0,3.17 c 4.453,0 7.773,2.28 9.961,6.85 2.187,4.57 3.535,9.63 4.043,15.18 0.508,5.54 0.762,11.44 0.762,17.69 0,6.02 -0.254,11.57 -0.762,16.64 -0.508,5.08 -1.832,9.69 -3.984,13.83 -2.149,4.14 -5.489,6.21 -10.02,6.21 -4.531,0 -7.891,-2.07 -10.078,-6.21 -2.188,-4.14 -3.535,-8.75 -4.043,-13.83 -0.508,-5.07 -0.758,-10.62 -0.758,-16.64 0,-4.45 0.113,-8.65 0.344,-12.59 0.234,-3.95 0.824,-8.01 1.762,-12.19 0.937,-4.18 2.437,-7.72 4.507,-10.61 2.071,-2.89 4.825,-4.33 8.266,-4.33"
           style="fill:#000000;fill-opacity:1;fill-rule:nonzero;stroke:none"
           id="path45764"
           inkscape:connector-curvature="0" />
        <path
           d="m 110.98,938.34 h -4.808 c 0,9.293 -1.406,13.941 -4.215,13.941 H 27.7734 c -2.8086,0 -4.2148,-4.648 -4.2148,-13.941 h -4.8047 v 74.53 l 30.9375,3.75 v -3.99 c -5.707,-0.55 -10.1992,-1.34 -13.4805,-2.4 -3.2773,-1.05 -5.8359,-2.58 -7.6718,-4.57 -1.836,-1.99 -3.125,-4.63 -3.8711,-7.914 -0.7383,-3.281 -1.1094,-7.851 -1.1094,-13.711 v -12.301 c 0,-1.636 0.0586,-2.91 0.1719,-3.808 0.1211,-0.899 0.4922,-1.621 1.1172,-2.168 0.625,-0.551 1.6015,-0.824 2.9257,-0.824 H 62.582 v 9.496 c 0,4.609 -0.4101,7.988 -1.2304,10.136 -0.8203,2.149 -2.3047,3.629 -4.4532,4.45 -2.1523,0.82 -5.5312,1.23 -10.1406,1.23 v 3.871 h 36.2149 v -3.871 c -4.6094,0 -7.9883,-0.41 -10.1368,-1.23 -2.1523,-0.821 -3.6367,-2.301 -4.457,-4.45 -0.8203,-2.148 -1.2305,-5.527 -1.2305,-10.136 v -9.496 h 34.8086 c 2.809,0 4.215,5.742 4.215,17.226 h 4.808 v -43.82"
           style="fill:#000000;fill-opacity:1;fill-rule:nonzero;stroke:none"
           id="path45772"
           inkscape:connector-curvature="0" />
        <path
           d="m 112.504,1043.15 c 0,-5.39 -1.371,-10.39 -4.106,-15 -2.734,-4.61 -6.425,-8.26 -11.0699,-10.96 -4.6484,-2.69 -9.6679,-4.04 -15.0586,-4.04 -4.1406,0 -8.125,0.74 -11.9531,2.23 -3.832,1.48 -7.25,3.59 -10.2539,6.33 -3.0117,2.73 -5.3555,5.91 -7.0352,9.54 -1.6796,3.64 -2.5195,7.61 -2.5195,11.9 0,5.55 1.4453,10.58 4.3399,15.12 2.8906,4.53 6.7968,8.12 11.7187,10.78 4.918,2.65 10.1524,3.98 15.7031,3.98 5.3907,0 10.4102,-1.35 15.0586,-4.04 4.6449,-2.7 8.3359,-6.33 11.0699,-10.9 2.735,-4.57 4.106,-9.55 4.106,-14.94 z m -3.984,0 c 0,7.19 -2.618,11.99 -7.852,14.42 -5.2344,2.41 -11.875,3.63 -19.9219,3.63 -4.5352,0 -8.2852,-0.24 -11.25,-0.71 -2.9688,-0.46 -5.6641,-1.52 -8.0859,-3.16 -1.4844,-1.02 -2.793,-2.31 -3.9297,-3.87 -1.1289,-1.56 -1.9883,-3.2 -2.5782,-4.92 -0.5859,-1.72 -0.8789,-3.51 -0.8789,-5.39 0,-2.81 0.6446,-5.49 1.9375,-8.02 1.2891,-2.54 3.1055,-4.63 5.4493,-6.27 2.5781,-1.65 5.3906,-2.7 8.4375,-3.17 3.0468,-0.47 6.6796,-0.71 10.8984,-0.71 5,0 9.5117,0.43 13.5312,1.3 4.0235,0.86 7.4067,2.61 10.1407,5.27 2.734,2.65 4.102,6.52 4.102,11.6"
           style="fill:#000000;fill-opacity:1;fill-rule:nonzero;stroke:none"
           id="path45774"
           inkscape:connector-curvature="0" />
        <path
           d="m 110.98,1078.92 h -4.808 c 0,3.04 -0.231,5.56 -0.699,7.56 -0.469,1.99 -1.641,2.98 -3.516,2.98 H 65.043 c -2.3477,0 -4.0664,-0.37 -5.1602,-1.11 -1.0898,-0.74 -1.7539,-1.8 -1.9883,-3.16 -0.2343,-1.37 -0.3515,-3.46 -0.3515,-6.27 h -4.8086 l -1.4024,19.33 h 13.125 c -3.9062,1.41 -7.0703,3.46 -9.4961,6.15 -2.4179,2.7 -3.6289,5.96 -3.6289,9.79 0,2.66 0.7813,5.04 2.3399,7.15 1.5664,2.11 3.6758,3.16 6.332,3.16 1.5625,0 2.9492,-0.59 4.1602,-1.76 1.2109,-1.17 1.8164,-2.61 1.8164,-4.33 0,-1.64 -0.586,-3.05 -1.7578,-4.22 -1.1719,-1.17 -2.5821,-1.76 -4.2188,-1.76 -2.4219,0 -4.1406,0.86 -5.1562,2.58 v -0.82 c 0,-3.67 1.3086,-6.66 3.9257,-8.96 2.6133,-2.31 5.875,-3.95 9.7852,-4.93 3.9062,-0.98 7.6562,-1.46 11.25,-1.46 h 22.1484 c 2.809,0 4.215,4.37 4.215,13.12 h 4.808 v -33.04"
           style="fill:#000000;fill-opacity:1;fill-rule:nonzero;stroke:none"
           id="path45776"
           inkscape:connector-curvature="0" />
        <path
           d="m 112.504,1160.73 c 0,-5.46 -1.426,-10.41 -4.277,-14.82 -2.856,-4.42 -6.645,-7.91 -11.3715,-10.49 -4.7227,-2.58 -9.7422,-3.87 -15.0586,-3.87 -5.3086,0 -10.4063,1.27 -15.293,3.81 -4.8789,2.54 -8.7656,6.04 -11.6562,10.49 -2.8946,4.45 -4.3399,9.42 -4.3399,14.88 0,5.24 1.0156,10.02 3.0508,14.36 2.0312,4.34 5.4297,6.5 10.1953,6.5 1.7188,0 3.2227,-0.62 4.5117,-1.87 1.2852,-1.25 1.9297,-2.77 1.9297,-4.57 0,-1.8 -0.6445,-3.33 -1.9297,-4.58 -1.289,-1.25 -2.7929,-1.87 -4.5117,-1.87 -1.6406,0 -3.0312,0.51 -4.1641,1.52 -1.1289,1.02 -1.8515,2.27 -2.1679,3.75 -2.0313,-3.12 -3.043,-7.5 -3.043,-13.12 0,-4.3 1.4219,-7.77 4.2734,-10.43 2.8555,-2.66 6.3907,-4.51 10.6055,-5.56 4.2188,-1.06 8.3985,-1.58 12.5391,-1.58 4.375,0 8.5937,0.66 12.6601,1.98 4.0586,1.33 7.422,3.42 10.078,6.28 2.656,2.84 3.985,6.46 3.985,10.83 0,4.3 -1.309,7.93 -3.93,10.91 -2.617,2.96 -6.0314,4.99 -10.2541,6.09 -0.5429,0 -0.8164,0.35 -0.8164,1.05 v 1.64 c 0,0.32 0.1368,0.57 0.4063,0.76 0.2734,0.2 0.5703,0.3 0.8828,0.3 h 0.3516 c 5.3128,-1.33 9.5308,-4.03 12.6558,-8.09 3.125,-4.07 4.688,-8.83 4.688,-14.3"
           style="fill:#000000;fill-opacity:1;fill-rule:nonzero;stroke:none"
           id="path45778"
           inkscape:connector-curvature="0" />
        <path
           d="m 112.504,1219.4 c 0,-5.47 -1.445,-10.51 -4.336,-15.12 -2.891,-4.61 -6.738,-8.22 -11.543,-10.84 -4.8047,-2.61 -9.9023,-3.92 -15.293,-3.92 -5.2343,0 -10.2343,1.19 -15,3.57 -4.7656,2.39 -8.5937,5.73 -11.4843,10.02 -2.8946,4.3 -4.3399,9.1 -4.3399,14.42 0,4.06 0.6836,7.63 2.0547,10.72 1.3633,3.09 3.2773,5.6 5.7383,7.55 2.4648,1.96 5.375,3.44 8.7344,4.46 3.3554,1.01 7.0273,1.52 11.0117,1.52 1.1758,0 1.7617,-0.47 1.7617,-1.4 v -39.02 h 1.4023 c 7.5,0 13.9258,1.5 19.2771,4.5 5.356,3.02 8.032,7.92 8.032,14.71 0,2.73 -0.606,5.3 -1.817,7.68 -1.215,2.38 -2.933,4.43 -5.16,6.15 -2.2227,1.72 -4.586,2.89 -7.086,3.52 -0.3164,0.07 -0.5898,0.23 -0.8242,0.46 -0.2305,0.24 -0.3476,0.51 -0.3476,0.83 v 1.17 c 0,0.93 0.5859,1.4 1.7578,1.4 5.078,-1.25 9.258,-3.98 12.539,-8.2 3.281,-4.22 4.922,-8.94 4.922,-14.18 z m -36.0938,-17.93 v 30.82 c -3.3594,0 -6.7774,-0.49 -10.2579,-1.47 -3.4765,-0.97 -6.3671,-2.55 -8.6718,-4.74 -2.3047,-2.19 -3.4571,-5.04 -3.4571,-8.55 0,-5.16 2.3829,-9.12 7.1485,-11.9 4.7656,-2.77 9.8437,-4.16 15.2383,-4.16"
           style="fill:#000000;fill-opacity:1;fill-rule:nonzero;stroke:none"
           id="path45780"
           inkscape:connector-curvature="0" />
        <path
           d="M 144.73,1304.37 H 9.73047 v 18.52 h 5.39063 v -13.13 H 139.336 v 13.13 h 5.394 v -18.52"
           style="fill:#000000;fill-opacity:1;fill-rule:nonzero;stroke:none"
           id="path45782"
           inkscape:connector-curvature="0" />
        <path
           d="m 110.98,1329.2 h -4.808 c 0,9.3 -2.656,13.95 -7.965,13.95 H 24.2578 c -0.4648,-2.97 -0.6992,-7.62 -0.6992,-13.95 h -4.8047 v 25.9 c 0,0.47 0.1914,0.78 0.582,0.94 l 70.3125,47.81 h -58.125 c -5.3086,0 -7.9648,-4.65 -7.9648,-13.94 h -4.8047 v 32.1 h 4.8047 c 0,-9.22 2.6562,-13.83 7.9648,-13.83 h 78.2856 c 0.234,0 0.488,-0.17 0.757,-0.52 0.278,-0.35 0.414,-0.64 0.414,-0.88 v -1.64 c 0,-0.47 -0.195,-0.78 -0.585,-0.94 l -83.438,-56.72 h 71.25 c 5.309,0 7.965,4.65 7.965,13.95 h 4.808 v -32.23"
           style="fill:#000000;fill-opacity:1;fill-rule:nonzero;stroke:none"
           id="path45784"
           inkscape:connector-curvature="0" />
        <path
           d="m 144.73,1427.03 h -5.394 v 13.13 H 15.1211 v -13.13 H 9.73047 v 18.52 H 144.73 v -18.52"
           style="fill:#000000;fill-opacity:1;fill-rule:nonzero;stroke:none"
           id="path45786"
           inkscape:connector-curvature="0" />
        <path
           d="m 412.5,398.922 82.027,5.59 89.489,413.25 82.031,385.078 89.48,2.28 82.028,8.46 89.492,12.72 82.023,305.71 89.48,3.97 82.03,6.26 89.49,5.22 82.03,-1.1 89.48,-14.05 82.04,-478.21 82.02,-550.065 82.03,-10.082 89.49,-10.078 82.02,-8.754 89.49,-11.105 82.03,-8.828 89.48,-8.829 82.04,-10.004 89.48,-6.617 82.03,-7.648 89.49,-6.84 82.03,-6.473 89.48,-10.89 82.02,-6.84 89.5,-6.547 82.02,-6.766 89.48,2.282 45.06,1.859"
           style="fill:none;stroke:#002dff;stroke-width:14.37147331;stroke-linecap:butt;stroke-linejoin:round;stroke-miterlimit:10;stroke-dasharray:none;stroke-opacity:1"
           id="path45802"
           inkscape:connector-curvature="0" />
        <path
           d="m 412.5,391.977 89.484,2.136 82.032,1221.427 89.484,-395.88 82.027,0.88 89.489,8.46 82.031,385.52 89.483,-24.79 82.02,-3.32 89.5,-6.54 82.02,-10.89 82.03,-289.38 89.48,-14.12 82.04,-387.644 89.48,-17.879 82.03,-477.91 89.49,-4.418 82.02,-4.559 89.49,-3.015 82.03,-5.371 89.48,-2.129 82.03,-2.063 89.49,-0.953 82.02,1.246 82.04,0.227 89.48,1.242 82.03,1.254 89.49,2.43 h 82.03 89.48 l 82.02,3.457 45.06,1.664"
           style="fill:none;stroke:#000000;stroke-width:14.37147331;stroke-linecap:butt;stroke-linejoin:round;stroke-miterlimit:10;stroke-dasharray:none;stroke-opacity:1"
           id="path45804"
           inkscape:connector-curvature="0" />
        <path
           d="m 2023.1084,1839.9938 -28.37,75.35 c -0.7,1.72 -2.04,2.79 -4.04,3.22 -1.99,0.43 -4.51,0.65 -7.55,0.65 v 4.22 h 32.92 v -4.22 c -6.64,0 -9.96,-1.06 -9.96,-3.17 0.08,-0.07 0.12,-0.17 0.12,-0.29 0,-0.11 0,-0.25 0,-0.41 l 23.09,-61.17 21.67,57.89 c 0.16,0.31 0.24,0.82 0.24,1.52 0,1.96 -0.9,3.39 -2.7,4.28 -1.79,0.9 -3.78,1.35 -5.98,1.35 v 4.22 h 25.91 v -4.22 c -3.05,0 -5.71,-0.57 -7.97,-1.7 -2.27,-1.13 -3.91,-2.95 -4.92,-5.45 l -27.08,-72.07 c -0.23,-0.86 -0.89,-1.29 -1.99,-1.29 h -1.52 c -1.01,0 -1.64,0.43 -1.87,1.29"
           style="fill:#231f20;fill-opacity:1;fill-rule:nonzero;stroke:none"
           id="path45808"
           inkscape:connector-curvature="0" />
        <path
           d="m 2090.6784,1839.9938 c -4.84,0 -9.32,1.29 -13.41,3.87 -4.11,2.58 -7.31,6.02 -9.61,10.31 -2.31,4.3 -3.46,8.83 -3.46,13.6 0,4.68 1.05,9.13 3.16,13.36 2.11,4.22 5.08,7.61 8.91,10.19 3.83,2.58 8.09,3.87 12.77,3.87 3.67,0 6.86,-0.61 9.55,-1.82 2.7,-1.21 4.93,-2.91 6.68,-5.1 1.76,-2.18 3.09,-4.76 3.99,-7.73 0.9,-2.97 1.34,-6.25 1.34,-9.85 0,-1.01 -0.39,-1.52 -1.17,-1.52 h -34.81 v -1.29 c 0,-6.64 1.35,-12.34 4.05,-17.11 2.7,-4.76 7.05,-7.14 13.07,-7.14 2.5,0 4.78,0.54 6.85,1.64 2.07,1.09 3.89,2.61 5.45,4.56 1.57,1.96 2.62,4.03 3.16,6.21 0.09,0.32 0.22,0.57 0.42,0.77 0.19,0.2 0.44,0.29 0.75,0.29 h 1.06 c 0.78,0 1.17,-0.5 1.17,-1.52 -1.09,-4.54 -3.51,-8.27 -7.26,-11.2 -3.75,-2.92 -7.97,-4.39 -12.66,-4.39 z m -15.93,32.11 h 27.41 c 0,3.05 -0.43,6.11 -1.29,9.2 -0.85,3.09 -2.26,5.65 -4.21,7.68 -1.96,2.03 -4.5,3.04 -7.62,3.04 -4.53,0 -8.04,-2.11 -10.54,-6.33 -2.5,-4.21 -3.75,-8.74 -3.75,-13.59"
           style="fill:#231f20;fill-opacity:1;fill-rule:nonzero;stroke:none"
           id="path45810"
           inkscape:connector-curvature="0" />
        <path
           d="m 2117.2984,1841.4038 v 4.22 c 2.74,0 4.98,0.21 6.74,0.64 1.75,0.43 2.64,1.5 2.64,3.22 v 32.7 c 0,2.19 -0.34,3.75 -1,4.69 -0.67,0.94 -1.61,1.52 -2.82,1.76 -1.2,0.23 -3.06,0.35 -5.56,0.35 v 4.21 l 17.11,1.29 v -11.71 c 1.33,3.43 3.18,6.24 5.56,8.43 2.39,2.19 5.26,3.28 8.62,3.28 2.42,0 4.57,-0.7 6.44,-2.1 1.88,-1.41 2.81,-3.28 2.81,-5.63 0,-1.4 -0.52,-2.65 -1.58,-3.75 -1.05,-1.1 -2.32,-1.64 -3.81,-1.64 -1.48,0 -2.75,0.52 -3.81,1.58 -1.05,1.05 -1.58,2.32 -1.58,3.81 0,2.19 0.74,3.71 2.23,4.57 h -0.7 c -3.21,0 -5.84,-1.17 -7.91,-3.51 -2.07,-2.35 -3.54,-5.26 -4.4,-8.74 -0.86,-3.47 -1.29,-6.78 -1.29,-9.9 v -19.69 c 0,-2.57 3.91,-3.86 11.72,-3.86 v -4.22 h -29.41"
           style="fill:#231f20;fill-opacity:1;fill-rule:nonzero;stroke:none"
           id="path45812"
           inkscape:connector-curvature="0" />
        <path
           d="m 2173.4384,1855.8138 v 33.17 h -9.96 v 3.04 c 5.23,0 9.08,2.45 11.54,7.33 2.46,4.88 3.69,10.17 3.69,15.88 h 3.4 v -22.04 h 16.99 v -4.21 h -16.99 v -32.94 c 0,-3.28 0.57,-6.16 1.7,-8.66 1.13,-2.5 3.14,-3.75 6.04,-3.75 2.73,0 4.7,1.3 5.92,3.92 1.2,2.62 1.81,5.45 1.81,8.49 v 7.15 h 3.4 v -7.38 c 0,-2.5 -0.45,-4.96 -1.36,-7.38 -0.89,-2.42 -2.24,-4.44 -4.03,-6.03 -1.8,-1.61 -3.99,-2.41 -6.57,-2.41 -4.84,0 -8.65,1.45 -11.42,4.34 -2.78,2.89 -4.16,6.72 -4.16,11.48"
           style="fill:#231f20;fill-opacity:1;fill-rule:nonzero;stroke:none"
           id="path45814"
           inkscape:connector-curvature="0" />
        <path
           d="m 2211.5484,1841.4038 v 4.22 c 2.74,0 4.98,0.21 6.74,0.64 1.76,0.43 2.64,1.5 2.64,3.22 v 32.7 c 0,3.13 -0.61,5.04 -1.82,5.74 -1.21,0.71 -3.58,1.06 -7.09,1.06 v 4.21 l 17.34,1.29 v -45 c 0,-1.72 0.76,-2.79 2.28,-3.22 1.53,-0.43 3.54,-0.64 6.04,-0.64 v -4.22 z m 5.04,73.71 c 0,1.72 0.66,3.24 1.99,4.57 1.33,1.33 2.85,1.99 4.58,1.99 1.16,0 2.28,-0.29 3.33,-0.88 1.06,-0.58 1.88,-1.4 2.46,-2.46 0.59,-1.05 0.88,-2.13 0.88,-3.22 0,-1.72 -0.66,-3.25 -1.99,-4.57 -1.33,-1.33 -2.89,-2 -4.68,-2 -1.73,0 -3.25,0.67 -4.58,2 -1.33,1.32 -1.99,2.85 -1.99,4.57"
           style="fill:#231f20;fill-opacity:1;fill-rule:nonzero;stroke:none"
           id="path45816"
           inkscape:connector-curvature="0" />
        <path
           d="m 2271.0184,1839.9938 c -4.84,0 -9.24,1.27 -13.18,3.81 -3.95,2.54 -7.05,5.92 -9.32,10.14 -2.27,4.22 -3.41,8.67 -3.41,13.35 0,4.77 1.14,9.32 3.41,13.65 2.27,4.35 5.37,7.8 9.32,10.38 3.94,2.58 8.34,3.87 13.18,3.87 4.68,0 8.96,-0.92 12.82,-2.75 3.87,-1.84 5.81,-4.83 5.81,-8.97 0,-1.57 -0.57,-2.93 -1.7,-4.1 -1.13,-1.18 -2.48,-1.76 -4.04,-1.76 -1.64,0 -3.01,0.58 -4.11,1.76 -1.09,1.17 -1.63,2.53 -1.63,4.1 0,1.41 0.44,2.62 1.34,3.63 0.9,1.02 2.01,1.68 3.35,1.99 -2.82,1.72 -6.73,2.58 -11.73,2.58 -3.82,0 -6.91,-1.27 -9.25,-3.81 -2.35,-2.53 -3.99,-5.68 -4.92,-9.43 -0.94,-3.75 -1.41,-7.46 -1.41,-11.14 0,-3.82 0.58,-7.55 1.75,-11.19 1.18,-3.63 3.04,-6.62 5.57,-8.96 2.54,-2.34 5.76,-3.51 9.67,-3.51 3.75,0 6.96,1.15 9.61,3.45 2.65,2.31 4.49,5.34 5.51,9.09 0,0.46 0.31,0.7 0.93,0.7 h 1.41 c 0.24,0 0.45,-0.1 0.65,-0.3 0.19,-0.19 0.29,-0.45 0.29,-0.76 v -0.35 c -1.17,-4.68 -3.56,-8.43 -7.15,-11.25 -3.59,-2.81 -7.85,-4.22 -12.77,-4.22"
           style="fill:#231f20;fill-opacity:1;fill-rule:nonzero;stroke:none"
           id="path45818"
           inkscape:connector-curvature="0" />
        <path
           d="m 2299.2684,1853.2338 c 0,4.77 1.88,8.63 5.63,11.6 3.75,2.98 8.26,5.09 13.53,6.34 5.27,1.25 10.25,1.87 14.94,1.87 v 4.92 c 0,2.26 -0.5,4.49 -1.52,6.68 -1.01,2.19 -2.48,3.96 -4.39,5.33 -1.92,1.37 -4.01,2.05 -6.27,2.05 -5.32,0 -9.38,-1.17 -12.19,-3.51 1.56,0 2.83,-0.59 3.81,-1.76 0.98,-1.17 1.46,-2.5 1.46,-3.98 0,-1.64 -0.57,-3.03 -1.7,-4.17 -1.13,-1.13 -2.48,-1.7 -4.04,-1.7 -1.56,0 -2.91,0.57 -4.05,1.7 -1.12,1.14 -1.69,2.53 -1.69,4.17 0,4.21 1.91,7.34 5.74,9.37 3.83,2.03 8.05,3.05 12.66,3.05 3.2,0 6.44,-0.69 9.72,-2.06 3.29,-1.36 5.98,-3.34 8.09,-5.91 2.11,-2.58 3.16,-5.59 3.16,-9.03 v -27.06 c 0,-1.57 0.34,-3 1,-4.28 0.66,-1.29 1.7,-1.93 3.11,-1.93 1.32,0 2.3,0.66 2.92,1.98 0.63,1.33 0.94,2.74 0.94,4.23 v 7.73 h 3.52 v -7.73 c 0,-1.8 -0.47,-3.5 -1.41,-5.1 -0.94,-1.61 -2.19,-2.89 -3.75,-3.87 -1.56,-0.98 -3.28,-1.47 -5.15,-1.47 -2.35,0 -4.36,0.92 -6.04,2.75 -1.68,1.85 -2.64,4.01 -2.87,6.51 -1.48,-3.05 -3.67,-5.47 -6.57,-7.26 -2.89,-1.8 -5.97,-2.7 -9.25,-2.7 -3.05,0 -6.04,0.47 -8.97,1.41 -2.93,0.94 -5.39,2.36 -7.38,4.27 -1.99,1.92 -2.99,4.44 -2.99,7.56 z m 9.73,0 c 0,-2.81 1.04,-5.17 3.11,-7.08 2.07,-1.92 4.5,-2.88 7.32,-2.88 2.57,0 4.92,0.65 7.03,1.94 2.11,1.29 3.79,3.05 5.04,5.27 1.25,2.22 1.87,4.55 1.87,6.97 v 12.54 c -3.59,0 -7.3,-0.6 -11.13,-1.82 -3.83,-1.21 -6.99,-3.08 -9.49,-5.62 -2.5,-2.54 -3.75,-5.64 -3.75,-9.32"
           style="fill:#231f20;fill-opacity:1;fill-rule:nonzero;stroke:none"
           id="path45820"
           inkscape:connector-curvature="0" />
        <path
           d="m 2358.2084,1841.4038 v 4.22 c 2.74,0 4.99,0.21 6.75,0.64 1.75,0.43 2.63,1.5 2.63,3.22 v 62.94 c 0,2.18 -0.33,3.74 -1,4.68 -0.66,0.94 -1.59,1.52 -2.81,1.76 -1.21,0.23 -3.07,0.35 -5.57,0.35 v 4.22 l 17.82,1.29 v -75.24 c 0,-1.72 0.88,-2.79 2.64,-3.22 1.75,-0.43 3.96,-0.64 6.62,-0.64 v -4.22 h -27.08"
           style="fill:#231f20;fill-opacity:1;fill-rule:nonzero;stroke:none"
           id="path45822"
           inkscape:connector-curvature="0" />
        <path
           d="m 2432.0184,1841.4038 v 4.22 c 8.28,0 12.42,2.38 12.42,7.15 v 62.57 c 0,2.58 -4.14,3.87 -12.42,3.87 v 4.22 h 22.73 c 0.94,0 1.56,-0.47 1.88,-1.41 l 26.13,-67.85 26.14,67.85 c 0.31,0.94 0.97,1.41 1.98,1.41 h 22.62 v -4.22 c -8.2,0 -12.3,-1.29 -12.3,-3.87 v -65.86 c 0,-2.57 4.1,-3.86 12.3,-3.86 v -4.22 h -34.91 v 4.22 c 8.27,0 12.41,1.29 12.41,3.86 v 69.85 l -29.53,-76.52 c -0.39,-0.94 -1.05,-1.41 -1.99,-1.41 -1.01,0 -1.72,0.47 -2.11,1.41 l -29.18,75.58 v -65.62 c 0,-4.77 4.14,-7.15 12.42,-7.15 v -4.22 h -28.59"
           style="fill:#231f20;fill-opacity:1;fill-rule:nonzero;stroke:none"
           id="path45824"
           inkscape:connector-curvature="0" />
        <path
           d="m 2567.7984,1839.9938 c -4.76,0 -9.2,1.23 -13.3,3.7 -4.1,2.46 -7.34,5.73 -9.73,9.84 -2.38,4.1 -3.57,8.57 -3.57,13.41 0,3.68 0.64,7.21 1.93,10.61 1.3,3.4 3.17,6.44 5.63,9.14 2.46,2.69 5.31,4.78 8.55,6.27 3.24,1.48 6.74,2.23 10.49,2.23 4.92,0 9.41,-1.29 13.48,-3.87 4.06,-2.58 7.26,-6.05 9.61,-10.43 2.34,-4.37 3.52,-9.02 3.52,-13.95 0,-4.76 -1.2,-9.22 -3.58,-13.36 -2.38,-4.14 -5.63,-7.43 -9.73,-9.89 -4.1,-2.47 -8.53,-3.7 -13.3,-3.7 z m 0,3.64 c 6.41,0 10.68,2.32 12.83,6.97 2.15,4.64 3.22,10.56 3.22,17.75 0,3.99 -0.21,7.31 -0.64,9.96 -0.43,2.66 -1.35,5.04 -2.76,7.15 -0.93,1.33 -2.08,2.5 -3.45,3.52 -1.37,1.01 -2.83,1.77 -4.4,2.28 -1.56,0.51 -3.16,0.76 -4.8,0.76 -2.5,0 -4.86,-0.57 -7.09,-1.7 -2.23,-1.13 -4.08,-2.75 -5.57,-4.86 -1.48,-2.27 -2.44,-4.74 -2.87,-7.44 -0.43,-2.69 -0.64,-5.92 -0.64,-9.67 0,-4.53 0.39,-8.57 1.17,-12.13 0.78,-3.55 2.36,-6.54 4.75,-8.96 2.38,-2.43 5.8,-3.63 10.25,-3.63"
           style="fill:#231f20;fill-opacity:1;fill-rule:nonzero;stroke:none"
           id="path45826"
           inkscape:connector-curvature="0" />
        <path
           d="m 2610.0984,1855.8138 v 33.17 h -9.96 v 3.04 c 5.24,0 9.08,2.45 11.54,7.33 2.47,4.88 3.7,10.17 3.7,15.88 h 3.4 v -22.04 h 16.99 v -4.21 h -16.99 v -32.94 c 0,-3.28 0.56,-6.16 1.69,-8.66 1.14,-2.5 3.15,-3.75 6.04,-3.75 2.74,0 4.71,1.3 5.92,3.92 1.21,2.62 1.82,5.45 1.82,8.49 v 7.15 h 3.39 v -7.38 c 0,-2.5 -0.44,-4.96 -1.34,-7.38 -0.9,-2.42 -2.25,-4.44 -4.04,-6.03 -1.8,-1.61 -3.99,-2.41 -6.56,-2.41 -4.85,0 -8.66,1.45 -11.43,4.34 -2.78,2.89 -4.17,6.72 -4.17,11.48"
           style="fill:#231f20;fill-opacity:1;fill-rule:nonzero;stroke:none"
           id="path45828"
           inkscape:connector-curvature="0" />
        <path
           d="m 2648.2184,1841.4038 v 4.22 c 2.73,0 4.98,0.21 6.73,0.64 1.76,0.43 2.64,1.5 2.64,3.22 v 32.7 c 0,3.13 -0.6,5.04 -1.81,5.74 -1.21,0.71 -3.58,1.06 -7.09,1.06 v 4.21 l 17.34,1.29 v -45 c 0,-1.72 0.76,-2.79 2.29,-3.22 1.52,-0.43 3.53,-0.64 6.03,-0.64 v -4.22 z m 5.04,73.71 c 0,1.72 0.66,3.24 1.99,4.57 1.33,1.33 2.85,1.99 4.57,1.99 1.17,0 2.28,-0.29 3.34,-0.88 1.05,-0.58 1.87,-1.4 2.46,-2.46 0.59,-1.05 0.88,-2.13 0.88,-3.22 0,-1.72 -0.66,-3.25 -1.99,-4.57 -1.33,-1.33 -2.9,-2 -4.69,-2 -1.72,0 -3.24,0.67 -4.57,2 -1.33,1.32 -1.99,2.85 -1.99,4.57"
           style="fill:#231f20;fill-opacity:1;fill-rule:nonzero;stroke:none"
           id="path45830"
           inkscape:connector-curvature="0" />
        <path
           d="m 2707.7984,1839.9938 c -4.76,0 -9.2,1.23 -13.3,3.7 -4.1,2.46 -7.34,5.73 -9.73,9.84 -2.38,4.1 -3.57,8.57 -3.57,13.41 0,3.68 0.64,7.21 1.93,10.61 1.29,3.4 3.16,6.44 5.62,9.14 2.47,2.69 5.32,4.78 8.56,6.27 3.25,1.48 6.74,2.23 10.49,2.23 4.92,0 9.41,-1.29 13.47,-3.87 4.07,-2.58 7.27,-6.05 9.62,-10.43 2.34,-4.37 3.51,-9.02 3.51,-13.95 0,-4.76 -1.19,-9.22 -3.57,-13.36 -2.38,-4.14 -5.63,-7.43 -9.73,-9.89 -4.1,-2.47 -8.53,-3.7 -13.3,-3.7 z m 0,3.64 c 6.41,0 10.68,2.32 12.83,6.97 2.15,4.64 3.23,10.56 3.23,17.75 0,3.99 -0.22,7.31 -0.65,9.96 -0.43,2.66 -1.35,5.04 -2.75,7.15 -0.94,1.33 -2.09,2.5 -3.46,3.52 -1.37,1.01 -2.83,1.77 -4.39,2.28 -1.57,0.51 -3.16,0.76 -4.81,0.76 -2.5,0 -4.86,-0.57 -7.09,-1.7 -2.23,-1.13 -4.08,-2.75 -5.57,-4.86 -1.48,-2.27 -2.44,-4.74 -2.87,-7.44 -0.43,-2.69 -0.64,-5.92 -0.64,-9.67 0,-4.53 0.39,-8.57 1.17,-12.13 0.79,-3.55 2.36,-6.54 4.74,-8.96 2.39,-2.43 5.81,-3.63 10.26,-3.63"
           style="fill:#231f20;fill-opacity:1;fill-rule:nonzero;stroke:none"
           id="path45832"
           inkscape:connector-curvature="0" />
        <path
           d="m 2741.4284,1841.4038 v 4.22 c 2.74,0 4.98,0.21 6.74,0.64 1.76,0.43 2.64,1.5 2.64,3.22 v 32.7 c 0,2.19 -0.33,3.75 -1,4.69 -0.66,0.94 -1.6,1.52 -2.81,1.76 -1.21,0.23 -3.07,0.35 -5.57,0.35 v 4.21 l 17.34,1.29 v -11.71 c 1.65,3.43 4.03,6.24 7.16,8.43 3.12,2.19 6.56,3.28 10.31,3.28 5.55,0 9.71,-1.33 12.48,-3.98 2.77,-2.65 4.16,-6.72 4.16,-12.19 v -28.83 c 0,-1.72 0.88,-2.79 2.64,-3.22 1.75,-0.43 4,-0.64 6.73,-0.64 v -4.22 h -27.42 v 4.22 c 2.74,0 4.98,0.21 6.74,0.64 1.76,0.43 2.64,1.5 2.64,3.22 v 28.48 c 0,3.9 -0.57,7.11 -1.71,9.61 -1.13,2.5 -3.45,3.75 -6.96,3.75 -4.69,0 -8.52,-1.86 -11.49,-5.57 -2.96,-3.71 -4.45,-7.91 -4.45,-12.6 v -23.67 c 0,-1.72 0.88,-2.79 2.63,-3.22 1.76,-0.43 3.97,-0.64 6.63,-0.64 v -4.22 h -27.43"
           style="fill:#231f20;fill-opacity:1;fill-rule:nonzero;stroke:none"
           id="path45834"
           inkscape:connector-curvature="0" />
        <path
           d="m 1657.9384,1870.2038 h 300.34"
           style="fill:none;stroke:#002dff;stroke-width:14.37147331;stroke-linecap:butt;stroke-linejoin:round;stroke-miterlimit:10;stroke-dasharray:none;stroke-opacity:1"
           id="path45836"
           inkscape:connector-curvature="0" />
        <path
           d="m 948.53098,1845.3645 v 4.23 c 8.29003,0 12.43003,1.28 12.43003,3.86 v 65.85 c 0,2.59 -4.14,3.87 -12.43003,3.87 v 4.23 h 44.31003 c 5.46,0 10.45999,-1.19 14.99999,-3.58 4.52,-2.38 8.39,-5.55 11.59,-9.49 3.2,-3.95 5.67,-8.42 7.39,-13.42 1.72,-5 2.58,-10.12 2.58,-15.36 0,-5.07 -0.88,-9.99 -2.64,-14.75 -1.76,-4.77 -4.28,-9.09 -7.56,-12.96 -3.28,-3.86 -7.19,-6.91 -11.72,-9.14 -4.53,-2.22 -9.41999,-3.34 -14.63999,-3.34 z m 23.21003,8.09 c 0,-1.72 0.48,-2.8 1.46,-3.23 0.98,-0.42 2.52,-0.63 4.64,-0.63 h 11.83 c 4.14,0 8.04,0.89 11.70999,2.69 3.68,1.79 6.73,4.25 9.15,7.38 2.58,3.36 4.29,7.13 5.15,11.31 0.86,4.18 1.29,9.04 1.29,14.58 0,5.87 -0.43,10.98 -1.29,15.36 -0.86,4.37 -2.57,8.28 -5.15,11.72 -2.35,3.36 -5.35,5.96 -9.03,7.79 -3.66999,1.84 -7.61999,2.75 -11.82999,2.75 h -11.83 c -1.49,0 -2.63,-0.05 -3.41,-0.17 -0.78,-0.12 -1.42,-0.47 -1.93,-1.06 -0.51,-0.58 -0.76,-1.46 -0.76,-2.64 v -65.85"
           style="fill:#231f20;fill-opacity:1;fill-rule:nonzero;stroke:none"
           id="path45838"
           inkscape:connector-curvature="0" />
        <path
           d="m 1066.101,1843.9645 c -4.84,0 -9.31,1.29 -13.42,3.86 -4.1,2.58 -7.31,6.02 -9.61,10.32 -2.3,4.3 -3.46,8.83 -3.46,13.59 0,4.69 1.06,9.14 3.17,13.36 2.11,4.22 5.08,7.62 8.91,10.19 3.82,2.58 8.08,3.87 12.77,3.87 3.67,0 6.85,-0.6 9.55,-1.81 2.69,-1.21 4.92,-2.91 6.68,-5.1 1.76,-2.19 3.08,-4.76 3.98,-7.73 0.9,-2.98 1.35,-6.26 1.35,-9.85 0,-1.02 -0.39,-1.52 -1.17,-1.52 h -34.81 v -1.29 c 0,-6.64 1.35,-12.35 4.05,-17.11 2.69,-4.77 7.05,-7.15 13.06,-7.15 2.5,0 4.79,0.55 6.86,1.64 2.07,1.09 3.88,2.62 5.45,4.57 1.56,1.96 2.61,4.03 3.16,6.21 0.08,0.32 0.22,0.57 0.41,0.77 0.19,0.19 0.45,0.29 0.76,0.29 h 1.06 c 0.78,0 1.17,-0.51 1.17,-1.52 -1.09,-4.54 -3.52,-8.27 -7.27,-11.2 -3.75,-2.93 -7.96,-4.39 -12.65,-4.39 z m -15.94,32.11 h 27.43 c 0,3.04 -0.43,6.11 -1.3,9.19 -0.86,3.09 -2.26,5.65 -4.22,7.68 -1.95,2.03 -4.48,3.05 -7.61,3.05 -4.53,0 -8.05,-2.11 -10.55,-6.33 -2.5,-4.22 -3.75,-8.75 -3.75,-13.59"
           style="fill:#231f20;fill-opacity:1;fill-rule:nonzero;stroke:none"
           id="path45840"
           inkscape:connector-curvature="0" />
        <path
           d="m 1093.421,1845.3645 v 4.23 c 2.73,0 4.98,0.21 6.73,0.63 1.76,0.43 2.64,1.51 2.64,3.23 v 39.49 h -9.25 v 4.22 h 9.25 v 14.3 c 0,2.57 0.53,5 1.58,7.26 1.06,2.26 2.5,4.24 4.34,5.92 1.83,1.68 3.92,2.99 6.27,3.93 2.34,0.93 4.81,1.4 7.38,1.4 2.66,0 5.08,-0.8 7.26,-2.4 2.2,-1.6 3.29,-3.73 3.29,-6.39 0,-1.48 -0.53,-2.75 -1.58,-3.8 -1.06,-1.06 -2.33,-1.58 -3.81,-1.58 -1.57,0 -2.88,0.52 -3.93,1.58 -1.05,1.05 -1.58,2.32 -1.58,3.8 0,2.5 1.05,4.18 3.16,5.04 -1.25,0.47 -2.38,0.7 -3.4,0.7 -2.34,0 -4.35,-0.83 -6.02,-2.51 -1.68,-1.68 -2.94,-3.72 -3.75,-6.09 -0.83,-2.39 -1.24,-4.75 -1.24,-7.1 v -14.06 h 13.83 v -4.22 h -13.36 v -39.49 c 0,-1.64 1.17,-2.7 3.52,-3.17 2.34,-0.46 5.03,-0.69 8.08,-0.69 v -4.23 h -29.41"
           style="fill:#231f20;fill-opacity:1;fill-rule:nonzero;stroke:none"
           id="path45842"
           inkscape:connector-curvature="0" />
        <path
           d="m 1131.021,1857.2045 c 0,4.76 1.88,8.63 5.63,11.6 3.75,2.97 8.26,5.08 13.53,6.33 5.27,1.25 10.25,1.88 14.94,1.88 v 4.91 c 0,2.27 -0.5,4.5 -1.52,6.69 -1.01,2.18 -2.48,3.96 -4.39,5.33 -1.92,1.36 -4.01,2.05 -6.27,2.05 -5.32,0 -9.38,-1.17 -12.19,-3.52 1.56,0 2.83,-0.58 3.81,-1.76 0.98,-1.16 1.46,-2.49 1.46,-3.98 0,-1.64 -0.57,-3.02 -1.7,-4.16 -1.13,-1.13 -2.48,-1.7 -4.04,-1.7 -1.56,0 -2.91,0.57 -4.05,1.7 -1.12,1.14 -1.69,2.52 -1.69,4.16 0,4.22 1.91,7.34 5.74,9.38 3.83,2.03 8.05,3.04 12.66,3.04 3.2,0 6.44,-0.68 9.72,-2.05 3.29,-1.37 5.98,-3.34 8.09,-5.92 2.11,-2.58 3.16,-5.58 3.16,-9.02 v -27.07 c 0,-1.56 0.34,-2.99 1,-4.27 0.66,-1.29 1.7,-1.94 3.11,-1.94 1.32,0 2.3,0.66 2.92,1.99 0.63,1.33 0.94,2.73 0.94,4.22 v 7.73 h 3.52 v -7.73 c 0,-1.79 -0.47,-3.49 -1.41,-5.1 -0.94,-1.6 -2.19,-2.89 -3.75,-3.86 -1.56,-0.98 -3.28,-1.47 -5.15,-1.47 -2.35,0 -4.36,0.92 -6.04,2.75 -1.68,1.84 -2.64,4.01 -2.87,6.51 -1.48,-3.05 -3.67,-5.47 -6.57,-7.27 -2.89,-1.79 -5.97,-2.69 -9.25,-2.69 -3.05,0 -6.04,0.47 -8.97,1.4 -2.93,0.94 -5.39,2.37 -7.38,4.28 -1.99,1.91 -2.99,4.43 -2.99,7.56 z m 9.73,0 c 0,-2.81 1.04,-5.17 3.11,-7.09 2.07,-1.92 4.5,-2.87 7.32,-2.87 2.57,0 4.92,0.64 7.03,1.93 2.11,1.29 3.79,3.05 5.04,5.27 1.25,2.23 1.87,4.56 1.87,6.98 v 12.54 c -3.59,0 -7.3,-0.61 -11.13,-1.82 -3.83,-1.21 -6.99,-3.09 -9.49,-5.63 -2.5,-2.53 -3.75,-5.64 -3.75,-9.31"
           style="fill:#231f20;fill-opacity:1;fill-rule:nonzero;stroke:none"
           id="path45844"
           inkscape:connector-curvature="0" />
        <path
           d="m 1199.231,1859.6645 v 26.49 c 0,2.18 -0.34,3.74 -1,4.69 -0.67,0.93 -1.6,1.51 -2.81,1.75 -1.21,0.24 -3.07,0.35 -5.57,0.35 v 4.22 l 18.17,1.29 v -38.79 c 0,-3.13 0.21,-5.55 0.64,-7.26 0.43,-1.72 1.38,-3.01 2.87,-3.87 1.48,-0.86 3.83,-1.29 7.03,-1.29 4.3,0 7.71,1.79 10.26,5.39 2.54,3.6 3.8,7.66 3.8,12.19 v 21.33 c 0,2.18 -0.33,3.74 -0.99,4.69 -0.67,0.93 -1.61,1.51 -2.81,1.75 -1.21,0.24 -3.07,0.35 -5.57,0.35 v 4.22 l 18.04,1.29 v -42.19 c 0,-2.11 0.34,-3.63 1,-4.57 0.67,-0.94 1.6,-1.52 2.82,-1.76 1.2,-0.23 3.06,-0.34 5.56,-0.34 v -4.23 l -17.69,-1.4 v 10.19 c -1.49,-2.97 -3.56,-5.41 -6.21,-7.32 -2.66,-1.91 -5.59,-2.87 -8.79,-2.87 -5.79,0 -10.36,1.23 -13.71,3.69 -3.36,2.46 -5.04,6.46 -5.04,12.01"
           style="fill:#231f20;fill-opacity:1;fill-rule:nonzero;stroke:none"
           id="path45846"
           inkscape:connector-curvature="0" />
        <path
           d="m 1256.631,1845.3645 v 4.23 c 2.74,0 4.98,0.21 6.74,0.63 1.76,0.43 2.64,1.51 2.64,3.23 v 62.93 c 0,2.19 -0.33,3.75 -1,4.69 -0.66,0.93 -1.6,1.52 -2.81,1.75 -1.21,0.24 -3.07,0.35 -5.57,0.35 v 4.23 l 17.82,1.28 v -75.23 c 0,-1.72 0.87,-2.8 2.64,-3.23 1.75,-0.42 3.96,-0.63 6.62,-0.63 v -4.23 h -27.08"
           style="fill:#231f20;fill-opacity:1;fill-rule:nonzero;stroke:none"
           id="path45848"
           inkscape:connector-curvature="0" />
        <path
           d="m 1298.521,1859.7845 v 33.16 h -9.96 v 3.05 c 5.23,0 9.08,2.44 11.54,7.33 2.46,4.87 3.69,10.17 3.69,15.87 h 3.41 v -22.03 h 16.98 v -4.22 h -16.98 v -32.93 c 0,-3.28 0.56,-6.17 1.69,-8.67 1.14,-2.5 3.15,-3.75 6.04,-3.75 2.73,0 4.71,1.31 5.92,3.92 1.21,2.62 1.81,5.45 1.81,8.5 v 7.15 h 3.4 v -7.38 c 0,-2.5 -0.45,-4.96 -1.35,-7.38 -0.9,-2.43 -2.24,-4.44 -4.04,-6.04 -1.8,-1.6 -3.99,-2.4 -6.56,-2.4 -4.84,0 -8.65,1.45 -11.43,4.34 -2.77,2.89 -4.16,6.71 -4.16,11.48"
           style="fill:#231f20;fill-opacity:1;fill-rule:nonzero;stroke:none"
           id="path45850"
           inkscape:connector-curvature="0" />
        <path
           d="m 621.69098,1874.1645 h 300.34"
           style="fill:none;stroke:#000000;stroke-width:14.37147331;stroke-linecap:butt;stroke-linejoin:round;stroke-miterlimit:10;stroke-dasharray:none;stroke-opacity:1"
           id="path45852"
           inkscape:connector-curvature="0" />
        <g
           ns0:jacobian_sqrt="2.472542"
           ns0:alignment="middle center"
           ns0:scale="7.00877915576"
           ns0:preamble="C:\\Users\\shadylady\\AppData\\Roaming\\inkscape\\extensions\\default_packages.tex"
           ns0:text="$\\int Fdt = 33.2$ [Ns]"
           ns0:pdfconverter="pstoedit"
           ns0:texconverter="pdflatex"
           ns0:version="0.8.0"
           word-spacing="normal"
           letter-spacing="normal"
           font-size-adjust="none"
           font-stretch="normal"
           font-weight="normal"
           font-variant="normal"
           font-style="normal"
           stroke-miterlimit="10.433"
           xml:space="preserve"
           transform="matrix(13.91148,0,0,13.91148,-189.25051,-7609.8244)"
           id="content"
           style="font-style:normal;font-variant:normal;font-weight:normal;font-stretch:normal;letter-spacing:normal;word-spacing:normal;text-anchor:start;fill:none;fill-opacity:1;fill-rule:evenodd;stroke:#000000;stroke-linecap:butt;stroke-linejoin:miter;stroke-miterlimit:10.43299961;stroke-dasharray:none;stroke-dashoffset:0;stroke-opacity:1">
<path
   id="path46081"
   d="m 151.42,656.52 v -0.08 l -0.01,-0.07 -0.01,-0.14 -0.02,-0.14 -0.02,-0.13 -0.01,-0.12 -0.02,-0.12 -0.02,-0.11 -0.03,-0.1 -0.02,-0.1 -0.02,-0.09 -0.03,-0.09 -0.03,-0.08 -0.03,-0.08 -0.03,-0.07 -0.03,-0.07 -0.03,-0.06 -0.03,-0.06 -0.04,-0.05 -0.03,-0.05 -0.04,-0.04 -0.04,-0.04 -0.04,-0.03 -0.04,-0.03 -0.05,-0.03 -0.04,-0.03 -0.05,-0.02 -0.04,-0.01 -0.05,-0.01 -0.05,-0.01 -0.05,-0.01 -0.05,-0.01 h -0.05 c -0.13,0 -0.43,0.03 -0.64,0.21 0.29,0.04 0.37,0.27 0.37,0.41 0,0.29 -0.22,0.42 -0.41,0.42 -0.2,0 -0.42,-0.13 -0.42,-0.43 0,-0.48 0.5,-0.83 1.1,-0.83 0.95,0 1.42,0.87 1.64,1.76 0.13,0.52 0.49,3.41 0.57,4.51 l 0.19,2.48 c 0.14,1.82 0.48,2.07 0.93,2.07 0.1,0 0.41,-0.02 0.63,-0.21 -0.29,-0.04 -0.37,-0.26 -0.37,-0.4 0,-0.29 0.22,-0.42 0.41,-0.42 0.2,0 0.42,0.13 0.42,0.43 0,0.47 -0.5,0.82 -1.1,0.82 -0.95,0 -1.34,-0.96 -1.51,-1.72 -0.12,-0.54 -0.48,-3.34 -0.57,-4.55 z"
   inkscape:connector-curvature="0"
   style="fill:#000000;stroke-width:0" />
<path
   id="path46083"
   d="M 160.04,660.46 H 161 c 0.75,0 0.83,-0.16 0.83,-0.44 0,-0.07 0,-0.19 -0.07,-0.49 -0.02,-0.05 -0.03,-0.09 -0.03,-0.11 0,-0.08 0.06,-0.12 0.12,-0.12 0.1,0 0.1,0.03 0.15,0.21 l 0.55,2.15 c 0.03,0.12 0.03,0.13 0.03,0.16 0,0.02 -0.02,0.11 -0.12,0.11 -0.1,0 -0.11,-0.05 -0.15,-0.21 -0.21,-0.77 -0.44,-0.95 -1.29,-0.95 h -0.9 l 0.63,2.52 c 0.09,0.35 0.1,0.39 0.54,0.39 h 1.32 c 1.23,0 1.45,-0.33 1.45,-1.09 0,-0.23 0,-0.27 -0.03,-0.54 -0.02,-0.13 -0.02,-0.15 -0.02,-0.18 0,-0.05 0.03,-0.11 0.12,-0.11 0.11,0 0.12,0.06 0.14,0.24 l 0.2,1.72 c 0.03,0.27 -0.02,0.27 -0.27,0.27 h -4.88 c -0.2,0 -0.3,0 -0.3,-0.2 0,-0.11 0.09,-0.11 0.28,-0.11 0.37,0 0.65,0 0.65,-0.18 0,-0.04 0,-0.06 -0.05,-0.23 l -1.32,-5.26 c -0.1,-0.39 -0.12,-0.47 -0.91,-0.47 -0.17,0 -0.28,0 -0.28,-0.19 0,-0.12 0.12,-0.12 0.15,-0.12 0.29,0 1.03,0.04 1.32,0.04 0.33,0 1.16,-0.04 1.49,-0.04 0.08,0 0.2,0 0.2,0.19 0,0.08 -0.06,0.1 -0.06,0.11 -0.03,0.01 -0.05,0.01 -0.28,0.01 -0.21,0 -0.26,0 -0.51,0.02 -0.29,0.03 -0.32,0.07 -0.32,0.2 0,0.02 0,0.08 0.04,0.23 z"
   inkscape:connector-curvature="0"
   style="fill:#000000;stroke-width:0" />
<path
   id="path46085"
   d="m 169.95,664.02 v 0 0 0 0.01 0 0 0 0.01 0 0.01 0 0 l -0.01,0.01 v 0 0.01 0 l -0.01,0.01 v 0 0.01 h -0.01 v 0.01 0 h -0.01 v 0 0.01 0 h -0.01 v 0 0 l -0.01,0.01 v 0 0 h -0.01 v 0 h -0.01 v 0 h -0.01 v 0.01 h -0.01 v 0 h -0.01 v 0 h -0.01 v 0 h -0.01 c -0.15,0 -1.09,-0.09 -1.27,-0.11 -0.07,-0.01 -0.13,-0.06 -0.13,-0.19 0,-0.12 0.09,-0.12 0.23,-0.12 0.48,0 0.5,-0.07 0.5,-0.17 l -0.03,-0.2 -0.6,-2.35 c -0.17,0.37 -0.46,0.64 -0.91,0.64 -1.17,0 -2.4,-1.47 -2.4,-2.91 0,-0.94 0.54,-1.59 1.32,-1.59 l 0.02,0.21 c -0.5,0 -0.64,0.55 -0.64,0.94 0,0.5 0.32,1.72 0.55,2.17 0.31,0.59 0.76,0.96 1.16,0.96 0.65,0 0.79,-0.82 0.79,-0.88 0,-0.06 -0.02,-0.12 -0.03,-0.17 l -0.5,-1.94 c -0.05,-0.18 -0.05,-0.2 -0.2,-0.37 -0.44,-0.55 -0.85,-0.71 -1.13,-0.71 l -0.02,-0.21 c 0.2,0 0.7,0.03 1.3,0.74 0.08,-0.42 0.43,-0.74 0.91,-0.74 0.34,0 0.57,0.22 0.73,0.54 0.17,0.36 0.3,0.97 0.3,0.99 0,0.1 -0.09,0.1 -0.12,0.1 -0.1,0 -0.11,-0.04 -0.14,-0.18 -0.17,-0.65 -0.35,-1.24 -0.75,-1.24 -0.27,0 -0.3,0.26 -0.3,0.46 0,0.24 0.02,0.31 0.05,0.48 z"
   inkscape:connector-curvature="0"
   style="fill:#000000;stroke-width:0" />
<path
   id="path46087"
   d="m 172.05,661.21 h 0.93 c 0.2,0 0.3,0 0.3,0.2 0,0.11 -0.1,0.11 -0.28,0.11 h -0.87 c 0.35,1.41 0.4,1.61 0.4,1.66 0,0.17 -0.12,0.27 -0.29,0.27 -0.03,0 -0.3,-0.01 -0.39,-0.35 l -0.39,-1.58 h -0.94 c -0.2,0 -0.3,0 -0.3,-0.19 0,-0.12 0.08,-0.12 0.28,-0.12 h 0.88 c -0.72,-2.82 -0.76,-2.99 -0.76,-3.17 0,-0.54 0.38,-0.91 0.92,-0.91 1.01,0 1.58,1.45 1.58,1.53 0,0.1 -0.08,0.1 -0.12,0.1 -0.09,0 -0.1,-0.04 -0.15,-0.14 -0.43,-1.04 -0.95,-1.28 -1.29,-1.28 -0.21,0 -0.31,0.13 -0.31,0.46 0,0.24 0.02,0.31 0.06,0.48 z"
   inkscape:connector-curvature="0"
   style="fill:#000000;stroke-width:0" />
<path
   id="path46089"
   d="m 183.21,660.48 h 0.02 0.03 0.03 l 0.02,0.01 h 0.01 0.02 0.01 0.01 0.02 l 0.01,0.01 h 0.02 0.01 l 0.01,0.01 h 0.01 l 0.02,0.01 h 0.01 l 0.01,0.01 0.01,0.01 0.01,0.01 0.01,0.01 v 0.01 h 0.01 v 0.01 0 l 0.01,0.01 v 0.01 0 0.01 l 0.01,0.01 v 0 0.01 0.01 0.01 0.01 0 0.01 0.01 c 0,0.2 -0.19,0.2 -0.32,0.2 h -5.98 c -0.14,0 -0.33,0 -0.33,-0.2 0,-0.2 0.19,-0.2 0.34,-0.2 z"
   inkscape:connector-curvature="0"
   style="fill:#000000;stroke-width:0" />
<path
   id="path46091"
   d="m 183.22,658.56 h 0.01 0.01 0.03 0.03 0.01 0.02 0.01 0.01 0.02 l 0.01,0.01 h 0.01 0.02 l 0.01,0.01 h 0.01 l 0.01,0.01 h 0.02 l 0.01,0.01 h 0.01 l 0.01,0.01 0.01,0.01 0.01,0.01 v 0 0.01 l 0.01,0.01 v 0 0.01 h 0.01 v 0.01 0.01 0 l 0.01,0.01 v 0.01 0 0.01 0.01 0.01 0.01 0.01 0.01 c 0,0.19 -0.19,0.19 -0.33,0.19 h -5.96 c -0.15,0 -0.34,0 -0.34,-0.19 0,-0.2 0.19,-0.2 0.33,-0.2 z"
   inkscape:connector-curvature="0"
   style="fill:#000000;stroke-width:0" />
<path
   id="path46093"
   d="m 189.76,660.73 0.08,0.03 0.08,0.03 0.07,0.03 0.07,0.03 0.07,0.04 0.07,0.04 0.06,0.04 0.07,0.04 0.06,0.04 0.06,0.05 0.06,0.05 0.06,0.05 0.05,0.05 0.05,0.05 0.05,0.06 0.05,0.05 0.05,0.06 0.04,0.06 0.04,0.06 0.04,0.06 0.03,0.07 0.03,0.06 0.03,0.07 0.03,0.06 0.02,0.07 0.02,0.07 0.02,0.07 0.02,0.07 0.01,0.07 0.01,0.07 v 0.08 0.07 c 0,0.81 -0.88,1.37 -1.83,1.37 -1.01,0 -1.77,-0.59 -1.77,-1.35 0,-0.33 0.22,-0.52 0.51,-0.52 0.31,0 0.51,0.22 0.51,0.51 0,0.5 -0.47,0.5 -0.62,0.5 0.31,0.48 0.97,0.61 1.33,0.61 0.41,0 0.95,-0.22 0.95,-1.11 0,-0.12 -0.02,-0.7 -0.28,-1.13 -0.29,-0.48 -0.63,-0.51 -0.88,-0.52 -0.08,-0.01 -0.32,-0.03 -0.39,-0.03 -0.08,-0.01 -0.15,-0.02 -0.15,-0.12 0,-0.11 0.07,-0.11 0.24,-0.11 h 0.44 c 0.82,0 1.18,-0.67 1.18,-1.65 0,-1.35 -0.68,-1.64 -1.12,-1.64 -0.43,0 -1.18,0.17 -1.53,0.76 0.35,-0.05 0.66,0.17 0.66,0.55 0,0.35 -0.27,0.55 -0.56,0.55 -0.24,0 -0.56,-0.14 -0.56,-0.57 0,-0.91 0.93,-1.56 2.02,-1.56 1.21,0 2.12,0.9 2.12,1.91 0,0.82 -0.63,1.59 -1.67,1.8 z"
   inkscape:connector-curvature="0"
   style="fill:#000000;stroke-width:0" />
<path
   id="path46095"
   d="m 194.75,660.73 0.07,0.03 0.08,0.03 0.07,0.03 0.07,0.03 0.07,0.04 0.07,0.04 0.07,0.04 0.06,0.04 0.06,0.04 0.06,0.05 0.06,0.05 0.06,0.05 0.05,0.05 0.05,0.05 0.05,0.06 0.05,0.05 0.05,0.06 0.04,0.06 0.04,0.06 0.04,0.06 0.03,0.07 0.03,0.06 0.03,0.07 0.03,0.06 0.02,0.07 0.02,0.07 0.02,0.07 0.02,0.07 0.01,0.07 0.01,0.07 v 0.08 0.07 c 0,0.81 -0.88,1.37 -1.83,1.37 -1.01,0 -1.77,-0.59 -1.77,-1.35 0,-0.33 0.22,-0.52 0.51,-0.52 0.31,0 0.51,0.22 0.51,0.51 0,0.5 -0.47,0.5 -0.62,0.5 0.31,0.48 0.97,0.61 1.33,0.61 0.41,0 0.96,-0.22 0.96,-1.11 0,-0.12 -0.02,-0.7 -0.28,-1.13 -0.3,-0.48 -0.64,-0.51 -0.89,-0.52 -0.08,-0.01 -0.32,-0.03 -0.39,-0.03 -0.08,-0.01 -0.15,-0.02 -0.15,-0.12 0,-0.11 0.07,-0.11 0.24,-0.11 h 0.44 c 0.82,0 1.18,-0.67 1.18,-1.65 0,-1.35 -0.68,-1.64 -1.12,-1.64 -0.43,0 -1.18,0.17 -1.53,0.76 0.35,-0.05 0.66,0.17 0.66,0.55 0,0.35 -0.27,0.55 -0.56,0.55 -0.24,0 -0.56,-0.14 -0.56,-0.57 0,-0.91 0.93,-1.56 2.02,-1.56 1.22,0 2.12,0.9 2.12,1.91 0,0.82 -0.63,1.59 -1.66,1.8 z"
   inkscape:connector-curvature="0"
   style="fill:#000000;stroke-width:0" />
<path
   id="path46097"
   d="m 198.75,657.76 v 0.03 0.03 l -0.01,0.02 v 0.03 l -0.01,0.02 -0.01,0.03 v 0.02 l -0.01,0.03 -0.01,0.02 -0.02,0.02 -0.01,0.02 -0.01,0.03 -0.02,0.02 -0.01,0.02 -0.02,0.01 -0.02,0.02 -0.02,0.02 -0.01,0.02 -0.02,0.01 -0.03,0.02 -0.02,0.01 -0.02,0.01 -0.02,0.02 -0.03,0.01 -0.02,0.01 h -0.02 l -0.03,0.01 -0.02,0.01 h -0.03 l -0.03,0.01 h -0.02 -0.03 c -0.29,0 -0.53,-0.24 -0.53,-0.53 0,-0.29 0.24,-0.53 0.53,-0.53 0.29,0 0.53,0.24 0.53,0.53 z"
   inkscape:connector-curvature="0"
   style="fill:#000000;stroke-width:0" />
<path
   id="path46099"
   d="m 200.87,658 1.05,1.02 c 1.56,1.37 2.16,1.91 2.16,2.9 0,1.14 -0.9,1.93 -2.12,1.93 -1.12,0 -1.86,-0.91 -1.86,-1.8 0,-0.55 0.5,-0.55 0.53,-0.55 0.17,0 0.52,0.12 0.52,0.52 0,0.26 -0.18,0.52 -0.53,0.52 -0.08,0 -0.1,0 -0.13,-0.01 0.23,0.64 0.77,1.01 1.35,1.01 0.9,0 1.33,-0.8 1.33,-1.62 0,-0.79 -0.5,-1.58 -1.05,-2.19 l -1.91,-2.13 c -0.11,-0.11 -0.11,-0.13 -0.11,-0.37 h 3.7 l 0.28,1.73 h -0.25 c -0.05,-0.3 -0.12,-0.73 -0.22,-0.88 C 203.54,658 202.88,658 202.66,658 Z"
   inkscape:connector-curvature="0"
   style="fill:#000000;stroke-width:0" />
<polygon
   id="polygon46101"
   points="209.08,654.75 210.44,654.75 210.44,655.15 209.48,655.15 209.48,664.29 210.44,664.29 210.44,664.68 209.08,664.68 "
   style="fill:#000000;stroke-width:0" />
<path
   id="path46103"
   d="m 212.98,663.89 -0.01,0.01 v 0.01 l -0.01,0.01 -0.01,0.01 -0.01,0.01 v 0.01 h -0.01 l -0.01,0.01 v 0.01 h -0.01 v 0.01 h -0.01 l -0.01,0.01 v 0 l -0.01,0.01 h -0.01 v 0 l -0.01,0.01 h -0.01 -0.01 -0.01 -0.01 l -0.01,0.01 h -0.01 -0.01 -0.01 -0.01 -0.02 -0.01 -0.01 v 0 h -0.01 -0.01 -0.01 -0.01 -1.69 v -0.31 h 0.29 c 0.14,0 0.34,-0.01 0.49,-0.02 0.23,-0.03 0.24,-0.04 0.24,-0.23 v -5.18 c 0,-0.27 0,-0.74 -1.02,-0.74 v -0.31 c 0.35,0.01 0.83,0.04 1.16,0.04 0.33,0 0.82,-0.03 1.17,-0.04 v 0.31 c -1.03,0 -1.03,0.47 -1.03,0.74 v 5.16 c 0.05,-0.05 0.06,-0.06 0.1,-0.12 l 4.07,-5.96 c 0.09,-0.12 0.1,-0.13 0.17,-0.13 0.14,0 0.14,0.07 0.14,0.26 v 5.49 c 0,0.26 0,0.73 1.03,0.73 v 0.31 c -0.35,-0.01 -0.84,-0.03 -1.17,-0.03 -0.33,0 -0.82,0.02 -1.17,0.03 v -0.31 c 1.03,0 1.03,-0.47 1.03,-0.73 v -4.25 z"
   inkscape:connector-curvature="0"
   style="fill:#000000;stroke-width:0" />
<path
   id="path46105"
   d="m 220.21,659.16 h 0.03 l 0.02,-0.01 h 0.03 l 0.03,-0.01 0.04,-0.01 0.03,-0.01 0.04,-0.01 0.04,-0.01 0.04,-0.01 0.04,-0.01 0.04,-0.02 0.05,-0.02 0.04,-0.01 0.05,-0.03 0.04,-0.02 0.04,-0.02 0.05,-0.03 0.04,-0.03 0.04,-0.03 0.04,-0.03 0.04,-0.03 0.03,-0.04 0.04,-0.04 0.03,-0.04 0.03,-0.05 0.01,-0.02 0.01,-0.03 0.02,-0.02 0.01,-0.03 0.01,-0.02 0.01,-0.03 v -0.03 l 0.01,-0.02 0.01,-0.03 v -0.03 l 0.01,-0.03 v -0.04 -0.03 -0.03 c 0,-0.51 -0.35,-0.91 -1.13,-0.91 -0.83,0 -1.19,0.57 -1.38,1.42 -0.03,0.12 -0.04,0.16 -0.14,0.16 -0.13,0 -0.13,-0.07 -0.13,-0.25 v -1.31 c 0,-0.16 0,-0.23 0.11,-0.23 0.05,0 0.06,0.01 0.25,0.19 0.02,0.02 0.02,0.04 0.2,0.23 0.44,-0.41 0.88,-0.42 1.09,-0.42 1.15,0 1.61,0.66 1.61,1.38 0,0.52 -0.3,0.82 -0.42,0.94 -0.33,0.32 -0.72,0.4 -1.14,0.48 -0.55,0.11 -1.22,0.23 -1.22,0.81 0,0.35 0.26,0.76 1.11,0.76 1.1,0 1.15,-0.9 1.17,-1.21 0.01,-0.08 0.1,-0.08 0.12,-0.08 0.13,0 0.13,0.05 0.13,0.23 v 1.01 c 0,0.17 0,0.23 -0.11,0.23 -0.05,0 -0.07,0 -0.2,-0.11 -0.03,-0.04 -0.13,-0.13 -0.17,-0.16 -0.38,0.27 -0.79,0.27 -0.94,0.27 -1.21,0 -1.59,-0.66 -1.59,-1.22 0,-0.34 0.16,-0.62 0.43,-0.84 0.32,-0.26 0.6,-0.32 1.31,-0.46 z"
   inkscape:connector-curvature="0"
   style="fill:#000000;stroke-width:0" />
<polygon
   id="polygon46107"
   points="223.65,654.75 223.65,664.68 222.29,664.68 222.29,664.29 223.26,664.29 223.26,655.15 222.29,655.15 222.29,654.75 "
   style="fill:#000000;stroke-width:0" />
</g>      </g>
    </g>
  </g>
</svg>
