<?xml version="1.0" encoding="UTF-8" standalone="no"?>
<!-- Created with Inkscape (http://www.inkscape.org/) -->

<svg
   xmlns:dc="http://purl.org/dc/elements/1.1/"
   xmlns:cc="http://creativecommons.org/ns#"
   xmlns:rdf="http://www.w3.org/1999/02/22-rdf-syntax-ns#"
   xmlns:svg="http://www.w3.org/2000/svg"
   xmlns="http://www.w3.org/2000/svg"
   xmlns:sodipodi="http://sodipodi.sourceforge.net/DTD/sodipodi-0.dtd"
   xmlns:inkscape="http://www.inkscape.org/namespaces/inkscape"
   width="37.593319mm"
   height="12.329418mm"
   viewBox="0 0 37.593319 12.329418"
   version="1.1"
   id="svg2566"
   inkscape:version="0.92.3 (2405546, 2018-03-11)"
   sodipodi:docname="desmeas.svg">
  <defs
     id="defs2560" />
  <sodipodi:namedview
     id="base"
     pagecolor="#ffffff"
     bordercolor="#666666"
     borderopacity="1.0"
     inkscape:pageopacity="0.0"
     inkscape:pageshadow="2"
     inkscape:zoom="3.959798"
     inkscape:cx="36.565132"
     inkscape:cy="-12.81307"
     inkscape:document-units="mm"
     inkscape:current-layer="layer1"
     showgrid="false"
     inkscape:window-width="1920"
     inkscape:window-height="1137"
     inkscape:window-x="1912"
     inkscape:window-y="-8"
     inkscape:window-maximized="1"
     fit-margin-top="0"
     fit-margin-left="0"
     fit-margin-right="0"
     fit-margin-bottom="0" />
  <metadata
     id="metadata2563">
    <rdf:RDF>
      <cc:Work
         rdf:about="">
        <dc:format>image/svg+xml</dc:format>
        <dc:type
           rdf:resource="http://purl.org/dc/dcmitype/StillImage" />
        <dc:title></dc:title>
      </cc:Work>
    </rdf:RDF>
  </metadata>
  <g
     inkscape:label="Layer 1"
     inkscape:groupmode="layer"
     id="layer1"
     transform="translate(-53.713119,-117.73468)">
    <g
       id="g8794"
       transform="matrix(0.03936824,0,0,-0.03936824,-13.012624,374.79647)"
       style="fill:#000000;fill-opacity:1">
      <path
         d="m 2047.1149,6413.7051 v 5.04 c 9.84,0 14.76,1.49 14.76,4.46 v 78.27 c 0,3.06 -4.92,4.58 -14.76,4.58 v 5.03 h 52.62 c 6.48,0 12.42,-1.4 17.81,-4.21 5.39,-2.82 9.98,-6.57 13.77,-11.25 3.79,-4.69 6.71,-10.01 8.78,-15.94 2.08,-5.94 3.11,-12.03 3.11,-18.28 0,-6.02 -1.05,-11.86 -3.16,-17.52 -2.11,-5.66 -5.12,-10.78 -9.02,-15.35 -3.91,-4.57 -8.54,-8.18 -13.89,-10.84 -5.35,-2.66 -11.15,-3.99 -17.4,-3.99 z m 27.54,9.5 c 0,-2.04 0.58,-3.29 1.75,-3.75 1.18,-0.47 3.02,-0.71 5.52,-0.71 h 14.06 c 4.92,0 9.56,1.06 13.94,3.17 4.37,2.11 8.01,5.04 10.9,8.79 2.97,3.98 4.96,8.43 5.97,13.36 1.02,4.91 1.53,10.7 1.53,17.34 0,6.95 -0.51,13.03 -1.53,18.22 -1.01,5.19 -3,9.83 -5.97,13.89 -2.89,4.06 -6.51,7.17 -10.84,9.32 -4.33,2.14 -9,3.22 -14,3.22 h -14.06 c -1.73,0 -3.07,-0.08 -4.05,-0.24 -0.98,-0.16 -1.76,-0.57 -2.34,-1.23 -0.59,-0.66 -0.88,-1.7 -0.88,-3.11 v -78.27"
         style="fill:#000000;fill-opacity:1;fill-rule:nonzero;stroke:none"
         id="path6555"
         inkscape:connector-curvature="0" />
      <path
         d="m 2184.8749,6412.0651 c -5.78,0 -11.09,1.53 -15.93,4.57 -4.85,3.05 -8.66,7.11 -11.43,12.19 -2.77,5.08 -4.16,10.47 -4.16,16.17 0,5.55 1.27,10.82 3.8,15.82 2.54,5 6.06,9.05 10.56,12.14 4.49,3.08 9.55,4.62 15.17,4.62 4.29,0 8.06,-0.72 11.31,-2.17 3.24,-1.44 5.89,-3.47 7.96,-6.09 2.07,-2.62 3.66,-5.68 4.75,-9.2 1.1,-3.52 1.64,-7.39 1.64,-11.6 0,-1.25 -0.5,-1.88 -1.52,-1.88 h -41.25 v -1.52 c 0,-7.89 1.58,-14.67 4.75,-20.33 3.16,-5.67 8.38,-8.5 15.65,-8.5 2.89,0 5.56,0.65 8.02,1.94 2.46,1.28 4.61,3.1 6.44,5.44 1.84,2.35 3.11,4.81 3.81,7.39 0.08,0.39 0.24,0.7 0.48,0.94 0.23,0.23 0.54,0.34 0.93,0.34 h 1.17 c 1.02,0 1.52,-0.58 1.52,-1.75 -1.4,-5.39 -4.33,-9.82 -8.78,-13.3 -4.46,-3.48 -9.42,-5.22 -14.89,-5.22 z m -18.99,38.09 h 32.58 c 0,3.59 -0.5,7.23 -1.52,10.9 -1.01,3.67 -2.67,6.72 -4.98,9.14 -2.3,2.42 -5.33,3.63 -9.08,3.63 -5.39,0 -9.57,-2.52 -12.54,-7.56 -2.97,-5.04 -4.46,-10.41 -4.46,-16.11"
         style="fill:#000000;fill-opacity:1;fill-rule:nonzero;stroke:none"
         id="path6557"
         inkscape:connector-curvature="0" />
      <path
         d="m 2216.2849,6413.2451 v 23.32 c 0,0.7 0.42,1.05 1.28,1.05 h 1.76 c 0.55,0 0.9,-0.35 1.05,-1.05 2.66,-13.84 9.07,-20.75 19.23,-20.75 4.52,0 8.32,1.04 11.36,3.11 3.05,2.07 4.57,5.21 4.57,9.43 0,3.05 -1.19,5.67 -3.58,7.85 -2.37,2.19 -5.17,3.68 -8.37,4.46 l -9.61,1.87 c -3.21,0.7 -6.12,1.78 -8.73,3.23 -2.62,1.44 -4.77,3.35 -6.44,5.73 -1.68,2.39 -2.52,5.14 -2.52,8.27 0,4.21 1.11,7.65 3.33,10.31 2.23,2.66 5.1,4.57 8.61,5.74 3.52,1.18 7.31,1.76 11.38,1.76 4.91,0 9.17,-1.29 12.77,-3.87 l 4.1,3.52 c 0,0.23 0.23,0.35 0.7,0.35 h 1.05 c 0.24,0 0.47,-0.12 0.71,-0.35 0.24,-0.23 0.35,-0.51 0.35,-0.82 v -18.63 c 0,-0.87 -0.35,-1.3 -1.06,-1.3 h -1.75 c -0.86,0 -1.29,0.43 -1.29,1.3 0,4.92 -1.37,8.9 -4.1,11.95 -2.74,3.05 -6.61,4.57 -11.61,4.57 -4.29,0 -8,-0.8 -11.12,-2.4 -3.13,-1.6 -4.69,-4.32 -4.69,-8.15 0,-2.65 1.13,-4.82 3.4,-6.5 2.26,-1.68 4.92,-2.91 7.97,-3.69 l 9.6,-1.76 c 3.29,-0.78 6.31,-2.05 9.09,-3.81 2.77,-1.76 4.99,-3.98 6.67,-6.68 1.68,-2.69 2.52,-5.72 2.52,-9.08 0,-3.44 -0.6,-6.43 -1.81,-8.96 -1.21,-2.54 -2.87,-4.63 -4.98,-6.27 -2.11,-1.65 -4.59,-2.88 -7.44,-3.7 -2.85,-0.82 -5.88,-1.23 -9.08,-1.23 -5.95,0 -11.02,1.99 -15.24,5.98 l -5.16,-5.63 c 0,-0.23 -0.27,-0.35 -0.82,-0.35 h -0.82 c -0.86,0 -1.28,0.39 -1.28,1.18"
         style="fill:#000000;fill-opacity:1;fill-rule:nonzero;stroke:none"
         id="path6559"
         inkscape:connector-curvature="0" />
      <path
         d="m 2271.1549,6413.7051 v 5.04 c 3.28,0 5.95,0.26 8.02,0.77 2.07,0.5 3.11,1.73 3.11,3.69 v 38.9 c 0,3.68 -0.7,5.94 -2.11,6.8 -1.41,0.86 -4.18,1.29 -8.32,1.29 v 4.92 l 20.51,1.52 v -53.43 c 0,-1.96 0.9,-3.19 2.69,-3.69 1.8,-0.51 4.22,-0.77 7.27,-0.77 v -5.04 z m 6.09,87.42 c 0,2.11 0.78,3.95 2.34,5.51 1.57,1.57 3.4,2.34 5.51,2.34 1.33,0 2.62,-0.33 3.87,-0.99 1.25,-0.66 2.23,-1.62 2.92,-2.87 0.71,-1.25 1.06,-2.58 1.06,-3.99 0,-2.03 -0.8,-3.82 -2.4,-5.38 -1.6,-1.57 -3.42,-2.35 -5.45,-2.35 -2.11,0 -3.94,0.78 -5.51,2.35 -1.56,1.56 -2.34,3.35 -2.34,5.38"
         style="fill:#000000;fill-opacity:1;fill-rule:nonzero;stroke:none"
         id="path6561"
         inkscape:connector-curvature="0" />
      <path
         d="m 2309.3349,6413.7051 v 5.04 c 3.28,0 5.95,0.26 8.02,0.77 2.07,0.5 3.11,1.73 3.11,3.69 v 38.9 c 0,2.58 -0.37,4.44 -1.11,5.57 -0.74,1.13 -1.83,1.84 -3.28,2.11 -1.45,0.27 -3.7,0.41 -6.74,0.41 v 4.92 l 20.39,1.52 v -13.82 c 1.56,4.05 3.75,7.38 6.56,9.96 2.82,2.58 6.25,3.86 10.32,3.86 2.81,0 5.33,-0.82 7.56,-2.45 2.22,-1.65 3.33,-3.84 3.33,-6.57 0,-1.72 -0.6,-3.22 -1.81,-4.51 -1.21,-1.29 -2.72,-1.94 -4.51,-1.94 -1.8,0 -3.32,0.63 -4.57,1.88 -1.25,1.25 -1.88,2.77 -1.88,4.57 0,2.5 0.9,4.3 2.7,5.39 h -0.82 c -3.83,0 -6.96,-1.39 -9.38,-4.16 -2.42,-2.77 -4.16,-6.23 -5.21,-10.37 -1.06,-4.14 -1.58,-8.09 -1.58,-11.84 v -23.43 c 0,-2.97 4.65,-4.46 13.94,-4.46 v -5.04 h -35.04"
         style="fill:#000000;fill-opacity:1;fill-rule:nonzero;stroke:none"
         id="path6563"
         inkscape:connector-curvature="0" />
      <path
         d="m 2396.0449,6412.0651 c -5.78,0 -11.1,1.53 -15.94,4.57 -4.84,3.05 -8.65,7.11 -11.42,12.19 -2.78,5.08 -4.17,10.47 -4.17,16.17 0,5.55 1.27,10.82 3.82,15.82 2.53,5 6.05,9.05 10.54,12.14 4.49,3.08 9.55,4.62 15.18,4.62 4.3,0 8.06,-0.72 11.3,-2.17 3.25,-1.44 5.91,-3.47 7.98,-6.09 2.07,-2.62 3.65,-5.68 4.74,-9.2 1.09,-3.52 1.64,-7.39 1.64,-11.6 0,-1.25 -0.51,-1.88 -1.52,-1.88 h -41.25 v -1.52 c 0,-7.89 1.58,-14.67 4.74,-20.33 3.17,-5.67 8.38,-8.5 15.65,-8.5 2.89,0 5.56,0.65 8.02,1.94 2.47,1.28 4.62,3.1 6.45,5.44 1.84,2.35 3.11,4.81 3.81,7.39 0.08,0.39 0.23,0.7 0.47,0.94 0.23,0.23 0.54,0.34 0.93,0.34 h 1.18 c 1.01,0 1.52,-0.58 1.52,-1.75 -1.41,-5.39 -4.34,-9.82 -8.79,-13.3 -4.45,-3.48 -9.41,-5.22 -14.88,-5.22 z m -18.98,38.09 h 32.57 c 0,3.59 -0.5,7.23 -1.52,10.9 -1.02,3.67 -2.68,6.72 -4.98,9.14 -2.3,2.42 -5.33,3.63 -9.08,3.63 -5.4,0 -9.58,-2.52 -12.54,-7.56 -2.97,-5.04 -4.45,-10.41 -4.45,-16.11"
         style="fill:#000000;fill-opacity:1;fill-rule:nonzero;stroke:none"
         id="path6565"
         inkscape:connector-curvature="0" />
      <path
         d="m 2457.5649,6412.0651 c -5.62,0 -10.76,1.53 -15.41,4.57 -4.65,3.05 -8.27,7.05 -10.84,12.01 -2.58,4.96 -3.87,10.22 -3.87,15.77 0,5.78 1.41,11.15 4.22,16.11 2.81,4.96 6.64,8.88 11.49,11.78 4.84,2.89 10.15,4.33 15.93,4.33 3.44,0 6.72,-0.72 9.84,-2.16 3.13,-1.44 5.82,-3.46 8.09,-6.04 v 29.65 c 0,2.5 -0.37,4.32 -1.11,5.45 -0.74,1.13 -1.84,1.83 -3.28,2.11 -1.45,0.27 -3.65,0.41 -6.62,0.41 v 5.03 l 21.09,1.53 v -86.01 c 0,-2.5 0.37,-4.32 1.11,-5.46 0.74,-1.13 1.82,-1.81 3.22,-2.04 1.41,-0.24 3.64,-0.36 6.68,-0.36 v -5.04 l -21.44,-1.64 v 9.02 c -2.5,-2.81 -5.45,-5.01 -8.85,-6.61 -3.4,-1.61 -6.82,-2.41 -10.25,-2.41 z m -14.53,14.06 c 1.64,-3.12 3.8,-5.62 6.5,-7.5 2.7,-1.87 5.65,-2.81 8.85,-2.81 3.9,0 7.52,1.15 10.83,3.46 3.33,2.3 5.81,5.26 7.45,8.85 v 34.1 c -1.17,2.11 -2.6,3.98 -4.28,5.63 -1.68,1.64 -3.57,2.91 -5.68,3.8 -2.11,0.9 -4.34,1.35 -6.68,1.35 -5,0 -9.01,-1.41 -12.01,-4.22 -3.01,-2.81 -5.12,-6.41 -6.33,-10.78 -1.21,-4.38 -1.82,-8.95 -1.82,-13.71 0,-3.75 0.2,-7.05 0.59,-9.9 0.39,-2.85 1.25,-5.61 2.58,-8.27"
         style="fill:#000000;fill-opacity:1;fill-rule:nonzero;stroke:none"
         id="path6567"
         inkscape:connector-curvature="0" />
      <path
         d="m 1721.0449,6447.3151 h 298.95"
         style="fill:#000000;fill-opacity:1;stroke:#231f20;stroke-width:12.99750042;stroke-linecap:butt;stroke-linejoin:round;stroke-miterlimit:10;stroke-dasharray:none;stroke-opacity:1"
         id="path6569"
         inkscape:connector-curvature="0" />
    </g>
    <path
       inkscape:connector-curvature="0"
       id="path6589"
       style="fill:#000000;fill-opacity:1;fill-rule:nonzero;stroke:none;stroke-width:0.03936823"
       d="m 67.591571,129.00476 v -0.19841 c 0.38423,0 0.57674,-0.11063 0.57674,-0.33227 v -2.92467 c 0,-0.12007 -0.19251,-0.17991 -0.57674,-0.17991 v -0.19842 h 1.06137 c 0.0429,0 0.072,0.0217 0.0874,0.0646 l 1.22238,3.17387 1.22278,-3.17387 c 0.0154,-0.0429 0.0445,-0.0646 0.0878,-0.0646 h 1.06058 v 0.19842 c -0.38424,0 -0.57635,0.0598 -0.57635,0.17991 v 3.08175 c 0,0.11693 0.19211,0.17519 0.57635,0.17519 v 0.19841 h -1.633 v -0.19841 c 0.38778,0 0.58147,-0.0583 0.58147,-0.17519 v -3.26638 l -1.38419,3.57542 c -0.0153,0.0433 -0.0461,0.0646 -0.0921,0.0646 -0.0461,0 -0.0783,-0.0213 -0.0968,-0.0646 l -1.36143,-3.53408 v 3.06796 c 0,0.22164 0.19251,0.33227 0.57714,0.33227 v 0.19841 h -1.3334" />
    <path
       inkscape:connector-curvature="0"
       id="path6591"
       style="fill:#000000;fill-opacity:1;fill-rule:nonzero;stroke:none;stroke-width:0.03936823"
       d="m 73.843241,129.06933 c -0.22754,0 -0.43659,-0.0598 -0.62713,-0.17991 -0.19094,-0.12008 -0.34093,-0.27991 -0.44998,-0.4799 -0.10944,-0.1996 -0.16377,-0.4118 -0.16377,-0.63659 0,-0.2181 0.05,-0.42596 0.1496,-0.6228 0.1,-0.19684 0.23857,-0.35589 0.41533,-0.47754 0.17677,-0.12126 0.37636,-0.18228 0.59761,-0.18228 0.16889,0 0.31731,0.0288 0.44526,0.0854 0.12755,0.0571 0.23187,0.137 0.31337,0.24015 0.0815,0.10275 0.14409,0.22361 0.187,0.36179 0.0433,0.13858 0.065,0.29094 0.065,0.45707 0,0.0492 -0.0201,0.0736 -0.0602,0.0736 h -1.62394 v 0.0598 c 0,0.31101 0.0622,0.57792 0.18661,0.80075 0.12479,0.22282 0.3299,0.33424 0.61611,0.33424 0.11377,0 0.21928,-0.0252 0.31613,-0.076 0.0968,-0.0508 0.18148,-0.12204 0.25353,-0.21455 0.0724,-0.0921 0.12243,-0.18936 0.14999,-0.29054 0.003,-0.0154 0.009,-0.028 0.0185,-0.037 0.009,-0.009 0.0216,-0.0138 0.037,-0.0138 h 0.0461 c 0.0402,0 0.0602,0.0232 0.0602,0.0693 -0.0555,0.2122 -0.17086,0.3866 -0.34605,0.5236 -0.17558,0.137 -0.37085,0.20511 -0.5862,0.20511 z m -0.7472,-1.49915 h 1.28222 c 0,-0.14172 -0.0197,-0.28463 -0.0598,-0.42911 -0.0398,-0.14487 -0.10511,-0.26455 -0.19606,-0.35982 -0.0905,-0.0957 -0.20983,-0.14331 -0.35746,-0.14331 -0.21219,0 -0.37675,0.0992 -0.49368,0.29763 -0.11692,0.19842 -0.17518,0.41022 -0.17518,0.63461" />
    <path
       inkscape:connector-curvature="0"
       id="path6593"
       style="fill:#000000;fill-opacity:1;fill-rule:nonzero;stroke:none;stroke-width:0.03936823"
       d="m 75.121141,128.45597 c 0,-0.2244 0.0874,-0.40667 0.26298,-0.54682 0.17519,-0.14015 0.38502,-0.23858 0.62989,-0.29527 0.24448,-0.0567 0.47754,-0.0854 0.69878,-0.0854 v -0.23069 c 0,-0.10748 -0.024,-0.2122 -0.0717,-0.31377 -0.0476,-0.10117 -0.11613,-0.18424 -0.2055,-0.2492 -0.089,-0.0646 -0.18739,-0.0968 -0.29526,-0.0968 -0.24881,0 -0.43778,0.0555 -0.56729,0.16652 0.0709,0 0.13031,0.0268 0.17754,0.0803 0.0476,0.0539 0.0716,0.11654 0.0716,0.187 0,0.0772 -0.0268,0.14173 -0.0807,0.1937 -0.0539,0.0524 -0.11614,0.0787 -0.18661,0.0787 -0.0772,0 -0.14172,-0.0264 -0.19408,-0.0787 -0.052,-0.052 -0.0783,-0.11653 -0.0783,-0.1937 0,-0.19684 0.089,-0.34289 0.26731,-0.43816 0.17873,-0.0957 0.37557,-0.14331 0.59052,-0.14331 0.15078,0 0.30313,0.0323 0.45707,0.0969 0.15353,0.065 0.2799,0.15708 0.37833,0.27715 0.0984,0.11968 0.14763,0.26141 0.14763,0.42439 v 1.25939 c 0,0.0736 0.0153,0.14173 0.0461,0.20314 0.0307,0.0614 0.0784,0.0921 0.14291,0.0921 0.0614,0 0.10748,-0.0307 0.13858,-0.0921 0.0307,-0.0614 0.0461,-0.12952 0.0461,-0.20314 v -0.3551 h 0.16574 v 0.3551 c 0,0.0862 -0.022,0.16693 -0.0665,0.24212 -0.0449,0.0752 -0.10393,0.13542 -0.17755,0.17991 -0.074,0.0445 -0.15393,0.0669 -0.23975,0.0669 -0.10787,0 -0.20157,-0.0421 -0.28149,-0.12677 -0.0803,-0.0846 -0.1248,-0.18542 -0.13385,-0.30235 -0.0709,0.14173 -0.17322,0.25393 -0.30668,0.337 -0.13385,0.0831 -0.27755,0.1244 -0.43147,0.1244 -0.14488,0 -0.28542,-0.0213 -0.42243,-0.0646 -0.13661,-0.0429 -0.25117,-0.10904 -0.34329,-0.19841 -0.0925,-0.089 -0.13857,-0.2059 -0.13857,-0.35038 z m 0.45195,0 c 0,0.12913 0.0484,0.23897 0.14566,0.32991 0.0968,0.0905 0.2114,0.13582 0.34368,0.13582 0.11968,0 0.22873,-0.0307 0.32715,-0.0921 0.0984,-0.0614 0.17716,-0.1437 0.23543,-0.24684 0.0587,-0.10315 0.0878,-0.21298 0.0878,-0.32991 v -0.58147 c -0.16928,0 -0.34289,0.0279 -0.52162,0.0835 -0.17834,0.0551 -0.32597,0.14212 -0.4429,0.26023 -0.11653,0.1185 -0.17518,0.26573 -0.17518,0.44092" />
    <path
       inkscape:connector-curvature="0"
       id="path6595"
       style="fill:#000000;fill-opacity:1;fill-rule:nonzero;stroke:none;stroke-width:0.03936823"
       d="m 77.835581,129.02327 v -0.91807 c 0,-0.0276 0.0169,-0.0417 0.0504,-0.0417 h 0.0693 c 0.0216,0 0.0354,0.0142 0.0417,0.0417 0.10432,0.54446 0.35667,0.8165 0.75626,0.8165 0.17834,0 0.32754,-0.0405 0.44762,-0.12205 0.12007,-0.0815 0.17991,-0.2055 0.17991,-0.37124 0,-0.12046 -0.0469,-0.22321 -0.14055,-0.30943 -0.0941,-0.0862 -0.20392,-0.14448 -0.33029,-0.17519 l -0.37794,-0.074 c -0.12598,-0.0276 -0.24054,-0.0697 -0.34369,-0.12677 -0.10314,-0.0571 -0.18778,-0.13227 -0.25352,-0.22597 -0.0661,-0.0941 -0.0992,-0.20235 -0.0992,-0.32518 0,-0.16614 0.0437,-0.30156 0.13109,-0.40628 0.0878,-0.10433 0.20078,-0.17952 0.33936,-0.22598 0.13818,-0.0461 0.28739,-0.0693 0.44722,-0.0693 0.19409,0 0.36179,0.0508 0.50313,0.15236 l 0.16141,-0.13858 c 0,-0.009 0.009,-0.0138 0.0275,-0.0138 h 0.0417 c 0.009,0 0.0181,0.005 0.0276,0.0138 0.009,0.009 0.0138,0.0205 0.0138,0.0327 v 0.73343 c 0,0.0339 -0.0138,0.0508 -0.0413,0.0508 h -0.0693 c -0.0339,0 -0.0508,-0.0169 -0.0508,-0.0508 0,-0.19369 -0.0539,-0.35038 -0.16181,-0.47085 -0.10708,-0.11968 -0.25943,-0.17951 -0.45627,-0.17951 -0.16929,0 -0.31534,0.0315 -0.43857,0.0945 -0.12283,0.063 -0.18463,0.16968 -0.18463,0.32046 0,0.10472 0.0449,0.19014 0.13385,0.25589 0.0894,0.0661 0.19369,0.11456 0.31416,0.14566 l 0.37793,0.0693 c 0.12913,0.0307 0.24841,0.0807 0.35746,0.14999 0.10945,0.0689 0.19724,0.15669 0.26338,0.26259 0.0661,0.10629 0.0992,0.22519 0.0992,0.35747 0,0.13581 -0.024,0.25313 -0.0717,0.35313 -0.0476,0.1 -0.11338,0.18227 -0.19606,0.24683 -0.0831,0.0646 -0.1807,0.11299 -0.29329,0.14527 -0.1122,0.0323 -0.23109,0.0484 -0.35746,0.0484 -0.23346,0 -0.43345,-0.0783 -0.59958,-0.23503 l -0.20314,0.22125 c 0,0.009 -0.0106,0.0138 -0.0323,0.0138 h -0.0323 c -0.0335,0 -0.0504,-0.0154 -0.0504,-0.0461" />
    <path
       inkscape:connector-curvature="0"
       id="path6597"
       style="fill:#000000;fill-opacity:1;fill-rule:nonzero;stroke:none;stroke-width:0.03936823"
       d="m 80.429161,128.3359 v -1.23617 c 0,-0.10196 -0.0146,-0.17479 -0.0437,-0.21928 -0.0295,-0.0445 -0.0724,-0.0724 -0.12913,-0.0831 -0.0571,-0.0106 -0.14566,-0.0161 -0.26534,-0.0161 v -0.19409 l 0.84878,-0.0598 v 1.80858 c 0,0.14763 0.0106,0.2614 0.0323,0.34132 0.0216,0.0799 0.0661,0.14094 0.13385,0.18228 0.0677,0.0417 0.17676,0.0622 0.32755,0.0622 0.19999,0 0.35982,-0.0842 0.4795,-0.25353 0.12047,-0.16929 0.18031,-0.35983 0.18031,-0.57203 v -0.99641 c 0,-0.10196 -0.0161,-0.17479 -0.0488,-0.21928 -0.0323,-0.0445 -0.076,-0.0724 -0.13149,-0.0831 -0.0551,-0.0106 -0.14133,-0.0161 -0.25826,-0.0161 v -0.19409 l 0.84445,-0.0598 v 1.96999 c 0,0.0984 0.0154,0.17007 0.0461,0.21456 0.0307,0.0445 0.0744,0.0712 0.13149,0.0807 0.0567,0.009 0.1437,0.0138 0.26062,0.0138 v 0.19841 l -0.83067,0.0646 v -0.47518 c -0.0673,0.14133 -0.16338,0.2559 -0.28778,0.34369 -0.1248,0.0878 -0.26259,0.13149 -0.41336,0.13149 -0.26732,0 -0.4803,-0.0575 -0.63895,-0.17283 -0.15826,-0.11535 -0.23739,-0.30235 -0.23739,-0.5606" />
    <path
       inkscape:connector-curvature="0"
       id="path6599"
       style="fill:#000000;fill-opacity:1;fill-rule:nonzero;stroke:none;stroke-width:0.03936823"
       d="m 83.029821,129.00476 v -0.19841 c 0.12913,0 0.23464,-0.01 0.31613,-0.0299 0.0815,-0.0201 0.12204,-0.0685 0.12204,-0.14527 v -1.53143 c 0,-0.10196 -0.0145,-0.17479 -0.0441,-0.21928 -0.0291,-0.0445 -0.0721,-0.0724 -0.12874,-0.0831 -0.0571,-0.0106 -0.14527,-0.0161 -0.26534,-0.0161 v -0.19409 l 0.80272,-0.0598 v 0.54446 c 0.0614,-0.15983 0.14763,-0.29053 0.25826,-0.39211 0.11062,-0.10156 0.24605,-0.15235 0.40588,-0.15235 0.11102,0 0.21023,0.0323 0.29762,0.0969 0.0878,0.065 0.1315,0.15078 0.1315,0.25825 0,0.0677 -0.0236,0.12716 -0.0716,0.17795 -0.0476,0.0508 -0.10669,0.076 -0.17716,0.076 -0.0709,0 -0.1311,-0.0244 -0.18031,-0.0736 -0.0492,-0.0492 -0.0736,-0.10944 -0.0736,-0.18031 0,-0.0984 0.0354,-0.16889 0.1063,-0.2118 h -0.0327 c -0.15038,0 -0.27361,0.0543 -0.36888,0.16338 -0.0953,0.10944 -0.16377,0.24526 -0.2055,0.40825 -0.0413,0.16298 -0.0622,0.31849 -0.0622,0.46612 v 0.92279 c 0,0.11693 0.18306,0.17519 0.54918,0.17519 v 0.19841 h -1.37946" />
    <path
       inkscape:connector-curvature="0"
       id="path6601"
       style="fill:#000000;fill-opacity:1;fill-rule:nonzero;stroke:none;stroke-width:0.03936823"
       d="m 86.443441,129.06933 c -0.22794,0 -0.43699,-0.0598 -0.62753,-0.17991 -0.19054,-0.12008 -0.34053,-0.27991 -0.44998,-0.4799 -0.10904,-0.1996 -0.16338,-0.4118 -0.16338,-0.63659 0,-0.2181 0.0496,-0.42596 0.14961,-0.6228 0.1,-0.19684 0.23857,-0.35589 0.41533,-0.47754 0.17676,-0.12126 0.37596,-0.18228 0.59761,-0.18228 0.16889,0 0.31731,0.0288 0.44486,0.0854 0.12755,0.0571 0.23227,0.137 0.31376,0.24015 0.0815,0.10275 0.1437,0.22361 0.187,0.36179 0.0429,0.13858 0.0646,0.29094 0.0646,0.45707 0,0.0492 -0.0201,0.0736 -0.0598,0.0736 h -1.62394 v 0.0598 c 0,0.31101 0.0622,0.57792 0.1866,0.80075 0.12441,0.22282 0.32991,0.33424 0.61612,0.33424 0.11377,0 0.21888,-0.0252 0.31573,-0.076 0.0972,-0.0508 0.18149,-0.12204 0.25393,-0.21455 0.072,-0.0921 0.12204,-0.18936 0.14999,-0.29054 0.003,-0.0154 0.009,-0.028 0.0185,-0.037 0.009,-0.009 0.0212,-0.0138 0.037,-0.0138 h 0.0461 c 0.0398,0 0.0598,0.0232 0.0598,0.0693 -0.0555,0.2122 -0.17086,0.3866 -0.34605,0.5236 -0.17558,0.137 -0.37085,0.20511 -0.5858,0.20511 z m -0.7476,-1.49915 h 1.28262 c 0,-0.14172 -0.0201,-0.28463 -0.0598,-0.42911 -0.0402,-0.14487 -0.10551,-0.26455 -0.19606,-0.35982 -0.0909,-0.0957 -0.20983,-0.14331 -0.35746,-0.14331 -0.21219,0 -0.37676,0.0992 -0.49407,0.29763 -0.11693,0.19842 -0.17519,0.41022 -0.17519,0.63461" />
    <path
       inkscape:connector-curvature="0"
       id="path6603"
       style="fill:#000000;fill-opacity:1;fill-rule:nonzero;stroke:none;stroke-width:0.03936823"
       d="m 88.864981,129.06933 c -0.22125,0 -0.42321,-0.0598 -0.60627,-0.17991 -0.18306,-0.12008 -0.32518,-0.27755 -0.42714,-0.47282 -0.10118,-0.19526 -0.15197,-0.40195 -0.15197,-0.62044 0,-0.22755 0.0555,-0.43896 0.16614,-0.63422 0.11062,-0.19527 0.2614,-0.34999 0.45194,-0.46376 0.19055,-0.11378 0.39999,-0.17086 0.62754,-0.17086 0.13542,0 0.26455,0.0284 0.38738,0.0854 0.12322,0.0567 0.22951,0.13621 0.31849,0.23739 v -1.16688 c 0,-0.0984 -0.0146,-0.17007 -0.0437,-0.21455 -0.0291,-0.0445 -0.0724,-0.0724 -0.12913,-0.0831 -0.0571,-0.011 -0.14408,-0.0161 -0.26101,-0.0161 v -0.19842 l 0.83067,-0.0602 v 3.38646 c 0,0.0984 0.0145,0.17007 0.0437,0.21456 0.0291,0.0445 0.0717,0.0712 0.12676,0.0807 0.0555,0.009 0.14291,0.0138 0.26298,0.0138 v 0.19841 l -0.84405,0.0646 v -0.3551 c -0.0984,0.11062 -0.21456,0.19763 -0.34841,0.26061 -0.13385,0.063 -0.2681,0.0945 -0.40392,0.0945 z m -0.57162,-0.55352 c 0.0646,0.12322 0.1496,0.22164 0.25589,0.29526 0.10629,0.074 0.22204,0.11063 0.34841,0.11063 0.15353,0 0.29605,-0.0453 0.42675,-0.13582 0.1307,-0.0909 0.22834,-0.20708 0.2929,-0.34841 v -1.34285 c -0.0461,-0.0831 -0.10236,-0.15669 -0.1685,-0.22125 -0.0661,-0.0646 -0.14054,-0.11456 -0.22361,-0.15 -0.0831,-0.035 -0.17086,-0.0528 -0.26337,-0.0528 -0.19684,0 -0.35431,0.0551 -0.47242,0.16574 -0.1185,0.11102 -0.20157,0.25235 -0.2492,0.42478 -0.0476,0.17204 -0.0717,0.35196 -0.0717,0.53974 0,0.14763 0.008,0.27755 0.0232,0.38975 0.0153,0.1122 0.0492,0.22046 0.10157,0.32518" />
    <path
       inkscape:connector-curvature="0"
       id="path6605"
       style="fill:#000000;fill-opacity:1;stroke:#231f20;stroke-width:0.51168865;stroke-linecap:butt;stroke-linejoin:bevel;stroke-miterlimit:10;stroke-dasharray:2.95261763, 1.77157057;stroke-dashoffset:0;stroke-opacity:1"
       d="m 54.740991,127.68239 h 11.76913" />
    <rect
       style="opacity:0.98000004;fill:none;fill-opacity:1;fill-rule:evenodd;stroke:#000000;stroke-width:0.29511404;stroke-linecap:butt;stroke-linejoin:round;stroke-miterlimit:10;stroke-dasharray:none;stroke-dashoffset:0;stroke-opacity:1;paint-order:markers fill stroke"
       id="rect926"
       width="37.298206"
       height="12.034305"
       x="53.860676"
       y="117.88223" />
  </g>
</svg>
