<?xml version="1.0" encoding="UTF-8" standalone="no"?>
<!-- Created with Inkscape (http://www.inkscape.org/) -->

<svg
   xmlns:dc="http://purl.org/dc/elements/1.1/"
   xmlns:cc="http://creativecommons.org/ns#"
   xmlns:rdf="http://www.w3.org/1999/02/22-rdf-syntax-ns#"
   xmlns:svg="http://www.w3.org/2000/svg"
   xmlns="http://www.w3.org/2000/svg"
   xmlns:sodipodi="http://sodipodi.sourceforge.net/DTD/sodipodi-0.dtd"
   xmlns:inkscape="http://www.inkscape.org/namespaces/inkscape"
   width="102.42168mm"
   height="99.544159mm"
   viewBox="0 0 102.42168 99.544159"
   version="1.1"
   id="svg2468"
   inkscape:version="0.92.3 (2405546, 2018-03-11)"
   sodipodi:docname="round01.svg">
  <defs
     id="defs2462" />
  <sodipodi:namedview
     id="base"
     pagecolor="#ffffff"
     bordercolor="#666666"
     borderopacity="1.0"
     inkscape:pageopacity="0.0"
     inkscape:pageshadow="2"
     inkscape:zoom="0.49497475"
     inkscape:cx="-715.55276"
     inkscape:cy="230.70528"
     inkscape:document-units="mm"
     inkscape:current-layer="g3771"
     showgrid="false"
     fit-margin-top="0"
     fit-margin-left="0"
     fit-margin-right="0"
     fit-margin-bottom="0"
     inkscape:window-width="1920"
     inkscape:window-height="1137"
     inkscape:window-x="1912"
     inkscape:window-y="-8"
     inkscape:window-maximized="1" />
  <metadata
     id="metadata2465">
    <rdf:RDF>
      <cc:Work
         rdf:about="">
        <dc:format>image/svg+xml</dc:format>
        <dc:type
           rdf:resource="http://purl.org/dc/dcmitype/StillImage" />
        <dc:title></dc:title>
      </cc:Work>
    </rdf:RDF>
  </metadata>
  <g
     inkscape:label="Layer 1"
     inkscape:groupmode="layer"
     id="layer1"
     transform="translate(-271.65071,-317.12021)">
    <g
       transform="matrix(0.35277777,0,0,-0.35277777,190.21355,285.78272)"
       inkscape:label="ink_ext_XXXXXX"
       id="g3395">
      <g
         transform="matrix(0.1,0,0,0.1,-21.964286,-35.357144)"
         id="g3397">
        <g
           transform="matrix(10,0,0,10,2528.0977,-3356.4598)"
           inkscape:label="ink_ext_XXXXXX"
           id="g3769">
          <g
             transform="scale(0.1)"
             id="g3771">
            <path
               inkscape:connector-curvature="0"
               id="path3777"
               style="fill:#ffffff;fill-opacity:1;fill-rule:nonzero;stroke:none"
               d="m 2781.25,1421.25 -4.07,102.2 -12.17,101.54 -20.2,100.26 -28.1,98.34 -35.83,95.79 -43.33,92.64 -50.54,88.91 -57.46,84.61 -63.99,79.78 -70.13,74.44 -75.82,68.64 -81.04,62.39 -85.74,55.76 -89.89,48.77 -93.49,41.48 -96.49,33.92 -98.87,26.14 -100.64,18.2 -101.77,10.15 -102.25,2.04 -102.09,-6.1 -101.29,-14.19 -99.84,-22.19 -97.76,-30.06 -95.059,-37.72 -91.762,-45.16 -87.887,-52.31 -83.453,-59.12 -78.488,-65.56 -73.031,-71.6 -67.122,-77.17 -60.769,-82.26 -54.039,-86.83 -46.981,-90.85 -39.605,-94.29 -31.988,-97.14 -24.172,-99.38 -16.203,-100.98 -8.121,-101.95 v -102.28 l 8.121,-101.95 16.203,-100.98 24.172,-99.38 31.988,-97.136 39.605,-94.297 46.981,-90.847 54.039,-86.829 60.769,-82.257 67.122,-77.176 73.031,-71.594 78.488,-65.566 83.453,-59.121 87.887,-52.305 91.762,-45.16 95.059,-37.723 97.76,-30.055 99.84,-22.191 101.29,-14.191 102.09,-6.098 102.25,2.035 101.77,10.152 100.64,18.204 98.87,26.136 96.49,33.926 93.49,41.473 89.89,48.765 85.74,55.762 81.04,62.395 75.82,68.636 70.13,74.438 63.99,79.785 57.46,84.609 50.54,88.907 43.33,92.644 35.83,95.789 28.1,98.34 20.2,100.26 12.17,101.54" />
            <path
               inkscape:connector-curvature="0"
               id="path3779"
               style="fill:none;stroke:#cacacb;stroke-width:5.00250006;stroke-linecap:butt;stroke-linejoin:bevel;stroke-miterlimit:10;stroke-dasharray:7.5, 22.5;stroke-dashoffset:0;stroke-opacity:1"
               d="m 1495,1421.25 1281.35,112.1" />
            <path
               inkscape:connector-curvature="0"
               id="path3781"
               style="fill:none;stroke:#cacacb;stroke-width:5.00250006;stroke-linecap:butt;stroke-linejoin:bevel;stroke-miterlimit:10;stroke-dasharray:7.5, 22.5;stroke-dashoffset:0;stroke-opacity:1"
               d="m 1495,1421.25 1266.71,223.36" />
            <path
               inkscape:connector-curvature="0"
               id="path3783"
               style="fill:none;stroke:#cacacb;stroke-width:5.00250006;stroke-linecap:butt;stroke-linejoin:bevel;stroke-miterlimit:10;stroke-dasharray:7.5, 22.5;stroke-dashoffset:0;stroke-opacity:1"
               d="m 1495,1421.25 1242.42,332.9" />
            <path
               inkscape:connector-curvature="0"
               id="path3785"
               style="fill:none;stroke:#cacacb;stroke-width:5.00250006;stroke-linecap:butt;stroke-linejoin:bevel;stroke-miterlimit:10;stroke-dasharray:7.5, 22.5;stroke-dashoffset:0;stroke-opacity:1"
               d="m 1495,1421.25 1165.74,543.59" />
            <path
               inkscape:connector-curvature="0"
               id="path3787"
               style="fill:none;stroke:#cacacb;stroke-width:5.00250006;stroke-linecap:butt;stroke-linejoin:bevel;stroke-miterlimit:10;stroke-dasharray:7.5, 22.5;stroke-dashoffset:0;stroke-opacity:1"
               d="m 1495,1421.25 1113.92,643.13" />
            <path
               inkscape:connector-curvature="0"
               id="path3789"
               style="fill:none;stroke:#cacacb;stroke-width:5.00250006;stroke-linecap:butt;stroke-linejoin:bevel;stroke-miterlimit:10;stroke-dasharray:7.5, 22.5;stroke-dashoffset:0;stroke-opacity:1"
               d="m 1495,1421.25 1053.64,737.76" />
            <path
               inkscape:connector-curvature="0"
               id="path3791"
               style="fill:none;stroke:#cacacb;stroke-width:5.00250006;stroke-linecap:butt;stroke-linejoin:bevel;stroke-miterlimit:10;stroke-dasharray:7.5, 22.5;stroke-dashoffset:0;stroke-opacity:1"
               d="m 1495,1421.25 909.52,909.52" />
            <path
               inkscape:connector-curvature="0"
               id="path3793"
               style="fill:none;stroke:#cacacb;stroke-width:5.00250006;stroke-linecap:butt;stroke-linejoin:bevel;stroke-miterlimit:10;stroke-dasharray:7.5, 22.5;stroke-dashoffset:0;stroke-opacity:1"
               d="m 1495,1421.25 826.79,985.33" />
            <path
               inkscape:connector-curvature="0"
               id="path3795"
               style="fill:none;stroke:#cacacb;stroke-width:5.00250006;stroke-linecap:butt;stroke-linejoin:bevel;stroke-miterlimit:10;stroke-dasharray:7.5, 22.5;stroke-dashoffset:0;stroke-opacity:1"
               d="m 1495,1421.25 737.76,1053.64" />
            <path
               inkscape:connector-curvature="0"
               id="path3797"
               style="fill:none;stroke:#cacacb;stroke-width:5.00250006;stroke-linecap:butt;stroke-linejoin:bevel;stroke-miterlimit:10;stroke-dasharray:7.5, 22.5;stroke-dashoffset:0;stroke-opacity:1"
               d="m 1495,1421.25 543.59,1165.74" />
            <path
               inkscape:connector-curvature="0"
               id="path3799"
               style="fill:none;stroke:#cacacb;stroke-width:5.00250006;stroke-linecap:butt;stroke-linejoin:bevel;stroke-miterlimit:10;stroke-dasharray:7.5, 22.5;stroke-dashoffset:0;stroke-opacity:1"
               d="m 1495,1421.25 439.92,1208.68" />
            <path
               inkscape:connector-curvature="0"
               id="path3801"
               style="fill:none;stroke:#cacacb;stroke-width:5.00250006;stroke-linecap:butt;stroke-linejoin:bevel;stroke-miterlimit:10;stroke-dasharray:7.5, 22.5;stroke-dashoffset:0;stroke-opacity:1"
               d="m 1495,1421.25 332.9,1242.42" />
            <path
               inkscape:connector-curvature="0"
               id="path3803"
               style="fill:none;stroke:#cacacb;stroke-width:5.00250006;stroke-linecap:butt;stroke-linejoin:bevel;stroke-miterlimit:10;stroke-dasharray:7.5, 22.5;stroke-dashoffset:0;stroke-opacity:1"
               d="M 1495,1421.25 1607.1,2702.6" />
            <path
               inkscape:connector-curvature="0"
               id="path3805"
               style="fill:none;stroke:#cacacb;stroke-width:5.00250006;stroke-linecap:butt;stroke-linejoin:bevel;stroke-miterlimit:10;stroke-dasharray:7.5, 22.5;stroke-dashoffset:0;stroke-opacity:1"
               d="M 1495,1421.25 V 2707.5" />
            <path
               inkscape:connector-curvature="0"
               id="path3807"
               style="fill:none;stroke:#cacacb;stroke-width:5.00250006;stroke-linecap:butt;stroke-linejoin:bevel;stroke-miterlimit:10;stroke-dasharray:7.5, 22.5;stroke-dashoffset:0;stroke-opacity:1"
               d="M 1495,1421.25 1382.9,2702.6" />
            <path
               inkscape:connector-curvature="0"
               id="path3809"
               style="fill:none;stroke:#cacacb;stroke-width:5.00250006;stroke-linecap:butt;stroke-linejoin:bevel;stroke-miterlimit:10;stroke-dasharray:7.5, 22.5;stroke-dashoffset:0;stroke-opacity:1"
               d="M 1495,1421.25 1162.1,2663.67" />
            <path
               inkscape:connector-curvature="0"
               id="path3811"
               style="fill:none;stroke:#cacacb;stroke-width:5.00250006;stroke-linecap:butt;stroke-linejoin:bevel;stroke-miterlimit:10;stroke-dasharray:7.5, 22.5;stroke-dashoffset:0;stroke-opacity:1"
               d="M 1495,1421.25 1055.08,2629.93" />
            <path
               inkscape:connector-curvature="0"
               id="path3813"
               style="fill:none;stroke:#cacacb;stroke-width:5.00250006;stroke-linecap:butt;stroke-linejoin:bevel;stroke-miterlimit:10;stroke-dasharray:7.5, 22.5;stroke-dashoffset:0;stroke-opacity:1"
               d="M 1495,1421.25 951.406,2586.99" />
            <path
               inkscape:connector-curvature="0"
               id="path3815"
               style="fill:none;stroke:#cacacb;stroke-width:5.00250006;stroke-linecap:butt;stroke-linejoin:bevel;stroke-miterlimit:10;stroke-dasharray:7.5, 22.5;stroke-dashoffset:0;stroke-opacity:1"
               d="M 1495,1421.25 757.238,2474.89" />
            <path
               inkscape:connector-curvature="0"
               id="path3817"
               style="fill:none;stroke:#cacacb;stroke-width:5.00250006;stroke-linecap:butt;stroke-linejoin:bevel;stroke-miterlimit:10;stroke-dasharray:7.5, 22.5;stroke-dashoffset:0;stroke-opacity:1"
               d="M 1495,1421.25 668.215,2406.58" />
            <path
               inkscape:connector-curvature="0"
               id="path3819"
               style="fill:none;stroke:#cacacb;stroke-width:5.00250006;stroke-linecap:butt;stroke-linejoin:bevel;stroke-miterlimit:10;stroke-dasharray:7.5, 22.5;stroke-dashoffset:0;stroke-opacity:1"
               d="M 1495,1421.25 585.484,2330.77" />
            <path
               inkscape:connector-curvature="0"
               id="path3821"
               style="fill:none;stroke:#cacacb;stroke-width:5.00250006;stroke-linecap:butt;stroke-linejoin:bevel;stroke-miterlimit:10;stroke-dasharray:7.5, 22.5;stroke-dashoffset:0;stroke-opacity:1"
               d="M 1495,1421.25 441.363,2159.01" />
            <path
               inkscape:connector-curvature="0"
               id="path3823"
               style="fill:none;stroke:#cacacb;stroke-width:5.00250006;stroke-linecap:butt;stroke-linejoin:bevel;stroke-miterlimit:10;stroke-dasharray:7.5, 22.5;stroke-dashoffset:0;stroke-opacity:1"
               d="M 1495,1421.25 381.078,2064.38" />
            <path
               inkscape:connector-curvature="0"
               id="path3825"
               style="fill:none;stroke:#cacacb;stroke-width:5.00250006;stroke-linecap:butt;stroke-linejoin:bevel;stroke-miterlimit:10;stroke-dasharray:7.5, 22.5;stroke-dashoffset:0;stroke-opacity:1"
               d="M 1495,1421.25 329.262,1964.84" />
            <path
               inkscape:connector-curvature="0"
               id="path3827"
               style="fill:none;stroke:#cacacb;stroke-width:5.00250006;stroke-linecap:butt;stroke-linejoin:bevel;stroke-miterlimit:10;stroke-dasharray:7.5, 22.5;stroke-dashoffset:0;stroke-opacity:1"
               d="M 1495,1421.25 252.578,1754.15" />
            <path
               inkscape:connector-curvature="0"
               id="path3829"
               style="fill:none;stroke:#cacacb;stroke-width:5.00250006;stroke-linecap:butt;stroke-linejoin:bevel;stroke-miterlimit:10;stroke-dasharray:7.5, 22.5;stroke-dashoffset:0;stroke-opacity:1"
               d="M 1495,1421.25 228.289,1644.61" />
            <path
               inkscape:connector-curvature="0"
               id="path3831"
               style="fill:none;stroke:#cacacb;stroke-width:5.00250006;stroke-linecap:butt;stroke-linejoin:bevel;stroke-miterlimit:10;stroke-dasharray:7.5, 22.5;stroke-dashoffset:0;stroke-opacity:1"
               d="M 1495,1421.25 213.648,1533.35" />
            <path
               inkscape:connector-curvature="0"
               id="path3833"
               style="fill:none;stroke:#cacacb;stroke-width:5.00250006;stroke-linecap:butt;stroke-linejoin:bevel;stroke-miterlimit:10;stroke-dasharray:7.5, 22.5;stroke-dashoffset:0;stroke-opacity:1"
               d="M 1495,1421.25 213.648,1309.15" />
            <path
               inkscape:connector-curvature="0"
               id="path3835"
               style="fill:none;stroke:#cacacb;stroke-width:5.00250006;stroke-linecap:butt;stroke-linejoin:bevel;stroke-miterlimit:10;stroke-dasharray:7.5, 22.5;stroke-dashoffset:0;stroke-opacity:1"
               d="M 1495,1421.25 228.289,1197.89" />
            <path
               inkscape:connector-curvature="0"
               id="path3837"
               style="fill:none;stroke:#cacacb;stroke-width:5.00250006;stroke-linecap:butt;stroke-linejoin:bevel;stroke-miterlimit:10;stroke-dasharray:7.5, 22.5;stroke-dashoffset:0;stroke-opacity:1"
               d="M 1495,1421.25 252.578,1088.35" />
            <path
               inkscape:connector-curvature="0"
               id="path3839"
               style="fill:none;stroke:#cacacb;stroke-width:5.00250006;stroke-linecap:butt;stroke-linejoin:bevel;stroke-miterlimit:10;stroke-dasharray:7.5, 22.5;stroke-dashoffset:0;stroke-opacity:1"
               d="M 1495,1421.25 329.262,877.656" />
            <path
               inkscape:connector-curvature="0"
               id="path3841"
               style="fill:none;stroke:#cacacb;stroke-width:5.00250006;stroke-linecap:butt;stroke-linejoin:bevel;stroke-miterlimit:10;stroke-dasharray:7.5, 22.5;stroke-dashoffset:0;stroke-opacity:1"
               d="M 1495,1421.25 381.078,778.125" />
            <path
               inkscape:connector-curvature="0"
               id="path3843"
               style="fill:none;stroke:#cacacb;stroke-width:5.00250006;stroke-linecap:butt;stroke-linejoin:bevel;stroke-miterlimit:10;stroke-dasharray:7.5, 22.5;stroke-dashoffset:0;stroke-opacity:1"
               d="M 1495,1421.25 441.363,683.488" />
            <path
               inkscape:connector-curvature="0"
               id="path3845"
               style="fill:none;stroke:#cacacb;stroke-width:5.00250006;stroke-linecap:butt;stroke-linejoin:bevel;stroke-miterlimit:10;stroke-dasharray:7.5, 22.5;stroke-dashoffset:0;stroke-opacity:1"
               d="M 1495,1421.25 585.484,511.734" />
            <path
               inkscape:connector-curvature="0"
               id="path3847"
               style="fill:none;stroke:#cacacb;stroke-width:5.00250006;stroke-linecap:butt;stroke-linejoin:bevel;stroke-miterlimit:10;stroke-dasharray:7.5, 22.5;stroke-dashoffset:0;stroke-opacity:1"
               d="M 1495,1421.25 668.215,435.922" />
            <path
               inkscape:connector-curvature="0"
               id="path3849"
               style="fill:none;stroke:#cacacb;stroke-width:5.00250006;stroke-linecap:butt;stroke-linejoin:bevel;stroke-miterlimit:10;stroke-dasharray:7.5, 22.5;stroke-dashoffset:0;stroke-opacity:1"
               d="M 1495,1421.25 757.238,367.613" />
            <path
               inkscape:connector-curvature="0"
               id="path3851"
               style="fill:none;stroke:#cacacb;stroke-width:5.00250006;stroke-linecap:butt;stroke-linejoin:bevel;stroke-miterlimit:10;stroke-dasharray:7.5, 22.5;stroke-dashoffset:0;stroke-opacity:1"
               d="M 1495,1421.25 951.406,255.512" />
            <path
               inkscape:connector-curvature="0"
               id="path3853"
               style="fill:none;stroke:#cacacb;stroke-width:5.00250006;stroke-linecap:butt;stroke-linejoin:bevel;stroke-miterlimit:10;stroke-dasharray:7.5, 22.5;stroke-dashoffset:0;stroke-opacity:1"
               d="M 1495,1421.25 1055.08,212.574" />
            <path
               inkscape:connector-curvature="0"
               id="path3855"
               style="fill:none;stroke:#cacacb;stroke-width:5.00250006;stroke-linecap:butt;stroke-linejoin:bevel;stroke-miterlimit:10;stroke-dasharray:7.5, 22.5;stroke-dashoffset:0;stroke-opacity:1"
               d="M 1495,1421.25 1162.1,178.832" />
            <path
               inkscape:connector-curvature="0"
               id="path3857"
               style="fill:none;stroke:#cacacb;stroke-width:5.00250006;stroke-linecap:butt;stroke-linejoin:bevel;stroke-miterlimit:10;stroke-dasharray:7.5, 22.5;stroke-dashoffset:0;stroke-opacity:1"
               d="M 1495,1421.25 1382.9,139.898" />
            <path
               inkscape:connector-curvature="0"
               id="path3859"
               style="fill:none;stroke:#cacacb;stroke-width:5.00250006;stroke-linecap:butt;stroke-linejoin:bevel;stroke-miterlimit:10;stroke-dasharray:7.5, 22.5;stroke-dashoffset:0;stroke-opacity:1"
               d="M 1495,1421.25 V 135" />
            <path
               inkscape:connector-curvature="0"
               id="path3861"
               style="fill:none;stroke:#cacacb;stroke-width:5.00250006;stroke-linecap:butt;stroke-linejoin:bevel;stroke-miterlimit:10;stroke-dasharray:7.5, 22.5;stroke-dashoffset:0;stroke-opacity:1"
               d="M 1495,1421.25 1607.1,139.898" />
            <path
               inkscape:connector-curvature="0"
               id="path3863"
               style="fill:none;stroke:#cacacb;stroke-width:5.00250006;stroke-linecap:butt;stroke-linejoin:bevel;stroke-miterlimit:10;stroke-dasharray:7.5, 22.5;stroke-dashoffset:0;stroke-opacity:1"
               d="M 1495,1421.25 1827.9,178.832" />
            <path
               inkscape:connector-curvature="0"
               id="path3865"
               style="fill:none;stroke:#cacacb;stroke-width:5.00250006;stroke-linecap:butt;stroke-linejoin:bevel;stroke-miterlimit:10;stroke-dasharray:7.5, 22.5;stroke-dashoffset:0;stroke-opacity:1"
               d="M 1495,1421.25 1934.92,212.574" />
            <path
               inkscape:connector-curvature="0"
               id="path3867"
               style="fill:none;stroke:#cacacb;stroke-width:5.00250006;stroke-linecap:butt;stroke-linejoin:bevel;stroke-miterlimit:10;stroke-dasharray:7.5, 22.5;stroke-dashoffset:0;stroke-opacity:1"
               d="M 1495,1421.25 2038.59,255.512" />
            <path
               inkscape:connector-curvature="0"
               id="path3869"
               style="fill:none;stroke:#cacacb;stroke-width:5.00250006;stroke-linecap:butt;stroke-linejoin:bevel;stroke-miterlimit:10;stroke-dasharray:7.5, 22.5;stroke-dashoffset:0;stroke-opacity:1"
               d="M 1495,1421.25 2232.76,367.613" />
            <path
               inkscape:connector-curvature="0"
               id="path3871"
               style="fill:none;stroke:#cacacb;stroke-width:5.00250006;stroke-linecap:butt;stroke-linejoin:bevel;stroke-miterlimit:10;stroke-dasharray:7.5, 22.5;stroke-dashoffset:0;stroke-opacity:1"
               d="M 1495,1421.25 2321.79,435.922" />
            <path
               inkscape:connector-curvature="0"
               id="path3873"
               style="fill:none;stroke:#cacacb;stroke-width:5.00250006;stroke-linecap:butt;stroke-linejoin:bevel;stroke-miterlimit:10;stroke-dasharray:7.5, 22.5;stroke-dashoffset:0;stroke-opacity:1"
               d="M 1495,1421.25 2404.52,511.734" />
            <path
               inkscape:connector-curvature="0"
               id="path3875"
               style="fill:none;stroke:#cacacb;stroke-width:5.00250006;stroke-linecap:butt;stroke-linejoin:bevel;stroke-miterlimit:10;stroke-dasharray:7.5, 22.5;stroke-dashoffset:0;stroke-opacity:1"
               d="M 1495,1421.25 2548.64,683.488" />
            <path
               inkscape:connector-curvature="0"
               id="path3877"
               style="fill:none;stroke:#cacacb;stroke-width:5.00250006;stroke-linecap:butt;stroke-linejoin:bevel;stroke-miterlimit:10;stroke-dasharray:7.5, 22.5;stroke-dashoffset:0;stroke-opacity:1"
               d="M 1495,1421.25 2608.92,778.125" />
            <path
               inkscape:connector-curvature="0"
               id="path3879"
               style="fill:none;stroke:#cacacb;stroke-width:5.00250006;stroke-linecap:butt;stroke-linejoin:bevel;stroke-miterlimit:10;stroke-dasharray:7.5, 22.5;stroke-dashoffset:0;stroke-opacity:1"
               d="M 1495,1421.25 2660.74,877.656" />
            <path
               inkscape:connector-curvature="0"
               id="path3881"
               style="fill:none;stroke:#cacacb;stroke-width:5.00250006;stroke-linecap:butt;stroke-linejoin:bevel;stroke-miterlimit:10;stroke-dasharray:7.5, 22.5;stroke-dashoffset:0;stroke-opacity:1"
               d="m 1495,1421.25 1242.42,-332.9" />
            <path
               inkscape:connector-curvature="0"
               id="path3883"
               style="fill:none;stroke:#cacacb;stroke-width:5.00250006;stroke-linecap:butt;stroke-linejoin:bevel;stroke-miterlimit:10;stroke-dasharray:7.5, 22.5;stroke-dashoffset:0;stroke-opacity:1"
               d="M 1495,1421.25 2761.71,1197.89" />
            <path
               inkscape:connector-curvature="0"
               id="path3885"
               style="fill:none;stroke:#cacacb;stroke-width:5.00250006;stroke-linecap:butt;stroke-linejoin:bevel;stroke-miterlimit:10;stroke-dasharray:7.5, 22.5;stroke-dashoffset:0;stroke-opacity:1"
               d="m 1495,1421.25 1281.35,-112.1" />
            <path
               inkscape:connector-curvature="0"
               id="path3887"
               style="fill:none;stroke:#cacacb;stroke-width:5.00250006;stroke-linecap:butt;stroke-linejoin:bevel;stroke-miterlimit:10;stroke-dasharray:7.5, 22.5;stroke-dashoffset:0;stroke-opacity:1"
               d="M 1495,1421.25 H 2781.25" />
            <path
               inkscape:connector-curvature="0"
               id="path3889"
               style="fill:none;stroke:#dfe0e1;stroke-width:5.00250006;stroke-linecap:butt;stroke-linejoin:round;stroke-miterlimit:10;stroke-dasharray:none;stroke-opacity:1"
               d="M 1495,1421.25 H 2781.25" />
            <path
               inkscape:connector-curvature="0"
               id="path3891"
               style="fill:none;stroke:#dfe0e1;stroke-width:5.00250006;stroke-linecap:butt;stroke-linejoin:round;stroke-miterlimit:10;stroke-dasharray:none;stroke-opacity:1"
               d="m 1495,1421.25 1208.68,439.92" />
            <path
               inkscape:connector-curvature="0"
               id="path3893"
               style="fill:none;stroke:#dfe0e1;stroke-width:5.00250006;stroke-linecap:butt;stroke-linejoin:round;stroke-miterlimit:10;stroke-dasharray:none;stroke-opacity:1"
               d="m 1495,1421.25 985.33,826.79" />
            <path
               inkscape:connector-curvature="0"
               id="path3895"
               style="fill:none;stroke:#dfe0e1;stroke-width:5.00250006;stroke-linecap:butt;stroke-linejoin:round;stroke-miterlimit:10;stroke-dasharray:none;stroke-opacity:1"
               d="m 1495,1421.25 643.13,1113.92" />
            <path
               inkscape:connector-curvature="0"
               id="path3897"
               style="fill:none;stroke:#dfe0e1;stroke-width:5.00250006;stroke-linecap:butt;stroke-linejoin:round;stroke-miterlimit:10;stroke-dasharray:none;stroke-opacity:1"
               d="m 1495,1421.25 223.36,1266.71" />
            <path
               inkscape:connector-curvature="0"
               id="path3899"
               style="fill:none;stroke:#dfe0e1;stroke-width:5.00250006;stroke-linecap:butt;stroke-linejoin:round;stroke-miterlimit:10;stroke-dasharray:none;stroke-opacity:1"
               d="M 1495,1421.25 1271.64,2687.96" />
            <path
               inkscape:connector-curvature="0"
               id="path3901"
               style="fill:none;stroke:#dfe0e1;stroke-width:5.00250006;stroke-linecap:butt;stroke-linejoin:round;stroke-miterlimit:10;stroke-dasharray:none;stroke-opacity:1"
               d="M 1495,1421.25 851.875,2535.17" />
            <path
               inkscape:connector-curvature="0"
               id="path3903"
               style="fill:none;stroke:#dfe0e1;stroke-width:5.00250006;stroke-linecap:butt;stroke-linejoin:round;stroke-miterlimit:10;stroke-dasharray:none;stroke-opacity:1"
               d="M 1495,1421.25 509.672,2248.04" />
            <path
               inkscape:connector-curvature="0"
               id="path3905"
               style="fill:none;stroke:#dfe0e1;stroke-width:5.00250006;stroke-linecap:butt;stroke-linejoin:round;stroke-miterlimit:10;stroke-dasharray:none;stroke-opacity:1"
               d="M 1495,1421.25 286.324,1861.17" />
            <path
               inkscape:connector-curvature="0"
               id="path3907"
               style="fill:none;stroke:#dfe0e1;stroke-width:5.00250006;stroke-linecap:butt;stroke-linejoin:round;stroke-miterlimit:10;stroke-dasharray:none;stroke-opacity:1"
               d="M 1495,1421.25 H 208.75" />
            <path
               inkscape:connector-curvature="0"
               id="path3909"
               style="fill:none;stroke:#dfe0e1;stroke-width:5.00250006;stroke-linecap:butt;stroke-linejoin:round;stroke-miterlimit:10;stroke-dasharray:none;stroke-opacity:1"
               d="M 1495,1421.25 286.324,981.328" />
            <path
               inkscape:connector-curvature="0"
               id="path3911"
               style="fill:none;stroke:#dfe0e1;stroke-width:5.00250006;stroke-linecap:butt;stroke-linejoin:round;stroke-miterlimit:10;stroke-dasharray:none;stroke-opacity:1"
               d="M 1495,1421.25 509.672,594.465" />
            <path
               inkscape:connector-curvature="0"
               id="path3913"
               style="fill:none;stroke:#dfe0e1;stroke-width:5.00250006;stroke-linecap:butt;stroke-linejoin:round;stroke-miterlimit:10;stroke-dasharray:none;stroke-opacity:1"
               d="M 1495,1421.25 851.875,307.328" />
            <path
               inkscape:connector-curvature="0"
               id="path3915"
               style="fill:none;stroke:#dfe0e1;stroke-width:5.00250006;stroke-linecap:butt;stroke-linejoin:round;stroke-miterlimit:10;stroke-dasharray:none;stroke-opacity:1"
               d="M 1495,1421.25 1271.64,154.539" />
            <path
               inkscape:connector-curvature="0"
               id="path3917"
               style="fill:none;stroke:#dfe0e1;stroke-width:5.00250006;stroke-linecap:butt;stroke-linejoin:round;stroke-miterlimit:10;stroke-dasharray:none;stroke-opacity:1"
               d="M 1495,1421.25 1718.36,154.539" />
            <path
               inkscape:connector-curvature="0"
               id="path3919"
               style="fill:none;stroke:#dfe0e1;stroke-width:5.00250006;stroke-linecap:butt;stroke-linejoin:round;stroke-miterlimit:10;stroke-dasharray:none;stroke-opacity:1"
               d="M 1495,1421.25 2138.13,307.328" />
            <path
               inkscape:connector-curvature="0"
               id="path3921"
               style="fill:none;stroke:#dfe0e1;stroke-width:5.00250006;stroke-linecap:butt;stroke-linejoin:round;stroke-miterlimit:10;stroke-dasharray:none;stroke-opacity:1"
               d="M 1495,1421.25 2480.33,594.465" />
            <path
               inkscape:connector-curvature="0"
               id="path3923"
               style="fill:none;stroke:#dfe0e1;stroke-width:5.00250006;stroke-linecap:butt;stroke-linejoin:round;stroke-miterlimit:10;stroke-dasharray:none;stroke-opacity:1"
               d="M 1495,1421.25 2703.68,981.328" />
            <path
               inkscape:connector-curvature="0"
               id="path3925"
               style="fill:none;stroke:#cacacb;stroke-width:5.00250006;stroke-linecap:butt;stroke-linejoin:bevel;stroke-miterlimit:10;stroke-dasharray:7.5, 22.5;stroke-dashoffset:0;stroke-opacity:1"
               d="m 1566.46,1421.25 -0.23,-5.68 -0.67,-5.64 -1.13,-5.57 -1.55,-5.46 -2,-5.33 -2.41,-5.14 -2.8,-4.94 -3.2,-4.7 -3.55,-4.43 -3.9,-4.14 -4.21,-3.81 -4.5,-3.46 -4.76,-3.1 -5,-2.72 -5.19,-2.3 -5.36,-1.88 -5.5,-1.46 -5.59,-1.01 -5.65,-0.56 -5.68,-0.12 -5.67,0.34 -5.63,0.79 -5.54,1.24 -5.44,1.66 -5.28,2.1 -5.09,2.51 -4.88,2.91 -4.65,3.28 -4.35,3.64 -4.06,3.98 -3.73,4.29 -3.37,4.57 -3.01,4.82 -2.61,5.05 -2.2,5.23 -1.78,5.4 -1.34,5.53 -0.9,5.61 -0.45,5.66 v 5.68 l 0.45,5.66 0.9,5.61 1.34,5.53 1.78,5.4 2.2,5.23 2.61,5.05 3.01,4.82 3.37,4.57 3.73,4.29 4.06,3.98 4.35,3.64 4.65,3.28 4.88,2.91 5.09,2.51 5.28,2.1 5.44,1.66 5.54,1.24 5.63,0.79 5.67,0.34 5.68,-0.12 5.65,-0.56 5.59,-1.01 5.5,-1.46 5.36,-1.88 5.19,-2.3 5,-2.72 4.76,-3.1 4.5,-3.46 4.21,-3.81 3.9,-4.14 3.55,-4.43 3.2,-4.7 2.8,-4.94 2.41,-5.14 2,-5.33 1.55,-5.46 1.13,-5.57 0.67,-5.64 0.23,-5.68" />
            <path
               inkscape:connector-curvature="0"
               id="path3927"
               style="fill:none;stroke:#cacacb;stroke-width:5.00250006;stroke-linecap:butt;stroke-linejoin:bevel;stroke-miterlimit:10;stroke-dasharray:7.5, 22.5;stroke-dashoffset:0;stroke-opacity:1"
               d="m 1637.92,1421.25 -0.46,-11.36 -1.35,-11.28 -2.24,-11.14 -3.13,-10.93 -3.97,-10.64 -4.82,-10.29 -5.61,-9.88 -6.39,-9.4 -7.11,-8.87 -7.79,-8.27 -8.43,-7.62 -9,-6.94 -9.53,-6.19 -9.98,-5.42 -10.39,-4.61 -10.73,-3.77 -10.98,-2.91 -11.18,-2.01 -11.31,-1.13 -11.36,-0.23 -11.34,0.68 -11.26,1.58 -11.09,2.46 -10.86,3.34 -10.57,4.19 -10.19,5.02 -9.77,5.82 -9.27,6.56 -8.72,7.29 -8.11,7.95 -7.46,8.58 -6.76,9.13 -6,9.65 -5.22,10.1 -4.4,10.48 -3.55,10.79 -2.69,11.04 -1.8,11.22 -0.9,11.33 v 11.36 l 0.9,11.33 1.8,11.22 2.69,11.04 3.55,10.79 4.4,10.48 5.22,10.1 6,9.65 6.76,9.13 7.46,8.58 8.11,7.95 8.72,7.29 9.27,6.56 9.77,5.82 10.19,5.02 10.57,4.19 10.86,3.34 11.09,2.46 11.26,1.58 11.34,0.68 11.36,-0.23 11.31,-1.13 11.18,-2.01 10.98,-2.91 10.73,-3.77 10.39,-4.61 9.98,-5.42 9.53,-6.19 9,-6.94 8.43,-7.62 7.79,-8.27 7.11,-8.87 6.39,-9.4 5.61,-9.88 4.82,-10.29 3.97,-10.64 3.13,-10.93 2.24,-11.14 1.35,-11.28 0.46,-11.36" />
            <path
               inkscape:connector-curvature="0"
               id="path3929"
               style="fill:none;stroke:#cacacb;stroke-width:5.00250006;stroke-linecap:butt;stroke-linejoin:bevel;stroke-miterlimit:10;stroke-dasharray:7.5, 22.5;stroke-dashoffset:0;stroke-opacity:1"
               d="m 1709.37,1421.25 -0.67,-17.03 -2.04,-16.93 -3.36,-16.71 -4.68,-16.39 -5.97,-15.96 -7.22,-15.44 -8.43,-14.82 -9.57,-14.1 -10.67,-13.3 -11.69,-12.4 -12.63,-11.45 -13.51,-10.39 -14.29,-9.29 -14.98,-8.13 -15.59,-6.92 -16.08,-5.65 -16.47,-4.36 -16.77,-3.03 -16.97,-1.7 -17.04,-0.34 -17.02,1.02 -16.88,2.37 -16.63,3.7 -16.3,5 -15.84,6.29 -15.3,7.53 -14.64,8.72 -13.92,9.85 -13.07,10.93 -12.18,11.93 -11.19,12.86 -10.12,13.71 -9.01,14.48 -7.83,15.14 -6.6,15.71 -5.33,16.19 -4.03,16.57 -2.7,16.82 -1.36,17 v 17.04 l 1.36,17 2.7,16.82 4.03,16.57 5.33,16.19 6.6,15.71 7.83,15.14 9.01,14.48 10.12,13.71 11.19,12.86 12.18,11.93 13.07,10.93 13.92,9.85 14.64,8.72 15.3,7.53 15.84,6.29 16.3,5 16.63,3.7 16.88,2.37 17.02,1.02 17.04,-0.34 16.97,-1.7 16.77,-3.03 16.47,-4.36 16.08,-5.65 15.59,-6.92 14.98,-8.13 14.29,-9.29 13.51,-10.39 12.63,-11.45 11.69,-12.4 10.67,-13.3 9.57,-14.1 8.43,-14.82 7.22,-15.44 5.97,-15.96 4.68,-16.39 3.36,-16.71 2.04,-16.93 0.67,-17.03" />
            <path
               inkscape:connector-curvature="0"
               id="path3931"
               style="fill:none;stroke:#cacacb;stroke-width:5.00250006;stroke-linecap:butt;stroke-linejoin:bevel;stroke-miterlimit:10;stroke-dasharray:7.5, 22.5;stroke-dashoffset:0;stroke-opacity:1"
               d="m 1780.83,1421.25 -0.9,-22.71 -2.7,-22.57 -4.5,-22.27 -6.24,-21.86 -7.96,-21.28 -9.63,-20.59 -11.23,-19.76 -12.77,-18.8 -14.22,-17.73 -15.59,-16.54 -16.84,-15.26 -18.01,-13.86 -19.06,-12.39 -19.97,-10.84 -20.78,-9.22 -21.44,-7.54 -21.97,-5.8 -22.37,-4.05 -22.61,-2.25 -22.72,-0.46 -22.69,1.36 -22.51,3.15 -22.19,4.93 -21.72,6.68 -21.12,8.38 -20.39,10.04 -19.54,11.62 -18.54,13.14 -17.44,14.57 -16.23,15.91 -14.92,17.16 -13.5,18.27 -12.01,19.3 -10.44,20.18 -8.8,20.96 -7.11,21.59 -5.37,22.08 -3.6,22.44 -1.81,22.66 v 22.72 l 1.81,22.66 3.6,22.44 5.37,22.08 7.11,21.59 8.8,20.96 10.44,20.18 12.01,19.3 13.5,18.27 14.92,17.16 16.23,15.91 17.44,14.57 18.54,13.14 19.54,11.62 20.39,10.04 21.12,8.38 21.72,6.68 22.19,4.93 22.51,3.15 22.69,1.36 22.72,-0.46 22.61,-2.25 22.37,-4.05 21.97,-5.8 21.44,-7.54 20.78,-9.22 19.97,-10.83 19.06,-12.4 18.01,-13.86 16.84,-15.26 15.59,-16.54 14.22,-17.73 12.77,-18.8 11.23,-19.76 9.63,-20.59 7.96,-21.28 6.24,-21.86 4.5,-22.27 2.7,-22.57 0.9,-22.71" />
            <path
               inkscape:connector-curvature="0"
               id="path3933"
               style="fill:none;stroke:#cacacb;stroke-width:5.00250006;stroke-linecap:butt;stroke-linejoin:bevel;stroke-miterlimit:10;stroke-dasharray:7.5, 22.5;stroke-dashoffset:0;stroke-opacity:1"
               d="m 1923.75,1421.25 -1.36,-34.07 -4.05,-33.84 -6.74,-33.42 -9.37,-32.78 -11.93,-31.93 -14.45,-30.89 -16.85,-29.63 -19.15,-28.2 -21.33,-26.6 -23.38,-24.81 -25.27,-22.88 -27.01,-20.79 -28.58,-18.6 -29.96,-16.25 -31.17,-13.82 -32.17,-11.31 -32.95,-8.72 -33.55,-6.065 -33.92,-3.383 -34.09,-0.676 -34.02,2.035 -33.77,4.723 -33.28,7.406 -32.58,10.01 -31.69,12.58 -30.59,15.05 -29.29,17.44 -27.82,19.7 -26.16,21.86 -24.34,23.86 -22.38,25.73 -20.25,27.41 -18.02,28.95 -15.66,30.28 -13.2,31.43 -10.67,32.38 -8.05,33.13 -5.4,33.66 -2.71,33.98 v 34.1 l 2.71,33.98 5.4,33.66 8.05,33.13 10.67,32.38 13.2,31.43 15.66,30.28 18.02,28.95 20.25,27.41 22.38,25.73 24.34,23.86 26.16,21.86 27.82,19.7 29.29,17.44 30.59,15.05 31.69,12.58 32.58,10.01 33.28,7.41 33.77,4.72 34.02,2.03 34.09,-0.67 33.92,-3.38 33.55,-6.07 32.95,-8.72 32.17,-11.31 31.17,-13.82 29.96,-16.25 28.58,-18.6 27.01,-20.79 25.27,-22.88 23.38,-24.81 21.33,-26.6 19.15,-28.2 16.85,-29.63 14.45,-30.89 11.93,-31.93 9.37,-32.78 6.74,-33.42 4.05,-33.84 1.36,-34.07" />
            <path
               inkscape:connector-curvature="0"
               id="path3935"
               style="fill:none;stroke:#cacacb;stroke-width:5.00250006;stroke-linecap:butt;stroke-linejoin:bevel;stroke-miterlimit:10;stroke-dasharray:7.5, 22.5;stroke-dashoffset:0;stroke-opacity:1"
               d="m 1995.21,1421.25 -1.58,-39.74 -4.74,-39.49 -7.85,-38.99 -10.93,-38.24 -13.93,-37.26 -16.85,-36.03 -19.67,-34.57 -22.34,-32.91 -24.88,-31.02 -27.27,-28.95 -29.49,-26.69 -31.51,-24.27 -33.35,-21.68 -34.95,-18.969 -36.36,-16.125 -37.53,-13.191 -38.45,-10.168 -39.13,-7.074 -39.58,-3.953 -39.77,-0.789 -39.7,2.371 -39.38,5.519 -38.83,8.625 -38.02,11.696 -36.96,14.668 -35.69,17.558 -34.18,20.342 -32.46,22.99 -30.52,25.5 -28.4,27.84 -26.1,30.02 -23.64,31.98 -21.01,33.77 -18.27,35.33 -15.4,36.67 -12.44,37.78 -9.4,38.65 -6.298,39.26 -3.168,39.65 v 39.78 l 3.168,39.65 6.298,39.26 9.4,38.65 12.44,37.78 15.4,36.67 18.27,35.33 21.01,33.77 23.64,31.98 26.1,30.02 28.4,27.84 30.52,25.5 32.46,22.99 34.18,20.34 35.69,17.56 36.96,14.67 38.02,11.69 38.83,8.63 39.38,5.52 39.7,2.37 39.77,-0.79 39.58,-3.95 39.13,-7.07 38.45,-10.17 37.53,-13.2 36.36,-16.12 34.95,-18.97 33.35,-21.68 31.51,-24.27 29.49,-26.69 27.27,-28.95 24.88,-31.02 22.34,-32.91 19.67,-34.57 16.85,-36.03 13.93,-37.26 10.93,-38.24 7.85,-38.99 4.74,-39.49 1.58,-39.74" />
            <path
               inkscape:connector-curvature="0"
               id="path3937"
               style="fill:none;stroke:#cacacb;stroke-width:5.00250006;stroke-linecap:butt;stroke-linejoin:bevel;stroke-miterlimit:10;stroke-dasharray:7.5, 22.5;stroke-dashoffset:0;stroke-opacity:1"
               d="m 2066.66,1421.25 -1.8,-45.42 -5.41,-45.13 -8.98,-44.56 -12.49,-43.71 -15.93,-42.57 -19.25,-41.18 -22.47,-39.51 -25.53,-37.6 -28.44,-35.46 -31.17,-33.09 -33.69,-30.504 -36.03,-27.727 -38.1,-24.781 -39.95,-21.684 -41.55,-18.426 -42.89,-15.074 -43.94,-11.617 -44.73,-8.094 -45.23,-4.515 -45.44,-0.899 -45.38,2.707 -45.01,6.305 -44.38,9.863 -43.45,13.36 -42.24,16.769 -40.79,20.07 -39.06,23.243 -37.09,26.281 -34.89,29.137 -32.46,31.816 -29.82,34.3 -27.01,36.56 -24.025,38.59 -20.871,40.38 -17.605,41.91 -14.219,43.17 -10.738,44.17 -7.204,44.88 -3.613,45.31 v 45.46 l 3.613,45.31 7.204,44.88 10.738,44.17 14.219,43.17 17.605,41.91 20.871,40.38 24.025,38.59 27.01,36.56 29.82,34.3 32.46,31.82 34.89,29.13 37.09,26.28 39.06,23.25 40.79,20.07 42.24,16.77 43.45,13.36 44.38,9.86 45.01,6.3 45.38,2.71 45.44,-0.9 45.23,-4.51 44.73,-8.09 43.94,-11.62 42.89,-15.08 41.55,-18.42 39.95,-21.69 38.1,-24.78 36.03,-27.73 33.69,-30.5 31.17,-33.09 28.44,-35.46 25.53,-37.6 22.47,-39.51 19.25,-41.18 15.93,-42.57 12.49,-43.71 8.98,-44.56 5.41,-45.13 1.8,-45.42" />
            <path
               inkscape:connector-curvature="0"
               id="path3939"
               style="fill:none;stroke:#cacacb;stroke-width:5.00250006;stroke-linecap:butt;stroke-linejoin:bevel;stroke-miterlimit:10;stroke-dasharray:7.5, 22.5;stroke-dashoffset:0;stroke-opacity:1"
               d="m 2138.13,1421.25 -2.04,-51.1 -6.09,-50.77 -10.09,-50.13 -14.06,-49.16 -17.91,-47.9 -21.67,-46.33 -25.27,-44.45 -28.73,-42.31 -31.99,-39.881 -35.06,-37.223 -37.92,-34.32 -40.52,-31.199 -42.86,-27.879 -44.95,-24.383 -46.74,-20.738 -48.25,-16.957 -49.43,-13.071 -50.32,-9.105 -50.89,-5.078 -51.13,-1.012 -51.04,3.043 -50.64,7.094 -49.92,11.101 -48.88,15.024 -47.53,18.863 -45.88,22.582 -43.94,26.152 -41.74,29.563 -39.24,32.785 -36.52,35.797 -33.556,38.582 -30.383,41.14 -27.019,43.41 -23.492,45.42 -19.801,47.15 -15.996,48.57 -12.09,49.68 -8.102,50.5 -4.054,50.97 v 51.14 l 4.054,50.98 8.102,50.49 12.09,49.68 15.996,48.57 19.801,47.15 23.492,45.42 27.019,43.41 30.383,41.14 33.556,38.58 36.52,35.8 39.24,32.78 41.74,29.57 43.94,26.15 45.88,22.58 47.53,18.86 48.88,15.03 49.92,11.1 50.64,7.09 51.04,3.05 51.13,-1.02 50.89,-5.07 50.32,-9.11 49.43,-13.07 48.25,-16.96 46.74,-20.73 44.95,-24.39 42.86,-27.88 40.52,-31.2 37.92,-34.32 35.06,-37.22 31.99,-39.88 28.73,-42.31 25.27,-44.45 21.67,-46.33 17.91,-47.9 14.06,-49.16 10.09,-50.13 6.09,-50.77 2.04,-51.1" />
            <path
               inkscape:connector-curvature="0"
               id="path3941"
               style="fill:none;stroke:#cacacb;stroke-width:5.00250006;stroke-linecap:butt;stroke-linejoin:bevel;stroke-miterlimit:10;stroke-dasharray:7.5, 22.5;stroke-dashoffset:0;stroke-opacity:1"
               d="m 2281.05,1421.25 -2.5,-62.45 -7.44,-62.06 -12.34,-61.26 -17.18,-60.1 -21.89,-58.54 -26.47,-56.62 -30.89,-54.33 -35.11,-51.71 -39.11,-48.75 -42.86,-45.496 -46.33,-41.938 -49.53,-38.133 -52.39,-34.078 -54.94,-29.805 -57.13,-25.343 -58.96,-20.731 -60.42,-15.972 -61.51,-11.125 -62.19,-6.2 -62.49,-1.246 -62.39,3.727 -61.89,8.672 -61.02,13.558 -59.74,18.368 -58.09,23.054 -56.08,27.602 -53.7,31.965 -51,36.125 -47.972,40.066 -44.633,43.754 -41.011,47.16 -37.137,50.274 -33.031,53.062 -28.703,55.52 -24.203,57.62 -19.551,59.37 -14.778,60.72 -9.898,61.72 -4.965,62.3 v 62.5 l 4.965,62.3 9.898,61.72 14.778,60.72 19.551,59.37 24.203,57.62 28.703,55.52 33.031,53.06 37.137,50.28 41.011,47.16 44.633,43.75 47.972,40.07 51,36.12 53.7,31.97 56.08,27.6 58.09,23.05 59.74,18.37 61.02,13.56 61.89,8.67 62.39,3.73 62.49,-1.25 62.19,-6.2 61.51,-11.12 60.42,-15.98 58.96,-20.73 57.13,-25.34 54.94,-29.81 52.39,-34.07 49.53,-38.14 46.33,-41.93 42.86,-45.5 39.11,-48.75 35.11,-51.71 30.89,-54.33 26.47,-56.62 21.89,-58.54 17.18,-60.1 12.34,-61.26 7.44,-62.06 2.5,-62.45" />
            <path
               inkscape:connector-curvature="0"
               id="path3943"
               style="fill:none;stroke:#cacacb;stroke-width:5.00250006;stroke-linecap:butt;stroke-linejoin:bevel;stroke-miterlimit:10;stroke-dasharray:7.5, 22.5;stroke-dashoffset:0;stroke-opacity:1"
               d="m 2352.5,1421.25 -2.71,-68.13 -8.11,-67.69 -13.47,-66.84 -18.74,-65.56 -23.89,-63.87 -28.88,-61.76 -33.7,-59.271 -38.3,-56.406 -42.66,-53.184 -46.75,-49.633 -50.56,-45.758 -54.02,-41.597 -57.16,-37.168 -59.93,-32.512 -62.32,-27.652 -64.32,-22.614 -65.92,-17.421 -67.1,-12.145 -67.84,-6.766 -68.17,-1.355 -68.06,4.066 -67.52,9.457 -66.56,14.797 -65.17,20.032 -63.38,25.156 -61.17,30.105 -58.59,34.867 -55.641,39.418 -52.328,43.711 -48.687,47.731 -44.746,51.449 -40.508,54.84 -36.031,57.887 -31.321,60.566 -26.398,62.86 -21.328,64.76 -16.117,66.25 -10.801,67.32 -5.418,67.97 v 68.18 l 5.418,67.97 10.801,67.32 16.117,66.25 21.328,64.76 26.398,62.86 31.321,60.57 36.031,57.88 40.508,54.84 44.746,51.45 48.687,47.73 52.328,43.71 55.641,39.42 58.59,34.87 61.17,30.1 63.38,25.16 65.17,20.03 66.56,14.8 67.52,9.46 68.06,4.06 68.17,-1.35 67.84,-6.77 67.1,-12.14 65.92,-17.43 64.32,-22.61 62.32,-27.65 59.93,-32.51 57.16,-37.17 54.02,-41.6 50.56,-45.76 46.75,-49.63 42.66,-53.18 38.3,-56.41 33.7,-59.27 28.88,-61.76 23.89,-63.87 18.74,-65.56 13.47,-66.84 8.11,-67.69 2.71,-68.13" />
            <path
               inkscape:connector-curvature="0"
               id="path3945"
               style="fill:none;stroke:#cacacb;stroke-width:5.00250006;stroke-linecap:butt;stroke-linejoin:bevel;stroke-miterlimit:10;stroke-dasharray:7.5, 22.5;stroke-dashoffset:0;stroke-opacity:1"
               d="m 2423.96,1421.25 -2.94,-73.81 -8.79,-73.33 -14.59,-72.41 -20.3,-71.02 -25.87,-69.19 -31.29,-66.908 -36.51,-64.215 -41.49,-61.101 -46.22,-57.621 -50.65,-53.762 -54.76,-49.574 -58.53,-45.063 -61.92,-40.273 -64.92,-35.219 -67.52,-29.957 -69.68,-24.496 -71.42,-18.875 -72.68,-13.149 -73.5,-7.336 -73.85,-1.468 -73.73,4.402 -73.15,10.254 -72.11,16.027 -70.6,21.703 -68.66,27.25 -66.27,32.61 -63.471,37.777 -60.277,42.695 -56.684,47.356 -52.75,51.715 -48.469,55.73 -43.89,59.406 -39.031,62.715 -33.922,65.617 -28.606,68.09 -23.109,70.16 -17.457,71.77 -11.703,72.93 -5.864,73.64 v 73.86 l 5.864,73.64 11.703,72.93 17.457,71.77 23.109,70.16 28.606,68.09 33.922,65.62 39.031,62.71 43.89,59.41 48.469,55.73 52.75,51.71 56.684,47.36 60.277,42.69 63.471,37.78 66.27,32.61 68.66,27.25 70.6,21.7 72.11,16.03 73.15,10.26 73.73,4.4 73.85,-1.47 73.5,-7.34 72.68,-13.15 71.42,-18.87 69.68,-24.5 67.52,-29.95 64.92,-35.22 61.92,-40.28 58.53,-45.06 54.76,-49.57 50.65,-53.76 46.22,-57.63 41.49,-61.1 36.51,-64.21 31.29,-66.91 25.87,-69.19 20.3,-71.02 14.59,-72.41 8.79,-73.33 2.94,-73.81" />
            <path
               inkscape:connector-curvature="0"
               id="path3947"
               style="fill:none;stroke:#cacacb;stroke-width:5.00250006;stroke-linecap:butt;stroke-linejoin:bevel;stroke-miterlimit:10;stroke-dasharray:7.5, 22.5;stroke-dashoffset:0;stroke-opacity:1"
               d="m 2495.42,1421.25 -3.17,-79.48 -9.46,-78.99 -15.72,-77.98 -21.86,-76.48 -27.86,-74.5 -33.7,-72.058 -39.31,-69.149 -44.69,-65.812 -49.77,-62.047 -54.54,-57.902 -58.98,-53.383 -63.03,-48.535 -66.68,-43.364 -69.92,-37.933 -72.71,-32.258 -75.05,-26.379 -76.9,-20.332 -78.27,-14.16 -79.16,-7.899 -79.53,-1.582 -79.4,4.746 -78.78,11.036 -77.65,17.265 -76.03,23.367 -73.95,29.34 -71.37,35.125 -68.352,40.688 -64.906,45.98 -61.051,51 -56.805,55.68 -52.199,60.031 -47.265,63.977 -42.036,67.535 -36.535,70.656 -30.808,73.337 -24.879,75.55 -18.801,77.3 -12.602,78.54 -6.312,79.3 v 79.54 l 6.312,79.3 12.602,78.54 18.801,77.3 24.879,75.55 30.808,73.34 36.535,70.65 42.036,67.54 47.265,63.98 52.199,60.03 56.805,55.68 61.051,51 64.906,45.98 68.352,40.68 71.37,35.13 73.95,29.34 76.03,23.37 77.65,17.26 78.78,11.04 79.4,4.74 79.53,-1.58 79.16,-7.9 78.27,-14.16 76.9,-20.33 75.05,-26.38 72.71,-32.26 69.92,-37.93 66.68,-43.36 63.03,-48.54 58.98,-53.38 54.54,-57.9 49.77,-62.05 44.69,-65.81 39.31,-69.15 33.7,-72.06 27.86,-74.5 21.86,-76.48 15.72,-77.98 9.46,-78.99 3.17,-79.48" />
            <path
               inkscape:connector-curvature="0"
               id="path3949"
               style="fill:none;stroke:#cacacb;stroke-width:5.00250006;stroke-linecap:butt;stroke-linejoin:bevel;stroke-miterlimit:10;stroke-dasharray:7.5, 22.5;stroke-dashoffset:0;stroke-opacity:1"
               d="m 2638.33,1421.25 -3.61,-90.84 -10.82,-90.26 -17.95,-89.12 -24.99,-87.41 -31.84,-85.147 -38.51,-82.352 -44.94,-79.035 -51.06,-75.207 -56.89,-70.914 -62.33,-66.172 -67.41,-61.004 -72.03,-55.465 -76.21,-49.566 -79.91,-43.352 -83.1,-36.867 -85.76,-30.144 -87.89,-23.243 -89.46,-16.175 -90.46,-9.024 -90.89,-1.808 -90.75,5.414 -90.03,12.617 -88.74,19.722 -86.91,26.715 -84.49,33.535 -81.569,40.141 -78.121,46.492 -74.183,52.559 -69.766,58.281 -64.918,63.641 -59.656,68.593 -54.024,73.125 -48.035,77.176 -41.754,80.758 -35.211,83.816 -28.433,86.34 -21.489,88.34 -14.398,89.76 -7.223,90.62 v 90.92 l 7.223,90.62 14.398,89.76 21.489,88.34 28.433,86.34 35.211,83.82 41.754,80.75 48.035,77.18 54.024,73.12 59.656,68.6 64.918,63.64 69.766,58.28 74.183,52.56 78.121,46.49 81.569,40.14 84.49,33.54 86.91,26.71 88.74,19.72 90.03,12.62 90.75,5.42 90.89,-1.81 90.46,-9.03 89.46,-16.17 87.89,-23.24 85.76,-30.15 83.1,-36.87 79.91,-43.35 76.21,-49.56 72.03,-55.47 67.41,-61 62.33,-66.17 56.89,-70.92 51.06,-75.21 44.94,-79.03 38.51,-82.35 31.84,-85.15 24.99,-87.41 17.95,-89.12 10.82,-90.26 3.61,-90.84" />
            <path
               inkscape:connector-curvature="0"
               id="path3951"
               style="fill:none;stroke:#cacacb;stroke-width:5.00250006;stroke-linecap:butt;stroke-linejoin:bevel;stroke-miterlimit:10;stroke-dasharray:7.5, 22.5;stroke-dashoffset:0;stroke-opacity:1"
               d="m 2709.79,1421.25 -3.84,-96.52 -11.5,-95.9 -19.08,-94.69 -26.54,-92.87 -33.83,-90.473 -40.92,-87.496 -47.74,-83.969 -54.26,-79.91 -60.44,-75.348 -66.24,-70.312 -71.61,-64.821 -76.53,-58.929 -80.97,-52.657 -84.9,-46.066 -88.3,-39.172 -91.12,-32.023 -93.38,-24.692 -95.06,-17.195 -96.11,-9.586 -96.57,-1.922 -96.42,5.762 -95.66,13.394 -94.29,20.961 -92.33,28.383 -89.78,35.633 -86.663,42.645 -83.004,49.402 -78.816,55.836 -74.129,61.93 -68.977,67.617 -63.39,72.886 -57.391,77.684 -51.047,82.004 -44.359,85.801 -37.41,89.054 -30.211,91.749 -22.832,93.86 -15.297,95.36 -7.672,96.3 v 96.58 l 7.672,96.3 15.297,95.37 22.832,93.85 30.211,91.75 37.41,89.05 44.359,85.8 51.047,82.01 57.391,77.68 63.39,72.89 68.977,67.62 74.129,61.93 78.816,55.83 83.004,49.4 86.663,42.65 89.78,35.63 92.33,28.38 94.29,20.96 95.66,13.4 96.42,5.76 96.57,-1.92 96.11,-9.58 95.06,-17.2 93.38,-24.69 91.12,-32.03 88.3,-39.17 84.9,-46.07 80.97,-52.65 76.53,-58.93 71.61,-64.82 66.24,-70.31 60.44,-75.35 54.26,-79.91 47.74,-83.97 40.92,-87.5 33.83,-90.47 26.54,-92.87 19.08,-94.69 11.5,-95.9 3.84,-96.52" />
            <path
               inkscape:connector-curvature="0"
               id="path3953"
               style="fill:none;stroke:#cacacb;stroke-width:5.00250006;stroke-linecap:butt;stroke-linejoin:bevel;stroke-miterlimit:10;stroke-dasharray:7.5, 22.5;stroke-dashoffset:0;stroke-opacity:1"
               d="m 2781.25,1421.25 -4.07,-102.2 -12.17,-101.54 -20.2,-100.26 -28.1,-98.34 -35.83,-95.789 -43.33,-92.644 -50.54,-88.907 -57.46,-84.609 -63.99,-79.785 -70.13,-74.438 -75.82,-68.636 -81.04,-62.395 -85.74,-55.762 -89.89,-48.765 -93.49,-41.473 -96.49,-33.926 -98.87,-26.136 -100.64,-18.204 -101.77,-10.152 -102.25,-2.035 -102.09,6.098 -101.29,14.191 -99.84,22.191 -97.76,30.055 -95.059,37.723 -91.762,45.16 -87.887,52.305 -83.453,59.121 -78.488,65.566 -73.031,71.594 -67.122,77.176 -60.769,82.257 -54.039,86.829 -46.981,90.847 -39.605,94.297 -31.988,97.136 -24.172,99.38 -16.203,100.98 -8.121,101.95 v 102.28 l 8.121,101.95 16.203,100.98 24.172,99.38 31.988,97.14 39.605,94.29 46.981,90.85 54.039,86.83 60.769,82.26 67.122,77.17 73.031,71.6 78.488,65.56 83.453,59.12 87.887,52.31 91.762,45.16 95.059,37.72 97.76,30.06 99.84,22.19 101.29,14.19 102.09,6.1 102.25,-2.04 101.77,-10.15 100.64,-18.2 98.87,-26.14 96.49,-33.92 93.49,-41.48 89.89,-48.77 85.74,-55.76 81.04,-62.39 75.82,-68.64 70.13,-74.44 63.99,-79.78 57.46,-84.61 50.54,-88.91 43.33,-92.64 35.83,-95.79 28.1,-98.34 20.2,-100.26 12.17,-101.54 4.07,-102.2" />
            <path
               inkscape:connector-curvature="0"
               id="path3955"
               style="fill:none;stroke:#dfe0e1;stroke-width:5.00250006;stroke-linecap:butt;stroke-linejoin:round;stroke-miterlimit:10;stroke-dasharray:none;stroke-opacity:1"
               d="m 1495,1421.25 v 0 0 0 0 0 0 0 0 0 0 0 0 0 0 0 0 0 0 0 0 0 0 0 0 0 0 0 0 0 0 0 0 0 0 0 0 0 0 0 0 0 0 0 0 0 0 0 0 0 0 0 0 0 0 0 0 0 0 0 0 0 0 0 0 0 0 0 0 0 0 0 0 0 0 0 0 0 0 0" />
            <path
               inkscape:connector-curvature="0"
               id="path3957"
               style="fill:none;stroke:#dfe0e1;stroke-width:5.00250006;stroke-linecap:butt;stroke-linejoin:round;stroke-miterlimit:10;stroke-dasharray:none;stroke-opacity:1"
               d="m 1852.29,1421.25 -1.13,-28.39 -3.38,-28.2 -5.61,-27.85 -7.81,-27.32 -9.95,-26.61 -12.03,-25.73 -14.04,-24.7 -15.96,-23.5 -17.78,-22.16 -19.48,-20.68 -21.06,-19.07 -22.51,-17.33 -23.82,-15.49 -24.97,-13.54 -25.97,-11.53 -26.8,-9.42 -27.46,-7.26 -27.96,-5.06 -28.27,-2.82 -28.4,-0.56 -28.36,1.69 -28.14,3.94 -27.73,6.17 -27.15,8.35 -26.41,10.48 -25.49,12.54 -24.41,14.53 -23.18,16.43 -21.8,18.2 -20.29,19.89 -18.65,21.44 -16.88,22.85 -15.01,24.12 -13.05,25.23 -11,26.2 -8.89,26.98 -6.71,27.61 -4.5,28.05 -2.26,28.32 v 28.4 l 2.26,28.32 4.5,28.05 6.71,27.61 8.89,26.98 11,26.2 13.05,25.23 15.01,24.12 16.88,22.85 18.65,21.44 20.29,19.89 21.8,18.2 23.18,16.43 24.41,14.53 25.49,12.54 26.41,10.48 27.15,8.35 27.73,6.17 28.14,3.94 28.36,1.69 28.4,-0.56 28.27,-2.82 27.96,-5.06 27.46,-7.26 26.8,-9.42 25.97,-11.53 24.97,-13.54 23.82,-15.49 22.51,-17.33 21.06,-19.07 19.48,-20.68 17.78,-22.16 15.96,-23.5 14.04,-24.7 12.03,-25.73 9.95,-26.61 7.81,-27.32 5.61,-27.85 3.38,-28.2 1.13,-28.39" />
            <path
               inkscape:connector-curvature="0"
               id="path3959"
               style="fill:none;stroke:#dfe0e1;stroke-width:5.00250006;stroke-linecap:butt;stroke-linejoin:round;stroke-miterlimit:10;stroke-dasharray:none;stroke-opacity:1"
               d="m 2209.59,1421.25 -2.26,-56.77 -6.77,-56.42 -11.22,-55.7 -15.61,-54.63 -19.91,-53.21 -24.07,-51.48 -28.08,-49.39 -31.92,-47.005 -35.55,-44.325 -38.97,-41.355 -42.12,-38.129 -45.02,-34.664 -47.63,-30.977 -49.94,-27.097 -51.93,-23.039 -53.61,-18.84 -54.93,-14.528 -55.91,-10.109 -56.54,-5.641 -56.8,-1.132 -56.73,3.39 -56.26,7.879 -55.47,12.332 -54.31,16.695 -52.82,20.954 -50.97,25.089 -48.83,29.063 -46.36,32.84 -43.61,36.429 -40.573,39.774 -37.281,42.875 -33.766,45.701 -30.023,48.24 -26.094,50.47 -22.004,52.38 -17.773,53.97 -13.434,55.21 -9,56.1 -4.508,56.64 v 56.82 l 4.508,56.64 9,56.1 13.434,55.21 17.773,53.97 22.004,52.38 26.094,50.47 30.023,48.24 33.766,45.7 37.281,42.88 40.573,39.77 43.61,36.43 46.36,32.84 48.83,29.06 50.97,25.09 52.82,20.95 54.31,16.7 55.47,12.33 56.26,7.88 56.73,3.39 56.8,-1.13 56.54,-5.64 55.91,-10.11 54.93,-14.53 53.61,-18.84 51.93,-23.04 49.94,-27.1 47.63,-30.97 45.02,-34.67 42.12,-38.12 38.97,-41.36 35.55,-44.32 31.92,-47.01 28.08,-49.39 24.07,-51.48 19.91,-53.21 15.61,-54.63 11.22,-55.7 6.77,-56.42 2.26,-56.77" />
            <path
               inkscape:connector-curvature="0"
               id="path3961"
               style="fill:none;stroke:#dfe0e1;stroke-width:5.00250006;stroke-linecap:butt;stroke-linejoin:round;stroke-miterlimit:10;stroke-dasharray:none;stroke-opacity:1"
               d="m 2566.88,1421.25 -3.39,-85.16 -10.15,-84.63 -16.83,-83.55 -23.42,-81.94 -29.86,-79.83 -36.1,-77.199 -42.13,-74.089 -47.87,-70.508 -53.33,-66.489 -58.44,-62.031 -63.19,-57.195 -67.53,-52 -71.44,-46.461 -74.92,-40.645 -77.9,-34.566 -80.41,-28.258 -82.4,-21.789 -83.86,-15.172 -84.81,-8.453 -85.21,-1.695 -85.08,5.078 -84.4,11.828 -83.2,18.488 -81.46,25.047 -79.22,31.434 -76.471,37.637 -73.238,43.589 -69.547,49.266 -65.406,54.637 -60.863,59.664 -55.926,64.312 -50.649,68.551 -45.031,72.359 -39.148,75.704 -33.008,78.576 -26.656,80.95 -20.145,82.81 -13.5,84.16 -6.773,84.96 v 85.22 l 6.773,84.96 13.5,84.16 20.145,82.81 26.656,80.95 33.008,78.58 39.148,75.7 45.031,72.36 50.649,68.55 55.926,64.31 60.863,59.67 65.406,54.63 69.547,49.27 73.238,43.59 76.471,37.64 79.22,31.43 81.46,25.05 83.2,18.48 84.4,11.83 85.08,5.08 85.21,-1.7 84.81,-8.45 83.86,-15.17 82.4,-21.79 80.41,-28.26 77.9,-34.56 74.92,-40.65 71.44,-46.46 67.53,-52 63.19,-57.19 58.44,-62.04 53.33,-66.48 47.87,-70.51 42.13,-74.09 36.1,-77.2 29.86,-79.83 23.42,-81.94 16.83,-83.55 10.15,-84.63 3.39,-85.16" />
            <path
               inkscape:connector-curvature="0"
               id="path3963"
               style="fill:none;stroke:#dfe0e1;stroke-width:5.00250006;stroke-linecap:square;stroke-linejoin:round;stroke-miterlimit:10;stroke-dasharray:none;stroke-opacity:1"
               d="m 2781.25,1421.25 -4.07,102.2 -12.17,101.54 -20.2,100.26 -28.1,98.34 -35.83,95.79 -43.33,92.64 -50.54,88.91 -57.46,84.61 -63.99,79.78 -70.13,74.44 -75.82,68.64 -81.04,62.39 -85.74,55.76 -89.89,48.77 -93.49,41.48 -96.49,33.92 -98.87,26.14 -100.64,18.2 -101.77,10.15 -102.25,2.04 -102.09,-6.1 -101.29,-14.19 -99.84,-22.19 -97.76,-30.06 -95.059,-37.72 -91.762,-45.16 -87.887,-52.31 -83.453,-59.12 -78.488,-65.56 -73.031,-71.6 -67.122,-77.17 -60.769,-82.26 -54.039,-86.83 -46.981,-90.85 -39.605,-94.29 -31.988,-97.14 -24.172,-99.38 -16.203,-100.98 -8.121,-101.95 v -102.28 l 8.121,-101.95 16.203,-100.98 24.172,-99.38 31.988,-97.136 39.605,-94.297 46.981,-90.847 54.039,-86.829 60.769,-82.257 67.122,-77.176 73.031,-71.594 78.488,-65.566 83.453,-59.121 87.887,-52.305 91.762,-45.16 95.059,-37.723 97.76,-30.055 99.84,-22.191 101.29,-14.191 102.09,-6.098 102.25,2.035 101.77,10.152 100.64,18.204 98.87,26.136 96.49,33.926 93.49,41.473 89.89,48.765 85.74,55.762 81.04,62.395 75.82,68.636 70.13,74.438 63.99,79.785 57.46,84.609 50.54,88.907 43.33,92.644 35.83,95.789 28.1,98.34 20.2,100.26 12.17,101.54 4.07,102.2" />
            <g
               transform="scale(10)"
               id="g3965">
              <text
                 id="text4007"
                 style="font-variant:normal;font-weight:normal;font-size:9.99975014px;font-family:Helvetica;-inkscape-font-specification:Helvetica;writing-mode:lr-tb;fill:#444041;fill-opacity:1;fill-rule:nonzero;stroke:none"
                 transform="matrix(1,0,0,-1,282.125,138)">
                <tspan
                   id="tspan3967"
                   y="0"
                   x="0">0</tspan>
                <tspan
                   id="tspan3969"
                   sodipodi:role="line"
                   y="-45.3605"
                   x="-7.9984398 -2.4385791">20</tspan>
                <tspan
                   id="tspan3971"
                   sodipodi:role="line"
                   y="-91.624603"
                   x="-31.02854 -25.468679">40</tspan>
                <tspan
                   id="tspan3973"
                   sodipodi:role="line"
                   y="-121.2316"
                   x="-66.312538 -60.752678">60</tspan>
                <tspan
                   id="tspan3975"
                   sodipodi:role="line"
                   y="-136.98511"
                   x="-115.21994 -109.66008 -164.28014 -158.72028 -153.16042">80100</tspan>
                <tspan
                   id="tspan3977"
                   sodipodi:role="line"
                   y="-121.2316"
                   x="-216.18755 -210.62769 -205.06783">120</tspan>
                <tspan
                   id="tspan3979"
                   sodipodi:role="line"
                   y="-91.624603"
                   x="-251.47154 -245.91168 -240.35182">140</tspan>
                <tspan
                   id="tspan3981"
                   sodipodi:role="line"
                   y="-45.3605"
                   x="-274.50165 -268.94177 -263.38193">160</tspan>
                <tspan
                   id="tspan3983"
                   sodipodi:role="line"
                   y="-7.1054274e-015"
                   x="-282.50009 -276.94022 -271.38037">180</tspan>
                <tspan
                   id="tspan3985"
                   sodipodi:role="line"
                   y="45.3605"
                   x="-274.50165 -268.94177 -263.38193">200</tspan>
                <tspan
                   id="tspan3987"
                   sodipodi:role="line"
                   y="91.624603"
                   x="-251.47154 -245.91168 -240.35182">220</tspan>
                <tspan
                   id="tspan3989"
                   sodipodi:role="line"
                   y="121.2316"
                   x="-216.18755 -210.62769 -205.06783">240</tspan>
                <tspan
                   id="tspan3991"
                   sodipodi:role="line"
                   y="136.98511"
                   x="-164.28014 -158.72028 -153.16042 -118.21999 -112.66013 -107.10027">260280</tspan>
                <tspan
                   id="tspan3993"
                   sodipodi:role="line"
                   y="121.2316"
                   x="-66.312538 -60.752678 -55.192818">300</tspan>
                <tspan
                   id="tspan3995"
                   sodipodi:role="line"
                   y="91.624603"
                   x="-31.02854 -25.468679 -19.908817">320</tspan>
                <tspan
                   id="tspan3997"
                   sodipodi:role="line"
                   y="45.3605"
                   x="-7.9984398 -2.4385791 3.1212821">340</tspan>
                <tspan
                   id="tspan3999"
                   y="-2.1316282e-014"
                   x="-135.62544">0</tspan>
                <tspan
                   id="tspan4001"
                   sodipodi:role="line"
                   y="-35.186298"
                   x="-133.54614 -127.98628 -125.20635">0.5</tspan>
                <tspan
                   id="tspan4003"
                   y="-70.372597"
                   x="-123.21684">1</tspan>
                <tspan
                   id="tspan4005"
                   sodipodi:role="line"
                   y="-105.5589"
                   x="-121.13754 -115.57768 -112.79774">1.5</tspan>
              </text>
            </g>
            <path
               inkscape:connector-curvature="0"
               id="path4009"
               style="fill:none;stroke:#002dff;stroke-width:14.17322826;stroke-linecap:butt;stroke-linejoin:round;stroke-miterlimit:10;stroke-dasharray:none;stroke-opacity:1"
               d="m 2030.93,1421.25 -2.04,46.71 0.94,47.59 10.46,51.81 200.06,125.17 -0.57,76.02 -119.74,13.56 -145.05,-24.77 -113.23,-28.34 -88.85,-29.84 -57.43,-15.16 -36.04,0.66 -34.38,-3.5 -26.24,5.62 -28.5,-3.65 -23.19,7.31 -23.74,5.26 -23.48,10.3 -24.91,8.23 -26.16,6 -27.2,3.62 -28.01,1.11 -31.06,5.18 -32.53,1.97 -33.68,-1.44 -38.59,0.82 -44.59,1.78 -51.45,1.25 -69.91,8.25 -79.25,2.28 -63.59,-20.1 -63.324,-28.88 -75.433,-32.86 -115.184,-32.97 -22.293,-67.53 -9.269,-70.46 -3.106,-71 3.106,-71 65.574,-60.54 -96.137,-94.1 -77.855,-109.19 265.828,29.81 78.586,-27.26 142.367,28.98 60.93,-9.04 53.9,-5.99 56.51,6.31 44.59,1.78 35.01,-5.37 34.24,-1.73 30.66,-4.97 30.39,-2.1 29.85,0.7 29.05,3.37 28.03,5.93 27.41,1.19 28.43,-3.46 27.39,6.07 26.75,8.44 28.93,4.26 29.02,7.05 32.91,4.04 33.41,7.65 38.61,6.31 50.1,1.86 51.67,8.69 27.62,30.07 44.61,23.86 43.32,29.97 20.59,41.55 17.03,43.79 -1.02,46.98" />
            <path
               inkscape:connector-curvature="0"
               id="path4011"
               style="fill:none;stroke:#002dff;stroke-width:14.17322826;stroke-linecap:butt;stroke-linejoin:round;stroke-miterlimit:10;stroke-dasharray:none;stroke-opacity:1"
               d="m 2021.78,1375.16 9.15,46.09" />
            <path
               inkscape:connector-curvature="0"
               id="path4013"
               style="fill:none;stroke:#1e1e1e;stroke-width:14.17322826;stroke-linecap:butt;stroke-linejoin:round;stroke-miterlimit:10;stroke-dasharray:none;stroke-opacity:1"
               d="m 1909.46,1421.25 12.66,37.36 -11.92,35.85 -1.06,37.76 76.04,67.44 -4.46,48.09 -3.02,52.18 -49.54,24.62 -82.82,-9.33 -87.59,-31.22 -46.87,-5.47 -35.54,0.28 -33.85,-3.83 -25.69,5.32 -27.93,-3.89 -22.59,7.13 -23.13,5.13 -22.86,10.21 -24.29,8.2 -25.54,6.03 -26.58,3.71 -29.25,8.14 -28.61,-1.54 -31.96,2.22 -33.13,-1.16 -38.07,1.15 -44.08,2.17 -51.01,1.68 -74.95,13.29 -73.4,-1.82 -63.252,-19.57 -63.039,-28.33 -68.473,-34.73 -87.203,-39.18 -7.402,-66.35 -1.508,-66.15 4.289,-65.39 2.828,-64.77 1.426,-65.52 -54.856,-82.4 -294.046,-183.24 466.089,106.02 139.027,11.23 61.25,-16.42 65.63,-3.46 52.65,-4.61 50.54,2.1 39.49,-3.31 38.07,1.15 30.11,-7.63 32.53,1.97 31.06,5.19 28.01,1.1 27.2,3.62 26.16,6 24.91,8.23 23.48,10.3 23.74,5.26 23.19,7.31 28.5,-3.65 26.24,5.62 30.28,2.35 35.54,0.28 36.76,4.64 26.53,18.39 36.92,12.92 36.65,17.67 29.36,25.48 20.79,31.54 4.34,37.52 0.93,37.15 4.72,35.85" />
            <path
               inkscape:connector-curvature="0"
               id="path4015"
               style="fill:none;stroke:#1e1e1e;stroke-width:14.17322826;stroke-linecap:butt;stroke-linejoin:round;stroke-miterlimit:10;stroke-dasharray:none;stroke-opacity:1"
               d="m 1907.88,1385.13 1.58,36.12" />
          </g>
        </g>
      </g>
    </g>
  </g>
</svg>
